<?xml version="1.0" encoding="utf-8" standalone="no"?>
<!DOCTYPE svg PUBLIC "-//W3C//DTD SVG 1.1//EN"
  "http://www.w3.org/Graphics/SVG/1.1/DTD/svg11.dtd">
<svg xmlns:xlink="http://www.w3.org/1999/xlink" width="460.8pt" height="345.6pt" viewBox="0 0 460.8 345.6" xmlns="http://www.w3.org/2000/svg" version="1.1">
 <metadata>
  <rdf:RDF xmlns:dc="http://purl.org/dc/elements/1.1/" xmlns:cc="http://creativecommons.org/ns#" xmlns:rdf="http://www.w3.org/1999/02/22-rdf-syntax-ns#">
   <cc:Work>
    <dc:type rdf:resource="http://purl.org/dc/dcmitype/StillImage"/>
    <dc:date>2023-01-19T17:24:46.764301</dc:date>
    <dc:format>image/svg+xml</dc:format>
    <dc:creator>
     <cc:Agent>
      <dc:title>Matplotlib v3.6.3, https://matplotlib.org/</dc:title>
     </cc:Agent>
    </dc:creator>
   </cc:Work>
  </rdf:RDF>
 </metadata>
 <defs>
  <style type="text/css">*{stroke-linejoin: round; stroke-linecap: butt}</style>
 </defs>
 <g id="figure_1">
  <g id="patch_1">
   <path d="M 0 345.6 
L 460.8 345.6 
L 460.8 0 
L 0 0 
z
" style="fill: #ffffff"/>
  </g>
  <g id="axes_1">
   <g id="patch_2">
    <path d="M 57.6 307.584 
L 414.72 307.584 
L 414.72 41.472 
L 57.6 41.472 
z
" style="fill: #ffffff"/>
   </g>
   <g id="matplotlib.axis_1">
    <g id="xtick_1">
     <g id="line2d_1">
      <defs>
       <path id="m7e5efe85c1" d="M 0 0 
L 0 3.5 
" style="stroke: #000000; stroke-width: 0.8"/>
      </defs>
      <g>
       <use xlink:href="#m7e5efe85c1" x="67.403924" y="307.584" style="stroke: #000000; stroke-width: 0.8"/>
      </g>
     </g>
     <g id="text_1">
      <!-- 0 -->
      <g transform="translate(64.903924 321.576187) scale(0.1 -0.1)">
       <defs>
        <path id="FangSong-30" d="M 1575 4125 
Q 1225 4125 987 3587 
Q 750 3050 750 2150 
Q 750 1200 987 675 
Q 1225 150 1575 150 
Q 1950 150 2162 675 
Q 2375 1200 2375 2150 
Q 2375 3050 2175 3587 
Q 1975 4125 1575 4125 
z
M 1575 -50 
Q 1025 -50 650 525 
Q 275 1100 275 2150 
Q 275 3125 637 3725 
Q 1000 4325 1575 4325 
Q 2125 4325 2487 3750 
Q 2850 3175 2850 2150 
Q 2850 1125 2487 537 
Q 2125 -50 1575 -50 
z
" transform="scale(0.015625)"/>
       </defs>
       <use xlink:href="#FangSong-30"/>
      </g>
     </g>
    </g>
    <g id="xtick_2">
     <g id="line2d_2">
      <g>
       <use xlink:href="#m7e5efe85c1" x="131.691953" y="307.584" style="stroke: #000000; stroke-width: 0.8"/>
      </g>
     </g>
     <g id="text_2">
      <!-- 10 -->
      <g transform="translate(126.691953 321.576187) scale(0.1 -0.1)">
       <defs>
        <path id="FangSong-31" d="M 1800 4350 
L 1800 550 
Q 1800 350 1925 250 
Q 2050 150 2275 150 
L 2525 150 
L 2525 0 
L 700 0 
L 700 150 
L 925 150 
Q 1175 150 1287 250 
Q 1400 350 1400 550 
L 1400 3575 
Q 1400 3675 1337 3737 
Q 1275 3800 1150 3800 
L 700 3800 
L 700 3950 
L 925 3950 
Q 1225 3950 1412 4050 
Q 1600 4150 1700 4350 
L 1800 4350 
z
" transform="scale(0.015625)"/>
       </defs>
       <use xlink:href="#FangSong-31"/>
       <use xlink:href="#FangSong-30" x="50"/>
      </g>
     </g>
    </g>
    <g id="xtick_3">
     <g id="line2d_3">
      <g>
       <use xlink:href="#m7e5efe85c1" x="195.979982" y="307.584" style="stroke: #000000; stroke-width: 0.8"/>
      </g>
     </g>
     <g id="text_3">
      <!-- 20 -->
      <g transform="translate(190.979982 321.576187) scale(0.1 -0.1)">
       <defs>
        <path id="FangSong-32" d="M 2300 3225 
Q 2300 3675 2100 3912 
Q 1900 4150 1500 4150 
Q 1200 4150 987 3987 
Q 775 3825 775 3575 
Q 775 3425 862 3325 
Q 950 3225 950 3125 
Q 950 3000 887 2937 
Q 825 2875 700 2875 
Q 550 2875 462 2962 
Q 375 3050 375 3250 
Q 375 3775 750 4050 
Q 1125 4325 1550 4325 
Q 2150 4325 2437 4025 
Q 2725 3725 2725 3275 
Q 2725 2975 2587 2675 
Q 2450 2375 2150 2100 
Q 1425 1400 1037 962 
Q 650 525 575 375 
L 2050 375 
Q 2275 375 2425 550 
Q 2575 725 2625 1075 
L 2775 1075 
L 2625 0 
L 300 0 
L 300 325 
Q 425 550 712 900 
Q 1000 1250 1475 1725 
Q 1900 2150 2100 2525 
Q 2300 2900 2300 3225 
z
" transform="scale(0.015625)"/>
       </defs>
       <use xlink:href="#FangSong-32"/>
       <use xlink:href="#FangSong-30" x="50"/>
      </g>
     </g>
    </g>
    <g id="xtick_4">
     <g id="line2d_4">
      <g>
       <use xlink:href="#m7e5efe85c1" x="260.268011" y="307.584" style="stroke: #000000; stroke-width: 0.8"/>
      </g>
     </g>
     <g id="text_4">
      <!-- 30 -->
      <g transform="translate(255.268011 321.576187) scale(0.1 -0.1)">
       <defs>
        <path id="FangSong-33" d="M 2775 1150 
Q 2775 675 2425 312 
Q 2075 -50 1450 -50 
Q 1000 -50 675 200 
Q 350 450 350 775 
Q 350 925 450 1037 
Q 550 1150 650 1150 
Q 800 1150 862 1037 
Q 925 925 925 850 
Q 925 725 875 637 
Q 825 550 825 475 
Q 825 325 1012 225 
Q 1200 125 1425 125 
Q 1875 125 2100 387 
Q 2325 650 2325 1200 
Q 2325 1650 2087 1925 
Q 1850 2200 1200 2200 
L 1200 2375 
Q 1700 2375 1937 2612 
Q 2175 2850 2175 3275 
Q 2175 3625 1987 3887 
Q 1800 4150 1400 4150 
Q 1225 4150 1025 4062 
Q 825 3975 825 3775 
Q 825 3575 875 3525 
Q 925 3475 925 3400 
Q 925 3275 875 3200 
Q 825 3125 700 3125 
Q 600 3125 512 3200 
Q 425 3275 425 3475 
Q 425 3850 750 4087 
Q 1075 4325 1500 4325 
Q 2000 4325 2300 4012 
Q 2600 3700 2600 3350 
Q 2600 2975 2412 2712 
Q 2225 2450 1825 2325 
Q 2375 2125 2575 1800 
Q 2775 1475 2775 1150 
z
" transform="scale(0.015625)"/>
       </defs>
       <use xlink:href="#FangSong-33"/>
       <use xlink:href="#FangSong-30" x="50"/>
      </g>
     </g>
    </g>
    <g id="xtick_5">
     <g id="line2d_5">
      <g>
       <use xlink:href="#m7e5efe85c1" x="324.55604" y="307.584" style="stroke: #000000; stroke-width: 0.8"/>
      </g>
     </g>
     <g id="text_5">
      <!-- 40 -->
      <g transform="translate(319.55604 321.576187) scale(0.1 -0.1)">
       <defs>
        <path id="FangSong-34" d="M 2275 475 
Q 2275 300 2375 225 
Q 2475 150 2650 150 
L 2875 150 
L 2875 0 
L 1225 0 
L 1225 150 
L 1500 150 
Q 1700 150 1787 225 
Q 1875 300 1875 475 
L 1875 1300 
L 200 1300 
L 200 1425 
L 2025 4325 
L 2275 4325 
L 2275 1450 
L 2950 1450 
L 2950 1300 
L 2275 1300 
L 2275 475 
z
M 1850 3700 
L 425 1450 
L 1875 1450 
L 1875 3700 
L 1850 3700 
z
" transform="scale(0.015625)"/>
       </defs>
       <use xlink:href="#FangSong-34"/>
       <use xlink:href="#FangSong-30" x="50"/>
      </g>
     </g>
    </g>
    <g id="xtick_6">
     <g id="line2d_6">
      <g>
       <use xlink:href="#m7e5efe85c1" x="388.844068" y="307.584" style="stroke: #000000; stroke-width: 0.8"/>
      </g>
     </g>
     <g id="text_6">
      <!-- 50 -->
      <g transform="translate(383.844068 321.576187) scale(0.1 -0.1)">
       <defs>
        <path id="FangSong-35" d="M 1700 2750 
Q 2175 2750 2475 2387 
Q 2775 2025 2775 1425 
Q 2775 750 2462 350 
Q 2150 -50 1500 -50 
Q 1050 -50 700 212 
Q 350 475 350 850 
Q 350 1000 437 1112 
Q 525 1225 675 1225 
Q 825 1225 875 1125 
Q 925 1025 925 950 
Q 925 800 850 712 
Q 775 625 775 525 
Q 775 325 1012 225 
Q 1250 125 1525 125 
Q 1925 125 2137 450 
Q 2350 775 2350 1375 
Q 2350 1875 2162 2187 
Q 1975 2500 1600 2500 
Q 1325 2500 1125 2400 
Q 925 2300 750 1975 
L 525 2000 
L 650 4275 
L 2700 4275 
L 2625 3900 
L 825 3900 
L 725 2250 
Q 975 2600 1212 2675 
Q 1450 2750 1700 2750 
z
" transform="scale(0.015625)"/>
       </defs>
       <use xlink:href="#FangSong-35"/>
       <use xlink:href="#FangSong-30" x="50"/>
      </g>
     </g>
    </g>
    <g id="text_7">
     <!-- Latency -->
     <g transform="translate(218.66 333.974625) scale(0.1 -0.1)">
      <defs>
       <path id="FangSong-4c" d="M 975 350 
Q 975 250 1037 200 
Q 1100 150 1200 150 
L 1875 150 
Q 2225 150 2475 362 
Q 2725 575 2850 1025 
L 2975 975 
L 2750 0 
L 175 0 
L 175 150 
L 350 150 
Q 475 150 525 200 
Q 575 250 575 350 
L 575 3925 
Q 575 4025 525 4075 
Q 475 4125 350 4125 
L 200 4125 
L 200 4275 
L 1375 4275 
L 1375 4125 
L 1200 4125 
Q 1100 4125 1037 4075 
Q 975 4025 975 3925 
L 975 350 
z
" transform="scale(0.015625)"/>
       <path id="FangSong-61" d="M 1200 -25 
Q 750 -25 500 187 
Q 250 400 250 675 
Q 250 1125 637 1412 
Q 1025 1700 2175 1825 
L 2175 2125 
Q 2175 2375 2062 2537 
Q 1950 2700 1550 2700 
Q 1125 2700 950 2562 
Q 775 2425 825 2275 
Q 875 2175 825 2075 
Q 775 1975 625 1975 
Q 525 1975 462 2037 
Q 400 2100 400 2225 
Q 400 2450 725 2650 
Q 1050 2850 1525 2850 
Q 2025 2850 2275 2662 
Q 2525 2475 2525 2125 
L 2525 475 
Q 2525 275 2562 237 
Q 2600 200 2700 200 
Q 2825 200 2875 312 
Q 2925 425 2925 625 
L 3050 625 
Q 3050 275 2925 137 
Q 2800 0 2600 0 
Q 2425 0 2325 75 
Q 2225 150 2175 325 
Q 1925 150 1712 62 
Q 1500 -25 1200 -25 
z
M 675 750 
Q 675 525 812 337 
Q 950 150 1250 150 
Q 1475 150 1700 237 
Q 1925 325 2175 500 
L 2175 1675 
Q 1325 1575 1000 1337 
Q 675 1100 675 750 
z
" transform="scale(0.015625)"/>
       <path id="FangSong-74" d="M 1475 800 
Q 1475 450 1600 325 
Q 1725 200 1975 200 
Q 2225 200 2375 362 
Q 2525 525 2575 825 
L 2700 775 
Q 2650 425 2437 200 
Q 2225 -25 1875 -25 
Q 1500 -25 1312 200 
Q 1125 425 1125 900 
L 1125 2650 
L 375 2650 
L 375 2800 
L 575 2800 
Q 875 2800 1062 2987 
Q 1250 3175 1300 3575 
L 1325 3775 
L 1475 3775 
L 1475 2800 
L 2475 2800 
L 2475 2650 
L 1475 2650 
L 1475 800 
z
" transform="scale(0.015625)"/>
       <path id="FangSong-65" d="M 2375 1550 
Q 2400 2100 2187 2387 
Q 1975 2675 1625 2675 
Q 1250 2675 1012 2375 
Q 775 2075 775 1550 
L 2375 1550 
z
M 775 1400 
Q 775 725 1037 437 
Q 1300 150 1725 150 
Q 2050 150 2275 337 
Q 2500 525 2600 800 
L 2725 750 
Q 2650 475 2387 212 
Q 2125 -50 1675 -50 
Q 1100 -50 737 325 
Q 375 700 375 1400 
Q 375 2025 737 2437 
Q 1100 2850 1625 2850 
Q 2100 2850 2450 2525 
Q 2800 2200 2800 1400 
L 775 1400 
z
" transform="scale(0.015625)"/>
       <path id="FangSong-6e" d="M 175 0 
L 175 150 
L 300 150 
Q 425 150 475 200 
Q 525 250 525 350 
L 525 2500 
Q 525 2575 500 2612 
Q 475 2650 400 2650 
L 200 2650 
L 200 2800 
L 375 2800 
Q 500 2800 612 2825 
Q 725 2850 825 2925 
L 875 2925 
L 875 2350 
Q 1100 2600 1325 2725 
Q 1550 2850 1800 2850 
Q 2225 2850 2425 2625 
Q 2625 2400 2625 1950 
L 2625 350 
Q 2625 250 2687 200 
Q 2750 150 2850 150 
L 2975 150 
L 2975 0 
L 1925 0 
L 1925 150 
L 2050 150 
Q 2175 150 2225 200 
Q 2275 250 2275 350 
L 2275 2025 
Q 2275 2325 2150 2487 
Q 2025 2650 1775 2650 
Q 1550 2650 1312 2500 
Q 1075 2350 875 2075 
L 875 350 
Q 875 250 937 200 
Q 1000 150 1100 150 
L 1225 150 
L 1225 0 
L 175 0 
z
" transform="scale(0.015625)"/>
       <path id="FangSong-63" d="M 2125 2125 
Q 2125 2200 2137 2225 
Q 2150 2250 2175 2325 
Q 2200 2425 2075 2562 
Q 1950 2700 1650 2700 
Q 1275 2700 1012 2337 
Q 750 1975 750 1375 
Q 750 825 975 487 
Q 1200 150 1725 150 
Q 2075 150 2312 375 
Q 2550 600 2650 900 
L 2775 850 
Q 2675 475 2400 212 
Q 2125 -50 1650 -50 
Q 1050 -50 700 325 
Q 350 700 350 1400 
Q 350 2025 725 2437 
Q 1100 2850 1700 2850 
Q 2125 2850 2362 2625 
Q 2600 2400 2600 2175 
Q 2600 2025 2537 1962 
Q 2475 1900 2350 1900 
Q 2250 1900 2187 1962 
Q 2125 2025 2125 2125 
z
" transform="scale(0.015625)"/>
       <path id="FangSong-79" d="M 1625 700 
L 1675 700 
L 2225 2375 
Q 2275 2500 2212 2575 
Q 2150 2650 2050 2650 
L 1900 2650 
L 1900 2800 
L 2950 2800 
L 2950 2650 
L 2800 2650 
Q 2700 2650 2600 2575 
Q 2500 2500 2450 2375 
L 1600 -100 
Q 1475 -500 1287 -712 
Q 1100 -925 800 -950 
Q 650 -950 537 -875 
Q 425 -800 425 -675 
Q 425 -575 487 -500 
Q 550 -425 675 -425 
Q 775 -425 837 -525 
Q 900 -625 1050 -587 
Q 1200 -550 1250 -425 
Q 1300 -350 1375 -162 
Q 1450 25 1500 225 
L 650 2425 
Q 625 2525 537 2587 
Q 450 2650 350 2650 
L 250 2650 
L 250 2800 
L 1300 2800 
L 1300 2650 
L 1200 2650 
Q 1100 2650 1050 2587 
Q 1000 2525 1025 2400 
L 1625 700 
z
" transform="scale(0.015625)"/>
      </defs>
      <use xlink:href="#FangSong-4c"/>
      <use xlink:href="#FangSong-61" x="50"/>
      <use xlink:href="#FangSong-74" x="100"/>
      <use xlink:href="#FangSong-65" x="150"/>
      <use xlink:href="#FangSong-6e" x="200"/>
      <use xlink:href="#FangSong-63" x="250"/>
      <use xlink:href="#FangSong-79" x="300"/>
     </g>
    </g>
   </g>
   <g id="matplotlib.axis_2">
    <g id="ytick_1">
     <g id="line2d_7">
      <defs>
       <path id="m273671f3be" d="M 0 0 
L -3.5 0 
" style="stroke: #000000; stroke-width: 0.8"/>
      </defs>
      <g>
       <use xlink:href="#m273671f3be" x="57.6" y="295.488" style="stroke: #000000; stroke-width: 0.8"/>
      </g>
     </g>
     <g id="text_8">
      <!-- 0% -->
      <g transform="translate(40.6 298.984094) scale(0.1 -0.1)">
       <defs>
        <path id="FangSong-25" d="M 725 4150 
Q 575 4150 475 3950 
Q 375 3750 375 3200 
Q 375 2575 487 2387 
Q 600 2200 725 2200 
Q 900 2200 987 2425 
Q 1075 2650 1075 3200 
Q 1075 3650 1012 3900 
Q 950 4150 725 4150 
z
M 1400 3175 
Q 1400 2725 1250 2387 
Q 1100 2050 725 2050 
Q 425 2050 237 2350 
Q 50 2650 50 3175 
Q 50 3725 250 4025 
Q 450 4325 725 4325 
Q 1025 4325 1212 4012 
Q 1400 3700 1400 3175 
z
M 2700 1100 
Q 2700 1525 2625 1800 
Q 2550 2075 2350 2075 
Q 2200 2075 2100 1837 
Q 2000 1600 2000 1100 
Q 2000 475 2112 300 
Q 2225 125 2350 125 
Q 2525 125 2612 337 
Q 2700 550 2700 1100 
z
M 3025 1075 
Q 3025 575 2850 262 
Q 2675 -50 2350 -50 
Q 2075 -50 1875 262 
Q 1675 575 1675 1075 
Q 1675 1625 1875 1937 
Q 2075 2250 2350 2250 
Q 2650 2250 2837 1925 
Q 3025 1600 3025 1075 
z
M 2500 4250 
L 700 -50 
L 550 25 
L 2325 4325 
L 2500 4250 
z
" transform="scale(0.015625)"/>
       </defs>
       <use xlink:href="#FangSong-30"/>
       <use xlink:href="#FangSong-25" x="50"/>
      </g>
     </g>
    </g>
    <g id="ytick_2">
     <g id="line2d_8">
      <g>
       <use xlink:href="#m273671f3be" x="57.6" y="247.104" style="stroke: #000000; stroke-width: 0.8"/>
      </g>
     </g>
     <g id="text_9">
      <!-- 20% -->
      <g transform="translate(35.6 250.600094) scale(0.1 -0.1)">
       <use xlink:href="#FangSong-32"/>
       <use xlink:href="#FangSong-30" x="50"/>
       <use xlink:href="#FangSong-25" x="100"/>
      </g>
     </g>
    </g>
    <g id="ytick_3">
     <g id="line2d_9">
      <g>
       <use xlink:href="#m273671f3be" x="57.6" y="198.72" style="stroke: #000000; stroke-width: 0.8"/>
      </g>
     </g>
     <g id="text_10">
      <!-- 40% -->
      <g transform="translate(35.6 202.216094) scale(0.1 -0.1)">
       <use xlink:href="#FangSong-34"/>
       <use xlink:href="#FangSong-30" x="50"/>
       <use xlink:href="#FangSong-25" x="100"/>
      </g>
     </g>
    </g>
    <g id="ytick_4">
     <g id="line2d_10">
      <g>
       <use xlink:href="#m273671f3be" x="57.6" y="150.336" style="stroke: #000000; stroke-width: 0.8"/>
      </g>
     </g>
     <g id="text_11">
      <!-- 60% -->
      <g transform="translate(35.6 153.832094) scale(0.1 -0.1)">
       <defs>
        <path id="FangSong-36" d="M 750 1700 
Q 750 950 1012 537 
Q 1275 125 1650 125 
Q 2025 125 2225 400 
Q 2425 675 2425 1425 
Q 2425 1925 2212 2200 
Q 2000 2475 1700 2475 
Q 1425 2475 1187 2312 
Q 950 2150 750 1700 
z
M 1725 2725 
Q 2325 2725 2587 2325 
Q 2850 1925 2850 1425 
Q 2850 675 2487 312 
Q 2125 -50 1650 -50 
Q 975 -50 625 462 
Q 275 975 275 1950 
Q 275 3100 700 3712 
Q 1125 4325 1850 4325 
Q 2200 4325 2412 4125 
Q 2625 3925 2625 3775 
Q 2625 3625 2562 3550 
Q 2500 3475 2350 3475 
Q 2225 3475 2162 3537 
Q 2100 3600 2100 3725 
Q 2100 3775 2112 3825 
Q 2125 3875 2125 3925 
Q 2125 4025 2050 4087 
Q 1975 4150 1775 4150 
Q 1350 4150 1050 3762 
Q 750 3375 750 2075 
Q 900 2400 1162 2562 
Q 1425 2725 1725 2725 
z
" transform="scale(0.015625)"/>
       </defs>
       <use xlink:href="#FangSong-36"/>
       <use xlink:href="#FangSong-30" x="50"/>
       <use xlink:href="#FangSong-25" x="100"/>
      </g>
     </g>
    </g>
    <g id="ytick_5">
     <g id="line2d_11">
      <g>
       <use xlink:href="#m273671f3be" x="57.6" y="101.952" style="stroke: #000000; stroke-width: 0.8"/>
      </g>
     </g>
     <g id="text_12">
      <!-- 80% -->
      <g transform="translate(35.6 105.448094) scale(0.1 -0.1)">
       <defs>
        <path id="FangSong-38" d="M 600 1025 
Q 600 625 862 375 
Q 1125 125 1525 125 
Q 2000 125 2212 375 
Q 2425 625 2425 1000 
Q 2425 1325 2125 1625 
Q 1825 1925 1225 2175 
Q 925 1975 762 1675 
Q 600 1375 600 1025 
z
M 2800 1075 
Q 2800 600 2450 275 
Q 2100 -50 1525 -50 
Q 1000 -50 625 275 
Q 250 600 250 1025 
Q 250 1450 462 1750 
Q 675 2050 1075 2275 
Q 725 2450 537 2712 
Q 350 2975 350 3300 
Q 350 3725 675 4025 
Q 1000 4325 1575 4325 
Q 2100 4325 2425 4025 
Q 2750 3725 2750 3300 
Q 2750 3000 2562 2737 
Q 2375 2475 1975 2275 
Q 2400 2025 2600 1725 
Q 2800 1425 2800 1075 
z
M 2400 3275 
Q 2400 3625 2200 3887 
Q 2000 4150 1575 4150 
Q 1100 4150 900 3900 
Q 700 3650 700 3375 
Q 700 3100 987 2837 
Q 1275 2575 1800 2375 
Q 2100 2525 2250 2750 
Q 2400 2975 2400 3275 
z
" transform="scale(0.015625)"/>
       </defs>
       <use xlink:href="#FangSong-38"/>
       <use xlink:href="#FangSong-30" x="50"/>
       <use xlink:href="#FangSong-25" x="100"/>
      </g>
     </g>
    </g>
    <g id="ytick_6">
     <g id="line2d_12">
      <g>
       <use xlink:href="#m273671f3be" x="57.6" y="53.568" style="stroke: #000000; stroke-width: 0.8"/>
      </g>
     </g>
     <g id="text_13">
      <!-- 100% -->
      <g transform="translate(30.6 57.064094) scale(0.1 -0.1)">
       <use xlink:href="#FangSong-31"/>
       <use xlink:href="#FangSong-30" x="50"/>
       <use xlink:href="#FangSong-30" x="100"/>
       <use xlink:href="#FangSong-25" x="150"/>
      </g>
     </g>
    </g>
    <g id="text_14">
     <!-- 累计完成比例 -->
     <g transform="translate(25.154688 204.528) rotate(-90) scale(0.1 -0.1)">
      <defs>
       <path id="FangSong-7d2f" d="M 4525 4975 
L 4700 5225 
L 5000 4950 
L 4825 4775 
L 4625 3550 
L 4850 3300 
L 3175 3150 
L 3375 2975 
Q 3200 2925 2862 2725 
Q 2525 2525 2075 2275 
L 3475 2500 
Q 3750 2675 3900 2800 
Q 4050 2925 4100 3075 
L 4175 3100 
L 4325 2700 
Q 4200 2675 3500 2237 
Q 2800 1800 2275 1550 
L 4375 1825 
L 3900 2175 
L 4000 2275 
Q 4625 1900 4950 1725 
Q 4975 1475 4925 1225 
Q 4800 1375 4500 1675 
L 3250 1475 
L 3525 1300 
Q 3375 1200 3375 875 
L 3375 25 
Q 3375 -325 3225 -625 
Q 2975 -325 2400 150 
L 2450 250 
L 3050 -75 
Q 3150 -125 3150 0 
L 3150 925 
Q 3150 1300 3125 1450 
Q 1875 1275 1575 1175 
L 1325 1425 
L 1850 1550 
Q 2175 1700 3250 2300 
Q 2075 2100 1875 2000 
L 1575 2250 
L 1800 2300 
Q 2150 2475 3025 3125 
L 2000 3025 
Q 2000 2675 1950 2700 
Q 1900 2725 1650 3025 
Q 1725 3250 1725 3425 
L 1650 4400 
Q 1625 4675 1525 4950 
L 1625 5000 
L 1875 4675 
L 4525 4975 
z
M 3150 3375 
L 3150 3875 
Q 2525 3800 2400 3725 
L 2100 3975 
Q 2500 3975 3150 4075 
L 3150 4600 
L 1900 4450 
L 1975 3250 
L 3150 3375 
z
M 3375 4100 
Q 3950 4175 4025 4225 
L 4275 4000 
Q 3950 3975 3375 3900 
L 3375 3400 
L 4400 3500 
L 4575 4750 
L 3375 4600 
L 3375 4100 
z
M 5450 -75 
Q 4975 325 3875 1025 
L 3950 1125 
Q 4850 700 5350 500 
Q 5425 250 5450 -75 
z
M 800 -250 
Q 1350 75 1825 500 
Q 2300 925 2325 1125 
L 2400 1150 
L 2550 725 
Q 2425 700 2075 425 
Q 1725 150 875 -350 
L 800 -250 
z
" transform="scale(0.015625)"/>
       <path id="FangSong-8ba1" d="M 4075 4200 
Q 4100 4825 3900 5100 
L 3975 5150 
L 4450 4725 
Q 4275 4600 4300 4200 
L 4275 3000 
Q 5525 3200 5575 3250 
L 5950 2950 
Q 5725 2975 4275 2800 
L 4250 -425 
Q 4250 -700 4150 -575 
L 3875 -150 
Q 4050 50 4025 300 
L 4050 2750 
Q 2975 2625 2900 2575 
L 2525 2825 
Q 2850 2825 4050 2975 
L 4075 4200 
z
M 1775 3250 
L 2100 2950 
L 1900 2750 
L 1875 550 
L 2825 1250 
L 2875 1175 
Q 1875 250 1750 -25 
L 1525 275 
Q 1625 375 1650 625 
L 1675 2775 
Q 900 2625 750 2550 
L 425 2800 
Q 850 2825 1650 3000 
L 1775 3250 
z
M 2025 3800 
Q 1825 4300 1325 4950 
L 1375 5025 
Q 1925 4575 2175 4300 
Q 2125 4000 2025 3800 
z
" transform="scale(0.015625)"/>
       <path id="FangSong-5b8c" d="M 5375 2050 
Q 4925 2050 3550 1950 
L 3850 1750 
Q 3725 1600 3700 1375 
L 3675 275 
Q 3650 -125 4075 -175 
L 4925 -175 
Q 5300 -150 5312 62 
Q 5325 275 5325 1025 
L 5425 1025 
Q 5450 750 5475 337 
Q 5500 -75 5700 -275 
Q 5400 -375 5000 -400 
L 4075 -400 
Q 3425 -350 3425 150 
L 3475 1450 
Q 3475 1775 3425 1925 
L 2675 1850 
L 2875 1650 
Q 2750 1550 2600 1200 
Q 2450 850 2025 312 
Q 1600 -225 600 -675 
L 550 -575 
Q 1525 -100 1987 625 
Q 2450 1350 2525 1850 
Q 1550 1775 1500 1725 
L 1150 2025 
Q 1625 2025 3212 2150 
Q 4800 2275 5000 2350 
L 5375 2050 
z
M 1650 3650 
Q 1550 3125 1325 2875 
L 1150 3250 
Q 1450 3425 1575 4400 
L 1675 4400 
L 1675 3900 
L 5025 4150 
L 5175 4400 
L 5525 4075 
Q 5375 4050 4725 3250 
L 4650 3325 
L 4975 3900 
L 1650 3650 
z
M 4475 2975 
Q 4225 2975 3412 2875 
Q 2600 2775 2400 2725 
L 2050 2975 
Q 2575 2975 3200 3075 
Q 3825 3175 4150 3225 
L 4475 2975 
z
M 3550 4575 
Q 3475 4350 3300 4150 
Q 3225 4475 2900 5200 
L 2975 5250 
Q 3350 4825 3550 4575 
z
" transform="scale(0.015625)"/>
       <path id="FangSong-6210" d="M 5575 975 
Q 5600 -150 5750 -625 
Q 4650 -225 4000 1075 
Q 3625 650 2975 225 
L 2925 325 
Q 3525 825 3900 1300 
Q 3600 2275 3500 3300 
L 1875 3125 
Q 1875 2625 1825 2100 
L 2725 2250 
L 2875 2475 
L 3175 2225 
L 3000 2050 
Q 2850 475 2575 -125 
Q 2225 400 1825 775 
L 1875 850 
L 2475 400 
Q 2650 875 2750 2000 
L 1825 1850 
Q 1675 250 600 -650 
L 525 -600 
Q 1250 250 1425 987 
Q 1600 1725 1625 2612 
Q 1650 3500 1550 3800 
L 1625 3825 
L 1850 3350 
L 3450 3525 
Q 3400 4150 3375 4562 
Q 3350 4975 3225 5200 
L 3275 5225 
L 3725 4900 
Q 3625 4925 3637 4575 
Q 3650 4225 3675 3550 
Q 4900 3700 5050 3775 
L 5325 3475 
Q 4775 3475 3725 3325 
Q 3775 2425 4075 1525 
Q 4500 2025 4687 2325 
Q 4875 2625 4800 2850 
L 4875 2875 
L 5125 2325 
Q 5075 2400 4850 2125 
Q 4625 1850 4150 1275 
Q 4625 225 5425 -125 
L 5475 975 
L 5575 975 
z
M 4100 5000 
Q 4525 4700 4875 4450 
Q 4825 4250 4750 4025 
Q 4400 4525 4025 4950 
L 4100 5000 
z
" transform="scale(0.015625)"/>
       <path id="FangSong-6bd4" d="M 3500 2125 
Q 3925 2425 4487 2975 
Q 5050 3525 4950 3750 
L 5025 3775 
L 5250 3225 
Q 5175 3250 4875 3000 
Q 4575 2750 4287 2525 
Q 4000 2300 3500 1900 
L 3500 575 
Q 3475 -100 4150 -100 
L 4800 -100 
Q 5275 -100 5375 12 
Q 5475 125 5450 1350 
L 5575 1350 
Q 5600 825 5637 412 
Q 5675 0 5800 -175 
Q 5375 -325 4800 -325 
L 4150 -325 
Q 3225 -350 3275 550 
L 3275 4300 
Q 3275 4875 3150 5150 
L 3200 5200 
L 3625 4850 
Q 3475 4825 3500 4250 
L 3500 2125 
z
M 1500 2575 
Q 1900 2625 2337 2712 
Q 2775 2800 2800 2850 
L 3075 2600 
Q 2875 2575 2350 2475 
Q 1825 2375 1775 2325 
L 1500 2525 
L 1500 150 
L 2925 1075 
L 2975 1025 
Q 1550 -75 1375 -350 
L 1200 0 
Q 1275 75 1275 350 
L 1275 3925 
Q 1275 4475 1150 4750 
L 1200 4800 
L 1625 4400 
Q 1475 4375 1500 3925 
L 1500 2575 
z
" transform="scale(0.015625)"/>
       <path id="FangSong-4f8b" d="M 3050 2000 
Q 3025 1800 2975 1600 
Q 2775 1900 2525 2250 
Q 2300 1875 2025 1550 
L 1925 1625 
Q 2675 2725 2975 3975 
Q 2475 3925 2375 3875 
L 2050 4125 
Q 2375 4125 3162 4225 
Q 3950 4325 4100 4450 
L 4350 4125 
Q 4050 4150 3100 3975 
L 3300 3700 
Q 3200 3675 3125 3525 
Q 3050 3375 2925 3050 
L 3625 3150 
L 3775 3350 
L 4050 3075 
L 3875 2900 
Q 3300 825 1850 -225 
L 1800 -100 
Q 3100 975 3625 2900 
Q 3150 2825 3025 2775 
L 2875 2925 
Q 2775 2675 2575 2350 
Q 2900 2125 3050 2000 
z
M 1275 -150 
Q 1425 25 1400 225 
L 1450 3425 
Q 1025 2800 475 2225 
L 400 2325 
Q 875 2850 1450 3887 
Q 2025 4925 1925 5150 
L 2000 5175 
L 2250 4700 
Q 2200 4725 2062 4475 
Q 1925 4225 1675 3800 
L 1625 -325 
Q 1650 -675 1525 -600 
L 1275 -150 
z
M 5475 250 
Q 5475 -300 5300 -650 
Q 4900 -100 4300 375 
L 4350 475 
L 5200 -75 
Q 5250 250 5250 575 
L 5250 4350 
Q 5275 4950 5100 5150 
L 5175 5225 
L 5600 4850 
Q 5450 4775 5475 4325 
L 5475 250 
z
M 4300 1525 
Q 4400 1650 4400 1900 
L 4400 3075 
Q 4425 3525 4300 3750 
L 4350 3800 
L 4725 3450 
Q 4600 3350 4625 3025 
L 4625 1375 
Q 4625 1050 4550 1125 
L 4300 1525 
z
" transform="scale(0.015625)"/>
      </defs>
      <use xlink:href="#FangSong-7d2f"/>
      <use xlink:href="#FangSong-8ba1" x="100"/>
      <use xlink:href="#FangSong-5b8c" x="200"/>
      <use xlink:href="#FangSong-6210" x="300"/>
      <use xlink:href="#FangSong-6bd4" x="400"/>
      <use xlink:href="#FangSong-4f8b" x="500"/>
     </g>
    </g>
   </g>
   <g id="line2d_13">
    <path d="M 73.832727 295.488 
L 74.475608 243.23328 
L 77.047129 243.23328 
L 77.690009 242.50752 
L 78.332889 242.02368 
L 78.97577 241.29792 
L 79.61865 241.29792 
L 80.26153 240.81408 
L 80.90441 240.57216 
L 81.547291 239.60448 
L 83.475932 238.87872 
L 84.761692 237.4272 
L 85.404572 236.94336 
L 87.333213 236.2176 
L 87.976094 235.49184 
L 88.618974 235.24992 
L 89.261854 234.28224 
L 89.904734 233.7984 
L 91.190495 232.34688 
L 91.833375 231.13728 
L 92.476256 230.89536 
L 93.119136 230.1696 
L 93.762016 229.92768 
L 94.404896 228.96 
L 95.047777 228.47616 
L 95.690657 227.02464 
L 96.333537 226.78272 
L 96.976418 225.57312 
L 97.619298 224.84736 
L 98.262178 224.36352 
L 98.905059 222.18624 
L 99.547939 221.46048 
L 100.190819 221.21856 
L 100.833699 220.25088 
L 101.47658 218.79936 
L 102.11946 218.31552 
L 102.76234 217.10592 
L 103.405221 216.864 
L 104.690981 214.4448 
L 105.333861 214.20288 
L 105.976742 213.47712 
L 106.619622 212.26752 
L 107.262502 211.78368 
L 107.905383 210.57408 
L 108.548263 209.84832 
L 109.191143 209.36448 
L 109.834023 208.63872 
L 111.119784 206.70336 
L 112.405545 205.73568 
L 113.048425 204.52608 
L 113.691305 202.83264 
L 114.334185 202.3488 
L 114.977066 200.89728 
L 115.619946 198.96192 
L 116.905707 196.05888 
L 117.548587 192.672 
L 118.834347 190.01088 
L 119.477228 187.8336 
L 120.762988 184.68864 
L 122.048749 183.23712 
L 122.691629 181.54368 
L 123.334509 180.576 
L 123.97739 179.3664 
L 124.62027 178.39872 
L 125.26315 177.67296 
L 125.906031 177.18912 
L 126.548911 176.9472 
L 127.191791 176.22144 
L 127.834671 175.7376 
L 128.477552 174.76992 
L 129.120432 174.04416 
L 129.763312 173.56032 
L 130.406193 172.83456 
L 131.049073 171.86688 
L 132.334833 167.51232 
L 132.977714 164.8512 
L 134.263474 161.2224 
L 134.906355 160.25472 
L 135.549235 158.8032 
L 136.192115 157.83552 
L 136.834995 157.35168 
L 137.477876 156.62592 
L 138.763636 156.14208 
L 140.049397 154.69056 
L 140.692277 154.69056 
L 141.335158 154.20672 
L 141.978038 153.9648 
L 142.620918 153.9648 
L 143.263798 153.23904 
L 143.906679 153.23904 
L 146.4782 152.27136 
L 147.76396 150.81984 
L 148.406841 149.61024 
L 149.049721 149.1264 
L 149.692601 148.15872 
L 150.335482 147.43296 
L 150.978362 146.94912 
L 151.621242 145.98144 
L 152.907003 145.4976 
L 154.192763 144.04608 
L 154.835644 143.56224 
L 155.478524 142.83648 
L 156.121404 141.8688 
L 156.764284 141.8688 
L 157.407165 141.62688 
L 158.050045 140.90112 
L 158.692925 140.6592 
L 159.978686 139.69152 
L 160.621566 138.96576 
L 161.264446 137.75616 
L 161.907327 137.0304 
L 162.550207 136.54656 
L 163.193087 135.8208 
L 163.835968 135.33696 
L 164.478848 134.6112 
L 165.121728 134.12736 
L 165.764608 133.88544 
L 166.407489 131.95008 
L 167.693249 130.49856 
L 168.33613 128.5632 
L 170.26477 127.11168 
L 170.907651 125.41824 
L 171.550531 124.9344 
L 172.836292 121.78944 
L 174.122052 120.82176 
L 174.764932 120.096 
L 176.050693 119.61216 
L 176.693573 119.61216 
L 177.336454 118.64448 
L 177.979334 118.40256 
L 178.622214 117.43488 
L 179.265095 116.22528 
L 179.907975 115.74144 
L 180.550855 115.74144 
L 181.836616 113.32224 
L 182.479496 112.35456 
L 183.122376 110.4192 
L 185.051017 107.51616 
L 185.693897 106.06464 
L 186.979658 105.09696 
L 187.622538 104.3712 
L 188.265419 104.12928 
L 188.908299 102.91968 
L 189.551179 102.43584 
L 190.194059 102.19392 
L 190.83694 101.46816 
L 191.47982 100.25856 
L 192.765581 99.77472 
L 193.408461 99.29088 
L 194.051341 98.56512 
L 194.694221 98.08128 
L 195.337102 96.87168 
L 195.979982 96.38784 
L 196.622862 96.14592 
L 198.551503 93.96864 
L 199.194383 93.72672 
L 199.837264 92.75904 
L 200.480144 92.51712 
L 201.123024 91.54944 
L 201.765905 91.30752 
L 203.051665 91.30752 
L 203.694545 91.0656 
L 204.337426 89.856 
L 206.908947 89.856 
L 208.837588 89.13024 
L 209.480468 89.13024 
L 211.409109 88.40448 
L 212.051989 88.40448 
L 212.694869 88.16256 
L 213.33775 87.4368 
L 213.98063 87.19488 
L 214.62351 87.19488 
L 215.266391 86.71104 
L 215.909271 86.71104 
L 217.195032 86.2272 
L 217.837912 86.2272 
L 218.480792 85.98528 
L 219.766553 85.0176 
L 220.409433 85.0176 
L 221.695194 84.53376 
L 222.338074 84.53376 
L 222.980954 84.29184 
L 223.623834 84.29184 
L 224.909595 83.32416 
L 225.552475 83.32416 
L 228.123996 81.3888 
L 228.766877 80.66304 
L 229.409757 80.1792 
L 230.052637 79.45344 
L 230.695518 78.48576 
L 231.338398 78.48576 
L 231.981278 78.00192 
L 234.552799 78.00192 
L 235.83856 77.03424 
L 236.48144 76.30848 
L 237.12432 76.30848 
L 237.767201 76.06656 
L 238.410081 75.3408 
L 239.052961 75.09888 
L 239.695842 74.61504 
L 240.981602 74.61504 
L 242.267363 74.1312 
L 242.910243 74.1312 
L 243.553123 73.40544 
L 245.481764 73.40544 
L 246.124644 72.9216 
L 248.053285 72.9216 
L 248.696166 72.67968 
L 249.981926 72.67968 
L 250.624806 72.43776 
L 251.910567 72.43776 
L 253.196328 71.95392 
L 257.053609 71.95392 
L 257.69649 71.712 
L 258.33937 71.712 
L 258.98225 71.47008 
L 261.553771 71.47008 
L 262.196652 71.22816 
L 262.839532 71.22816 
L 263.482412 70.98624 
L 265.411053 70.98624 
L 266.053933 70.74432 
L 266.696814 70.01856 
L 267.982574 69.05088 
L 268.625455 69.05088 
L 269.911215 68.56704 
L 270.554095 68.0832 
L 272.482736 68.0832 
L 273.125617 67.59936 
L 273.768497 67.35744 
L 275.697138 67.35744 
L 276.982898 66.8736 
L 277.625779 66.8736 
L 278.268659 66.63168 
L 280.1973 66.63168 
L 280.84018 66.38976 
L 282.768821 66.38976 
L 283.411701 66.14784 
L 284.054581 65.664 
L 285.340342 65.664 
L 285.983222 65.42208 
L 291.126265 65.42208 
L 291.769145 65.18016 
L 295.626427 65.18016 
L 296.269307 64.93824 
L 298.840828 64.93824 
L 299.483708 64.69632 
L 311.055554 64.69632 
L 311.698434 64.4544 
L 315.555716 64.4544 
L 316.198596 64.21248 
L 319.412997 64.21248 
L 320.055878 63.97056 
L 320.698758 63.97056 
L 321.341638 63.72864 
L 322.627399 63.72864 
L 323.270279 63.48672 
L 325.19892 63.48672 
L 325.8418 63.2448 
L 327.127561 63.2448 
L 327.770441 63.00288 
L 328.413321 62.51904 
L 329.056202 62.27712 
L 329.699082 62.27712 
L 330.341962 62.0352 
L 330.984842 62.0352 
L 332.270603 61.55136 
L 332.913483 61.06752 
L 333.556364 60.8256 
L 334.199244 60.8256 
L 334.842124 60.09984 
L 336.127885 60.09984 
L 338.056526 59.37408 
L 340.628047 59.37408 
L 341.270927 59.13216 
L 341.913807 59.13216 
L 343.199568 58.64832 
L 343.842448 58.64832 
L 344.485329 58.4064 
L 347.05685 58.4064 
L 347.69973 58.16448 
L 350.914131 58.16448 
L 351.557012 57.92256 
L 366.343258 57.92256 
L 366.986139 57.43872 
L 382.415266 57.43872 
L 383.058146 57.1968 
L 384.343906 57.1968 
L 384.986787 56.71296 
L 386.272547 56.71296 
L 386.915428 56.47104 
L 387.558308 56.47104 
L 388.201188 56.22912 
L 388.844068 56.22912 
L 389.486949 55.9872 
L 390.129829 55.9872 
L 390.772709 55.74528 
L 392.70135 55.74528 
L 393.34423 55.50336 
L 393.987111 55.50336 
L 394.629991 55.01952 
L 395.272871 55.01952 
L 396.558632 54.53568 
L 397.201512 54.05184 
L 398.487273 53.568 
L 398.487273 53.568 
" clip-path="url(#p0dbaf39a1d)" style="fill: none; stroke: #ff0000; stroke-linecap: square"/>
   </g>
   <g id="line2d_14">
    <path d="M 73.832727 295.488 
L 74.475608 243.382154 
L 77.047129 243.382154 
L 77.690009 242.141538 
L 78.332889 242.141538 
L 78.97577 239.660308 
L 80.90441 239.660308 
L 81.547291 238.419692 
L 82.833051 238.419692 
L 83.475932 237.179077 
L 84.761692 237.179077 
L 85.404572 235.938462 
L 87.333213 235.938462 
L 87.976094 234.697846 
L 88.618974 234.697846 
L 89.261854 232.216615 
L 89.904734 232.216615 
L 90.547615 229.735385 
L 91.190495 229.735385 
L 91.833375 228.494769 
L 92.476256 228.494769 
L 93.119136 227.254154 
L 93.762016 227.254154 
L 94.404896 223.532308 
L 95.047777 222.291692 
L 95.690657 219.810462 
L 96.976418 217.329231 
L 97.619298 217.329231 
L 98.262178 216.088615 
L 98.905059 213.607385 
L 99.547939 213.607385 
L 100.833699 211.126154 
L 101.47658 207.404308 
L 102.11946 207.404308 
L 102.76234 204.923077 
L 103.405221 204.923077 
L 104.048101 203.682462 
L 104.690981 201.201231 
L 105.333861 199.960615 
L 105.976742 199.960615 
L 106.619622 198.72 
L 107.905383 198.72 
L 109.834023 191.276308 
L 110.476904 190.035692 
L 111.119784 186.313846 
L 111.762664 186.313846 
L 114.334185 181.351385 
L 114.977066 178.870154 
L 115.619946 177.629538 
L 116.262826 177.629538 
L 117.548587 172.667077 
L 119.477228 168.945231 
L 120.120108 166.464 
L 120.762988 165.223385 
L 121.405869 162.742154 
L 124.62027 162.742154 
L 125.26315 160.260923 
L 126.548911 160.260923 
L 127.191791 157.779692 
L 127.834671 156.539077 
L 128.477552 154.057846 
L 129.763312 151.576615 
L 131.049073 151.576615 
L 131.691953 150.336 
L 132.334833 150.336 
L 133.620594 147.854769 
L 134.263474 147.854769 
L 134.906355 145.373538 
L 136.192115 145.373538 
L 136.834995 142.892308 
L 137.477876 142.892308 
L 138.120756 141.651692 
L 140.692277 141.651692 
L 141.335158 140.411077 
L 145.83532 140.411077 
L 146.4782 139.170462 
L 147.12108 136.689231 
L 148.406841 134.208 
L 149.049721 131.726769 
L 150.335482 129.245538 
L 150.978362 129.245538 
L 151.621242 128.004923 
L 153.549883 128.004923 
L 154.835644 125.523692 
L 155.478524 125.523692 
L 156.121404 124.283077 
L 159.978686 124.283077 
L 160.621566 121.801846 
L 161.907327 119.320615 
L 162.550207 119.320615 
L 163.835968 114.358154 
L 164.478848 113.117538 
L 165.764608 113.117538 
L 166.407489 110.636308 
L 168.33613 106.914462 
L 170.26477 106.914462 
L 170.907651 104.433231 
L 171.550531 104.433231 
L 172.193411 101.952 
L 173.479172 99.470769 
L 177.336454 99.470769 
L 177.979334 98.230154 
L 178.622214 98.230154 
L 179.265095 96.989538 
L 180.550855 96.989538 
L 181.193735 92.027077 
L 182.479496 92.027077 
L 183.122376 90.786462 
L 183.765257 88.305231 
L 184.408137 87.064615 
L 185.051017 87.064615 
L 185.693897 84.583385 
L 186.336778 84.583385 
L 186.979658 83.342769 
L 188.908299 83.342769 
L 189.551179 82.102154 
L 190.194059 82.102154 
L 190.83694 80.861538 
L 191.47982 78.380308 
L 192.765581 78.380308 
L 193.408461 77.139692 
L 194.051341 74.658462 
L 194.694221 74.658462 
L 195.979982 69.696 
L 197.908623 69.696 
L 198.551503 67.214769 
L 199.194383 67.214769 
L 199.837264 63.492923 
L 200.480144 62.252308 
L 203.694545 62.252308 
L 204.337426 61.011692 
L 207.551827 61.011692 
L 208.194707 59.771077 
L 227.481116 59.771077 
L 228.123996 58.530462 
L 230.052637 58.530462 
L 230.695518 57.289846 
L 237.767201 57.289846 
L 238.410081 56.049231 
L 239.052961 56.049231 
L 239.695842 54.808615 
L 241.624482 54.808615 
L 242.267363 53.568 
L 398.487273 53.568 
L 398.487273 53.568 
" clip-path="url(#p0dbaf39a1d)" style="fill: none; stroke-dasharray: 1.85,0.8; stroke-dashoffset: 0; stroke: #008000; stroke-width: 0.5"/>
   </g>
   <g id="line2d_15">
    <path d="M 73.832727 295.488 
L 74.475608 226.902433 
L 82.190171 226.902433 
L 82.833051 225.655423 
L 86.690333 225.655423 
L 87.333213 224.408412 
L 87.976094 224.408412 
L 88.618974 223.161402 
L 89.261854 220.667381 
L 89.904734 220.667381 
L 91.190495 218.173361 
L 91.833375 214.43233 
L 92.476256 214.43233 
L 93.762016 211.938309 
L 94.404896 211.938309 
L 95.047777 210.691299 
L 95.690657 205.703258 
L 96.333537 205.703258 
L 97.619298 200.715216 
L 98.262178 200.715216 
L 98.905059 199.468206 
L 100.190819 199.468206 
L 100.833699 196.974186 
L 102.11946 194.480165 
L 103.405221 194.480165 
L 104.048101 193.233155 
L 105.976742 193.233155 
L 106.619622 190.739134 
L 107.262502 190.739134 
L 107.905383 184.504082 
L 112.405545 184.504082 
L 113.048425 183.257072 
L 114.334185 183.257072 
L 116.262826 179.516041 
L 116.905707 177.022021 
L 117.548587 172.033979 
L 118.191467 170.786969 
L 118.834347 170.786969 
L 119.477228 168.292948 
L 120.762988 165.798928 
L 121.405869 165.798928 
L 122.048749 164.551918 
L 122.691629 162.057897 
L 123.334509 162.057897 
L 123.97739 159.563876 
L 125.26315 157.069856 
L 125.906031 154.575835 
L 126.548911 153.328825 
L 127.834671 153.328825 
L 128.477552 150.834804 
L 129.120432 149.587794 
L 129.763312 149.587794 
L 130.406193 148.340784 
L 131.049073 145.846763 
L 133.620594 140.858722 
L 135.549235 133.37666 
L 136.834995 133.37666 
L 137.477876 132.129649 
L 138.763636 132.129649 
L 139.406517 130.882639 
L 142.620918 130.882639 
L 143.263798 129.635629 
L 147.76396 129.635629 
L 148.406841 128.388619 
L 149.692601 128.388619 
L 150.335482 127.141608 
L 151.621242 122.153567 
L 152.907003 122.153567 
L 153.549883 120.906557 
L 154.192763 118.412536 
L 155.478524 118.412536 
L 156.121404 117.165526 
L 159.335806 117.165526 
L 159.978686 115.918515 
L 161.264446 115.918515 
L 161.907327 113.424495 
L 162.550207 113.424495 
L 163.193087 112.177485 
L 163.835968 112.177485 
L 164.478848 110.930474 
L 165.764608 110.930474 
L 166.407489 108.436454 
L 167.693249 105.942433 
L 168.33613 100.954392 
L 171.550531 100.954392 
L 172.193411 99.707381 
L 173.479172 99.707381 
L 175.407813 95.966351 
L 177.979334 95.966351 
L 178.622214 93.47233 
L 179.265095 93.47233 
L 179.907975 92.22532 
L 181.193735 92.22532 
L 182.479496 87.237278 
L 183.122376 85.990268 
L 183.765257 85.990268 
L 185.051017 83.496247 
L 185.693897 83.496247 
L 186.336778 82.249237 
L 188.265419 82.249237 
L 188.908299 81.002227 
L 197.265743 81.002227 
L 197.908623 79.755216 
L 199.194383 79.755216 
L 199.837264 78.508206 
L 200.480144 78.508206 
L 201.765905 76.014186 
L 203.694545 76.014186 
L 204.337426 73.520165 
L 210.766229 73.520165 
L 211.409109 72.273155 
L 217.837912 72.273155 
L 218.480792 71.026144 
L 225.552475 71.026144 
L 226.838236 68.532124 
L 228.766877 68.532124 
L 229.409757 66.038103 
L 230.052637 64.791093 
L 231.338398 64.791093 
L 231.981278 63.544082 
L 234.552799 63.544082 
L 235.19568 62.297072 
L 235.83856 62.297072 
L 236.48144 61.050062 
L 238.410081 61.050062 
L 239.052961 59.803052 
L 242.910243 59.803052 
L 243.553123 58.556041 
L 245.481764 58.556041 
L 246.124644 57.309031 
L 251.910567 57.309031 
L 252.553447 56.062021 
L 258.33937 56.062021 
L 258.98225 54.81501 
L 266.053933 54.81501 
L 266.696814 53.568 
L 398.487273 53.568 
L 398.487273 53.568 
" clip-path="url(#p0dbaf39a1d)" style="fill: none; stroke-dasharray: 1.85,0.8; stroke-dashoffset: 0; stroke: #0000ff; stroke-width: 0.5"/>
   </g>
   <g id="line2d_16">
    <path d="M 73.832727 295.488 
L 74.475608 247.720357 
L 77.690009 247.720357 
L 78.332889 244.638573 
L 80.90441 244.638573 
L 81.547291 243.097682 
L 83.475932 243.097682 
L 84.118812 241.55679 
L 86.047453 241.55679 
L 86.690333 240.015898 
L 89.261854 240.015898 
L 89.904734 238.475006 
L 91.833375 238.475006 
L 92.476256 236.934115 
L 98.262178 236.934115 
L 98.905059 235.393223 
L 103.405221 235.393223 
L 104.048101 233.852331 
L 105.333861 233.852331 
L 105.976742 232.311439 
L 106.619622 232.311439 
L 107.262502 230.770548 
L 109.191143 230.770548 
L 109.834023 229.229656 
L 110.476904 226.147873 
L 111.119784 224.606981 
L 112.405545 224.606981 
L 113.048425 223.066089 
L 113.691305 223.066089 
L 114.334185 221.525197 
L 115.619946 221.525197 
L 116.262826 218.443414 
L 116.905707 216.902522 
L 117.548587 216.902522 
L 118.834347 213.820739 
L 119.477228 209.198064 
L 120.762988 209.198064 
L 123.334509 203.034497 
L 123.97739 203.034497 
L 124.62027 201.493605 
L 129.763312 201.493605 
L 130.406193 198.411822 
L 131.049073 198.411822 
L 131.691953 195.330038 
L 132.334833 193.789146 
L 132.977714 189.166471 
L 134.906355 189.166471 
L 135.549235 187.62558 
L 136.192115 183.002904 
L 138.763636 183.002904 
L 139.406517 179.921121 
L 141.335158 179.921121 
L 141.978038 178.380229 
L 142.620918 178.380229 
L 143.263798 176.839338 
L 147.76396 176.839338 
L 148.406841 172.216662 
L 149.049721 172.216662 
L 149.692601 169.134879 
L 152.907003 169.134879 
L 153.549883 167.593987 
L 154.835644 167.593987 
L 155.478524 164.512204 
L 158.692925 164.512204 
L 159.978686 161.43042 
L 160.621566 161.43042 
L 161.264446 156.807745 
L 164.478848 156.807745 
L 165.121728 155.266854 
L 165.764608 155.266854 
L 166.407489 153.725962 
L 167.693249 153.725962 
L 168.33613 150.644178 
L 168.97901 150.644178 
L 169.62189 147.562395 
L 170.26477 146.021503 
L 170.907651 139.857936 
L 171.550531 138.317045 
L 172.193411 138.317045 
L 173.479172 135.235261 
L 174.122052 135.235261 
L 174.764932 133.694369 
L 176.693573 133.694369 
L 177.336454 132.153478 
L 177.979334 132.153478 
L 178.622214 129.071694 
L 179.265095 127.530803 
L 181.193735 127.530803 
L 182.479496 124.449019 
L 188.265419 124.449019 
L 188.908299 122.908127 
L 190.194059 122.908127 
L 191.47982 119.826344 
L 192.1227 119.826344 
L 192.765581 118.285452 
L 193.408461 118.285452 
L 194.694221 115.203669 
L 195.337102 112.121885 
L 196.622862 112.121885 
L 197.265743 107.49921 
L 198.551503 107.49921 
L 199.194383 105.958318 
L 200.480144 105.958318 
L 201.123024 104.417427 
L 203.051665 104.417427 
L 204.337426 101.335643 
L 206.908947 101.335643 
L 207.551827 99.794752 
L 210.123348 99.794752 
L 210.766229 98.25386 
L 212.694869 98.25386 
L 213.33775 96.712968 
L 214.62351 96.712968 
L 215.266391 93.631185 
L 215.909271 93.631185 
L 216.552151 92.090293 
L 218.480792 92.090293 
L 219.123672 89.00851 
L 219.766553 87.467618 
L 226.195356 87.467618 
L 227.481116 84.385834 
L 228.123996 84.385834 
L 228.766877 81.304051 
L 229.409757 81.304051 
L 230.695518 78.222268 
L 235.19568 78.222268 
L 236.48144 75.140484 
L 237.767201 75.140484 
L 238.410081 72.058701 
L 239.052961 72.058701 
L 239.695842 70.517809 
L 242.910243 70.517809 
L 243.553123 67.436025 
L 248.053285 67.436025 
L 248.696166 65.895134 
L 249.981926 65.895134 
L 250.624806 64.354242 
L 252.553447 64.354242 
L 253.196328 62.81335 
L 257.053609 62.81335 
L 257.69649 61.272459 
L 267.339694 61.272459 
L 267.982574 59.731567 
L 275.697138 59.731567 
L 276.340018 58.190675 
L 311.055554 58.190675 
L 311.698434 56.649783 
L 329.699082 56.649783 
L 330.341962 55.108892 
L 366.343258 55.108892 
L 366.986139 53.568 
L 398.487273 53.568 
L 398.487273 53.568 
" clip-path="url(#p0dbaf39a1d)" style="fill: none; stroke-dasharray: 1.85,0.8; stroke-dashoffset: 0; stroke: #bf00bf; stroke-width: 0.5"/>
   </g>
   <g id="line2d_17">
    <path d="M 73.832727 295.488 
L 74.475608 243.113567 
L 77.047129 243.113567 
L 77.690009 241.866557 
L 78.332889 241.866557 
L 78.97577 240.619546 
L 79.61865 240.619546 
L 80.26153 238.125526 
L 82.190171 234.384495 
L 83.475932 234.384495 
L 84.118812 231.890474 
L 84.761692 228.149443 
L 86.047453 225.655423 
L 87.333213 225.655423 
L 87.976094 223.161402 
L 89.261854 223.161402 
L 89.904734 221.914392 
L 90.547615 221.914392 
L 91.190495 219.420371 
L 91.833375 218.173361 
L 92.476256 218.173361 
L 93.119136 216.926351 
L 93.762016 216.926351 
L 94.404896 215.67934 
L 96.333537 215.67934 
L 96.976418 214.43233 
L 97.619298 214.43233 
L 98.262178 213.18532 
L 98.905059 209.444289 
L 99.547939 208.197278 
L 100.833699 208.197278 
L 101.47658 205.703258 
L 102.11946 205.703258 
L 102.76234 201.962227 
L 103.405221 200.715216 
L 104.690981 195.727175 
L 105.333861 195.727175 
L 105.976742 194.480165 
L 106.619622 191.986144 
L 107.262502 190.739134 
L 107.905383 190.739134 
L 108.548263 189.492124 
L 109.834023 189.492124 
L 110.476904 188.245113 
L 111.119784 188.245113 
L 111.762664 185.751093 
L 113.048425 183.257072 
L 113.691305 179.516041 
L 114.334185 179.516041 
L 115.619946 174.528 
L 116.905707 172.033979 
L 118.834347 164.551918 
L 120.120108 162.057897 
L 120.762988 158.316866 
L 122.048749 158.316866 
L 123.97739 154.575835 
L 127.191791 154.575835 
L 127.834671 153.328825 
L 128.477552 153.328825 
L 129.120432 152.081814 
L 130.406193 152.081814 
L 131.049073 150.834804 
L 131.691953 145.846763 
L 132.334833 142.105732 
L 132.977714 137.117691 
L 133.620594 135.87068 
L 134.263474 132.129649 
L 134.906355 132.129649 
L 136.192115 129.635629 
L 136.834995 129.635629 
L 137.477876 128.388619 
L 138.120756 128.388619 
L 138.763636 127.141608 
L 139.406517 127.141608 
L 140.049397 124.647588 
L 142.620918 124.647588 
L 143.263798 123.400577 
L 143.906679 123.400577 
L 145.192439 120.906557 
L 146.4782 120.906557 
L 147.12108 119.659546 
L 147.76396 117.165526 
L 149.692601 117.165526 
L 150.335482 115.918515 
L 152.264122 115.918515 
L 153.549883 113.424495 
L 154.192763 113.424495 
L 155.478524 110.930474 
L 156.764284 110.930474 
L 157.407165 109.683464 
L 158.050045 105.942433 
L 159.335806 103.448412 
L 160.621566 103.448412 
L 161.264446 102.201402 
L 161.907327 102.201402 
L 162.550207 100.954392 
L 163.835968 100.954392 
L 165.121728 98.460371 
L 165.764608 98.460371 
L 166.407489 95.966351 
L 168.33613 92.22532 
L 168.97901 89.731299 
L 170.26477 89.731299 
L 170.907651 88.484289 
L 172.193411 88.484289 
L 172.836292 85.990268 
L 173.479172 85.990268 
L 174.764932 83.496247 
L 176.693573 83.496247 
L 177.336454 81.002227 
L 178.622214 81.002227 
L 179.265095 79.755216 
L 181.193735 79.755216 
L 181.836616 77.261196 
L 182.479496 77.261196 
L 183.122376 74.767175 
L 184.408137 74.767175 
L 186.336778 71.026144 
L 186.979658 71.026144 
L 187.622538 68.532124 
L 189.551179 68.532124 
L 190.83694 66.038103 
L 191.47982 63.544082 
L 192.1227 62.297072 
L 192.765581 62.297072 
L 193.408461 61.050062 
L 194.694221 61.050062 
L 195.337102 59.803052 
L 195.979982 59.803052 
L 196.622862 58.556041 
L 197.265743 58.556041 
L 198.551503 56.062021 
L 200.480144 56.062021 
L 201.123024 53.568 
L 398.487273 53.568 
L 398.487273 53.568 
" clip-path="url(#p0dbaf39a1d)" style="fill: none; stroke-dasharray: 1.85,0.8; stroke-dashoffset: 0; stroke: #bfbf00; stroke-width: 0.5"/>
   </g>
   <g id="line2d_18">
    <path d="M 73.832727 295.488 
L 74.475608 252.686769 
L 77.047129 252.686769 
L 77.690009 251.756308 
L 80.90441 251.756308 
L 81.547291 250.825846 
L 96.333537 250.825846 
L 97.619298 248.964923 
L 98.262178 248.964923 
L 99.547939 245.243077 
L 100.190819 245.243077 
L 100.833699 244.312615 
L 101.47658 244.312615 
L 102.11946 243.382154 
L 104.048101 243.382154 
L 104.690981 242.451692 
L 105.333861 242.451692 
L 105.976742 241.521231 
L 112.405545 241.521231 
L 113.048425 240.590769 
L 113.691305 237.799385 
L 114.334185 237.799385 
L 114.977066 236.868923 
L 115.619946 233.147077 
L 116.262826 231.286154 
L 116.905707 231.286154 
L 117.548587 225.703385 
L 118.834347 223.842462 
L 120.762988 218.259692 
L 121.405869 218.259692 
L 122.048749 217.329231 
L 122.691629 214.537846 
L 124.62027 208.955077 
L 126.548911 208.955077 
L 127.191791 208.024615 
L 129.120432 208.024615 
L 129.763312 207.094154 
L 130.406193 207.094154 
L 131.691953 205.233231 
L 132.334833 201.511385 
L 132.977714 199.650462 
L 133.620594 194.998154 
L 134.263474 193.137231 
L 134.906355 193.137231 
L 135.549235 191.276308 
L 136.834995 191.276308 
L 137.477876 190.345846 
L 139.406517 190.345846 
L 140.049397 189.415385 
L 140.692277 189.415385 
L 141.335158 188.484923 
L 145.192439 188.484923 
L 145.83532 187.554462 
L 149.049721 187.554462 
L 149.692601 186.624 
L 150.978362 186.624 
L 152.264122 184.763077 
L 155.478524 184.763077 
L 156.121404 182.902154 
L 159.978686 182.902154 
L 160.621566 181.971692 
L 161.907327 181.971692 
L 162.550207 181.041231 
L 165.121728 181.041231 
L 166.407489 179.180308 
L 169.62189 179.180308 
L 170.26477 178.249846 
L 170.907651 178.249846 
L 171.550531 177.319385 
L 172.836292 171.736615 
L 175.407813 171.736615 
L 176.050693 170.806154 
L 176.693573 170.806154 
L 177.336454 169.875692 
L 178.622214 169.875692 
L 179.265095 168.014769 
L 179.907975 167.084308 
L 180.550855 167.084308 
L 181.193735 166.153846 
L 181.836616 166.153846 
L 182.479496 165.223385 
L 183.122376 161.501538 
L 185.051017 155.918769 
L 185.693897 153.127385 
L 186.336778 153.127385 
L 188.265419 150.336 
L 188.908299 147.544615 
L 189.551179 146.614154 
L 194.051341 146.614154 
L 194.694221 145.683692 
L 197.265743 145.683692 
L 197.908623 144.753231 
L 203.694545 144.753231 
L 204.337426 143.822769 
L 208.194707 143.822769 
L 208.837588 142.892308 
L 209.480468 142.892308 
L 210.123348 141.961846 
L 212.051989 141.961846 
L 212.694869 141.031385 
L 213.33775 139.170462 
L 213.98063 138.24 
L 216.552151 138.24 
L 217.195032 137.309538 
L 219.123672 137.309538 
L 219.766553 136.379077 
L 220.409433 136.379077 
L 221.695194 134.518154 
L 222.338074 134.518154 
L 222.980954 133.587692 
L 223.623834 133.587692 
L 224.909595 129.865846 
L 225.552475 129.865846 
L 226.195356 128.935385 
L 226.838236 128.935385 
L 228.766877 126.144 
L 229.409757 126.144 
L 230.052637 125.213538 
L 230.695518 123.352615 
L 231.338398 123.352615 
L 231.981278 122.422154 
L 234.552799 122.422154 
L 236.48144 119.630769 
L 237.12432 119.630769 
L 237.767201 118.700308 
L 240.981602 118.700308 
L 241.624482 117.769846 
L 245.481764 117.769846 
L 246.124644 116.839385 
L 261.553771 116.839385 
L 262.196652 115.908923 
L 262.839532 115.908923 
L 263.482412 114.978462 
L 265.411053 114.978462 
L 266.053933 114.048 
L 267.339694 110.326154 
L 267.982574 109.395692 
L 268.625455 109.395692 
L 269.911215 107.534769 
L 270.554095 105.673846 
L 272.482736 105.673846 
L 273.125617 103.812923 
L 273.768497 102.882462 
L 276.340018 102.882462 
L 276.982898 101.952 
L 277.625779 101.952 
L 278.268659 101.021538 
L 280.1973 101.021538 
L 280.84018 100.091077 
L 282.768821 100.091077 
L 283.411701 99.160615 
L 284.054581 97.299692 
L 285.340342 97.299692 
L 285.983222 96.369231 
L 291.126265 96.369231 
L 291.769145 95.438769 
L 295.626427 95.438769 
L 296.269307 94.508308 
L 298.840828 94.508308 
L 299.483708 93.577846 
L 315.555716 93.577846 
L 316.198596 92.647385 
L 319.412997 92.647385 
L 320.055878 91.716923 
L 320.698758 91.716923 
L 321.341638 90.786462 
L 322.627399 90.786462 
L 323.270279 89.856 
L 325.19892 89.856 
L 325.8418 88.925538 
L 327.127561 88.925538 
L 327.770441 87.995077 
L 328.413321 86.134154 
L 329.056202 85.203692 
L 330.984842 85.203692 
L 332.270603 83.342769 
L 332.913483 81.481846 
L 333.556364 80.551385 
L 334.199244 80.551385 
L 334.842124 77.76 
L 336.127885 77.76 
L 338.056526 74.968615 
L 340.628047 74.968615 
L 341.270927 74.038154 
L 341.913807 74.038154 
L 343.199568 72.177231 
L 343.842448 72.177231 
L 344.485329 71.246769 
L 347.05685 71.246769 
L 347.69973 70.316308 
L 350.914131 70.316308 
L 351.557012 69.385846 
L 366.343258 69.385846 
L 366.986139 68.455385 
L 382.415266 68.455385 
L 383.058146 67.524923 
L 384.343906 67.524923 
L 384.986787 65.664 
L 386.272547 65.664 
L 386.915428 64.733538 
L 387.558308 64.733538 
L 388.201188 63.803077 
L 388.844068 63.803077 
L 389.486949 62.872615 
L 390.129829 62.872615 
L 390.772709 61.942154 
L 392.70135 61.942154 
L 393.34423 61.011692 
L 393.987111 61.011692 
L 394.629991 59.150769 
L 395.272871 59.150769 
L 396.558632 57.289846 
L 397.201512 55.428923 
L 398.487273 53.568 
L 398.487273 53.568 
" clip-path="url(#p0dbaf39a1d)" style="fill: none; stroke-dasharray: 1.85,0.8; stroke-dashoffset: 0; stroke: #000000; stroke-width: 0.5"/>
   </g>
   <g id="patch_3">
    <path d="M 57.6 307.584 
L 57.6 41.472 
" style="fill: none; stroke: #000000; stroke-width: 0.8; stroke-linejoin: miter; stroke-linecap: square"/>
   </g>
   <g id="patch_4">
    <path d="M 414.72 307.584 
L 414.72 41.472 
" style="fill: none; stroke: #000000; stroke-width: 0.8; stroke-linejoin: miter; stroke-linecap: square"/>
   </g>
   <g id="patch_5">
    <path d="M 57.6 307.584 
L 414.72 307.584 
" style="fill: none; stroke: #000000; stroke-width: 0.8; stroke-linejoin: miter; stroke-linecap: square"/>
   </g>
   <g id="patch_6">
    <path d="M 57.6 41.472 
L 414.72 41.472 
" style="fill: none; stroke: #000000; stroke-width: 0.8; stroke-linejoin: miter; stroke-linecap: square"/>
   </g>
   <g id="text_15">
    <!-- count=1000, googlenet=150, resnet50=187, squeezenetv1=150, vgg19=112, yolov2=150 -->
    <g transform="translate(-3.84 35.472) scale(0.12 -0.12)">
     <defs>
      <path id="FangSong-6f" d="M 2875 1400 
Q 2875 775 2500 362 
Q 2125 -50 1575 -50 
Q 1000 -50 637 375 
Q 275 800 275 1400 
Q 275 1950 637 2400 
Q 1000 2850 1575 2850 
Q 2175 2850 2525 2400 
Q 2875 1950 2875 1400 
z
M 675 1375 
Q 675 725 937 412 
Q 1200 100 1575 100 
Q 2000 100 2237 437 
Q 2475 775 2475 1375 
Q 2475 2025 2212 2362 
Q 1950 2700 1575 2700 
Q 1225 2700 950 2362 
Q 675 2025 675 1375 
z
" transform="scale(0.015625)"/>
      <path id="FangSong-75" d="M 1425 225 
Q 1725 225 1937 375 
Q 2150 525 2250 850 
L 2250 2425 
Q 2250 2525 2200 2587 
Q 2150 2650 2025 2650 
L 1875 2650 
L 1875 2800 
L 2025 2800 
Q 2175 2800 2300 2825 
Q 2425 2850 2550 2950 
L 2600 2950 
L 2600 500 
Q 2600 400 2662 350 
Q 2725 300 2825 300 
L 2975 300 
L 2975 150 
L 2825 150 
Q 2700 150 2575 112 
Q 2450 75 2300 0 
L 2250 0 
L 2250 525 
Q 2125 250 1875 112 
Q 1625 -25 1300 -25 
Q 900 -25 700 200 
Q 500 425 500 925 
L 500 2425 
Q 500 2525 450 2587 
Q 400 2650 275 2650 
L 125 2650 
L 125 2800 
L 275 2800 
Q 425 2800 550 2825 
Q 675 2850 800 2950 
L 850 2950 
L 850 875 
Q 850 525 1000 375 
Q 1150 225 1425 225 
z
" transform="scale(0.015625)"/>
      <path id="FangSong-3d" d="M 175 2725 
L 175 2950 
L 2950 2950 
L 2950 2725 
L 175 2725 
z
M 175 1450 
L 175 1675 
L 2950 1675 
L 2950 1450 
L 175 1450 
z
" transform="scale(0.015625)"/>
      <path id="FangSong-2c" d="M 1325 75 
Q 1200 25 1100 75 
Q 1000 125 962 237 
Q 925 350 925 437 
Q 925 525 987 612 
Q 1050 700 1150 737 
Q 1250 775 1425 725 
Q 1600 675 1650 500 
Q 1700 325 1662 150 
Q 1625 -25 1525 -200 
Q 1425 -375 1312 -475 
Q 1200 -575 1025 -675 
L 950 -575 
Q 1100 -450 1187 -312 
Q 1275 -175 1325 75 
z
" transform="scale(0.015625)"/>
      <path id="FangSong-20" transform="scale(0.015625)"/>
      <path id="FangSong-67" d="M 850 1875 
Q 850 1575 1025 1362 
Q 1200 1150 1500 1150 
Q 1825 1150 1987 1337 
Q 2150 1525 2150 1875 
Q 2150 2300 1962 2487 
Q 1775 2675 1500 2675 
Q 1225 2675 1037 2487 
Q 850 2300 850 1875 
z
M 2075 525 
Q 2450 475 2625 312 
Q 2800 150 2800 -125 
Q 2800 -500 2487 -725 
Q 2175 -950 1500 -950 
Q 975 -950 650 -737 
Q 325 -525 325 -250 
Q 325 -75 450 100 
Q 575 275 850 375 
Q 700 450 612 537 
Q 525 625 525 750 
Q 525 900 625 1012 
Q 725 1125 875 1200 
Q 725 1325 612 1500 
Q 500 1675 500 1875 
Q 500 2250 762 2537 
Q 1025 2825 1500 2825 
Q 1700 2825 1887 2775 
Q 2075 2725 2200 2600 
Q 2375 2725 2512 2787 
Q 2650 2850 2750 2850 
Q 2875 2850 2925 2762 
Q 2975 2675 2975 2600 
Q 2975 2500 2937 2437 
Q 2900 2375 2800 2375 
Q 2725 2375 2675 2412 
Q 2625 2450 2600 2525 
Q 2575 2600 2487 2587 
Q 2400 2575 2300 2500 
Q 2400 2400 2450 2225 
Q 2500 2050 2500 1875 
Q 2500 1575 2262 1287 
Q 2025 1000 1500 1000 
Q 1350 1000 1225 1037 
Q 1100 1075 1025 1125 
Q 925 1075 875 1000 
Q 825 925 825 875 
Q 825 775 875 725 
Q 925 675 1025 675 
Q 1350 625 1612 587 
Q 1875 550 2075 525 
z
M 1050 325 
Q 825 225 737 87 
Q 650 -50 650 -250 
Q 650 -450 875 -625 
Q 1100 -800 1550 -800 
Q 1975 -800 2225 -662 
Q 2475 -525 2475 -250 
Q 2475 -75 2412 25 
Q 2350 125 2225 150 
Q 1975 200 1675 237 
Q 1375 275 1050 325 
z
" transform="scale(0.015625)"/>
      <path id="FangSong-6c" d="M 900 4275 
Q 1125 4275 1325 4325 
Q 1525 4375 1700 4475 
L 1750 4475 
L 1750 350 
Q 1750 250 1812 200 
Q 1875 150 1975 150 
L 2550 150 
L 2550 0 
L 600 0 
L 600 150 
L 1175 150 
Q 1300 150 1350 200 
Q 1400 250 1400 350 
L 1400 3925 
Q 1400 4025 1350 4075 
Q 1300 4125 1175 4125 
L 625 4125 
L 625 4275 
L 900 4275 
z
" transform="scale(0.015625)"/>
      <path id="FangSong-72" d="M 1250 2025 
Q 1500 2425 1787 2637 
Q 2075 2850 2375 2850 
Q 2625 2850 2762 2737 
Q 2900 2625 2900 2475 
Q 2900 2350 2837 2275 
Q 2775 2200 2650 2200 
Q 2525 2200 2462 2275 
Q 2400 2350 2425 2475 
Q 2425 2550 2400 2600 
Q 2375 2650 2250 2650 
Q 2050 2650 1762 2400 
Q 1475 2150 1250 1700 
L 1250 350 
Q 1250 250 1312 200 
Q 1375 150 1475 150 
L 2025 150 
L 2025 0 
L 175 0 
L 175 150 
L 675 150 
Q 800 150 850 200 
Q 900 250 900 350 
L 900 2425 
Q 900 2525 850 2587 
Q 800 2650 675 2650 
L 200 2650 
L 200 2800 
L 400 2800 
Q 575 2800 812 2837 
Q 1050 2875 1175 2925 
L 1250 2925 
L 1250 2025 
z
" transform="scale(0.015625)"/>
      <path id="FangSong-73" d="M 600 2075 
Q 600 2450 887 2650 
Q 1175 2850 1575 2850 
Q 1800 2850 2000 2787 
Q 2200 2725 2275 2725 
Q 2350 2725 2400 2750 
Q 2450 2775 2525 2850 
L 2625 2025 
L 2475 2000 
Q 2375 2325 2137 2512 
Q 1900 2700 1600 2700 
Q 1275 2700 1087 2575 
Q 900 2450 900 2225 
Q 900 2025 987 1912 
Q 1075 1800 1300 1750 
Q 1475 1675 1737 1587 
Q 2000 1500 2225 1400 
Q 2425 1300 2562 1137 
Q 2700 975 2700 775 
Q 2700 400 2437 187 
Q 2175 -25 1675 -25 
Q 1350 -25 1187 37 
Q 1025 100 925 100 
Q 850 100 762 62 
Q 675 25 575 -25 
L 500 900 
L 650 925 
Q 725 525 975 325 
Q 1225 125 1675 125 
Q 2025 125 2212 250 
Q 2400 375 2400 625 
Q 2400 800 2300 912 
Q 2200 1025 2100 1075 
Q 1850 1175 1550 1287 
Q 1250 1400 1025 1500 
Q 800 1600 700 1750 
Q 600 1900 600 2075 
z
" transform="scale(0.015625)"/>
      <path id="FangSong-37" d="M 2800 4100 
Q 2275 3250 1962 2437 
Q 1650 1625 1650 1025 
Q 1650 925 1662 737 
Q 1675 550 1675 300 
Q 1675 100 1612 25 
Q 1550 -50 1400 -50 
Q 1275 -50 1187 37 
Q 1100 125 1100 350 
Q 1100 825 1312 1525 
Q 1525 2225 2450 3900 
L 1200 3900 
Q 925 3900 762 3725 
Q 600 3550 525 3200 
L 375 3225 
L 550 4275 
L 2800 4275 
L 2800 4100 
z
" transform="scale(0.015625)"/>
      <path id="FangSong-71" d="M 2250 2150 
Q 2150 2375 1975 2512 
Q 1800 2650 1550 2650 
Q 1200 2650 950 2350 
Q 700 2050 700 1325 
Q 700 700 912 437 
Q 1125 175 1450 175 
Q 1725 175 1937 300 
Q 2150 425 2250 725 
L 2250 2150 
z
M 2600 -550 
Q 2600 -675 2662 -725 
Q 2725 -775 2825 -775 
L 2975 -775 
L 2975 -925 
L 1825 -925 
L 1825 -775 
L 2025 -775 
Q 2150 -775 2200 -725 
Q 2250 -675 2250 -550 
L 2250 375 
Q 2100 175 1887 75 
Q 1675 -25 1375 -25 
Q 950 -25 625 337 
Q 300 700 300 1400 
Q 300 2075 675 2450 
Q 1050 2825 1475 2825 
Q 1750 2825 1937 2725 
Q 2125 2625 2275 2475 
L 2500 2800 
L 2600 2800 
L 2600 -550 
z
" transform="scale(0.015625)"/>
      <path id="FangSong-7a" d="M 2725 975 
L 2550 0 
L 400 0 
L 400 125 
L 2125 2650 
L 1200 2650 
Q 975 2650 825 2487 
Q 675 2325 575 1925 
L 425 1950 
L 525 2800 
L 2575 2800 
L 2575 2725 
L 825 150 
L 1775 150 
Q 2100 150 2287 350 
Q 2475 550 2575 1000 
L 2725 975 
z
" transform="scale(0.015625)"/>
      <path id="FangSong-76" d="M 1600 -25 
L 1450 -25 
L 600 2425 
Q 575 2525 500 2587 
Q 425 2650 325 2650 
L 200 2650 
L 200 2800 
L 1275 2800 
L 1275 2650 
L 1175 2650 
Q 1025 2650 987 2575 
Q 950 2500 1000 2325 
L 1600 575 
L 1650 575 
L 2250 2300 
Q 2325 2475 2262 2562 
Q 2200 2650 2050 2650 
L 2000 2650 
L 2000 2800 
L 2900 2800 
L 2900 2650 
L 2850 2650 
Q 2700 2650 2612 2562 
Q 2525 2475 2450 2300 
L 1600 -25 
z
" transform="scale(0.015625)"/>
      <path id="FangSong-39" d="M 675 2950 
Q 675 2400 887 2112 
Q 1100 1825 1425 1825 
Q 1800 1825 2075 2175 
Q 2350 2525 2350 2825 
Q 2350 3425 2150 3787 
Q 1950 4150 1500 4150 
Q 1075 4150 875 3812 
Q 675 3475 675 2950 
z
M 1350 1600 
Q 850 1600 550 1912 
Q 250 2225 250 2925 
Q 250 3525 575 3925 
Q 900 4325 1500 4325 
Q 2125 4325 2475 3825 
Q 2825 3325 2825 2375 
Q 2825 1325 2412 637 
Q 2000 -50 1275 -50 
Q 950 -50 712 100 
Q 475 250 475 500 
Q 475 600 537 700 
Q 600 800 750 800 
Q 900 800 950 687 
Q 1000 575 1000 425 
Q 1000 325 1025 262 
Q 1050 200 1075 175 
Q 1100 150 1162 137 
Q 1225 125 1300 125 
Q 1750 125 2025 625 
Q 2300 1125 2350 2300 
Q 2225 2000 1975 1800 
Q 1725 1600 1350 1600 
z
" transform="scale(0.015625)"/>
     </defs>
     <use xlink:href="#FangSong-63"/>
     <use xlink:href="#FangSong-6f" x="50"/>
     <use xlink:href="#FangSong-75" x="100"/>
     <use xlink:href="#FangSong-6e" x="150"/>
     <use xlink:href="#FangSong-74" x="200"/>
     <use xlink:href="#FangSong-3d" x="250"/>
     <use xlink:href="#FangSong-31" x="300"/>
     <use xlink:href="#FangSong-30" x="350"/>
     <use xlink:href="#FangSong-30" x="400"/>
     <use xlink:href="#FangSong-30" x="450"/>
     <use xlink:href="#FangSong-2c" x="500"/>
     <use xlink:href="#FangSong-20" x="550"/>
     <use xlink:href="#FangSong-67" x="600"/>
     <use xlink:href="#FangSong-6f" x="650"/>
     <use xlink:href="#FangSong-6f" x="700"/>
     <use xlink:href="#FangSong-67" x="750"/>
     <use xlink:href="#FangSong-6c" x="800"/>
     <use xlink:href="#FangSong-65" x="850"/>
     <use xlink:href="#FangSong-6e" x="900"/>
     <use xlink:href="#FangSong-65" x="950"/>
     <use xlink:href="#FangSong-74" x="1000"/>
     <use xlink:href="#FangSong-3d" x="1050"/>
     <use xlink:href="#FangSong-31" x="1100"/>
     <use xlink:href="#FangSong-35" x="1150"/>
     <use xlink:href="#FangSong-30" x="1200"/>
     <use xlink:href="#FangSong-2c" x="1250"/>
     <use xlink:href="#FangSong-20" x="1300"/>
     <use xlink:href="#FangSong-72" x="1350"/>
     <use xlink:href="#FangSong-65" x="1400"/>
     <use xlink:href="#FangSong-73" x="1450"/>
     <use xlink:href="#FangSong-6e" x="1500"/>
     <use xlink:href="#FangSong-65" x="1550"/>
     <use xlink:href="#FangSong-74" x="1600"/>
     <use xlink:href="#FangSong-35" x="1650"/>
     <use xlink:href="#FangSong-30" x="1700"/>
     <use xlink:href="#FangSong-3d" x="1750"/>
     <use xlink:href="#FangSong-31" x="1800"/>
     <use xlink:href="#FangSong-38" x="1850"/>
     <use xlink:href="#FangSong-37" x="1900"/>
     <use xlink:href="#FangSong-2c" x="1950"/>
     <use xlink:href="#FangSong-20" x="2000"/>
     <use xlink:href="#FangSong-73" x="2050"/>
     <use xlink:href="#FangSong-71" x="2100"/>
     <use xlink:href="#FangSong-75" x="2150"/>
     <use xlink:href="#FangSong-65" x="2200"/>
     <use xlink:href="#FangSong-65" x="2250"/>
     <use xlink:href="#FangSong-7a" x="2300"/>
     <use xlink:href="#FangSong-65" x="2350"/>
     <use xlink:href="#FangSong-6e" x="2400"/>
     <use xlink:href="#FangSong-65" x="2450"/>
     <use xlink:href="#FangSong-74" x="2500"/>
     <use xlink:href="#FangSong-76" x="2550"/>
     <use xlink:href="#FangSong-31" x="2600"/>
     <use xlink:href="#FangSong-3d" x="2650"/>
     <use xlink:href="#FangSong-31" x="2700"/>
     <use xlink:href="#FangSong-35" x="2750"/>
     <use xlink:href="#FangSong-30" x="2800"/>
     <use xlink:href="#FangSong-2c" x="2850"/>
     <use xlink:href="#FangSong-20" x="2900"/>
     <use xlink:href="#FangSong-76" x="2950"/>
     <use xlink:href="#FangSong-67" x="3000"/>
     <use xlink:href="#FangSong-67" x="3050"/>
     <use xlink:href="#FangSong-31" x="3100"/>
     <use xlink:href="#FangSong-39" x="3150"/>
     <use xlink:href="#FangSong-3d" x="3200"/>
     <use xlink:href="#FangSong-31" x="3250"/>
     <use xlink:href="#FangSong-31" x="3300"/>
     <use xlink:href="#FangSong-32" x="3350"/>
     <use xlink:href="#FangSong-2c" x="3400"/>
     <use xlink:href="#FangSong-20" x="3450"/>
     <use xlink:href="#FangSong-79" x="3500"/>
     <use xlink:href="#FangSong-6f" x="3550"/>
     <use xlink:href="#FangSong-6c" x="3600"/>
     <use xlink:href="#FangSong-6f" x="3650"/>
     <use xlink:href="#FangSong-76" x="3700"/>
     <use xlink:href="#FangSong-32" x="3750"/>
     <use xlink:href="#FangSong-3d" x="3800"/>
     <use xlink:href="#FangSong-31" x="3850"/>
     <use xlink:href="#FangSong-35" x="3900"/>
     <use xlink:href="#FangSong-30" x="3950"/>
    </g>
   </g>
   <g id="legend_1">
    <g id="patch_7">
     <path d="M 315.72 302.584 
L 407.72 302.584 
Q 409.72 302.584 409.72 300.584 
L 409.72 220.794937 
Q 409.72 218.794937 407.72 218.794937 
L 315.72 218.794937 
Q 313.72 218.794937 313.72 220.794937 
L 313.72 300.584 
Q 313.72 302.584 315.72 302.584 
z
" style="fill: #ffffff; opacity: 0.8; stroke: #cccccc; stroke-linejoin: miter"/>
    </g>
    <g id="line2d_19">
     <path d="M 317.72 226.294937 
L 327.72 226.294937 
L 337.72 226.294937 
" style="fill: none; stroke: #ff0000; stroke-linecap: square"/>
    </g>
    <g id="text_16">
     <!-- total -->
     <g transform="translate(345.72 229.794937) scale(0.1 -0.1)">
      <use xlink:href="#FangSong-74"/>
      <use xlink:href="#FangSong-6f" x="50"/>
      <use xlink:href="#FangSong-74" x="100"/>
      <use xlink:href="#FangSong-61" x="150"/>
      <use xlink:href="#FangSong-6c" x="200"/>
     </g>
    </g>
    <g id="line2d_20">
     <path d="M 317.72 239.74025 
L 327.72 239.74025 
L 337.72 239.74025 
" style="fill: none; stroke-dasharray: 1.85,0.8; stroke-dashoffset: 0; stroke: #008000; stroke-width: 0.5"/>
    </g>
    <g id="text_17">
     <!-- squeezenetv1 -->
     <g transform="translate(345.72 243.24025) scale(0.1 -0.1)">
      <use xlink:href="#FangSong-73"/>
      <use xlink:href="#FangSong-71" x="50"/>
      <use xlink:href="#FangSong-75" x="100"/>
      <use xlink:href="#FangSong-65" x="150"/>
      <use xlink:href="#FangSong-65" x="200"/>
      <use xlink:href="#FangSong-7a" x="250"/>
      <use xlink:href="#FangSong-65" x="300"/>
      <use xlink:href="#FangSong-6e" x="350"/>
      <use xlink:href="#FangSong-65" x="400"/>
      <use xlink:href="#FangSong-74" x="450"/>
      <use xlink:href="#FangSong-76" x="500"/>
      <use xlink:href="#FangSong-31" x="550"/>
     </g>
    </g>
    <g id="line2d_21">
     <path d="M 317.72 253.185562 
L 327.72 253.185562 
L 337.72 253.185562 
" style="fill: none; stroke-dasharray: 1.85,0.8; stroke-dashoffset: 0; stroke: #0000ff; stroke-width: 0.5"/>
    </g>
    <g id="text_18">
     <!-- googlenet -->
     <g transform="translate(345.72 256.685562) scale(0.1 -0.1)">
      <use xlink:href="#FangSong-67"/>
      <use xlink:href="#FangSong-6f" x="50"/>
      <use xlink:href="#FangSong-6f" x="100"/>
      <use xlink:href="#FangSong-67" x="150"/>
      <use xlink:href="#FangSong-6c" x="200"/>
      <use xlink:href="#FangSong-65" x="250"/>
      <use xlink:href="#FangSong-6e" x="300"/>
      <use xlink:href="#FangSong-65" x="350"/>
      <use xlink:href="#FangSong-74" x="400"/>
     </g>
    </g>
    <g id="line2d_22">
     <path d="M 317.72 266.669937 
L 327.72 266.669937 
L 337.72 266.669937 
" style="fill: none; stroke-dasharray: 1.85,0.8; stroke-dashoffset: 0; stroke: #bf00bf; stroke-width: 0.5"/>
    </g>
    <g id="text_19">
     <!-- resnet50 -->
     <g transform="translate(345.72 270.169937) scale(0.1 -0.1)">
      <use xlink:href="#FangSong-72"/>
      <use xlink:href="#FangSong-65" x="50"/>
      <use xlink:href="#FangSong-73" x="100"/>
      <use xlink:href="#FangSong-6e" x="150"/>
      <use xlink:href="#FangSong-65" x="200"/>
      <use xlink:href="#FangSong-74" x="250"/>
      <use xlink:href="#FangSong-35" x="300"/>
      <use xlink:href="#FangSong-30" x="350"/>
     </g>
    </g>
    <g id="line2d_23">
     <path d="M 317.72 280.11525 
L 327.72 280.11525 
L 337.72 280.11525 
" style="fill: none; stroke-dasharray: 1.85,0.8; stroke-dashoffset: 0; stroke: #bfbf00; stroke-width: 0.5"/>
    </g>
    <g id="text_20">
     <!-- yolov2 -->
     <g transform="translate(345.72 283.61525) scale(0.1 -0.1)">
      <use xlink:href="#FangSong-79"/>
      <use xlink:href="#FangSong-6f" x="50"/>
      <use xlink:href="#FangSong-6c" x="100"/>
      <use xlink:href="#FangSong-6f" x="150"/>
      <use xlink:href="#FangSong-76" x="200"/>
      <use xlink:href="#FangSong-32" x="250"/>
     </g>
    </g>
    <g id="line2d_24">
     <path d="M 317.72 293.599625 
L 327.72 293.599625 
L 337.72 293.599625 
" style="fill: none; stroke-dasharray: 1.85,0.8; stroke-dashoffset: 0; stroke: #000000; stroke-width: 0.5"/>
    </g>
    <g id="text_21">
     <!-- vgg19 -->
     <g transform="translate(345.72 297.099625) scale(0.1 -0.1)">
      <use xlink:href="#FangSong-76"/>
      <use xlink:href="#FangSong-67" x="50"/>
      <use xlink:href="#FangSong-67" x="100"/>
      <use xlink:href="#FangSong-31" x="150"/>
      <use xlink:href="#FangSong-39" x="200"/>
     </g>
    </g>
   </g>
  </g>
 </g>
 <defs>
  <clipPath id="p0dbaf39a1d">
   <rect x="57.6" y="41.472" width="357.12" height="266.112"/>
  </clipPath>
 </defs>
</svg>
