<?xml version="1.0" encoding="utf-8" standalone="no"?>
<!DOCTYPE svg PUBLIC "-//W3C//DTD SVG 1.1//EN"
  "http://www.w3.org/Graphics/SVG/1.1/DTD/svg11.dtd">
<svg xmlns:xlink="http://www.w3.org/1999/xlink" width="460.8pt" height="345.6pt" viewBox="0 0 460.8 345.6" xmlns="http://www.w3.org/2000/svg" version="1.1">
 <metadata>
  <rdf:RDF xmlns:dc="http://purl.org/dc/elements/1.1/" xmlns:cc="http://creativecommons.org/ns#" xmlns:rdf="http://www.w3.org/1999/02/22-rdf-syntax-ns#">
   <cc:Work>
    <dc:type rdf:resource="http://purl.org/dc/dcmitype/StillImage"/>
    <dc:date>2023-01-19T17:24:46.640631</dc:date>
    <dc:format>image/svg+xml</dc:format>
    <dc:creator>
     <cc:Agent>
      <dc:title>Matplotlib v3.6.3, https://matplotlib.org/</dc:title>
     </cc:Agent>
    </dc:creator>
   </cc:Work>
  </rdf:RDF>
 </metadata>
 <defs>
  <style type="text/css">*{stroke-linejoin: round; stroke-linecap: butt}</style>
 </defs>
 <g id="figure_1">
  <g id="patch_1">
   <path d="M 0 345.6 
L 460.8 345.6 
L 460.8 0 
L 0 0 
z
" style="fill: #ffffff"/>
  </g>
  <g id="axes_1">
   <g id="patch_2">
    <path d="M 57.6 307.584 
L 414.72 307.584 
L 414.72 41.472 
L 57.6 41.472 
z
" style="fill: #ffffff"/>
   </g>
   <g id="matplotlib.axis_1">
    <g id="xtick_1">
     <g id="line2d_1">
      <defs>
       <path id="mc17d9da1d1" d="M 0 0 
L 0 3.5 
" style="stroke: #000000; stroke-width: 0.8"/>
      </defs>
      <g>
       <use xlink:href="#mc17d9da1d1" x="68.519232" y="307.584" style="stroke: #000000; stroke-width: 0.8"/>
      </g>
     </g>
     <g id="text_1">
      <!-- 0 -->
      <g transform="translate(66.019232 321.576187) scale(0.1 -0.1)">
       <defs>
        <path id="FangSong-30" d="M 1575 4125 
Q 1225 4125 987 3587 
Q 750 3050 750 2150 
Q 750 1200 987 675 
Q 1225 150 1575 150 
Q 1950 150 2162 675 
Q 2375 1200 2375 2150 
Q 2375 3050 2175 3587 
Q 1975 4125 1575 4125 
z
M 1575 -50 
Q 1025 -50 650 525 
Q 275 1100 275 2150 
Q 275 3125 637 3725 
Q 1000 4325 1575 4325 
Q 2125 4325 2487 3750 
Q 2850 3175 2850 2150 
Q 2850 1125 2487 537 
Q 2125 -50 1575 -50 
z
" transform="scale(0.015625)"/>
       </defs>
       <use xlink:href="#FangSong-30"/>
      </g>
     </g>
    </g>
    <g id="xtick_2">
     <g id="line2d_2">
      <g>
       <use xlink:href="#mc17d9da1d1" x="121.654182" y="307.584" style="stroke: #000000; stroke-width: 0.8"/>
      </g>
     </g>
     <g id="text_2">
      <!-- 10 -->
      <g transform="translate(116.654182 321.576187) scale(0.1 -0.1)">
       <defs>
        <path id="FangSong-31" d="M 1800 4350 
L 1800 550 
Q 1800 350 1925 250 
Q 2050 150 2275 150 
L 2525 150 
L 2525 0 
L 700 0 
L 700 150 
L 925 150 
Q 1175 150 1287 250 
Q 1400 350 1400 550 
L 1400 3575 
Q 1400 3675 1337 3737 
Q 1275 3800 1150 3800 
L 700 3800 
L 700 3950 
L 925 3950 
Q 1225 3950 1412 4050 
Q 1600 4150 1700 4350 
L 1800 4350 
z
" transform="scale(0.015625)"/>
       </defs>
       <use xlink:href="#FangSong-31"/>
       <use xlink:href="#FangSong-30" x="50"/>
      </g>
     </g>
    </g>
    <g id="xtick_3">
     <g id="line2d_3">
      <g>
       <use xlink:href="#mc17d9da1d1" x="174.789133" y="307.584" style="stroke: #000000; stroke-width: 0.8"/>
      </g>
     </g>
     <g id="text_3">
      <!-- 20 -->
      <g transform="translate(169.789133 321.576187) scale(0.1 -0.1)">
       <defs>
        <path id="FangSong-32" d="M 2300 3225 
Q 2300 3675 2100 3912 
Q 1900 4150 1500 4150 
Q 1200 4150 987 3987 
Q 775 3825 775 3575 
Q 775 3425 862 3325 
Q 950 3225 950 3125 
Q 950 3000 887 2937 
Q 825 2875 700 2875 
Q 550 2875 462 2962 
Q 375 3050 375 3250 
Q 375 3775 750 4050 
Q 1125 4325 1550 4325 
Q 2150 4325 2437 4025 
Q 2725 3725 2725 3275 
Q 2725 2975 2587 2675 
Q 2450 2375 2150 2100 
Q 1425 1400 1037 962 
Q 650 525 575 375 
L 2050 375 
Q 2275 375 2425 550 
Q 2575 725 2625 1075 
L 2775 1075 
L 2625 0 
L 300 0 
L 300 325 
Q 425 550 712 900 
Q 1000 1250 1475 1725 
Q 1900 2150 2100 2525 
Q 2300 2900 2300 3225 
z
" transform="scale(0.015625)"/>
       </defs>
       <use xlink:href="#FangSong-32"/>
       <use xlink:href="#FangSong-30" x="50"/>
      </g>
     </g>
    </g>
    <g id="xtick_4">
     <g id="line2d_4">
      <g>
       <use xlink:href="#mc17d9da1d1" x="227.924083" y="307.584" style="stroke: #000000; stroke-width: 0.8"/>
      </g>
     </g>
     <g id="text_4">
      <!-- 30 -->
      <g transform="translate(222.924083 321.576187) scale(0.1 -0.1)">
       <defs>
        <path id="FangSong-33" d="M 2775 1150 
Q 2775 675 2425 312 
Q 2075 -50 1450 -50 
Q 1000 -50 675 200 
Q 350 450 350 775 
Q 350 925 450 1037 
Q 550 1150 650 1150 
Q 800 1150 862 1037 
Q 925 925 925 850 
Q 925 725 875 637 
Q 825 550 825 475 
Q 825 325 1012 225 
Q 1200 125 1425 125 
Q 1875 125 2100 387 
Q 2325 650 2325 1200 
Q 2325 1650 2087 1925 
Q 1850 2200 1200 2200 
L 1200 2375 
Q 1700 2375 1937 2612 
Q 2175 2850 2175 3275 
Q 2175 3625 1987 3887 
Q 1800 4150 1400 4150 
Q 1225 4150 1025 4062 
Q 825 3975 825 3775 
Q 825 3575 875 3525 
Q 925 3475 925 3400 
Q 925 3275 875 3200 
Q 825 3125 700 3125 
Q 600 3125 512 3200 
Q 425 3275 425 3475 
Q 425 3850 750 4087 
Q 1075 4325 1500 4325 
Q 2000 4325 2300 4012 
Q 2600 3700 2600 3350 
Q 2600 2975 2412 2712 
Q 2225 2450 1825 2325 
Q 2375 2125 2575 1800 
Q 2775 1475 2775 1150 
z
" transform="scale(0.015625)"/>
       </defs>
       <use xlink:href="#FangSong-33"/>
       <use xlink:href="#FangSong-30" x="50"/>
      </g>
     </g>
    </g>
    <g id="xtick_5">
     <g id="line2d_5">
      <g>
       <use xlink:href="#mc17d9da1d1" x="281.059033" y="307.584" style="stroke: #000000; stroke-width: 0.8"/>
      </g>
     </g>
     <g id="text_5">
      <!-- 40 -->
      <g transform="translate(276.059033 321.576187) scale(0.1 -0.1)">
       <defs>
        <path id="FangSong-34" d="M 2275 475 
Q 2275 300 2375 225 
Q 2475 150 2650 150 
L 2875 150 
L 2875 0 
L 1225 0 
L 1225 150 
L 1500 150 
Q 1700 150 1787 225 
Q 1875 300 1875 475 
L 1875 1300 
L 200 1300 
L 200 1425 
L 2025 4325 
L 2275 4325 
L 2275 1450 
L 2950 1450 
L 2950 1300 
L 2275 1300 
L 2275 475 
z
M 1850 3700 
L 425 1450 
L 1875 1450 
L 1875 3700 
L 1850 3700 
z
" transform="scale(0.015625)"/>
       </defs>
       <use xlink:href="#FangSong-34"/>
       <use xlink:href="#FangSong-30" x="50"/>
      </g>
     </g>
    </g>
    <g id="xtick_6">
     <g id="line2d_6">
      <g>
       <use xlink:href="#mc17d9da1d1" x="334.193983" y="307.584" style="stroke: #000000; stroke-width: 0.8"/>
      </g>
     </g>
     <g id="text_6">
      <!-- 50 -->
      <g transform="translate(329.193983 321.576187) scale(0.1 -0.1)">
       <defs>
        <path id="FangSong-35" d="M 1700 2750 
Q 2175 2750 2475 2387 
Q 2775 2025 2775 1425 
Q 2775 750 2462 350 
Q 2150 -50 1500 -50 
Q 1050 -50 700 212 
Q 350 475 350 850 
Q 350 1000 437 1112 
Q 525 1225 675 1225 
Q 825 1225 875 1125 
Q 925 1025 925 950 
Q 925 800 850 712 
Q 775 625 775 525 
Q 775 325 1012 225 
Q 1250 125 1525 125 
Q 1925 125 2137 450 
Q 2350 775 2350 1375 
Q 2350 1875 2162 2187 
Q 1975 2500 1600 2500 
Q 1325 2500 1125 2400 
Q 925 2300 750 1975 
L 525 2000 
L 650 4275 
L 2700 4275 
L 2625 3900 
L 825 3900 
L 725 2250 
Q 975 2600 1212 2675 
Q 1450 2750 1700 2750 
z
" transform="scale(0.015625)"/>
       </defs>
       <use xlink:href="#FangSong-35"/>
       <use xlink:href="#FangSong-30" x="50"/>
      </g>
     </g>
    </g>
    <g id="xtick_7">
     <g id="line2d_7">
      <g>
       <use xlink:href="#mc17d9da1d1" x="387.328933" y="307.584" style="stroke: #000000; stroke-width: 0.8"/>
      </g>
     </g>
     <g id="text_7">
      <!-- 60 -->
      <g transform="translate(382.328933 321.576187) scale(0.1 -0.1)">
       <defs>
        <path id="FangSong-36" d="M 750 1700 
Q 750 950 1012 537 
Q 1275 125 1650 125 
Q 2025 125 2225 400 
Q 2425 675 2425 1425 
Q 2425 1925 2212 2200 
Q 2000 2475 1700 2475 
Q 1425 2475 1187 2312 
Q 950 2150 750 1700 
z
M 1725 2725 
Q 2325 2725 2587 2325 
Q 2850 1925 2850 1425 
Q 2850 675 2487 312 
Q 2125 -50 1650 -50 
Q 975 -50 625 462 
Q 275 975 275 1950 
Q 275 3100 700 3712 
Q 1125 4325 1850 4325 
Q 2200 4325 2412 4125 
Q 2625 3925 2625 3775 
Q 2625 3625 2562 3550 
Q 2500 3475 2350 3475 
Q 2225 3475 2162 3537 
Q 2100 3600 2100 3725 
Q 2100 3775 2112 3825 
Q 2125 3875 2125 3925 
Q 2125 4025 2050 4087 
Q 1975 4150 1775 4150 
Q 1350 4150 1050 3762 
Q 750 3375 750 2075 
Q 900 2400 1162 2562 
Q 1425 2725 1725 2725 
z
" transform="scale(0.015625)"/>
       </defs>
       <use xlink:href="#FangSong-36"/>
       <use xlink:href="#FangSong-30" x="50"/>
      </g>
     </g>
    </g>
    <g id="text_8">
     <!-- Latency -->
     <g transform="translate(218.66 333.974625) scale(0.1 -0.1)">
      <defs>
       <path id="FangSong-4c" d="M 975 350 
Q 975 250 1037 200 
Q 1100 150 1200 150 
L 1875 150 
Q 2225 150 2475 362 
Q 2725 575 2850 1025 
L 2975 975 
L 2750 0 
L 175 0 
L 175 150 
L 350 150 
Q 475 150 525 200 
Q 575 250 575 350 
L 575 3925 
Q 575 4025 525 4075 
Q 475 4125 350 4125 
L 200 4125 
L 200 4275 
L 1375 4275 
L 1375 4125 
L 1200 4125 
Q 1100 4125 1037 4075 
Q 975 4025 975 3925 
L 975 350 
z
" transform="scale(0.015625)"/>
       <path id="FangSong-61" d="M 1200 -25 
Q 750 -25 500 187 
Q 250 400 250 675 
Q 250 1125 637 1412 
Q 1025 1700 2175 1825 
L 2175 2125 
Q 2175 2375 2062 2537 
Q 1950 2700 1550 2700 
Q 1125 2700 950 2562 
Q 775 2425 825 2275 
Q 875 2175 825 2075 
Q 775 1975 625 1975 
Q 525 1975 462 2037 
Q 400 2100 400 2225 
Q 400 2450 725 2650 
Q 1050 2850 1525 2850 
Q 2025 2850 2275 2662 
Q 2525 2475 2525 2125 
L 2525 475 
Q 2525 275 2562 237 
Q 2600 200 2700 200 
Q 2825 200 2875 312 
Q 2925 425 2925 625 
L 3050 625 
Q 3050 275 2925 137 
Q 2800 0 2600 0 
Q 2425 0 2325 75 
Q 2225 150 2175 325 
Q 1925 150 1712 62 
Q 1500 -25 1200 -25 
z
M 675 750 
Q 675 525 812 337 
Q 950 150 1250 150 
Q 1475 150 1700 237 
Q 1925 325 2175 500 
L 2175 1675 
Q 1325 1575 1000 1337 
Q 675 1100 675 750 
z
" transform="scale(0.015625)"/>
       <path id="FangSong-74" d="M 1475 800 
Q 1475 450 1600 325 
Q 1725 200 1975 200 
Q 2225 200 2375 362 
Q 2525 525 2575 825 
L 2700 775 
Q 2650 425 2437 200 
Q 2225 -25 1875 -25 
Q 1500 -25 1312 200 
Q 1125 425 1125 900 
L 1125 2650 
L 375 2650 
L 375 2800 
L 575 2800 
Q 875 2800 1062 2987 
Q 1250 3175 1300 3575 
L 1325 3775 
L 1475 3775 
L 1475 2800 
L 2475 2800 
L 2475 2650 
L 1475 2650 
L 1475 800 
z
" transform="scale(0.015625)"/>
       <path id="FangSong-65" d="M 2375 1550 
Q 2400 2100 2187 2387 
Q 1975 2675 1625 2675 
Q 1250 2675 1012 2375 
Q 775 2075 775 1550 
L 2375 1550 
z
M 775 1400 
Q 775 725 1037 437 
Q 1300 150 1725 150 
Q 2050 150 2275 337 
Q 2500 525 2600 800 
L 2725 750 
Q 2650 475 2387 212 
Q 2125 -50 1675 -50 
Q 1100 -50 737 325 
Q 375 700 375 1400 
Q 375 2025 737 2437 
Q 1100 2850 1625 2850 
Q 2100 2850 2450 2525 
Q 2800 2200 2800 1400 
L 775 1400 
z
" transform="scale(0.015625)"/>
       <path id="FangSong-6e" d="M 175 0 
L 175 150 
L 300 150 
Q 425 150 475 200 
Q 525 250 525 350 
L 525 2500 
Q 525 2575 500 2612 
Q 475 2650 400 2650 
L 200 2650 
L 200 2800 
L 375 2800 
Q 500 2800 612 2825 
Q 725 2850 825 2925 
L 875 2925 
L 875 2350 
Q 1100 2600 1325 2725 
Q 1550 2850 1800 2850 
Q 2225 2850 2425 2625 
Q 2625 2400 2625 1950 
L 2625 350 
Q 2625 250 2687 200 
Q 2750 150 2850 150 
L 2975 150 
L 2975 0 
L 1925 0 
L 1925 150 
L 2050 150 
Q 2175 150 2225 200 
Q 2275 250 2275 350 
L 2275 2025 
Q 2275 2325 2150 2487 
Q 2025 2650 1775 2650 
Q 1550 2650 1312 2500 
Q 1075 2350 875 2075 
L 875 350 
Q 875 250 937 200 
Q 1000 150 1100 150 
L 1225 150 
L 1225 0 
L 175 0 
z
" transform="scale(0.015625)"/>
       <path id="FangSong-63" d="M 2125 2125 
Q 2125 2200 2137 2225 
Q 2150 2250 2175 2325 
Q 2200 2425 2075 2562 
Q 1950 2700 1650 2700 
Q 1275 2700 1012 2337 
Q 750 1975 750 1375 
Q 750 825 975 487 
Q 1200 150 1725 150 
Q 2075 150 2312 375 
Q 2550 600 2650 900 
L 2775 850 
Q 2675 475 2400 212 
Q 2125 -50 1650 -50 
Q 1050 -50 700 325 
Q 350 700 350 1400 
Q 350 2025 725 2437 
Q 1100 2850 1700 2850 
Q 2125 2850 2362 2625 
Q 2600 2400 2600 2175 
Q 2600 2025 2537 1962 
Q 2475 1900 2350 1900 
Q 2250 1900 2187 1962 
Q 2125 2025 2125 2125 
z
" transform="scale(0.015625)"/>
       <path id="FangSong-79" d="M 1625 700 
L 1675 700 
L 2225 2375 
Q 2275 2500 2212 2575 
Q 2150 2650 2050 2650 
L 1900 2650 
L 1900 2800 
L 2950 2800 
L 2950 2650 
L 2800 2650 
Q 2700 2650 2600 2575 
Q 2500 2500 2450 2375 
L 1600 -100 
Q 1475 -500 1287 -712 
Q 1100 -925 800 -950 
Q 650 -950 537 -875 
Q 425 -800 425 -675 
Q 425 -575 487 -500 
Q 550 -425 675 -425 
Q 775 -425 837 -525 
Q 900 -625 1050 -587 
Q 1200 -550 1250 -425 
Q 1300 -350 1375 -162 
Q 1450 25 1500 225 
L 650 2425 
Q 625 2525 537 2587 
Q 450 2650 350 2650 
L 250 2650 
L 250 2800 
L 1300 2800 
L 1300 2650 
L 1200 2650 
Q 1100 2650 1050 2587 
Q 1000 2525 1025 2400 
L 1625 700 
z
" transform="scale(0.015625)"/>
      </defs>
      <use xlink:href="#FangSong-4c"/>
      <use xlink:href="#FangSong-61" x="50"/>
      <use xlink:href="#FangSong-74" x="100"/>
      <use xlink:href="#FangSong-65" x="150"/>
      <use xlink:href="#FangSong-6e" x="200"/>
      <use xlink:href="#FangSong-63" x="250"/>
      <use xlink:href="#FangSong-79" x="300"/>
     </g>
    </g>
   </g>
   <g id="matplotlib.axis_2">
    <g id="ytick_1">
     <g id="line2d_8">
      <defs>
       <path id="m033f035bec" d="M 0 0 
L -3.5 0 
" style="stroke: #000000; stroke-width: 0.8"/>
      </defs>
      <g>
       <use xlink:href="#m033f035bec" x="57.6" y="295.488" style="stroke: #000000; stroke-width: 0.8"/>
      </g>
     </g>
     <g id="text_9">
      <!-- 0% -->
      <g transform="translate(40.6 298.984094) scale(0.1 -0.1)">
       <defs>
        <path id="FangSong-25" d="M 725 4150 
Q 575 4150 475 3950 
Q 375 3750 375 3200 
Q 375 2575 487 2387 
Q 600 2200 725 2200 
Q 900 2200 987 2425 
Q 1075 2650 1075 3200 
Q 1075 3650 1012 3900 
Q 950 4150 725 4150 
z
M 1400 3175 
Q 1400 2725 1250 2387 
Q 1100 2050 725 2050 
Q 425 2050 237 2350 
Q 50 2650 50 3175 
Q 50 3725 250 4025 
Q 450 4325 725 4325 
Q 1025 4325 1212 4012 
Q 1400 3700 1400 3175 
z
M 2700 1100 
Q 2700 1525 2625 1800 
Q 2550 2075 2350 2075 
Q 2200 2075 2100 1837 
Q 2000 1600 2000 1100 
Q 2000 475 2112 300 
Q 2225 125 2350 125 
Q 2525 125 2612 337 
Q 2700 550 2700 1100 
z
M 3025 1075 
Q 3025 575 2850 262 
Q 2675 -50 2350 -50 
Q 2075 -50 1875 262 
Q 1675 575 1675 1075 
Q 1675 1625 1875 1937 
Q 2075 2250 2350 2250 
Q 2650 2250 2837 1925 
Q 3025 1600 3025 1075 
z
M 2500 4250 
L 700 -50 
L 550 25 
L 2325 4325 
L 2500 4250 
z
" transform="scale(0.015625)"/>
       </defs>
       <use xlink:href="#FangSong-30"/>
       <use xlink:href="#FangSong-25" x="50"/>
      </g>
     </g>
    </g>
    <g id="ytick_2">
     <g id="line2d_9">
      <g>
       <use xlink:href="#m033f035bec" x="57.6" y="247.104" style="stroke: #000000; stroke-width: 0.8"/>
      </g>
     </g>
     <g id="text_10">
      <!-- 20% -->
      <g transform="translate(35.6 250.600094) scale(0.1 -0.1)">
       <use xlink:href="#FangSong-32"/>
       <use xlink:href="#FangSong-30" x="50"/>
       <use xlink:href="#FangSong-25" x="100"/>
      </g>
     </g>
    </g>
    <g id="ytick_3">
     <g id="line2d_10">
      <g>
       <use xlink:href="#m033f035bec" x="57.6" y="198.72" style="stroke: #000000; stroke-width: 0.8"/>
      </g>
     </g>
     <g id="text_11">
      <!-- 40% -->
      <g transform="translate(35.6 202.216094) scale(0.1 -0.1)">
       <use xlink:href="#FangSong-34"/>
       <use xlink:href="#FangSong-30" x="50"/>
       <use xlink:href="#FangSong-25" x="100"/>
      </g>
     </g>
    </g>
    <g id="ytick_4">
     <g id="line2d_11">
      <g>
       <use xlink:href="#m033f035bec" x="57.6" y="150.336" style="stroke: #000000; stroke-width: 0.8"/>
      </g>
     </g>
     <g id="text_12">
      <!-- 60% -->
      <g transform="translate(35.6 153.832094) scale(0.1 -0.1)">
       <use xlink:href="#FangSong-36"/>
       <use xlink:href="#FangSong-30" x="50"/>
       <use xlink:href="#FangSong-25" x="100"/>
      </g>
     </g>
    </g>
    <g id="ytick_5">
     <g id="line2d_12">
      <g>
       <use xlink:href="#m033f035bec" x="57.6" y="101.952" style="stroke: #000000; stroke-width: 0.8"/>
      </g>
     </g>
     <g id="text_13">
      <!-- 80% -->
      <g transform="translate(35.6 105.448094) scale(0.1 -0.1)">
       <defs>
        <path id="FangSong-38" d="M 600 1025 
Q 600 625 862 375 
Q 1125 125 1525 125 
Q 2000 125 2212 375 
Q 2425 625 2425 1000 
Q 2425 1325 2125 1625 
Q 1825 1925 1225 2175 
Q 925 1975 762 1675 
Q 600 1375 600 1025 
z
M 2800 1075 
Q 2800 600 2450 275 
Q 2100 -50 1525 -50 
Q 1000 -50 625 275 
Q 250 600 250 1025 
Q 250 1450 462 1750 
Q 675 2050 1075 2275 
Q 725 2450 537 2712 
Q 350 2975 350 3300 
Q 350 3725 675 4025 
Q 1000 4325 1575 4325 
Q 2100 4325 2425 4025 
Q 2750 3725 2750 3300 
Q 2750 3000 2562 2737 
Q 2375 2475 1975 2275 
Q 2400 2025 2600 1725 
Q 2800 1425 2800 1075 
z
M 2400 3275 
Q 2400 3625 2200 3887 
Q 2000 4150 1575 4150 
Q 1100 4150 900 3900 
Q 700 3650 700 3375 
Q 700 3100 987 2837 
Q 1275 2575 1800 2375 
Q 2100 2525 2250 2750 
Q 2400 2975 2400 3275 
z
" transform="scale(0.015625)"/>
       </defs>
       <use xlink:href="#FangSong-38"/>
       <use xlink:href="#FangSong-30" x="50"/>
       <use xlink:href="#FangSong-25" x="100"/>
      </g>
     </g>
    </g>
    <g id="ytick_6">
     <g id="line2d_13">
      <g>
       <use xlink:href="#m033f035bec" x="57.6" y="53.568" style="stroke: #000000; stroke-width: 0.8"/>
      </g>
     </g>
     <g id="text_14">
      <!-- 100% -->
      <g transform="translate(30.6 57.064094) scale(0.1 -0.1)">
       <use xlink:href="#FangSong-31"/>
       <use xlink:href="#FangSong-30" x="50"/>
       <use xlink:href="#FangSong-30" x="100"/>
       <use xlink:href="#FangSong-25" x="150"/>
      </g>
     </g>
    </g>
    <g id="text_15">
     <!-- 累计完成比例 -->
     <g transform="translate(25.154688 204.528) rotate(-90) scale(0.1 -0.1)">
      <defs>
       <path id="FangSong-7d2f" d="M 4525 4975 
L 4700 5225 
L 5000 4950 
L 4825 4775 
L 4625 3550 
L 4850 3300 
L 3175 3150 
L 3375 2975 
Q 3200 2925 2862 2725 
Q 2525 2525 2075 2275 
L 3475 2500 
Q 3750 2675 3900 2800 
Q 4050 2925 4100 3075 
L 4175 3100 
L 4325 2700 
Q 4200 2675 3500 2237 
Q 2800 1800 2275 1550 
L 4375 1825 
L 3900 2175 
L 4000 2275 
Q 4625 1900 4950 1725 
Q 4975 1475 4925 1225 
Q 4800 1375 4500 1675 
L 3250 1475 
L 3525 1300 
Q 3375 1200 3375 875 
L 3375 25 
Q 3375 -325 3225 -625 
Q 2975 -325 2400 150 
L 2450 250 
L 3050 -75 
Q 3150 -125 3150 0 
L 3150 925 
Q 3150 1300 3125 1450 
Q 1875 1275 1575 1175 
L 1325 1425 
L 1850 1550 
Q 2175 1700 3250 2300 
Q 2075 2100 1875 2000 
L 1575 2250 
L 1800 2300 
Q 2150 2475 3025 3125 
L 2000 3025 
Q 2000 2675 1950 2700 
Q 1900 2725 1650 3025 
Q 1725 3250 1725 3425 
L 1650 4400 
Q 1625 4675 1525 4950 
L 1625 5000 
L 1875 4675 
L 4525 4975 
z
M 3150 3375 
L 3150 3875 
Q 2525 3800 2400 3725 
L 2100 3975 
Q 2500 3975 3150 4075 
L 3150 4600 
L 1900 4450 
L 1975 3250 
L 3150 3375 
z
M 3375 4100 
Q 3950 4175 4025 4225 
L 4275 4000 
Q 3950 3975 3375 3900 
L 3375 3400 
L 4400 3500 
L 4575 4750 
L 3375 4600 
L 3375 4100 
z
M 5450 -75 
Q 4975 325 3875 1025 
L 3950 1125 
Q 4850 700 5350 500 
Q 5425 250 5450 -75 
z
M 800 -250 
Q 1350 75 1825 500 
Q 2300 925 2325 1125 
L 2400 1150 
L 2550 725 
Q 2425 700 2075 425 
Q 1725 150 875 -350 
L 800 -250 
z
" transform="scale(0.015625)"/>
       <path id="FangSong-8ba1" d="M 4075 4200 
Q 4100 4825 3900 5100 
L 3975 5150 
L 4450 4725 
Q 4275 4600 4300 4200 
L 4275 3000 
Q 5525 3200 5575 3250 
L 5950 2950 
Q 5725 2975 4275 2800 
L 4250 -425 
Q 4250 -700 4150 -575 
L 3875 -150 
Q 4050 50 4025 300 
L 4050 2750 
Q 2975 2625 2900 2575 
L 2525 2825 
Q 2850 2825 4050 2975 
L 4075 4200 
z
M 1775 3250 
L 2100 2950 
L 1900 2750 
L 1875 550 
L 2825 1250 
L 2875 1175 
Q 1875 250 1750 -25 
L 1525 275 
Q 1625 375 1650 625 
L 1675 2775 
Q 900 2625 750 2550 
L 425 2800 
Q 850 2825 1650 3000 
L 1775 3250 
z
M 2025 3800 
Q 1825 4300 1325 4950 
L 1375 5025 
Q 1925 4575 2175 4300 
Q 2125 4000 2025 3800 
z
" transform="scale(0.015625)"/>
       <path id="FangSong-5b8c" d="M 5375 2050 
Q 4925 2050 3550 1950 
L 3850 1750 
Q 3725 1600 3700 1375 
L 3675 275 
Q 3650 -125 4075 -175 
L 4925 -175 
Q 5300 -150 5312 62 
Q 5325 275 5325 1025 
L 5425 1025 
Q 5450 750 5475 337 
Q 5500 -75 5700 -275 
Q 5400 -375 5000 -400 
L 4075 -400 
Q 3425 -350 3425 150 
L 3475 1450 
Q 3475 1775 3425 1925 
L 2675 1850 
L 2875 1650 
Q 2750 1550 2600 1200 
Q 2450 850 2025 312 
Q 1600 -225 600 -675 
L 550 -575 
Q 1525 -100 1987 625 
Q 2450 1350 2525 1850 
Q 1550 1775 1500 1725 
L 1150 2025 
Q 1625 2025 3212 2150 
Q 4800 2275 5000 2350 
L 5375 2050 
z
M 1650 3650 
Q 1550 3125 1325 2875 
L 1150 3250 
Q 1450 3425 1575 4400 
L 1675 4400 
L 1675 3900 
L 5025 4150 
L 5175 4400 
L 5525 4075 
Q 5375 4050 4725 3250 
L 4650 3325 
L 4975 3900 
L 1650 3650 
z
M 4475 2975 
Q 4225 2975 3412 2875 
Q 2600 2775 2400 2725 
L 2050 2975 
Q 2575 2975 3200 3075 
Q 3825 3175 4150 3225 
L 4475 2975 
z
M 3550 4575 
Q 3475 4350 3300 4150 
Q 3225 4475 2900 5200 
L 2975 5250 
Q 3350 4825 3550 4575 
z
" transform="scale(0.015625)"/>
       <path id="FangSong-6210" d="M 5575 975 
Q 5600 -150 5750 -625 
Q 4650 -225 4000 1075 
Q 3625 650 2975 225 
L 2925 325 
Q 3525 825 3900 1300 
Q 3600 2275 3500 3300 
L 1875 3125 
Q 1875 2625 1825 2100 
L 2725 2250 
L 2875 2475 
L 3175 2225 
L 3000 2050 
Q 2850 475 2575 -125 
Q 2225 400 1825 775 
L 1875 850 
L 2475 400 
Q 2650 875 2750 2000 
L 1825 1850 
Q 1675 250 600 -650 
L 525 -600 
Q 1250 250 1425 987 
Q 1600 1725 1625 2612 
Q 1650 3500 1550 3800 
L 1625 3825 
L 1850 3350 
L 3450 3525 
Q 3400 4150 3375 4562 
Q 3350 4975 3225 5200 
L 3275 5225 
L 3725 4900 
Q 3625 4925 3637 4575 
Q 3650 4225 3675 3550 
Q 4900 3700 5050 3775 
L 5325 3475 
Q 4775 3475 3725 3325 
Q 3775 2425 4075 1525 
Q 4500 2025 4687 2325 
Q 4875 2625 4800 2850 
L 4875 2875 
L 5125 2325 
Q 5075 2400 4850 2125 
Q 4625 1850 4150 1275 
Q 4625 225 5425 -125 
L 5475 975 
L 5575 975 
z
M 4100 5000 
Q 4525 4700 4875 4450 
Q 4825 4250 4750 4025 
Q 4400 4525 4025 4950 
L 4100 5000 
z
" transform="scale(0.015625)"/>
       <path id="FangSong-6bd4" d="M 3500 2125 
Q 3925 2425 4487 2975 
Q 5050 3525 4950 3750 
L 5025 3775 
L 5250 3225 
Q 5175 3250 4875 3000 
Q 4575 2750 4287 2525 
Q 4000 2300 3500 1900 
L 3500 575 
Q 3475 -100 4150 -100 
L 4800 -100 
Q 5275 -100 5375 12 
Q 5475 125 5450 1350 
L 5575 1350 
Q 5600 825 5637 412 
Q 5675 0 5800 -175 
Q 5375 -325 4800 -325 
L 4150 -325 
Q 3225 -350 3275 550 
L 3275 4300 
Q 3275 4875 3150 5150 
L 3200 5200 
L 3625 4850 
Q 3475 4825 3500 4250 
L 3500 2125 
z
M 1500 2575 
Q 1900 2625 2337 2712 
Q 2775 2800 2800 2850 
L 3075 2600 
Q 2875 2575 2350 2475 
Q 1825 2375 1775 2325 
L 1500 2525 
L 1500 150 
L 2925 1075 
L 2975 1025 
Q 1550 -75 1375 -350 
L 1200 0 
Q 1275 75 1275 350 
L 1275 3925 
Q 1275 4475 1150 4750 
L 1200 4800 
L 1625 4400 
Q 1475 4375 1500 3925 
L 1500 2575 
z
" transform="scale(0.015625)"/>
       <path id="FangSong-4f8b" d="M 3050 2000 
Q 3025 1800 2975 1600 
Q 2775 1900 2525 2250 
Q 2300 1875 2025 1550 
L 1925 1625 
Q 2675 2725 2975 3975 
Q 2475 3925 2375 3875 
L 2050 4125 
Q 2375 4125 3162 4225 
Q 3950 4325 4100 4450 
L 4350 4125 
Q 4050 4150 3100 3975 
L 3300 3700 
Q 3200 3675 3125 3525 
Q 3050 3375 2925 3050 
L 3625 3150 
L 3775 3350 
L 4050 3075 
L 3875 2900 
Q 3300 825 1850 -225 
L 1800 -100 
Q 3100 975 3625 2900 
Q 3150 2825 3025 2775 
L 2875 2925 
Q 2775 2675 2575 2350 
Q 2900 2125 3050 2000 
z
M 1275 -150 
Q 1425 25 1400 225 
L 1450 3425 
Q 1025 2800 475 2225 
L 400 2325 
Q 875 2850 1450 3887 
Q 2025 4925 1925 5150 
L 2000 5175 
L 2250 4700 
Q 2200 4725 2062 4475 
Q 1925 4225 1675 3800 
L 1625 -325 
Q 1650 -675 1525 -600 
L 1275 -150 
z
M 5475 250 
Q 5475 -300 5300 -650 
Q 4900 -100 4300 375 
L 4350 475 
L 5200 -75 
Q 5250 250 5250 575 
L 5250 4350 
Q 5275 4950 5100 5150 
L 5175 5225 
L 5600 4850 
Q 5450 4775 5475 4325 
L 5475 250 
z
M 4300 1525 
Q 4400 1650 4400 1900 
L 4400 3075 
Q 4425 3525 4300 3750 
L 4350 3800 
L 4725 3450 
Q 4600 3350 4625 3025 
L 4625 1375 
Q 4625 1050 4550 1125 
L 4300 1525 
z
" transform="scale(0.015625)"/>
      </defs>
      <use xlink:href="#FangSong-7d2f"/>
      <use xlink:href="#FangSong-8ba1" x="100"/>
      <use xlink:href="#FangSong-5b8c" x="200"/>
      <use xlink:href="#FangSong-6210" x="300"/>
      <use xlink:href="#FangSong-6bd4" x="400"/>
      <use xlink:href="#FangSong-4f8b" x="500"/>
     </g>
    </g>
   </g>
   <g id="line2d_14">
    <path d="M 73.832727 295.488 
L 74.364077 182.9952 
L 74.895426 182.75328 
L 76.489475 182.75328 
L 77.020824 182.51136 
L 77.552174 182.51136 
L 82.334319 180.33408 
L 82.865669 180.33408 
L 84.459717 179.60832 
L 84.991067 178.88256 
L 85.522416 178.88256 
L 86.053766 178.64064 
L 86.585115 178.64064 
L 87.116465 178.39872 
L 87.647814 177.67296 
L 88.710513 177.18912 
L 89.241863 177.18912 
L 90.304562 176.22144 
L 90.835911 175.49568 
L 91.367261 174.528 
L 91.89861 174.04416 
L 92.42996 173.80224 
L 92.961309 173.07648 
L 93.492659 173.07648 
L 94.024008 172.83456 
L 94.555358 171.86688 
L 95.086707 171.14112 
L 96.149406 170.17344 
L 96.680756 169.44768 
L 97.212105 169.44768 
L 97.743455 167.99616 
L 98.274804 167.75424 
L 98.806154 167.02848 
L 99.337503 166.54464 
L 99.868853 165.81888 
L 100.400202 165.33504 
L 101.994251 164.60928 
L 102.5256 163.6416 
L 103.05695 163.15776 
L 103.588299 162.432 
L 104.119649 162.19008 
L 104.650998 160.98048 
L 105.182348 160.73856 
L 105.713697 160.25472 
L 106.245047 159.52896 
L 106.776396 159.28704 
L 107.839095 157.83552 
L 108.370445 157.83552 
L 108.901794 157.5936 
L 109.433144 157.5936 
L 110.495843 156.14208 
L 111.027192 155.90016 
L 111.558542 155.41632 
L 112.089891 155.1744 
L 112.621241 154.44864 
L 114.215289 153.72288 
L 114.746639 152.99712 
L 115.277988 152.51328 
L 115.809338 152.27136 
L 116.340687 152.27136 
L 116.872037 151.78752 
L 117.403386 150.81984 
L 117.934736 150.336 
L 118.466085 150.09408 
L 118.997435 149.61024 
L 119.528784 149.61024 
L 120.591483 148.15872 
L 121.122833 148.15872 
L 121.654182 147.67488 
L 122.716881 146.22336 
L 123.248231 145.73952 
L 123.77958 145.4976 
L 124.842279 144.52992 
L 125.373629 144.52992 
L 125.904978 143.80416 
L 126.436328 143.32032 
L 126.967677 143.32032 
L 127.499027 142.83648 
L 128.030376 142.83648 
L 128.561726 142.59456 
L 129.093075 142.11072 
L 129.624425 141.8688 
L 130.687124 141.8688 
L 131.749823 141.38496 
L 132.281172 141.38496 
L 132.812522 141.14304 
L 134.40657 141.14304 
L 136.000619 139.69152 
L 136.531968 139.69152 
L 138.126017 138.96576 
L 138.657366 137.75616 
L 139.188716 137.0304 
L 139.720065 137.0304 
L 140.782764 136.54656 
L 141.314114 135.8208 
L 141.845463 135.8208 
L 142.908162 135.33696 
L 143.439512 135.33696 
L 143.970861 134.85312 
L 144.502211 134.6112 
L 146.096259 133.15968 
L 147.158958 132.67584 
L 147.690308 132.192 
L 149.284356 132.192 
L 149.815706 131.95008 
L 150.347055 131.95008 
L 150.878405 131.46624 
L 151.409755 131.46624 
L 151.941104 130.9824 
L 152.472454 130.74048 
L 153.003803 130.25664 
L 153.535153 130.01472 
L 154.066502 130.01472 
L 154.597852 129.28896 
L 155.129201 128.32128 
L 155.660551 128.07936 
L 156.1919 128.07936 
L 156.72325 127.83744 
L 157.785949 126.86976 
L 158.317298 126.86976 
L 158.848648 126.62784 
L 159.379997 126.144 
L 160.442696 126.144 
L 160.974046 125.66016 
L 162.568094 125.66016 
L 163.099444 124.9344 
L 163.630793 124.69248 
L 164.693492 123.7248 
L 165.224842 123.48288 
L 165.756191 122.99904 
L 166.81889 122.99904 
L 167.35024 122.27328 
L 168.412939 122.27328 
L 168.944288 121.78944 
L 169.475638 121.78944 
L 171.069686 121.06368 
L 171.601036 120.57984 
L 172.132385 120.57984 
L 172.663735 120.096 
L 173.195084 120.096 
L 174.257783 119.12832 
L 175.320482 119.12832 
L 175.851832 118.8864 
L 176.383181 118.8864 
L 176.914531 118.64448 
L 177.44588 118.64448 
L 177.97723 118.40256 
L 178.508579 117.91872 
L 179.039929 117.91872 
L 180.102628 117.43488 
L 181.165327 117.43488 
L 181.696676 117.19296 
L 182.228026 117.19296 
L 182.759375 116.4672 
L 183.290725 116.4672 
L 184.353424 115.49952 
L 184.884773 115.49952 
L 185.416123 115.01568 
L 186.478822 115.01568 
L 187.541521 114.53184 
L 188.07287 113.80608 
L 189.135569 113.32224 
L 190.729618 113.32224 
L 191.260967 113.08032 
L 192.323666 113.08032 
L 192.855016 112.59648 
L 193.386365 111.87072 
L 193.917715 111.87072 
L 194.980414 111.38688 
L 196.043113 111.38688 
L 196.574462 111.14496 
L 197.105812 111.14496 
L 197.637161 110.90304 
L 198.69986 110.90304 
L 199.23121 110.4192 
L 199.762559 110.4192 
L 200.293909 109.93536 
L 200.825258 109.69344 
L 201.356608 109.2096 
L 202.419307 109.2096 
L 202.950656 108.96768 
L 203.482006 108.96768 
L 204.013355 107.75808 
L 204.544705 107.75808 
L 205.607404 106.7904 
L 206.138753 106.7904 
L 206.670103 106.30656 
L 207.201452 105.5808 
L 208.795501 104.85504 
L 209.32685 104.85504 
L 209.8582 104.61312 
L 210.389549 104.61312 
L 211.452248 104.12928 
L 212.514947 103.1616 
L 213.046297 102.91968 
L 214.108996 101.46816 
L 214.640345 100.98432 
L 215.703044 100.50048 
L 216.765743 100.50048 
L 217.828442 100.01664 
L 218.359792 99.5328 
L 218.891141 98.80704 
L 219.422491 98.56512 
L 221.016539 98.56512 
L 221.547889 97.83936 
L 222.610588 97.35552 
L 223.141937 96.87168 
L 224.204636 96.38784 
L 225.798685 94.93632 
L 226.330034 94.93632 
L 227.924083 94.21056 
L 228.986782 93.24288 
L 230.049481 93.24288 
L 230.58083 93.00096 
L 231.11218 93.00096 
L 232.174879 92.51712 
L 232.706228 92.51712 
L 233.768927 91.54944 
L 234.831626 91.54944 
L 235.894325 91.0656 
L 236.425675 90.58176 
L 239.082422 90.58176 
L 240.145121 90.09792 
L 240.676471 89.61408 
L 243.333218 89.61408 
L 243.864568 89.37216 
L 247.052665 89.37216 
L 247.584014 89.13024 
L 248.115364 88.6464 
L 249.709412 87.92064 
L 250.240762 87.92064 
L 250.772111 87.67872 
L 251.83481 86.71104 
L 252.36616 86.46912 
L 253.428859 86.46912 
L 253.960208 86.2272 
L 254.491558 85.74336 
L 255.022907 85.50144 
L 255.554257 85.0176 
L 256.085606 85.0176 
L 256.616956 84.77568 
L 257.148305 84.77568 
L 257.679655 84.29184 
L 258.211004 84.29184 
L 259.273703 83.808 
L 259.805053 83.808 
L 261.930451 82.84032 
L 262.4618 82.11456 
L 262.99315 82.11456 
L 263.524499 81.3888 
L 264.587198 81.3888 
L 266.181247 80.66304 
L 267.243946 80.66304 
L 268.837994 79.93728 
L 269.369344 79.21152 
L 269.900693 79.21152 
L 270.432043 78.72768 
L 270.963392 78.48576 
L 271.494742 78.00192 
L 272.026091 77.27616 
L 273.62014 76.5504 
L 274.151489 76.5504 
L 274.682839 76.06656 
L 275.214188 76.06656 
L 275.745538 75.82464 
L 277.339586 75.82464 
L 277.870936 75.09888 
L 278.933635 74.61504 
L 279.464984 74.61504 
L 279.996334 74.37312 
L 280.527683 74.37312 
L 281.590382 73.88928 
L 282.121732 73.16352 
L 282.653081 73.16352 
L 283.184431 72.9216 
L 284.778479 72.9216 
L 285.841178 71.95392 
L 287.435227 71.95392 
L 287.966576 70.98624 
L 288.497926 70.26048 
L 289.029275 70.26048 
L 290.091974 69.77664 
L 290.623324 68.80896 
L 291.154673 68.80896 
L 291.686023 68.56704 
L 292.217372 68.56704 
L 292.748722 68.0832 
L 293.280071 67.84128 
L 293.811421 67.84128 
L 295.936819 66.8736 
L 296.468168 66.38976 
L 297.530867 65.90592 
L 298.062217 65.90592 
L 298.593566 65.664 
L 299.656265 65.664 
L 300.187615 64.93824 
L 300.718964 64.69632 
L 301.781663 63.72864 
L 302.313013 63.48672 
L 302.844362 62.0352 
L 303.375712 62.0352 
L 304.438411 61.55136 
L 304.96976 61.55136 
L 305.50111 61.30944 
L 306.032459 61.30944 
L 306.563809 60.8256 
L 308.689207 59.85792 
L 309.220556 59.85792 
L 309.751906 59.616 
L 310.283255 59.13216 
L 311.345954 59.13216 
L 311.877304 58.89024 
L 313.471352 58.89024 
L 314.002702 58.4064 
L 314.534051 58.16448 
L 316.659449 58.16448 
L 317.190799 57.92256 
L 319.316197 57.92256 
L 319.847546 57.68064 
L 321.441595 57.68064 
L 321.972945 57.1968 
L 322.504294 56.95488 
L 331.005886 56.95488 
L 331.537236 56.71296 
L 335.256682 56.71296 
L 336.319381 56.22912 
L 338.976129 56.22912 
L 339.507478 55.9872 
L 344.820973 55.9872 
L 345.352323 55.50336 
L 345.883672 55.26144 
L 350.665818 55.26144 
L 351.197167 55.01952 
L 351.728517 55.01952 
L 352.259866 54.53568 
L 353.322565 54.53568 
L 353.853915 54.29376 
L 363.418206 54.29376 
L 363.949555 54.05184 
L 366.074953 54.05184 
L 366.606303 53.80992 
L 397.955923 53.80992 
L 398.487273 53.568 
L 398.487273 53.568 
" clip-path="url(#p06724e2805)" style="fill: none; stroke: #ff0000; stroke-linecap: square"/>
   </g>
   <g id="line2d_15">
    <path d="M 73.832727 295.488 
L 74.364077 216.088615 
L 81.27162 216.088615 
L 81.80297 214.848 
L 83.397018 214.848 
L 83.928368 213.607385 
L 87.647814 213.607385 
L 88.179164 212.366769 
L 89.241863 212.366769 
L 89.773212 211.126154 
L 90.304562 211.126154 
L 90.835911 209.885538 
L 91.367261 207.404308 
L 91.89861 207.404308 
L 92.961309 204.923077 
L 93.492659 204.923077 
L 94.024008 203.682462 
L 94.555358 203.682462 
L 95.086707 202.441846 
L 99.337503 202.441846 
L 99.868853 201.201231 
L 100.400202 201.201231 
L 100.931552 199.960615 
L 102.5256 199.960615 
L 103.05695 198.72 
L 104.650998 198.72 
L 105.182348 197.479385 
L 105.713697 197.479385 
L 106.245047 196.238769 
L 106.776396 196.238769 
L 107.839095 193.757538 
L 109.433144 193.757538 
L 109.964493 192.516923 
L 112.089891 192.516923 
L 112.621241 191.276308 
L 114.746639 191.276308 
L 115.809338 188.795077 
L 116.340687 188.795077 
L 117.403386 186.313846 
L 117.934736 186.313846 
L 118.997435 183.832615 
L 122.185532 183.832615 
L 123.248231 181.351385 
L 125.373629 181.351385 
L 125.904978 178.870154 
L 126.967677 178.870154 
L 127.499027 177.629538 
L 128.030376 177.629538 
L 128.561726 176.388923 
L 132.281172 176.388923 
L 132.812522 175.148308 
L 134.93792 175.148308 
L 136.000619 172.667077 
L 138.126017 172.667077 
L 139.188716 167.704615 
L 141.845463 167.704615 
L 142.376813 166.464 
L 143.439512 166.464 
L 143.970861 165.223385 
L 144.502211 165.223385 
L 145.03356 163.982769 
L 146.627609 163.982769 
L 147.690308 161.501538 
L 150.347055 161.501538 
L 150.878405 160.260923 
L 151.409755 160.260923 
L 151.941104 159.020308 
L 152.472454 159.020308 
L 153.535153 156.539077 
L 154.066502 156.539077 
L 155.129201 151.576615 
L 158.317298 151.576615 
L 158.848648 150.336 
L 162.568094 150.336 
L 163.099444 149.095385 
L 164.693492 149.095385 
L 165.224842 147.854769 
L 168.412939 147.854769 
L 168.944288 146.614154 
L 172.132385 146.614154 
L 172.663735 145.373538 
L 173.195084 145.373538 
L 173.726434 144.132923 
L 174.257783 141.651692 
L 176.383181 141.651692 
L 176.914531 140.411077 
L 177.97723 140.411077 
L 178.508579 139.170462 
L 181.165327 139.170462 
L 181.696676 137.929846 
L 182.228026 137.929846 
L 182.759375 136.689231 
L 183.822074 136.689231 
L 184.353424 135.448615 
L 187.541521 135.448615 
L 188.07287 134.208 
L 190.729618 134.208 
L 191.260967 132.967385 
L 192.323666 132.967385 
L 192.855016 131.726769 
L 193.386365 129.245538 
L 193.917715 129.245538 
L 194.449064 128.004923 
L 196.043113 128.004923 
L 196.574462 126.764308 
L 200.825258 126.764308 
L 201.356608 125.523692 
L 202.419307 125.523692 
L 202.950656 124.283077 
L 203.482006 124.283077 
L 204.013355 121.801846 
L 205.076054 121.801846 
L 205.607404 120.561231 
L 211.983598 120.561231 
L 212.514947 118.08 
L 213.577646 118.08 
L 214.108996 116.839385 
L 221.547889 116.839385 
L 222.079238 115.598769 
L 223.141937 115.598769 
L 223.673287 114.358154 
L 224.735986 114.358154 
L 225.267335 113.117538 
L 225.798685 110.636308 
L 227.924083 110.636308 
L 228.455432 109.395692 
L 234.831626 109.395692 
L 235.894325 106.914462 
L 240.145121 106.914462 
L 240.676471 105.673846 
L 247.584014 105.673846 
L 248.115364 104.433231 
L 250.240762 104.433231 
L 250.772111 103.192615 
L 251.303461 100.711385 
L 253.960208 100.711385 
L 255.554257 96.989538 
L 257.148305 96.989538 
L 257.679655 94.508308 
L 258.211004 94.508308 
L 258.742354 93.267692 
L 259.805053 93.267692 
L 260.336402 92.027077 
L 262.99315 92.027077 
L 263.524499 89.545846 
L 264.587198 89.545846 
L 265.118548 88.305231 
L 268.837994 88.305231 
L 269.369344 87.064615 
L 271.494742 87.064615 
L 272.026091 84.583385 
L 273.08879 84.583385 
L 273.62014 83.342769 
L 274.151489 83.342769 
L 274.682839 82.102154 
L 285.309829 82.102154 
L 285.841178 80.861538 
L 287.435227 80.861538 
L 287.966576 78.380308 
L 289.029275 78.380308 
L 290.091974 75.899077 
L 290.623324 73.417846 
L 295.936819 73.417846 
L 296.999518 70.936615 
L 300.187615 70.936615 
L 300.718964 69.696 
L 302.313013 69.696 
L 302.844362 68.455385 
L 306.563809 68.455385 
L 308.689207 63.492923 
L 309.220556 63.492923 
L 310.283255 61.011692 
L 321.441595 61.011692 
L 322.504294 58.530462 
L 345.352323 58.530462 
L 345.883672 57.289846 
L 350.665818 57.289846 
L 351.197167 56.049231 
L 351.728517 56.049231 
L 352.259866 54.808615 
L 366.074953 54.808615 
L 366.606303 53.568 
L 398.487273 53.568 
L 398.487273 53.568 
" clip-path="url(#p06724e2805)" style="fill: none; stroke-dasharray: 1.85,0.8; stroke-dashoffset: 0; stroke: #008000; stroke-width: 0.5"/>
   </g>
   <g id="line2d_16">
    <path d="M 73.832727 295.488 
L 74.364077 206.163692 
L 78.614873 206.163692 
L 79.146222 204.923077 
L 84.459717 204.923077 
L 84.991067 202.441846 
L 86.585115 202.441846 
L 87.116465 201.201231 
L 90.304562 201.201231 
L 90.835911 199.960615 
L 94.024008 199.960615 
L 94.555358 198.72 
L 95.086707 198.72 
L 95.618057 197.479385 
L 96.149406 197.479385 
L 96.680756 194.998154 
L 97.212105 194.998154 
L 97.743455 193.757538 
L 98.274804 193.757538 
L 98.806154 192.516923 
L 100.931552 192.516923 
L 101.462901 191.276308 
L 101.994251 191.276308 
L 102.5256 190.035692 
L 107.307746 190.035692 
L 107.839095 188.795077 
L 109.433144 188.795077 
L 109.964493 187.554462 
L 112.089891 187.554462 
L 114.215289 182.592 
L 116.340687 182.592 
L 117.934736 178.870154 
L 119.528784 178.870154 
L 120.060134 176.388923 
L 120.591483 175.148308 
L 121.122833 175.148308 
L 121.654182 173.907692 
L 122.716881 173.907692 
L 123.248231 172.667077 
L 123.77958 172.667077 
L 124.31093 170.185846 
L 125.373629 170.185846 
L 126.436328 167.704615 
L 128.561726 167.704615 
L 129.093075 166.464 
L 134.40657 166.464 
L 134.93792 163.982769 
L 135.469269 162.742154 
L 137.063318 162.742154 
L 139.188716 157.779692 
L 144.502211 157.779692 
L 145.03356 156.539077 
L 145.56491 154.057846 
L 149.284356 154.057846 
L 149.815706 152.817231 
L 156.72325 152.817231 
L 157.785949 150.336 
L 158.848648 150.336 
L 159.379997 149.095385 
L 160.442696 149.095385 
L 160.974046 147.854769 
L 162.568094 147.854769 
L 163.099444 146.614154 
L 163.630793 146.614154 
L 164.693492 144.132923 
L 170.006987 144.132923 
L 171.069686 141.651692 
L 177.44588 141.651692 
L 178.508579 139.170462 
L 179.039929 139.170462 
L 179.571278 137.929846 
L 182.228026 137.929846 
L 182.759375 136.689231 
L 183.290725 136.689231 
L 183.822074 135.448615 
L 186.478822 135.448615 
L 187.010171 134.208 
L 187.541521 134.208 
L 188.07287 132.967385 
L 188.60422 132.967385 
L 189.135569 131.726769 
L 192.323666 131.726769 
L 193.386365 129.245538 
L 198.69986 129.245538 
L 199.23121 128.004923 
L 200.293909 128.004923 
L 200.825258 126.764308 
L 203.482006 126.764308 
L 204.013355 124.283077 
L 204.544705 124.283077 
L 205.076054 123.042462 
L 206.138753 123.042462 
L 207.201452 118.08 
L 207.732802 116.839385 
L 213.046297 116.839385 
L 213.577646 115.598769 
L 214.108996 115.598769 
L 214.640345 114.358154 
L 217.297093 114.358154 
L 218.891141 110.636308 
L 221.016539 110.636308 
L 221.547889 109.395692 
L 222.079238 109.395692 
L 223.141937 106.914462 
L 223.673287 106.914462 
L 224.204636 105.673846 
L 226.330034 105.673846 
L 226.861384 104.433231 
L 227.392733 104.433231 
L 227.924083 103.192615 
L 230.049481 103.192615 
L 230.58083 101.952 
L 231.11218 101.952 
L 231.643529 100.711385 
L 233.237578 100.711385 
L 233.768927 99.470769 
L 235.894325 99.470769 
L 236.425675 98.230154 
L 248.646713 98.230154 
L 249.178063 96.989538 
L 251.303461 96.989538 
L 251.83481 95.748923 
L 253.428859 95.748923 
L 254.491558 93.267692 
L 261.399101 93.267692 
L 262.4618 90.786462 
L 265.118548 90.786462 
L 265.649897 89.545846 
L 268.837994 89.545846 
L 269.369344 88.305231 
L 270.432043 88.305231 
L 271.494742 85.824 
L 272.557441 85.824 
L 273.08879 84.583385 
L 277.339586 84.583385 
L 278.402285 82.102154 
L 281.590382 82.102154 
L 282.121732 79.620923 
L 282.653081 79.620923 
L 283.184431 78.380308 
L 285.309829 78.380308 
L 285.841178 77.139692 
L 287.966576 77.139692 
L 288.497926 75.899077 
L 290.091974 75.899077 
L 290.623324 74.658462 
L 296.999518 74.658462 
L 297.530867 73.417846 
L 298.062217 73.417846 
L 298.593566 72.177231 
L 300.718964 72.177231 
L 301.250314 70.936615 
L 302.313013 70.936615 
L 302.844362 68.455385 
L 303.375712 68.455385 
L 304.438411 65.974154 
L 311.345954 65.974154 
L 311.877304 64.733538 
L 313.471352 64.733538 
L 314.534051 62.252308 
L 321.441595 62.252308 
L 321.972945 61.011692 
L 331.005886 61.011692 
L 331.537236 59.771077 
L 335.788032 59.771077 
L 336.319381 58.530462 
L 344.820973 58.530462 
L 345.352323 57.289846 
L 351.728517 57.289846 
L 352.259866 56.049231 
L 363.418206 56.049231 
L 363.949555 54.808615 
L 397.955923 54.808615 
L 398.487273 53.568 
L 398.487273 53.568 
" clip-path="url(#p06724e2805)" style="fill: none; stroke-dasharray: 1.85,0.8; stroke-dashoffset: 0; stroke: #0000ff; stroke-width: 0.5"/>
   </g>
   <g id="line2d_17">
    <path d="M 73.832727 295.488 
L 74.364077 207.657172 
L 76.489475 207.657172 
L 77.020824 206.11628 
L 77.552174 206.11628 
L 78.083523 204.575389 
L 80.208921 204.575389 
L 81.27162 201.493605 
L 85.522416 201.493605 
L 86.053766 199.952713 
L 87.116465 199.952713 
L 87.647814 198.411822 
L 89.773212 198.411822 
L 90.304562 195.330038 
L 90.835911 193.789146 
L 91.367261 193.789146 
L 91.89861 192.248255 
L 92.42996 192.248255 
L 92.961309 190.707363 
L 94.024008 190.707363 
L 94.555358 189.166471 
L 95.618057 189.166471 
L 96.149406 187.62558 
L 97.743455 187.62558 
L 98.806154 184.543796 
L 103.05695 184.543796 
L 103.588299 183.002904 
L 105.182348 183.002904 
L 105.713697 179.921121 
L 106.776396 176.839338 
L 109.964493 176.839338 
L 110.495843 173.757554 
L 111.558542 170.675771 
L 114.215289 170.675771 
L 114.746639 169.134879 
L 116.872037 169.134879 
L 117.403386 166.053096 
L 120.060134 166.053096 
L 120.591483 164.512204 
L 121.654182 164.512204 
L 122.185532 162.971312 
L 125.904978 162.971312 
L 126.436328 161.43042 
L 130.687124 161.43042 
L 131.218473 159.889529 
L 138.126017 159.889529 
L 138.657366 158.348637 
L 142.376813 158.348637 
L 142.908162 156.807745 
L 143.439512 156.807745 
L 144.502211 153.725962 
L 146.096259 153.725962 
L 146.627609 152.18507 
L 152.472454 152.18507 
L 153.003803 150.644178 
L 154.597852 150.644178 
L 155.660551 147.562395 
L 163.630793 147.562395 
L 164.162143 146.021503 
L 165.224842 146.021503 
L 165.756191 144.480611 
L 166.81889 144.480611 
L 167.35024 142.93972 
L 171.069686 142.93972 
L 171.601036 139.857936 
L 172.132385 139.857936 
L 172.663735 138.317045 
L 179.571278 138.317045 
L 180.102628 136.776153 
L 183.822074 136.776153 
L 184.353424 135.235261 
L 184.884773 135.235261 
L 185.416123 133.694369 
L 188.07287 133.694369 
L 188.60422 132.153478 
L 198.69986 132.153478 
L 199.23121 130.612586 
L 199.762559 130.612586 
L 200.293909 127.530803 
L 203.482006 127.530803 
L 204.013355 125.989911 
L 205.076054 125.989911 
L 205.607404 124.449019 
L 207.732802 124.449019 
L 208.264151 122.908127 
L 210.920899 122.908127 
L 211.452248 121.367236 
L 212.514947 121.367236 
L 213.046297 119.826344 
L 213.577646 119.826344 
L 214.108996 116.744561 
L 215.171695 116.744561 
L 215.703044 115.203669 
L 218.891141 115.203669 
L 219.422491 113.662777 
L 221.016539 113.662777 
L 221.547889 112.121885 
L 222.610588 112.121885 
L 223.141937 110.580994 
L 224.204636 110.580994 
L 224.735986 109.040102 
L 226.861384 109.040102 
L 227.392733 107.49921 
L 227.924083 107.49921 
L 228.455432 105.958318 
L 228.986782 102.876535 
L 232.706228 102.876535 
L 233.237578 101.335643 
L 235.894325 101.335643 
L 236.425675 99.794752 
L 239.082422 99.794752 
L 239.613772 98.25386 
L 240.145121 98.25386 
L 240.676471 96.712968 
L 247.052665 96.712968 
L 248.646713 92.090293 
L 249.178063 92.090293 
L 249.709412 90.549401 
L 251.83481 90.549401 
L 252.36616 89.00851 
L 255.022907 89.00851 
L 255.554257 87.467618 
L 258.742354 87.467618 
L 259.273703 85.926726 
L 265.649897 85.926726 
L 266.181247 84.385834 
L 268.837994 84.385834 
L 269.369344 82.844943 
L 269.900693 82.844943 
L 270.432043 79.763159 
L 272.026091 79.763159 
L 272.557441 78.222268 
L 274.151489 78.222268 
L 274.682839 76.681376 
L 275.214188 76.681376 
L 275.745538 75.140484 
L 284.778479 75.140484 
L 285.309829 73.599592 
L 287.435227 73.599592 
L 288.497926 67.436025 
L 292.217372 67.436025 
L 292.748722 65.895134 
L 294.34277 65.895134 
L 294.87412 64.354242 
L 295.405469 64.354242 
L 295.936819 62.81335 
L 299.656265 62.81335 
L 300.187615 61.272459 
L 300.718964 61.272459 
L 301.781663 58.190675 
L 302.313013 58.190675 
L 302.844362 56.649783 
L 304.96976 56.649783 
L 305.50111 55.108892 
L 344.820973 55.108892 
L 345.352323 53.568 
L 398.487273 53.568 
L 398.487273 53.568 
" clip-path="url(#p06724e2805)" style="fill: none; stroke-dasharray: 1.85,0.8; stroke-dashoffset: 0; stroke: #bf00bf; stroke-width: 0.5"/>
   </g>
   <g id="line2d_18">
    <path d="M 73.832727 295.488 
L 74.364077 205.703258 
L 78.083523 205.703258 
L 78.614873 204.456247 
L 81.80297 204.456247 
L 82.334319 203.209237 
L 87.116465 203.209237 
L 87.647814 200.715216 
L 89.241863 200.715216 
L 89.773212 199.468206 
L 91.367261 199.468206 
L 91.89861 198.221196 
L 92.42996 198.221196 
L 92.961309 196.974186 
L 94.024008 196.974186 
L 94.555358 195.727175 
L 95.086707 193.233155 
L 95.618057 191.986144 
L 97.212105 191.986144 
L 97.743455 188.245113 
L 98.274804 188.245113 
L 99.337503 185.751093 
L 99.868853 183.257072 
L 101.462901 183.257072 
L 102.5256 180.763052 
L 103.05695 180.763052 
L 103.588299 179.516041 
L 106.776396 179.516041 
L 107.839095 177.022021 
L 109.433144 177.022021 
L 109.964493 175.77501 
L 111.027192 175.77501 
L 111.558542 174.528 
L 114.746639 174.528 
L 115.277988 173.28099 
L 120.060134 173.28099 
L 120.591483 172.033979 
L 121.654182 172.033979 
L 122.185532 170.786969 
L 124.31093 170.786969 
L 124.842279 169.539959 
L 126.967677 169.539959 
L 127.499027 168.292948 
L 128.561726 168.292948 
L 129.624425 165.798928 
L 138.126017 165.798928 
L 138.657366 164.551918 
L 139.720065 164.551918 
L 141.314114 160.810887 
L 145.56491 160.810887 
L 146.096259 158.316866 
L 150.347055 158.316866 
L 150.878405 157.069856 
L 151.409755 157.069856 
L 152.472454 154.575835 
L 154.597852 154.575835 
L 155.129201 153.328825 
L 156.72325 153.328825 
L 157.785949 150.834804 
L 160.442696 150.834804 
L 160.974046 149.587794 
L 162.568094 149.587794 
L 163.099444 148.340784 
L 165.224842 148.340784 
L 165.756191 147.093773 
L 166.81889 147.093773 
L 167.35024 144.599753 
L 168.412939 144.599753 
L 168.944288 143.352742 
L 173.195084 143.352742 
L 173.726434 142.105732 
L 175.320482 142.105732 
L 175.851832 140.858722 
L 182.228026 140.858722 
L 182.759375 139.611711 
L 183.290725 139.611711 
L 183.822074 138.364701 
L 184.884773 138.364701 
L 185.416123 137.117691 
L 187.010171 137.117691 
L 188.07287 134.62367 
L 194.449064 134.62367 
L 194.980414 133.37666 
L 197.105812 133.37666 
L 197.637161 132.129649 
L 200.825258 132.129649 
L 201.356608 130.882639 
L 204.544705 130.882639 
L 205.076054 129.635629 
L 208.264151 129.635629 
L 208.795501 128.388619 
L 209.32685 128.388619 
L 209.8582 127.141608 
L 210.389549 127.141608 
L 210.920899 125.894598 
L 211.452248 125.894598 
L 211.983598 123.400577 
L 213.046297 123.400577 
L 213.577646 120.906557 
L 214.640345 120.906557 
L 215.171695 119.659546 
L 216.765743 119.659546 
L 217.297093 118.412536 
L 217.828442 118.412536 
L 218.359792 117.165526 
L 218.891141 114.671505 
L 221.016539 114.671505 
L 221.547889 113.424495 
L 224.204636 113.424495 
L 224.735986 112.177485 
L 231.643529 112.177485 
L 232.174879 110.930474 
L 232.706228 110.930474 
L 233.768927 108.436454 
L 239.613772 108.436454 
L 240.145121 107.189443 
L 243.333218 107.189443 
L 243.864568 105.942433 
L 251.303461 105.942433 
L 251.83481 104.695423 
L 256.085606 104.695423 
L 256.616956 103.448412 
L 260.336402 103.448412 
L 261.399101 100.954392 
L 261.930451 100.954392 
L 262.4618 98.460371 
L 262.99315 98.460371 
L 263.524499 97.213361 
L 267.243946 97.213361 
L 268.837994 93.47233 
L 270.963392 93.47233 
L 272.026091 90.978309 
L 277.339586 90.978309 
L 277.870936 88.484289 
L 278.402285 88.484289 
L 278.933635 87.237278 
L 279.464984 87.237278 
L 279.996334 85.990268 
L 280.527683 85.990268 
L 282.121732 82.249237 
L 284.778479 82.249237 
L 285.309829 81.002227 
L 290.091974 81.002227 
L 290.623324 79.755216 
L 291.154673 79.755216 
L 291.686023 78.508206 
L 292.217372 78.508206 
L 293.280071 76.014186 
L 293.811421 76.014186 
L 294.34277 74.767175 
L 294.87412 74.767175 
L 295.405469 73.520165 
L 295.936819 73.520165 
L 296.468168 72.273155 
L 299.656265 72.273155 
L 300.187615 69.779134 
L 301.250314 69.779134 
L 302.313013 67.285113 
L 302.844362 64.791093 
L 306.032459 64.791093 
L 306.563809 62.297072 
L 309.751906 62.297072 
L 310.283255 61.050062 
L 313.471352 61.050062 
L 314.002702 59.803052 
L 316.659449 59.803052 
L 317.190799 58.556041 
L 319.316197 58.556041 
L 319.847546 57.309031 
L 335.256682 57.309031 
L 335.788032 56.062021 
L 338.976129 56.062021 
L 339.507478 54.81501 
L 353.322565 54.81501 
L 353.853915 53.568 
L 398.487273 53.568 
L 398.487273 53.568 
" clip-path="url(#p06724e2805)" style="fill: none; stroke-dasharray: 1.85,0.8; stroke-dashoffset: 0; stroke: #bfbf00; stroke-width: 0.5"/>
   </g>
   <g id="line2d_19">
    <path d="M 73.832727 295.488 
L 74.364077 108.677189 
L 74.895426 107.743135 
L 79.146222 107.743135 
L 80.208921 105.875027 
L 82.865669 105.875027 
L 83.397018 104.940973 
L 83.928368 104.940973 
L 84.991067 103.072865 
L 88.179164 103.072865 
L 88.710513 102.138811 
L 90.835911 102.138811 
L 91.367261 100.270703 
L 94.024008 100.270703 
L 94.555358 99.336649 
L 95.618057 99.336649 
L 96.680756 97.468541 
L 97.212105 97.468541 
L 97.743455 95.600432 
L 98.806154 95.600432 
L 99.337503 94.666378 
L 99.868853 94.666378 
L 100.400202 92.79827 
L 101.994251 92.79827 
L 102.5256 90.930162 
L 104.119649 88.128 
L 104.650998 83.45773 
L 105.713697 83.45773 
L 106.245047 82.523676 
L 106.776396 82.523676 
L 107.307746 81.589622 
L 108.370445 81.589622 
L 108.901794 80.655568 
L 109.964493 80.655568 
L 110.495843 79.721514 
L 111.558542 79.721514 
L 112.621241 77.853405 
L 114.215289 77.853405 
L 114.746639 75.985297 
L 117.403386 75.985297 
L 117.934736 75.051243 
L 118.466085 75.051243 
L 118.997435 74.117189 
L 119.528784 74.117189 
L 120.060134 73.183135 
L 121.122833 73.183135 
L 122.185532 71.315027 
L 122.716881 69.446919 
L 123.248231 69.446919 
L 123.77958 68.512865 
L 124.31093 68.512865 
L 124.842279 67.578811 
L 131.218473 67.578811 
L 131.749823 66.644757 
L 135.469269 66.644757 
L 136.000619 65.710703 
L 136.531968 65.710703 
L 137.063318 64.776649 
L 140.782764 64.776649 
L 141.314114 62.908541 
L 147.158958 62.908541 
L 147.690308 61.974486 
L 154.066502 61.974486 
L 154.597852 61.040432 
L 156.1919 61.040432 
L 156.72325 60.106378 
L 158.848648 60.106378 
L 159.379997 59.172324 
L 163.099444 59.172324 
L 163.630793 58.23827 
L 164.162143 58.23827 
L 164.693492 57.304216 
L 169.475638 57.304216 
L 170.006987 56.370162 
L 206.670103 56.370162 
L 207.201452 55.436108 
L 214.108996 55.436108 
L 214.640345 54.502054 
L 224.735986 54.502054 
L 225.267335 53.568 
L 398.487273 53.568 
L 398.487273 53.568 
" clip-path="url(#p06724e2805)" style="fill: none; stroke-dasharray: 1.85,0.8; stroke-dashoffset: 0; stroke: #000000; stroke-width: 0.5"/>
   </g>
   <g id="patch_3">
    <path d="M 57.6 307.584 
L 57.6 41.472 
" style="fill: none; stroke: #000000; stroke-width: 0.8; stroke-linejoin: miter; stroke-linecap: square"/>
   </g>
   <g id="patch_4">
    <path d="M 414.72 307.584 
L 414.72 41.472 
" style="fill: none; stroke: #000000; stroke-width: 0.8; stroke-linejoin: miter; stroke-linecap: square"/>
   </g>
   <g id="patch_5">
    <path d="M 57.6 307.584 
L 414.72 307.584 
" style="fill: none; stroke: #000000; stroke-width: 0.8; stroke-linejoin: miter; stroke-linecap: square"/>
   </g>
   <g id="patch_6">
    <path d="M 57.6 41.472 
L 414.72 41.472 
" style="fill: none; stroke: #000000; stroke-width: 0.8; stroke-linejoin: miter; stroke-linecap: square"/>
   </g>
   <g id="text_16">
    <!-- count=1000, googlenet=150, resnet50=187, squeezenetv1=150, vgg19=112, yolov2=150 -->
    <g transform="translate(-3.84 35.472) scale(0.12 -0.12)">
     <defs>
      <path id="FangSong-6f" d="M 2875 1400 
Q 2875 775 2500 362 
Q 2125 -50 1575 -50 
Q 1000 -50 637 375 
Q 275 800 275 1400 
Q 275 1950 637 2400 
Q 1000 2850 1575 2850 
Q 2175 2850 2525 2400 
Q 2875 1950 2875 1400 
z
M 675 1375 
Q 675 725 937 412 
Q 1200 100 1575 100 
Q 2000 100 2237 437 
Q 2475 775 2475 1375 
Q 2475 2025 2212 2362 
Q 1950 2700 1575 2700 
Q 1225 2700 950 2362 
Q 675 2025 675 1375 
z
" transform="scale(0.015625)"/>
      <path id="FangSong-75" d="M 1425 225 
Q 1725 225 1937 375 
Q 2150 525 2250 850 
L 2250 2425 
Q 2250 2525 2200 2587 
Q 2150 2650 2025 2650 
L 1875 2650 
L 1875 2800 
L 2025 2800 
Q 2175 2800 2300 2825 
Q 2425 2850 2550 2950 
L 2600 2950 
L 2600 500 
Q 2600 400 2662 350 
Q 2725 300 2825 300 
L 2975 300 
L 2975 150 
L 2825 150 
Q 2700 150 2575 112 
Q 2450 75 2300 0 
L 2250 0 
L 2250 525 
Q 2125 250 1875 112 
Q 1625 -25 1300 -25 
Q 900 -25 700 200 
Q 500 425 500 925 
L 500 2425 
Q 500 2525 450 2587 
Q 400 2650 275 2650 
L 125 2650 
L 125 2800 
L 275 2800 
Q 425 2800 550 2825 
Q 675 2850 800 2950 
L 850 2950 
L 850 875 
Q 850 525 1000 375 
Q 1150 225 1425 225 
z
" transform="scale(0.015625)"/>
      <path id="FangSong-3d" d="M 175 2725 
L 175 2950 
L 2950 2950 
L 2950 2725 
L 175 2725 
z
M 175 1450 
L 175 1675 
L 2950 1675 
L 2950 1450 
L 175 1450 
z
" transform="scale(0.015625)"/>
      <path id="FangSong-2c" d="M 1325 75 
Q 1200 25 1100 75 
Q 1000 125 962 237 
Q 925 350 925 437 
Q 925 525 987 612 
Q 1050 700 1150 737 
Q 1250 775 1425 725 
Q 1600 675 1650 500 
Q 1700 325 1662 150 
Q 1625 -25 1525 -200 
Q 1425 -375 1312 -475 
Q 1200 -575 1025 -675 
L 950 -575 
Q 1100 -450 1187 -312 
Q 1275 -175 1325 75 
z
" transform="scale(0.015625)"/>
      <path id="FangSong-20" transform="scale(0.015625)"/>
      <path id="FangSong-67" d="M 850 1875 
Q 850 1575 1025 1362 
Q 1200 1150 1500 1150 
Q 1825 1150 1987 1337 
Q 2150 1525 2150 1875 
Q 2150 2300 1962 2487 
Q 1775 2675 1500 2675 
Q 1225 2675 1037 2487 
Q 850 2300 850 1875 
z
M 2075 525 
Q 2450 475 2625 312 
Q 2800 150 2800 -125 
Q 2800 -500 2487 -725 
Q 2175 -950 1500 -950 
Q 975 -950 650 -737 
Q 325 -525 325 -250 
Q 325 -75 450 100 
Q 575 275 850 375 
Q 700 450 612 537 
Q 525 625 525 750 
Q 525 900 625 1012 
Q 725 1125 875 1200 
Q 725 1325 612 1500 
Q 500 1675 500 1875 
Q 500 2250 762 2537 
Q 1025 2825 1500 2825 
Q 1700 2825 1887 2775 
Q 2075 2725 2200 2600 
Q 2375 2725 2512 2787 
Q 2650 2850 2750 2850 
Q 2875 2850 2925 2762 
Q 2975 2675 2975 2600 
Q 2975 2500 2937 2437 
Q 2900 2375 2800 2375 
Q 2725 2375 2675 2412 
Q 2625 2450 2600 2525 
Q 2575 2600 2487 2587 
Q 2400 2575 2300 2500 
Q 2400 2400 2450 2225 
Q 2500 2050 2500 1875 
Q 2500 1575 2262 1287 
Q 2025 1000 1500 1000 
Q 1350 1000 1225 1037 
Q 1100 1075 1025 1125 
Q 925 1075 875 1000 
Q 825 925 825 875 
Q 825 775 875 725 
Q 925 675 1025 675 
Q 1350 625 1612 587 
Q 1875 550 2075 525 
z
M 1050 325 
Q 825 225 737 87 
Q 650 -50 650 -250 
Q 650 -450 875 -625 
Q 1100 -800 1550 -800 
Q 1975 -800 2225 -662 
Q 2475 -525 2475 -250 
Q 2475 -75 2412 25 
Q 2350 125 2225 150 
Q 1975 200 1675 237 
Q 1375 275 1050 325 
z
" transform="scale(0.015625)"/>
      <path id="FangSong-6c" d="M 900 4275 
Q 1125 4275 1325 4325 
Q 1525 4375 1700 4475 
L 1750 4475 
L 1750 350 
Q 1750 250 1812 200 
Q 1875 150 1975 150 
L 2550 150 
L 2550 0 
L 600 0 
L 600 150 
L 1175 150 
Q 1300 150 1350 200 
Q 1400 250 1400 350 
L 1400 3925 
Q 1400 4025 1350 4075 
Q 1300 4125 1175 4125 
L 625 4125 
L 625 4275 
L 900 4275 
z
" transform="scale(0.015625)"/>
      <path id="FangSong-72" d="M 1250 2025 
Q 1500 2425 1787 2637 
Q 2075 2850 2375 2850 
Q 2625 2850 2762 2737 
Q 2900 2625 2900 2475 
Q 2900 2350 2837 2275 
Q 2775 2200 2650 2200 
Q 2525 2200 2462 2275 
Q 2400 2350 2425 2475 
Q 2425 2550 2400 2600 
Q 2375 2650 2250 2650 
Q 2050 2650 1762 2400 
Q 1475 2150 1250 1700 
L 1250 350 
Q 1250 250 1312 200 
Q 1375 150 1475 150 
L 2025 150 
L 2025 0 
L 175 0 
L 175 150 
L 675 150 
Q 800 150 850 200 
Q 900 250 900 350 
L 900 2425 
Q 900 2525 850 2587 
Q 800 2650 675 2650 
L 200 2650 
L 200 2800 
L 400 2800 
Q 575 2800 812 2837 
Q 1050 2875 1175 2925 
L 1250 2925 
L 1250 2025 
z
" transform="scale(0.015625)"/>
      <path id="FangSong-73" d="M 600 2075 
Q 600 2450 887 2650 
Q 1175 2850 1575 2850 
Q 1800 2850 2000 2787 
Q 2200 2725 2275 2725 
Q 2350 2725 2400 2750 
Q 2450 2775 2525 2850 
L 2625 2025 
L 2475 2000 
Q 2375 2325 2137 2512 
Q 1900 2700 1600 2700 
Q 1275 2700 1087 2575 
Q 900 2450 900 2225 
Q 900 2025 987 1912 
Q 1075 1800 1300 1750 
Q 1475 1675 1737 1587 
Q 2000 1500 2225 1400 
Q 2425 1300 2562 1137 
Q 2700 975 2700 775 
Q 2700 400 2437 187 
Q 2175 -25 1675 -25 
Q 1350 -25 1187 37 
Q 1025 100 925 100 
Q 850 100 762 62 
Q 675 25 575 -25 
L 500 900 
L 650 925 
Q 725 525 975 325 
Q 1225 125 1675 125 
Q 2025 125 2212 250 
Q 2400 375 2400 625 
Q 2400 800 2300 912 
Q 2200 1025 2100 1075 
Q 1850 1175 1550 1287 
Q 1250 1400 1025 1500 
Q 800 1600 700 1750 
Q 600 1900 600 2075 
z
" transform="scale(0.015625)"/>
      <path id="FangSong-37" d="M 2800 4100 
Q 2275 3250 1962 2437 
Q 1650 1625 1650 1025 
Q 1650 925 1662 737 
Q 1675 550 1675 300 
Q 1675 100 1612 25 
Q 1550 -50 1400 -50 
Q 1275 -50 1187 37 
Q 1100 125 1100 350 
Q 1100 825 1312 1525 
Q 1525 2225 2450 3900 
L 1200 3900 
Q 925 3900 762 3725 
Q 600 3550 525 3200 
L 375 3225 
L 550 4275 
L 2800 4275 
L 2800 4100 
z
" transform="scale(0.015625)"/>
      <path id="FangSong-71" d="M 2250 2150 
Q 2150 2375 1975 2512 
Q 1800 2650 1550 2650 
Q 1200 2650 950 2350 
Q 700 2050 700 1325 
Q 700 700 912 437 
Q 1125 175 1450 175 
Q 1725 175 1937 300 
Q 2150 425 2250 725 
L 2250 2150 
z
M 2600 -550 
Q 2600 -675 2662 -725 
Q 2725 -775 2825 -775 
L 2975 -775 
L 2975 -925 
L 1825 -925 
L 1825 -775 
L 2025 -775 
Q 2150 -775 2200 -725 
Q 2250 -675 2250 -550 
L 2250 375 
Q 2100 175 1887 75 
Q 1675 -25 1375 -25 
Q 950 -25 625 337 
Q 300 700 300 1400 
Q 300 2075 675 2450 
Q 1050 2825 1475 2825 
Q 1750 2825 1937 2725 
Q 2125 2625 2275 2475 
L 2500 2800 
L 2600 2800 
L 2600 -550 
z
" transform="scale(0.015625)"/>
      <path id="FangSong-7a" d="M 2725 975 
L 2550 0 
L 400 0 
L 400 125 
L 2125 2650 
L 1200 2650 
Q 975 2650 825 2487 
Q 675 2325 575 1925 
L 425 1950 
L 525 2800 
L 2575 2800 
L 2575 2725 
L 825 150 
L 1775 150 
Q 2100 150 2287 350 
Q 2475 550 2575 1000 
L 2725 975 
z
" transform="scale(0.015625)"/>
      <path id="FangSong-76" d="M 1600 -25 
L 1450 -25 
L 600 2425 
Q 575 2525 500 2587 
Q 425 2650 325 2650 
L 200 2650 
L 200 2800 
L 1275 2800 
L 1275 2650 
L 1175 2650 
Q 1025 2650 987 2575 
Q 950 2500 1000 2325 
L 1600 575 
L 1650 575 
L 2250 2300 
Q 2325 2475 2262 2562 
Q 2200 2650 2050 2650 
L 2000 2650 
L 2000 2800 
L 2900 2800 
L 2900 2650 
L 2850 2650 
Q 2700 2650 2612 2562 
Q 2525 2475 2450 2300 
L 1600 -25 
z
" transform="scale(0.015625)"/>
      <path id="FangSong-39" d="M 675 2950 
Q 675 2400 887 2112 
Q 1100 1825 1425 1825 
Q 1800 1825 2075 2175 
Q 2350 2525 2350 2825 
Q 2350 3425 2150 3787 
Q 1950 4150 1500 4150 
Q 1075 4150 875 3812 
Q 675 3475 675 2950 
z
M 1350 1600 
Q 850 1600 550 1912 
Q 250 2225 250 2925 
Q 250 3525 575 3925 
Q 900 4325 1500 4325 
Q 2125 4325 2475 3825 
Q 2825 3325 2825 2375 
Q 2825 1325 2412 637 
Q 2000 -50 1275 -50 
Q 950 -50 712 100 
Q 475 250 475 500 
Q 475 600 537 700 
Q 600 800 750 800 
Q 900 800 950 687 
Q 1000 575 1000 425 
Q 1000 325 1025 262 
Q 1050 200 1075 175 
Q 1100 150 1162 137 
Q 1225 125 1300 125 
Q 1750 125 2025 625 
Q 2300 1125 2350 2300 
Q 2225 2000 1975 1800 
Q 1725 1600 1350 1600 
z
" transform="scale(0.015625)"/>
     </defs>
     <use xlink:href="#FangSong-63"/>
     <use xlink:href="#FangSong-6f" x="50"/>
     <use xlink:href="#FangSong-75" x="100"/>
     <use xlink:href="#FangSong-6e" x="150"/>
     <use xlink:href="#FangSong-74" x="200"/>
     <use xlink:href="#FangSong-3d" x="250"/>
     <use xlink:href="#FangSong-31" x="300"/>
     <use xlink:href="#FangSong-30" x="350"/>
     <use xlink:href="#FangSong-30" x="400"/>
     <use xlink:href="#FangSong-30" x="450"/>
     <use xlink:href="#FangSong-2c" x="500"/>
     <use xlink:href="#FangSong-20" x="550"/>
     <use xlink:href="#FangSong-67" x="600"/>
     <use xlink:href="#FangSong-6f" x="650"/>
     <use xlink:href="#FangSong-6f" x="700"/>
     <use xlink:href="#FangSong-67" x="750"/>
     <use xlink:href="#FangSong-6c" x="800"/>
     <use xlink:href="#FangSong-65" x="850"/>
     <use xlink:href="#FangSong-6e" x="900"/>
     <use xlink:href="#FangSong-65" x="950"/>
     <use xlink:href="#FangSong-74" x="1000"/>
     <use xlink:href="#FangSong-3d" x="1050"/>
     <use xlink:href="#FangSong-31" x="1100"/>
     <use xlink:href="#FangSong-35" x="1150"/>
     <use xlink:href="#FangSong-30" x="1200"/>
     <use xlink:href="#FangSong-2c" x="1250"/>
     <use xlink:href="#FangSong-20" x="1300"/>
     <use xlink:href="#FangSong-72" x="1350"/>
     <use xlink:href="#FangSong-65" x="1400"/>
     <use xlink:href="#FangSong-73" x="1450"/>
     <use xlink:href="#FangSong-6e" x="1500"/>
     <use xlink:href="#FangSong-65" x="1550"/>
     <use xlink:href="#FangSong-74" x="1600"/>
     <use xlink:href="#FangSong-35" x="1650"/>
     <use xlink:href="#FangSong-30" x="1700"/>
     <use xlink:href="#FangSong-3d" x="1750"/>
     <use xlink:href="#FangSong-31" x="1800"/>
     <use xlink:href="#FangSong-38" x="1850"/>
     <use xlink:href="#FangSong-37" x="1900"/>
     <use xlink:href="#FangSong-2c" x="1950"/>
     <use xlink:href="#FangSong-20" x="2000"/>
     <use xlink:href="#FangSong-73" x="2050"/>
     <use xlink:href="#FangSong-71" x="2100"/>
     <use xlink:href="#FangSong-75" x="2150"/>
     <use xlink:href="#FangSong-65" x="2200"/>
     <use xlink:href="#FangSong-65" x="2250"/>
     <use xlink:href="#FangSong-7a" x="2300"/>
     <use xlink:href="#FangSong-65" x="2350"/>
     <use xlink:href="#FangSong-6e" x="2400"/>
     <use xlink:href="#FangSong-65" x="2450"/>
     <use xlink:href="#FangSong-74" x="2500"/>
     <use xlink:href="#FangSong-76" x="2550"/>
     <use xlink:href="#FangSong-31" x="2600"/>
     <use xlink:href="#FangSong-3d" x="2650"/>
     <use xlink:href="#FangSong-31" x="2700"/>
     <use xlink:href="#FangSong-35" x="2750"/>
     <use xlink:href="#FangSong-30" x="2800"/>
     <use xlink:href="#FangSong-2c" x="2850"/>
     <use xlink:href="#FangSong-20" x="2900"/>
     <use xlink:href="#FangSong-76" x="2950"/>
     <use xlink:href="#FangSong-67" x="3000"/>
     <use xlink:href="#FangSong-67" x="3050"/>
     <use xlink:href="#FangSong-31" x="3100"/>
     <use xlink:href="#FangSong-39" x="3150"/>
     <use xlink:href="#FangSong-3d" x="3200"/>
     <use xlink:href="#FangSong-31" x="3250"/>
     <use xlink:href="#FangSong-31" x="3300"/>
     <use xlink:href="#FangSong-32" x="3350"/>
     <use xlink:href="#FangSong-2c" x="3400"/>
     <use xlink:href="#FangSong-20" x="3450"/>
     <use xlink:href="#FangSong-79" x="3500"/>
     <use xlink:href="#FangSong-6f" x="3550"/>
     <use xlink:href="#FangSong-6c" x="3600"/>
     <use xlink:href="#FangSong-6f" x="3650"/>
     <use xlink:href="#FangSong-76" x="3700"/>
     <use xlink:href="#FangSong-32" x="3750"/>
     <use xlink:href="#FangSong-3d" x="3800"/>
     <use xlink:href="#FangSong-31" x="3850"/>
     <use xlink:href="#FangSong-35" x="3900"/>
     <use xlink:href="#FangSong-30" x="3950"/>
    </g>
   </g>
   <g id="legend_1">
    <g id="patch_7">
     <path d="M 315.72 302.584 
L 407.72 302.584 
Q 409.72 302.584 409.72 300.584 
L 409.72 220.794937 
Q 409.72 218.794937 407.72 218.794937 
L 315.72 218.794937 
Q 313.72 218.794937 313.72 220.794937 
L 313.72 300.584 
Q 313.72 302.584 315.72 302.584 
z
" style="fill: #ffffff; opacity: 0.8; stroke: #cccccc; stroke-linejoin: miter"/>
    </g>
    <g id="line2d_20">
     <path d="M 317.72 226.294937 
L 327.72 226.294937 
L 337.72 226.294937 
" style="fill: none; stroke: #ff0000; stroke-linecap: square"/>
    </g>
    <g id="text_17">
     <!-- total -->
     <g transform="translate(345.72 229.794937) scale(0.1 -0.1)">
      <use xlink:href="#FangSong-74"/>
      <use xlink:href="#FangSong-6f" x="50"/>
      <use xlink:href="#FangSong-74" x="100"/>
      <use xlink:href="#FangSong-61" x="150"/>
      <use xlink:href="#FangSong-6c" x="200"/>
     </g>
    </g>
    <g id="line2d_21">
     <path d="M 317.72 239.74025 
L 327.72 239.74025 
L 337.72 239.74025 
" style="fill: none; stroke-dasharray: 1.85,0.8; stroke-dashoffset: 0; stroke: #008000; stroke-width: 0.5"/>
    </g>
    <g id="text_18">
     <!-- squeezenetv1 -->
     <g transform="translate(345.72 243.24025) scale(0.1 -0.1)">
      <use xlink:href="#FangSong-73"/>
      <use xlink:href="#FangSong-71" x="50"/>
      <use xlink:href="#FangSong-75" x="100"/>
      <use xlink:href="#FangSong-65" x="150"/>
      <use xlink:href="#FangSong-65" x="200"/>
      <use xlink:href="#FangSong-7a" x="250"/>
      <use xlink:href="#FangSong-65" x="300"/>
      <use xlink:href="#FangSong-6e" x="350"/>
      <use xlink:href="#FangSong-65" x="400"/>
      <use xlink:href="#FangSong-74" x="450"/>
      <use xlink:href="#FangSong-76" x="500"/>
      <use xlink:href="#FangSong-31" x="550"/>
     </g>
    </g>
    <g id="line2d_22">
     <path d="M 317.72 253.185562 
L 327.72 253.185562 
L 337.72 253.185562 
" style="fill: none; stroke-dasharray: 1.85,0.8; stroke-dashoffset: 0; stroke: #0000ff; stroke-width: 0.5"/>
    </g>
    <g id="text_19">
     <!-- yolov2 -->
     <g transform="translate(345.72 256.685562) scale(0.1 -0.1)">
      <use xlink:href="#FangSong-79"/>
      <use xlink:href="#FangSong-6f" x="50"/>
      <use xlink:href="#FangSong-6c" x="100"/>
      <use xlink:href="#FangSong-6f" x="150"/>
      <use xlink:href="#FangSong-76" x="200"/>
      <use xlink:href="#FangSong-32" x="250"/>
     </g>
    </g>
    <g id="line2d_23">
     <path d="M 317.72 266.669937 
L 327.72 266.669937 
L 337.72 266.669937 
" style="fill: none; stroke-dasharray: 1.85,0.8; stroke-dashoffset: 0; stroke: #bf00bf; stroke-width: 0.5"/>
    </g>
    <g id="text_20">
     <!-- resnet50 -->
     <g transform="translate(345.72 270.169937) scale(0.1 -0.1)">
      <use xlink:href="#FangSong-72"/>
      <use xlink:href="#FangSong-65" x="50"/>
      <use xlink:href="#FangSong-73" x="100"/>
      <use xlink:href="#FangSong-6e" x="150"/>
      <use xlink:href="#FangSong-65" x="200"/>
      <use xlink:href="#FangSong-74" x="250"/>
      <use xlink:href="#FangSong-35" x="300"/>
      <use xlink:href="#FangSong-30" x="350"/>
     </g>
    </g>
    <g id="line2d_24">
     <path d="M 317.72 280.11525 
L 327.72 280.11525 
L 337.72 280.11525 
" style="fill: none; stroke-dasharray: 1.85,0.8; stroke-dashoffset: 0; stroke: #bfbf00; stroke-width: 0.5"/>
    </g>
    <g id="text_21">
     <!-- googlenet -->
     <g transform="translate(345.72 283.61525) scale(0.1 -0.1)">
      <use xlink:href="#FangSong-67"/>
      <use xlink:href="#FangSong-6f" x="50"/>
      <use xlink:href="#FangSong-6f" x="100"/>
      <use xlink:href="#FangSong-67" x="150"/>
      <use xlink:href="#FangSong-6c" x="200"/>
      <use xlink:href="#FangSong-65" x="250"/>
      <use xlink:href="#FangSong-6e" x="300"/>
      <use xlink:href="#FangSong-65" x="350"/>
      <use xlink:href="#FangSong-74" x="400"/>
     </g>
    </g>
    <g id="line2d_25">
     <path d="M 317.72 293.599625 
L 327.72 293.599625 
L 337.72 293.599625 
" style="fill: none; stroke-dasharray: 1.85,0.8; stroke-dashoffset: 0; stroke: #000000; stroke-width: 0.5"/>
    </g>
    <g id="text_22">
     <!-- vgg19 -->
     <g transform="translate(345.72 297.099625) scale(0.1 -0.1)">
      <use xlink:href="#FangSong-76"/>
      <use xlink:href="#FangSong-67" x="50"/>
      <use xlink:href="#FangSong-67" x="100"/>
      <use xlink:href="#FangSong-31" x="150"/>
      <use xlink:href="#FangSong-39" x="200"/>
     </g>
    </g>
   </g>
  </g>
 </g>
 <defs>
  <clipPath id="p06724e2805">
   <rect x="57.6" y="41.472" width="357.12" height="266.112"/>
  </clipPath>
 </defs>
</svg>
