<?xml version="1.0" encoding="utf-8" standalone="no"?>
<!DOCTYPE svg PUBLIC "-//W3C//DTD SVG 1.1//EN"
  "http://www.w3.org/Graphics/SVG/1.1/DTD/svg11.dtd">
<svg xmlns:xlink="http://www.w3.org/1999/xlink" width="460.8pt" height="345.6pt" viewBox="0 0 460.8 345.6" xmlns="http://www.w3.org/2000/svg" version="1.1">
 <metadata>
  <rdf:RDF xmlns:dc="http://purl.org/dc/elements/1.1/" xmlns:cc="http://creativecommons.org/ns#" xmlns:rdf="http://www.w3.org/1999/02/22-rdf-syntax-ns#">
   <cc:Work>
    <dc:type rdf:resource="http://purl.org/dc/dcmitype/StillImage"/>
    <dc:date>2023-01-19T17:24:47.370965</dc:date>
    <dc:format>image/svg+xml</dc:format>
    <dc:creator>
     <cc:Agent>
      <dc:title>Matplotlib v3.6.3, https://matplotlib.org/</dc:title>
     </cc:Agent>
    </dc:creator>
   </cc:Work>
  </rdf:RDF>
 </metadata>
 <defs>
  <style type="text/css">*{stroke-linejoin: round; stroke-linecap: butt}</style>
 </defs>
 <g id="figure_1">
  <g id="patch_1">
   <path d="M 0 345.6 
L 460.8 345.6 
L 460.8 0 
L 0 0 
z
" style="fill: #ffffff"/>
  </g>
  <g id="axes_1">
   <g id="patch_2">
    <path d="M 57.6 307.584 
L 414.72 307.584 
L 414.72 41.472 
L 57.6 41.472 
z
" style="fill: #ffffff"/>
   </g>
   <g id="matplotlib.axis_1">
    <g id="xtick_1">
     <g id="line2d_1">
      <defs>
       <path id="m1168f31524" d="M 0 0 
L 0 3.5 
" style="stroke: #000000; stroke-width: 0.8"/>
      </defs>
      <g>
       <use xlink:href="#m1168f31524" x="68.711993" y="307.584" style="stroke: #000000; stroke-width: 0.8"/>
      </g>
     </g>
     <g id="text_1">
      <!-- 0 -->
      <g transform="translate(66.211993 321.576187) scale(0.1 -0.1)">
       <defs>
        <path id="FangSong-30" d="M 1575 4125 
Q 1225 4125 987 3587 
Q 750 3050 750 2150 
Q 750 1200 987 675 
Q 1225 150 1575 150 
Q 1950 150 2162 675 
Q 2375 1200 2375 2150 
Q 2375 3050 2175 3587 
Q 1975 4125 1575 4125 
z
M 1575 -50 
Q 1025 -50 650 525 
Q 275 1100 275 2150 
Q 275 3125 637 3725 
Q 1000 4325 1575 4325 
Q 2125 4325 2487 3750 
Q 2850 3175 2850 2150 
Q 2850 1125 2487 537 
Q 2125 -50 1575 -50 
z
" transform="scale(0.015625)"/>
       </defs>
       <use xlink:href="#FangSong-30"/>
      </g>
     </g>
    </g>
    <g id="xtick_2">
     <g id="line2d_2">
      <g>
       <use xlink:href="#m1168f31524" x="119.919335" y="307.584" style="stroke: #000000; stroke-width: 0.8"/>
      </g>
     </g>
     <g id="text_2">
      <!-- 10 -->
      <g transform="translate(114.919335 321.576187) scale(0.1 -0.1)">
       <defs>
        <path id="FangSong-31" d="M 1800 4350 
L 1800 550 
Q 1800 350 1925 250 
Q 2050 150 2275 150 
L 2525 150 
L 2525 0 
L 700 0 
L 700 150 
L 925 150 
Q 1175 150 1287 250 
Q 1400 350 1400 550 
L 1400 3575 
Q 1400 3675 1337 3737 
Q 1275 3800 1150 3800 
L 700 3800 
L 700 3950 
L 925 3950 
Q 1225 3950 1412 4050 
Q 1600 4150 1700 4350 
L 1800 4350 
z
" transform="scale(0.015625)"/>
       </defs>
       <use xlink:href="#FangSong-31"/>
       <use xlink:href="#FangSong-30" x="50"/>
      </g>
     </g>
    </g>
    <g id="xtick_3">
     <g id="line2d_3">
      <g>
       <use xlink:href="#m1168f31524" x="171.126676" y="307.584" style="stroke: #000000; stroke-width: 0.8"/>
      </g>
     </g>
     <g id="text_3">
      <!-- 20 -->
      <g transform="translate(166.126676 321.576187) scale(0.1 -0.1)">
       <defs>
        <path id="FangSong-32" d="M 2300 3225 
Q 2300 3675 2100 3912 
Q 1900 4150 1500 4150 
Q 1200 4150 987 3987 
Q 775 3825 775 3575 
Q 775 3425 862 3325 
Q 950 3225 950 3125 
Q 950 3000 887 2937 
Q 825 2875 700 2875 
Q 550 2875 462 2962 
Q 375 3050 375 3250 
Q 375 3775 750 4050 
Q 1125 4325 1550 4325 
Q 2150 4325 2437 4025 
Q 2725 3725 2725 3275 
Q 2725 2975 2587 2675 
Q 2450 2375 2150 2100 
Q 1425 1400 1037 962 
Q 650 525 575 375 
L 2050 375 
Q 2275 375 2425 550 
Q 2575 725 2625 1075 
L 2775 1075 
L 2625 0 
L 300 0 
L 300 325 
Q 425 550 712 900 
Q 1000 1250 1475 1725 
Q 1900 2150 2100 2525 
Q 2300 2900 2300 3225 
z
" transform="scale(0.015625)"/>
       </defs>
       <use xlink:href="#FangSong-32"/>
       <use xlink:href="#FangSong-30" x="50"/>
      </g>
     </g>
    </g>
    <g id="xtick_4">
     <g id="line2d_4">
      <g>
       <use xlink:href="#m1168f31524" x="222.334018" y="307.584" style="stroke: #000000; stroke-width: 0.8"/>
      </g>
     </g>
     <g id="text_4">
      <!-- 30 -->
      <g transform="translate(217.334018 321.576187) scale(0.1 -0.1)">
       <defs>
        <path id="FangSong-33" d="M 2775 1150 
Q 2775 675 2425 312 
Q 2075 -50 1450 -50 
Q 1000 -50 675 200 
Q 350 450 350 775 
Q 350 925 450 1037 
Q 550 1150 650 1150 
Q 800 1150 862 1037 
Q 925 925 925 850 
Q 925 725 875 637 
Q 825 550 825 475 
Q 825 325 1012 225 
Q 1200 125 1425 125 
Q 1875 125 2100 387 
Q 2325 650 2325 1200 
Q 2325 1650 2087 1925 
Q 1850 2200 1200 2200 
L 1200 2375 
Q 1700 2375 1937 2612 
Q 2175 2850 2175 3275 
Q 2175 3625 1987 3887 
Q 1800 4150 1400 4150 
Q 1225 4150 1025 4062 
Q 825 3975 825 3775 
Q 825 3575 875 3525 
Q 925 3475 925 3400 
Q 925 3275 875 3200 
Q 825 3125 700 3125 
Q 600 3125 512 3200 
Q 425 3275 425 3475 
Q 425 3850 750 4087 
Q 1075 4325 1500 4325 
Q 2000 4325 2300 4012 
Q 2600 3700 2600 3350 
Q 2600 2975 2412 2712 
Q 2225 2450 1825 2325 
Q 2375 2125 2575 1800 
Q 2775 1475 2775 1150 
z
" transform="scale(0.015625)"/>
       </defs>
       <use xlink:href="#FangSong-33"/>
       <use xlink:href="#FangSong-30" x="50"/>
      </g>
     </g>
    </g>
    <g id="xtick_5">
     <g id="line2d_5">
      <g>
       <use xlink:href="#m1168f31524" x="273.541359" y="307.584" style="stroke: #000000; stroke-width: 0.8"/>
      </g>
     </g>
     <g id="text_5">
      <!-- 40 -->
      <g transform="translate(268.541359 321.576187) scale(0.1 -0.1)">
       <defs>
        <path id="FangSong-34" d="M 2275 475 
Q 2275 300 2375 225 
Q 2475 150 2650 150 
L 2875 150 
L 2875 0 
L 1225 0 
L 1225 150 
L 1500 150 
Q 1700 150 1787 225 
Q 1875 300 1875 475 
L 1875 1300 
L 200 1300 
L 200 1425 
L 2025 4325 
L 2275 4325 
L 2275 1450 
L 2950 1450 
L 2950 1300 
L 2275 1300 
L 2275 475 
z
M 1850 3700 
L 425 1450 
L 1875 1450 
L 1875 3700 
L 1850 3700 
z
" transform="scale(0.015625)"/>
       </defs>
       <use xlink:href="#FangSong-34"/>
       <use xlink:href="#FangSong-30" x="50"/>
      </g>
     </g>
    </g>
    <g id="xtick_6">
     <g id="line2d_6">
      <g>
       <use xlink:href="#m1168f31524" x="324.748701" y="307.584" style="stroke: #000000; stroke-width: 0.8"/>
      </g>
     </g>
     <g id="text_6">
      <!-- 50 -->
      <g transform="translate(319.748701 321.576187) scale(0.1 -0.1)">
       <defs>
        <path id="FangSong-35" d="M 1700 2750 
Q 2175 2750 2475 2387 
Q 2775 2025 2775 1425 
Q 2775 750 2462 350 
Q 2150 -50 1500 -50 
Q 1050 -50 700 212 
Q 350 475 350 850 
Q 350 1000 437 1112 
Q 525 1225 675 1225 
Q 825 1225 875 1125 
Q 925 1025 925 950 
Q 925 800 850 712 
Q 775 625 775 525 
Q 775 325 1012 225 
Q 1250 125 1525 125 
Q 1925 125 2137 450 
Q 2350 775 2350 1375 
Q 2350 1875 2162 2187 
Q 1975 2500 1600 2500 
Q 1325 2500 1125 2400 
Q 925 2300 750 1975 
L 525 2000 
L 650 4275 
L 2700 4275 
L 2625 3900 
L 825 3900 
L 725 2250 
Q 975 2600 1212 2675 
Q 1450 2750 1700 2750 
z
" transform="scale(0.015625)"/>
       </defs>
       <use xlink:href="#FangSong-35"/>
       <use xlink:href="#FangSong-30" x="50"/>
      </g>
     </g>
    </g>
    <g id="xtick_7">
     <g id="line2d_7">
      <g>
       <use xlink:href="#m1168f31524" x="375.956042" y="307.584" style="stroke: #000000; stroke-width: 0.8"/>
      </g>
     </g>
     <g id="text_7">
      <!-- 60 -->
      <g transform="translate(370.956042 321.576187) scale(0.1 -0.1)">
       <defs>
        <path id="FangSong-36" d="M 750 1700 
Q 750 950 1012 537 
Q 1275 125 1650 125 
Q 2025 125 2225 400 
Q 2425 675 2425 1425 
Q 2425 1925 2212 2200 
Q 2000 2475 1700 2475 
Q 1425 2475 1187 2312 
Q 950 2150 750 1700 
z
M 1725 2725 
Q 2325 2725 2587 2325 
Q 2850 1925 2850 1425 
Q 2850 675 2487 312 
Q 2125 -50 1650 -50 
Q 975 -50 625 462 
Q 275 975 275 1950 
Q 275 3100 700 3712 
Q 1125 4325 1850 4325 
Q 2200 4325 2412 4125 
Q 2625 3925 2625 3775 
Q 2625 3625 2562 3550 
Q 2500 3475 2350 3475 
Q 2225 3475 2162 3537 
Q 2100 3600 2100 3725 
Q 2100 3775 2112 3825 
Q 2125 3875 2125 3925 
Q 2125 4025 2050 4087 
Q 1975 4150 1775 4150 
Q 1350 4150 1050 3762 
Q 750 3375 750 2075 
Q 900 2400 1162 2562 
Q 1425 2725 1725 2725 
z
" transform="scale(0.015625)"/>
       </defs>
       <use xlink:href="#FangSong-36"/>
       <use xlink:href="#FangSong-30" x="50"/>
      </g>
     </g>
    </g>
    <g id="text_8">
     <!-- Latency -->
     <g transform="translate(218.66 333.974625) scale(0.1 -0.1)">
      <defs>
       <path id="FangSong-4c" d="M 975 350 
Q 975 250 1037 200 
Q 1100 150 1200 150 
L 1875 150 
Q 2225 150 2475 362 
Q 2725 575 2850 1025 
L 2975 975 
L 2750 0 
L 175 0 
L 175 150 
L 350 150 
Q 475 150 525 200 
Q 575 250 575 350 
L 575 3925 
Q 575 4025 525 4075 
Q 475 4125 350 4125 
L 200 4125 
L 200 4275 
L 1375 4275 
L 1375 4125 
L 1200 4125 
Q 1100 4125 1037 4075 
Q 975 4025 975 3925 
L 975 350 
z
" transform="scale(0.015625)"/>
       <path id="FangSong-61" d="M 1200 -25 
Q 750 -25 500 187 
Q 250 400 250 675 
Q 250 1125 637 1412 
Q 1025 1700 2175 1825 
L 2175 2125 
Q 2175 2375 2062 2537 
Q 1950 2700 1550 2700 
Q 1125 2700 950 2562 
Q 775 2425 825 2275 
Q 875 2175 825 2075 
Q 775 1975 625 1975 
Q 525 1975 462 2037 
Q 400 2100 400 2225 
Q 400 2450 725 2650 
Q 1050 2850 1525 2850 
Q 2025 2850 2275 2662 
Q 2525 2475 2525 2125 
L 2525 475 
Q 2525 275 2562 237 
Q 2600 200 2700 200 
Q 2825 200 2875 312 
Q 2925 425 2925 625 
L 3050 625 
Q 3050 275 2925 137 
Q 2800 0 2600 0 
Q 2425 0 2325 75 
Q 2225 150 2175 325 
Q 1925 150 1712 62 
Q 1500 -25 1200 -25 
z
M 675 750 
Q 675 525 812 337 
Q 950 150 1250 150 
Q 1475 150 1700 237 
Q 1925 325 2175 500 
L 2175 1675 
Q 1325 1575 1000 1337 
Q 675 1100 675 750 
z
" transform="scale(0.015625)"/>
       <path id="FangSong-74" d="M 1475 800 
Q 1475 450 1600 325 
Q 1725 200 1975 200 
Q 2225 200 2375 362 
Q 2525 525 2575 825 
L 2700 775 
Q 2650 425 2437 200 
Q 2225 -25 1875 -25 
Q 1500 -25 1312 200 
Q 1125 425 1125 900 
L 1125 2650 
L 375 2650 
L 375 2800 
L 575 2800 
Q 875 2800 1062 2987 
Q 1250 3175 1300 3575 
L 1325 3775 
L 1475 3775 
L 1475 2800 
L 2475 2800 
L 2475 2650 
L 1475 2650 
L 1475 800 
z
" transform="scale(0.015625)"/>
       <path id="FangSong-65" d="M 2375 1550 
Q 2400 2100 2187 2387 
Q 1975 2675 1625 2675 
Q 1250 2675 1012 2375 
Q 775 2075 775 1550 
L 2375 1550 
z
M 775 1400 
Q 775 725 1037 437 
Q 1300 150 1725 150 
Q 2050 150 2275 337 
Q 2500 525 2600 800 
L 2725 750 
Q 2650 475 2387 212 
Q 2125 -50 1675 -50 
Q 1100 -50 737 325 
Q 375 700 375 1400 
Q 375 2025 737 2437 
Q 1100 2850 1625 2850 
Q 2100 2850 2450 2525 
Q 2800 2200 2800 1400 
L 775 1400 
z
" transform="scale(0.015625)"/>
       <path id="FangSong-6e" d="M 175 0 
L 175 150 
L 300 150 
Q 425 150 475 200 
Q 525 250 525 350 
L 525 2500 
Q 525 2575 500 2612 
Q 475 2650 400 2650 
L 200 2650 
L 200 2800 
L 375 2800 
Q 500 2800 612 2825 
Q 725 2850 825 2925 
L 875 2925 
L 875 2350 
Q 1100 2600 1325 2725 
Q 1550 2850 1800 2850 
Q 2225 2850 2425 2625 
Q 2625 2400 2625 1950 
L 2625 350 
Q 2625 250 2687 200 
Q 2750 150 2850 150 
L 2975 150 
L 2975 0 
L 1925 0 
L 1925 150 
L 2050 150 
Q 2175 150 2225 200 
Q 2275 250 2275 350 
L 2275 2025 
Q 2275 2325 2150 2487 
Q 2025 2650 1775 2650 
Q 1550 2650 1312 2500 
Q 1075 2350 875 2075 
L 875 350 
Q 875 250 937 200 
Q 1000 150 1100 150 
L 1225 150 
L 1225 0 
L 175 0 
z
" transform="scale(0.015625)"/>
       <path id="FangSong-63" d="M 2125 2125 
Q 2125 2200 2137 2225 
Q 2150 2250 2175 2325 
Q 2200 2425 2075 2562 
Q 1950 2700 1650 2700 
Q 1275 2700 1012 2337 
Q 750 1975 750 1375 
Q 750 825 975 487 
Q 1200 150 1725 150 
Q 2075 150 2312 375 
Q 2550 600 2650 900 
L 2775 850 
Q 2675 475 2400 212 
Q 2125 -50 1650 -50 
Q 1050 -50 700 325 
Q 350 700 350 1400 
Q 350 2025 725 2437 
Q 1100 2850 1700 2850 
Q 2125 2850 2362 2625 
Q 2600 2400 2600 2175 
Q 2600 2025 2537 1962 
Q 2475 1900 2350 1900 
Q 2250 1900 2187 1962 
Q 2125 2025 2125 2125 
z
" transform="scale(0.015625)"/>
       <path id="FangSong-79" d="M 1625 700 
L 1675 700 
L 2225 2375 
Q 2275 2500 2212 2575 
Q 2150 2650 2050 2650 
L 1900 2650 
L 1900 2800 
L 2950 2800 
L 2950 2650 
L 2800 2650 
Q 2700 2650 2600 2575 
Q 2500 2500 2450 2375 
L 1600 -100 
Q 1475 -500 1287 -712 
Q 1100 -925 800 -950 
Q 650 -950 537 -875 
Q 425 -800 425 -675 
Q 425 -575 487 -500 
Q 550 -425 675 -425 
Q 775 -425 837 -525 
Q 900 -625 1050 -587 
Q 1200 -550 1250 -425 
Q 1300 -350 1375 -162 
Q 1450 25 1500 225 
L 650 2425 
Q 625 2525 537 2587 
Q 450 2650 350 2650 
L 250 2650 
L 250 2800 
L 1300 2800 
L 1300 2650 
L 1200 2650 
Q 1100 2650 1050 2587 
Q 1000 2525 1025 2400 
L 1625 700 
z
" transform="scale(0.015625)"/>
      </defs>
      <use xlink:href="#FangSong-4c"/>
      <use xlink:href="#FangSong-61" x="50"/>
      <use xlink:href="#FangSong-74" x="100"/>
      <use xlink:href="#FangSong-65" x="150"/>
      <use xlink:href="#FangSong-6e" x="200"/>
      <use xlink:href="#FangSong-63" x="250"/>
      <use xlink:href="#FangSong-79" x="300"/>
     </g>
    </g>
   </g>
   <g id="matplotlib.axis_2">
    <g id="ytick_1">
     <g id="line2d_8">
      <defs>
       <path id="m7a55e4c156" d="M 0 0 
L -3.5 0 
" style="stroke: #000000; stroke-width: 0.8"/>
      </defs>
      <g>
       <use xlink:href="#m7a55e4c156" x="57.6" y="295.488" style="stroke: #000000; stroke-width: 0.8"/>
      </g>
     </g>
     <g id="text_9">
      <!-- 0% -->
      <g transform="translate(40.6 298.984094) scale(0.1 -0.1)">
       <defs>
        <path id="FangSong-25" d="M 725 4150 
Q 575 4150 475 3950 
Q 375 3750 375 3200 
Q 375 2575 487 2387 
Q 600 2200 725 2200 
Q 900 2200 987 2425 
Q 1075 2650 1075 3200 
Q 1075 3650 1012 3900 
Q 950 4150 725 4150 
z
M 1400 3175 
Q 1400 2725 1250 2387 
Q 1100 2050 725 2050 
Q 425 2050 237 2350 
Q 50 2650 50 3175 
Q 50 3725 250 4025 
Q 450 4325 725 4325 
Q 1025 4325 1212 4012 
Q 1400 3700 1400 3175 
z
M 2700 1100 
Q 2700 1525 2625 1800 
Q 2550 2075 2350 2075 
Q 2200 2075 2100 1837 
Q 2000 1600 2000 1100 
Q 2000 475 2112 300 
Q 2225 125 2350 125 
Q 2525 125 2612 337 
Q 2700 550 2700 1100 
z
M 3025 1075 
Q 3025 575 2850 262 
Q 2675 -50 2350 -50 
Q 2075 -50 1875 262 
Q 1675 575 1675 1075 
Q 1675 1625 1875 1937 
Q 2075 2250 2350 2250 
Q 2650 2250 2837 1925 
Q 3025 1600 3025 1075 
z
M 2500 4250 
L 700 -50 
L 550 25 
L 2325 4325 
L 2500 4250 
z
" transform="scale(0.015625)"/>
       </defs>
       <use xlink:href="#FangSong-30"/>
       <use xlink:href="#FangSong-25" x="50"/>
      </g>
     </g>
    </g>
    <g id="ytick_2">
     <g id="line2d_9">
      <g>
       <use xlink:href="#m7a55e4c156" x="57.6" y="247.104" style="stroke: #000000; stroke-width: 0.8"/>
      </g>
     </g>
     <g id="text_10">
      <!-- 20% -->
      <g transform="translate(35.6 250.600094) scale(0.1 -0.1)">
       <use xlink:href="#FangSong-32"/>
       <use xlink:href="#FangSong-30" x="50"/>
       <use xlink:href="#FangSong-25" x="100"/>
      </g>
     </g>
    </g>
    <g id="ytick_3">
     <g id="line2d_10">
      <g>
       <use xlink:href="#m7a55e4c156" x="57.6" y="198.72" style="stroke: #000000; stroke-width: 0.8"/>
      </g>
     </g>
     <g id="text_11">
      <!-- 40% -->
      <g transform="translate(35.6 202.216094) scale(0.1 -0.1)">
       <use xlink:href="#FangSong-34"/>
       <use xlink:href="#FangSong-30" x="50"/>
       <use xlink:href="#FangSong-25" x="100"/>
      </g>
     </g>
    </g>
    <g id="ytick_4">
     <g id="line2d_11">
      <g>
       <use xlink:href="#m7a55e4c156" x="57.6" y="150.336" style="stroke: #000000; stroke-width: 0.8"/>
      </g>
     </g>
     <g id="text_12">
      <!-- 60% -->
      <g transform="translate(35.6 153.832094) scale(0.1 -0.1)">
       <use xlink:href="#FangSong-36"/>
       <use xlink:href="#FangSong-30" x="50"/>
       <use xlink:href="#FangSong-25" x="100"/>
      </g>
     </g>
    </g>
    <g id="ytick_5">
     <g id="line2d_12">
      <g>
       <use xlink:href="#m7a55e4c156" x="57.6" y="101.952" style="stroke: #000000; stroke-width: 0.8"/>
      </g>
     </g>
     <g id="text_13">
      <!-- 80% -->
      <g transform="translate(35.6 105.448094) scale(0.1 -0.1)">
       <defs>
        <path id="FangSong-38" d="M 600 1025 
Q 600 625 862 375 
Q 1125 125 1525 125 
Q 2000 125 2212 375 
Q 2425 625 2425 1000 
Q 2425 1325 2125 1625 
Q 1825 1925 1225 2175 
Q 925 1975 762 1675 
Q 600 1375 600 1025 
z
M 2800 1075 
Q 2800 600 2450 275 
Q 2100 -50 1525 -50 
Q 1000 -50 625 275 
Q 250 600 250 1025 
Q 250 1450 462 1750 
Q 675 2050 1075 2275 
Q 725 2450 537 2712 
Q 350 2975 350 3300 
Q 350 3725 675 4025 
Q 1000 4325 1575 4325 
Q 2100 4325 2425 4025 
Q 2750 3725 2750 3300 
Q 2750 3000 2562 2737 
Q 2375 2475 1975 2275 
Q 2400 2025 2600 1725 
Q 2800 1425 2800 1075 
z
M 2400 3275 
Q 2400 3625 2200 3887 
Q 2000 4150 1575 4150 
Q 1100 4150 900 3900 
Q 700 3650 700 3375 
Q 700 3100 987 2837 
Q 1275 2575 1800 2375 
Q 2100 2525 2250 2750 
Q 2400 2975 2400 3275 
z
" transform="scale(0.015625)"/>
       </defs>
       <use xlink:href="#FangSong-38"/>
       <use xlink:href="#FangSong-30" x="50"/>
       <use xlink:href="#FangSong-25" x="100"/>
      </g>
     </g>
    </g>
    <g id="ytick_6">
     <g id="line2d_13">
      <g>
       <use xlink:href="#m7a55e4c156" x="57.6" y="53.568" style="stroke: #000000; stroke-width: 0.8"/>
      </g>
     </g>
     <g id="text_14">
      <!-- 100% -->
      <g transform="translate(30.6 57.064094) scale(0.1 -0.1)">
       <use xlink:href="#FangSong-31"/>
       <use xlink:href="#FangSong-30" x="50"/>
       <use xlink:href="#FangSong-30" x="100"/>
       <use xlink:href="#FangSong-25" x="150"/>
      </g>
     </g>
    </g>
    <g id="text_15">
     <!-- 累计完成比例 -->
     <g transform="translate(25.154688 204.528) rotate(-90) scale(0.1 -0.1)">
      <defs>
       <path id="FangSong-7d2f" d="M 4525 4975 
L 4700 5225 
L 5000 4950 
L 4825 4775 
L 4625 3550 
L 4850 3300 
L 3175 3150 
L 3375 2975 
Q 3200 2925 2862 2725 
Q 2525 2525 2075 2275 
L 3475 2500 
Q 3750 2675 3900 2800 
Q 4050 2925 4100 3075 
L 4175 3100 
L 4325 2700 
Q 4200 2675 3500 2237 
Q 2800 1800 2275 1550 
L 4375 1825 
L 3900 2175 
L 4000 2275 
Q 4625 1900 4950 1725 
Q 4975 1475 4925 1225 
Q 4800 1375 4500 1675 
L 3250 1475 
L 3525 1300 
Q 3375 1200 3375 875 
L 3375 25 
Q 3375 -325 3225 -625 
Q 2975 -325 2400 150 
L 2450 250 
L 3050 -75 
Q 3150 -125 3150 0 
L 3150 925 
Q 3150 1300 3125 1450 
Q 1875 1275 1575 1175 
L 1325 1425 
L 1850 1550 
Q 2175 1700 3250 2300 
Q 2075 2100 1875 2000 
L 1575 2250 
L 1800 2300 
Q 2150 2475 3025 3125 
L 2000 3025 
Q 2000 2675 1950 2700 
Q 1900 2725 1650 3025 
Q 1725 3250 1725 3425 
L 1650 4400 
Q 1625 4675 1525 4950 
L 1625 5000 
L 1875 4675 
L 4525 4975 
z
M 3150 3375 
L 3150 3875 
Q 2525 3800 2400 3725 
L 2100 3975 
Q 2500 3975 3150 4075 
L 3150 4600 
L 1900 4450 
L 1975 3250 
L 3150 3375 
z
M 3375 4100 
Q 3950 4175 4025 4225 
L 4275 4000 
Q 3950 3975 3375 3900 
L 3375 3400 
L 4400 3500 
L 4575 4750 
L 3375 4600 
L 3375 4100 
z
M 5450 -75 
Q 4975 325 3875 1025 
L 3950 1125 
Q 4850 700 5350 500 
Q 5425 250 5450 -75 
z
M 800 -250 
Q 1350 75 1825 500 
Q 2300 925 2325 1125 
L 2400 1150 
L 2550 725 
Q 2425 700 2075 425 
Q 1725 150 875 -350 
L 800 -250 
z
" transform="scale(0.015625)"/>
       <path id="FangSong-8ba1" d="M 4075 4200 
Q 4100 4825 3900 5100 
L 3975 5150 
L 4450 4725 
Q 4275 4600 4300 4200 
L 4275 3000 
Q 5525 3200 5575 3250 
L 5950 2950 
Q 5725 2975 4275 2800 
L 4250 -425 
Q 4250 -700 4150 -575 
L 3875 -150 
Q 4050 50 4025 300 
L 4050 2750 
Q 2975 2625 2900 2575 
L 2525 2825 
Q 2850 2825 4050 2975 
L 4075 4200 
z
M 1775 3250 
L 2100 2950 
L 1900 2750 
L 1875 550 
L 2825 1250 
L 2875 1175 
Q 1875 250 1750 -25 
L 1525 275 
Q 1625 375 1650 625 
L 1675 2775 
Q 900 2625 750 2550 
L 425 2800 
Q 850 2825 1650 3000 
L 1775 3250 
z
M 2025 3800 
Q 1825 4300 1325 4950 
L 1375 5025 
Q 1925 4575 2175 4300 
Q 2125 4000 2025 3800 
z
" transform="scale(0.015625)"/>
       <path id="FangSong-5b8c" d="M 5375 2050 
Q 4925 2050 3550 1950 
L 3850 1750 
Q 3725 1600 3700 1375 
L 3675 275 
Q 3650 -125 4075 -175 
L 4925 -175 
Q 5300 -150 5312 62 
Q 5325 275 5325 1025 
L 5425 1025 
Q 5450 750 5475 337 
Q 5500 -75 5700 -275 
Q 5400 -375 5000 -400 
L 4075 -400 
Q 3425 -350 3425 150 
L 3475 1450 
Q 3475 1775 3425 1925 
L 2675 1850 
L 2875 1650 
Q 2750 1550 2600 1200 
Q 2450 850 2025 312 
Q 1600 -225 600 -675 
L 550 -575 
Q 1525 -100 1987 625 
Q 2450 1350 2525 1850 
Q 1550 1775 1500 1725 
L 1150 2025 
Q 1625 2025 3212 2150 
Q 4800 2275 5000 2350 
L 5375 2050 
z
M 1650 3650 
Q 1550 3125 1325 2875 
L 1150 3250 
Q 1450 3425 1575 4400 
L 1675 4400 
L 1675 3900 
L 5025 4150 
L 5175 4400 
L 5525 4075 
Q 5375 4050 4725 3250 
L 4650 3325 
L 4975 3900 
L 1650 3650 
z
M 4475 2975 
Q 4225 2975 3412 2875 
Q 2600 2775 2400 2725 
L 2050 2975 
Q 2575 2975 3200 3075 
Q 3825 3175 4150 3225 
L 4475 2975 
z
M 3550 4575 
Q 3475 4350 3300 4150 
Q 3225 4475 2900 5200 
L 2975 5250 
Q 3350 4825 3550 4575 
z
" transform="scale(0.015625)"/>
       <path id="FangSong-6210" d="M 5575 975 
Q 5600 -150 5750 -625 
Q 4650 -225 4000 1075 
Q 3625 650 2975 225 
L 2925 325 
Q 3525 825 3900 1300 
Q 3600 2275 3500 3300 
L 1875 3125 
Q 1875 2625 1825 2100 
L 2725 2250 
L 2875 2475 
L 3175 2225 
L 3000 2050 
Q 2850 475 2575 -125 
Q 2225 400 1825 775 
L 1875 850 
L 2475 400 
Q 2650 875 2750 2000 
L 1825 1850 
Q 1675 250 600 -650 
L 525 -600 
Q 1250 250 1425 987 
Q 1600 1725 1625 2612 
Q 1650 3500 1550 3800 
L 1625 3825 
L 1850 3350 
L 3450 3525 
Q 3400 4150 3375 4562 
Q 3350 4975 3225 5200 
L 3275 5225 
L 3725 4900 
Q 3625 4925 3637 4575 
Q 3650 4225 3675 3550 
Q 4900 3700 5050 3775 
L 5325 3475 
Q 4775 3475 3725 3325 
Q 3775 2425 4075 1525 
Q 4500 2025 4687 2325 
Q 4875 2625 4800 2850 
L 4875 2875 
L 5125 2325 
Q 5075 2400 4850 2125 
Q 4625 1850 4150 1275 
Q 4625 225 5425 -125 
L 5475 975 
L 5575 975 
z
M 4100 5000 
Q 4525 4700 4875 4450 
Q 4825 4250 4750 4025 
Q 4400 4525 4025 4950 
L 4100 5000 
z
" transform="scale(0.015625)"/>
       <path id="FangSong-6bd4" d="M 3500 2125 
Q 3925 2425 4487 2975 
Q 5050 3525 4950 3750 
L 5025 3775 
L 5250 3225 
Q 5175 3250 4875 3000 
Q 4575 2750 4287 2525 
Q 4000 2300 3500 1900 
L 3500 575 
Q 3475 -100 4150 -100 
L 4800 -100 
Q 5275 -100 5375 12 
Q 5475 125 5450 1350 
L 5575 1350 
Q 5600 825 5637 412 
Q 5675 0 5800 -175 
Q 5375 -325 4800 -325 
L 4150 -325 
Q 3225 -350 3275 550 
L 3275 4300 
Q 3275 4875 3150 5150 
L 3200 5200 
L 3625 4850 
Q 3475 4825 3500 4250 
L 3500 2125 
z
M 1500 2575 
Q 1900 2625 2337 2712 
Q 2775 2800 2800 2850 
L 3075 2600 
Q 2875 2575 2350 2475 
Q 1825 2375 1775 2325 
L 1500 2525 
L 1500 150 
L 2925 1075 
L 2975 1025 
Q 1550 -75 1375 -350 
L 1200 0 
Q 1275 75 1275 350 
L 1275 3925 
Q 1275 4475 1150 4750 
L 1200 4800 
L 1625 4400 
Q 1475 4375 1500 3925 
L 1500 2575 
z
" transform="scale(0.015625)"/>
       <path id="FangSong-4f8b" d="M 3050 2000 
Q 3025 1800 2975 1600 
Q 2775 1900 2525 2250 
Q 2300 1875 2025 1550 
L 1925 1625 
Q 2675 2725 2975 3975 
Q 2475 3925 2375 3875 
L 2050 4125 
Q 2375 4125 3162 4225 
Q 3950 4325 4100 4450 
L 4350 4125 
Q 4050 4150 3100 3975 
L 3300 3700 
Q 3200 3675 3125 3525 
Q 3050 3375 2925 3050 
L 3625 3150 
L 3775 3350 
L 4050 3075 
L 3875 2900 
Q 3300 825 1850 -225 
L 1800 -100 
Q 3100 975 3625 2900 
Q 3150 2825 3025 2775 
L 2875 2925 
Q 2775 2675 2575 2350 
Q 2900 2125 3050 2000 
z
M 1275 -150 
Q 1425 25 1400 225 
L 1450 3425 
Q 1025 2800 475 2225 
L 400 2325 
Q 875 2850 1450 3887 
Q 2025 4925 1925 5150 
L 2000 5175 
L 2250 4700 
Q 2200 4725 2062 4475 
Q 1925 4225 1675 3800 
L 1625 -325 
Q 1650 -675 1525 -600 
L 1275 -150 
z
M 5475 250 
Q 5475 -300 5300 -650 
Q 4900 -100 4300 375 
L 4350 475 
L 5200 -75 
Q 5250 250 5250 575 
L 5250 4350 
Q 5275 4950 5100 5150 
L 5175 5225 
L 5600 4850 
Q 5450 4775 5475 4325 
L 5475 250 
z
M 4300 1525 
Q 4400 1650 4400 1900 
L 4400 3075 
Q 4425 3525 4300 3750 
L 4350 3800 
L 4725 3450 
Q 4600 3350 4625 3025 
L 4625 1375 
Q 4625 1050 4550 1125 
L 4300 1525 
z
" transform="scale(0.015625)"/>
      </defs>
      <use xlink:href="#FangSong-7d2f"/>
      <use xlink:href="#FangSong-8ba1" x="100"/>
      <use xlink:href="#FangSong-5b8c" x="200"/>
      <use xlink:href="#FangSong-6210" x="300"/>
      <use xlink:href="#FangSong-6bd4" x="400"/>
      <use xlink:href="#FangSong-4f8b" x="500"/>
     </g>
    </g>
   </g>
   <g id="line2d_14">
    <path d="M 73.832727 295.488 
L 74.344801 164.12544 
L 74.856874 164.12544 
L 75.368948 163.6416 
L 76.393094 163.15776 
L 77.417241 162.19008 
L 77.929315 162.19008 
L 78.441388 161.70624 
L 80.489682 161.70624 
L 82.025902 160.98048 
L 83.050049 160.98048 
L 83.562122 160.0128 
L 84.586269 159.04512 
L 85.098342 158.31936 
L 85.610416 158.07744 
L 86.122489 157.5936 
L 86.634563 156.86784 
L 87.146636 156.62592 
L 87.658709 156.14208 
L 88.170783 155.41632 
L 88.682856 154.93248 
L 89.19493 154.69056 
L 89.707003 154.20672 
L 90.219077 153.48096 
L 91.755297 152.02944 
L 92.26737 151.30368 
L 92.779444 150.81984 
L 93.291517 150.09408 
L 93.80359 149.1264 
L 94.315664 149.1264 
L 95.339811 148.64256 
L 95.851884 148.15872 
L 96.876031 148.15872 
L 97.388104 147.43296 
L 97.900178 146.22336 
L 98.412251 145.98144 
L 98.924325 145.25568 
L 99.436398 144.288 
L 100.460545 143.80416 
L 101.484692 142.83648 
L 101.996765 142.83648 
L 102.508839 142.59456 
L 103.532985 141.14304 
L 104.045059 140.6592 
L 104.557132 140.41728 
L 105.069206 139.69152 
L 105.581279 139.4496 
L 106.093352 138.96576 
L 106.605426 137.75616 
L 107.117499 137.0304 
L 107.629573 136.54656 
L 108.141646 135.8208 
L 108.65372 135.8208 
L 109.677866 135.33696 
L 110.18994 134.85312 
L 110.702013 134.85312 
L 111.214087 133.4016 
L 111.72616 132.67584 
L 112.750307 131.70816 
L 113.26238 131.46624 
L 113.774454 130.9824 
L 114.286527 129.7728 
L 114.798601 129.28896 
L 115.310674 129.28896 
L 115.822747 128.80512 
L 116.334821 128.5632 
L 116.846894 128.07936 
L 117.871041 128.07936 
L 118.383114 127.83744 
L 118.895188 127.83744 
L 119.407261 127.59552 
L 120.431408 126.144 
L 121.455555 125.66016 
L 121.967628 125.17632 
L 122.991775 124.69248 
L 124.527995 124.69248 
L 125.040069 123.7248 
L 125.552142 123.24096 
L 126.576289 122.75712 
L 127.088362 121.78944 
L 127.600436 121.78944 
L 128.112509 121.3056 
L 129.64873 121.3056 
L 130.160803 121.06368 
L 130.672876 121.06368 
L 131.18495 119.85408 
L 131.697023 119.61216 
L 132.209097 119.61216 
L 132.72117 119.12832 
L 133.745317 118.64448 
L 134.25739 118.64448 
L 134.769464 118.40256 
L 135.281537 118.40256 
L 135.793611 117.43488 
L 136.305684 117.19296 
L 136.817757 116.70912 
L 137.329831 116.70912 
L 137.841904 116.22528 
L 138.353978 115.98336 
L 138.866051 115.98336 
L 140.402271 115.2576 
L 140.914345 114.77376 
L 141.938492 114.77376 
L 142.450565 114.53184 
L 142.962638 114.048 
L 143.474712 113.80608 
L 145.010932 113.80608 
L 146.035079 112.8384 
L 147.571299 112.11264 
L 148.083373 111.6288 
L 148.595446 111.38688 
L 149.107519 110.90304 
L 149.619593 110.17728 
L 150.131666 109.93536 
L 150.64374 109.45152 
L 152.692033 109.45152 
L 154.228254 108.72576 
L 154.740327 108.24192 
L 155.2524 108.24192 
L 155.764474 108 
L 156.788621 108 
L 157.812767 107.03232 
L 158.324841 106.7904 
L 158.836914 106.7904 
L 159.861061 106.30656 
L 160.373134 105.82272 
L 161.397281 105.33888 
L 161.909355 104.61312 
L 162.421428 104.61312 
L 162.933502 104.3712 
L 163.445575 103.88736 
L 164.469722 103.40352 
L 164.981795 102.67776 
L 165.493869 102.43584 
L 166.005942 102.43584 
L 166.518015 102.19392 
L 167.542162 100.01664 
L 168.566309 99.04896 
L 169.078383 98.80704 
L 169.590456 98.08128 
L 170.102529 97.59744 
L 170.614603 97.59744 
L 171.126676 97.35552 
L 172.150823 96.38784 
L 173.17497 96.38784 
L 173.687043 95.904 
L 174.71119 95.904 
L 175.223264 95.66208 
L 175.735337 95.66208 
L 176.24741 95.17824 
L 176.759484 94.93632 
L 177.271557 94.93632 
L 177.783631 93.96864 
L 179.831924 93.96864 
L 180.343998 93.4848 
L 180.856071 93.24288 
L 181.368145 92.75904 
L 181.880218 92.51712 
L 182.392291 92.03328 
L 183.928512 92.03328 
L 184.440585 91.79136 
L 184.952658 91.79136 
L 185.976805 91.30752 
L 186.488879 90.82368 
L 187.513026 90.82368 
L 188.025099 90.33984 
L 189.561319 90.33984 
L 190.073393 90.09792 
L 190.585466 90.09792 
L 191.609613 89.61408 
L 192.121686 89.13024 
L 193.145833 89.13024 
L 193.657907 88.88832 
L 194.682053 88.88832 
L 195.194127 88.6464 
L 197.24242 88.6464 
L 198.266567 88.16256 
L 198.778641 88.16256 
L 199.802787 87.67872 
L 200.314861 87.67872 
L 200.826934 87.4368 
L 202.875228 87.4368 
L 203.899375 86.95296 
L 204.411448 86.46912 
L 204.923522 86.46912 
L 205.435595 85.98528 
L 205.947668 85.74336 
L 207.483889 85.74336 
L 209.020109 85.0176 
L 210.044256 85.0176 
L 210.556329 84.53376 
L 213.116696 84.53376 
L 213.62877 84.29184 
L 214.140843 83.56608 
L 214.652917 83.32416 
L 215.16499 83.32416 
L 215.677063 83.08224 
L 216.70121 83.08224 
L 217.725357 82.11456 
L 218.23743 82.11456 
L 218.749504 81.87264 
L 219.261577 81.87264 
L 219.773651 81.63072 
L 220.797798 81.63072 
L 221.309871 81.3888 
L 221.821944 80.90496 
L 222.846091 80.90496 
L 223.358165 80.66304 
L 224.382311 80.66304 
L 224.894385 80.1792 
L 225.918532 80.1792 
L 226.430605 79.69536 
L 226.942679 79.45344 
L 227.454752 79.45344 
L 227.966825 78.9696 
L 228.990972 78.9696 
L 231.551339 77.76 
L 232.575486 77.76 
L 233.599633 76.79232 
L 234.62378 76.79232 
L 235.135853 76.30848 
L 235.647927 76.06656 
L 237.184147 76.06656 
L 238.208294 75.58272 
L 239.23244 75.58272 
L 239.744514 75.09888 
L 240.256587 74.85696 
L 241.280734 74.85696 
L 241.792808 74.61504 
L 242.816954 74.61504 
L 243.329028 74.1312 
L 243.841101 74.1312 
L 245.377321 73.40544 
L 245.889395 72.67968 
L 246.913542 72.19584 
L 247.425615 71.712 
L 247.937689 71.712 
L 248.449762 71.47008 
L 248.961835 71.47008 
L 249.473909 70.98624 
L 249.985982 70.74432 
L 250.498056 70.74432 
L 251.010129 70.5024 
L 251.522202 70.01856 
L 252.546349 70.01856 
L 253.058423 69.77664 
L 254.594643 69.77664 
L 256.130863 69.05088 
L 256.642937 69.05088 
L 257.15501 68.80896 
L 257.667083 68.80896 
L 258.179157 68.56704 
L 259.715377 68.56704 
L 260.227451 68.32512 
L 260.739524 67.59936 
L 262.787818 67.59936 
L 263.299891 67.35744 
L 265.860258 67.35744 
L 266.372332 66.8736 
L 266.884405 66.8736 
L 267.396478 66.63168 
L 267.908552 66.63168 
L 268.420625 66.38976 
L 268.932699 66.38976 
L 269.956845 65.90592 
L 273.029286 65.90592 
L 273.541359 65.664 
L 274.053433 65.664 
L 274.565506 65.42208 
L 276.101726 65.42208 
L 276.6138 64.93824 
L 277.637947 64.93824 
L 278.15002 64.21248 
L 280.710387 64.21248 
L 281.222461 63.48672 
L 281.734534 63.2448 
L 282.758681 63.2448 
L 283.270754 63.00288 
L 283.782828 62.51904 
L 284.294901 62.27712 
L 286.343195 62.27712 
L 286.855268 61.79328 
L 287.367342 61.79328 
L 287.879415 61.55136 
L 290.439782 61.55136 
L 290.951855 61.30944 
L 291.976002 61.30944 
L 292.488076 61.06752 
L 297.096736 61.06752 
L 297.60881 60.34176 
L 298.120883 60.34176 
L 299.14503 59.37408 
L 300.68125 59.37408 
L 301.193324 58.89024 
L 301.705397 58.89024 
L 302.217471 58.64832 
L 304.777838 58.64832 
L 305.289911 58.4064 
L 307.850278 58.4064 
L 308.362352 57.92256 
L 310.922719 57.92256 
L 311.434792 57.68064 
L 311.946866 57.68064 
L 312.458939 57.43872 
L 316.555526 57.43872 
L 317.0676 56.95488 
L 325.260774 56.95488 
L 325.772848 56.71296 
L 335.502243 56.71296 
L 336.014316 56.47104 
L 336.526389 56.47104 
L 337.038463 55.9872 
L 337.550536 55.74528 
L 341.647124 55.74528 
L 342.159197 55.50336 
L 343.695417 55.50336 
L 344.207491 55.26144 
L 347.279931 55.26144 
L 347.792005 55.01952 
L 353.424812 55.01952 
L 354.448959 54.53568 
L 370.835308 54.53568 
L 371.347382 54.29376 
L 372.371529 54.29376 
L 372.883602 54.05184 
L 373.907749 54.05184 
L 374.419822 53.80992 
L 397.975199 53.80992 
L 398.487273 53.568 
L 398.487273 53.568 
" clip-path="url(#p29d360a028)" style="fill: none; stroke: #ff0000; stroke-linecap: square"/>
   </g>
   <g id="line2d_15">
    <path d="M 73.832727 295.488 
L 74.344801 175.148308 
L 76.393094 175.148308 
L 76.905168 173.907692 
L 81.513829 173.907692 
L 82.025902 172.667077 
L 83.050049 172.667077 
L 83.562122 170.185846 
L 87.658709 170.185846 
L 88.170783 168.945231 
L 90.219077 168.945231 
L 90.73115 167.704615 
L 91.755297 167.704615 
L 92.26737 165.223385 
L 92.779444 165.223385 
L 93.80359 162.742154 
L 96.876031 162.742154 
L 97.900178 160.260923 
L 98.412251 160.260923 
L 98.924325 157.779692 
L 99.436398 157.779692 
L 99.948471 156.539077 
L 100.972618 156.539077 
L 101.484692 155.298462 
L 101.996765 155.298462 
L 102.508839 154.057846 
L 103.020912 154.057846 
L 103.532985 152.817231 
L 106.605426 152.817231 
L 107.629573 150.336 
L 108.141646 147.854769 
L 109.677866 147.854769 
L 110.18994 146.614154 
L 119.919335 146.614154 
L 120.431408 145.373538 
L 121.455555 145.373538 
L 121.967628 144.132923 
L 125.040069 144.132923 
L 126.064216 141.651692 
L 126.576289 141.651692 
L 127.088362 139.170462 
L 130.672876 139.170462 
L 131.18495 136.689231 
L 131.697023 135.448615 
L 132.72117 135.448615 
L 133.233243 134.208 
L 138.866051 134.208 
L 139.378124 132.967385 
L 139.890198 132.967385 
L 140.914345 130.486154 
L 142.450565 130.486154 
L 142.962638 129.245538 
L 147.571299 129.245538 
L 149.107519 125.523692 
L 153.71618 125.523692 
L 154.740327 123.042462 
L 156.788621 123.042462 
L 157.300694 121.801846 
L 163.445575 121.801846 
L 163.957648 120.561231 
L 166.005942 120.561231 
L 166.518015 119.320615 
L 167.030089 115.598769 
L 168.566309 115.598769 
L 169.078383 114.358154 
L 169.590456 111.876923 
L 170.102529 110.636308 
L 171.126676 110.636308 
L 171.63875 109.395692 
L 175.735337 109.395692 
L 176.24741 108.155077 
L 177.271557 108.155077 
L 177.783631 106.914462 
L 179.831924 106.914462 
L 180.856071 104.433231 
L 181.880218 104.433231 
L 182.392291 103.192615 
L 185.976805 103.192615 
L 186.488879 101.952 
L 187.513026 101.952 
L 188.025099 100.711385 
L 202.875228 100.711385 
L 203.387301 99.470769 
L 203.899375 99.470769 
L 204.411448 96.989538 
L 204.923522 96.989538 
L 205.947668 94.508308 
L 207.483889 94.508308 
L 207.995962 93.267692 
L 210.044256 93.267692 
L 210.556329 92.027077 
L 216.70121 92.027077 
L 217.213284 89.545846 
L 217.725357 88.305231 
L 218.23743 88.305231 
L 218.749504 87.064615 
L 219.261577 87.064615 
L 219.773651 85.824 
L 227.454752 85.824 
L 227.966825 84.583385 
L 230.015119 84.583385 
L 230.527192 83.342769 
L 234.62378 83.342769 
L 235.135853 82.102154 
L 239.23244 82.102154 
L 239.744514 80.861538 
L 241.280734 80.861538 
L 241.792808 79.620923 
L 244.865248 79.620923 
L 245.377321 78.380308 
L 246.401468 78.380308 
L 246.913542 77.139692 
L 249.473909 77.139692 
L 249.985982 75.899077 
L 252.546349 75.899077 
L 253.058423 74.658462 
L 255.106716 74.658462 
L 255.61879 73.417846 
L 257.667083 73.417846 
L 258.179157 72.177231 
L 260.227451 72.177231 
L 260.739524 70.936615 
L 265.860258 70.936615 
L 266.372332 69.696 
L 268.932699 69.696 
L 269.444772 68.455385 
L 273.029286 68.455385 
L 273.541359 67.214769 
L 274.053433 67.214769 
L 274.565506 65.974154 
L 282.758681 65.974154 
L 283.782828 63.492923 
L 291.976002 63.492923 
L 292.488076 62.252308 
L 297.096736 62.252308 
L 297.60881 61.011692 
L 300.68125 61.011692 
L 301.193324 59.771077 
L 304.777838 59.771077 
L 305.289911 58.530462 
L 311.946866 58.530462 
L 312.458939 57.289846 
L 336.526389 57.289846 
L 337.038463 56.049231 
L 343.695417 56.049231 
L 344.207491 54.808615 
L 347.279931 54.808615 
L 347.792005 53.568 
L 398.487273 53.568 
L 398.487273 53.568 
" clip-path="url(#p29d360a028)" style="fill: none; stroke-dasharray: 1.85,0.8; stroke-dashoffset: 0; stroke: #008000; stroke-width: 0.5"/>
   </g>
   <g id="line2d_16">
    <path d="M 73.832727 295.488 
L 74.344801 174.528 
L 75.881021 174.528 
L 76.393094 173.28099 
L 77.929315 173.28099 
L 78.441388 172.033979 
L 84.586269 172.033979 
L 85.098342 170.786969 
L 86.122489 170.786969 
L 86.634563 167.045938 
L 87.658709 167.045938 
L 88.170783 164.551918 
L 89.19493 164.551918 
L 89.707003 163.304907 
L 90.73115 163.304907 
L 91.243223 160.810887 
L 92.26737 160.810887 
L 92.779444 159.563876 
L 94.315664 159.563876 
L 94.827737 158.316866 
L 95.339811 158.316866 
L 95.851884 155.822845 
L 99.948471 155.822845 
L 100.460545 154.575835 
L 102.508839 154.575835 
L 103.020912 152.081814 
L 104.045059 152.081814 
L 104.557132 150.834804 
L 105.581279 150.834804 
L 107.117499 147.093773 
L 110.702013 147.093773 
L 111.214087 144.599753 
L 111.72616 143.352742 
L 112.750307 143.352742 
L 113.26238 142.105732 
L 113.774454 142.105732 
L 114.286527 138.364701 
L 115.310674 138.364701 
L 115.822747 135.87068 
L 119.919335 135.87068 
L 120.431408 134.62367 
L 120.943482 134.62367 
L 121.967628 132.129649 
L 122.479702 132.129649 
L 122.991775 130.882639 
L 130.672876 130.882639 
L 131.18495 128.388619 
L 132.209097 128.388619 
L 132.72117 127.141608 
L 135.281537 127.141608 
L 136.305684 124.647588 
L 137.329831 124.647588 
L 137.841904 123.400577 
L 145.010932 123.400577 
L 145.523005 120.906557 
L 146.035079 119.659546 
L 149.107519 119.659546 
L 149.619593 117.165526 
L 154.228254 117.165526 
L 154.740327 115.918515 
L 155.2524 115.918515 
L 155.764474 114.671505 
L 156.788621 114.671505 
L 157.300694 113.424495 
L 162.933502 113.424495 
L 163.445575 110.930474 
L 163.957648 110.930474 
L 164.469722 109.683464 
L 164.981795 107.189443 
L 165.493869 105.942433 
L 167.030089 105.942433 
L 167.542162 103.448412 
L 168.054236 102.201402 
L 169.590456 102.201402 
L 170.102529 100.954392 
L 170.614603 100.954392 
L 171.126676 99.707381 
L 171.63875 99.707381 
L 172.150823 98.460371 
L 173.17497 98.460371 
L 173.687043 97.213361 
L 177.271557 97.213361 
L 177.783631 95.966351 
L 185.464732 95.966351 
L 185.976805 94.71934 
L 190.585466 94.71934 
L 191.609613 92.22532 
L 193.145833 92.22532 
L 193.657907 90.978309 
L 198.778641 90.978309 
L 199.290714 89.731299 
L 213.62877 89.731299 
L 214.140843 87.237278 
L 224.382311 87.237278 
L 224.894385 85.990268 
L 226.430605 85.990268 
L 226.942679 84.743258 
L 227.454752 84.743258 
L 227.966825 83.496247 
L 234.62378 83.496247 
L 235.647927 81.002227 
L 237.184147 81.002227 
L 237.69622 79.755216 
L 242.816954 79.755216 
L 243.329028 78.508206 
L 245.377321 78.508206 
L 245.889395 76.014186 
L 246.913542 76.014186 
L 247.425615 74.767175 
L 247.937689 74.767175 
L 248.449762 73.520165 
L 254.594643 73.520165 
L 255.106716 72.273155 
L 256.642937 72.273155 
L 257.15501 71.026144 
L 259.715377 71.026144 
L 260.227451 69.779134 
L 265.860258 69.779134 
L 266.372332 68.532124 
L 276.101726 68.532124 
L 276.6138 67.285113 
L 277.637947 67.285113 
L 278.15002 66.038103 
L 280.710387 66.038103 
L 281.222461 64.791093 
L 290.439782 64.791093 
L 290.951855 63.544082 
L 297.096736 63.544082 
L 297.60881 62.297072 
L 298.120883 62.297072 
L 298.632957 61.050062 
L 299.14503 58.556041 
L 307.850278 58.556041 
L 308.362352 57.309031 
L 335.502243 57.309031 
L 336.014316 56.062021 
L 341.647124 56.062021 
L 342.159197 54.81501 
L 397.975199 54.81501 
L 398.487273 53.568 
L 398.487273 53.568 
" clip-path="url(#p29d360a028)" style="fill: none; stroke-dasharray: 1.85,0.8; stroke-dashoffset: 0; stroke: #0000ff; stroke-width: 0.5"/>
   </g>
   <g id="line2d_17">
    <path d="M 73.832727 295.488 
L 74.344801 151.819034 
L 74.856874 151.819034 
L 75.368948 150.892138 
L 76.905168 150.892138 
L 77.417241 149.038345 
L 80.489682 149.038345 
L 81.513829 147.184552 
L 84.074196 147.184552 
L 84.586269 145.330759 
L 85.098342 145.330759 
L 86.122489 143.476966 
L 86.634563 143.476966 
L 87.658709 141.623172 
L 88.170783 141.623172 
L 88.682856 140.696276 
L 89.19493 140.696276 
L 89.707003 139.769379 
L 90.219077 139.769379 
L 90.73115 138.842483 
L 91.755297 138.842483 
L 92.26737 137.915586 
L 93.291517 137.915586 
L 93.80359 136.98869 
L 94.827737 136.98869 
L 95.339811 136.061793 
L 96.876031 136.061793 
L 97.388104 135.134897 
L 97.900178 133.281103 
L 98.924325 133.281103 
L 99.436398 132.354207 
L 103.532985 132.354207 
L 104.045059 131.42731 
L 104.557132 131.42731 
L 106.093352 128.646621 
L 106.605426 126.792828 
L 107.117499 126.792828 
L 107.629573 125.865931 
L 109.165793 125.865931 
L 109.677866 124.939034 
L 110.702013 124.939034 
L 111.214087 121.231448 
L 111.72616 119.377655 
L 112.238233 118.450759 
L 113.774454 118.450759 
L 114.286527 117.523862 
L 116.334821 117.523862 
L 116.846894 115.670069 
L 117.871041 115.670069 
L 118.383114 114.743172 
L 119.407261 114.743172 
L 119.919335 112.889379 
L 120.431408 112.889379 
L 120.943482 111.962483 
L 124.527995 111.962483 
L 125.040069 109.181793 
L 126.576289 109.181793 
L 127.088362 108.254897 
L 132.209097 108.254897 
L 132.72117 107.328 
L 135.281537 107.328 
L 135.793611 106.401103 
L 136.305684 106.401103 
L 136.817757 105.474207 
L 137.329831 105.474207 
L 138.353978 103.620414 
L 142.450565 103.620414 
L 142.962638 102.693517 
L 147.571299 102.693517 
L 148.083373 101.766621 
L 159.861061 101.766621 
L 160.885208 99.912828 
L 161.397281 99.912828 
L 161.909355 98.059034 
L 164.469722 98.059034 
L 164.981795 97.132138 
L 174.71119 97.132138 
L 175.223264 96.205241 
L 176.24741 96.205241 
L 176.759484 95.278345 
L 177.271557 95.278345 
L 177.783631 94.351448 
L 180.856071 94.351448 
L 182.392291 91.570759 
L 184.952658 91.570759 
L 185.464732 90.643862 
L 189.561319 90.643862 
L 190.073393 89.716966 
L 191.609613 89.716966 
L 192.121686 88.790069 
L 197.24242 88.790069 
L 197.754494 87.863172 
L 199.290714 87.863172 
L 199.802787 86.936276 
L 200.314861 86.936276 
L 200.826934 86.009379 
L 204.923522 86.009379 
L 205.435595 85.082483 
L 207.995962 85.082483 
L 208.508036 84.155586 
L 210.044256 84.155586 
L 210.556329 83.22869 
L 213.62877 83.22869 
L 214.652917 81.374897 
L 217.213284 81.374897 
L 217.725357 80.448 
L 221.309871 80.448 
L 221.821944 79.521103 
L 222.846091 79.521103 
L 223.358165 78.594207 
L 225.918532 78.594207 
L 226.430605 76.740414 
L 228.990972 76.740414 
L 229.503046 75.813517 
L 232.575486 75.813517 
L 233.08756 74.886621 
L 237.69622 74.886621 
L 238.208294 73.959724 
L 239.23244 73.959724 
L 240.256587 72.105931 
L 242.816954 72.105931 
L 243.329028 71.179034 
L 243.841101 71.179034 
L 244.353175 70.252138 
L 246.913542 70.252138 
L 247.425615 69.325241 
L 248.961835 69.325241 
L 249.473909 67.471448 
L 251.010129 67.471448 
L 251.522202 65.617655 
L 262.787818 65.617655 
L 263.299891 64.690759 
L 266.884405 64.690759 
L 267.396478 63.763862 
L 276.101726 63.763862 
L 276.6138 62.836966 
L 283.270754 62.836966 
L 284.294901 60.983172 
L 286.343195 60.983172 
L 286.855268 60.056276 
L 297.096736 60.056276 
L 297.60881 59.129379 
L 300.68125 59.129379 
L 301.193324 58.202483 
L 301.705397 58.202483 
L 302.217471 57.275586 
L 310.922719 57.275586 
L 311.434792 56.34869 
L 325.260774 56.34869 
L 325.772848 55.421793 
L 336.526389 55.421793 
L 337.038463 54.494897 
L 353.936886 54.494897 
L 354.448959 53.568 
L 398.487273 53.568 
L 398.487273 53.568 
" clip-path="url(#p29d360a028)" style="fill: none; stroke-dasharray: 1.85,0.8; stroke-dashoffset: 0; stroke: #bf00bf; stroke-width: 0.5"/>
   </g>
   <g id="line2d_18">
    <path d="M 73.832727 295.488 
L 74.344801 187.554462 
L 74.856874 187.554462 
L 75.368948 186.313846 
L 77.929315 186.313846 
L 78.441388 185.073231 
L 83.050049 185.073231 
L 84.074196 182.592 
L 84.586269 182.592 
L 85.098342 181.351385 
L 85.610416 181.351385 
L 86.122489 180.110769 
L 87.146636 180.110769 
L 87.658709 178.870154 
L 88.170783 178.870154 
L 89.19493 176.388923 
L 89.707003 176.388923 
L 90.219077 173.907692 
L 91.243223 173.907692 
L 91.755297 171.426462 
L 96.876031 171.426462 
L 98.412251 167.704615 
L 98.924325 167.704615 
L 99.436398 165.223385 
L 100.460545 165.223385 
L 100.972618 162.742154 
L 103.020912 162.742154 
L 103.532985 161.501538 
L 104.557132 161.501538 
L 105.069206 160.260923 
L 106.093352 160.260923 
L 106.605426 157.779692 
L 107.117499 156.539077 
L 108.65372 156.539077 
L 109.165793 155.298462 
L 112.238233 155.298462 
L 112.750307 154.057846 
L 113.26238 154.057846 
L 113.774454 151.576615 
L 114.798601 149.095385 
L 115.822747 149.095385 
L 116.334821 147.854769 
L 118.895188 147.854769 
L 119.407261 146.614154 
L 121.967628 146.614154 
L 122.479702 145.373538 
L 126.064216 145.373538 
L 127.088362 142.892308 
L 127.600436 142.892308 
L 128.112509 140.411077 
L 129.64873 140.411077 
L 130.160803 139.170462 
L 133.233243 139.170462 
L 133.745317 137.929846 
L 134.25739 137.929846 
L 134.769464 136.689231 
L 135.281537 136.689231 
L 135.793611 135.448615 
L 139.378124 135.448615 
L 139.890198 134.208 
L 140.402271 134.208 
L 140.914345 132.967385 
L 141.938492 132.967385 
L 142.450565 131.726769 
L 142.962638 131.726769 
L 143.474712 130.486154 
L 145.523005 130.486154 
L 146.547152 128.004923 
L 147.059226 128.004923 
L 147.571299 126.764308 
L 150.131666 126.764308 
L 150.64374 125.523692 
L 153.204107 125.523692 
L 153.71618 124.283077 
L 157.300694 124.283077 
L 157.812767 123.042462 
L 158.836914 123.042462 
L 159.861061 120.561231 
L 160.885208 120.561231 
L 161.397281 119.320615 
L 162.421428 119.320615 
L 162.933502 118.08 
L 166.518015 118.08 
L 167.030089 116.839385 
L 167.542162 114.358154 
L 168.054236 114.358154 
L 168.566309 113.117538 
L 171.126676 113.117538 
L 172.150823 110.636308 
L 173.17497 110.636308 
L 173.687043 109.395692 
L 175.735337 109.395692 
L 176.24741 108.155077 
L 177.271557 108.155077 
L 177.783631 106.914462 
L 179.831924 106.914462 
L 180.343998 105.673846 
L 183.928512 105.673846 
L 184.440585 104.433231 
L 187.513026 104.433231 
L 188.025099 103.192615 
L 191.609613 103.192615 
L 192.121686 101.952 
L 194.682053 101.952 
L 195.194127 100.711385 
L 203.387301 100.711385 
L 203.899375 99.470769 
L 208.508036 99.470769 
L 209.020109 98.230154 
L 213.116696 98.230154 
L 213.62877 96.989538 
L 215.16499 96.989538 
L 215.677063 95.748923 
L 220.797798 95.748923 
L 221.821944 93.267692 
L 224.382311 93.267692 
L 224.894385 92.027077 
L 229.503046 92.027077 
L 230.015119 90.786462 
L 230.527192 90.786462 
L 231.551339 88.305231 
L 232.575486 88.305231 
L 233.08756 87.064615 
L 233.599633 84.583385 
L 244.353175 84.583385 
L 244.865248 83.342769 
L 245.377321 83.342769 
L 246.401468 80.861538 
L 250.498056 80.861538 
L 251.010129 79.620923 
L 255.61879 79.620923 
L 256.130863 78.380308 
L 260.227451 78.380308 
L 260.739524 75.899077 
L 267.908552 75.899077 
L 268.420625 74.658462 
L 269.444772 74.658462 
L 269.956845 73.417846 
L 277.637947 73.417846 
L 278.15002 70.936615 
L 280.710387 70.936615 
L 281.222461 68.455385 
L 281.734534 67.214769 
L 286.343195 67.214769 
L 286.855268 65.974154 
L 287.367342 65.974154 
L 287.879415 64.733538 
L 298.120883 64.733538 
L 298.632957 63.492923 
L 307.850278 63.492923 
L 308.362352 62.252308 
L 316.555526 62.252308 
L 317.0676 59.771077 
L 337.038463 59.771077 
L 337.550536 58.530462 
L 353.424812 58.530462 
L 353.936886 57.289846 
L 370.835308 57.289846 
L 371.347382 56.049231 
L 372.371529 56.049231 
L 372.883602 54.808615 
L 373.907749 54.808615 
L 374.419822 53.568 
L 398.487273 53.568 
L 398.487273 53.568 
" clip-path="url(#p29d360a028)" style="fill: none; stroke-dasharray: 1.85,0.8; stroke-dashoffset: 0; stroke: #bfbf00; stroke-width: 0.5"/>
   </g>
   <g id="line2d_19">
    <path d="M 73.832727 295.488 
L 74.344801 128.485161 
L 75.368948 128.485161 
L 75.881021 126.924387 
L 76.393094 126.924387 
L 76.905168 125.363613 
L 83.050049 125.363613 
L 84.074196 122.242065 
L 84.586269 122.242065 
L 85.098342 120.68129 
L 89.707003 120.68129 
L 90.219077 119.120516 
L 92.26737 119.120516 
L 92.779444 117.559742 
L 93.80359 111.316645 
L 97.388104 111.316645 
L 97.900178 109.755871 
L 98.412251 109.755871 
L 99.436398 106.634323 
L 100.972618 106.634323 
L 101.484692 105.073548 
L 102.508839 105.073548 
L 104.045059 100.391226 
L 104.557132 100.391226 
L 105.069206 98.830452 
L 107.629573 98.830452 
L 108.141646 97.269677 
L 109.677866 97.269677 
L 110.18994 95.708903 
L 111.72616 95.708903 
L 112.750307 92.587355 
L 114.286527 92.587355 
L 114.798601 91.026581 
L 119.407261 91.026581 
L 120.431408 87.905032 
L 124.527995 87.905032 
L 125.552142 84.783484 
L 130.672876 84.783484 
L 131.18495 83.22271 
L 135.281537 83.22271 
L 135.793611 81.661935 
L 136.305684 81.661935 
L 136.817757 80.101161 
L 146.547152 80.101161 
L 147.059226 78.540387 
L 148.595446 78.540387 
L 150.64374 72.29729 
L 152.692033 72.29729 
L 153.204107 70.736516 
L 157.300694 70.736516 
L 158.324841 67.614968 
L 159.861061 67.614968 
L 160.373134 66.054194 
L 161.397281 66.054194 
L 161.909355 64.493419 
L 166.518015 64.493419 
L 167.030089 62.932645 
L 167.542162 62.932645 
L 168.566309 59.811097 
L 169.078383 59.811097 
L 169.590456 58.250323 
L 180.856071 58.250323 
L 181.368145 56.689548 
L 185.976805 56.689548 
L 186.488879 55.128774 
L 197.754494 55.128774 
L 198.266567 53.568 
L 398.487273 53.568 
L 398.487273 53.568 
" clip-path="url(#p29d360a028)" style="fill: none; stroke-dasharray: 1.85,0.8; stroke-dashoffset: 0; stroke: #000000; stroke-width: 0.5"/>
   </g>
   <g id="patch_3">
    <path d="M 57.6 307.584 
L 57.6 41.472 
" style="fill: none; stroke: #000000; stroke-width: 0.8; stroke-linejoin: miter; stroke-linecap: square"/>
   </g>
   <g id="patch_4">
    <path d="M 414.72 307.584 
L 414.72 41.472 
" style="fill: none; stroke: #000000; stroke-width: 0.8; stroke-linejoin: miter; stroke-linecap: square"/>
   </g>
   <g id="patch_5">
    <path d="M 57.6 307.584 
L 414.72 307.584 
" style="fill: none; stroke: #000000; stroke-width: 0.8; stroke-linejoin: miter; stroke-linecap: square"/>
   </g>
   <g id="patch_6">
    <path d="M 57.6 41.472 
L 414.72 41.472 
" style="fill: none; stroke: #000000; stroke-width: 0.8; stroke-linejoin: miter; stroke-linecap: square"/>
   </g>
   <g id="text_16">
    <!-- count=1000, googlenet=150, resnet50=112, squeezenetv1=150, vgg19=187, yolov2=150 -->
    <g transform="translate(-3.84 35.472) scale(0.12 -0.12)">
     <defs>
      <path id="FangSong-6f" d="M 2875 1400 
Q 2875 775 2500 362 
Q 2125 -50 1575 -50 
Q 1000 -50 637 375 
Q 275 800 275 1400 
Q 275 1950 637 2400 
Q 1000 2850 1575 2850 
Q 2175 2850 2525 2400 
Q 2875 1950 2875 1400 
z
M 675 1375 
Q 675 725 937 412 
Q 1200 100 1575 100 
Q 2000 100 2237 437 
Q 2475 775 2475 1375 
Q 2475 2025 2212 2362 
Q 1950 2700 1575 2700 
Q 1225 2700 950 2362 
Q 675 2025 675 1375 
z
" transform="scale(0.015625)"/>
      <path id="FangSong-75" d="M 1425 225 
Q 1725 225 1937 375 
Q 2150 525 2250 850 
L 2250 2425 
Q 2250 2525 2200 2587 
Q 2150 2650 2025 2650 
L 1875 2650 
L 1875 2800 
L 2025 2800 
Q 2175 2800 2300 2825 
Q 2425 2850 2550 2950 
L 2600 2950 
L 2600 500 
Q 2600 400 2662 350 
Q 2725 300 2825 300 
L 2975 300 
L 2975 150 
L 2825 150 
Q 2700 150 2575 112 
Q 2450 75 2300 0 
L 2250 0 
L 2250 525 
Q 2125 250 1875 112 
Q 1625 -25 1300 -25 
Q 900 -25 700 200 
Q 500 425 500 925 
L 500 2425 
Q 500 2525 450 2587 
Q 400 2650 275 2650 
L 125 2650 
L 125 2800 
L 275 2800 
Q 425 2800 550 2825 
Q 675 2850 800 2950 
L 850 2950 
L 850 875 
Q 850 525 1000 375 
Q 1150 225 1425 225 
z
" transform="scale(0.015625)"/>
      <path id="FangSong-3d" d="M 175 2725 
L 175 2950 
L 2950 2950 
L 2950 2725 
L 175 2725 
z
M 175 1450 
L 175 1675 
L 2950 1675 
L 2950 1450 
L 175 1450 
z
" transform="scale(0.015625)"/>
      <path id="FangSong-2c" d="M 1325 75 
Q 1200 25 1100 75 
Q 1000 125 962 237 
Q 925 350 925 437 
Q 925 525 987 612 
Q 1050 700 1150 737 
Q 1250 775 1425 725 
Q 1600 675 1650 500 
Q 1700 325 1662 150 
Q 1625 -25 1525 -200 
Q 1425 -375 1312 -475 
Q 1200 -575 1025 -675 
L 950 -575 
Q 1100 -450 1187 -312 
Q 1275 -175 1325 75 
z
" transform="scale(0.015625)"/>
      <path id="FangSong-20" transform="scale(0.015625)"/>
      <path id="FangSong-67" d="M 850 1875 
Q 850 1575 1025 1362 
Q 1200 1150 1500 1150 
Q 1825 1150 1987 1337 
Q 2150 1525 2150 1875 
Q 2150 2300 1962 2487 
Q 1775 2675 1500 2675 
Q 1225 2675 1037 2487 
Q 850 2300 850 1875 
z
M 2075 525 
Q 2450 475 2625 312 
Q 2800 150 2800 -125 
Q 2800 -500 2487 -725 
Q 2175 -950 1500 -950 
Q 975 -950 650 -737 
Q 325 -525 325 -250 
Q 325 -75 450 100 
Q 575 275 850 375 
Q 700 450 612 537 
Q 525 625 525 750 
Q 525 900 625 1012 
Q 725 1125 875 1200 
Q 725 1325 612 1500 
Q 500 1675 500 1875 
Q 500 2250 762 2537 
Q 1025 2825 1500 2825 
Q 1700 2825 1887 2775 
Q 2075 2725 2200 2600 
Q 2375 2725 2512 2787 
Q 2650 2850 2750 2850 
Q 2875 2850 2925 2762 
Q 2975 2675 2975 2600 
Q 2975 2500 2937 2437 
Q 2900 2375 2800 2375 
Q 2725 2375 2675 2412 
Q 2625 2450 2600 2525 
Q 2575 2600 2487 2587 
Q 2400 2575 2300 2500 
Q 2400 2400 2450 2225 
Q 2500 2050 2500 1875 
Q 2500 1575 2262 1287 
Q 2025 1000 1500 1000 
Q 1350 1000 1225 1037 
Q 1100 1075 1025 1125 
Q 925 1075 875 1000 
Q 825 925 825 875 
Q 825 775 875 725 
Q 925 675 1025 675 
Q 1350 625 1612 587 
Q 1875 550 2075 525 
z
M 1050 325 
Q 825 225 737 87 
Q 650 -50 650 -250 
Q 650 -450 875 -625 
Q 1100 -800 1550 -800 
Q 1975 -800 2225 -662 
Q 2475 -525 2475 -250 
Q 2475 -75 2412 25 
Q 2350 125 2225 150 
Q 1975 200 1675 237 
Q 1375 275 1050 325 
z
" transform="scale(0.015625)"/>
      <path id="FangSong-6c" d="M 900 4275 
Q 1125 4275 1325 4325 
Q 1525 4375 1700 4475 
L 1750 4475 
L 1750 350 
Q 1750 250 1812 200 
Q 1875 150 1975 150 
L 2550 150 
L 2550 0 
L 600 0 
L 600 150 
L 1175 150 
Q 1300 150 1350 200 
Q 1400 250 1400 350 
L 1400 3925 
Q 1400 4025 1350 4075 
Q 1300 4125 1175 4125 
L 625 4125 
L 625 4275 
L 900 4275 
z
" transform="scale(0.015625)"/>
      <path id="FangSong-72" d="M 1250 2025 
Q 1500 2425 1787 2637 
Q 2075 2850 2375 2850 
Q 2625 2850 2762 2737 
Q 2900 2625 2900 2475 
Q 2900 2350 2837 2275 
Q 2775 2200 2650 2200 
Q 2525 2200 2462 2275 
Q 2400 2350 2425 2475 
Q 2425 2550 2400 2600 
Q 2375 2650 2250 2650 
Q 2050 2650 1762 2400 
Q 1475 2150 1250 1700 
L 1250 350 
Q 1250 250 1312 200 
Q 1375 150 1475 150 
L 2025 150 
L 2025 0 
L 175 0 
L 175 150 
L 675 150 
Q 800 150 850 200 
Q 900 250 900 350 
L 900 2425 
Q 900 2525 850 2587 
Q 800 2650 675 2650 
L 200 2650 
L 200 2800 
L 400 2800 
Q 575 2800 812 2837 
Q 1050 2875 1175 2925 
L 1250 2925 
L 1250 2025 
z
" transform="scale(0.015625)"/>
      <path id="FangSong-73" d="M 600 2075 
Q 600 2450 887 2650 
Q 1175 2850 1575 2850 
Q 1800 2850 2000 2787 
Q 2200 2725 2275 2725 
Q 2350 2725 2400 2750 
Q 2450 2775 2525 2850 
L 2625 2025 
L 2475 2000 
Q 2375 2325 2137 2512 
Q 1900 2700 1600 2700 
Q 1275 2700 1087 2575 
Q 900 2450 900 2225 
Q 900 2025 987 1912 
Q 1075 1800 1300 1750 
Q 1475 1675 1737 1587 
Q 2000 1500 2225 1400 
Q 2425 1300 2562 1137 
Q 2700 975 2700 775 
Q 2700 400 2437 187 
Q 2175 -25 1675 -25 
Q 1350 -25 1187 37 
Q 1025 100 925 100 
Q 850 100 762 62 
Q 675 25 575 -25 
L 500 900 
L 650 925 
Q 725 525 975 325 
Q 1225 125 1675 125 
Q 2025 125 2212 250 
Q 2400 375 2400 625 
Q 2400 800 2300 912 
Q 2200 1025 2100 1075 
Q 1850 1175 1550 1287 
Q 1250 1400 1025 1500 
Q 800 1600 700 1750 
Q 600 1900 600 2075 
z
" transform="scale(0.015625)"/>
      <path id="FangSong-71" d="M 2250 2150 
Q 2150 2375 1975 2512 
Q 1800 2650 1550 2650 
Q 1200 2650 950 2350 
Q 700 2050 700 1325 
Q 700 700 912 437 
Q 1125 175 1450 175 
Q 1725 175 1937 300 
Q 2150 425 2250 725 
L 2250 2150 
z
M 2600 -550 
Q 2600 -675 2662 -725 
Q 2725 -775 2825 -775 
L 2975 -775 
L 2975 -925 
L 1825 -925 
L 1825 -775 
L 2025 -775 
Q 2150 -775 2200 -725 
Q 2250 -675 2250 -550 
L 2250 375 
Q 2100 175 1887 75 
Q 1675 -25 1375 -25 
Q 950 -25 625 337 
Q 300 700 300 1400 
Q 300 2075 675 2450 
Q 1050 2825 1475 2825 
Q 1750 2825 1937 2725 
Q 2125 2625 2275 2475 
L 2500 2800 
L 2600 2800 
L 2600 -550 
z
" transform="scale(0.015625)"/>
      <path id="FangSong-7a" d="M 2725 975 
L 2550 0 
L 400 0 
L 400 125 
L 2125 2650 
L 1200 2650 
Q 975 2650 825 2487 
Q 675 2325 575 1925 
L 425 1950 
L 525 2800 
L 2575 2800 
L 2575 2725 
L 825 150 
L 1775 150 
Q 2100 150 2287 350 
Q 2475 550 2575 1000 
L 2725 975 
z
" transform="scale(0.015625)"/>
      <path id="FangSong-76" d="M 1600 -25 
L 1450 -25 
L 600 2425 
Q 575 2525 500 2587 
Q 425 2650 325 2650 
L 200 2650 
L 200 2800 
L 1275 2800 
L 1275 2650 
L 1175 2650 
Q 1025 2650 987 2575 
Q 950 2500 1000 2325 
L 1600 575 
L 1650 575 
L 2250 2300 
Q 2325 2475 2262 2562 
Q 2200 2650 2050 2650 
L 2000 2650 
L 2000 2800 
L 2900 2800 
L 2900 2650 
L 2850 2650 
Q 2700 2650 2612 2562 
Q 2525 2475 2450 2300 
L 1600 -25 
z
" transform="scale(0.015625)"/>
      <path id="FangSong-39" d="M 675 2950 
Q 675 2400 887 2112 
Q 1100 1825 1425 1825 
Q 1800 1825 2075 2175 
Q 2350 2525 2350 2825 
Q 2350 3425 2150 3787 
Q 1950 4150 1500 4150 
Q 1075 4150 875 3812 
Q 675 3475 675 2950 
z
M 1350 1600 
Q 850 1600 550 1912 
Q 250 2225 250 2925 
Q 250 3525 575 3925 
Q 900 4325 1500 4325 
Q 2125 4325 2475 3825 
Q 2825 3325 2825 2375 
Q 2825 1325 2412 637 
Q 2000 -50 1275 -50 
Q 950 -50 712 100 
Q 475 250 475 500 
Q 475 600 537 700 
Q 600 800 750 800 
Q 900 800 950 687 
Q 1000 575 1000 425 
Q 1000 325 1025 262 
Q 1050 200 1075 175 
Q 1100 150 1162 137 
Q 1225 125 1300 125 
Q 1750 125 2025 625 
Q 2300 1125 2350 2300 
Q 2225 2000 1975 1800 
Q 1725 1600 1350 1600 
z
" transform="scale(0.015625)"/>
      <path id="FangSong-37" d="M 2800 4100 
Q 2275 3250 1962 2437 
Q 1650 1625 1650 1025 
Q 1650 925 1662 737 
Q 1675 550 1675 300 
Q 1675 100 1612 25 
Q 1550 -50 1400 -50 
Q 1275 -50 1187 37 
Q 1100 125 1100 350 
Q 1100 825 1312 1525 
Q 1525 2225 2450 3900 
L 1200 3900 
Q 925 3900 762 3725 
Q 600 3550 525 3200 
L 375 3225 
L 550 4275 
L 2800 4275 
L 2800 4100 
z
" transform="scale(0.015625)"/>
     </defs>
     <use xlink:href="#FangSong-63"/>
     <use xlink:href="#FangSong-6f" x="50"/>
     <use xlink:href="#FangSong-75" x="100"/>
     <use xlink:href="#FangSong-6e" x="150"/>
     <use xlink:href="#FangSong-74" x="200"/>
     <use xlink:href="#FangSong-3d" x="250"/>
     <use xlink:href="#FangSong-31" x="300"/>
     <use xlink:href="#FangSong-30" x="350"/>
     <use xlink:href="#FangSong-30" x="400"/>
     <use xlink:href="#FangSong-30" x="450"/>
     <use xlink:href="#FangSong-2c" x="500"/>
     <use xlink:href="#FangSong-20" x="550"/>
     <use xlink:href="#FangSong-67" x="600"/>
     <use xlink:href="#FangSong-6f" x="650"/>
     <use xlink:href="#FangSong-6f" x="700"/>
     <use xlink:href="#FangSong-67" x="750"/>
     <use xlink:href="#FangSong-6c" x="800"/>
     <use xlink:href="#FangSong-65" x="850"/>
     <use xlink:href="#FangSong-6e" x="900"/>
     <use xlink:href="#FangSong-65" x="950"/>
     <use xlink:href="#FangSong-74" x="1000"/>
     <use xlink:href="#FangSong-3d" x="1050"/>
     <use xlink:href="#FangSong-31" x="1100"/>
     <use xlink:href="#FangSong-35" x="1150"/>
     <use xlink:href="#FangSong-30" x="1200"/>
     <use xlink:href="#FangSong-2c" x="1250"/>
     <use xlink:href="#FangSong-20" x="1300"/>
     <use xlink:href="#FangSong-72" x="1350"/>
     <use xlink:href="#FangSong-65" x="1400"/>
     <use xlink:href="#FangSong-73" x="1450"/>
     <use xlink:href="#FangSong-6e" x="1500"/>
     <use xlink:href="#FangSong-65" x="1550"/>
     <use xlink:href="#FangSong-74" x="1600"/>
     <use xlink:href="#FangSong-35" x="1650"/>
     <use xlink:href="#FangSong-30" x="1700"/>
     <use xlink:href="#FangSong-3d" x="1750"/>
     <use xlink:href="#FangSong-31" x="1800"/>
     <use xlink:href="#FangSong-31" x="1850"/>
     <use xlink:href="#FangSong-32" x="1900"/>
     <use xlink:href="#FangSong-2c" x="1950"/>
     <use xlink:href="#FangSong-20" x="2000"/>
     <use xlink:href="#FangSong-73" x="2050"/>
     <use xlink:href="#FangSong-71" x="2100"/>
     <use xlink:href="#FangSong-75" x="2150"/>
     <use xlink:href="#FangSong-65" x="2200"/>
     <use xlink:href="#FangSong-65" x="2250"/>
     <use xlink:href="#FangSong-7a" x="2300"/>
     <use xlink:href="#FangSong-65" x="2350"/>
     <use xlink:href="#FangSong-6e" x="2400"/>
     <use xlink:href="#FangSong-65" x="2450"/>
     <use xlink:href="#FangSong-74" x="2500"/>
     <use xlink:href="#FangSong-76" x="2550"/>
     <use xlink:href="#FangSong-31" x="2600"/>
     <use xlink:href="#FangSong-3d" x="2650"/>
     <use xlink:href="#FangSong-31" x="2700"/>
     <use xlink:href="#FangSong-35" x="2750"/>
     <use xlink:href="#FangSong-30" x="2800"/>
     <use xlink:href="#FangSong-2c" x="2850"/>
     <use xlink:href="#FangSong-20" x="2900"/>
     <use xlink:href="#FangSong-76" x="2950"/>
     <use xlink:href="#FangSong-67" x="3000"/>
     <use xlink:href="#FangSong-67" x="3050"/>
     <use xlink:href="#FangSong-31" x="3100"/>
     <use xlink:href="#FangSong-39" x="3150"/>
     <use xlink:href="#FangSong-3d" x="3200"/>
     <use xlink:href="#FangSong-31" x="3250"/>
     <use xlink:href="#FangSong-38" x="3300"/>
     <use xlink:href="#FangSong-37" x="3350"/>
     <use xlink:href="#FangSong-2c" x="3400"/>
     <use xlink:href="#FangSong-20" x="3450"/>
     <use xlink:href="#FangSong-79" x="3500"/>
     <use xlink:href="#FangSong-6f" x="3550"/>
     <use xlink:href="#FangSong-6c" x="3600"/>
     <use xlink:href="#FangSong-6f" x="3650"/>
     <use xlink:href="#FangSong-76" x="3700"/>
     <use xlink:href="#FangSong-32" x="3750"/>
     <use xlink:href="#FangSong-3d" x="3800"/>
     <use xlink:href="#FangSong-31" x="3850"/>
     <use xlink:href="#FangSong-35" x="3900"/>
     <use xlink:href="#FangSong-30" x="3950"/>
    </g>
   </g>
   <g id="legend_1">
    <g id="patch_7">
     <path d="M 315.72 302.584 
L 407.72 302.584 
Q 409.72 302.584 409.72 300.584 
L 409.72 220.794937 
Q 409.72 218.794937 407.72 218.794937 
L 315.72 218.794937 
Q 313.72 218.794937 313.72 220.794937 
L 313.72 300.584 
Q 313.72 302.584 315.72 302.584 
z
" style="fill: #ffffff; opacity: 0.8; stroke: #cccccc; stroke-linejoin: miter"/>
    </g>
    <g id="line2d_20">
     <path d="M 317.72 226.294937 
L 327.72 226.294937 
L 337.72 226.294937 
" style="fill: none; stroke: #ff0000; stroke-linecap: square"/>
    </g>
    <g id="text_17">
     <!-- total -->
     <g transform="translate(345.72 229.794937) scale(0.1 -0.1)">
      <use xlink:href="#FangSong-74"/>
      <use xlink:href="#FangSong-6f" x="50"/>
      <use xlink:href="#FangSong-74" x="100"/>
      <use xlink:href="#FangSong-61" x="150"/>
      <use xlink:href="#FangSong-6c" x="200"/>
     </g>
    </g>
    <g id="line2d_21">
     <path d="M 317.72 239.74025 
L 327.72 239.74025 
L 337.72 239.74025 
" style="fill: none; stroke-dasharray: 1.85,0.8; stroke-dashoffset: 0; stroke: #008000; stroke-width: 0.5"/>
    </g>
    <g id="text_18">
     <!-- googlenet -->
     <g transform="translate(345.72 243.24025) scale(0.1 -0.1)">
      <use xlink:href="#FangSong-67"/>
      <use xlink:href="#FangSong-6f" x="50"/>
      <use xlink:href="#FangSong-6f" x="100"/>
      <use xlink:href="#FangSong-67" x="150"/>
      <use xlink:href="#FangSong-6c" x="200"/>
      <use xlink:href="#FangSong-65" x="250"/>
      <use xlink:href="#FangSong-6e" x="300"/>
      <use xlink:href="#FangSong-65" x="350"/>
      <use xlink:href="#FangSong-74" x="400"/>
     </g>
    </g>
    <g id="line2d_22">
     <path d="M 317.72 253.224625 
L 327.72 253.224625 
L 337.72 253.224625 
" style="fill: none; stroke-dasharray: 1.85,0.8; stroke-dashoffset: 0; stroke: #0000ff; stroke-width: 0.5"/>
    </g>
    <g id="text_19">
     <!-- yolov2 -->
     <g transform="translate(345.72 256.724625) scale(0.1 -0.1)">
      <use xlink:href="#FangSong-79"/>
      <use xlink:href="#FangSong-6f" x="50"/>
      <use xlink:href="#FangSong-6c" x="100"/>
      <use xlink:href="#FangSong-6f" x="150"/>
      <use xlink:href="#FangSong-76" x="200"/>
      <use xlink:href="#FangSong-32" x="250"/>
     </g>
    </g>
    <g id="line2d_23">
     <path d="M 317.72 266.709 
L 327.72 266.709 
L 337.72 266.709 
" style="fill: none; stroke-dasharray: 1.85,0.8; stroke-dashoffset: 0; stroke: #bf00bf; stroke-width: 0.5"/>
    </g>
    <g id="text_20">
     <!-- resnet50 -->
     <g transform="translate(345.72 270.209) scale(0.1 -0.1)">
      <use xlink:href="#FangSong-72"/>
      <use xlink:href="#FangSong-65" x="50"/>
      <use xlink:href="#FangSong-73" x="100"/>
      <use xlink:href="#FangSong-6e" x="150"/>
      <use xlink:href="#FangSong-65" x="200"/>
      <use xlink:href="#FangSong-74" x="250"/>
      <use xlink:href="#FangSong-35" x="300"/>
      <use xlink:href="#FangSong-30" x="350"/>
     </g>
    </g>
    <g id="line2d_24">
     <path d="M 317.72 280.154312 
L 327.72 280.154312 
L 337.72 280.154312 
" style="fill: none; stroke-dasharray: 1.85,0.8; stroke-dashoffset: 0; stroke: #bfbf00; stroke-width: 0.5"/>
    </g>
    <g id="text_21">
     <!-- squeezenetv1 -->
     <g transform="translate(345.72 283.654312) scale(0.1 -0.1)">
      <use xlink:href="#FangSong-73"/>
      <use xlink:href="#FangSong-71" x="50"/>
      <use xlink:href="#FangSong-75" x="100"/>
      <use xlink:href="#FangSong-65" x="150"/>
      <use xlink:href="#FangSong-65" x="200"/>
      <use xlink:href="#FangSong-7a" x="250"/>
      <use xlink:href="#FangSong-65" x="300"/>
      <use xlink:href="#FangSong-6e" x="350"/>
      <use xlink:href="#FangSong-65" x="400"/>
      <use xlink:href="#FangSong-74" x="450"/>
      <use xlink:href="#FangSong-76" x="500"/>
      <use xlink:href="#FangSong-31" x="550"/>
     </g>
    </g>
    <g id="line2d_25">
     <path d="M 317.72 293.599625 
L 327.72 293.599625 
L 337.72 293.599625 
" style="fill: none; stroke-dasharray: 1.85,0.8; stroke-dashoffset: 0; stroke: #000000; stroke-width: 0.5"/>
    </g>
    <g id="text_22">
     <!-- vgg19 -->
     <g transform="translate(345.72 297.099625) scale(0.1 -0.1)">
      <use xlink:href="#FangSong-76"/>
      <use xlink:href="#FangSong-67" x="50"/>
      <use xlink:href="#FangSong-67" x="100"/>
      <use xlink:href="#FangSong-31" x="150"/>
      <use xlink:href="#FangSong-39" x="200"/>
     </g>
    </g>
   </g>
  </g>
 </g>
 <defs>
  <clipPath id="p29d360a028">
   <rect x="57.6" y="41.472" width="357.12" height="266.112"/>
  </clipPath>
 </defs>
</svg>
