<?xml version="1.0" encoding="utf-8" standalone="no"?>
<!DOCTYPE svg PUBLIC "-//W3C//DTD SVG 1.1//EN"
  "http://www.w3.org/Graphics/SVG/1.1/DTD/svg11.dtd">
<svg xmlns:xlink="http://www.w3.org/1999/xlink" width="460.8pt" height="345.6pt" viewBox="0 0 460.8 345.6" xmlns="http://www.w3.org/2000/svg" version="1.1">
 <metadata>
  <rdf:RDF xmlns:dc="http://purl.org/dc/elements/1.1/" xmlns:cc="http://creativecommons.org/ns#" xmlns:rdf="http://www.w3.org/1999/02/22-rdf-syntax-ns#">
   <cc:Work>
    <dc:type rdf:resource="http://purl.org/dc/dcmitype/StillImage"/>
    <dc:date>2023-01-19T17:24:45.857725</dc:date>
    <dc:format>image/svg+xml</dc:format>
    <dc:creator>
     <cc:Agent>
      <dc:title>Matplotlib v3.6.3, https://matplotlib.org/</dc:title>
     </cc:Agent>
    </dc:creator>
   </cc:Work>
  </rdf:RDF>
 </metadata>
 <defs>
  <style type="text/css">*{stroke-linejoin: round; stroke-linecap: butt}</style>
 </defs>
 <g id="figure_1">
  <g id="patch_1">
   <path d="M 0 345.6 
L 460.8 345.6 
L 460.8 0 
L 0 0 
z
" style="fill: #ffffff"/>
  </g>
  <g id="axes_1">
   <g id="patch_2">
    <path d="M 57.6 307.584 
L 414.72 307.584 
L 414.72 41.472 
L 57.6 41.472 
z
" style="fill: #ffffff"/>
   </g>
   <g id="matplotlib.axis_1">
    <g id="xtick_1">
     <g id="line2d_1">
      <defs>
       <path id="m36ef478613" d="M 0 0 
L 0 3.5 
" style="stroke: #000000; stroke-width: 0.8"/>
      </defs>
      <g>
       <use xlink:href="#m36ef478613" x="68.92858" y="307.584" style="stroke: #000000; stroke-width: 0.8"/>
      </g>
     </g>
     <g id="text_1">
      <!-- 0 -->
      <g transform="translate(66.42858 321.576187) scale(0.1 -0.1)">
       <defs>
        <path id="FangSong-30" d="M 1575 4125 
Q 1225 4125 987 3587 
Q 750 3050 750 2150 
Q 750 1200 987 675 
Q 1225 150 1575 150 
Q 1950 150 2162 675 
Q 2375 1200 2375 2150 
Q 2375 3050 2175 3587 
Q 1975 4125 1575 4125 
z
M 1575 -50 
Q 1025 -50 650 525 
Q 275 1100 275 2150 
Q 275 3125 637 3725 
Q 1000 4325 1575 4325 
Q 2125 4325 2487 3750 
Q 2850 3175 2850 2150 
Q 2850 1125 2487 537 
Q 2125 -50 1575 -50 
z
" transform="scale(0.015625)"/>
       </defs>
       <use xlink:href="#FangSong-30"/>
      </g>
     </g>
    </g>
    <g id="xtick_2">
     <g id="line2d_2">
      <g>
       <use xlink:href="#m36ef478613" x="117.970052" y="307.584" style="stroke: #000000; stroke-width: 0.8"/>
      </g>
     </g>
     <g id="text_2">
      <!-- 10 -->
      <g transform="translate(112.970052 321.576187) scale(0.1 -0.1)">
       <defs>
        <path id="FangSong-31" d="M 1800 4350 
L 1800 550 
Q 1800 350 1925 250 
Q 2050 150 2275 150 
L 2525 150 
L 2525 0 
L 700 0 
L 700 150 
L 925 150 
Q 1175 150 1287 250 
Q 1400 350 1400 550 
L 1400 3575 
Q 1400 3675 1337 3737 
Q 1275 3800 1150 3800 
L 700 3800 
L 700 3950 
L 925 3950 
Q 1225 3950 1412 4050 
Q 1600 4150 1700 4350 
L 1800 4350 
z
" transform="scale(0.015625)"/>
       </defs>
       <use xlink:href="#FangSong-31"/>
       <use xlink:href="#FangSong-30" x="50"/>
      </g>
     </g>
    </g>
    <g id="xtick_3">
     <g id="line2d_3">
      <g>
       <use xlink:href="#m36ef478613" x="167.011524" y="307.584" style="stroke: #000000; stroke-width: 0.8"/>
      </g>
     </g>
     <g id="text_3">
      <!-- 20 -->
      <g transform="translate(162.011524 321.576187) scale(0.1 -0.1)">
       <defs>
        <path id="FangSong-32" d="M 2300 3225 
Q 2300 3675 2100 3912 
Q 1900 4150 1500 4150 
Q 1200 4150 987 3987 
Q 775 3825 775 3575 
Q 775 3425 862 3325 
Q 950 3225 950 3125 
Q 950 3000 887 2937 
Q 825 2875 700 2875 
Q 550 2875 462 2962 
Q 375 3050 375 3250 
Q 375 3775 750 4050 
Q 1125 4325 1550 4325 
Q 2150 4325 2437 4025 
Q 2725 3725 2725 3275 
Q 2725 2975 2587 2675 
Q 2450 2375 2150 2100 
Q 1425 1400 1037 962 
Q 650 525 575 375 
L 2050 375 
Q 2275 375 2425 550 
Q 2575 725 2625 1075 
L 2775 1075 
L 2625 0 
L 300 0 
L 300 325 
Q 425 550 712 900 
Q 1000 1250 1475 1725 
Q 1900 2150 2100 2525 
Q 2300 2900 2300 3225 
z
" transform="scale(0.015625)"/>
       </defs>
       <use xlink:href="#FangSong-32"/>
       <use xlink:href="#FangSong-30" x="50"/>
      </g>
     </g>
    </g>
    <g id="xtick_4">
     <g id="line2d_4">
      <g>
       <use xlink:href="#m36ef478613" x="216.052996" y="307.584" style="stroke: #000000; stroke-width: 0.8"/>
      </g>
     </g>
     <g id="text_4">
      <!-- 30 -->
      <g transform="translate(211.052996 321.576187) scale(0.1 -0.1)">
       <defs>
        <path id="FangSong-33" d="M 2775 1150 
Q 2775 675 2425 312 
Q 2075 -50 1450 -50 
Q 1000 -50 675 200 
Q 350 450 350 775 
Q 350 925 450 1037 
Q 550 1150 650 1150 
Q 800 1150 862 1037 
Q 925 925 925 850 
Q 925 725 875 637 
Q 825 550 825 475 
Q 825 325 1012 225 
Q 1200 125 1425 125 
Q 1875 125 2100 387 
Q 2325 650 2325 1200 
Q 2325 1650 2087 1925 
Q 1850 2200 1200 2200 
L 1200 2375 
Q 1700 2375 1937 2612 
Q 2175 2850 2175 3275 
Q 2175 3625 1987 3887 
Q 1800 4150 1400 4150 
Q 1225 4150 1025 4062 
Q 825 3975 825 3775 
Q 825 3575 875 3525 
Q 925 3475 925 3400 
Q 925 3275 875 3200 
Q 825 3125 700 3125 
Q 600 3125 512 3200 
Q 425 3275 425 3475 
Q 425 3850 750 4087 
Q 1075 4325 1500 4325 
Q 2000 4325 2300 4012 
Q 2600 3700 2600 3350 
Q 2600 2975 2412 2712 
Q 2225 2450 1825 2325 
Q 2375 2125 2575 1800 
Q 2775 1475 2775 1150 
z
" transform="scale(0.015625)"/>
       </defs>
       <use xlink:href="#FangSong-33"/>
       <use xlink:href="#FangSong-30" x="50"/>
      </g>
     </g>
    </g>
    <g id="xtick_5">
     <g id="line2d_5">
      <g>
       <use xlink:href="#m36ef478613" x="265.094469" y="307.584" style="stroke: #000000; stroke-width: 0.8"/>
      </g>
     </g>
     <g id="text_5">
      <!-- 40 -->
      <g transform="translate(260.094469 321.576187) scale(0.1 -0.1)">
       <defs>
        <path id="FangSong-34" d="M 2275 475 
Q 2275 300 2375 225 
Q 2475 150 2650 150 
L 2875 150 
L 2875 0 
L 1225 0 
L 1225 150 
L 1500 150 
Q 1700 150 1787 225 
Q 1875 300 1875 475 
L 1875 1300 
L 200 1300 
L 200 1425 
L 2025 4325 
L 2275 4325 
L 2275 1450 
L 2950 1450 
L 2950 1300 
L 2275 1300 
L 2275 475 
z
M 1850 3700 
L 425 1450 
L 1875 1450 
L 1875 3700 
L 1850 3700 
z
" transform="scale(0.015625)"/>
       </defs>
       <use xlink:href="#FangSong-34"/>
       <use xlink:href="#FangSong-30" x="50"/>
      </g>
     </g>
    </g>
    <g id="xtick_6">
     <g id="line2d_6">
      <g>
       <use xlink:href="#m36ef478613" x="314.135941" y="307.584" style="stroke: #000000; stroke-width: 0.8"/>
      </g>
     </g>
     <g id="text_6">
      <!-- 50 -->
      <g transform="translate(309.135941 321.576187) scale(0.1 -0.1)">
       <defs>
        <path id="FangSong-35" d="M 1700 2750 
Q 2175 2750 2475 2387 
Q 2775 2025 2775 1425 
Q 2775 750 2462 350 
Q 2150 -50 1500 -50 
Q 1050 -50 700 212 
Q 350 475 350 850 
Q 350 1000 437 1112 
Q 525 1225 675 1225 
Q 825 1225 875 1125 
Q 925 1025 925 950 
Q 925 800 850 712 
Q 775 625 775 525 
Q 775 325 1012 225 
Q 1250 125 1525 125 
Q 1925 125 2137 450 
Q 2350 775 2350 1375 
Q 2350 1875 2162 2187 
Q 1975 2500 1600 2500 
Q 1325 2500 1125 2400 
Q 925 2300 750 1975 
L 525 2000 
L 650 4275 
L 2700 4275 
L 2625 3900 
L 825 3900 
L 725 2250 
Q 975 2600 1212 2675 
Q 1450 2750 1700 2750 
z
" transform="scale(0.015625)"/>
       </defs>
       <use xlink:href="#FangSong-35"/>
       <use xlink:href="#FangSong-30" x="50"/>
      </g>
     </g>
    </g>
    <g id="xtick_7">
     <g id="line2d_7">
      <g>
       <use xlink:href="#m36ef478613" x="363.177413" y="307.584" style="stroke: #000000; stroke-width: 0.8"/>
      </g>
     </g>
     <g id="text_7">
      <!-- 60 -->
      <g transform="translate(358.177413 321.576187) scale(0.1 -0.1)">
       <defs>
        <path id="FangSong-36" d="M 750 1700 
Q 750 950 1012 537 
Q 1275 125 1650 125 
Q 2025 125 2225 400 
Q 2425 675 2425 1425 
Q 2425 1925 2212 2200 
Q 2000 2475 1700 2475 
Q 1425 2475 1187 2312 
Q 950 2150 750 1700 
z
M 1725 2725 
Q 2325 2725 2587 2325 
Q 2850 1925 2850 1425 
Q 2850 675 2487 312 
Q 2125 -50 1650 -50 
Q 975 -50 625 462 
Q 275 975 275 1950 
Q 275 3100 700 3712 
Q 1125 4325 1850 4325 
Q 2200 4325 2412 4125 
Q 2625 3925 2625 3775 
Q 2625 3625 2562 3550 
Q 2500 3475 2350 3475 
Q 2225 3475 2162 3537 
Q 2100 3600 2100 3725 
Q 2100 3775 2112 3825 
Q 2125 3875 2125 3925 
Q 2125 4025 2050 4087 
Q 1975 4150 1775 4150 
Q 1350 4150 1050 3762 
Q 750 3375 750 2075 
Q 900 2400 1162 2562 
Q 1425 2725 1725 2725 
z
" transform="scale(0.015625)"/>
       </defs>
       <use xlink:href="#FangSong-36"/>
       <use xlink:href="#FangSong-30" x="50"/>
      </g>
     </g>
    </g>
    <g id="xtick_8">
     <g id="line2d_8">
      <g>
       <use xlink:href="#m36ef478613" x="412.218885" y="307.584" style="stroke: #000000; stroke-width: 0.8"/>
      </g>
     </g>
     <g id="text_8">
      <!-- 70 -->
      <g transform="translate(407.218885 321.576187) scale(0.1 -0.1)">
       <defs>
        <path id="FangSong-37" d="M 2800 4100 
Q 2275 3250 1962 2437 
Q 1650 1625 1650 1025 
Q 1650 925 1662 737 
Q 1675 550 1675 300 
Q 1675 100 1612 25 
Q 1550 -50 1400 -50 
Q 1275 -50 1187 37 
Q 1100 125 1100 350 
Q 1100 825 1312 1525 
Q 1525 2225 2450 3900 
L 1200 3900 
Q 925 3900 762 3725 
Q 600 3550 525 3200 
L 375 3225 
L 550 4275 
L 2800 4275 
L 2800 4100 
z
" transform="scale(0.015625)"/>
       </defs>
       <use xlink:href="#FangSong-37"/>
       <use xlink:href="#FangSong-30" x="50"/>
      </g>
     </g>
    </g>
    <g id="text_9">
     <!-- Latency -->
     <g transform="translate(218.66 333.974625) scale(0.1 -0.1)">
      <defs>
       <path id="FangSong-4c" d="M 975 350 
Q 975 250 1037 200 
Q 1100 150 1200 150 
L 1875 150 
Q 2225 150 2475 362 
Q 2725 575 2850 1025 
L 2975 975 
L 2750 0 
L 175 0 
L 175 150 
L 350 150 
Q 475 150 525 200 
Q 575 250 575 350 
L 575 3925 
Q 575 4025 525 4075 
Q 475 4125 350 4125 
L 200 4125 
L 200 4275 
L 1375 4275 
L 1375 4125 
L 1200 4125 
Q 1100 4125 1037 4075 
Q 975 4025 975 3925 
L 975 350 
z
" transform="scale(0.015625)"/>
       <path id="FangSong-61" d="M 1200 -25 
Q 750 -25 500 187 
Q 250 400 250 675 
Q 250 1125 637 1412 
Q 1025 1700 2175 1825 
L 2175 2125 
Q 2175 2375 2062 2537 
Q 1950 2700 1550 2700 
Q 1125 2700 950 2562 
Q 775 2425 825 2275 
Q 875 2175 825 2075 
Q 775 1975 625 1975 
Q 525 1975 462 2037 
Q 400 2100 400 2225 
Q 400 2450 725 2650 
Q 1050 2850 1525 2850 
Q 2025 2850 2275 2662 
Q 2525 2475 2525 2125 
L 2525 475 
Q 2525 275 2562 237 
Q 2600 200 2700 200 
Q 2825 200 2875 312 
Q 2925 425 2925 625 
L 3050 625 
Q 3050 275 2925 137 
Q 2800 0 2600 0 
Q 2425 0 2325 75 
Q 2225 150 2175 325 
Q 1925 150 1712 62 
Q 1500 -25 1200 -25 
z
M 675 750 
Q 675 525 812 337 
Q 950 150 1250 150 
Q 1475 150 1700 237 
Q 1925 325 2175 500 
L 2175 1675 
Q 1325 1575 1000 1337 
Q 675 1100 675 750 
z
" transform="scale(0.015625)"/>
       <path id="FangSong-74" d="M 1475 800 
Q 1475 450 1600 325 
Q 1725 200 1975 200 
Q 2225 200 2375 362 
Q 2525 525 2575 825 
L 2700 775 
Q 2650 425 2437 200 
Q 2225 -25 1875 -25 
Q 1500 -25 1312 200 
Q 1125 425 1125 900 
L 1125 2650 
L 375 2650 
L 375 2800 
L 575 2800 
Q 875 2800 1062 2987 
Q 1250 3175 1300 3575 
L 1325 3775 
L 1475 3775 
L 1475 2800 
L 2475 2800 
L 2475 2650 
L 1475 2650 
L 1475 800 
z
" transform="scale(0.015625)"/>
       <path id="FangSong-65" d="M 2375 1550 
Q 2400 2100 2187 2387 
Q 1975 2675 1625 2675 
Q 1250 2675 1012 2375 
Q 775 2075 775 1550 
L 2375 1550 
z
M 775 1400 
Q 775 725 1037 437 
Q 1300 150 1725 150 
Q 2050 150 2275 337 
Q 2500 525 2600 800 
L 2725 750 
Q 2650 475 2387 212 
Q 2125 -50 1675 -50 
Q 1100 -50 737 325 
Q 375 700 375 1400 
Q 375 2025 737 2437 
Q 1100 2850 1625 2850 
Q 2100 2850 2450 2525 
Q 2800 2200 2800 1400 
L 775 1400 
z
" transform="scale(0.015625)"/>
       <path id="FangSong-6e" d="M 175 0 
L 175 150 
L 300 150 
Q 425 150 475 200 
Q 525 250 525 350 
L 525 2500 
Q 525 2575 500 2612 
Q 475 2650 400 2650 
L 200 2650 
L 200 2800 
L 375 2800 
Q 500 2800 612 2825 
Q 725 2850 825 2925 
L 875 2925 
L 875 2350 
Q 1100 2600 1325 2725 
Q 1550 2850 1800 2850 
Q 2225 2850 2425 2625 
Q 2625 2400 2625 1950 
L 2625 350 
Q 2625 250 2687 200 
Q 2750 150 2850 150 
L 2975 150 
L 2975 0 
L 1925 0 
L 1925 150 
L 2050 150 
Q 2175 150 2225 200 
Q 2275 250 2275 350 
L 2275 2025 
Q 2275 2325 2150 2487 
Q 2025 2650 1775 2650 
Q 1550 2650 1312 2500 
Q 1075 2350 875 2075 
L 875 350 
Q 875 250 937 200 
Q 1000 150 1100 150 
L 1225 150 
L 1225 0 
L 175 0 
z
" transform="scale(0.015625)"/>
       <path id="FangSong-63" d="M 2125 2125 
Q 2125 2200 2137 2225 
Q 2150 2250 2175 2325 
Q 2200 2425 2075 2562 
Q 1950 2700 1650 2700 
Q 1275 2700 1012 2337 
Q 750 1975 750 1375 
Q 750 825 975 487 
Q 1200 150 1725 150 
Q 2075 150 2312 375 
Q 2550 600 2650 900 
L 2775 850 
Q 2675 475 2400 212 
Q 2125 -50 1650 -50 
Q 1050 -50 700 325 
Q 350 700 350 1400 
Q 350 2025 725 2437 
Q 1100 2850 1700 2850 
Q 2125 2850 2362 2625 
Q 2600 2400 2600 2175 
Q 2600 2025 2537 1962 
Q 2475 1900 2350 1900 
Q 2250 1900 2187 1962 
Q 2125 2025 2125 2125 
z
" transform="scale(0.015625)"/>
       <path id="FangSong-79" d="M 1625 700 
L 1675 700 
L 2225 2375 
Q 2275 2500 2212 2575 
Q 2150 2650 2050 2650 
L 1900 2650 
L 1900 2800 
L 2950 2800 
L 2950 2650 
L 2800 2650 
Q 2700 2650 2600 2575 
Q 2500 2500 2450 2375 
L 1600 -100 
Q 1475 -500 1287 -712 
Q 1100 -925 800 -950 
Q 650 -950 537 -875 
Q 425 -800 425 -675 
Q 425 -575 487 -500 
Q 550 -425 675 -425 
Q 775 -425 837 -525 
Q 900 -625 1050 -587 
Q 1200 -550 1250 -425 
Q 1300 -350 1375 -162 
Q 1450 25 1500 225 
L 650 2425 
Q 625 2525 537 2587 
Q 450 2650 350 2650 
L 250 2650 
L 250 2800 
L 1300 2800 
L 1300 2650 
L 1200 2650 
Q 1100 2650 1050 2587 
Q 1000 2525 1025 2400 
L 1625 700 
z
" transform="scale(0.015625)"/>
      </defs>
      <use xlink:href="#FangSong-4c"/>
      <use xlink:href="#FangSong-61" x="50"/>
      <use xlink:href="#FangSong-74" x="100"/>
      <use xlink:href="#FangSong-65" x="150"/>
      <use xlink:href="#FangSong-6e" x="200"/>
      <use xlink:href="#FangSong-63" x="250"/>
      <use xlink:href="#FangSong-79" x="300"/>
     </g>
    </g>
   </g>
   <g id="matplotlib.axis_2">
    <g id="ytick_1">
     <g id="line2d_9">
      <defs>
       <path id="m83382530be" d="M 0 0 
L -3.5 0 
" style="stroke: #000000; stroke-width: 0.8"/>
      </defs>
      <g>
       <use xlink:href="#m83382530be" x="57.6" y="295.488" style="stroke: #000000; stroke-width: 0.8"/>
      </g>
     </g>
     <g id="text_10">
      <!-- 0% -->
      <g transform="translate(40.6 298.984094) scale(0.1 -0.1)">
       <defs>
        <path id="FangSong-25" d="M 725 4150 
Q 575 4150 475 3950 
Q 375 3750 375 3200 
Q 375 2575 487 2387 
Q 600 2200 725 2200 
Q 900 2200 987 2425 
Q 1075 2650 1075 3200 
Q 1075 3650 1012 3900 
Q 950 4150 725 4150 
z
M 1400 3175 
Q 1400 2725 1250 2387 
Q 1100 2050 725 2050 
Q 425 2050 237 2350 
Q 50 2650 50 3175 
Q 50 3725 250 4025 
Q 450 4325 725 4325 
Q 1025 4325 1212 4012 
Q 1400 3700 1400 3175 
z
M 2700 1100 
Q 2700 1525 2625 1800 
Q 2550 2075 2350 2075 
Q 2200 2075 2100 1837 
Q 2000 1600 2000 1100 
Q 2000 475 2112 300 
Q 2225 125 2350 125 
Q 2525 125 2612 337 
Q 2700 550 2700 1100 
z
M 3025 1075 
Q 3025 575 2850 262 
Q 2675 -50 2350 -50 
Q 2075 -50 1875 262 
Q 1675 575 1675 1075 
Q 1675 1625 1875 1937 
Q 2075 2250 2350 2250 
Q 2650 2250 2837 1925 
Q 3025 1600 3025 1075 
z
M 2500 4250 
L 700 -50 
L 550 25 
L 2325 4325 
L 2500 4250 
z
" transform="scale(0.015625)"/>
       </defs>
       <use xlink:href="#FangSong-30"/>
       <use xlink:href="#FangSong-25" x="50"/>
      </g>
     </g>
    </g>
    <g id="ytick_2">
     <g id="line2d_10">
      <g>
       <use xlink:href="#m83382530be" x="57.6" y="247.104" style="stroke: #000000; stroke-width: 0.8"/>
      </g>
     </g>
     <g id="text_11">
      <!-- 20% -->
      <g transform="translate(35.6 250.600094) scale(0.1 -0.1)">
       <use xlink:href="#FangSong-32"/>
       <use xlink:href="#FangSong-30" x="50"/>
       <use xlink:href="#FangSong-25" x="100"/>
      </g>
     </g>
    </g>
    <g id="ytick_3">
     <g id="line2d_11">
      <g>
       <use xlink:href="#m83382530be" x="57.6" y="198.72" style="stroke: #000000; stroke-width: 0.8"/>
      </g>
     </g>
     <g id="text_12">
      <!-- 40% -->
      <g transform="translate(35.6 202.216094) scale(0.1 -0.1)">
       <use xlink:href="#FangSong-34"/>
       <use xlink:href="#FangSong-30" x="50"/>
       <use xlink:href="#FangSong-25" x="100"/>
      </g>
     </g>
    </g>
    <g id="ytick_4">
     <g id="line2d_12">
      <g>
       <use xlink:href="#m83382530be" x="57.6" y="150.336" style="stroke: #000000; stroke-width: 0.8"/>
      </g>
     </g>
     <g id="text_13">
      <!-- 60% -->
      <g transform="translate(35.6 153.832094) scale(0.1 -0.1)">
       <use xlink:href="#FangSong-36"/>
       <use xlink:href="#FangSong-30" x="50"/>
       <use xlink:href="#FangSong-25" x="100"/>
      </g>
     </g>
    </g>
    <g id="ytick_5">
     <g id="line2d_13">
      <g>
       <use xlink:href="#m83382530be" x="57.6" y="101.952" style="stroke: #000000; stroke-width: 0.8"/>
      </g>
     </g>
     <g id="text_14">
      <!-- 80% -->
      <g transform="translate(35.6 105.448094) scale(0.1 -0.1)">
       <defs>
        <path id="FangSong-38" d="M 600 1025 
Q 600 625 862 375 
Q 1125 125 1525 125 
Q 2000 125 2212 375 
Q 2425 625 2425 1000 
Q 2425 1325 2125 1625 
Q 1825 1925 1225 2175 
Q 925 1975 762 1675 
Q 600 1375 600 1025 
z
M 2800 1075 
Q 2800 600 2450 275 
Q 2100 -50 1525 -50 
Q 1000 -50 625 275 
Q 250 600 250 1025 
Q 250 1450 462 1750 
Q 675 2050 1075 2275 
Q 725 2450 537 2712 
Q 350 2975 350 3300 
Q 350 3725 675 4025 
Q 1000 4325 1575 4325 
Q 2100 4325 2425 4025 
Q 2750 3725 2750 3300 
Q 2750 3000 2562 2737 
Q 2375 2475 1975 2275 
Q 2400 2025 2600 1725 
Q 2800 1425 2800 1075 
z
M 2400 3275 
Q 2400 3625 2200 3887 
Q 2000 4150 1575 4150 
Q 1100 4150 900 3900 
Q 700 3650 700 3375 
Q 700 3100 987 2837 
Q 1275 2575 1800 2375 
Q 2100 2525 2250 2750 
Q 2400 2975 2400 3275 
z
" transform="scale(0.015625)"/>
       </defs>
       <use xlink:href="#FangSong-38"/>
       <use xlink:href="#FangSong-30" x="50"/>
       <use xlink:href="#FangSong-25" x="100"/>
      </g>
     </g>
    </g>
    <g id="ytick_6">
     <g id="line2d_14">
      <g>
       <use xlink:href="#m83382530be" x="57.6" y="53.568" style="stroke: #000000; stroke-width: 0.8"/>
      </g>
     </g>
     <g id="text_15">
      <!-- 100% -->
      <g transform="translate(30.6 57.064094) scale(0.1 -0.1)">
       <use xlink:href="#FangSong-31"/>
       <use xlink:href="#FangSong-30" x="50"/>
       <use xlink:href="#FangSong-30" x="100"/>
       <use xlink:href="#FangSong-25" x="150"/>
      </g>
     </g>
    </g>
    <g id="text_16">
     <!-- 累计完成比例 -->
     <g transform="translate(25.154688 204.528) rotate(-90) scale(0.1 -0.1)">
      <defs>
       <path id="FangSong-7d2f" d="M 4525 4975 
L 4700 5225 
L 5000 4950 
L 4825 4775 
L 4625 3550 
L 4850 3300 
L 3175 3150 
L 3375 2975 
Q 3200 2925 2862 2725 
Q 2525 2525 2075 2275 
L 3475 2500 
Q 3750 2675 3900 2800 
Q 4050 2925 4100 3075 
L 4175 3100 
L 4325 2700 
Q 4200 2675 3500 2237 
Q 2800 1800 2275 1550 
L 4375 1825 
L 3900 2175 
L 4000 2275 
Q 4625 1900 4950 1725 
Q 4975 1475 4925 1225 
Q 4800 1375 4500 1675 
L 3250 1475 
L 3525 1300 
Q 3375 1200 3375 875 
L 3375 25 
Q 3375 -325 3225 -625 
Q 2975 -325 2400 150 
L 2450 250 
L 3050 -75 
Q 3150 -125 3150 0 
L 3150 925 
Q 3150 1300 3125 1450 
Q 1875 1275 1575 1175 
L 1325 1425 
L 1850 1550 
Q 2175 1700 3250 2300 
Q 2075 2100 1875 2000 
L 1575 2250 
L 1800 2300 
Q 2150 2475 3025 3125 
L 2000 3025 
Q 2000 2675 1950 2700 
Q 1900 2725 1650 3025 
Q 1725 3250 1725 3425 
L 1650 4400 
Q 1625 4675 1525 4950 
L 1625 5000 
L 1875 4675 
L 4525 4975 
z
M 3150 3375 
L 3150 3875 
Q 2525 3800 2400 3725 
L 2100 3975 
Q 2500 3975 3150 4075 
L 3150 4600 
L 1900 4450 
L 1975 3250 
L 3150 3375 
z
M 3375 4100 
Q 3950 4175 4025 4225 
L 4275 4000 
Q 3950 3975 3375 3900 
L 3375 3400 
L 4400 3500 
L 4575 4750 
L 3375 4600 
L 3375 4100 
z
M 5450 -75 
Q 4975 325 3875 1025 
L 3950 1125 
Q 4850 700 5350 500 
Q 5425 250 5450 -75 
z
M 800 -250 
Q 1350 75 1825 500 
Q 2300 925 2325 1125 
L 2400 1150 
L 2550 725 
Q 2425 700 2075 425 
Q 1725 150 875 -350 
L 800 -250 
z
" transform="scale(0.015625)"/>
       <path id="FangSong-8ba1" d="M 4075 4200 
Q 4100 4825 3900 5100 
L 3975 5150 
L 4450 4725 
Q 4275 4600 4300 4200 
L 4275 3000 
Q 5525 3200 5575 3250 
L 5950 2950 
Q 5725 2975 4275 2800 
L 4250 -425 
Q 4250 -700 4150 -575 
L 3875 -150 
Q 4050 50 4025 300 
L 4050 2750 
Q 2975 2625 2900 2575 
L 2525 2825 
Q 2850 2825 4050 2975 
L 4075 4200 
z
M 1775 3250 
L 2100 2950 
L 1900 2750 
L 1875 550 
L 2825 1250 
L 2875 1175 
Q 1875 250 1750 -25 
L 1525 275 
Q 1625 375 1650 625 
L 1675 2775 
Q 900 2625 750 2550 
L 425 2800 
Q 850 2825 1650 3000 
L 1775 3250 
z
M 2025 3800 
Q 1825 4300 1325 4950 
L 1375 5025 
Q 1925 4575 2175 4300 
Q 2125 4000 2025 3800 
z
" transform="scale(0.015625)"/>
       <path id="FangSong-5b8c" d="M 5375 2050 
Q 4925 2050 3550 1950 
L 3850 1750 
Q 3725 1600 3700 1375 
L 3675 275 
Q 3650 -125 4075 -175 
L 4925 -175 
Q 5300 -150 5312 62 
Q 5325 275 5325 1025 
L 5425 1025 
Q 5450 750 5475 337 
Q 5500 -75 5700 -275 
Q 5400 -375 5000 -400 
L 4075 -400 
Q 3425 -350 3425 150 
L 3475 1450 
Q 3475 1775 3425 1925 
L 2675 1850 
L 2875 1650 
Q 2750 1550 2600 1200 
Q 2450 850 2025 312 
Q 1600 -225 600 -675 
L 550 -575 
Q 1525 -100 1987 625 
Q 2450 1350 2525 1850 
Q 1550 1775 1500 1725 
L 1150 2025 
Q 1625 2025 3212 2150 
Q 4800 2275 5000 2350 
L 5375 2050 
z
M 1650 3650 
Q 1550 3125 1325 2875 
L 1150 3250 
Q 1450 3425 1575 4400 
L 1675 4400 
L 1675 3900 
L 5025 4150 
L 5175 4400 
L 5525 4075 
Q 5375 4050 4725 3250 
L 4650 3325 
L 4975 3900 
L 1650 3650 
z
M 4475 2975 
Q 4225 2975 3412 2875 
Q 2600 2775 2400 2725 
L 2050 2975 
Q 2575 2975 3200 3075 
Q 3825 3175 4150 3225 
L 4475 2975 
z
M 3550 4575 
Q 3475 4350 3300 4150 
Q 3225 4475 2900 5200 
L 2975 5250 
Q 3350 4825 3550 4575 
z
" transform="scale(0.015625)"/>
       <path id="FangSong-6210" d="M 5575 975 
Q 5600 -150 5750 -625 
Q 4650 -225 4000 1075 
Q 3625 650 2975 225 
L 2925 325 
Q 3525 825 3900 1300 
Q 3600 2275 3500 3300 
L 1875 3125 
Q 1875 2625 1825 2100 
L 2725 2250 
L 2875 2475 
L 3175 2225 
L 3000 2050 
Q 2850 475 2575 -125 
Q 2225 400 1825 775 
L 1875 850 
L 2475 400 
Q 2650 875 2750 2000 
L 1825 1850 
Q 1675 250 600 -650 
L 525 -600 
Q 1250 250 1425 987 
Q 1600 1725 1625 2612 
Q 1650 3500 1550 3800 
L 1625 3825 
L 1850 3350 
L 3450 3525 
Q 3400 4150 3375 4562 
Q 3350 4975 3225 5200 
L 3275 5225 
L 3725 4900 
Q 3625 4925 3637 4575 
Q 3650 4225 3675 3550 
Q 4900 3700 5050 3775 
L 5325 3475 
Q 4775 3475 3725 3325 
Q 3775 2425 4075 1525 
Q 4500 2025 4687 2325 
Q 4875 2625 4800 2850 
L 4875 2875 
L 5125 2325 
Q 5075 2400 4850 2125 
Q 4625 1850 4150 1275 
Q 4625 225 5425 -125 
L 5475 975 
L 5575 975 
z
M 4100 5000 
Q 4525 4700 4875 4450 
Q 4825 4250 4750 4025 
Q 4400 4525 4025 4950 
L 4100 5000 
z
" transform="scale(0.015625)"/>
       <path id="FangSong-6bd4" d="M 3500 2125 
Q 3925 2425 4487 2975 
Q 5050 3525 4950 3750 
L 5025 3775 
L 5250 3225 
Q 5175 3250 4875 3000 
Q 4575 2750 4287 2525 
Q 4000 2300 3500 1900 
L 3500 575 
Q 3475 -100 4150 -100 
L 4800 -100 
Q 5275 -100 5375 12 
Q 5475 125 5450 1350 
L 5575 1350 
Q 5600 825 5637 412 
Q 5675 0 5800 -175 
Q 5375 -325 4800 -325 
L 4150 -325 
Q 3225 -350 3275 550 
L 3275 4300 
Q 3275 4875 3150 5150 
L 3200 5200 
L 3625 4850 
Q 3475 4825 3500 4250 
L 3500 2125 
z
M 1500 2575 
Q 1900 2625 2337 2712 
Q 2775 2800 2800 2850 
L 3075 2600 
Q 2875 2575 2350 2475 
Q 1825 2375 1775 2325 
L 1500 2525 
L 1500 150 
L 2925 1075 
L 2975 1025 
Q 1550 -75 1375 -350 
L 1200 0 
Q 1275 75 1275 350 
L 1275 3925 
Q 1275 4475 1150 4750 
L 1200 4800 
L 1625 4400 
Q 1475 4375 1500 3925 
L 1500 2575 
z
" transform="scale(0.015625)"/>
       <path id="FangSong-4f8b" d="M 3050 2000 
Q 3025 1800 2975 1600 
Q 2775 1900 2525 2250 
Q 2300 1875 2025 1550 
L 1925 1625 
Q 2675 2725 2975 3975 
Q 2475 3925 2375 3875 
L 2050 4125 
Q 2375 4125 3162 4225 
Q 3950 4325 4100 4450 
L 4350 4125 
Q 4050 4150 3100 3975 
L 3300 3700 
Q 3200 3675 3125 3525 
Q 3050 3375 2925 3050 
L 3625 3150 
L 3775 3350 
L 4050 3075 
L 3875 2900 
Q 3300 825 1850 -225 
L 1800 -100 
Q 3100 975 3625 2900 
Q 3150 2825 3025 2775 
L 2875 2925 
Q 2775 2675 2575 2350 
Q 2900 2125 3050 2000 
z
M 1275 -150 
Q 1425 25 1400 225 
L 1450 3425 
Q 1025 2800 475 2225 
L 400 2325 
Q 875 2850 1450 3887 
Q 2025 4925 1925 5150 
L 2000 5175 
L 2250 4700 
Q 2200 4725 2062 4475 
Q 1925 4225 1675 3800 
L 1625 -325 
Q 1650 -675 1525 -600 
L 1275 -150 
z
M 5475 250 
Q 5475 -300 5300 -650 
Q 4900 -100 4300 375 
L 4350 475 
L 5200 -75 
Q 5250 250 5250 575 
L 5250 4350 
Q 5275 4950 5100 5150 
L 5175 5225 
L 5600 4850 
Q 5450 4775 5475 4325 
L 5475 250 
z
M 4300 1525 
Q 4400 1650 4400 1900 
L 4400 3075 
Q 4425 3525 4300 3750 
L 4350 3800 
L 4725 3450 
Q 4600 3350 4625 3025 
L 4625 1375 
Q 4625 1050 4550 1125 
L 4300 1525 
z
" transform="scale(0.015625)"/>
      </defs>
      <use xlink:href="#FangSong-7d2f"/>
      <use xlink:href="#FangSong-8ba1" x="100"/>
      <use xlink:href="#FangSong-5b8c" x="200"/>
      <use xlink:href="#FangSong-6210" x="300"/>
      <use xlink:href="#FangSong-6bd4" x="400"/>
      <use xlink:href="#FangSong-4f8b" x="500"/>
     </g>
    </g>
   </g>
   <g id="line2d_15">
    <path d="M 73.832727 295.488 
L 74.323142 169.93152 
L 75.303971 169.93152 
L 75.794386 169.44768 
L 76.284801 169.44768 
L 76.775216 169.20576 
L 78.24646 169.20576 
L 78.736874 168.72192 
L 79.227289 168.48 
L 80.208119 168.48 
L 80.698533 167.75424 
L 82.660192 166.78656 
L 83.150607 166.78656 
L 83.641022 166.30272 
L 84.131436 165.09312 
L 84.621851 164.8512 
L 85.602681 163.39968 
L 86.58351 162.91584 
L 88.054754 160.73856 
L 88.545169 160.73856 
L 89.035584 160.49664 
L 89.525998 159.77088 
L 90.506828 159.28704 
L 90.997243 158.8032 
L 91.487657 158.8032 
L 91.978072 158.56128 
L 92.958901 158.56128 
L 94.430146 157.10976 
L 94.92056 156.86784 
L 95.410975 156.14208 
L 95.90139 155.90016 
L 96.391804 154.93248 
L 96.882219 154.44864 
L 97.372634 153.72288 
L 97.863049 153.72288 
L 98.353463 153.48096 
L 98.843878 151.78752 
L 99.334293 151.5456 
L 99.824707 151.06176 
L 100.315122 150.336 
L 100.805537 149.85216 
L 101.295952 149.1264 
L 101.786366 147.67488 
L 102.276781 146.94912 
L 102.767196 146.94912 
L 104.23844 144.77184 
L 104.728855 143.80416 
L 105.219269 143.56224 
L 105.709684 142.11072 
L 106.690514 141.14304 
L 107.180928 141.14304 
L 107.671343 140.6592 
L 108.161758 139.93344 
L 108.652172 139.4496 
L 109.142587 137.99808 
L 109.633002 137.0304 
L 110.613831 136.06272 
L 111.104246 134.85312 
L 112.085076 134.36928 
L 112.57549 134.36928 
L 113.065905 134.12736 
L 113.55632 134.12736 
L 114.537149 133.64352 
L 115.517979 133.64352 
L 116.498808 132.67584 
L 116.989223 132.43392 
L 117.479637 131.70816 
L 118.460467 129.53088 
L 119.441296 128.07936 
L 119.931711 127.59552 
L 120.912541 127.11168 
L 121.402955 126.62784 
L 121.89337 126.62784 
L 122.383785 125.90208 
L 122.874199 125.41824 
L 123.364614 125.41824 
L 123.855029 125.17632 
L 124.835858 125.17632 
L 125.326273 124.9344 
L 126.307102 124.9344 
L 126.797517 124.20864 
L 127.287932 124.20864 
L 127.778347 123.96672 
L 128.268761 123.48288 
L 128.759176 123.24096 
L 129.740005 122.27328 
L 130.23042 122.27328 
L 131.21125 121.3056 
L 131.701664 121.3056 
L 132.192079 121.06368 
L 132.682494 120.57984 
L 135.134567 119.37024 
L 135.624982 119.37024 
L 137.096226 118.64448 
L 137.586641 118.16064 
L 138.56747 118.16064 
L 139.057885 117.91872 
L 139.5483 117.91872 
L 140.038715 117.43488 
L 140.529129 117.43488 
L 141.019544 116.95104 
L 141.509959 115.98336 
L 142.000374 115.49952 
L 142.490788 115.49952 
L 143.471618 114.048 
L 144.452447 113.08032 
L 144.942862 113.08032 
L 145.433277 112.8384 
L 145.923691 112.35456 
L 148.375765 111.14496 
L 148.86618 110.66112 
L 149.847009 110.66112 
L 150.337424 109.69344 
L 151.318253 109.69344 
L 151.808668 109.45152 
L 152.299083 109.45152 
L 152.789497 108.48384 
L 153.279912 108.24192 
L 153.770327 108.24192 
L 154.260742 107.75808 
L 154.751156 107.75808 
L 155.731986 107.27424 
L 156.2224 107.27424 
L 156.712815 106.7904 
L 157.20323 106.7904 
L 157.693645 106.30656 
L 158.184059 106.06464 
L 158.674474 105.33888 
L 159.655303 104.85504 
L 160.145718 104.3712 
L 160.636133 104.3712 
L 161.126548 104.12928 
L 161.616962 103.64544 
L 162.597792 103.64544 
L 163.088207 102.43584 
L 163.578621 101.952 
L 164.069036 101.22624 
L 164.559451 100.98432 
L 165.049865 99.5328 
L 166.030695 98.56512 
L 167.011524 98.56512 
L 167.992354 98.08128 
L 168.482768 98.08128 
L 168.973183 97.83936 
L 169.463598 96.87168 
L 169.954013 96.62976 
L 170.444427 96.14592 
L 170.934842 95.904 
L 171.915672 95.904 
L 172.896501 95.42016 
L 173.386916 95.42016 
L 173.87733 95.17824 
L 174.367745 94.6944 
L 174.85816 94.45248 
L 175.838989 94.45248 
L 176.329404 94.21056 
L 176.819819 93.4848 
L 177.310233 93.4848 
L 177.800648 93.24288 
L 178.781478 93.24288 
L 179.271892 92.75904 
L 181.233551 92.75904 
L 181.723966 92.51712 
L 182.214381 92.03328 
L 182.704795 92.03328 
L 183.685625 91.0656 
L 184.17604 91.0656 
L 184.666454 90.33984 
L 185.647284 89.856 
L 186.137698 89.37216 
L 186.628113 89.13024 
L 187.118528 89.13024 
L 187.608943 88.88832 
L 188.099357 88.88832 
L 188.589772 88.6464 
L 189.080187 88.6464 
L 189.570601 87.92064 
L 190.061016 87.67872 
L 190.551431 86.95296 
L 191.041846 86.46912 
L 192.022675 85.98528 
L 192.51309 85.98528 
L 193.984334 84.53376 
L 195.455578 83.808 
L 198.398066 83.808 
L 198.888481 83.56608 
L 199.378896 83.56608 
L 199.869311 83.32416 
L 200.359725 82.84032 
L 200.85014 82.5984 
L 201.340555 82.5984 
L 201.83097 82.11456 
L 203.302214 82.11456 
L 203.792628 81.63072 
L 204.283043 81.63072 
L 204.773458 81.14688 
L 205.263873 81.14688 
L 206.244702 80.66304 
L 206.735117 80.66304 
L 207.225531 80.42112 
L 208.206361 80.42112 
L 208.696776 80.1792 
L 209.18719 79.69536 
L 209.677605 79.45344 
L 210.658434 79.45344 
L 211.148849 78.9696 
L 211.639264 78.9696 
L 212.129679 78.72768 
L 212.620093 78.24384 
L 213.600923 77.76 
L 215.072167 77.76 
L 215.562582 77.27616 
L 216.052996 76.5504 
L 216.543411 76.5504 
L 217.033826 76.30848 
L 217.524241 76.30848 
L 218.50507 75.82464 
L 218.995485 75.3408 
L 219.485899 75.09888 
L 221.937973 75.09888 
L 222.428388 74.85696 
L 223.899632 74.85696 
L 224.390047 74.61504 
L 225.370876 74.61504 
L 225.861291 74.37312 
L 226.351706 74.37312 
L 227.82295 73.64736 
L 228.803779 73.64736 
L 229.294194 73.40544 
L 231.255853 73.40544 
L 232.236682 72.9216 
L 233.707926 72.9216 
L 234.198341 72.67968 
L 234.688756 72.67968 
L 235.669585 72.19584 
L 236.16 72.19584 
L 236.650415 71.712 
L 238.612074 71.712 
L 241.064147 70.5024 
L 244.49705 70.5024 
L 244.987465 70.26048 
L 245.47788 70.26048 
L 245.968294 70.01856 
L 246.949124 70.01856 
L 247.929953 69.53472 
L 248.910783 69.53472 
L 249.891612 69.05088 
L 250.382027 69.05088 
L 251.362856 68.56704 
L 252.834101 68.56704 
L 254.305345 67.84128 
L 255.776589 67.84128 
L 256.267004 67.59936 
L 256.757418 67.59936 
L 257.247833 67.35744 
L 257.738248 67.35744 
L 258.228662 67.11552 
L 259.209492 67.11552 
L 259.699907 66.63168 
L 260.680736 66.14784 
L 261.171151 66.14784 
L 261.661566 65.90592 
L 263.13281 65.90592 
L 263.623224 65.664 
L 265.094469 65.664 
L 265.584883 65.42208 
L 267.056127 65.42208 
L 267.546542 64.93824 
L 268.036957 64.21248 
L 268.527372 63.97056 
L 269.017786 63.97056 
L 269.508201 63.48672 
L 270.48903 63.48672 
L 272.450689 62.51904 
L 272.941104 62.0352 
L 273.431519 62.0352 
L 273.921934 61.79328 
L 275.393178 61.79328 
L 275.883592 61.55136 
L 277.845251 61.55136 
L 278.335666 61.06752 
L 280.297325 61.06752 
L 280.78774 60.34176 
L 283.239813 60.34176 
L 283.730228 60.09984 
L 284.220643 59.616 
L 284.711057 59.616 
L 285.201472 59.13216 
L 285.691887 58.89024 
L 286.182302 58.89024 
L 287.163131 58.4064 
L 287.653546 57.68064 
L 288.14396 57.68064 
L 289.615205 56.95488 
L 292.557693 56.95488 
L 293.048108 56.71296 
L 299.423499 56.71296 
L 299.913914 56.47104 
L 300.404328 56.47104 
L 300.894743 56.22912 
L 302.365987 56.22912 
L 302.856402 55.9872 
L 305.308476 55.9872 
L 305.79889 55.74528 
L 325.415479 55.74528 
L 325.905894 55.50336 
L 326.396309 55.50336 
L 326.886723 55.26144 
L 327.377138 55.26144 
L 327.867553 55.01952 
L 328.357968 55.01952 
L 329.338797 54.53568 
L 329.829212 54.53568 
L 330.319626 54.29376 
L 373.966537 54.29376 
L 374.456951 54.05184 
L 377.889854 54.05184 
L 378.380269 53.80992 
L 397.996858 53.80992 
L 398.487273 53.568 
L 398.487273 53.568 
" clip-path="url(#p8f80528c30)" style="fill: none; stroke: #ff0000; stroke-linecap: square"/>
   </g>
   <g id="line2d_16">
    <path d="M 73.832727 295.488 
L 74.323142 172.1088 
L 75.303971 172.1088 
L 75.794386 170.8992 
L 78.24646 170.8992 
L 79.227289 168.48 
L 81.679363 168.48 
L 82.660192 166.0608 
L 83.150607 166.0608 
L 84.131436 163.6416 
L 90.506828 163.6416 
L 90.997243 161.2224 
L 93.939731 161.2224 
L 94.430146 160.0128 
L 94.92056 160.0128 
L 95.410975 157.5936 
L 95.90139 156.384 
L 96.391804 153.9648 
L 98.353463 153.9648 
L 98.843878 150.336 
L 99.334293 150.336 
L 100.315122 147.9168 
L 101.295952 147.9168 
L 101.786366 144.288 
L 102.276781 141.8688 
L 102.767196 141.8688 
L 103.257611 140.6592 
L 103.748025 140.6592 
L 104.728855 138.24 
L 105.219269 138.24 
L 105.709684 137.0304 
L 106.200099 137.0304 
L 106.690514 135.8208 
L 107.180928 135.8208 
L 107.671343 134.6112 
L 108.161758 134.6112 
L 109.142587 132.192 
L 109.633002 129.7728 
L 115.517979 129.7728 
L 116.008393 128.5632 
L 116.498808 128.5632 
L 117.479637 126.144 
L 118.950882 118.8864 
L 119.441296 117.6768 
L 119.931711 117.6768 
L 120.422126 116.4672 
L 126.307102 116.4672 
L 126.797517 115.2576 
L 127.778347 115.2576 
L 128.268761 114.048 
L 130.23042 114.048 
L 130.720835 111.6288 
L 133.172909 111.6288 
L 133.663323 110.4192 
L 137.096226 110.4192 
L 137.586641 109.2096 
L 138.56747 109.2096 
L 139.057885 108 
L 141.019544 108 
L 141.509959 106.7904 
L 144.942862 106.7904 
L 145.433277 105.5808 
L 146.414106 105.5808 
L 146.904521 104.3712 
L 147.394935 104.3712 
L 147.88535 103.1616 
L 149.847009 103.1616 
L 150.337424 100.7424 
L 152.299083 100.7424 
L 152.789497 98.3232 
L 153.770327 98.3232 
L 154.260742 97.1136 
L 154.751156 97.1136 
L 155.241571 95.904 
L 157.693645 95.904 
L 158.184059 94.6944 
L 159.655303 94.6944 
L 160.145718 93.4848 
L 160.636133 93.4848 
L 161.126548 92.2752 
L 162.597792 92.2752 
L 163.578621 89.856 
L 164.069036 89.856 
L 164.559451 88.6464 
L 165.049865 85.0176 
L 167.011524 85.0176 
L 167.501939 83.808 
L 169.954013 83.808 
L 170.444427 82.5984 
L 172.406086 82.5984 
L 172.896501 81.3888 
L 174.367745 81.3888 
L 174.85816 80.1792 
L 178.781478 80.1792 
L 179.271892 77.76 
L 186.137698 77.76 
L 186.628113 76.5504 
L 188.099357 76.5504 
L 188.589772 75.3408 
L 189.570601 75.3408 
L 190.551431 72.9216 
L 194.965163 72.9216 
L 195.455578 71.712 
L 201.340555 71.712 
L 201.83097 70.5024 
L 203.302214 70.5024 
L 203.792628 69.2928 
L 205.754287 69.2928 
L 206.244702 68.0832 
L 211.639264 68.0832 
L 212.129679 66.8736 
L 215.562582 66.8736 
L 216.052996 65.664 
L 218.995485 65.664 
L 219.485899 64.4544 
L 221.937973 64.4544 
L 222.428388 63.2448 
L 244.49705 63.2448 
L 244.987465 62.0352 
L 250.872442 62.0352 
L 251.362856 60.8256 
L 256.757418 60.8256 
L 257.247833 59.616 
L 267.546542 59.616 
L 268.036957 58.4064 
L 269.017786 58.4064 
L 269.508201 57.1968 
L 270.48903 57.1968 
L 270.979445 55.9872 
L 288.634375 55.9872 
L 289.12479 54.7776 
L 397.996858 54.7776 
L 398.487273 53.568 
L 398.487273 53.568 
" clip-path="url(#p8f80528c30)" style="fill: none; stroke-dasharray: 1.85,0.8; stroke-dashoffset: 0; stroke: #008000; stroke-width: 0.5"/>
   </g>
   <g id="line2d_17">
    <path d="M 73.832727 295.488 
L 74.323142 201.1392 
L 75.303971 201.1392 
L 75.794386 199.9296 
L 76.284801 199.9296 
L 76.775216 198.72 
L 80.208119 198.72 
L 80.698533 197.5104 
L 81.188948 197.5104 
L 81.679363 196.3008 
L 83.641022 196.3008 
L 84.131436 195.0912 
L 84.621851 195.0912 
L 85.112266 193.8816 
L 86.58351 193.8816 
L 87.073925 192.672 
L 87.564339 192.672 
L 88.054754 191.4624 
L 88.545169 191.4624 
L 89.525998 189.0432 
L 91.487657 189.0432 
L 91.978072 187.8336 
L 94.92056 187.8336 
L 95.410975 186.624 
L 96.391804 186.624 
L 96.882219 185.4144 
L 100.805537 185.4144 
L 101.295952 184.2048 
L 103.257611 184.2048 
L 103.748025 182.9952 
L 105.219269 182.9952 
L 106.690514 179.3664 
L 107.180928 179.3664 
L 107.671343 178.1568 
L 108.161758 175.7376 
L 108.652172 175.7376 
L 109.142587 174.528 
L 109.633002 172.1088 
L 110.123417 172.1088 
L 111.104246 169.6896 
L 116.989223 169.6896 
L 117.479637 167.2704 
L 117.970052 166.0608 
L 120.422126 166.0608 
L 121.402955 163.6416 
L 121.89337 163.6416 
L 122.383785 160.0128 
L 123.364614 160.0128 
L 123.855029 158.8032 
L 129.249591 158.8032 
L 129.740005 157.5936 
L 130.720835 157.5936 
L 131.21125 156.384 
L 131.701664 156.384 
L 132.192079 155.1744 
L 132.682494 155.1744 
L 133.172909 153.9648 
L 134.153738 153.9648 
L 135.134567 151.5456 
L 140.529129 151.5456 
L 142.000374 147.9168 
L 142.490788 147.9168 
L 142.981203 145.4976 
L 143.471618 144.288 
L 145.433277 144.288 
L 146.414106 141.8688 
L 146.904521 141.8688 
L 147.394935 140.6592 
L 151.318253 140.6592 
L 151.808668 139.4496 
L 157.20323 139.4496 
L 157.693645 137.0304 
L 158.184059 137.0304 
L 158.674474 135.8208 
L 159.655303 135.8208 
L 160.145718 134.6112 
L 161.126548 134.6112 
L 161.616962 132.192 
L 162.597792 132.192 
L 163.088207 129.7728 
L 163.578621 129.7728 
L 164.069036 128.5632 
L 165.54028 128.5632 
L 166.030695 127.3536 
L 168.973183 127.3536 
L 169.463598 124.9344 
L 169.954013 123.7248 
L 173.386916 123.7248 
L 174.367745 121.3056 
L 176.329404 121.3056 
L 176.819819 120.096 
L 177.310233 120.096 
L 177.800648 118.8864 
L 181.233551 118.8864 
L 182.214381 116.4672 
L 182.704795 116.4672 
L 183.19521 115.2576 
L 184.17604 115.2576 
L 184.666454 112.8384 
L 185.647284 112.8384 
L 186.137698 110.4192 
L 189.080187 110.4192 
L 189.570601 108 
L 190.061016 108 
L 190.551431 106.7904 
L 191.041846 104.3712 
L 191.53226 103.1616 
L 192.51309 103.1616 
L 193.003505 100.7424 
L 194.474749 100.7424 
L 194.965163 99.5328 
L 199.378896 99.5328 
L 199.869311 98.3232 
L 201.340555 98.3232 
L 201.83097 97.1136 
L 204.283043 97.1136 
L 204.773458 95.904 
L 205.263873 95.904 
L 205.754287 94.6944 
L 206.735117 94.6944 
L 207.225531 93.4848 
L 208.696776 93.4848 
L 209.677605 91.0656 
L 210.658434 91.0656 
L 211.148849 89.856 
L 226.351706 89.856 
L 227.332535 87.4368 
L 231.255853 87.4368 
L 231.746268 86.2272 
L 233.707926 86.2272 
L 234.198341 85.0176 
L 236.16 85.0176 
L 236.650415 83.808 
L 240.573732 83.808 
L 241.064147 82.5984 
L 247.439539 82.5984 
L 247.929953 81.3888 
L 252.834101 81.3888 
L 253.324515 80.1792 
L 257.738248 80.1792 
L 258.228662 78.9696 
L 260.190321 78.9696 
L 260.680736 77.76 
L 261.171151 77.76 
L 261.661566 76.5504 
L 265.094469 76.5504 
L 265.584883 75.3408 
L 267.546542 75.3408 
L 268.527372 72.9216 
L 269.017786 72.9216 
L 269.508201 71.712 
L 270.979445 71.712 
L 271.46986 70.5024 
L 271.960275 70.5024 
L 272.941104 68.0832 
L 273.431519 68.0832 
L 273.921934 66.8736 
L 277.845251 66.8736 
L 278.335666 64.4544 
L 280.297325 64.4544 
L 280.78774 63.2448 
L 284.711057 63.2448 
L 285.201472 62.0352 
L 286.182302 62.0352 
L 286.672716 60.8256 
L 287.163131 60.8256 
L 287.653546 59.616 
L 292.557693 59.616 
L 293.048108 58.4064 
L 299.423499 58.4064 
L 299.913914 57.1968 
L 326.396309 57.1968 
L 326.886723 55.9872 
L 329.829212 55.9872 
L 330.319626 54.7776 
L 373.966537 54.7776 
L 374.456951 53.568 
L 398.487273 53.568 
L 398.487273 53.568 
" clip-path="url(#p8f80528c30)" style="fill: none; stroke-dasharray: 1.85,0.8; stroke-dashoffset: 0; stroke: #0000ff; stroke-width: 0.5"/>
   </g>
   <g id="line2d_18">
    <path d="M 73.832727 295.488 
L 74.323142 210.816 
L 80.208119 210.816 
L 80.698533 209.6064 
L 83.641022 209.6064 
L 84.621851 207.1872 
L 85.112266 204.768 
L 87.564339 198.72 
L 88.054754 196.3008 
L 92.958901 196.3008 
L 94.430146 192.672 
L 95.90139 192.672 
L 96.391804 191.4624 
L 96.882219 191.4624 
L 97.372634 189.0432 
L 98.353463 189.0432 
L 98.843878 186.624 
L 101.295952 180.576 
L 101.786366 178.1568 
L 103.748025 178.1568 
L 104.23844 176.9472 
L 105.219269 176.9472 
L 105.709684 174.528 
L 108.161758 174.528 
L 108.652172 173.3184 
L 109.142587 170.8992 
L 109.633002 170.8992 
L 110.123417 169.6896 
L 110.613831 169.6896 
L 111.104246 167.2704 
L 111.594661 167.2704 
L 112.085076 166.0608 
L 117.970052 166.0608 
L 118.460467 164.8512 
L 119.441296 164.8512 
L 119.931711 163.6416 
L 120.912541 163.6416 
L 121.402955 162.432 
L 128.759176 162.432 
L 129.249591 161.2224 
L 132.192079 161.2224 
L 132.682494 158.8032 
L 137.096226 158.8032 
L 137.586641 157.5936 
L 139.5483 157.5936 
L 140.038715 155.1744 
L 140.529129 155.1744 
L 141.019544 153.9648 
L 141.509959 151.5456 
L 142.981203 151.5456 
L 143.962032 149.1264 
L 144.452447 146.7072 
L 147.88535 146.7072 
L 148.375765 145.4976 
L 148.86618 143.0784 
L 149.847009 143.0784 
L 150.337424 141.8688 
L 152.299083 141.8688 
L 153.279912 139.4496 
L 153.770327 139.4496 
L 154.260742 138.24 
L 155.241571 138.24 
L 155.731986 137.0304 
L 156.2224 137.0304 
L 156.712815 135.8208 
L 158.184059 135.8208 
L 158.674474 134.6112 
L 159.164889 134.6112 
L 159.655303 133.4016 
L 163.088207 133.4016 
L 163.578621 132.192 
L 164.559451 132.192 
L 165.049865 129.7728 
L 167.501939 129.7728 
L 167.992354 128.5632 
L 168.482768 128.5632 
L 168.973183 127.3536 
L 169.463598 124.9344 
L 169.954013 124.9344 
L 170.444427 123.7248 
L 171.915672 123.7248 
L 172.406086 122.5152 
L 173.87733 122.5152 
L 174.367745 121.3056 
L 182.704795 121.3056 
L 183.685625 118.8864 
L 184.666454 118.8864 
L 185.647284 116.4672 
L 190.061016 116.4672 
L 190.551431 115.2576 
L 193.003505 115.2576 
L 193.493919 112.8384 
L 193.984334 111.6288 
L 198.398066 111.6288 
L 198.888481 110.4192 
L 199.869311 110.4192 
L 200.359725 109.2096 
L 208.206361 109.2096 
L 208.696776 108 
L 210.658434 108 
L 211.148849 106.7904 
L 212.129679 106.7904 
L 212.620093 104.3712 
L 213.600923 101.952 
L 215.072167 101.952 
L 215.562582 100.7424 
L 216.052996 98.3232 
L 216.543411 98.3232 
L 217.033826 97.1136 
L 217.524241 97.1136 
L 218.50507 94.6944 
L 218.995485 92.2752 
L 223.899632 92.2752 
L 224.390047 91.0656 
L 225.370876 91.0656 
L 225.861291 89.856 
L 227.332535 89.856 
L 227.82295 88.6464 
L 228.803779 88.6464 
L 229.294194 87.4368 
L 234.688756 87.4368 
L 235.179171 86.2272 
L 238.612074 86.2272 
L 240.573732 81.3888 
L 246.949124 81.3888 
L 247.439539 80.1792 
L 250.382027 80.1792 
L 250.872442 78.9696 
L 259.209492 78.9696 
L 260.190321 76.5504 
L 263.13281 76.5504 
L 263.623224 75.3408 
L 267.056127 75.3408 
L 267.546542 74.1312 
L 271.46986 74.1312 
L 271.960275 72.9216 
L 275.393178 72.9216 
L 275.883592 71.712 
L 280.297325 71.712 
L 280.78774 70.5024 
L 283.239813 70.5024 
L 283.730228 69.2928 
L 284.220643 66.8736 
L 284.711057 66.8736 
L 285.691887 64.4544 
L 286.672716 64.4544 
L 287.163131 63.2448 
L 287.653546 60.8256 
L 289.12479 60.8256 
L 289.615205 59.616 
L 300.404328 59.616 
L 300.894743 58.4064 
L 302.365987 58.4064 
L 302.856402 57.1968 
L 325.415479 57.1968 
L 325.905894 55.9872 
L 328.357968 55.9872 
L 329.338797 53.568 
L 398.487273 53.568 
L 398.487273 53.568 
" clip-path="url(#p8f80528c30)" style="fill: none; stroke-dasharray: 1.85,0.8; stroke-dashoffset: 0; stroke: #bf00bf; stroke-width: 0.5"/>
   </g>
   <g id="line2d_19">
    <path d="M 73.832727 295.488 
L 74.323142 116.783276 
L 80.698533 116.783276 
L 81.188948 115.567598 
L 83.150607 115.567598 
L 84.131436 113.136241 
L 85.112266 113.136241 
L 85.602681 111.920563 
L 87.073925 111.920563 
L 87.564339 109.489206 
L 89.035584 109.489206 
L 89.525998 108.273528 
L 90.016413 108.273528 
L 90.506828 107.057849 
L 92.958901 107.057849 
L 93.939731 104.626492 
L 94.430146 104.626492 
L 94.92056 103.410814 
L 97.863049 103.410814 
L 98.843878 100.979457 
L 100.315122 100.979457 
L 101.786366 97.332422 
L 103.257611 97.332422 
L 103.748025 94.901065 
L 104.728855 92.469709 
L 108.652172 92.469709 
L 109.142587 90.038352 
L 111.104246 90.038352 
L 111.594661 88.822673 
L 112.57549 88.822673 
L 113.065905 87.606995 
L 113.55632 87.606995 
L 114.537149 85.175638 
L 115.517979 85.175638 
L 116.008393 83.95996 
L 116.498808 81.528603 
L 117.479637 81.528603 
L 118.460467 79.097246 
L 118.950882 79.097246 
L 119.441296 77.881568 
L 127.287932 77.881568 
L 128.268761 75.450211 
L 128.759176 75.450211 
L 129.249591 74.234533 
L 130.720835 74.234533 
L 131.21125 73.018854 
L 135.624982 73.018854 
L 137.096226 69.371819 
L 142.490788 69.371819 
L 142.981203 68.156141 
L 143.471618 68.156141 
L 143.962032 66.940462 
L 149.847009 66.940462 
L 150.337424 65.724784 
L 152.299083 65.724784 
L 152.789497 64.509106 
L 156.2224 64.509106 
L 156.712815 63.293427 
L 158.184059 63.293427 
L 158.674474 62.077749 
L 162.597792 62.077749 
L 163.088207 59.646392 
L 163.578621 59.646392 
L 164.069036 57.215035 
L 164.559451 57.215035 
L 165.049865 55.999357 
L 231.746268 55.999357 
L 232.236682 54.783678 
L 248.910783 54.783678 
L 249.401197 53.568 
L 398.487273 53.568 
L 398.487273 53.568 
" clip-path="url(#p8f80528c30)" style="fill: none; stroke-dasharray: 1.85,0.8; stroke-dashoffset: 0; stroke: #bfbf00; stroke-width: 0.5"/>
   </g>
   <g id="line2d_20">
    <path d="M 73.832727 295.488 
L 74.323142 148.650985 
L 78.24646 148.650985 
L 78.736874 147.447403 
L 80.208119 147.447403 
L 80.698533 146.243821 
L 83.641022 146.243821 
L 84.131436 145.040239 
L 85.112266 145.040239 
L 85.602681 143.836657 
L 86.58351 143.836657 
L 87.073925 142.633075 
L 89.035584 142.633075 
L 90.016413 140.22591 
L 95.90139 140.22591 
L 97.372634 136.615164 
L 98.353463 136.615164 
L 98.843878 135.411582 
L 99.824707 135.411582 
L 100.315122 134.208 
L 101.786366 134.208 
L 102.276781 133.004418 
L 102.767196 133.004418 
L 103.257611 130.597254 
L 104.23844 130.597254 
L 104.728855 128.19009 
L 105.219269 126.986507 
L 105.709684 124.579343 
L 106.200099 123.375761 
L 107.671343 123.375761 
L 108.161758 122.172179 
L 109.633002 122.172179 
L 110.613831 119.765015 
L 111.104246 117.357851 
L 117.479637 117.357851 
L 117.970052 116.154269 
L 118.460467 116.154269 
L 119.931711 112.543522 
L 122.383785 112.543522 
L 122.874199 110.136358 
L 124.835858 110.136358 
L 125.326273 108.932776 
L 126.307102 108.932776 
L 126.797517 106.525612 
L 128.268761 106.525612 
L 128.759176 105.32203 
L 129.249591 105.32203 
L 129.740005 104.118448 
L 133.663323 104.118448 
L 134.153738 102.914866 
L 141.509959 102.914866 
L 142.000374 101.711284 
L 142.981203 101.711284 
L 143.471618 100.507701 
L 145.433277 100.507701 
L 145.923691 99.304119 
L 158.674474 99.304119 
L 159.164889 98.100537 
L 165.049865 98.100537 
L 165.54028 95.693373 
L 166.030695 94.489791 
L 170.444427 94.489791 
L 170.934842 93.286209 
L 175.838989 93.286209 
L 176.329404 92.082627 
L 176.819819 89.675463 
L 181.723966 89.675463 
L 182.214381 88.471881 
L 183.19521 88.471881 
L 183.685625 87.268299 
L 184.17604 87.268299 
L 184.666454 86.064716 
L 187.118528 86.064716 
L 187.608943 84.861134 
L 189.080187 84.861134 
L 189.570601 83.657552 
L 191.53226 83.657552 
L 192.022675 82.45397 
L 193.493919 82.45397 
L 194.474749 80.046806 
L 199.869311 80.046806 
L 200.85014 77.639642 
L 203.302214 77.639642 
L 203.792628 76.43606 
L 204.283043 76.43606 
L 204.773458 75.232478 
L 208.696776 75.232478 
L 209.18719 74.028896 
L 215.072167 74.028896 
L 215.562582 72.825313 
L 235.179171 72.825313 
L 235.669585 71.621731 
L 236.16 71.621731 
L 236.650415 70.418149 
L 245.47788 70.418149 
L 245.968294 69.214567 
L 249.401197 69.214567 
L 249.891612 68.010985 
L 253.324515 68.010985 
L 254.305345 65.603821 
L 255.776589 65.603821 
L 256.267004 64.400239 
L 259.209492 64.400239 
L 259.699907 63.196657 
L 267.056127 63.196657 
L 268.036957 60.789493 
L 272.450689 60.789493 
L 272.941104 59.58591 
L 280.297325 59.58591 
L 280.78774 58.382328 
L 288.14396 58.382328 
L 288.634375 57.178746 
L 305.308476 57.178746 
L 305.79889 55.975164 
L 327.377138 55.975164 
L 327.867553 54.771582 
L 377.889854 54.771582 
L 378.380269 53.568 
L 398.487273 53.568 
L 398.487273 53.568 
" clip-path="url(#p8f80528c30)" style="fill: none; stroke-dasharray: 1.85,0.8; stroke-dashoffset: 0; stroke: #000000; stroke-width: 0.5"/>
   </g>
   <g id="patch_3">
    <path d="M 57.6 307.584 
L 57.6 41.472 
" style="fill: none; stroke: #000000; stroke-width: 0.8; stroke-linejoin: miter; stroke-linecap: square"/>
   </g>
   <g id="patch_4">
    <path d="M 414.72 307.584 
L 414.72 41.472 
" style="fill: none; stroke: #000000; stroke-width: 0.8; stroke-linejoin: miter; stroke-linecap: square"/>
   </g>
   <g id="patch_5">
    <path d="M 57.6 307.584 
L 414.72 307.584 
" style="fill: none; stroke: #000000; stroke-width: 0.8; stroke-linejoin: miter; stroke-linecap: square"/>
   </g>
   <g id="patch_6">
    <path d="M 57.6 41.472 
L 414.72 41.472 
" style="fill: none; stroke: #000000; stroke-width: 0.8; stroke-linejoin: miter; stroke-linecap: square"/>
   </g>
   <g id="text_17">
    <!-- count=1000, googlenet=150, resnet50=150, squeezenetv1=150, vgg19=150, yolov2=150 -->
    <g transform="translate(-3.84 35.472) scale(0.12 -0.12)">
     <defs>
      <path id="FangSong-6f" d="M 2875 1400 
Q 2875 775 2500 362 
Q 2125 -50 1575 -50 
Q 1000 -50 637 375 
Q 275 800 275 1400 
Q 275 1950 637 2400 
Q 1000 2850 1575 2850 
Q 2175 2850 2525 2400 
Q 2875 1950 2875 1400 
z
M 675 1375 
Q 675 725 937 412 
Q 1200 100 1575 100 
Q 2000 100 2237 437 
Q 2475 775 2475 1375 
Q 2475 2025 2212 2362 
Q 1950 2700 1575 2700 
Q 1225 2700 950 2362 
Q 675 2025 675 1375 
z
" transform="scale(0.015625)"/>
      <path id="FangSong-75" d="M 1425 225 
Q 1725 225 1937 375 
Q 2150 525 2250 850 
L 2250 2425 
Q 2250 2525 2200 2587 
Q 2150 2650 2025 2650 
L 1875 2650 
L 1875 2800 
L 2025 2800 
Q 2175 2800 2300 2825 
Q 2425 2850 2550 2950 
L 2600 2950 
L 2600 500 
Q 2600 400 2662 350 
Q 2725 300 2825 300 
L 2975 300 
L 2975 150 
L 2825 150 
Q 2700 150 2575 112 
Q 2450 75 2300 0 
L 2250 0 
L 2250 525 
Q 2125 250 1875 112 
Q 1625 -25 1300 -25 
Q 900 -25 700 200 
Q 500 425 500 925 
L 500 2425 
Q 500 2525 450 2587 
Q 400 2650 275 2650 
L 125 2650 
L 125 2800 
L 275 2800 
Q 425 2800 550 2825 
Q 675 2850 800 2950 
L 850 2950 
L 850 875 
Q 850 525 1000 375 
Q 1150 225 1425 225 
z
" transform="scale(0.015625)"/>
      <path id="FangSong-3d" d="M 175 2725 
L 175 2950 
L 2950 2950 
L 2950 2725 
L 175 2725 
z
M 175 1450 
L 175 1675 
L 2950 1675 
L 2950 1450 
L 175 1450 
z
" transform="scale(0.015625)"/>
      <path id="FangSong-2c" d="M 1325 75 
Q 1200 25 1100 75 
Q 1000 125 962 237 
Q 925 350 925 437 
Q 925 525 987 612 
Q 1050 700 1150 737 
Q 1250 775 1425 725 
Q 1600 675 1650 500 
Q 1700 325 1662 150 
Q 1625 -25 1525 -200 
Q 1425 -375 1312 -475 
Q 1200 -575 1025 -675 
L 950 -575 
Q 1100 -450 1187 -312 
Q 1275 -175 1325 75 
z
" transform="scale(0.015625)"/>
      <path id="FangSong-20" transform="scale(0.015625)"/>
      <path id="FangSong-67" d="M 850 1875 
Q 850 1575 1025 1362 
Q 1200 1150 1500 1150 
Q 1825 1150 1987 1337 
Q 2150 1525 2150 1875 
Q 2150 2300 1962 2487 
Q 1775 2675 1500 2675 
Q 1225 2675 1037 2487 
Q 850 2300 850 1875 
z
M 2075 525 
Q 2450 475 2625 312 
Q 2800 150 2800 -125 
Q 2800 -500 2487 -725 
Q 2175 -950 1500 -950 
Q 975 -950 650 -737 
Q 325 -525 325 -250 
Q 325 -75 450 100 
Q 575 275 850 375 
Q 700 450 612 537 
Q 525 625 525 750 
Q 525 900 625 1012 
Q 725 1125 875 1200 
Q 725 1325 612 1500 
Q 500 1675 500 1875 
Q 500 2250 762 2537 
Q 1025 2825 1500 2825 
Q 1700 2825 1887 2775 
Q 2075 2725 2200 2600 
Q 2375 2725 2512 2787 
Q 2650 2850 2750 2850 
Q 2875 2850 2925 2762 
Q 2975 2675 2975 2600 
Q 2975 2500 2937 2437 
Q 2900 2375 2800 2375 
Q 2725 2375 2675 2412 
Q 2625 2450 2600 2525 
Q 2575 2600 2487 2587 
Q 2400 2575 2300 2500 
Q 2400 2400 2450 2225 
Q 2500 2050 2500 1875 
Q 2500 1575 2262 1287 
Q 2025 1000 1500 1000 
Q 1350 1000 1225 1037 
Q 1100 1075 1025 1125 
Q 925 1075 875 1000 
Q 825 925 825 875 
Q 825 775 875 725 
Q 925 675 1025 675 
Q 1350 625 1612 587 
Q 1875 550 2075 525 
z
M 1050 325 
Q 825 225 737 87 
Q 650 -50 650 -250 
Q 650 -450 875 -625 
Q 1100 -800 1550 -800 
Q 1975 -800 2225 -662 
Q 2475 -525 2475 -250 
Q 2475 -75 2412 25 
Q 2350 125 2225 150 
Q 1975 200 1675 237 
Q 1375 275 1050 325 
z
" transform="scale(0.015625)"/>
      <path id="FangSong-6c" d="M 900 4275 
Q 1125 4275 1325 4325 
Q 1525 4375 1700 4475 
L 1750 4475 
L 1750 350 
Q 1750 250 1812 200 
Q 1875 150 1975 150 
L 2550 150 
L 2550 0 
L 600 0 
L 600 150 
L 1175 150 
Q 1300 150 1350 200 
Q 1400 250 1400 350 
L 1400 3925 
Q 1400 4025 1350 4075 
Q 1300 4125 1175 4125 
L 625 4125 
L 625 4275 
L 900 4275 
z
" transform="scale(0.015625)"/>
      <path id="FangSong-72" d="M 1250 2025 
Q 1500 2425 1787 2637 
Q 2075 2850 2375 2850 
Q 2625 2850 2762 2737 
Q 2900 2625 2900 2475 
Q 2900 2350 2837 2275 
Q 2775 2200 2650 2200 
Q 2525 2200 2462 2275 
Q 2400 2350 2425 2475 
Q 2425 2550 2400 2600 
Q 2375 2650 2250 2650 
Q 2050 2650 1762 2400 
Q 1475 2150 1250 1700 
L 1250 350 
Q 1250 250 1312 200 
Q 1375 150 1475 150 
L 2025 150 
L 2025 0 
L 175 0 
L 175 150 
L 675 150 
Q 800 150 850 200 
Q 900 250 900 350 
L 900 2425 
Q 900 2525 850 2587 
Q 800 2650 675 2650 
L 200 2650 
L 200 2800 
L 400 2800 
Q 575 2800 812 2837 
Q 1050 2875 1175 2925 
L 1250 2925 
L 1250 2025 
z
" transform="scale(0.015625)"/>
      <path id="FangSong-73" d="M 600 2075 
Q 600 2450 887 2650 
Q 1175 2850 1575 2850 
Q 1800 2850 2000 2787 
Q 2200 2725 2275 2725 
Q 2350 2725 2400 2750 
Q 2450 2775 2525 2850 
L 2625 2025 
L 2475 2000 
Q 2375 2325 2137 2512 
Q 1900 2700 1600 2700 
Q 1275 2700 1087 2575 
Q 900 2450 900 2225 
Q 900 2025 987 1912 
Q 1075 1800 1300 1750 
Q 1475 1675 1737 1587 
Q 2000 1500 2225 1400 
Q 2425 1300 2562 1137 
Q 2700 975 2700 775 
Q 2700 400 2437 187 
Q 2175 -25 1675 -25 
Q 1350 -25 1187 37 
Q 1025 100 925 100 
Q 850 100 762 62 
Q 675 25 575 -25 
L 500 900 
L 650 925 
Q 725 525 975 325 
Q 1225 125 1675 125 
Q 2025 125 2212 250 
Q 2400 375 2400 625 
Q 2400 800 2300 912 
Q 2200 1025 2100 1075 
Q 1850 1175 1550 1287 
Q 1250 1400 1025 1500 
Q 800 1600 700 1750 
Q 600 1900 600 2075 
z
" transform="scale(0.015625)"/>
      <path id="FangSong-71" d="M 2250 2150 
Q 2150 2375 1975 2512 
Q 1800 2650 1550 2650 
Q 1200 2650 950 2350 
Q 700 2050 700 1325 
Q 700 700 912 437 
Q 1125 175 1450 175 
Q 1725 175 1937 300 
Q 2150 425 2250 725 
L 2250 2150 
z
M 2600 -550 
Q 2600 -675 2662 -725 
Q 2725 -775 2825 -775 
L 2975 -775 
L 2975 -925 
L 1825 -925 
L 1825 -775 
L 2025 -775 
Q 2150 -775 2200 -725 
Q 2250 -675 2250 -550 
L 2250 375 
Q 2100 175 1887 75 
Q 1675 -25 1375 -25 
Q 950 -25 625 337 
Q 300 700 300 1400 
Q 300 2075 675 2450 
Q 1050 2825 1475 2825 
Q 1750 2825 1937 2725 
Q 2125 2625 2275 2475 
L 2500 2800 
L 2600 2800 
L 2600 -550 
z
" transform="scale(0.015625)"/>
      <path id="FangSong-7a" d="M 2725 975 
L 2550 0 
L 400 0 
L 400 125 
L 2125 2650 
L 1200 2650 
Q 975 2650 825 2487 
Q 675 2325 575 1925 
L 425 1950 
L 525 2800 
L 2575 2800 
L 2575 2725 
L 825 150 
L 1775 150 
Q 2100 150 2287 350 
Q 2475 550 2575 1000 
L 2725 975 
z
" transform="scale(0.015625)"/>
      <path id="FangSong-76" d="M 1600 -25 
L 1450 -25 
L 600 2425 
Q 575 2525 500 2587 
Q 425 2650 325 2650 
L 200 2650 
L 200 2800 
L 1275 2800 
L 1275 2650 
L 1175 2650 
Q 1025 2650 987 2575 
Q 950 2500 1000 2325 
L 1600 575 
L 1650 575 
L 2250 2300 
Q 2325 2475 2262 2562 
Q 2200 2650 2050 2650 
L 2000 2650 
L 2000 2800 
L 2900 2800 
L 2900 2650 
L 2850 2650 
Q 2700 2650 2612 2562 
Q 2525 2475 2450 2300 
L 1600 -25 
z
" transform="scale(0.015625)"/>
      <path id="FangSong-39" d="M 675 2950 
Q 675 2400 887 2112 
Q 1100 1825 1425 1825 
Q 1800 1825 2075 2175 
Q 2350 2525 2350 2825 
Q 2350 3425 2150 3787 
Q 1950 4150 1500 4150 
Q 1075 4150 875 3812 
Q 675 3475 675 2950 
z
M 1350 1600 
Q 850 1600 550 1912 
Q 250 2225 250 2925 
Q 250 3525 575 3925 
Q 900 4325 1500 4325 
Q 2125 4325 2475 3825 
Q 2825 3325 2825 2375 
Q 2825 1325 2412 637 
Q 2000 -50 1275 -50 
Q 950 -50 712 100 
Q 475 250 475 500 
Q 475 600 537 700 
Q 600 800 750 800 
Q 900 800 950 687 
Q 1000 575 1000 425 
Q 1000 325 1025 262 
Q 1050 200 1075 175 
Q 1100 150 1162 137 
Q 1225 125 1300 125 
Q 1750 125 2025 625 
Q 2300 1125 2350 2300 
Q 2225 2000 1975 1800 
Q 1725 1600 1350 1600 
z
" transform="scale(0.015625)"/>
     </defs>
     <use xlink:href="#FangSong-63"/>
     <use xlink:href="#FangSong-6f" x="50"/>
     <use xlink:href="#FangSong-75" x="100"/>
     <use xlink:href="#FangSong-6e" x="150"/>
     <use xlink:href="#FangSong-74" x="200"/>
     <use xlink:href="#FangSong-3d" x="250"/>
     <use xlink:href="#FangSong-31" x="300"/>
     <use xlink:href="#FangSong-30" x="350"/>
     <use xlink:href="#FangSong-30" x="400"/>
     <use xlink:href="#FangSong-30" x="450"/>
     <use xlink:href="#FangSong-2c" x="500"/>
     <use xlink:href="#FangSong-20" x="550"/>
     <use xlink:href="#FangSong-67" x="600"/>
     <use xlink:href="#FangSong-6f" x="650"/>
     <use xlink:href="#FangSong-6f" x="700"/>
     <use xlink:href="#FangSong-67" x="750"/>
     <use xlink:href="#FangSong-6c" x="800"/>
     <use xlink:href="#FangSong-65" x="850"/>
     <use xlink:href="#FangSong-6e" x="900"/>
     <use xlink:href="#FangSong-65" x="950"/>
     <use xlink:href="#FangSong-74" x="1000"/>
     <use xlink:href="#FangSong-3d" x="1050"/>
     <use xlink:href="#FangSong-31" x="1100"/>
     <use xlink:href="#FangSong-35" x="1150"/>
     <use xlink:href="#FangSong-30" x="1200"/>
     <use xlink:href="#FangSong-2c" x="1250"/>
     <use xlink:href="#FangSong-20" x="1300"/>
     <use xlink:href="#FangSong-72" x="1350"/>
     <use xlink:href="#FangSong-65" x="1400"/>
     <use xlink:href="#FangSong-73" x="1450"/>
     <use xlink:href="#FangSong-6e" x="1500"/>
     <use xlink:href="#FangSong-65" x="1550"/>
     <use xlink:href="#FangSong-74" x="1600"/>
     <use xlink:href="#FangSong-35" x="1650"/>
     <use xlink:href="#FangSong-30" x="1700"/>
     <use xlink:href="#FangSong-3d" x="1750"/>
     <use xlink:href="#FangSong-31" x="1800"/>
     <use xlink:href="#FangSong-35" x="1850"/>
     <use xlink:href="#FangSong-30" x="1900"/>
     <use xlink:href="#FangSong-2c" x="1950"/>
     <use xlink:href="#FangSong-20" x="2000"/>
     <use xlink:href="#FangSong-73" x="2050"/>
     <use xlink:href="#FangSong-71" x="2100"/>
     <use xlink:href="#FangSong-75" x="2150"/>
     <use xlink:href="#FangSong-65" x="2200"/>
     <use xlink:href="#FangSong-65" x="2250"/>
     <use xlink:href="#FangSong-7a" x="2300"/>
     <use xlink:href="#FangSong-65" x="2350"/>
     <use xlink:href="#FangSong-6e" x="2400"/>
     <use xlink:href="#FangSong-65" x="2450"/>
     <use xlink:href="#FangSong-74" x="2500"/>
     <use xlink:href="#FangSong-76" x="2550"/>
     <use xlink:href="#FangSong-31" x="2600"/>
     <use xlink:href="#FangSong-3d" x="2650"/>
     <use xlink:href="#FangSong-31" x="2700"/>
     <use xlink:href="#FangSong-35" x="2750"/>
     <use xlink:href="#FangSong-30" x="2800"/>
     <use xlink:href="#FangSong-2c" x="2850"/>
     <use xlink:href="#FangSong-20" x="2900"/>
     <use xlink:href="#FangSong-76" x="2950"/>
     <use xlink:href="#FangSong-67" x="3000"/>
     <use xlink:href="#FangSong-67" x="3050"/>
     <use xlink:href="#FangSong-31" x="3100"/>
     <use xlink:href="#FangSong-39" x="3150"/>
     <use xlink:href="#FangSong-3d" x="3200"/>
     <use xlink:href="#FangSong-31" x="3250"/>
     <use xlink:href="#FangSong-35" x="3300"/>
     <use xlink:href="#FangSong-30" x="3350"/>
     <use xlink:href="#FangSong-2c" x="3400"/>
     <use xlink:href="#FangSong-20" x="3450"/>
     <use xlink:href="#FangSong-79" x="3500"/>
     <use xlink:href="#FangSong-6f" x="3550"/>
     <use xlink:href="#FangSong-6c" x="3600"/>
     <use xlink:href="#FangSong-6f" x="3650"/>
     <use xlink:href="#FangSong-76" x="3700"/>
     <use xlink:href="#FangSong-32" x="3750"/>
     <use xlink:href="#FangSong-3d" x="3800"/>
     <use xlink:href="#FangSong-31" x="3850"/>
     <use xlink:href="#FangSong-35" x="3900"/>
     <use xlink:href="#FangSong-30" x="3950"/>
    </g>
   </g>
   <g id="legend_1">
    <g id="patch_7">
     <path d="M 315.72 302.584 
L 407.72 302.584 
Q 409.72 302.584 409.72 300.584 
L 409.72 220.794937 
Q 409.72 218.794937 407.72 218.794937 
L 315.72 218.794937 
Q 313.72 218.794937 313.72 220.794937 
L 313.72 300.584 
Q 313.72 302.584 315.72 302.584 
z
" style="fill: #ffffff; opacity: 0.8; stroke: #cccccc; stroke-linejoin: miter"/>
    </g>
    <g id="line2d_21">
     <path d="M 317.72 226.294937 
L 327.72 226.294937 
L 337.72 226.294937 
" style="fill: none; stroke: #ff0000; stroke-linecap: square"/>
    </g>
    <g id="text_18">
     <!-- total -->
     <g transform="translate(345.72 229.794937) scale(0.1 -0.1)">
      <use xlink:href="#FangSong-74"/>
      <use xlink:href="#FangSong-6f" x="50"/>
      <use xlink:href="#FangSong-74" x="100"/>
      <use xlink:href="#FangSong-61" x="150"/>
      <use xlink:href="#FangSong-6c" x="200"/>
     </g>
    </g>
    <g id="line2d_22">
     <path d="M 317.72 239.74025 
L 327.72 239.74025 
L 337.72 239.74025 
" style="fill: none; stroke-dasharray: 1.85,0.8; stroke-dashoffset: 0; stroke: #008000; stroke-width: 0.5"/>
    </g>
    <g id="text_19">
     <!-- squeezenetv1 -->
     <g transform="translate(345.72 243.24025) scale(0.1 -0.1)">
      <use xlink:href="#FangSong-73"/>
      <use xlink:href="#FangSong-71" x="50"/>
      <use xlink:href="#FangSong-75" x="100"/>
      <use xlink:href="#FangSong-65" x="150"/>
      <use xlink:href="#FangSong-65" x="200"/>
      <use xlink:href="#FangSong-7a" x="250"/>
      <use xlink:href="#FangSong-65" x="300"/>
      <use xlink:href="#FangSong-6e" x="350"/>
      <use xlink:href="#FangSong-65" x="400"/>
      <use xlink:href="#FangSong-74" x="450"/>
      <use xlink:href="#FangSong-76" x="500"/>
      <use xlink:href="#FangSong-31" x="550"/>
     </g>
    </g>
    <g id="line2d_23">
     <path d="M 317.72 253.185562 
L 327.72 253.185562 
L 337.72 253.185562 
" style="fill: none; stroke-dasharray: 1.85,0.8; stroke-dashoffset: 0; stroke: #0000ff; stroke-width: 0.5"/>
    </g>
    <g id="text_20">
     <!-- yolov2 -->
     <g transform="translate(345.72 256.685562) scale(0.1 -0.1)">
      <use xlink:href="#FangSong-79"/>
      <use xlink:href="#FangSong-6f" x="50"/>
      <use xlink:href="#FangSong-6c" x="100"/>
      <use xlink:href="#FangSong-6f" x="150"/>
      <use xlink:href="#FangSong-76" x="200"/>
      <use xlink:href="#FangSong-32" x="250"/>
     </g>
    </g>
    <g id="line2d_24">
     <path d="M 317.72 266.669937 
L 327.72 266.669937 
L 337.72 266.669937 
" style="fill: none; stroke-dasharray: 1.85,0.8; stroke-dashoffset: 0; stroke: #bf00bf; stroke-width: 0.5"/>
    </g>
    <g id="text_21">
     <!-- googlenet -->
     <g transform="translate(345.72 270.169937) scale(0.1 -0.1)">
      <use xlink:href="#FangSong-67"/>
      <use xlink:href="#FangSong-6f" x="50"/>
      <use xlink:href="#FangSong-6f" x="100"/>
      <use xlink:href="#FangSong-67" x="150"/>
      <use xlink:href="#FangSong-6c" x="200"/>
      <use xlink:href="#FangSong-65" x="250"/>
      <use xlink:href="#FangSong-6e" x="300"/>
      <use xlink:href="#FangSong-65" x="350"/>
      <use xlink:href="#FangSong-74" x="400"/>
     </g>
    </g>
    <g id="line2d_25">
     <path d="M 317.72 280.154312 
L 327.72 280.154312 
L 337.72 280.154312 
" style="fill: none; stroke-dasharray: 1.85,0.8; stroke-dashoffset: 0; stroke: #bfbf00; stroke-width: 0.5"/>
    </g>
    <g id="text_22">
     <!-- vgg19 -->
     <g transform="translate(345.72 283.654312) scale(0.1 -0.1)">
      <use xlink:href="#FangSong-76"/>
      <use xlink:href="#FangSong-67" x="50"/>
      <use xlink:href="#FangSong-67" x="100"/>
      <use xlink:href="#FangSong-31" x="150"/>
      <use xlink:href="#FangSong-39" x="200"/>
     </g>
    </g>
    <g id="line2d_26">
     <path d="M 317.72 293.638687 
L 327.72 293.638687 
L 337.72 293.638687 
" style="fill: none; stroke-dasharray: 1.85,0.8; stroke-dashoffset: 0; stroke: #000000; stroke-width: 0.5"/>
    </g>
    <g id="text_23">
     <!-- resnet50 -->
     <g transform="translate(345.72 297.138687) scale(0.1 -0.1)">
      <use xlink:href="#FangSong-72"/>
      <use xlink:href="#FangSong-65" x="50"/>
      <use xlink:href="#FangSong-73" x="100"/>
      <use xlink:href="#FangSong-6e" x="150"/>
      <use xlink:href="#FangSong-65" x="200"/>
      <use xlink:href="#FangSong-74" x="250"/>
      <use xlink:href="#FangSong-35" x="300"/>
      <use xlink:href="#FangSong-30" x="350"/>
     </g>
    </g>
   </g>
  </g>
 </g>
 <defs>
  <clipPath id="p8f80528c30">
   <rect x="57.6" y="41.472" width="357.12" height="266.112"/>
  </clipPath>
 </defs>
</svg>
