<?xml version="1.0" encoding="utf-8" standalone="no"?>
<!DOCTYPE svg PUBLIC "-//W3C//DTD SVG 1.1//EN"
  "http://www.w3.org/Graphics/SVG/1.1/DTD/svg11.dtd">
<svg xmlns:xlink="http://www.w3.org/1999/xlink" width="460.8pt" height="345.6pt" viewBox="0 0 460.8 345.6" xmlns="http://www.w3.org/2000/svg" version="1.1">
 <metadata>
  <rdf:RDF xmlns:dc="http://purl.org/dc/elements/1.1/" xmlns:cc="http://creativecommons.org/ns#" xmlns:rdf="http://www.w3.org/1999/02/22-rdf-syntax-ns#">
   <cc:Work>
    <dc:type rdf:resource="http://purl.org/dc/dcmitype/StillImage"/>
    <dc:date>2023-01-19T17:24:45.590439</dc:date>
    <dc:format>image/svg+xml</dc:format>
    <dc:creator>
     <cc:Agent>
      <dc:title>Matplotlib v3.6.3, https://matplotlib.org/</dc:title>
     </cc:Agent>
    </dc:creator>
   </cc:Work>
  </rdf:RDF>
 </metadata>
 <defs>
  <style type="text/css">*{stroke-linejoin: round; stroke-linecap: butt}</style>
 </defs>
 <g id="figure_1">
  <g id="patch_1">
   <path d="M 0 345.6 
L 460.8 345.6 
L 460.8 0 
L 0 0 
z
" style="fill: #ffffff"/>
  </g>
  <g id="axes_1">
   <g id="patch_2">
    <path d="M 57.6 307.584 
L 414.72 307.584 
L 414.72 41.472 
L 57.6 41.472 
z
" style="fill: #ffffff"/>
   </g>
   <g id="matplotlib.axis_1">
    <g id="xtick_1">
     <g id="line2d_1">
      <defs>
       <path id="m7aa458b1b6" d="M 0 0 
L 0 3.5 
" style="stroke: #000000; stroke-width: 0.8"/>
      </defs>
      <g>
       <use xlink:href="#m7aa458b1b6" x="67.17997" y="307.584" style="stroke: #000000; stroke-width: 0.8"/>
      </g>
     </g>
     <g id="text_1">
      <!-- 0 -->
      <g transform="translate(64.67997 321.576187) scale(0.1 -0.1)">
       <defs>
        <path id="FangSong-30" d="M 1575 4125 
Q 1225 4125 987 3587 
Q 750 3050 750 2150 
Q 750 1200 987 675 
Q 1225 150 1575 150 
Q 1950 150 2162 675 
Q 2375 1200 2375 2150 
Q 2375 3050 2175 3587 
Q 1975 4125 1575 4125 
z
M 1575 -50 
Q 1025 -50 650 525 
Q 275 1100 275 2150 
Q 275 3125 637 3725 
Q 1000 4325 1575 4325 
Q 2125 4325 2487 3750 
Q 2850 3175 2850 2150 
Q 2850 1125 2487 537 
Q 2125 -50 1575 -50 
z
" transform="scale(0.015625)"/>
       </defs>
       <use xlink:href="#FangSong-30"/>
      </g>
     </g>
    </g>
    <g id="xtick_2">
     <g id="line2d_2">
      <g>
       <use xlink:href="#m7aa458b1b6" x="133.707541" y="307.584" style="stroke: #000000; stroke-width: 0.8"/>
      </g>
     </g>
     <g id="text_2">
      <!-- 10 -->
      <g transform="translate(128.707541 321.576187) scale(0.1 -0.1)">
       <defs>
        <path id="FangSong-31" d="M 1800 4350 
L 1800 550 
Q 1800 350 1925 250 
Q 2050 150 2275 150 
L 2525 150 
L 2525 0 
L 700 0 
L 700 150 
L 925 150 
Q 1175 150 1287 250 
Q 1400 350 1400 550 
L 1400 3575 
Q 1400 3675 1337 3737 
Q 1275 3800 1150 3800 
L 700 3800 
L 700 3950 
L 925 3950 
Q 1225 3950 1412 4050 
Q 1600 4150 1700 4350 
L 1800 4350 
z
" transform="scale(0.015625)"/>
       </defs>
       <use xlink:href="#FangSong-31"/>
       <use xlink:href="#FangSong-30" x="50"/>
      </g>
     </g>
    </g>
    <g id="xtick_3">
     <g id="line2d_3">
      <g>
       <use xlink:href="#m7aa458b1b6" x="200.235112" y="307.584" style="stroke: #000000; stroke-width: 0.8"/>
      </g>
     </g>
     <g id="text_3">
      <!-- 20 -->
      <g transform="translate(195.235112 321.576187) scale(0.1 -0.1)">
       <defs>
        <path id="FangSong-32" d="M 2300 3225 
Q 2300 3675 2100 3912 
Q 1900 4150 1500 4150 
Q 1200 4150 987 3987 
Q 775 3825 775 3575 
Q 775 3425 862 3325 
Q 950 3225 950 3125 
Q 950 3000 887 2937 
Q 825 2875 700 2875 
Q 550 2875 462 2962 
Q 375 3050 375 3250 
Q 375 3775 750 4050 
Q 1125 4325 1550 4325 
Q 2150 4325 2437 4025 
Q 2725 3725 2725 3275 
Q 2725 2975 2587 2675 
Q 2450 2375 2150 2100 
Q 1425 1400 1037 962 
Q 650 525 575 375 
L 2050 375 
Q 2275 375 2425 550 
Q 2575 725 2625 1075 
L 2775 1075 
L 2625 0 
L 300 0 
L 300 325 
Q 425 550 712 900 
Q 1000 1250 1475 1725 
Q 1900 2150 2100 2525 
Q 2300 2900 2300 3225 
z
" transform="scale(0.015625)"/>
       </defs>
       <use xlink:href="#FangSong-32"/>
       <use xlink:href="#FangSong-30" x="50"/>
      </g>
     </g>
    </g>
    <g id="xtick_4">
     <g id="line2d_4">
      <g>
       <use xlink:href="#m7aa458b1b6" x="266.762683" y="307.584" style="stroke: #000000; stroke-width: 0.8"/>
      </g>
     </g>
     <g id="text_4">
      <!-- 30 -->
      <g transform="translate(261.762683 321.576187) scale(0.1 -0.1)">
       <defs>
        <path id="FangSong-33" d="M 2775 1150 
Q 2775 675 2425 312 
Q 2075 -50 1450 -50 
Q 1000 -50 675 200 
Q 350 450 350 775 
Q 350 925 450 1037 
Q 550 1150 650 1150 
Q 800 1150 862 1037 
Q 925 925 925 850 
Q 925 725 875 637 
Q 825 550 825 475 
Q 825 325 1012 225 
Q 1200 125 1425 125 
Q 1875 125 2100 387 
Q 2325 650 2325 1200 
Q 2325 1650 2087 1925 
Q 1850 2200 1200 2200 
L 1200 2375 
Q 1700 2375 1937 2612 
Q 2175 2850 2175 3275 
Q 2175 3625 1987 3887 
Q 1800 4150 1400 4150 
Q 1225 4150 1025 4062 
Q 825 3975 825 3775 
Q 825 3575 875 3525 
Q 925 3475 925 3400 
Q 925 3275 875 3200 
Q 825 3125 700 3125 
Q 600 3125 512 3200 
Q 425 3275 425 3475 
Q 425 3850 750 4087 
Q 1075 4325 1500 4325 
Q 2000 4325 2300 4012 
Q 2600 3700 2600 3350 
Q 2600 2975 2412 2712 
Q 2225 2450 1825 2325 
Q 2375 2125 2575 1800 
Q 2775 1475 2775 1150 
z
" transform="scale(0.015625)"/>
       </defs>
       <use xlink:href="#FangSong-33"/>
       <use xlink:href="#FangSong-30" x="50"/>
      </g>
     </g>
    </g>
    <g id="xtick_5">
     <g id="line2d_5">
      <g>
       <use xlink:href="#m7aa458b1b6" x="333.290253" y="307.584" style="stroke: #000000; stroke-width: 0.8"/>
      </g>
     </g>
     <g id="text_5">
      <!-- 40 -->
      <g transform="translate(328.290253 321.576187) scale(0.1 -0.1)">
       <defs>
        <path id="FangSong-34" d="M 2275 475 
Q 2275 300 2375 225 
Q 2475 150 2650 150 
L 2875 150 
L 2875 0 
L 1225 0 
L 1225 150 
L 1500 150 
Q 1700 150 1787 225 
Q 1875 300 1875 475 
L 1875 1300 
L 200 1300 
L 200 1425 
L 2025 4325 
L 2275 4325 
L 2275 1450 
L 2950 1450 
L 2950 1300 
L 2275 1300 
L 2275 475 
z
M 1850 3700 
L 425 1450 
L 1875 1450 
L 1875 3700 
L 1850 3700 
z
" transform="scale(0.015625)"/>
       </defs>
       <use xlink:href="#FangSong-34"/>
       <use xlink:href="#FangSong-30" x="50"/>
      </g>
     </g>
    </g>
    <g id="xtick_6">
     <g id="line2d_6">
      <g>
       <use xlink:href="#m7aa458b1b6" x="399.817824" y="307.584" style="stroke: #000000; stroke-width: 0.8"/>
      </g>
     </g>
     <g id="text_6">
      <!-- 50 -->
      <g transform="translate(394.817824 321.576187) scale(0.1 -0.1)">
       <defs>
        <path id="FangSong-35" d="M 1700 2750 
Q 2175 2750 2475 2387 
Q 2775 2025 2775 1425 
Q 2775 750 2462 350 
Q 2150 -50 1500 -50 
Q 1050 -50 700 212 
Q 350 475 350 850 
Q 350 1000 437 1112 
Q 525 1225 675 1225 
Q 825 1225 875 1125 
Q 925 1025 925 950 
Q 925 800 850 712 
Q 775 625 775 525 
Q 775 325 1012 225 
Q 1250 125 1525 125 
Q 1925 125 2137 450 
Q 2350 775 2350 1375 
Q 2350 1875 2162 2187 
Q 1975 2500 1600 2500 
Q 1325 2500 1125 2400 
Q 925 2300 750 1975 
L 525 2000 
L 650 4275 
L 2700 4275 
L 2625 3900 
L 825 3900 
L 725 2250 
Q 975 2600 1212 2675 
Q 1450 2750 1700 2750 
z
" transform="scale(0.015625)"/>
       </defs>
       <use xlink:href="#FangSong-35"/>
       <use xlink:href="#FangSong-30" x="50"/>
      </g>
     </g>
    </g>
    <g id="text_7">
     <!-- Latency -->
     <g transform="translate(218.66 333.974625) scale(0.1 -0.1)">
      <defs>
       <path id="FangSong-4c" d="M 975 350 
Q 975 250 1037 200 
Q 1100 150 1200 150 
L 1875 150 
Q 2225 150 2475 362 
Q 2725 575 2850 1025 
L 2975 975 
L 2750 0 
L 175 0 
L 175 150 
L 350 150 
Q 475 150 525 200 
Q 575 250 575 350 
L 575 3925 
Q 575 4025 525 4075 
Q 475 4125 350 4125 
L 200 4125 
L 200 4275 
L 1375 4275 
L 1375 4125 
L 1200 4125 
Q 1100 4125 1037 4075 
Q 975 4025 975 3925 
L 975 350 
z
" transform="scale(0.015625)"/>
       <path id="FangSong-61" d="M 1200 -25 
Q 750 -25 500 187 
Q 250 400 250 675 
Q 250 1125 637 1412 
Q 1025 1700 2175 1825 
L 2175 2125 
Q 2175 2375 2062 2537 
Q 1950 2700 1550 2700 
Q 1125 2700 950 2562 
Q 775 2425 825 2275 
Q 875 2175 825 2075 
Q 775 1975 625 1975 
Q 525 1975 462 2037 
Q 400 2100 400 2225 
Q 400 2450 725 2650 
Q 1050 2850 1525 2850 
Q 2025 2850 2275 2662 
Q 2525 2475 2525 2125 
L 2525 475 
Q 2525 275 2562 237 
Q 2600 200 2700 200 
Q 2825 200 2875 312 
Q 2925 425 2925 625 
L 3050 625 
Q 3050 275 2925 137 
Q 2800 0 2600 0 
Q 2425 0 2325 75 
Q 2225 150 2175 325 
Q 1925 150 1712 62 
Q 1500 -25 1200 -25 
z
M 675 750 
Q 675 525 812 337 
Q 950 150 1250 150 
Q 1475 150 1700 237 
Q 1925 325 2175 500 
L 2175 1675 
Q 1325 1575 1000 1337 
Q 675 1100 675 750 
z
" transform="scale(0.015625)"/>
       <path id="FangSong-74" d="M 1475 800 
Q 1475 450 1600 325 
Q 1725 200 1975 200 
Q 2225 200 2375 362 
Q 2525 525 2575 825 
L 2700 775 
Q 2650 425 2437 200 
Q 2225 -25 1875 -25 
Q 1500 -25 1312 200 
Q 1125 425 1125 900 
L 1125 2650 
L 375 2650 
L 375 2800 
L 575 2800 
Q 875 2800 1062 2987 
Q 1250 3175 1300 3575 
L 1325 3775 
L 1475 3775 
L 1475 2800 
L 2475 2800 
L 2475 2650 
L 1475 2650 
L 1475 800 
z
" transform="scale(0.015625)"/>
       <path id="FangSong-65" d="M 2375 1550 
Q 2400 2100 2187 2387 
Q 1975 2675 1625 2675 
Q 1250 2675 1012 2375 
Q 775 2075 775 1550 
L 2375 1550 
z
M 775 1400 
Q 775 725 1037 437 
Q 1300 150 1725 150 
Q 2050 150 2275 337 
Q 2500 525 2600 800 
L 2725 750 
Q 2650 475 2387 212 
Q 2125 -50 1675 -50 
Q 1100 -50 737 325 
Q 375 700 375 1400 
Q 375 2025 737 2437 
Q 1100 2850 1625 2850 
Q 2100 2850 2450 2525 
Q 2800 2200 2800 1400 
L 775 1400 
z
" transform="scale(0.015625)"/>
       <path id="FangSong-6e" d="M 175 0 
L 175 150 
L 300 150 
Q 425 150 475 200 
Q 525 250 525 350 
L 525 2500 
Q 525 2575 500 2612 
Q 475 2650 400 2650 
L 200 2650 
L 200 2800 
L 375 2800 
Q 500 2800 612 2825 
Q 725 2850 825 2925 
L 875 2925 
L 875 2350 
Q 1100 2600 1325 2725 
Q 1550 2850 1800 2850 
Q 2225 2850 2425 2625 
Q 2625 2400 2625 1950 
L 2625 350 
Q 2625 250 2687 200 
Q 2750 150 2850 150 
L 2975 150 
L 2975 0 
L 1925 0 
L 1925 150 
L 2050 150 
Q 2175 150 2225 200 
Q 2275 250 2275 350 
L 2275 2025 
Q 2275 2325 2150 2487 
Q 2025 2650 1775 2650 
Q 1550 2650 1312 2500 
Q 1075 2350 875 2075 
L 875 350 
Q 875 250 937 200 
Q 1000 150 1100 150 
L 1225 150 
L 1225 0 
L 175 0 
z
" transform="scale(0.015625)"/>
       <path id="FangSong-63" d="M 2125 2125 
Q 2125 2200 2137 2225 
Q 2150 2250 2175 2325 
Q 2200 2425 2075 2562 
Q 1950 2700 1650 2700 
Q 1275 2700 1012 2337 
Q 750 1975 750 1375 
Q 750 825 975 487 
Q 1200 150 1725 150 
Q 2075 150 2312 375 
Q 2550 600 2650 900 
L 2775 850 
Q 2675 475 2400 212 
Q 2125 -50 1650 -50 
Q 1050 -50 700 325 
Q 350 700 350 1400 
Q 350 2025 725 2437 
Q 1100 2850 1700 2850 
Q 2125 2850 2362 2625 
Q 2600 2400 2600 2175 
Q 2600 2025 2537 1962 
Q 2475 1900 2350 1900 
Q 2250 1900 2187 1962 
Q 2125 2025 2125 2125 
z
" transform="scale(0.015625)"/>
       <path id="FangSong-79" d="M 1625 700 
L 1675 700 
L 2225 2375 
Q 2275 2500 2212 2575 
Q 2150 2650 2050 2650 
L 1900 2650 
L 1900 2800 
L 2950 2800 
L 2950 2650 
L 2800 2650 
Q 2700 2650 2600 2575 
Q 2500 2500 2450 2375 
L 1600 -100 
Q 1475 -500 1287 -712 
Q 1100 -925 800 -950 
Q 650 -950 537 -875 
Q 425 -800 425 -675 
Q 425 -575 487 -500 
Q 550 -425 675 -425 
Q 775 -425 837 -525 
Q 900 -625 1050 -587 
Q 1200 -550 1250 -425 
Q 1300 -350 1375 -162 
Q 1450 25 1500 225 
L 650 2425 
Q 625 2525 537 2587 
Q 450 2650 350 2650 
L 250 2650 
L 250 2800 
L 1300 2800 
L 1300 2650 
L 1200 2650 
Q 1100 2650 1050 2587 
Q 1000 2525 1025 2400 
L 1625 700 
z
" transform="scale(0.015625)"/>
      </defs>
      <use xlink:href="#FangSong-4c"/>
      <use xlink:href="#FangSong-61" x="50"/>
      <use xlink:href="#FangSong-74" x="100"/>
      <use xlink:href="#FangSong-65" x="150"/>
      <use xlink:href="#FangSong-6e" x="200"/>
      <use xlink:href="#FangSong-63" x="250"/>
      <use xlink:href="#FangSong-79" x="300"/>
     </g>
    </g>
   </g>
   <g id="matplotlib.axis_2">
    <g id="ytick_1">
     <g id="line2d_7">
      <defs>
       <path id="m35b8909757" d="M 0 0 
L -3.5 0 
" style="stroke: #000000; stroke-width: 0.8"/>
      </defs>
      <g>
       <use xlink:href="#m35b8909757" x="57.6" y="295.488" style="stroke: #000000; stroke-width: 0.8"/>
      </g>
     </g>
     <g id="text_8">
      <!-- 0% -->
      <g transform="translate(40.6 298.984094) scale(0.1 -0.1)">
       <defs>
        <path id="FangSong-25" d="M 725 4150 
Q 575 4150 475 3950 
Q 375 3750 375 3200 
Q 375 2575 487 2387 
Q 600 2200 725 2200 
Q 900 2200 987 2425 
Q 1075 2650 1075 3200 
Q 1075 3650 1012 3900 
Q 950 4150 725 4150 
z
M 1400 3175 
Q 1400 2725 1250 2387 
Q 1100 2050 725 2050 
Q 425 2050 237 2350 
Q 50 2650 50 3175 
Q 50 3725 250 4025 
Q 450 4325 725 4325 
Q 1025 4325 1212 4012 
Q 1400 3700 1400 3175 
z
M 2700 1100 
Q 2700 1525 2625 1800 
Q 2550 2075 2350 2075 
Q 2200 2075 2100 1837 
Q 2000 1600 2000 1100 
Q 2000 475 2112 300 
Q 2225 125 2350 125 
Q 2525 125 2612 337 
Q 2700 550 2700 1100 
z
M 3025 1075 
Q 3025 575 2850 262 
Q 2675 -50 2350 -50 
Q 2075 -50 1875 262 
Q 1675 575 1675 1075 
Q 1675 1625 1875 1937 
Q 2075 2250 2350 2250 
Q 2650 2250 2837 1925 
Q 3025 1600 3025 1075 
z
M 2500 4250 
L 700 -50 
L 550 25 
L 2325 4325 
L 2500 4250 
z
" transform="scale(0.015625)"/>
       </defs>
       <use xlink:href="#FangSong-30"/>
       <use xlink:href="#FangSong-25" x="50"/>
      </g>
     </g>
    </g>
    <g id="ytick_2">
     <g id="line2d_8">
      <g>
       <use xlink:href="#m35b8909757" x="57.6" y="247.104" style="stroke: #000000; stroke-width: 0.8"/>
      </g>
     </g>
     <g id="text_9">
      <!-- 20% -->
      <g transform="translate(35.6 250.600094) scale(0.1 -0.1)">
       <use xlink:href="#FangSong-32"/>
       <use xlink:href="#FangSong-30" x="50"/>
       <use xlink:href="#FangSong-25" x="100"/>
      </g>
     </g>
    </g>
    <g id="ytick_3">
     <g id="line2d_9">
      <g>
       <use xlink:href="#m35b8909757" x="57.6" y="198.72" style="stroke: #000000; stroke-width: 0.8"/>
      </g>
     </g>
     <g id="text_10">
      <!-- 40% -->
      <g transform="translate(35.6 202.216094) scale(0.1 -0.1)">
       <use xlink:href="#FangSong-34"/>
       <use xlink:href="#FangSong-30" x="50"/>
       <use xlink:href="#FangSong-25" x="100"/>
      </g>
     </g>
    </g>
    <g id="ytick_4">
     <g id="line2d_10">
      <g>
       <use xlink:href="#m35b8909757" x="57.6" y="150.336" style="stroke: #000000; stroke-width: 0.8"/>
      </g>
     </g>
     <g id="text_11">
      <!-- 60% -->
      <g transform="translate(35.6 153.832094) scale(0.1 -0.1)">
       <defs>
        <path id="FangSong-36" d="M 750 1700 
Q 750 950 1012 537 
Q 1275 125 1650 125 
Q 2025 125 2225 400 
Q 2425 675 2425 1425 
Q 2425 1925 2212 2200 
Q 2000 2475 1700 2475 
Q 1425 2475 1187 2312 
Q 950 2150 750 1700 
z
M 1725 2725 
Q 2325 2725 2587 2325 
Q 2850 1925 2850 1425 
Q 2850 675 2487 312 
Q 2125 -50 1650 -50 
Q 975 -50 625 462 
Q 275 975 275 1950 
Q 275 3100 700 3712 
Q 1125 4325 1850 4325 
Q 2200 4325 2412 4125 
Q 2625 3925 2625 3775 
Q 2625 3625 2562 3550 
Q 2500 3475 2350 3475 
Q 2225 3475 2162 3537 
Q 2100 3600 2100 3725 
Q 2100 3775 2112 3825 
Q 2125 3875 2125 3925 
Q 2125 4025 2050 4087 
Q 1975 4150 1775 4150 
Q 1350 4150 1050 3762 
Q 750 3375 750 2075 
Q 900 2400 1162 2562 
Q 1425 2725 1725 2725 
z
" transform="scale(0.015625)"/>
       </defs>
       <use xlink:href="#FangSong-36"/>
       <use xlink:href="#FangSong-30" x="50"/>
       <use xlink:href="#FangSong-25" x="100"/>
      </g>
     </g>
    </g>
    <g id="ytick_5">
     <g id="line2d_11">
      <g>
       <use xlink:href="#m35b8909757" x="57.6" y="101.952" style="stroke: #000000; stroke-width: 0.8"/>
      </g>
     </g>
     <g id="text_12">
      <!-- 80% -->
      <g transform="translate(35.6 105.448094) scale(0.1 -0.1)">
       <defs>
        <path id="FangSong-38" d="M 600 1025 
Q 600 625 862 375 
Q 1125 125 1525 125 
Q 2000 125 2212 375 
Q 2425 625 2425 1000 
Q 2425 1325 2125 1625 
Q 1825 1925 1225 2175 
Q 925 1975 762 1675 
Q 600 1375 600 1025 
z
M 2800 1075 
Q 2800 600 2450 275 
Q 2100 -50 1525 -50 
Q 1000 -50 625 275 
Q 250 600 250 1025 
Q 250 1450 462 1750 
Q 675 2050 1075 2275 
Q 725 2450 537 2712 
Q 350 2975 350 3300 
Q 350 3725 675 4025 
Q 1000 4325 1575 4325 
Q 2100 4325 2425 4025 
Q 2750 3725 2750 3300 
Q 2750 3000 2562 2737 
Q 2375 2475 1975 2275 
Q 2400 2025 2600 1725 
Q 2800 1425 2800 1075 
z
M 2400 3275 
Q 2400 3625 2200 3887 
Q 2000 4150 1575 4150 
Q 1100 4150 900 3900 
Q 700 3650 700 3375 
Q 700 3100 987 2837 
Q 1275 2575 1800 2375 
Q 2100 2525 2250 2750 
Q 2400 2975 2400 3275 
z
" transform="scale(0.015625)"/>
       </defs>
       <use xlink:href="#FangSong-38"/>
       <use xlink:href="#FangSong-30" x="50"/>
       <use xlink:href="#FangSong-25" x="100"/>
      </g>
     </g>
    </g>
    <g id="ytick_6">
     <g id="line2d_12">
      <g>
       <use xlink:href="#m35b8909757" x="57.6" y="53.568" style="stroke: #000000; stroke-width: 0.8"/>
      </g>
     </g>
     <g id="text_13">
      <!-- 100% -->
      <g transform="translate(30.6 57.064094) scale(0.1 -0.1)">
       <use xlink:href="#FangSong-31"/>
       <use xlink:href="#FangSong-30" x="50"/>
       <use xlink:href="#FangSong-30" x="100"/>
       <use xlink:href="#FangSong-25" x="150"/>
      </g>
     </g>
    </g>
    <g id="text_14">
     <!-- 累计完成比例 -->
     <g transform="translate(25.154688 204.528) rotate(-90) scale(0.1 -0.1)">
      <defs>
       <path id="FangSong-7d2f" d="M 4525 4975 
L 4700 5225 
L 5000 4950 
L 4825 4775 
L 4625 3550 
L 4850 3300 
L 3175 3150 
L 3375 2975 
Q 3200 2925 2862 2725 
Q 2525 2525 2075 2275 
L 3475 2500 
Q 3750 2675 3900 2800 
Q 4050 2925 4100 3075 
L 4175 3100 
L 4325 2700 
Q 4200 2675 3500 2237 
Q 2800 1800 2275 1550 
L 4375 1825 
L 3900 2175 
L 4000 2275 
Q 4625 1900 4950 1725 
Q 4975 1475 4925 1225 
Q 4800 1375 4500 1675 
L 3250 1475 
L 3525 1300 
Q 3375 1200 3375 875 
L 3375 25 
Q 3375 -325 3225 -625 
Q 2975 -325 2400 150 
L 2450 250 
L 3050 -75 
Q 3150 -125 3150 0 
L 3150 925 
Q 3150 1300 3125 1450 
Q 1875 1275 1575 1175 
L 1325 1425 
L 1850 1550 
Q 2175 1700 3250 2300 
Q 2075 2100 1875 2000 
L 1575 2250 
L 1800 2300 
Q 2150 2475 3025 3125 
L 2000 3025 
Q 2000 2675 1950 2700 
Q 1900 2725 1650 3025 
Q 1725 3250 1725 3425 
L 1650 4400 
Q 1625 4675 1525 4950 
L 1625 5000 
L 1875 4675 
L 4525 4975 
z
M 3150 3375 
L 3150 3875 
Q 2525 3800 2400 3725 
L 2100 3975 
Q 2500 3975 3150 4075 
L 3150 4600 
L 1900 4450 
L 1975 3250 
L 3150 3375 
z
M 3375 4100 
Q 3950 4175 4025 4225 
L 4275 4000 
Q 3950 3975 3375 3900 
L 3375 3400 
L 4400 3500 
L 4575 4750 
L 3375 4600 
L 3375 4100 
z
M 5450 -75 
Q 4975 325 3875 1025 
L 3950 1125 
Q 4850 700 5350 500 
Q 5425 250 5450 -75 
z
M 800 -250 
Q 1350 75 1825 500 
Q 2300 925 2325 1125 
L 2400 1150 
L 2550 725 
Q 2425 700 2075 425 
Q 1725 150 875 -350 
L 800 -250 
z
" transform="scale(0.015625)"/>
       <path id="FangSong-8ba1" d="M 4075 4200 
Q 4100 4825 3900 5100 
L 3975 5150 
L 4450 4725 
Q 4275 4600 4300 4200 
L 4275 3000 
Q 5525 3200 5575 3250 
L 5950 2950 
Q 5725 2975 4275 2800 
L 4250 -425 
Q 4250 -700 4150 -575 
L 3875 -150 
Q 4050 50 4025 300 
L 4050 2750 
Q 2975 2625 2900 2575 
L 2525 2825 
Q 2850 2825 4050 2975 
L 4075 4200 
z
M 1775 3250 
L 2100 2950 
L 1900 2750 
L 1875 550 
L 2825 1250 
L 2875 1175 
Q 1875 250 1750 -25 
L 1525 275 
Q 1625 375 1650 625 
L 1675 2775 
Q 900 2625 750 2550 
L 425 2800 
Q 850 2825 1650 3000 
L 1775 3250 
z
M 2025 3800 
Q 1825 4300 1325 4950 
L 1375 5025 
Q 1925 4575 2175 4300 
Q 2125 4000 2025 3800 
z
" transform="scale(0.015625)"/>
       <path id="FangSong-5b8c" d="M 5375 2050 
Q 4925 2050 3550 1950 
L 3850 1750 
Q 3725 1600 3700 1375 
L 3675 275 
Q 3650 -125 4075 -175 
L 4925 -175 
Q 5300 -150 5312 62 
Q 5325 275 5325 1025 
L 5425 1025 
Q 5450 750 5475 337 
Q 5500 -75 5700 -275 
Q 5400 -375 5000 -400 
L 4075 -400 
Q 3425 -350 3425 150 
L 3475 1450 
Q 3475 1775 3425 1925 
L 2675 1850 
L 2875 1650 
Q 2750 1550 2600 1200 
Q 2450 850 2025 312 
Q 1600 -225 600 -675 
L 550 -575 
Q 1525 -100 1987 625 
Q 2450 1350 2525 1850 
Q 1550 1775 1500 1725 
L 1150 2025 
Q 1625 2025 3212 2150 
Q 4800 2275 5000 2350 
L 5375 2050 
z
M 1650 3650 
Q 1550 3125 1325 2875 
L 1150 3250 
Q 1450 3425 1575 4400 
L 1675 4400 
L 1675 3900 
L 5025 4150 
L 5175 4400 
L 5525 4075 
Q 5375 4050 4725 3250 
L 4650 3325 
L 4975 3900 
L 1650 3650 
z
M 4475 2975 
Q 4225 2975 3412 2875 
Q 2600 2775 2400 2725 
L 2050 2975 
Q 2575 2975 3200 3075 
Q 3825 3175 4150 3225 
L 4475 2975 
z
M 3550 4575 
Q 3475 4350 3300 4150 
Q 3225 4475 2900 5200 
L 2975 5250 
Q 3350 4825 3550 4575 
z
" transform="scale(0.015625)"/>
       <path id="FangSong-6210" d="M 5575 975 
Q 5600 -150 5750 -625 
Q 4650 -225 4000 1075 
Q 3625 650 2975 225 
L 2925 325 
Q 3525 825 3900 1300 
Q 3600 2275 3500 3300 
L 1875 3125 
Q 1875 2625 1825 2100 
L 2725 2250 
L 2875 2475 
L 3175 2225 
L 3000 2050 
Q 2850 475 2575 -125 
Q 2225 400 1825 775 
L 1875 850 
L 2475 400 
Q 2650 875 2750 2000 
L 1825 1850 
Q 1675 250 600 -650 
L 525 -600 
Q 1250 250 1425 987 
Q 1600 1725 1625 2612 
Q 1650 3500 1550 3800 
L 1625 3825 
L 1850 3350 
L 3450 3525 
Q 3400 4150 3375 4562 
Q 3350 4975 3225 5200 
L 3275 5225 
L 3725 4900 
Q 3625 4925 3637 4575 
Q 3650 4225 3675 3550 
Q 4900 3700 5050 3775 
L 5325 3475 
Q 4775 3475 3725 3325 
Q 3775 2425 4075 1525 
Q 4500 2025 4687 2325 
Q 4875 2625 4800 2850 
L 4875 2875 
L 5125 2325 
Q 5075 2400 4850 2125 
Q 4625 1850 4150 1275 
Q 4625 225 5425 -125 
L 5475 975 
L 5575 975 
z
M 4100 5000 
Q 4525 4700 4875 4450 
Q 4825 4250 4750 4025 
Q 4400 4525 4025 4950 
L 4100 5000 
z
" transform="scale(0.015625)"/>
       <path id="FangSong-6bd4" d="M 3500 2125 
Q 3925 2425 4487 2975 
Q 5050 3525 4950 3750 
L 5025 3775 
L 5250 3225 
Q 5175 3250 4875 3000 
Q 4575 2750 4287 2525 
Q 4000 2300 3500 1900 
L 3500 575 
Q 3475 -100 4150 -100 
L 4800 -100 
Q 5275 -100 5375 12 
Q 5475 125 5450 1350 
L 5575 1350 
Q 5600 825 5637 412 
Q 5675 0 5800 -175 
Q 5375 -325 4800 -325 
L 4150 -325 
Q 3225 -350 3275 550 
L 3275 4300 
Q 3275 4875 3150 5150 
L 3200 5200 
L 3625 4850 
Q 3475 4825 3500 4250 
L 3500 2125 
z
M 1500 2575 
Q 1900 2625 2337 2712 
Q 2775 2800 2800 2850 
L 3075 2600 
Q 2875 2575 2350 2475 
Q 1825 2375 1775 2325 
L 1500 2525 
L 1500 150 
L 2925 1075 
L 2975 1025 
Q 1550 -75 1375 -350 
L 1200 0 
Q 1275 75 1275 350 
L 1275 3925 
Q 1275 4475 1150 4750 
L 1200 4800 
L 1625 4400 
Q 1475 4375 1500 3925 
L 1500 2575 
z
" transform="scale(0.015625)"/>
       <path id="FangSong-4f8b" d="M 3050 2000 
Q 3025 1800 2975 1600 
Q 2775 1900 2525 2250 
Q 2300 1875 2025 1550 
L 1925 1625 
Q 2675 2725 2975 3975 
Q 2475 3925 2375 3875 
L 2050 4125 
Q 2375 4125 3162 4225 
Q 3950 4325 4100 4450 
L 4350 4125 
Q 4050 4150 3100 3975 
L 3300 3700 
Q 3200 3675 3125 3525 
Q 3050 3375 2925 3050 
L 3625 3150 
L 3775 3350 
L 4050 3075 
L 3875 2900 
Q 3300 825 1850 -225 
L 1800 -100 
Q 3100 975 3625 2900 
Q 3150 2825 3025 2775 
L 2875 2925 
Q 2775 2675 2575 2350 
Q 2900 2125 3050 2000 
z
M 1275 -150 
Q 1425 25 1400 225 
L 1450 3425 
Q 1025 2800 475 2225 
L 400 2325 
Q 875 2850 1450 3887 
Q 2025 4925 1925 5150 
L 2000 5175 
L 2250 4700 
Q 2200 4725 2062 4475 
Q 1925 4225 1675 3800 
L 1625 -325 
Q 1650 -675 1525 -600 
L 1275 -150 
z
M 5475 250 
Q 5475 -300 5300 -650 
Q 4900 -100 4300 375 
L 4350 475 
L 5200 -75 
Q 5250 250 5250 575 
L 5250 4350 
Q 5275 4950 5100 5150 
L 5175 5225 
L 5600 4850 
Q 5450 4775 5475 4325 
L 5475 250 
z
M 4300 1525 
Q 4400 1650 4400 1900 
L 4400 3075 
Q 4425 3525 4300 3750 
L 4350 3800 
L 4725 3450 
Q 4600 3350 4625 3025 
L 4625 1375 
Q 4625 1050 4550 1125 
L 4300 1525 
z
" transform="scale(0.015625)"/>
      </defs>
      <use xlink:href="#FangSong-7d2f"/>
      <use xlink:href="#FangSong-8ba1" x="100"/>
      <use xlink:href="#FangSong-5b8c" x="200"/>
      <use xlink:href="#FangSong-6210" x="300"/>
      <use xlink:href="#FangSong-6bd4" x="400"/>
      <use xlink:href="#FangSong-4f8b" x="500"/>
     </g>
    </g>
   </g>
   <g id="line2d_13">
    <path d="M 73.832727 295.488 
L 74.498003 207.67104 
L 75.163279 207.67104 
L 75.828554 207.1872 
L 76.49383 206.46144 
L 77.159106 206.46144 
L 77.824382 205.9776 
L 78.489657 205.9776 
L 79.154933 205.25184 
L 79.820209 205.00992 
L 80.485484 205.00992 
L 81.15076 204.768 
L 81.816036 204.28416 
L 83.146587 202.83264 
L 83.811863 202.83264 
L 84.477139 202.59072 
L 85.142414 202.59072 
L 87.803517 201.62304 
L 89.134069 200.65536 
L 89.799344 199.20384 
L 90.46462 198.96192 
L 91.129896 198.23616 
L 92.460447 197.26848 
L 93.125723 196.54272 
L 93.790999 196.05888 
L 94.456274 195.33312 
L 95.12155 194.12352 
L 95.786826 193.39776 
L 97.117377 190.97856 
L 97.782653 190.01088 
L 99.113204 186.86592 
L 99.77848 186.624 
L 101.109031 183.47904 
L 101.774307 182.75328 
L 102.439583 182.26944 
L 103.770134 179.85024 
L 104.43541 179.60832 
L 105.765961 178.1568 
L 106.431237 177.18912 
L 107.096513 176.9472 
L 107.761788 175.97952 
L 109.09234 174.528 
L 109.757615 174.28608 
L 110.422891 173.3184 
L 111.088167 172.59264 
L 111.753443 170.8992 
L 112.418718 170.17344 
L 113.083994 170.17344 
L 113.74927 169.6896 
L 114.414545 168.48 
L 115.079821 167.99616 
L 115.745097 166.78656 
L 116.410373 165.33504 
L 117.075648 162.67392 
L 118.4062 159.04512 
L 119.071475 157.35168 
L 120.402027 155.41632 
L 121.067303 154.69056 
L 121.732578 152.51328 
L 122.397854 151.06176 
L 123.06313 150.57792 
L 124.393681 147.9168 
L 125.058957 146.94912 
L 125.724232 145.73952 
L 126.389508 144.77184 
L 127.054784 143.32032 
L 127.72006 142.35264 
L 128.385335 140.90112 
L 129.050611 138.96576 
L 130.381162 134.36928 
L 131.046438 133.15968 
L 132.37699 131.70816 
L 133.042265 131.22432 
L 133.707541 131.22432 
L 134.372817 130.9824 
L 135.703368 130.01472 
L 136.368644 129.04704 
L 137.03392 128.32128 
L 137.699195 128.07936 
L 139.029747 127.11168 
L 139.695022 125.90208 
L 140.360298 125.90208 
L 142.356125 124.45056 
L 143.021401 123.7248 
L 143.686677 123.48288 
L 144.351952 123.48288 
L 145.017228 122.5152 
L 145.682504 122.03136 
L 146.347779 121.78944 
L 147.013055 121.3056 
L 148.343607 121.3056 
L 153.000537 119.61216 
L 153.665812 118.64448 
L 154.331088 118.40256 
L 154.996364 117.6768 
L 155.661639 117.43488 
L 156.992191 115.98336 
L 157.657466 115.49952 
L 158.988018 114.048 
L 159.653294 112.8384 
L 160.318569 112.59648 
L 161.649121 111.6288 
L 162.314396 110.90304 
L 162.979672 110.4192 
L 163.644948 109.45152 
L 164.310224 109.2096 
L 164.975499 108.48384 
L 165.640775 108 
L 166.306051 107.27424 
L 167.636602 106.30656 
L 168.301878 105.33888 
L 168.967154 105.09696 
L 169.632429 104.3712 
L 170.962981 103.88736 
L 171.628256 103.40352 
L 172.958808 101.952 
L 173.624083 100.50048 
L 174.289359 100.01664 
L 176.285186 99.29088 
L 176.950462 98.80704 
L 177.615738 98.08128 
L 178.281013 97.1136 
L 178.946289 96.62976 
L 179.611565 95.42016 
L 180.276841 94.93632 
L 180.942116 93.96864 
L 181.607392 91.54944 
L 182.272668 90.58176 
L 182.937943 90.09792 
L 183.603219 89.856 
L 184.268495 88.6464 
L 184.93377 88.16256 
L 185.599046 87.92064 
L 186.264322 86.95296 
L 186.929598 86.2272 
L 188.260149 85.25952 
L 188.925425 85.25952 
L 189.5907 85.0176 
L 190.255976 85.0176 
L 190.921252 84.53376 
L 191.586528 83.56608 
L 192.251803 83.32416 
L 192.917079 82.35648 
L 193.582355 82.35648 
L 194.24763 81.63072 
L 195.578182 81.14688 
L 196.243458 81.14688 
L 197.574009 80.1792 
L 198.239285 79.93728 
L 199.569836 79.93728 
L 200.235112 79.69536 
L 201.565663 79.69536 
L 202.230939 79.21152 
L 202.896215 78.48576 
L 207.553145 78.48576 
L 208.21842 78.24384 
L 209.548972 78.24384 
L 210.879523 77.76 
L 211.544799 77.03424 
L 212.210075 76.79232 
L 215.536453 76.79232 
L 216.867004 75.82464 
L 217.53228 75.82464 
L 218.862832 75.3408 
L 219.528107 74.61504 
L 220.193383 73.16352 
L 220.858659 72.43776 
L 221.523934 71.95392 
L 222.18921 71.712 
L 224.850313 71.712 
L 225.515589 71.47008 
L 226.84614 71.47008 
L 227.511416 71.22816 
L 228.176692 71.22816 
L 229.507243 70.74432 
L 230.172519 70.74432 
L 231.50307 70.26048 
L 232.168346 70.26048 
L 234.164173 69.53472 
L 234.829449 69.05088 
L 236.825276 68.32512 
L 238.155827 67.35744 
L 238.821103 67.35744 
L 239.486379 67.11552 
L 240.81693 67.11552 
L 241.482206 66.8736 
L 242.812757 66.8736 
L 244.143308 66.38976 
L 244.808584 66.38976 
L 245.47386 66.14784 
L 254.122444 66.14784 
L 254.78772 65.90592 
L 255.452996 65.90592 
L 256.118271 65.664 
L 259.44465 65.664 
L 260.109925 65.42208 
L 260.775201 65.42208 
L 261.440477 65.18016 
L 265.432131 65.18016 
L 267.427958 64.4544 
L 268.093234 64.4544 
L 268.75851 64.21248 
L 270.089061 63.2448 
L 270.754337 62.51904 
L 271.419613 62.51904 
L 272.084888 62.27712 
L 272.750164 62.27712 
L 274.080715 61.79328 
L 282.064024 61.79328 
L 282.7293 61.55136 
L 284.725127 61.55136 
L 285.390402 61.30944 
L 286.055678 61.30944 
L 286.720954 61.06752 
L 289.382057 61.06752 
L 290.047332 60.8256 
L 293.373711 60.8256 
L 294.038987 60.34176 
L 299.361192 60.34176 
L 300.026468 60.09984 
L 302.687571 60.09984 
L 303.352846 59.85792 
L 304.018122 59.85792 
L 304.683398 59.616 
L 313.331982 59.616 
L 313.997258 59.37408 
L 321.315291 59.37408 
L 321.980566 59.13216 
L 327.968048 59.13216 
L 328.633323 58.89024 
L 331.294426 58.89024 
L 331.959702 58.64832 
L 332.624978 58.16448 
L 334.620805 57.43872 
L 337.281908 57.43872 
L 337.947183 56.95488 
L 338.612459 56.95488 
L 339.277735 56.71296 
L 339.94301 56.71296 
L 340.608286 56.47104 
L 341.273562 56.47104 
L 341.938838 55.9872 
L 343.269389 55.9872 
L 343.934665 55.74528 
L 349.25687 55.74528 
L 349.922146 55.50336 
L 361.231833 55.50336 
L 361.897109 55.26144 
L 373.872072 55.26144 
L 374.537347 55.01952 
L 387.842861 55.01952 
L 388.508137 54.7776 
L 389.838689 54.7776 
L 390.503964 54.53568 
L 393.830343 54.53568 
L 395.160894 54.05184 
L 395.82617 54.05184 
L 396.491446 53.80992 
L 397.821997 53.80992 
L 398.487273 53.568 
L 398.487273 53.568 
" clip-path="url(#pf402855f3a)" style="fill: none; stroke: #ff0000; stroke-linecap: square"/>
   </g>
   <g id="line2d_14">
    <path d="M 73.832727 295.488 
L 74.498003 224.1216 
L 75.163279 224.1216 
L 75.828554 222.912 
L 77.159106 222.912 
L 77.824382 221.7024 
L 78.489657 221.7024 
L 79.820209 219.2832 
L 81.816036 219.2832 
L 83.146587 214.4448 
L 86.472966 214.4448 
L 87.803517 212.0256 
L 88.468793 212.0256 
L 89.799344 209.6064 
L 90.46462 209.6064 
L 91.795171 207.1872 
L 92.460447 207.1872 
L 93.125723 205.9776 
L 94.456274 205.9776 
L 95.786826 203.5584 
L 96.452101 201.1392 
L 97.117377 199.9296 
L 97.782653 199.9296 
L 98.447928 198.72 
L 100.443756 198.72 
L 101.109031 196.3008 
L 102.439583 193.8816 
L 103.104858 191.4624 
L 103.770134 191.4624 
L 104.43541 190.2528 
L 107.096513 190.2528 
L 107.761788 187.8336 
L 108.427064 186.624 
L 109.757615 186.624 
L 110.422891 185.4144 
L 111.088167 182.9952 
L 113.74927 182.9952 
L 114.414545 180.576 
L 115.745097 178.1568 
L 117.075648 173.3184 
L 117.740924 169.6896 
L 118.4062 167.2704 
L 119.736751 164.8512 
L 120.402027 162.432 
L 121.067303 162.432 
L 121.732578 160.0128 
L 122.397854 156.384 
L 123.728405 153.9648 
L 124.393681 150.336 
L 125.058957 150.336 
L 127.054784 146.7072 
L 127.72006 146.7072 
L 128.385335 144.288 
L 129.050611 143.0784 
L 131.046438 143.0784 
L 133.042265 139.4496 
L 135.038092 139.4496 
L 135.703368 138.24 
L 136.368644 134.6112 
L 138.364471 134.6112 
L 139.695022 129.7728 
L 140.360298 129.7728 
L 141.690849 127.3536 
L 142.356125 127.3536 
L 143.686677 124.9344 
L 146.347779 124.9344 
L 147.013055 122.5152 
L 151.004709 122.5152 
L 153.000537 118.8864 
L 153.665812 116.4672 
L 154.331088 115.2576 
L 155.661639 115.2576 
L 156.326915 112.8384 
L 156.992191 112.8384 
L 157.657466 110.4192 
L 159.653294 106.7904 
L 160.983845 106.7904 
L 161.649121 105.5808 
L 162.314396 103.1616 
L 162.979672 103.1616 
L 163.644948 101.952 
L 164.975499 101.952 
L 165.640775 99.5328 
L 166.306051 98.3232 
L 166.971326 98.3232 
L 167.636602 97.1136 
L 168.301878 97.1136 
L 168.967154 95.904 
L 170.962981 95.904 
L 171.628256 93.4848 
L 172.293532 93.4848 
L 172.958808 89.856 
L 174.954635 86.2272 
L 176.950462 86.2272 
L 177.615738 85.0176 
L 178.281013 81.3888 
L 180.276841 77.76 
L 180.942116 77.76 
L 181.607392 76.5504 
L 182.272668 76.5504 
L 184.268495 72.9216 
L 185.599046 72.9216 
L 186.264322 70.5024 
L 190.921252 70.5024 
L 191.586528 68.0832 
L 192.251803 68.0832 
L 192.917079 66.8736 
L 201.565663 66.8736 
L 202.896215 64.4544 
L 210.879523 64.4544 
L 211.544799 62.0352 
L 215.536453 62.0352 
L 216.201729 60.8256 
L 232.833621 60.8256 
L 234.164173 58.4064 
L 235.494724 58.4064 
L 236.16 57.1968 
L 236.825276 57.1968 
L 237.490551 55.9872 
L 238.821103 55.9872 
L 239.486379 54.7776 
L 259.44465 54.7776 
L 260.109925 53.568 
L 398.487273 53.568 
L 398.487273 53.568 
" clip-path="url(#pf402855f3a)" style="fill: none; stroke-dasharray: 1.85,0.8; stroke-dashoffset: 0; stroke: #008000; stroke-width: 0.5"/>
   </g>
   <g id="line2d_15">
    <path d="M 73.832727 295.488 
L 74.498003 184.2048 
L 75.163279 184.2048 
L 75.828554 182.9952 
L 76.49383 180.576 
L 78.489657 180.576 
L 79.154933 179.3664 
L 80.485484 179.3664 
L 81.15076 178.1568 
L 81.816036 178.1568 
L 83.146587 175.7376 
L 89.134069 175.7376 
L 89.799344 170.8992 
L 90.46462 169.6896 
L 91.129896 169.6896 
L 91.795171 168.48 
L 92.460447 168.48 
L 93.125723 167.2704 
L 93.790999 167.2704 
L 95.12155 160.0128 
L 97.782653 155.1744 
L 98.447928 152.7552 
L 99.113204 151.5456 
L 99.77848 151.5456 
L 100.443756 146.7072 
L 101.109031 145.4976 
L 101.774307 145.4976 
L 103.104858 143.0784 
L 105.100686 143.0784 
L 105.765961 140.6592 
L 106.431237 139.4496 
L 107.096513 139.4496 
L 107.761788 138.24 
L 111.088167 138.24 
L 111.753443 137.0304 
L 113.083994 137.0304 
L 114.414545 132.192 
L 115.079821 132.192 
L 115.745097 129.7728 
L 117.740924 126.144 
L 118.4062 126.144 
L 119.071475 124.9344 
L 119.736751 124.9344 
L 121.067303 122.5152 
L 121.732578 120.096 
L 123.06313 117.6768 
L 123.728405 115.2576 
L 124.393681 114.048 
L 125.058957 114.048 
L 126.389508 111.6288 
L 127.054784 111.6288 
L 127.72006 109.2096 
L 128.385335 108 
L 129.050611 104.3712 
L 129.715887 103.1616 
L 130.381162 100.7424 
L 136.368644 100.7424 
L 137.03392 99.5328 
L 137.699195 99.5328 
L 138.364471 98.3232 
L 139.029747 98.3232 
L 139.695022 95.904 
L 142.356125 95.904 
L 143.021401 94.6944 
L 144.351952 94.6944 
L 145.017228 92.2752 
L 145.682504 91.0656 
L 148.343607 91.0656 
L 149.008882 89.856 
L 150.339434 89.856 
L 151.004709 88.6464 
L 154.331088 88.6464 
L 154.996364 87.4368 
L 155.661639 87.4368 
L 156.326915 86.2272 
L 157.657466 86.2272 
L 158.322742 83.808 
L 158.988018 82.5984 
L 160.318569 82.5984 
L 162.314396 78.9696 
L 162.979672 78.9696 
L 163.644948 76.5504 
L 164.310224 76.5504 
L 164.975499 75.3408 
L 166.306051 75.3408 
L 168.301878 71.712 
L 170.297705 71.712 
L 170.962981 70.5024 
L 171.628256 70.5024 
L 172.293532 69.2928 
L 179.611565 69.2928 
L 180.276841 68.0832 
L 180.942116 68.0832 
L 181.607392 65.664 
L 186.264322 65.664 
L 186.929598 64.4544 
L 187.594873 64.4544 
L 188.260149 63.2448 
L 190.255976 63.2448 
L 191.586528 60.8256 
L 193.582355 60.8256 
L 194.24763 59.616 
L 194.912906 59.616 
L 195.578182 58.4064 
L 196.908733 58.4064 
L 197.574009 55.9872 
L 202.230939 55.9872 
L 202.896215 54.7776 
L 226.84614 54.7776 
L 227.511416 53.568 
L 398.487273 53.568 
L 398.487273 53.568 
" clip-path="url(#pf402855f3a)" style="fill: none; stroke-dasharray: 1.85,0.8; stroke-dashoffset: 0; stroke: #0000ff; stroke-width: 0.5"/>
   </g>
   <g id="line2d_16">
    <path d="M 73.832727 295.488 
L 74.498003 190.776358 
L 77.159106 190.776358 
L 77.824382 189.572776 
L 81.15076 189.572776 
L 81.816036 188.369194 
L 83.811863 188.369194 
L 84.477139 187.165612 
L 85.142414 187.165612 
L 86.472966 184.758448 
L 87.803517 184.758448 
L 88.468793 182.351284 
L 89.134069 181.147701 
L 90.46462 181.147701 
L 91.129896 178.740537 
L 95.12155 178.740537 
L 97.782653 173.926209 
L 98.447928 171.519045 
L 99.77848 169.111881 
L 100.443756 169.111881 
L 101.109031 167.908299 
L 103.104858 167.908299 
L 103.770134 166.704716 
L 105.765961 166.704716 
L 106.431237 165.501134 
L 109.757615 165.501134 
L 110.422891 163.09397 
L 111.088167 161.890388 
L 111.753443 161.890388 
L 112.418718 159.483224 
L 116.410373 159.483224 
L 117.075648 158.279642 
L 117.740924 155.872478 
L 118.4062 154.668896 
L 119.071475 152.261731 
L 120.402027 152.261731 
L 121.067303 151.058149 
L 121.732578 145.040239 
L 122.397854 143.836657 
L 124.393681 143.836657 
L 125.058957 142.633075 
L 127.054784 142.633075 
L 127.72006 141.429493 
L 128.385335 141.429493 
L 130.381162 134.208 
L 133.042265 129.393672 
L 133.707541 129.393672 
L 135.038092 126.986507 
L 137.03392 126.986507 
L 138.364471 124.579343 
L 153.000537 124.579343 
L 153.665812 123.375761 
L 154.331088 123.375761 
L 154.996364 122.172179 
L 156.326915 122.172179 
L 156.992191 118.561433 
L 158.988018 118.561433 
L 159.653294 116.154269 
L 160.318569 114.950687 
L 162.314396 114.950687 
L 162.979672 113.747104 
L 163.644948 113.747104 
L 164.975499 111.33994 
L 165.640775 111.33994 
L 166.971326 108.932776 
L 171.628256 108.932776 
L 172.293532 107.729194 
L 172.958808 107.729194 
L 173.624083 104.118448 
L 174.289359 102.914866 
L 175.619911 102.914866 
L 177.615738 99.304119 
L 178.946289 99.304119 
L 179.611565 98.100537 
L 180.276841 98.100537 
L 181.607392 88.471881 
L 182.272668 86.064716 
L 182.937943 84.861134 
L 183.603219 84.861134 
L 184.268495 83.657552 
L 185.599046 83.657552 
L 186.264322 82.45397 
L 190.921252 82.45397 
L 192.917079 78.843224 
L 194.24763 78.843224 
L 194.912906 77.639642 
L 196.243458 77.639642 
L 196.908733 75.232478 
L 207.553145 75.232478 
L 208.21842 74.028896 
L 209.548972 74.028896 
L 212.210075 69.214567 
L 216.201729 69.214567 
L 216.867004 68.010985 
L 220.858659 68.010985 
L 221.523934 66.807403 
L 228.176692 66.807403 
L 229.507243 64.400239 
L 230.172519 64.400239 
L 230.837794 63.196657 
L 236.16 63.196657 
L 237.490551 60.789493 
L 240.81693 60.789493 
L 241.482206 59.58591 
L 242.812757 59.58591 
L 244.143308 57.178746 
L 289.382057 57.178746 
L 290.047332 55.975164 
L 293.373711 55.975164 
L 294.038987 54.771582 
L 299.361192 54.771582 
L 300.026468 53.568 
L 398.487273 53.568 
L 398.487273 53.568 
" clip-path="url(#pf402855f3a)" style="fill: none; stroke-dasharray: 1.85,0.8; stroke-dashoffset: 0; stroke: #bf00bf; stroke-width: 0.5"/>
   </g>
   <g id="line2d_17">
    <path d="M 73.832727 295.488 
L 74.498003 209.6064 
L 75.828554 209.6064 
L 76.49383 208.3968 
L 78.489657 208.3968 
L 79.154933 207.1872 
L 81.15076 207.1872 
L 81.816036 205.9776 
L 89.134069 205.9776 
L 89.799344 204.768 
L 91.795171 204.768 
L 92.460447 202.3488 
L 93.125723 201.1392 
L 93.790999 198.72 
L 94.456274 198.72 
L 95.12155 197.5104 
L 95.786826 197.5104 
L 96.452101 196.3008 
L 97.117377 193.8816 
L 97.782653 192.672 
L 98.447928 190.2528 
L 99.113204 186.624 
L 99.77848 186.624 
L 100.443756 182.9952 
L 101.774307 178.1568 
L 102.439583 178.1568 
L 103.104858 175.7376 
L 103.770134 172.1088 
L 104.43541 172.1088 
L 105.100686 168.48 
L 105.765961 167.2704 
L 106.431237 164.8512 
L 107.761788 162.432 
L 108.427064 160.0128 
L 109.09234 156.384 
L 110.422891 153.9648 
L 111.088167 153.9648 
L 111.753443 146.7072 
L 112.418718 145.4976 
L 113.74927 145.4976 
L 116.410373 140.6592 
L 117.075648 137.0304 
L 117.740924 134.6112 
L 118.4062 134.6112 
L 119.071475 133.4016 
L 119.736751 129.7728 
L 121.732578 129.7728 
L 122.397854 128.5632 
L 123.06313 128.5632 
L 123.728405 126.144 
L 124.393681 124.9344 
L 126.389508 117.6768 
L 127.054784 114.048 
L 127.72006 114.048 
L 128.385335 111.6288 
L 129.050611 110.4192 
L 129.715887 105.5808 
L 131.711714 101.952 
L 134.372817 101.952 
L 136.368644 98.3232 
L 137.03392 95.904 
L 140.360298 95.904 
L 143.021401 91.0656 
L 144.351952 91.0656 
L 146.347779 87.4368 
L 149.008882 87.4368 
L 150.339434 85.0176 
L 153.000537 85.0176 
L 153.665812 83.808 
L 154.331088 83.808 
L 155.661639 81.3888 
L 158.322742 81.3888 
L 159.653294 78.9696 
L 160.318569 78.9696 
L 160.983845 77.76 
L 162.314396 77.76 
L 163.644948 75.3408 
L 165.640775 75.3408 
L 166.306051 74.1312 
L 167.636602 74.1312 
L 168.301878 70.5024 
L 168.967154 70.5024 
L 170.297705 68.0832 
L 172.958808 68.0832 
L 173.624083 66.8736 
L 176.950462 66.8736 
L 177.615738 65.664 
L 178.281013 65.664 
L 178.946289 64.4544 
L 180.942116 64.4544 
L 182.272668 62.0352 
L 183.603219 62.0352 
L 184.268495 59.616 
L 192.251803 59.616 
L 192.917079 57.1968 
L 193.582355 57.1968 
L 194.24763 54.7776 
L 197.574009 54.7776 
L 198.239285 53.568 
L 398.487273 53.568 
L 398.487273 53.568 
" clip-path="url(#pf402855f3a)" style="fill: none; stroke-dasharray: 1.85,0.8; stroke-dashoffset: 0; stroke: #bfbf00; stroke-width: 0.5"/>
   </g>
   <g id="line2d_18">
    <path d="M 73.832727 295.488 
L 74.498003 229.841367 
L 97.117377 229.841367 
L 97.782653 228.625688 
L 98.447928 228.625688 
L 99.113204 227.41001 
L 103.104858 227.41001 
L 103.770134 226.194332 
L 115.079821 226.194332 
L 115.745097 224.978653 
L 116.410373 222.547296 
L 117.075648 217.684583 
L 117.740924 217.684583 
L 118.4062 212.821869 
L 119.071475 210.390513 
L 119.736751 210.390513 
L 121.067303 207.959156 
L 123.06313 207.959156 
L 123.728405 206.743477 
L 124.393681 206.743477 
L 125.724232 204.312121 
L 126.389508 204.312121 
L 127.054784 201.880764 
L 129.050611 198.233729 
L 129.715887 194.586693 
L 130.381162 189.72398 
L 131.046438 186.076945 
L 131.711714 186.076945 
L 132.37699 184.861266 
L 139.029747 184.861266 
L 139.695022 183.645588 
L 141.690849 183.645588 
L 142.356125 182.42991 
L 144.351952 182.42991 
L 145.017228 181.214231 
L 158.988018 181.214231 
L 159.653294 179.998553 
L 164.310224 179.998553 
L 164.975499 178.782874 
L 168.967154 178.782874 
L 169.632429 176.351518 
L 171.628256 176.351518 
L 172.293532 175.135839 
L 172.958808 175.135839 
L 173.624083 173.920161 
L 174.954635 173.920161 
L 175.619911 172.704482 
L 176.285186 172.704482 
L 176.950462 171.488804 
L 177.615738 171.488804 
L 178.281013 170.273126 
L 178.946289 170.273126 
L 179.611565 166.62609 
L 180.942116 166.62609 
L 181.607392 164.194734 
L 182.272668 162.979055 
L 183.603219 162.979055 
L 184.268495 161.763377 
L 184.93377 159.33202 
L 186.264322 156.900663 
L 187.594873 152.03795 
L 188.260149 150.822271 
L 188.925425 150.822271 
L 189.5907 149.606593 
L 190.255976 149.606593 
L 190.921252 148.390915 
L 199.569836 148.390915 
L 200.235112 147.175236 
L 201.565663 147.175236 
L 202.896215 144.743879 
L 215.536453 144.743879 
L 216.867004 142.312523 
L 217.53228 142.312523 
L 218.862832 139.881166 
L 219.528107 136.234131 
L 220.193383 128.94006 
L 220.858659 125.293025 
L 222.18921 122.861668 
L 224.850313 122.861668 
L 225.515589 121.64599 
L 230.837794 121.64599 
L 231.50307 120.430312 
L 232.168346 120.430312 
L 232.833621 119.214633 
L 234.164173 119.214633 
L 234.829449 116.783276 
L 235.494724 115.567598 
L 237.490551 115.567598 
L 238.155827 113.136241 
L 244.808584 113.136241 
L 245.47386 111.920563 
L 254.122444 111.920563 
L 254.78772 110.704884 
L 255.452996 110.704884 
L 256.118271 109.489206 
L 260.775201 109.489206 
L 261.440477 108.273528 
L 265.432131 108.273528 
L 267.427958 104.626492 
L 268.093234 104.626492 
L 268.75851 103.410814 
L 270.089061 98.548101 
L 270.754337 94.901065 
L 271.419613 94.901065 
L 272.084888 93.685387 
L 272.750164 93.685387 
L 274.080715 91.25403 
L 282.064024 91.25403 
L 282.7293 90.038352 
L 284.725127 90.038352 
L 285.390402 88.822673 
L 286.055678 88.822673 
L 286.720954 87.606995 
L 293.373711 87.606995 
L 294.038987 86.391317 
L 302.687571 86.391317 
L 303.352846 85.175638 
L 304.018122 85.175638 
L 304.683398 83.95996 
L 313.331982 83.95996 
L 313.997258 82.744281 
L 321.315291 82.744281 
L 321.980566 81.528603 
L 327.968048 81.528603 
L 328.633323 80.312925 
L 331.294426 80.312925 
L 331.959702 79.097246 
L 332.624978 76.665889 
L 334.620805 73.018854 
L 337.281908 73.018854 
L 337.947183 70.587497 
L 338.612459 70.587497 
L 339.277735 69.371819 
L 339.94301 69.371819 
L 340.608286 68.156141 
L 341.273562 68.156141 
L 341.938838 65.724784 
L 343.269389 65.724784 
L 343.934665 64.509106 
L 349.25687 64.509106 
L 349.922146 63.293427 
L 361.231833 63.293427 
L 361.897109 62.077749 
L 373.872072 62.077749 
L 374.537347 60.86207 
L 387.842861 60.86207 
L 388.508137 59.646392 
L 389.838689 59.646392 
L 390.503964 58.430714 
L 393.830343 58.430714 
L 395.160894 55.999357 
L 395.82617 55.999357 
L 396.491446 54.783678 
L 397.821997 54.783678 
L 398.487273 53.568 
L 398.487273 53.568 
" clip-path="url(#pf402855f3a)" style="fill: none; stroke-dasharray: 1.85,0.8; stroke-dashoffset: 0; stroke: #000000; stroke-width: 0.5"/>
   </g>
   <g id="patch_3">
    <path d="M 57.6 307.584 
L 57.6 41.472 
" style="fill: none; stroke: #000000; stroke-width: 0.8; stroke-linejoin: miter; stroke-linecap: square"/>
   </g>
   <g id="patch_4">
    <path d="M 414.72 307.584 
L 414.72 41.472 
" style="fill: none; stroke: #000000; stroke-width: 0.8; stroke-linejoin: miter; stroke-linecap: square"/>
   </g>
   <g id="patch_5">
    <path d="M 57.6 307.584 
L 414.72 307.584 
" style="fill: none; stroke: #000000; stroke-width: 0.8; stroke-linejoin: miter; stroke-linecap: square"/>
   </g>
   <g id="patch_6">
    <path d="M 57.6 41.472 
L 414.72 41.472 
" style="fill: none; stroke: #000000; stroke-width: 0.8; stroke-linejoin: miter; stroke-linecap: square"/>
   </g>
   <g id="text_15">
    <!-- count=1000, googlenet=150, resnet50=150, squeezenetv1=150, vgg19=150, yolov2=150 -->
    <g transform="translate(-3.84 35.472) scale(0.12 -0.12)">
     <defs>
      <path id="FangSong-6f" d="M 2875 1400 
Q 2875 775 2500 362 
Q 2125 -50 1575 -50 
Q 1000 -50 637 375 
Q 275 800 275 1400 
Q 275 1950 637 2400 
Q 1000 2850 1575 2850 
Q 2175 2850 2525 2400 
Q 2875 1950 2875 1400 
z
M 675 1375 
Q 675 725 937 412 
Q 1200 100 1575 100 
Q 2000 100 2237 437 
Q 2475 775 2475 1375 
Q 2475 2025 2212 2362 
Q 1950 2700 1575 2700 
Q 1225 2700 950 2362 
Q 675 2025 675 1375 
z
" transform="scale(0.015625)"/>
      <path id="FangSong-75" d="M 1425 225 
Q 1725 225 1937 375 
Q 2150 525 2250 850 
L 2250 2425 
Q 2250 2525 2200 2587 
Q 2150 2650 2025 2650 
L 1875 2650 
L 1875 2800 
L 2025 2800 
Q 2175 2800 2300 2825 
Q 2425 2850 2550 2950 
L 2600 2950 
L 2600 500 
Q 2600 400 2662 350 
Q 2725 300 2825 300 
L 2975 300 
L 2975 150 
L 2825 150 
Q 2700 150 2575 112 
Q 2450 75 2300 0 
L 2250 0 
L 2250 525 
Q 2125 250 1875 112 
Q 1625 -25 1300 -25 
Q 900 -25 700 200 
Q 500 425 500 925 
L 500 2425 
Q 500 2525 450 2587 
Q 400 2650 275 2650 
L 125 2650 
L 125 2800 
L 275 2800 
Q 425 2800 550 2825 
Q 675 2850 800 2950 
L 850 2950 
L 850 875 
Q 850 525 1000 375 
Q 1150 225 1425 225 
z
" transform="scale(0.015625)"/>
      <path id="FangSong-3d" d="M 175 2725 
L 175 2950 
L 2950 2950 
L 2950 2725 
L 175 2725 
z
M 175 1450 
L 175 1675 
L 2950 1675 
L 2950 1450 
L 175 1450 
z
" transform="scale(0.015625)"/>
      <path id="FangSong-2c" d="M 1325 75 
Q 1200 25 1100 75 
Q 1000 125 962 237 
Q 925 350 925 437 
Q 925 525 987 612 
Q 1050 700 1150 737 
Q 1250 775 1425 725 
Q 1600 675 1650 500 
Q 1700 325 1662 150 
Q 1625 -25 1525 -200 
Q 1425 -375 1312 -475 
Q 1200 -575 1025 -675 
L 950 -575 
Q 1100 -450 1187 -312 
Q 1275 -175 1325 75 
z
" transform="scale(0.015625)"/>
      <path id="FangSong-20" transform="scale(0.015625)"/>
      <path id="FangSong-67" d="M 850 1875 
Q 850 1575 1025 1362 
Q 1200 1150 1500 1150 
Q 1825 1150 1987 1337 
Q 2150 1525 2150 1875 
Q 2150 2300 1962 2487 
Q 1775 2675 1500 2675 
Q 1225 2675 1037 2487 
Q 850 2300 850 1875 
z
M 2075 525 
Q 2450 475 2625 312 
Q 2800 150 2800 -125 
Q 2800 -500 2487 -725 
Q 2175 -950 1500 -950 
Q 975 -950 650 -737 
Q 325 -525 325 -250 
Q 325 -75 450 100 
Q 575 275 850 375 
Q 700 450 612 537 
Q 525 625 525 750 
Q 525 900 625 1012 
Q 725 1125 875 1200 
Q 725 1325 612 1500 
Q 500 1675 500 1875 
Q 500 2250 762 2537 
Q 1025 2825 1500 2825 
Q 1700 2825 1887 2775 
Q 2075 2725 2200 2600 
Q 2375 2725 2512 2787 
Q 2650 2850 2750 2850 
Q 2875 2850 2925 2762 
Q 2975 2675 2975 2600 
Q 2975 2500 2937 2437 
Q 2900 2375 2800 2375 
Q 2725 2375 2675 2412 
Q 2625 2450 2600 2525 
Q 2575 2600 2487 2587 
Q 2400 2575 2300 2500 
Q 2400 2400 2450 2225 
Q 2500 2050 2500 1875 
Q 2500 1575 2262 1287 
Q 2025 1000 1500 1000 
Q 1350 1000 1225 1037 
Q 1100 1075 1025 1125 
Q 925 1075 875 1000 
Q 825 925 825 875 
Q 825 775 875 725 
Q 925 675 1025 675 
Q 1350 625 1612 587 
Q 1875 550 2075 525 
z
M 1050 325 
Q 825 225 737 87 
Q 650 -50 650 -250 
Q 650 -450 875 -625 
Q 1100 -800 1550 -800 
Q 1975 -800 2225 -662 
Q 2475 -525 2475 -250 
Q 2475 -75 2412 25 
Q 2350 125 2225 150 
Q 1975 200 1675 237 
Q 1375 275 1050 325 
z
" transform="scale(0.015625)"/>
      <path id="FangSong-6c" d="M 900 4275 
Q 1125 4275 1325 4325 
Q 1525 4375 1700 4475 
L 1750 4475 
L 1750 350 
Q 1750 250 1812 200 
Q 1875 150 1975 150 
L 2550 150 
L 2550 0 
L 600 0 
L 600 150 
L 1175 150 
Q 1300 150 1350 200 
Q 1400 250 1400 350 
L 1400 3925 
Q 1400 4025 1350 4075 
Q 1300 4125 1175 4125 
L 625 4125 
L 625 4275 
L 900 4275 
z
" transform="scale(0.015625)"/>
      <path id="FangSong-72" d="M 1250 2025 
Q 1500 2425 1787 2637 
Q 2075 2850 2375 2850 
Q 2625 2850 2762 2737 
Q 2900 2625 2900 2475 
Q 2900 2350 2837 2275 
Q 2775 2200 2650 2200 
Q 2525 2200 2462 2275 
Q 2400 2350 2425 2475 
Q 2425 2550 2400 2600 
Q 2375 2650 2250 2650 
Q 2050 2650 1762 2400 
Q 1475 2150 1250 1700 
L 1250 350 
Q 1250 250 1312 200 
Q 1375 150 1475 150 
L 2025 150 
L 2025 0 
L 175 0 
L 175 150 
L 675 150 
Q 800 150 850 200 
Q 900 250 900 350 
L 900 2425 
Q 900 2525 850 2587 
Q 800 2650 675 2650 
L 200 2650 
L 200 2800 
L 400 2800 
Q 575 2800 812 2837 
Q 1050 2875 1175 2925 
L 1250 2925 
L 1250 2025 
z
" transform="scale(0.015625)"/>
      <path id="FangSong-73" d="M 600 2075 
Q 600 2450 887 2650 
Q 1175 2850 1575 2850 
Q 1800 2850 2000 2787 
Q 2200 2725 2275 2725 
Q 2350 2725 2400 2750 
Q 2450 2775 2525 2850 
L 2625 2025 
L 2475 2000 
Q 2375 2325 2137 2512 
Q 1900 2700 1600 2700 
Q 1275 2700 1087 2575 
Q 900 2450 900 2225 
Q 900 2025 987 1912 
Q 1075 1800 1300 1750 
Q 1475 1675 1737 1587 
Q 2000 1500 2225 1400 
Q 2425 1300 2562 1137 
Q 2700 975 2700 775 
Q 2700 400 2437 187 
Q 2175 -25 1675 -25 
Q 1350 -25 1187 37 
Q 1025 100 925 100 
Q 850 100 762 62 
Q 675 25 575 -25 
L 500 900 
L 650 925 
Q 725 525 975 325 
Q 1225 125 1675 125 
Q 2025 125 2212 250 
Q 2400 375 2400 625 
Q 2400 800 2300 912 
Q 2200 1025 2100 1075 
Q 1850 1175 1550 1287 
Q 1250 1400 1025 1500 
Q 800 1600 700 1750 
Q 600 1900 600 2075 
z
" transform="scale(0.015625)"/>
      <path id="FangSong-71" d="M 2250 2150 
Q 2150 2375 1975 2512 
Q 1800 2650 1550 2650 
Q 1200 2650 950 2350 
Q 700 2050 700 1325 
Q 700 700 912 437 
Q 1125 175 1450 175 
Q 1725 175 1937 300 
Q 2150 425 2250 725 
L 2250 2150 
z
M 2600 -550 
Q 2600 -675 2662 -725 
Q 2725 -775 2825 -775 
L 2975 -775 
L 2975 -925 
L 1825 -925 
L 1825 -775 
L 2025 -775 
Q 2150 -775 2200 -725 
Q 2250 -675 2250 -550 
L 2250 375 
Q 2100 175 1887 75 
Q 1675 -25 1375 -25 
Q 950 -25 625 337 
Q 300 700 300 1400 
Q 300 2075 675 2450 
Q 1050 2825 1475 2825 
Q 1750 2825 1937 2725 
Q 2125 2625 2275 2475 
L 2500 2800 
L 2600 2800 
L 2600 -550 
z
" transform="scale(0.015625)"/>
      <path id="FangSong-7a" d="M 2725 975 
L 2550 0 
L 400 0 
L 400 125 
L 2125 2650 
L 1200 2650 
Q 975 2650 825 2487 
Q 675 2325 575 1925 
L 425 1950 
L 525 2800 
L 2575 2800 
L 2575 2725 
L 825 150 
L 1775 150 
Q 2100 150 2287 350 
Q 2475 550 2575 1000 
L 2725 975 
z
" transform="scale(0.015625)"/>
      <path id="FangSong-76" d="M 1600 -25 
L 1450 -25 
L 600 2425 
Q 575 2525 500 2587 
Q 425 2650 325 2650 
L 200 2650 
L 200 2800 
L 1275 2800 
L 1275 2650 
L 1175 2650 
Q 1025 2650 987 2575 
Q 950 2500 1000 2325 
L 1600 575 
L 1650 575 
L 2250 2300 
Q 2325 2475 2262 2562 
Q 2200 2650 2050 2650 
L 2000 2650 
L 2000 2800 
L 2900 2800 
L 2900 2650 
L 2850 2650 
Q 2700 2650 2612 2562 
Q 2525 2475 2450 2300 
L 1600 -25 
z
" transform="scale(0.015625)"/>
      <path id="FangSong-39" d="M 675 2950 
Q 675 2400 887 2112 
Q 1100 1825 1425 1825 
Q 1800 1825 2075 2175 
Q 2350 2525 2350 2825 
Q 2350 3425 2150 3787 
Q 1950 4150 1500 4150 
Q 1075 4150 875 3812 
Q 675 3475 675 2950 
z
M 1350 1600 
Q 850 1600 550 1912 
Q 250 2225 250 2925 
Q 250 3525 575 3925 
Q 900 4325 1500 4325 
Q 2125 4325 2475 3825 
Q 2825 3325 2825 2375 
Q 2825 1325 2412 637 
Q 2000 -50 1275 -50 
Q 950 -50 712 100 
Q 475 250 475 500 
Q 475 600 537 700 
Q 600 800 750 800 
Q 900 800 950 687 
Q 1000 575 1000 425 
Q 1000 325 1025 262 
Q 1050 200 1075 175 
Q 1100 150 1162 137 
Q 1225 125 1300 125 
Q 1750 125 2025 625 
Q 2300 1125 2350 2300 
Q 2225 2000 1975 1800 
Q 1725 1600 1350 1600 
z
" transform="scale(0.015625)"/>
     </defs>
     <use xlink:href="#FangSong-63"/>
     <use xlink:href="#FangSong-6f" x="50"/>
     <use xlink:href="#FangSong-75" x="100"/>
     <use xlink:href="#FangSong-6e" x="150"/>
     <use xlink:href="#FangSong-74" x="200"/>
     <use xlink:href="#FangSong-3d" x="250"/>
     <use xlink:href="#FangSong-31" x="300"/>
     <use xlink:href="#FangSong-30" x="350"/>
     <use xlink:href="#FangSong-30" x="400"/>
     <use xlink:href="#FangSong-30" x="450"/>
     <use xlink:href="#FangSong-2c" x="500"/>
     <use xlink:href="#FangSong-20" x="550"/>
     <use xlink:href="#FangSong-67" x="600"/>
     <use xlink:href="#FangSong-6f" x="650"/>
     <use xlink:href="#FangSong-6f" x="700"/>
     <use xlink:href="#FangSong-67" x="750"/>
     <use xlink:href="#FangSong-6c" x="800"/>
     <use xlink:href="#FangSong-65" x="850"/>
     <use xlink:href="#FangSong-6e" x="900"/>
     <use xlink:href="#FangSong-65" x="950"/>
     <use xlink:href="#FangSong-74" x="1000"/>
     <use xlink:href="#FangSong-3d" x="1050"/>
     <use xlink:href="#FangSong-31" x="1100"/>
     <use xlink:href="#FangSong-35" x="1150"/>
     <use xlink:href="#FangSong-30" x="1200"/>
     <use xlink:href="#FangSong-2c" x="1250"/>
     <use xlink:href="#FangSong-20" x="1300"/>
     <use xlink:href="#FangSong-72" x="1350"/>
     <use xlink:href="#FangSong-65" x="1400"/>
     <use xlink:href="#FangSong-73" x="1450"/>
     <use xlink:href="#FangSong-6e" x="1500"/>
     <use xlink:href="#FangSong-65" x="1550"/>
     <use xlink:href="#FangSong-74" x="1600"/>
     <use xlink:href="#FangSong-35" x="1650"/>
     <use xlink:href="#FangSong-30" x="1700"/>
     <use xlink:href="#FangSong-3d" x="1750"/>
     <use xlink:href="#FangSong-31" x="1800"/>
     <use xlink:href="#FangSong-35" x="1850"/>
     <use xlink:href="#FangSong-30" x="1900"/>
     <use xlink:href="#FangSong-2c" x="1950"/>
     <use xlink:href="#FangSong-20" x="2000"/>
     <use xlink:href="#FangSong-73" x="2050"/>
     <use xlink:href="#FangSong-71" x="2100"/>
     <use xlink:href="#FangSong-75" x="2150"/>
     <use xlink:href="#FangSong-65" x="2200"/>
     <use xlink:href="#FangSong-65" x="2250"/>
     <use xlink:href="#FangSong-7a" x="2300"/>
     <use xlink:href="#FangSong-65" x="2350"/>
     <use xlink:href="#FangSong-6e" x="2400"/>
     <use xlink:href="#FangSong-65" x="2450"/>
     <use xlink:href="#FangSong-74" x="2500"/>
     <use xlink:href="#FangSong-76" x="2550"/>
     <use xlink:href="#FangSong-31" x="2600"/>
     <use xlink:href="#FangSong-3d" x="2650"/>
     <use xlink:href="#FangSong-31" x="2700"/>
     <use xlink:href="#FangSong-35" x="2750"/>
     <use xlink:href="#FangSong-30" x="2800"/>
     <use xlink:href="#FangSong-2c" x="2850"/>
     <use xlink:href="#FangSong-20" x="2900"/>
     <use xlink:href="#FangSong-76" x="2950"/>
     <use xlink:href="#FangSong-67" x="3000"/>
     <use xlink:href="#FangSong-67" x="3050"/>
     <use xlink:href="#FangSong-31" x="3100"/>
     <use xlink:href="#FangSong-39" x="3150"/>
     <use xlink:href="#FangSong-3d" x="3200"/>
     <use xlink:href="#FangSong-31" x="3250"/>
     <use xlink:href="#FangSong-35" x="3300"/>
     <use xlink:href="#FangSong-30" x="3350"/>
     <use xlink:href="#FangSong-2c" x="3400"/>
     <use xlink:href="#FangSong-20" x="3450"/>
     <use xlink:href="#FangSong-79" x="3500"/>
     <use xlink:href="#FangSong-6f" x="3550"/>
     <use xlink:href="#FangSong-6c" x="3600"/>
     <use xlink:href="#FangSong-6f" x="3650"/>
     <use xlink:href="#FangSong-76" x="3700"/>
     <use xlink:href="#FangSong-32" x="3750"/>
     <use xlink:href="#FangSong-3d" x="3800"/>
     <use xlink:href="#FangSong-31" x="3850"/>
     <use xlink:href="#FangSong-35" x="3900"/>
     <use xlink:href="#FangSong-30" x="3950"/>
    </g>
   </g>
   <g id="legend_1">
    <g id="patch_7">
     <path d="M 315.72 302.584 
L 407.72 302.584 
Q 409.72 302.584 409.72 300.584 
L 409.72 220.794937 
Q 409.72 218.794937 407.72 218.794937 
L 315.72 218.794937 
Q 313.72 218.794937 313.72 220.794937 
L 313.72 300.584 
Q 313.72 302.584 315.72 302.584 
z
" style="fill: #ffffff; opacity: 0.8; stroke: #cccccc; stroke-linejoin: miter"/>
    </g>
    <g id="line2d_19">
     <path d="M 317.72 226.294937 
L 327.72 226.294937 
L 337.72 226.294937 
" style="fill: none; stroke: #ff0000; stroke-linecap: square"/>
    </g>
    <g id="text_16">
     <!-- total -->
     <g transform="translate(345.72 229.794937) scale(0.1 -0.1)">
      <use xlink:href="#FangSong-74"/>
      <use xlink:href="#FangSong-6f" x="50"/>
      <use xlink:href="#FangSong-74" x="100"/>
      <use xlink:href="#FangSong-61" x="150"/>
      <use xlink:href="#FangSong-6c" x="200"/>
     </g>
    </g>
    <g id="line2d_20">
     <path d="M 317.72 239.74025 
L 327.72 239.74025 
L 337.72 239.74025 
" style="fill: none; stroke-dasharray: 1.85,0.8; stroke-dashoffset: 0; stroke: #008000; stroke-width: 0.5"/>
    </g>
    <g id="text_17">
     <!-- googlenet -->
     <g transform="translate(345.72 243.24025) scale(0.1 -0.1)">
      <use xlink:href="#FangSong-67"/>
      <use xlink:href="#FangSong-6f" x="50"/>
      <use xlink:href="#FangSong-6f" x="100"/>
      <use xlink:href="#FangSong-67" x="150"/>
      <use xlink:href="#FangSong-6c" x="200"/>
      <use xlink:href="#FangSong-65" x="250"/>
      <use xlink:href="#FangSong-6e" x="300"/>
      <use xlink:href="#FangSong-65" x="350"/>
      <use xlink:href="#FangSong-74" x="400"/>
     </g>
    </g>
    <g id="line2d_21">
     <path d="M 317.72 253.224625 
L 327.72 253.224625 
L 337.72 253.224625 
" style="fill: none; stroke-dasharray: 1.85,0.8; stroke-dashoffset: 0; stroke: #0000ff; stroke-width: 0.5"/>
    </g>
    <g id="text_18">
     <!-- squeezenetv1 -->
     <g transform="translate(345.72 256.724625) scale(0.1 -0.1)">
      <use xlink:href="#FangSong-73"/>
      <use xlink:href="#FangSong-71" x="50"/>
      <use xlink:href="#FangSong-75" x="100"/>
      <use xlink:href="#FangSong-65" x="150"/>
      <use xlink:href="#FangSong-65" x="200"/>
      <use xlink:href="#FangSong-7a" x="250"/>
      <use xlink:href="#FangSong-65" x="300"/>
      <use xlink:href="#FangSong-6e" x="350"/>
      <use xlink:href="#FangSong-65" x="400"/>
      <use xlink:href="#FangSong-74" x="450"/>
      <use xlink:href="#FangSong-76" x="500"/>
      <use xlink:href="#FangSong-31" x="550"/>
     </g>
    </g>
    <g id="line2d_22">
     <path d="M 317.72 266.669937 
L 327.72 266.669937 
L 337.72 266.669937 
" style="fill: none; stroke-dasharray: 1.85,0.8; stroke-dashoffset: 0; stroke: #bf00bf; stroke-width: 0.5"/>
    </g>
    <g id="text_19">
     <!-- resnet50 -->
     <g transform="translate(345.72 270.169937) scale(0.1 -0.1)">
      <use xlink:href="#FangSong-72"/>
      <use xlink:href="#FangSong-65" x="50"/>
      <use xlink:href="#FangSong-73" x="100"/>
      <use xlink:href="#FangSong-6e" x="150"/>
      <use xlink:href="#FangSong-65" x="200"/>
      <use xlink:href="#FangSong-74" x="250"/>
      <use xlink:href="#FangSong-35" x="300"/>
      <use xlink:href="#FangSong-30" x="350"/>
     </g>
    </g>
    <g id="line2d_23">
     <path d="M 317.72 280.11525 
L 327.72 280.11525 
L 337.72 280.11525 
" style="fill: none; stroke-dasharray: 1.85,0.8; stroke-dashoffset: 0; stroke: #bfbf00; stroke-width: 0.5"/>
    </g>
    <g id="text_20">
     <!-- yolov2 -->
     <g transform="translate(345.72 283.61525) scale(0.1 -0.1)">
      <use xlink:href="#FangSong-79"/>
      <use xlink:href="#FangSong-6f" x="50"/>
      <use xlink:href="#FangSong-6c" x="100"/>
      <use xlink:href="#FangSong-6f" x="150"/>
      <use xlink:href="#FangSong-76" x="200"/>
      <use xlink:href="#FangSong-32" x="250"/>
     </g>
    </g>
    <g id="line2d_24">
     <path d="M 317.72 293.599625 
L 327.72 293.599625 
L 337.72 293.599625 
" style="fill: none; stroke-dasharray: 1.85,0.8; stroke-dashoffset: 0; stroke: #000000; stroke-width: 0.5"/>
    </g>
    <g id="text_21">
     <!-- vgg19 -->
     <g transform="translate(345.72 297.099625) scale(0.1 -0.1)">
      <use xlink:href="#FangSong-76"/>
      <use xlink:href="#FangSong-67" x="50"/>
      <use xlink:href="#FangSong-67" x="100"/>
      <use xlink:href="#FangSong-31" x="150"/>
      <use xlink:href="#FangSong-39" x="200"/>
     </g>
    </g>
   </g>
  </g>
 </g>
 <defs>
  <clipPath id="pf402855f3a">
   <rect x="57.6" y="41.472" width="357.12" height="266.112"/>
  </clipPath>
 </defs>
</svg>
