<?xml version="1.0" encoding="UTF-8"?>
<!DOCTYPE svg PUBLIC "-//W3C//DTD SVG 1.1//EN" "http://www.w3.org/Graphics/SVG/1.1/DTD/svg11.dtd">
<!--Generated by Origin-->
<svg xmlns="http://www.w3.org/2000/svg" xmlns:xlink="http://www.w3.org/1999/xlink" viewBox="0,0 959,787" width="9.989583in" height="8.197917in">
	<svg xmlns="http://www.w3.org/2000/svg" xmlns:xlink="http://www.w3.org/1999/xlink" viewBox="0,0 5987.99,4915.95" width="956.999" height="785.999" x="0.00012207" y="6.10351e-05" preserveAspectRatio="none">
		<defs>
			<mask id="Cp_1">
				<rect x="499" y="416" width="5146" height="3982" fill="white"/>
			</mask>
		</defs>
		<g mask="url(#Cp_1)">
			<rect x="0" y="0" width="5988" height="4916" visibility="hidden" fill="none" opacity="0"/>
			<polygon points="628,3988 1142,3988 1142,4397 628,4397" shape-rendering="crispEdges" fill="#FF7D7D" fill-rule="evenodd" style="stroke: #515151;stroke-width: 8;stroke-linecap:round;stroke-linejoin:round"/>
			<polyline points="630,3990 630,3990" style="stroke: #515151;stroke-width: 4;stroke-linecap:round;stroke-linejoin:round" fill="none"/>
			<polyline points="630,4088 728,3990" style="stroke: #515151;stroke-width: 4;stroke-linecap:round;stroke-linejoin:round" fill="none"/>
			<polyline points="630,4186 826,3990" style="stroke: #515151;stroke-width: 4;stroke-linecap:round;stroke-linejoin:round" fill="none"/>
			<polyline points="630,4284 924,3990" style="stroke: #515151;stroke-width: 4;stroke-linecap:round;stroke-linejoin:round" fill="none"/>
			<polyline points="630,4382 1022,3990" style="stroke: #515151;stroke-width: 4;stroke-linecap:round;stroke-linejoin:round" fill="none"/>
			<polyline points="715,4395 1120,3990" style="stroke: #515151;stroke-width: 4;stroke-linecap:round;stroke-linejoin:round" fill="none"/>
			<polyline points="813,4395 1140,4068" style="stroke: #515151;stroke-width: 4;stroke-linecap:round;stroke-linejoin:round" fill="none"/>
			<polyline points="911,4395 1140,4166" style="stroke: #515151;stroke-width: 4;stroke-linecap:round;stroke-linejoin:round" fill="none"/>
			<polyline points="1009,4395 1140,4264" style="stroke: #515151;stroke-width: 4;stroke-linecap:round;stroke-linejoin:round" fill="none"/>
			<polyline points="1107,4395 1140,4362" style="stroke: #515151;stroke-width: 4;stroke-linecap:round;stroke-linejoin:round" fill="none"/>
			<polyline points="628,3988 1142,3988 1142,4397 628,4397 628,3988" style="stroke: #515151;stroke-width: 8;stroke-linecap:round;stroke-linejoin:round" fill="none"/>
			<polygon points="1914,3663 2428,3663 2428,4397 1914,4397" shape-rendering="crispEdges" fill="#FF7D7D" fill-rule="evenodd" style="stroke: #515151;stroke-width: 8;stroke-linecap:round;stroke-linejoin:round"/>
			<polyline points="1916,3665 1916,3665" style="stroke: #515151;stroke-width: 4;stroke-linecap:round;stroke-linejoin:round" fill="none"/>
			<polyline points="1916,3763 2014,3665" style="stroke: #515151;stroke-width: 4;stroke-linecap:round;stroke-linejoin:round" fill="none"/>
			<polyline points="1916,3861 2112,3665" style="stroke: #515151;stroke-width: 4;stroke-linecap:round;stroke-linejoin:round" fill="none"/>
			<polyline points="1916,3959 2210,3665" style="stroke: #515151;stroke-width: 4;stroke-linecap:round;stroke-linejoin:round" fill="none"/>
			<polyline points="1916,4057 2308,3665" style="stroke: #515151;stroke-width: 4;stroke-linecap:round;stroke-linejoin:round" fill="none"/>
			<polyline points="1916,4155 2406,3665" style="stroke: #515151;stroke-width: 4;stroke-linecap:round;stroke-linejoin:round" fill="none"/>
			<polyline points="1916,4253 2426,3743" style="stroke: #515151;stroke-width: 4;stroke-linecap:round;stroke-linejoin:round" fill="none"/>
			<polyline points="1916,4351 2426,3841" style="stroke: #515151;stroke-width: 4;stroke-linecap:round;stroke-linejoin:round" fill="none"/>
			<polyline points="1970,4395 2426,3939" style="stroke: #515151;stroke-width: 4;stroke-linecap:round;stroke-linejoin:round" fill="none"/>
			<polyline points="2068,4395 2426,4037" style="stroke: #515151;stroke-width: 4;stroke-linecap:round;stroke-linejoin:round" fill="none"/>
			<polyline points="2166,4395 2426,4135" style="stroke: #515151;stroke-width: 4;stroke-linecap:round;stroke-linejoin:round" fill="none"/>
			<polyline points="2264,4395 2426,4233" style="stroke: #515151;stroke-width: 4;stroke-linecap:round;stroke-linejoin:round" fill="none"/>
			<polyline points="2362,4395 2426,4331" style="stroke: #515151;stroke-width: 4;stroke-linecap:round;stroke-linejoin:round" fill="none"/>
			<polyline points="1914,3663 2428,3663 2428,4397 1914,4397 1914,3663" style="stroke: #515151;stroke-width: 8;stroke-linecap:round;stroke-linejoin:round" fill="none"/>
			<polygon points="3200,4113 3715,4113 3715,4397 3200,4397" shape-rendering="crispEdges" fill="#FF7D7D" fill-rule="evenodd" style="stroke: #515151;stroke-width: 8;stroke-linecap:round;stroke-linejoin:round"/>
			<polyline points="3202,4115 3202,4115" style="stroke: #515151;stroke-width: 4;stroke-linecap:round;stroke-linejoin:round" fill="none"/>
			<polyline points="3202,4213 3300,4115" style="stroke: #515151;stroke-width: 4;stroke-linecap:round;stroke-linejoin:round" fill="none"/>
			<polyline points="3202,4311 3398,4115" style="stroke: #515151;stroke-width: 4;stroke-linecap:round;stroke-linejoin:round" fill="none"/>
			<polyline points="3216,4395 3496,4115" style="stroke: #515151;stroke-width: 4;stroke-linecap:round;stroke-linejoin:round" fill="none"/>
			<polyline points="3314,4395 3594,4115" style="stroke: #515151;stroke-width: 4;stroke-linecap:round;stroke-linejoin:round" fill="none"/>
			<polyline points="3412,4395 3692,4115" style="stroke: #515151;stroke-width: 4;stroke-linecap:round;stroke-linejoin:round" fill="none"/>
			<polyline points="3510,4395 3713,4192" style="stroke: #515151;stroke-width: 4;stroke-linecap:round;stroke-linejoin:round" fill="none"/>
			<polyline points="3608,4395 3713,4290" style="stroke: #515151;stroke-width: 4;stroke-linecap:round;stroke-linejoin:round" fill="none"/>
			<polyline points="3706,4395 3713,4388" style="stroke: #515151;stroke-width: 4;stroke-linecap:round;stroke-linejoin:round" fill="none"/>
			<polyline points="3200,4113 3715,4113 3715,4397 3200,4397 3200,4113" style="stroke: #515151;stroke-width: 8;stroke-linecap:round;stroke-linejoin:round" fill="none"/>
			<polygon points="4486,2179 5001,2179 5001,4397 4486,4397" shape-rendering="crispEdges" fill="#FF7D7D" fill-rule="evenodd" style="stroke: #515151;stroke-width: 8;stroke-linecap:round;stroke-linejoin:round"/>
			<polyline points="4488,2181 4488,2181" style="stroke: #515151;stroke-width: 4;stroke-linecap:round;stroke-linejoin:round" fill="none"/>
			<polyline points="4488,2279 4586,2181" style="stroke: #515151;stroke-width: 4;stroke-linecap:round;stroke-linejoin:round" fill="none"/>
			<polyline points="4488,2377 4684,2181" style="stroke: #515151;stroke-width: 4;stroke-linecap:round;stroke-linejoin:round" fill="none"/>
			<polyline points="4488,2475 4782,2181" style="stroke: #515151;stroke-width: 4;stroke-linecap:round;stroke-linejoin:round" fill="none"/>
			<polyline points="4488,2573 4880,2181" style="stroke: #515151;stroke-width: 4;stroke-linecap:round;stroke-linejoin:round" fill="none"/>
			<polyline points="4488,2671 4978,2181" style="stroke: #515151;stroke-width: 4;stroke-linecap:round;stroke-linejoin:round" fill="none"/>
			<polyline points="4488,2769 4999,2258" style="stroke: #515151;stroke-width: 4;stroke-linecap:round;stroke-linejoin:round" fill="none"/>
			<polyline points="4488,2867 4999,2356" style="stroke: #515151;stroke-width: 4;stroke-linecap:round;stroke-linejoin:round" fill="none"/>
			<polyline points="4488,2965 4999,2454" style="stroke: #515151;stroke-width: 4;stroke-linecap:round;stroke-linejoin:round" fill="none"/>
			<polyline points="4488,3063 4999,2552" style="stroke: #515151;stroke-width: 4;stroke-linecap:round;stroke-linejoin:round" fill="none"/>
			<polyline points="4488,3161 4999,2650" style="stroke: #515151;stroke-width: 4;stroke-linecap:round;stroke-linejoin:round" fill="none"/>
			<polyline points="4488,3259 4999,2748" style="stroke: #515151;stroke-width: 4;stroke-linecap:round;stroke-linejoin:round" fill="none"/>
			<polyline points="4488,3357 4999,2846" style="stroke: #515151;stroke-width: 4;stroke-linecap:round;stroke-linejoin:round" fill="none"/>
			<polyline points="4488,3455 4999,2944" style="stroke: #515151;stroke-width: 4;stroke-linecap:round;stroke-linejoin:round" fill="none"/>
			<polyline points="4488,3553 4999,3042" style="stroke: #515151;stroke-width: 4;stroke-linecap:round;stroke-linejoin:round" fill="none"/>
			<polyline points="4488,3651 4999,3140" style="stroke: #515151;stroke-width: 4;stroke-linecap:round;stroke-linejoin:round" fill="none"/>
			<polyline points="4488,3749 4999,3238" style="stroke: #515151;stroke-width: 4;stroke-linecap:round;stroke-linejoin:round" fill="none"/>
			<polyline points="4488,3847 4999,3336" style="stroke: #515151;stroke-width: 4;stroke-linecap:round;stroke-linejoin:round" fill="none"/>
			<polyline points="4488,3945 4999,3434" style="stroke: #515151;stroke-width: 4;stroke-linecap:round;stroke-linejoin:round" fill="none"/>
			<polyline points="4488,4043 4999,3532" style="stroke: #515151;stroke-width: 4;stroke-linecap:round;stroke-linejoin:round" fill="none"/>
			<polyline points="4488,4141 4999,3630" style="stroke: #515151;stroke-width: 4;stroke-linecap:round;stroke-linejoin:round" fill="none"/>
			<polyline points="4488,4239 4999,3728" style="stroke: #515151;stroke-width: 4;stroke-linecap:round;stroke-linejoin:round" fill="none"/>
			<polyline points="4488,4337 4999,3826" style="stroke: #515151;stroke-width: 4;stroke-linecap:round;stroke-linejoin:round" fill="none"/>
			<polyline points="4528,4395 4999,3924" style="stroke: #515151;stroke-width: 4;stroke-linecap:round;stroke-linejoin:round" fill="none"/>
			<polyline points="4626,4395 4999,4022" style="stroke: #515151;stroke-width: 4;stroke-linecap:round;stroke-linejoin:round" fill="none"/>
			<polyline points="4724,4395 4999,4120" style="stroke: #515151;stroke-width: 4;stroke-linecap:round;stroke-linejoin:round" fill="none"/>
			<polyline points="4822,4395 4999,4218" style="stroke: #515151;stroke-width: 4;stroke-linecap:round;stroke-linejoin:round" fill="none"/>
			<polyline points="4920,4395 4999,4316" style="stroke: #515151;stroke-width: 4;stroke-linecap:round;stroke-linejoin:round" fill="none"/>
			<polyline points="4486,2179 5001,2179 5001,4397 4486,4397 4486,2179" style="stroke: #515151;stroke-width: 8;stroke-linecap:round;stroke-linejoin:round" fill="none"/>
			<polygon points="1142,2525 1657,2525 1657,4397 1142,4397" shape-rendering="crispEdges" fill="#93B7DB" fill-rule="evenodd" style="stroke: #515151;stroke-width: 8;stroke-linecap:round;stroke-linejoin:round"/>
			<polyline points="1144,2527 1655,3038" style="stroke: #515151;stroke-width: 4;stroke-linecap:round;stroke-linejoin:round" fill="none"/>
			<polyline points="1144,2625 1655,3136" style="stroke: #515151;stroke-width: 4;stroke-linecap:round;stroke-linejoin:round" fill="none"/>
			<polyline points="1144,2723 1655,3234" style="stroke: #515151;stroke-width: 4;stroke-linecap:round;stroke-linejoin:round" fill="none"/>
			<polyline points="1144,2821 1655,3332" style="stroke: #515151;stroke-width: 4;stroke-linecap:round;stroke-linejoin:round" fill="none"/>
			<polyline points="1144,2919 1655,3430" style="stroke: #515151;stroke-width: 4;stroke-linecap:round;stroke-linejoin:round" fill="none"/>
			<polyline points="1144,3017 1655,3528" style="stroke: #515151;stroke-width: 4;stroke-linecap:round;stroke-linejoin:round" fill="none"/>
			<polyline points="1144,3115 1655,3626" style="stroke: #515151;stroke-width: 4;stroke-linecap:round;stroke-linejoin:round" fill="none"/>
			<polyline points="1144,3213 1655,3724" style="stroke: #515151;stroke-width: 4;stroke-linecap:round;stroke-linejoin:round" fill="none"/>
			<polyline points="1144,3311 1655,3822" style="stroke: #515151;stroke-width: 4;stroke-linecap:round;stroke-linejoin:round" fill="none"/>
			<polyline points="1144,3409 1655,3920" style="stroke: #515151;stroke-width: 4;stroke-linecap:round;stroke-linejoin:round" fill="none"/>
			<polyline points="1144,3507 1655,4018" style="stroke: #515151;stroke-width: 4;stroke-linecap:round;stroke-linejoin:round" fill="none"/>
			<polyline points="1144,3605 1655,4116" style="stroke: #515151;stroke-width: 4;stroke-linecap:round;stroke-linejoin:round" fill="none"/>
			<polyline points="1144,3703 1655,4214" style="stroke: #515151;stroke-width: 4;stroke-linecap:round;stroke-linejoin:round" fill="none"/>
			<polyline points="1144,3801 1655,4312" style="stroke: #515151;stroke-width: 4;stroke-linecap:round;stroke-linejoin:round" fill="none"/>
			<polyline points="1144,3899 1640,4395" style="stroke: #515151;stroke-width: 4;stroke-linecap:round;stroke-linejoin:round" fill="none"/>
			<polyline points="1144,3997 1542,4395" style="stroke: #515151;stroke-width: 4;stroke-linecap:round;stroke-linejoin:round" fill="none"/>
			<polyline points="1144,4095 1444,4395" style="stroke: #515151;stroke-width: 4;stroke-linecap:round;stroke-linejoin:round" fill="none"/>
			<polyline points="1144,4193 1346,4395" style="stroke: #515151;stroke-width: 4;stroke-linecap:round;stroke-linejoin:round" fill="none"/>
			<polyline points="1144,4291 1248,4395" style="stroke: #515151;stroke-width: 4;stroke-linecap:round;stroke-linejoin:round" fill="none"/>
			<polyline points="1144,4389 1150,4395" style="stroke: #515151;stroke-width: 4;stroke-linecap:round;stroke-linejoin:round" fill="none"/>
			<polyline points="1144,2527 1655,3038" style="stroke: #515151;stroke-width: 4;stroke-linecap:round;stroke-linejoin:round" fill="none"/>
			<polyline points="1242,2527 1655,2940" style="stroke: #515151;stroke-width: 4;stroke-linecap:round;stroke-linejoin:round" fill="none"/>
			<polyline points="1340,2527 1655,2842" style="stroke: #515151;stroke-width: 4;stroke-linecap:round;stroke-linejoin:round" fill="none"/>
			<polyline points="1438,2527 1655,2744" style="stroke: #515151;stroke-width: 4;stroke-linecap:round;stroke-linejoin:round" fill="none"/>
			<polyline points="1536,2527 1655,2646" style="stroke: #515151;stroke-width: 4;stroke-linecap:round;stroke-linejoin:round" fill="none"/>
			<polyline points="1634,2527 1655,2548" style="stroke: #515151;stroke-width: 4;stroke-linecap:round;stroke-linejoin:round" fill="none"/>
			<polyline points="1142,2525 1657,2525 1657,4397 1142,4397 1142,2525" style="stroke: #515151;stroke-width: 8;stroke-linecap:round;stroke-linejoin:round" fill="none"/>
			<polygon points="2428,2455 2943,2455 2943,4397 2428,4397" shape-rendering="crispEdges" fill="#93B7DB" fill-rule="evenodd" style="stroke: #515151;stroke-width: 8;stroke-linecap:round;stroke-linejoin:round"/>
			<polyline points="2430,2457 2941,2968" style="stroke: #515151;stroke-width: 4;stroke-linecap:round;stroke-linejoin:round" fill="none"/>
			<polyline points="2430,2555 2941,3066" style="stroke: #515151;stroke-width: 4;stroke-linecap:round;stroke-linejoin:round" fill="none"/>
			<polyline points="2430,2653 2941,3164" style="stroke: #515151;stroke-width: 4;stroke-linecap:round;stroke-linejoin:round" fill="none"/>
			<polyline points="2430,2751 2941,3262" style="stroke: #515151;stroke-width: 4;stroke-linecap:round;stroke-linejoin:round" fill="none"/>
			<polyline points="2430,2849 2941,3360" style="stroke: #515151;stroke-width: 4;stroke-linecap:round;stroke-linejoin:round" fill="none"/>
			<polyline points="2430,2947 2941,3458" style="stroke: #515151;stroke-width: 4;stroke-linecap:round;stroke-linejoin:round" fill="none"/>
			<polyline points="2430,3045 2941,3556" style="stroke: #515151;stroke-width: 4;stroke-linecap:round;stroke-linejoin:round" fill="none"/>
			<polyline points="2430,3143 2941,3654" style="stroke: #515151;stroke-width: 4;stroke-linecap:round;stroke-linejoin:round" fill="none"/>
			<polyline points="2430,3241 2941,3752" style="stroke: #515151;stroke-width: 4;stroke-linecap:round;stroke-linejoin:round" fill="none"/>
			<polyline points="2430,3339 2941,3850" style="stroke: #515151;stroke-width: 4;stroke-linecap:round;stroke-linejoin:round" fill="none"/>
			<polyline points="2430,3437 2941,3948" style="stroke: #515151;stroke-width: 4;stroke-linecap:round;stroke-linejoin:round" fill="none"/>
			<polyline points="2430,3535 2941,4046" style="stroke: #515151;stroke-width: 4;stroke-linecap:round;stroke-linejoin:round" fill="none"/>
			<polyline points="2430,3633 2941,4144" style="stroke: #515151;stroke-width: 4;stroke-linecap:round;stroke-linejoin:round" fill="none"/>
			<polyline points="2430,3731 2941,4242" style="stroke: #515151;stroke-width: 4;stroke-linecap:round;stroke-linejoin:round" fill="none"/>
			<polyline points="2430,3829 2941,4340" style="stroke: #515151;stroke-width: 4;stroke-linecap:round;stroke-linejoin:round" fill="none"/>
			<polyline points="2430,3927 2898,4395" style="stroke: #515151;stroke-width: 4;stroke-linecap:round;stroke-linejoin:round" fill="none"/>
			<polyline points="2430,4025 2800,4395" style="stroke: #515151;stroke-width: 4;stroke-linecap:round;stroke-linejoin:round" fill="none"/>
			<polyline points="2430,4123 2702,4395" style="stroke: #515151;stroke-width: 4;stroke-linecap:round;stroke-linejoin:round" fill="none"/>
			<polyline points="2430,4221 2604,4395" style="stroke: #515151;stroke-width: 4;stroke-linecap:round;stroke-linejoin:round" fill="none"/>
			<polyline points="2430,4319 2506,4395" style="stroke: #515151;stroke-width: 4;stroke-linecap:round;stroke-linejoin:round" fill="none"/>
			<polyline points="2430,2457 2941,2968" style="stroke: #515151;stroke-width: 4;stroke-linecap:round;stroke-linejoin:round" fill="none"/>
			<polyline points="2528,2457 2941,2870" style="stroke: #515151;stroke-width: 4;stroke-linecap:round;stroke-linejoin:round" fill="none"/>
			<polyline points="2626,2457 2941,2772" style="stroke: #515151;stroke-width: 4;stroke-linecap:round;stroke-linejoin:round" fill="none"/>
			<polyline points="2724,2457 2941,2674" style="stroke: #515151;stroke-width: 4;stroke-linecap:round;stroke-linejoin:round" fill="none"/>
			<polyline points="2822,2457 2941,2576" style="stroke: #515151;stroke-width: 4;stroke-linecap:round;stroke-linejoin:round" fill="none"/>
			<polyline points="2920,2457 2941,2478" style="stroke: #515151;stroke-width: 4;stroke-linecap:round;stroke-linejoin:round" fill="none"/>
			<polyline points="2428,2455 2943,2455 2943,4397 2428,4397 2428,2455" style="stroke: #515151;stroke-width: 8;stroke-linecap:round;stroke-linejoin:round" fill="none"/>
			<polygon points="3715,2926 4229,2926 4229,4397 3715,4397" shape-rendering="crispEdges" fill="#93B7DB" fill-rule="evenodd" style="stroke: #515151;stroke-width: 8;stroke-linecap:round;stroke-linejoin:round"/>
			<polyline points="3717,2928 4227,3438" style="stroke: #515151;stroke-width: 4;stroke-linecap:round;stroke-linejoin:round" fill="none"/>
			<polyline points="3717,3026 4227,3536" style="stroke: #515151;stroke-width: 4;stroke-linecap:round;stroke-linejoin:round" fill="none"/>
			<polyline points="3717,3124 4227,3634" style="stroke: #515151;stroke-width: 4;stroke-linecap:round;stroke-linejoin:round" fill="none"/>
			<polyline points="3717,3222 4227,3732" style="stroke: #515151;stroke-width: 4;stroke-linecap:round;stroke-linejoin:round" fill="none"/>
			<polyline points="3717,3320 4227,3830" style="stroke: #515151;stroke-width: 4;stroke-linecap:round;stroke-linejoin:round" fill="none"/>
			<polyline points="3717,3418 4227,3928" style="stroke: #515151;stroke-width: 4;stroke-linecap:round;stroke-linejoin:round" fill="none"/>
			<polyline points="3717,3516 4227,4026" style="stroke: #515151;stroke-width: 4;stroke-linecap:round;stroke-linejoin:round" fill="none"/>
			<polyline points="3717,3614 4227,4124" style="stroke: #515151;stroke-width: 4;stroke-linecap:round;stroke-linejoin:round" fill="none"/>
			<polyline points="3717,3712 4227,4222" style="stroke: #515151;stroke-width: 4;stroke-linecap:round;stroke-linejoin:round" fill="none"/>
			<polyline points="3717,3810 4227,4320" style="stroke: #515151;stroke-width: 4;stroke-linecap:round;stroke-linejoin:round" fill="none"/>
			<polyline points="3717,3908 4204,4395" style="stroke: #515151;stroke-width: 4;stroke-linecap:round;stroke-linejoin:round" fill="none"/>
			<polyline points="3717,4006 4106,4395" style="stroke: #515151;stroke-width: 4;stroke-linecap:round;stroke-linejoin:round" fill="none"/>
			<polyline points="3717,4104 4008,4395" style="stroke: #515151;stroke-width: 4;stroke-linecap:round;stroke-linejoin:round" fill="none"/>
			<polyline points="3717,4202 3910,4395" style="stroke: #515151;stroke-width: 4;stroke-linecap:round;stroke-linejoin:round" fill="none"/>
			<polyline points="3717,4300 3812,4395" style="stroke: #515151;stroke-width: 4;stroke-linecap:round;stroke-linejoin:round" fill="none"/>
			<polyline points="3717,2928 4227,3438" style="stroke: #515151;stroke-width: 4;stroke-linecap:round;stroke-linejoin:round" fill="none"/>
			<polyline points="3815,2928 4227,3340" style="stroke: #515151;stroke-width: 4;stroke-linecap:round;stroke-linejoin:round" fill="none"/>
			<polyline points="3913,2928 4227,3242" style="stroke: #515151;stroke-width: 4;stroke-linecap:round;stroke-linejoin:round" fill="none"/>
			<polyline points="4011,2928 4227,3144" style="stroke: #515151;stroke-width: 4;stroke-linecap:round;stroke-linejoin:round" fill="none"/>
			<polyline points="4109,2928 4227,3046" style="stroke: #515151;stroke-width: 4;stroke-linecap:round;stroke-linejoin:round" fill="none"/>
			<polyline points="4207,2928 4227,2948" style="stroke: #515151;stroke-width: 4;stroke-linecap:round;stroke-linejoin:round" fill="none"/>
			<polyline points="3715,2926 4229,2926 4229,4397 3715,4397 3715,2926" style="stroke: #515151;stroke-width: 8;stroke-linecap:round;stroke-linejoin:round" fill="none"/>
			<polygon points="5001,884 5515,884 5515,4397 5001,4397" shape-rendering="crispEdges" fill="#93B7DB" fill-rule="evenodd" style="stroke: #515151;stroke-width: 8;stroke-linecap:round;stroke-linejoin:round"/>
			<polyline points="5003,886 5513,1396" style="stroke: #515151;stroke-width: 4;stroke-linecap:round;stroke-linejoin:round" fill="none"/>
			<polyline points="5003,984 5513,1494" style="stroke: #515151;stroke-width: 4;stroke-linecap:round;stroke-linejoin:round" fill="none"/>
			<polyline points="5003,1082 5513,1592" style="stroke: #515151;stroke-width: 4;stroke-linecap:round;stroke-linejoin:round" fill="none"/>
			<polyline points="5003,1180 5513,1690" style="stroke: #515151;stroke-width: 4;stroke-linecap:round;stroke-linejoin:round" fill="none"/>
			<polyline points="5003,1278 5513,1788" style="stroke: #515151;stroke-width: 4;stroke-linecap:round;stroke-linejoin:round" fill="none"/>
			<polyline points="5003,1376 5513,1886" style="stroke: #515151;stroke-width: 4;stroke-linecap:round;stroke-linejoin:round" fill="none"/>
			<polyline points="5003,1474 5513,1984" style="stroke: #515151;stroke-width: 4;stroke-linecap:round;stroke-linejoin:round" fill="none"/>
			<polyline points="5003,1572 5513,2082" style="stroke: #515151;stroke-width: 4;stroke-linecap:round;stroke-linejoin:round" fill="none"/>
			<polyline points="5003,1670 5513,2180" style="stroke: #515151;stroke-width: 4;stroke-linecap:round;stroke-linejoin:round" fill="none"/>
			<polyline points="5003,1768 5513,2278" style="stroke: #515151;stroke-width: 4;stroke-linecap:round;stroke-linejoin:round" fill="none"/>
			<polyline points="5003,1866 5513,2376" style="stroke: #515151;stroke-width: 4;stroke-linecap:round;stroke-linejoin:round" fill="none"/>
			<polyline points="5003,1964 5513,2474" style="stroke: #515151;stroke-width: 4;stroke-linecap:round;stroke-linejoin:round" fill="none"/>
			<polyline points="5003,2062 5513,2572" style="stroke: #515151;stroke-width: 4;stroke-linecap:round;stroke-linejoin:round" fill="none"/>
			<polyline points="5003,2160 5513,2670" style="stroke: #515151;stroke-width: 4;stroke-linecap:round;stroke-linejoin:round" fill="none"/>
			<polyline points="5003,2258 5513,2768" style="stroke: #515151;stroke-width: 4;stroke-linecap:round;stroke-linejoin:round" fill="none"/>
			<polyline points="5003,2356 5513,2866" style="stroke: #515151;stroke-width: 4;stroke-linecap:round;stroke-linejoin:round" fill="none"/>
			<polyline points="5003,2454 5513,2964" style="stroke: #515151;stroke-width: 4;stroke-linecap:round;stroke-linejoin:round" fill="none"/>
			<polyline points="5003,2552 5513,3062" style="stroke: #515151;stroke-width: 4;stroke-linecap:round;stroke-linejoin:round" fill="none"/>
			<polyline points="5003,2650 5513,3160" style="stroke: #515151;stroke-width: 4;stroke-linecap:round;stroke-linejoin:round" fill="none"/>
			<polyline points="5003,2748 5513,3258" style="stroke: #515151;stroke-width: 4;stroke-linecap:round;stroke-linejoin:round" fill="none"/>
			<polyline points="5003,2846 5513,3356" style="stroke: #515151;stroke-width: 4;stroke-linecap:round;stroke-linejoin:round" fill="none"/>
			<polyline points="5003,2944 5513,3454" style="stroke: #515151;stroke-width: 4;stroke-linecap:round;stroke-linejoin:round" fill="none"/>
			<polyline points="5003,3042 5513,3552" style="stroke: #515151;stroke-width: 4;stroke-linecap:round;stroke-linejoin:round" fill="none"/>
			<polyline points="5003,3140 5513,3650" style="stroke: #515151;stroke-width: 4;stroke-linecap:round;stroke-linejoin:round" fill="none"/>
			<polyline points="5003,3238 5513,3748" style="stroke: #515151;stroke-width: 4;stroke-linecap:round;stroke-linejoin:round" fill="none"/>
			<polyline points="5003,3336 5513,3846" style="stroke: #515151;stroke-width: 4;stroke-linecap:round;stroke-linejoin:round" fill="none"/>
			<polyline points="5003,3434 5513,3944" style="stroke: #515151;stroke-width: 4;stroke-linecap:round;stroke-linejoin:round" fill="none"/>
			<polyline points="5003,3532 5513,4042" style="stroke: #515151;stroke-width: 4;stroke-linecap:round;stroke-linejoin:round" fill="none"/>
			<polyline points="5003,3630 5513,4140" style="stroke: #515151;stroke-width: 4;stroke-linecap:round;stroke-linejoin:round" fill="none"/>
			<polyline points="5003,3728 5513,4238" style="stroke: #515151;stroke-width: 4;stroke-linecap:round;stroke-linejoin:round" fill="none"/>
			<polyline points="5003,3826 5513,4336" style="stroke: #515151;stroke-width: 4;stroke-linecap:round;stroke-linejoin:round" fill="none"/>
			<polyline points="5003,3924 5474,4395" style="stroke: #515151;stroke-width: 4;stroke-linecap:round;stroke-linejoin:round" fill="none"/>
			<polyline points="5003,4022 5376,4395" style="stroke: #515151;stroke-width: 4;stroke-linecap:round;stroke-linejoin:round" fill="none"/>
			<polyline points="5003,4120 5278,4395" style="stroke: #515151;stroke-width: 4;stroke-linecap:round;stroke-linejoin:round" fill="none"/>
			<polyline points="5003,4218 5180,4395" style="stroke: #515151;stroke-width: 4;stroke-linecap:round;stroke-linejoin:round" fill="none"/>
			<polyline points="5003,4316 5082,4395" style="stroke: #515151;stroke-width: 4;stroke-linecap:round;stroke-linejoin:round" fill="none"/>
			<polyline points="5003,886 5513,1396" style="stroke: #515151;stroke-width: 4;stroke-linecap:round;stroke-linejoin:round" fill="none"/>
			<polyline points="5101,886 5513,1298" style="stroke: #515151;stroke-width: 4;stroke-linecap:round;stroke-linejoin:round" fill="none"/>
			<polyline points="5199,886 5513,1200" style="stroke: #515151;stroke-width: 4;stroke-linecap:round;stroke-linejoin:round" fill="none"/>
			<polyline points="5297,886 5513,1102" style="stroke: #515151;stroke-width: 4;stroke-linecap:round;stroke-linejoin:round" fill="none"/>
			<polyline points="5395,886 5513,1004" style="stroke: #515151;stroke-width: 4;stroke-linecap:round;stroke-linejoin:round" fill="none"/>
			<polyline points="5493,886 5513,906" style="stroke: #515151;stroke-width: 4;stroke-linecap:round;stroke-linejoin:round" fill="none"/>
			<polyline points="5001,884 5515,884 5515,4397 5001,4397 5001,884" style="stroke: #515151;stroke-width: 8;stroke-linecap:round;stroke-linejoin:round" fill="none"/>
		</g>
		<polyline points="499,4397 5644,4397" style="stroke: black;stroke-width: 13;stroke-linecap:square;stroke-linejoin:round" fill="none"/>
		<polyline points="499,4397 5644,4397" style="stroke: black;stroke-width: 13;stroke-linecap:square;stroke-linejoin:round" fill="none"/>
		<polyline points="499,4397 499,4431" style="stroke: black;stroke-width: 13;stroke-linecap:butt;stroke-linejoin:round" fill="none"/>
		<polyline points="1785,4397 1785,4431" style="stroke: black;stroke-width: 13;stroke-linecap:butt;stroke-linejoin:round" fill="none"/>
		<polyline points="3072,4397 3072,4431" style="stroke: black;stroke-width: 13;stroke-linecap:butt;stroke-linejoin:round" fill="none"/>
		<polyline points="4358,4397 4358,4431" style="stroke: black;stroke-width: 13;stroke-linecap:butt;stroke-linejoin:round" fill="none"/>
		<polyline points="5644,4397 5644,4431" style="stroke: black;stroke-width: 13;stroke-linecap:butt;stroke-linejoin:round" fill="none"/>
		<polyline points="1142,4397 1142,4466" style="stroke: black;stroke-width: 13;stroke-linecap:butt;stroke-linejoin:round" fill="none"/>
		<polyline points="2428,4397 2428,4466" style="stroke: black;stroke-width: 13;stroke-linecap:butt;stroke-linejoin:round" fill="none"/>
		<polyline points="3715,4397 3715,4466" style="stroke: black;stroke-width: 13;stroke-linecap:butt;stroke-linejoin:round" fill="none"/>
		<polyline points="5001,4397 5001,4466" style="stroke: black;stroke-width: 13;stroke-linecap:butt;stroke-linejoin:round" fill="none"/>
		<polyline points="499,4397 499,416" style="stroke: black;stroke-width: 13;stroke-linecap:square;stroke-linejoin:round" fill="none"/>
		<polyline points="499,4113 465,4113" style="stroke: black;stroke-width: 13;stroke-linecap:butt;stroke-linejoin:round" fill="none"/>
		<polyline points="499,3544 465,3544" style="stroke: black;stroke-width: 13;stroke-linecap:butt;stroke-linejoin:round" fill="none"/>
		<polyline points="499,2975 465,2975" style="stroke: black;stroke-width: 13;stroke-linecap:butt;stroke-linejoin:round" fill="none"/>
		<polyline points="499,2407 465,2407" style="stroke: black;stroke-width: 13;stroke-linecap:butt;stroke-linejoin:round" fill="none"/>
		<polyline points="499,1838 465,1838" style="stroke: black;stroke-width: 13;stroke-linecap:butt;stroke-linejoin:round" fill="none"/>
		<polyline points="499,1269 465,1269" style="stroke: black;stroke-width: 13;stroke-linecap:butt;stroke-linejoin:round" fill="none"/>
		<polyline points="499,700 465,700" style="stroke: black;stroke-width: 13;stroke-linecap:butt;stroke-linejoin:round" fill="none"/>
		<polyline points="499,4397 430,4397" style="stroke: black;stroke-width: 13;stroke-linecap:butt;stroke-linejoin:round" fill="none"/>
		<polyline points="499,3828 430,3828" style="stroke: black;stroke-width: 13;stroke-linecap:butt;stroke-linejoin:round" fill="none"/>
		<polyline points="499,3260 430,3260" style="stroke: black;stroke-width: 13;stroke-linecap:butt;stroke-linejoin:round" fill="none"/>
		<polyline points="499,2691 430,2691" style="stroke: black;stroke-width: 13;stroke-linecap:butt;stroke-linejoin:round" fill="none"/>
		<polyline points="499,2122 430,2122" style="stroke: black;stroke-width: 13;stroke-linecap:butt;stroke-linejoin:round" fill="none"/>
		<polyline points="499,1553 430,1553" style="stroke: black;stroke-width: 13;stroke-linecap:butt;stroke-linejoin:round" fill="none"/>
		<polyline points="499,985 430,985" style="stroke: black;stroke-width: 13;stroke-linecap:butt;stroke-linejoin:round" fill="none"/>
		<polyline points="499,416 430,416" style="stroke: black;stroke-width: 13;stroke-linecap:butt;stroke-linejoin:round" fill="none"/>
		<text x="805" dominant-baseline="auto" y="4643" fill="black" font-family="宋体,'MS PGothic',SimSun" font-size="150" font-weight="400">
			<tspan x="805" style="font-kerning:none">googlenet</tspan>
		</text>
		<text x="2128" dominant-baseline="auto" y="4643" fill="black" font-family="宋体,'MS PGothic',SimSun" font-size="150" font-weight="400">
			<tspan x="2128" style="font-kerning:none">resnet50</tspan>
		</text>
		<text x="3228" dominant-baseline="auto" y="4643" fill="black" font-family="宋体,'MS PGothic',SimSun" font-size="150" font-weight="400">
			<tspan x="3228" style="font-kerning:none">squeezenet-v1</tspan>
		</text>
		<text x="4814" dominant-baseline="auto" y="4643" fill="black" font-family="宋体,'MS PGothic',SimSun" font-size="150" font-weight="400">
			<tspan x="4814" style="font-kerning:none">vgg19</tspan>
		</text>
		<text x="307" dominant-baseline="auto" y="4457" fill="black" font-family="宋体,'MS PGothic',SimSun" font-size="150" font-weight="400">
			<tspan x="307" style="font-kerning:none">0</tspan>
		</text>
		<text x="232" dominant-baseline="auto" y="3888" fill="black" font-family="宋体,'MS PGothic',SimSun" font-size="150" font-weight="400">
			<tspan x="232" style="font-kerning:none">10</tspan>
		</text>
		<text x="232" dominant-baseline="auto" y="3320" fill="black" font-family="宋体,'MS PGothic',SimSun" font-size="150" font-weight="400">
			<tspan x="232" style="font-kerning:none">20</tspan>
		</text>
		<text x="232" dominant-baseline="auto" y="2751" fill="black" font-family="宋体,'MS PGothic',SimSun" font-size="150" font-weight="400">
			<tspan x="232" style="font-kerning:none">30</tspan>
		</text>
		<text x="232" dominant-baseline="auto" y="2182" fill="black" font-family="宋体,'MS PGothic',SimSun" font-size="150" font-weight="400">
			<tspan x="232" style="font-kerning:none">40</tspan>
		</text>
		<text x="232" dominant-baseline="auto" y="1613" fill="black" font-family="宋体,'MS PGothic',SimSun" font-size="150" font-weight="400">
			<tspan x="232" style="font-kerning:none">50</tspan>
		</text>
		<text x="232" dominant-baseline="auto" y="1045" fill="black" font-family="宋体,'MS PGothic',SimSun" font-size="150" font-weight="400">
			<tspan x="232" style="font-kerning:none">60</tspan>
		</text>
		<text x="232" dominant-baseline="auto" y="476" fill="black" font-family="宋体,'MS PGothic',SimSun" font-size="150" font-weight="400">
			<tspan x="232" style="font-kerning:none">70</tspan>
		</text>
		<text x="0" dominant-baseline="auto" y="0" fill="black" font-family="宋体,'MS PGothic',SimSun" font-size="184" font-weight="400" transform="matrix(-1.83697e-16 -1 0.999999 -1.83697e-16 168 2728)">
			<tspan x="0" style="font-kerning:none">Latency</tspan>
		</text>
		<text x="2841" dominant-baseline="auto" y="4887" fill="black" font-family="宋体,'MS PGothic',SimSun" font-size="184" font-weight="400">
			<tspan x="2841" style="font-kerning:none">Model</tspan>
		</text>
		<polygon points="4729,1 5974,1 5974,436 4729,436" shape-rendering="crispEdges" fill="white" fill-rule="evenodd" style="stroke: black;stroke-width: 4;stroke-linecap:square;stroke-linejoin:miter;stroke-miterlimit:10"/>
		<polygon points="4757,29 5119,29 5119,207 4757,207" shape-rendering="crispEdges" fill="#FF7D7D" fill-rule="evenodd" style="stroke: #515151;stroke-width: 8;stroke-linecap:round;stroke-linejoin:round"/>
		<polyline points="4759,31 4759,31" style="stroke: #515151;stroke-width: 4;stroke-linecap:round;stroke-linejoin:round" fill="none"/>
		<polyline points="4759,129 4857,31" style="stroke: #515151;stroke-width: 4;stroke-linecap:round;stroke-linejoin:round" fill="none"/>
		<polyline points="4781,205 4955,31" style="stroke: #515151;stroke-width: 4;stroke-linecap:round;stroke-linejoin:round" fill="none"/>
		<polyline points="4879,205 5053,31" style="stroke: #515151;stroke-width: 4;stroke-linecap:round;stroke-linejoin:round" fill="none"/>
		<polyline points="4977,205 5117,65" style="stroke: #515151;stroke-width: 4;stroke-linecap:round;stroke-linejoin:round" fill="none"/>
		<polyline points="5075,205 5117,163" style="stroke: #515151;stroke-width: 4;stroke-linecap:round;stroke-linejoin:round" fill="none"/>
		<polyline points="4757,29 5119,29 5119,207 4757,207 4757,29" style="stroke: #515151;stroke-width: 8;stroke-linecap:round;stroke-linejoin:round" fill="none"/>
		<text x="5122" dominant-baseline="auto" y="184" fill="black" font-family="宋体,'MS PGothic',SimSun" font-size="184" font-weight="400">
			<tspan x="5122" style="white-space:pre;font-kerning:none" xml:space="preserve"> </tspan>
		</text>
		<text x="5214" dominant-baseline="auto" y="184" fill="black" font-family="宋体,'MS PGothic',SimSun" font-size="184" font-weight="400">
			<tspan x="5214" style="font-kerning:none">Serial</tspan>
		</text>
		<polygon points="4757,231 5119,231 5119,409 4757,409" shape-rendering="crispEdges" fill="#93B7DB" fill-rule="evenodd" style="stroke: #515151;stroke-width: 8;stroke-linecap:round;stroke-linejoin:round"/>
		<polyline points="4759,233 4933,407" style="stroke: #515151;stroke-width: 4;stroke-linecap:round;stroke-linejoin:round" fill="none"/>
		<polyline points="4759,331 4835,407" style="stroke: #515151;stroke-width: 4;stroke-linecap:round;stroke-linejoin:round" fill="none"/>
		<polyline points="4759,233 4933,407" style="stroke: #515151;stroke-width: 4;stroke-linecap:round;stroke-linejoin:round" fill="none"/>
		<polyline points="4857,233 5031,407" style="stroke: #515151;stroke-width: 4;stroke-linecap:round;stroke-linejoin:round" fill="none"/>
		<polyline points="4955,233 5117,395" style="stroke: #515151;stroke-width: 4;stroke-linecap:round;stroke-linejoin:round" fill="none"/>
		<polyline points="5053,233 5117,297" style="stroke: #515151;stroke-width: 4;stroke-linecap:round;stroke-linejoin:round" fill="none"/>
		<polyline points="4757,231 5119,231 5119,409 4757,409 4757,231" style="stroke: #515151;stroke-width: 8;stroke-linecap:round;stroke-linejoin:round" fill="none"/>
		<text x="5122" dominant-baseline="auto" y="386" fill="black" font-family="宋体,'MS PGothic',SimSun" font-size="184" font-weight="400">
			<tspan x="5122" style="white-space:pre;font-kerning:none" xml:space="preserve"> </tspan>
		</text>
		<text x="5214" dominant-baseline="auto" y="386" fill="black" font-family="宋体,'MS PGothic',SimSun" font-size="184" font-weight="400">
			<tspan x="5214" style="font-kerning:none">Parallel</tspan>
		</text>
	</svg>
</svg>

