<?xml version="1.0" encoding="utf-8" standalone="no"?>
<!DOCTYPE svg PUBLIC "-//W3C//DTD SVG 1.1//EN"
  "http://www.w3.org/Graphics/SVG/1.1/DTD/svg11.dtd">
<svg xmlns:xlink="http://www.w3.org/1999/xlink" width="460.8pt" height="345.6pt" viewBox="0 0 460.8 345.6" xmlns="http://www.w3.org/2000/svg" version="1.1">
 <metadata>
  <rdf:RDF xmlns:dc="http://purl.org/dc/elements/1.1/" xmlns:cc="http://creativecommons.org/ns#" xmlns:rdf="http://www.w3.org/1999/02/22-rdf-syntax-ns#">
   <cc:Work>
    <dc:type rdf:resource="http://purl.org/dc/dcmitype/StillImage"/>
    <dc:date>2023-01-19T17:24:44.843689</dc:date>
    <dc:format>image/svg+xml</dc:format>
    <dc:creator>
     <cc:Agent>
      <dc:title>Matplotlib v3.6.3, https://matplotlib.org/</dc:title>
     </cc:Agent>
    </dc:creator>
   </cc:Work>
  </rdf:RDF>
 </metadata>
 <defs>
  <style type="text/css">*{stroke-linejoin: round; stroke-linecap: butt}</style>
 </defs>
 <g id="figure_1">
  <g id="patch_1">
   <path d="M 0 345.6 
L 460.8 345.6 
L 460.8 0 
L 0 0 
z
" style="fill: #ffffff"/>
  </g>
  <g id="axes_1">
   <g id="patch_2">
    <path d="M 57.6 307.584 
L 414.72 307.584 
L 414.72 41.472 
L 57.6 41.472 
z
" style="fill: #ffffff"/>
   </g>
   <g id="matplotlib.axis_1">
    <g id="xtick_1">
     <g id="line2d_1">
      <defs>
       <path id="m99f2b3933c" d="M 0 0 
L 0 3.5 
" style="stroke: #000000; stroke-width: 0.8"/>
      </defs>
      <g>
       <use xlink:href="#m99f2b3933c" x="67.601354" y="307.584" style="stroke: #000000; stroke-width: 0.8"/>
      </g>
     </g>
     <g id="text_1">
      <!-- 0 -->
      <g transform="translate(65.101354 321.576187) scale(0.1 -0.1)">
       <defs>
        <path id="FangSong-30" d="M 1575 4125 
Q 1225 4125 987 3587 
Q 750 3050 750 2150 
Q 750 1200 987 675 
Q 1225 150 1575 150 
Q 1950 150 2162 675 
Q 2375 1200 2375 2150 
Q 2375 3050 2175 3587 
Q 1975 4125 1575 4125 
z
M 1575 -50 
Q 1025 -50 650 525 
Q 275 1100 275 2150 
Q 275 3125 637 3725 
Q 1000 4325 1575 4325 
Q 2125 4325 2487 3750 
Q 2850 3175 2850 2150 
Q 2850 1125 2487 537 
Q 2125 -50 1575 -50 
z
" transform="scale(0.015625)"/>
       </defs>
       <use xlink:href="#FangSong-30"/>
      </g>
     </g>
    </g>
    <g id="xtick_2">
     <g id="line2d_2">
      <g>
       <use xlink:href="#m99f2b3933c" x="129.915086" y="307.584" style="stroke: #000000; stroke-width: 0.8"/>
      </g>
     </g>
     <g id="text_2">
      <!-- 10 -->
      <g transform="translate(124.915086 321.576187) scale(0.1 -0.1)">
       <defs>
        <path id="FangSong-31" d="M 1800 4350 
L 1800 550 
Q 1800 350 1925 250 
Q 2050 150 2275 150 
L 2525 150 
L 2525 0 
L 700 0 
L 700 150 
L 925 150 
Q 1175 150 1287 250 
Q 1400 350 1400 550 
L 1400 3575 
Q 1400 3675 1337 3737 
Q 1275 3800 1150 3800 
L 700 3800 
L 700 3950 
L 925 3950 
Q 1225 3950 1412 4050 
Q 1600 4150 1700 4350 
L 1800 4350 
z
" transform="scale(0.015625)"/>
       </defs>
       <use xlink:href="#FangSong-31"/>
       <use xlink:href="#FangSong-30" x="50"/>
      </g>
     </g>
    </g>
    <g id="xtick_3">
     <g id="line2d_3">
      <g>
       <use xlink:href="#m99f2b3933c" x="192.228819" y="307.584" style="stroke: #000000; stroke-width: 0.8"/>
      </g>
     </g>
     <g id="text_3">
      <!-- 20 -->
      <g transform="translate(187.228819 321.576187) scale(0.1 -0.1)">
       <defs>
        <path id="FangSong-32" d="M 2300 3225 
Q 2300 3675 2100 3912 
Q 1900 4150 1500 4150 
Q 1200 4150 987 3987 
Q 775 3825 775 3575 
Q 775 3425 862 3325 
Q 950 3225 950 3125 
Q 950 3000 887 2937 
Q 825 2875 700 2875 
Q 550 2875 462 2962 
Q 375 3050 375 3250 
Q 375 3775 750 4050 
Q 1125 4325 1550 4325 
Q 2150 4325 2437 4025 
Q 2725 3725 2725 3275 
Q 2725 2975 2587 2675 
Q 2450 2375 2150 2100 
Q 1425 1400 1037 962 
Q 650 525 575 375 
L 2050 375 
Q 2275 375 2425 550 
Q 2575 725 2625 1075 
L 2775 1075 
L 2625 0 
L 300 0 
L 300 325 
Q 425 550 712 900 
Q 1000 1250 1475 1725 
Q 1900 2150 2100 2525 
Q 2300 2900 2300 3225 
z
" transform="scale(0.015625)"/>
       </defs>
       <use xlink:href="#FangSong-32"/>
       <use xlink:href="#FangSong-30" x="50"/>
      </g>
     </g>
    </g>
    <g id="xtick_4">
     <g id="line2d_4">
      <g>
       <use xlink:href="#m99f2b3933c" x="254.542551" y="307.584" style="stroke: #000000; stroke-width: 0.8"/>
      </g>
     </g>
     <g id="text_4">
      <!-- 30 -->
      <g transform="translate(249.542551 321.576187) scale(0.1 -0.1)">
       <defs>
        <path id="FangSong-33" d="M 2775 1150 
Q 2775 675 2425 312 
Q 2075 -50 1450 -50 
Q 1000 -50 675 200 
Q 350 450 350 775 
Q 350 925 450 1037 
Q 550 1150 650 1150 
Q 800 1150 862 1037 
Q 925 925 925 850 
Q 925 725 875 637 
Q 825 550 825 475 
Q 825 325 1012 225 
Q 1200 125 1425 125 
Q 1875 125 2100 387 
Q 2325 650 2325 1200 
Q 2325 1650 2087 1925 
Q 1850 2200 1200 2200 
L 1200 2375 
Q 1700 2375 1937 2612 
Q 2175 2850 2175 3275 
Q 2175 3625 1987 3887 
Q 1800 4150 1400 4150 
Q 1225 4150 1025 4062 
Q 825 3975 825 3775 
Q 825 3575 875 3525 
Q 925 3475 925 3400 
Q 925 3275 875 3200 
Q 825 3125 700 3125 
Q 600 3125 512 3200 
Q 425 3275 425 3475 
Q 425 3850 750 4087 
Q 1075 4325 1500 4325 
Q 2000 4325 2300 4012 
Q 2600 3700 2600 3350 
Q 2600 2975 2412 2712 
Q 2225 2450 1825 2325 
Q 2375 2125 2575 1800 
Q 2775 1475 2775 1150 
z
" transform="scale(0.015625)"/>
       </defs>
       <use xlink:href="#FangSong-33"/>
       <use xlink:href="#FangSong-30" x="50"/>
      </g>
     </g>
    </g>
    <g id="xtick_5">
     <g id="line2d_5">
      <g>
       <use xlink:href="#m99f2b3933c" x="316.856283" y="307.584" style="stroke: #000000; stroke-width: 0.8"/>
      </g>
     </g>
     <g id="text_5">
      <!-- 40 -->
      <g transform="translate(311.856283 321.576187) scale(0.1 -0.1)">
       <defs>
        <path id="FangSong-34" d="M 2275 475 
Q 2275 300 2375 225 
Q 2475 150 2650 150 
L 2875 150 
L 2875 0 
L 1225 0 
L 1225 150 
L 1500 150 
Q 1700 150 1787 225 
Q 1875 300 1875 475 
L 1875 1300 
L 200 1300 
L 200 1425 
L 2025 4325 
L 2275 4325 
L 2275 1450 
L 2950 1450 
L 2950 1300 
L 2275 1300 
L 2275 475 
z
M 1850 3700 
L 425 1450 
L 1875 1450 
L 1875 3700 
L 1850 3700 
z
" transform="scale(0.015625)"/>
       </defs>
       <use xlink:href="#FangSong-34"/>
       <use xlink:href="#FangSong-30" x="50"/>
      </g>
     </g>
    </g>
    <g id="xtick_6">
     <g id="line2d_6">
      <g>
       <use xlink:href="#m99f2b3933c" x="379.170016" y="307.584" style="stroke: #000000; stroke-width: 0.8"/>
      </g>
     </g>
     <g id="text_6">
      <!-- 50 -->
      <g transform="translate(374.170016 321.576187) scale(0.1 -0.1)">
       <defs>
        <path id="FangSong-35" d="M 1700 2750 
Q 2175 2750 2475 2387 
Q 2775 2025 2775 1425 
Q 2775 750 2462 350 
Q 2150 -50 1500 -50 
Q 1050 -50 700 212 
Q 350 475 350 850 
Q 350 1000 437 1112 
Q 525 1225 675 1225 
Q 825 1225 875 1125 
Q 925 1025 925 950 
Q 925 800 850 712 
Q 775 625 775 525 
Q 775 325 1012 225 
Q 1250 125 1525 125 
Q 1925 125 2137 450 
Q 2350 775 2350 1375 
Q 2350 1875 2162 2187 
Q 1975 2500 1600 2500 
Q 1325 2500 1125 2400 
Q 925 2300 750 1975 
L 525 2000 
L 650 4275 
L 2700 4275 
L 2625 3900 
L 825 3900 
L 725 2250 
Q 975 2600 1212 2675 
Q 1450 2750 1700 2750 
z
" transform="scale(0.015625)"/>
       </defs>
       <use xlink:href="#FangSong-35"/>
       <use xlink:href="#FangSong-30" x="50"/>
      </g>
     </g>
    </g>
    <g id="text_7">
     <!-- Latency -->
     <g transform="translate(218.66 333.974625) scale(0.1 -0.1)">
      <defs>
       <path id="FangSong-4c" d="M 975 350 
Q 975 250 1037 200 
Q 1100 150 1200 150 
L 1875 150 
Q 2225 150 2475 362 
Q 2725 575 2850 1025 
L 2975 975 
L 2750 0 
L 175 0 
L 175 150 
L 350 150 
Q 475 150 525 200 
Q 575 250 575 350 
L 575 3925 
Q 575 4025 525 4075 
Q 475 4125 350 4125 
L 200 4125 
L 200 4275 
L 1375 4275 
L 1375 4125 
L 1200 4125 
Q 1100 4125 1037 4075 
Q 975 4025 975 3925 
L 975 350 
z
" transform="scale(0.015625)"/>
       <path id="FangSong-61" d="M 1200 -25 
Q 750 -25 500 187 
Q 250 400 250 675 
Q 250 1125 637 1412 
Q 1025 1700 2175 1825 
L 2175 2125 
Q 2175 2375 2062 2537 
Q 1950 2700 1550 2700 
Q 1125 2700 950 2562 
Q 775 2425 825 2275 
Q 875 2175 825 2075 
Q 775 1975 625 1975 
Q 525 1975 462 2037 
Q 400 2100 400 2225 
Q 400 2450 725 2650 
Q 1050 2850 1525 2850 
Q 2025 2850 2275 2662 
Q 2525 2475 2525 2125 
L 2525 475 
Q 2525 275 2562 237 
Q 2600 200 2700 200 
Q 2825 200 2875 312 
Q 2925 425 2925 625 
L 3050 625 
Q 3050 275 2925 137 
Q 2800 0 2600 0 
Q 2425 0 2325 75 
Q 2225 150 2175 325 
Q 1925 150 1712 62 
Q 1500 -25 1200 -25 
z
M 675 750 
Q 675 525 812 337 
Q 950 150 1250 150 
Q 1475 150 1700 237 
Q 1925 325 2175 500 
L 2175 1675 
Q 1325 1575 1000 1337 
Q 675 1100 675 750 
z
" transform="scale(0.015625)"/>
       <path id="FangSong-74" d="M 1475 800 
Q 1475 450 1600 325 
Q 1725 200 1975 200 
Q 2225 200 2375 362 
Q 2525 525 2575 825 
L 2700 775 
Q 2650 425 2437 200 
Q 2225 -25 1875 -25 
Q 1500 -25 1312 200 
Q 1125 425 1125 900 
L 1125 2650 
L 375 2650 
L 375 2800 
L 575 2800 
Q 875 2800 1062 2987 
Q 1250 3175 1300 3575 
L 1325 3775 
L 1475 3775 
L 1475 2800 
L 2475 2800 
L 2475 2650 
L 1475 2650 
L 1475 800 
z
" transform="scale(0.015625)"/>
       <path id="FangSong-65" d="M 2375 1550 
Q 2400 2100 2187 2387 
Q 1975 2675 1625 2675 
Q 1250 2675 1012 2375 
Q 775 2075 775 1550 
L 2375 1550 
z
M 775 1400 
Q 775 725 1037 437 
Q 1300 150 1725 150 
Q 2050 150 2275 337 
Q 2500 525 2600 800 
L 2725 750 
Q 2650 475 2387 212 
Q 2125 -50 1675 -50 
Q 1100 -50 737 325 
Q 375 700 375 1400 
Q 375 2025 737 2437 
Q 1100 2850 1625 2850 
Q 2100 2850 2450 2525 
Q 2800 2200 2800 1400 
L 775 1400 
z
" transform="scale(0.015625)"/>
       <path id="FangSong-6e" d="M 175 0 
L 175 150 
L 300 150 
Q 425 150 475 200 
Q 525 250 525 350 
L 525 2500 
Q 525 2575 500 2612 
Q 475 2650 400 2650 
L 200 2650 
L 200 2800 
L 375 2800 
Q 500 2800 612 2825 
Q 725 2850 825 2925 
L 875 2925 
L 875 2350 
Q 1100 2600 1325 2725 
Q 1550 2850 1800 2850 
Q 2225 2850 2425 2625 
Q 2625 2400 2625 1950 
L 2625 350 
Q 2625 250 2687 200 
Q 2750 150 2850 150 
L 2975 150 
L 2975 0 
L 1925 0 
L 1925 150 
L 2050 150 
Q 2175 150 2225 200 
Q 2275 250 2275 350 
L 2275 2025 
Q 2275 2325 2150 2487 
Q 2025 2650 1775 2650 
Q 1550 2650 1312 2500 
Q 1075 2350 875 2075 
L 875 350 
Q 875 250 937 200 
Q 1000 150 1100 150 
L 1225 150 
L 1225 0 
L 175 0 
z
" transform="scale(0.015625)"/>
       <path id="FangSong-63" d="M 2125 2125 
Q 2125 2200 2137 2225 
Q 2150 2250 2175 2325 
Q 2200 2425 2075 2562 
Q 1950 2700 1650 2700 
Q 1275 2700 1012 2337 
Q 750 1975 750 1375 
Q 750 825 975 487 
Q 1200 150 1725 150 
Q 2075 150 2312 375 
Q 2550 600 2650 900 
L 2775 850 
Q 2675 475 2400 212 
Q 2125 -50 1650 -50 
Q 1050 -50 700 325 
Q 350 700 350 1400 
Q 350 2025 725 2437 
Q 1100 2850 1700 2850 
Q 2125 2850 2362 2625 
Q 2600 2400 2600 2175 
Q 2600 2025 2537 1962 
Q 2475 1900 2350 1900 
Q 2250 1900 2187 1962 
Q 2125 2025 2125 2125 
z
" transform="scale(0.015625)"/>
       <path id="FangSong-79" d="M 1625 700 
L 1675 700 
L 2225 2375 
Q 2275 2500 2212 2575 
Q 2150 2650 2050 2650 
L 1900 2650 
L 1900 2800 
L 2950 2800 
L 2950 2650 
L 2800 2650 
Q 2700 2650 2600 2575 
Q 2500 2500 2450 2375 
L 1600 -100 
Q 1475 -500 1287 -712 
Q 1100 -925 800 -950 
Q 650 -950 537 -875 
Q 425 -800 425 -675 
Q 425 -575 487 -500 
Q 550 -425 675 -425 
Q 775 -425 837 -525 
Q 900 -625 1050 -587 
Q 1200 -550 1250 -425 
Q 1300 -350 1375 -162 
Q 1450 25 1500 225 
L 650 2425 
Q 625 2525 537 2587 
Q 450 2650 350 2650 
L 250 2650 
L 250 2800 
L 1300 2800 
L 1300 2650 
L 1200 2650 
Q 1100 2650 1050 2587 
Q 1000 2525 1025 2400 
L 1625 700 
z
" transform="scale(0.015625)"/>
      </defs>
      <use xlink:href="#FangSong-4c"/>
      <use xlink:href="#FangSong-61" x="50"/>
      <use xlink:href="#FangSong-74" x="100"/>
      <use xlink:href="#FangSong-65" x="150"/>
      <use xlink:href="#FangSong-6e" x="200"/>
      <use xlink:href="#FangSong-63" x="250"/>
      <use xlink:href="#FangSong-79" x="300"/>
     </g>
    </g>
   </g>
   <g id="matplotlib.axis_2">
    <g id="ytick_1">
     <g id="line2d_7">
      <defs>
       <path id="m747f90730f" d="M 0 0 
L -3.5 0 
" style="stroke: #000000; stroke-width: 0.8"/>
      </defs>
      <g>
       <use xlink:href="#m747f90730f" x="57.6" y="295.488" style="stroke: #000000; stroke-width: 0.8"/>
      </g>
     </g>
     <g id="text_8">
      <!-- 0% -->
      <g transform="translate(40.6 298.984094) scale(0.1 -0.1)">
       <defs>
        <path id="FangSong-25" d="M 725 4150 
Q 575 4150 475 3950 
Q 375 3750 375 3200 
Q 375 2575 487 2387 
Q 600 2200 725 2200 
Q 900 2200 987 2425 
Q 1075 2650 1075 3200 
Q 1075 3650 1012 3900 
Q 950 4150 725 4150 
z
M 1400 3175 
Q 1400 2725 1250 2387 
Q 1100 2050 725 2050 
Q 425 2050 237 2350 
Q 50 2650 50 3175 
Q 50 3725 250 4025 
Q 450 4325 725 4325 
Q 1025 4325 1212 4012 
Q 1400 3700 1400 3175 
z
M 2700 1100 
Q 2700 1525 2625 1800 
Q 2550 2075 2350 2075 
Q 2200 2075 2100 1837 
Q 2000 1600 2000 1100 
Q 2000 475 2112 300 
Q 2225 125 2350 125 
Q 2525 125 2612 337 
Q 2700 550 2700 1100 
z
M 3025 1075 
Q 3025 575 2850 262 
Q 2675 -50 2350 -50 
Q 2075 -50 1875 262 
Q 1675 575 1675 1075 
Q 1675 1625 1875 1937 
Q 2075 2250 2350 2250 
Q 2650 2250 2837 1925 
Q 3025 1600 3025 1075 
z
M 2500 4250 
L 700 -50 
L 550 25 
L 2325 4325 
L 2500 4250 
z
" transform="scale(0.015625)"/>
       </defs>
       <use xlink:href="#FangSong-30"/>
       <use xlink:href="#FangSong-25" x="50"/>
      </g>
     </g>
    </g>
    <g id="ytick_2">
     <g id="line2d_8">
      <g>
       <use xlink:href="#m747f90730f" x="57.6" y="247.104" style="stroke: #000000; stroke-width: 0.8"/>
      </g>
     </g>
     <g id="text_9">
      <!-- 20% -->
      <g transform="translate(35.6 250.600094) scale(0.1 -0.1)">
       <use xlink:href="#FangSong-32"/>
       <use xlink:href="#FangSong-30" x="50"/>
       <use xlink:href="#FangSong-25" x="100"/>
      </g>
     </g>
    </g>
    <g id="ytick_3">
     <g id="line2d_9">
      <g>
       <use xlink:href="#m747f90730f" x="57.6" y="198.72" style="stroke: #000000; stroke-width: 0.8"/>
      </g>
     </g>
     <g id="text_10">
      <!-- 40% -->
      <g transform="translate(35.6 202.216094) scale(0.1 -0.1)">
       <use xlink:href="#FangSong-34"/>
       <use xlink:href="#FangSong-30" x="50"/>
       <use xlink:href="#FangSong-25" x="100"/>
      </g>
     </g>
    </g>
    <g id="ytick_4">
     <g id="line2d_10">
      <g>
       <use xlink:href="#m747f90730f" x="57.6" y="150.336" style="stroke: #000000; stroke-width: 0.8"/>
      </g>
     </g>
     <g id="text_11">
      <!-- 60% -->
      <g transform="translate(35.6 153.832094) scale(0.1 -0.1)">
       <defs>
        <path id="FangSong-36" d="M 750 1700 
Q 750 950 1012 537 
Q 1275 125 1650 125 
Q 2025 125 2225 400 
Q 2425 675 2425 1425 
Q 2425 1925 2212 2200 
Q 2000 2475 1700 2475 
Q 1425 2475 1187 2312 
Q 950 2150 750 1700 
z
M 1725 2725 
Q 2325 2725 2587 2325 
Q 2850 1925 2850 1425 
Q 2850 675 2487 312 
Q 2125 -50 1650 -50 
Q 975 -50 625 462 
Q 275 975 275 1950 
Q 275 3100 700 3712 
Q 1125 4325 1850 4325 
Q 2200 4325 2412 4125 
Q 2625 3925 2625 3775 
Q 2625 3625 2562 3550 
Q 2500 3475 2350 3475 
Q 2225 3475 2162 3537 
Q 2100 3600 2100 3725 
Q 2100 3775 2112 3825 
Q 2125 3875 2125 3925 
Q 2125 4025 2050 4087 
Q 1975 4150 1775 4150 
Q 1350 4150 1050 3762 
Q 750 3375 750 2075 
Q 900 2400 1162 2562 
Q 1425 2725 1725 2725 
z
" transform="scale(0.015625)"/>
       </defs>
       <use xlink:href="#FangSong-36"/>
       <use xlink:href="#FangSong-30" x="50"/>
       <use xlink:href="#FangSong-25" x="100"/>
      </g>
     </g>
    </g>
    <g id="ytick_5">
     <g id="line2d_11">
      <g>
       <use xlink:href="#m747f90730f" x="57.6" y="101.952" style="stroke: #000000; stroke-width: 0.8"/>
      </g>
     </g>
     <g id="text_12">
      <!-- 80% -->
      <g transform="translate(35.6 105.448094) scale(0.1 -0.1)">
       <defs>
        <path id="FangSong-38" d="M 600 1025 
Q 600 625 862 375 
Q 1125 125 1525 125 
Q 2000 125 2212 375 
Q 2425 625 2425 1000 
Q 2425 1325 2125 1625 
Q 1825 1925 1225 2175 
Q 925 1975 762 1675 
Q 600 1375 600 1025 
z
M 2800 1075 
Q 2800 600 2450 275 
Q 2100 -50 1525 -50 
Q 1000 -50 625 275 
Q 250 600 250 1025 
Q 250 1450 462 1750 
Q 675 2050 1075 2275 
Q 725 2450 537 2712 
Q 350 2975 350 3300 
Q 350 3725 675 4025 
Q 1000 4325 1575 4325 
Q 2100 4325 2425 4025 
Q 2750 3725 2750 3300 
Q 2750 3000 2562 2737 
Q 2375 2475 1975 2275 
Q 2400 2025 2600 1725 
Q 2800 1425 2800 1075 
z
M 2400 3275 
Q 2400 3625 2200 3887 
Q 2000 4150 1575 4150 
Q 1100 4150 900 3900 
Q 700 3650 700 3375 
Q 700 3100 987 2837 
Q 1275 2575 1800 2375 
Q 2100 2525 2250 2750 
Q 2400 2975 2400 3275 
z
" transform="scale(0.015625)"/>
       </defs>
       <use xlink:href="#FangSong-38"/>
       <use xlink:href="#FangSong-30" x="50"/>
       <use xlink:href="#FangSong-25" x="100"/>
      </g>
     </g>
    </g>
    <g id="ytick_6">
     <g id="line2d_12">
      <g>
       <use xlink:href="#m747f90730f" x="57.6" y="53.568" style="stroke: #000000; stroke-width: 0.8"/>
      </g>
     </g>
     <g id="text_13">
      <!-- 100% -->
      <g transform="translate(30.6 57.064094) scale(0.1 -0.1)">
       <use xlink:href="#FangSong-31"/>
       <use xlink:href="#FangSong-30" x="50"/>
       <use xlink:href="#FangSong-30" x="100"/>
       <use xlink:href="#FangSong-25" x="150"/>
      </g>
     </g>
    </g>
    <g id="text_14">
     <!-- 累计完成比例 -->
     <g transform="translate(25.154688 204.528) rotate(-90) scale(0.1 -0.1)">
      <defs>
       <path id="FangSong-7d2f" d="M 4525 4975 
L 4700 5225 
L 5000 4950 
L 4825 4775 
L 4625 3550 
L 4850 3300 
L 3175 3150 
L 3375 2975 
Q 3200 2925 2862 2725 
Q 2525 2525 2075 2275 
L 3475 2500 
Q 3750 2675 3900 2800 
Q 4050 2925 4100 3075 
L 4175 3100 
L 4325 2700 
Q 4200 2675 3500 2237 
Q 2800 1800 2275 1550 
L 4375 1825 
L 3900 2175 
L 4000 2275 
Q 4625 1900 4950 1725 
Q 4975 1475 4925 1225 
Q 4800 1375 4500 1675 
L 3250 1475 
L 3525 1300 
Q 3375 1200 3375 875 
L 3375 25 
Q 3375 -325 3225 -625 
Q 2975 -325 2400 150 
L 2450 250 
L 3050 -75 
Q 3150 -125 3150 0 
L 3150 925 
Q 3150 1300 3125 1450 
Q 1875 1275 1575 1175 
L 1325 1425 
L 1850 1550 
Q 2175 1700 3250 2300 
Q 2075 2100 1875 2000 
L 1575 2250 
L 1800 2300 
Q 2150 2475 3025 3125 
L 2000 3025 
Q 2000 2675 1950 2700 
Q 1900 2725 1650 3025 
Q 1725 3250 1725 3425 
L 1650 4400 
Q 1625 4675 1525 4950 
L 1625 5000 
L 1875 4675 
L 4525 4975 
z
M 3150 3375 
L 3150 3875 
Q 2525 3800 2400 3725 
L 2100 3975 
Q 2500 3975 3150 4075 
L 3150 4600 
L 1900 4450 
L 1975 3250 
L 3150 3375 
z
M 3375 4100 
Q 3950 4175 4025 4225 
L 4275 4000 
Q 3950 3975 3375 3900 
L 3375 3400 
L 4400 3500 
L 4575 4750 
L 3375 4600 
L 3375 4100 
z
M 5450 -75 
Q 4975 325 3875 1025 
L 3950 1125 
Q 4850 700 5350 500 
Q 5425 250 5450 -75 
z
M 800 -250 
Q 1350 75 1825 500 
Q 2300 925 2325 1125 
L 2400 1150 
L 2550 725 
Q 2425 700 2075 425 
Q 1725 150 875 -350 
L 800 -250 
z
" transform="scale(0.015625)"/>
       <path id="FangSong-8ba1" d="M 4075 4200 
Q 4100 4825 3900 5100 
L 3975 5150 
L 4450 4725 
Q 4275 4600 4300 4200 
L 4275 3000 
Q 5525 3200 5575 3250 
L 5950 2950 
Q 5725 2975 4275 2800 
L 4250 -425 
Q 4250 -700 4150 -575 
L 3875 -150 
Q 4050 50 4025 300 
L 4050 2750 
Q 2975 2625 2900 2575 
L 2525 2825 
Q 2850 2825 4050 2975 
L 4075 4200 
z
M 1775 3250 
L 2100 2950 
L 1900 2750 
L 1875 550 
L 2825 1250 
L 2875 1175 
Q 1875 250 1750 -25 
L 1525 275 
Q 1625 375 1650 625 
L 1675 2775 
Q 900 2625 750 2550 
L 425 2800 
Q 850 2825 1650 3000 
L 1775 3250 
z
M 2025 3800 
Q 1825 4300 1325 4950 
L 1375 5025 
Q 1925 4575 2175 4300 
Q 2125 4000 2025 3800 
z
" transform="scale(0.015625)"/>
       <path id="FangSong-5b8c" d="M 5375 2050 
Q 4925 2050 3550 1950 
L 3850 1750 
Q 3725 1600 3700 1375 
L 3675 275 
Q 3650 -125 4075 -175 
L 4925 -175 
Q 5300 -150 5312 62 
Q 5325 275 5325 1025 
L 5425 1025 
Q 5450 750 5475 337 
Q 5500 -75 5700 -275 
Q 5400 -375 5000 -400 
L 4075 -400 
Q 3425 -350 3425 150 
L 3475 1450 
Q 3475 1775 3425 1925 
L 2675 1850 
L 2875 1650 
Q 2750 1550 2600 1200 
Q 2450 850 2025 312 
Q 1600 -225 600 -675 
L 550 -575 
Q 1525 -100 1987 625 
Q 2450 1350 2525 1850 
Q 1550 1775 1500 1725 
L 1150 2025 
Q 1625 2025 3212 2150 
Q 4800 2275 5000 2350 
L 5375 2050 
z
M 1650 3650 
Q 1550 3125 1325 2875 
L 1150 3250 
Q 1450 3425 1575 4400 
L 1675 4400 
L 1675 3900 
L 5025 4150 
L 5175 4400 
L 5525 4075 
Q 5375 4050 4725 3250 
L 4650 3325 
L 4975 3900 
L 1650 3650 
z
M 4475 2975 
Q 4225 2975 3412 2875 
Q 2600 2775 2400 2725 
L 2050 2975 
Q 2575 2975 3200 3075 
Q 3825 3175 4150 3225 
L 4475 2975 
z
M 3550 4575 
Q 3475 4350 3300 4150 
Q 3225 4475 2900 5200 
L 2975 5250 
Q 3350 4825 3550 4575 
z
" transform="scale(0.015625)"/>
       <path id="FangSong-6210" d="M 5575 975 
Q 5600 -150 5750 -625 
Q 4650 -225 4000 1075 
Q 3625 650 2975 225 
L 2925 325 
Q 3525 825 3900 1300 
Q 3600 2275 3500 3300 
L 1875 3125 
Q 1875 2625 1825 2100 
L 2725 2250 
L 2875 2475 
L 3175 2225 
L 3000 2050 
Q 2850 475 2575 -125 
Q 2225 400 1825 775 
L 1875 850 
L 2475 400 
Q 2650 875 2750 2000 
L 1825 1850 
Q 1675 250 600 -650 
L 525 -600 
Q 1250 250 1425 987 
Q 1600 1725 1625 2612 
Q 1650 3500 1550 3800 
L 1625 3825 
L 1850 3350 
L 3450 3525 
Q 3400 4150 3375 4562 
Q 3350 4975 3225 5200 
L 3275 5225 
L 3725 4900 
Q 3625 4925 3637 4575 
Q 3650 4225 3675 3550 
Q 4900 3700 5050 3775 
L 5325 3475 
Q 4775 3475 3725 3325 
Q 3775 2425 4075 1525 
Q 4500 2025 4687 2325 
Q 4875 2625 4800 2850 
L 4875 2875 
L 5125 2325 
Q 5075 2400 4850 2125 
Q 4625 1850 4150 1275 
Q 4625 225 5425 -125 
L 5475 975 
L 5575 975 
z
M 4100 5000 
Q 4525 4700 4875 4450 
Q 4825 4250 4750 4025 
Q 4400 4525 4025 4950 
L 4100 5000 
z
" transform="scale(0.015625)"/>
       <path id="FangSong-6bd4" d="M 3500 2125 
Q 3925 2425 4487 2975 
Q 5050 3525 4950 3750 
L 5025 3775 
L 5250 3225 
Q 5175 3250 4875 3000 
Q 4575 2750 4287 2525 
Q 4000 2300 3500 1900 
L 3500 575 
Q 3475 -100 4150 -100 
L 4800 -100 
Q 5275 -100 5375 12 
Q 5475 125 5450 1350 
L 5575 1350 
Q 5600 825 5637 412 
Q 5675 0 5800 -175 
Q 5375 -325 4800 -325 
L 4150 -325 
Q 3225 -350 3275 550 
L 3275 4300 
Q 3275 4875 3150 5150 
L 3200 5200 
L 3625 4850 
Q 3475 4825 3500 4250 
L 3500 2125 
z
M 1500 2575 
Q 1900 2625 2337 2712 
Q 2775 2800 2800 2850 
L 3075 2600 
Q 2875 2575 2350 2475 
Q 1825 2375 1775 2325 
L 1500 2525 
L 1500 150 
L 2925 1075 
L 2975 1025 
Q 1550 -75 1375 -350 
L 1200 0 
Q 1275 75 1275 350 
L 1275 3925 
Q 1275 4475 1150 4750 
L 1200 4800 
L 1625 4400 
Q 1475 4375 1500 3925 
L 1500 2575 
z
" transform="scale(0.015625)"/>
       <path id="FangSong-4f8b" d="M 3050 2000 
Q 3025 1800 2975 1600 
Q 2775 1900 2525 2250 
Q 2300 1875 2025 1550 
L 1925 1625 
Q 2675 2725 2975 3975 
Q 2475 3925 2375 3875 
L 2050 4125 
Q 2375 4125 3162 4225 
Q 3950 4325 4100 4450 
L 4350 4125 
Q 4050 4150 3100 3975 
L 3300 3700 
Q 3200 3675 3125 3525 
Q 3050 3375 2925 3050 
L 3625 3150 
L 3775 3350 
L 4050 3075 
L 3875 2900 
Q 3300 825 1850 -225 
L 1800 -100 
Q 3100 975 3625 2900 
Q 3150 2825 3025 2775 
L 2875 2925 
Q 2775 2675 2575 2350 
Q 2900 2125 3050 2000 
z
M 1275 -150 
Q 1425 25 1400 225 
L 1450 3425 
Q 1025 2800 475 2225 
L 400 2325 
Q 875 2850 1450 3887 
Q 2025 4925 1925 5150 
L 2000 5175 
L 2250 4700 
Q 2200 4725 2062 4475 
Q 1925 4225 1675 3800 
L 1625 -325 
Q 1650 -675 1525 -600 
L 1275 -150 
z
M 5475 250 
Q 5475 -300 5300 -650 
Q 4900 -100 4300 375 
L 4350 475 
L 5200 -75 
Q 5250 250 5250 575 
L 5250 4350 
Q 5275 4950 5100 5150 
L 5175 5225 
L 5600 4850 
Q 5450 4775 5475 4325 
L 5475 250 
z
M 4300 1525 
Q 4400 1650 4400 1900 
L 4400 3075 
Q 4425 3525 4300 3750 
L 4350 3800 
L 4725 3450 
Q 4600 3350 4625 3025 
L 4625 1375 
Q 4625 1050 4550 1125 
L 4300 1525 
z
" transform="scale(0.015625)"/>
      </defs>
      <use xlink:href="#FangSong-7d2f"/>
      <use xlink:href="#FangSong-8ba1" x="100"/>
      <use xlink:href="#FangSong-5b8c" x="200"/>
      <use xlink:href="#FangSong-6210" x="300"/>
      <use xlink:href="#FangSong-6bd4" x="400"/>
      <use xlink:href="#FangSong-4f8b" x="500"/>
     </g>
    </g>
   </g>
   <g id="line2d_13">
    <path d="M 73.832727 295.488 
L 74.455865 208.88064 
L 76.325277 208.15488 
L 76.948414 208.15488 
L 77.571551 207.67104 
L 78.817826 207.1872 
L 80.064101 206.21952 
L 80.687238 205.9776 
L 81.310375 205.00992 
L 83.179787 204.28416 
L 83.802924 204.28416 
L 84.426062 203.80032 
L 85.049199 203.07456 
L 85.672336 202.59072 
L 86.295474 201.38112 
L 86.918611 201.38112 
L 87.541748 200.41344 
L 88.788023 199.44576 
L 89.41116 198.72 
L 90.657435 197.75232 
L 91.280572 197.75232 
L 91.90371 197.5104 
L 93.149984 195.33312 
L 93.773122 194.36544 
L 94.396259 194.12352 
L 95.642534 194.12352 
L 96.265671 192.672 
L 96.888808 192.43008 
L 97.511946 191.70432 
L 98.75822 189.0432 
L 100.004495 187.59168 
L 100.627632 187.59168 
L 101.250769 186.38208 
L 101.873907 186.14016 
L 102.497044 185.17248 
L 103.743319 183.72096 
L 104.366456 182.75328 
L 106.235868 178.88256 
L 106.859005 178.64064 
L 107.482143 177.91488 
L 108.10528 177.91488 
L 109.351555 176.46336 
L 109.974692 175.97952 
L 110.597829 174.28608 
L 111.220967 173.80224 
L 111.844104 173.07648 
L 112.467241 173.07648 
L 113.090379 172.83456 
L 113.713516 171.62496 
L 114.336653 170.8992 
L 114.959791 170.41536 
L 116.206065 166.0608 
L 116.829203 164.60928 
L 117.45234 163.88352 
L 119.321752 159.77088 
L 120.568027 154.44864 
L 121.191164 153.23904 
L 123.060576 151.78752 
L 123.683713 151.06176 
L 124.30685 149.61024 
L 124.929988 149.1264 
L 126.176262 147.67488 
L 126.7994 147.19104 
L 128.045674 145.73952 
L 128.668812 144.77184 
L 129.291949 143.0784 
L 129.915086 142.59456 
L 130.538224 142.59456 
L 131.161361 141.8688 
L 131.784498 140.90112 
L 132.407636 140.17536 
L 133.65391 139.69152 
L 134.277048 139.20768 
L 134.900185 138.24 
L 135.523322 138.24 
L 136.14646 137.99808 
L 137.392734 137.99808 
L 138.015872 137.51424 
L 139.885284 136.78848 
L 141.131558 135.8208 
L 141.754696 135.09504 
L 142.377833 134.6112 
L 143.00097 133.64352 
L 143.624107 133.15968 
L 144.870382 131.70816 
L 145.493519 130.74048 
L 146.116657 130.49856 
L 146.739794 130.01472 
L 147.362931 128.80512 
L 147.986069 128.5632 
L 148.609206 127.3536 
L 149.855481 126.86976 
L 150.478618 126.86976 
L 151.101755 126.62784 
L 151.724893 125.90208 
L 152.34803 124.45056 
L 152.971167 123.96672 
L 154.217442 121.54752 
L 154.840579 121.3056 
L 155.463717 120.82176 
L 156.086854 120.57984 
L 156.709991 119.61216 
L 157.333129 119.12832 
L 157.956266 118.8864 
L 158.579403 117.6768 
L 159.202541 117.43488 
L 159.825678 116.95104 
L 160.448815 116.95104 
L 161.69509 116.4672 
L 162.318227 116.4672 
L 162.941365 115.49952 
L 164.187639 115.01568 
L 164.810776 114.53184 
L 165.433914 113.80608 
L 166.057051 113.32224 
L 166.680188 113.32224 
L 167.303326 112.8384 
L 167.926463 112.8384 
L 168.5496 112.59648 
L 169.172738 111.6288 
L 169.795875 111.38688 
L 170.419012 110.90304 
L 171.04215 109.93536 
L 171.665287 109.45152 
L 172.288424 108.72576 
L 172.911562 108.48384 
L 173.534699 108 
L 174.157836 106.7904 
L 174.780974 106.30656 
L 175.404111 106.30656 
L 176.027248 105.82272 
L 176.650386 104.3712 
L 177.273523 103.40352 
L 177.89666 102.91968 
L 178.519798 101.22624 
L 179.142935 100.7424 
L 179.766072 99.77472 
L 180.38921 99.04896 
L 181.012347 97.59744 
L 181.635484 97.59744 
L 182.258622 97.1136 
L 183.504896 94.45248 
L 184.128034 93.72672 
L 184.751171 93.4848 
L 185.374308 93.4848 
L 185.997445 92.75904 
L 186.620583 92.75904 
L 187.24372 91.79136 
L 189.113132 91.0656 
L 190.359407 91.0656 
L 190.982544 90.82368 
L 191.605681 90.33984 
L 192.851956 90.33984 
L 193.475093 89.61408 
L 194.098231 89.37216 
L 194.721368 89.37216 
L 195.967643 88.88832 
L 196.59078 88.88832 
L 197.837055 88.40448 
L 198.460192 88.40448 
L 199.083329 87.67872 
L 199.706467 87.19488 
L 200.952741 86.71104 
L 202.822153 86.71104 
L 203.445291 86.2272 
L 204.068428 85.98528 
L 205.314702 85.98528 
L 205.93784 85.50144 
L 209.053526 84.29184 
L 209.676664 84.29184 
L 210.299801 83.808 
L 213.415488 83.808 
L 214.038625 83.32416 
L 214.661762 83.32416 
L 215.2849 82.84032 
L 215.908037 82.5984 
L 216.531174 82.11456 
L 218.400586 82.11456 
L 220.269998 81.3888 
L 225.255097 81.3888 
L 228.370783 80.1792 
L 230.240195 80.1792 
L 230.863333 79.69536 
L 231.48647 79.45344 
L 232.109607 78.9696 
L 232.732745 78.9696 
L 233.355882 78.72768 
L 234.602157 78.72768 
L 235.225294 78.24384 
L 235.848431 78.00192 
L 236.471569 78.00192 
L 237.094706 77.51808 
L 237.717843 77.27616 
L 238.964118 77.27616 
L 239.587255 77.03424 
L 240.83353 76.06656 
L 242.702942 76.06656 
L 243.326079 75.82464 
L 243.949217 75.82464 
L 244.572354 75.58272 
L 246.441766 75.58272 
L 247.68804 75.09888 
L 248.311178 75.09888 
L 248.934315 74.85696 
L 257.658238 74.85696 
L 258.281375 74.61504 
L 259.52765 74.61504 
L 260.150787 74.37312 
L 260.773924 74.37312 
L 261.397062 74.1312 
L 262.643336 74.1312 
L 263.266474 73.88928 
L 264.512748 73.88928 
L 265.759023 73.40544 
L 266.38216 72.9216 
L 268.251572 72.9216 
L 268.874709 72.67968 
L 269.497847 72.19584 
L 270.120984 72.19584 
L 271.367259 71.712 
L 271.990396 71.712 
L 273.236671 70.74432 
L 274.482945 70.26048 
L 276.975495 70.26048 
L 277.598632 70.01856 
L 279.468044 70.01856 
L 280.091181 69.77664 
L 281.960593 69.77664 
L 282.583731 69.53472 
L 284.453143 69.53472 
L 285.07628 69.2928 
L 288.815104 69.2928 
L 289.438241 69.05088 
L 290.061378 69.05088 
L 291.307653 68.56704 
L 291.93079 68.56704 
L 292.553928 68.32512 
L 295.046477 68.32512 
L 295.669614 68.0832 
L 296.915889 68.0832 
L 297.539026 67.84128 
L 298.162164 67.35744 
L 298.785301 67.11552 
L 302.524125 67.11552 
L 303.147262 66.8736 
L 303.7704 66.8736 
L 304.393537 66.63168 
L 312.494322 66.63168 
L 313.740597 66.14784 
L 315.610009 66.14784 
L 316.233146 65.90592 
L 317.479421 65.90592 
L 318.102558 65.664 
L 319.97197 65.664 
L 321.218245 65.18016 
L 322.464519 65.18016 
L 324.333931 64.4544 
L 324.957069 64.4544 
L 326.203343 63.97056 
L 326.826481 63.97056 
L 327.449618 63.72864 
L 328.072755 63.72864 
L 328.695893 63.48672 
L 329.31903 63.00288 
L 329.942167 63.00288 
L 330.565304 62.76096 
L 331.188442 62.76096 
L 331.811579 62.51904 
L 332.434716 62.51904 
L 333.680991 62.0352 
L 334.927266 62.0352 
L 335.550403 61.55136 
L 336.17354 61.30944 
L 336.796678 61.30944 
L 337.419815 61.06752 
L 339.912364 61.06752 
L 340.535502 60.8256 
L 341.781776 60.8256 
L 342.404914 60.09984 
L 344.897463 60.09984 
L 345.5206 59.85792 
L 348.01315 59.85792 
L 349.259424 59.37408 
L 351.751973 59.37408 
L 352.375111 59.13216 
L 354.86766 59.13216 
L 355.490797 58.89024 
L 357.360209 58.89024 
L 357.983347 58.64832 
L 359.229621 58.64832 
L 359.852759 58.4064 
L 368.576681 58.4064 
L 369.199819 58.16448 
L 372.938642 58.16448 
L 373.56178 57.92256 
L 377.923741 57.92256 
L 378.546878 57.43872 
L 379.793153 57.43872 
L 381.039428 56.47104 
L 381.662565 56.47104 
L 382.285702 56.22912 
L 384.778252 56.22912 
L 385.401389 55.74528 
L 386.024526 55.50336 
L 386.647664 55.50336 
L 387.270801 55.01952 
L 387.893938 55.01952 
L 388.517076 54.7776 
L 392.255899 54.7776 
L 392.879037 54.53568 
L 394.748449 54.53568 
L 395.371586 54.05184 
L 397.240998 54.05184 
L 398.487273 53.568 
L 398.487273 53.568 
" clip-path="url(#p1536fac224)" style="fill: none; stroke: #ff0000; stroke-linecap: square"/>
   </g>
   <g id="line2d_14">
    <path d="M 73.832727 295.488 
L 74.455865 192.624378 
L 75.702139 192.624378 
L 76.325277 191.671937 
L 77.571551 191.671937 
L 78.194689 190.719496 
L 78.817826 190.719496 
L 79.440963 189.767055 
L 80.687238 189.767055 
L 81.310375 187.862173 
L 83.802924 187.862173 
L 84.426062 185.957291 
L 85.672336 185.957291 
L 86.295474 184.052409 
L 87.541748 184.052409 
L 89.41116 178.337764 
L 90.034298 178.337764 
L 90.657435 177.385323 
L 91.280572 177.385323 
L 92.526847 175.480441 
L 93.149984 172.623118 
L 95.642534 172.623118 
L 96.265671 169.765795 
L 97.511946 167.860913 
L 98.135083 165.003591 
L 98.75822 164.05115 
L 99.381358 162.146268 
L 100.004495 161.193827 
L 100.627632 161.193827 
L 101.250769 160.241386 
L 101.873907 160.241386 
L 102.497044 158.336504 
L 104.366456 158.336504 
L 105.612731 154.52674 
L 106.235868 151.669417 
L 106.859005 150.716976 
L 108.10528 150.716976 
L 108.728417 149.764535 
L 109.351555 147.859654 
L 109.974692 147.859654 
L 110.597829 146.907213 
L 111.220967 146.907213 
L 111.844104 144.04989 
L 112.467241 144.04989 
L 113.090379 143.097449 
L 114.336653 139.287685 
L 114.959791 138.335244 
L 115.582928 136.430362 
L 116.206065 133.573039 
L 116.829203 131.668157 
L 117.45234 131.668157 
L 118.075477 128.810835 
L 118.698615 126.905953 
L 121.191164 123.096189 
L 123.060576 123.096189 
L 123.683713 122.143748 
L 124.30685 119.286425 
L 124.929988 119.286425 
L 125.553125 118.333984 
L 126.176262 116.429102 
L 126.7994 116.429102 
L 127.422537 115.476661 
L 128.045674 112.619339 
L 128.668812 112.619339 
L 129.915086 110.714457 
L 130.538224 110.714457 
L 131.161361 107.857134 
L 132.407636 105.952252 
L 133.030773 105.952252 
L 134.900185 103.094929 
L 139.885284 103.094929 
L 140.508421 102.142488 
L 142.377833 102.142488 
L 143.00097 100.237606 
L 143.624107 99.285165 
L 144.247245 97.380283 
L 144.870382 97.380283 
L 145.493519 96.427843 
L 146.116657 96.427843 
L 147.362931 92.618079 
L 147.986069 92.618079 
L 148.609206 90.713197 
L 151.724893 90.713197 
L 152.34803 89.760756 
L 152.971167 89.760756 
L 153.594305 88.808315 
L 154.217442 88.808315 
L 154.840579 87.855874 
L 156.709991 87.855874 
L 157.333129 86.903433 
L 157.956266 86.903433 
L 159.202541 84.998551 
L 161.071953 84.998551 
L 161.69509 84.04611 
L 162.318227 84.04611 
L 162.941365 81.188787 
L 163.564502 80.236346 
L 164.187639 80.236346 
L 165.433914 78.331465 
L 166.680188 78.331465 
L 167.303326 77.379024 
L 168.5496 77.379024 
L 169.172738 76.426583 
L 169.795875 76.426583 
L 170.419012 75.474142 
L 171.04215 75.474142 
L 171.665287 74.521701 
L 172.911562 74.521701 
L 173.534699 73.56926 
L 174.157836 70.711937 
L 176.027248 70.711937 
L 176.650386 68.807055 
L 177.89666 68.807055 
L 178.519798 67.854614 
L 179.766072 67.854614 
L 180.38921 66.902173 
L 181.012347 64.997291 
L 185.374308 64.997291 
L 185.997445 64.04485 
L 186.620583 64.04485 
L 187.24372 63.092409 
L 187.866857 63.092409 
L 188.489995 62.139969 
L 190.982544 62.139969 
L 191.605681 61.187528 
L 192.851956 61.187528 
L 193.475093 60.235087 
L 197.213917 60.235087 
L 197.837055 59.282646 
L 199.083329 59.282646 
L 199.706467 58.330205 
L 202.822153 58.330205 
L 203.445291 57.377764 
L 205.314702 57.377764 
L 205.93784 56.425323 
L 206.560977 56.425323 
L 207.184114 55.472882 
L 230.863333 55.472882 
L 231.48647 54.520441 
L 240.210393 54.520441 
L 240.83353 53.568 
L 398.487273 53.568 
L 398.487273 53.568 
" clip-path="url(#p1536fac224)" style="fill: none; stroke-dasharray: 1.85,0.8; stroke-dashoffset: 0; stroke: #008000; stroke-width: 0.5"/>
   </g>
   <g id="line2d_15">
    <path d="M 73.832727 295.488 
L 74.455865 189.807158 
L 75.079002 189.807158 
L 75.702139 188.533895 
L 76.948414 188.533895 
L 77.571551 187.260632 
L 79.440963 187.260632 
L 80.064101 185.987368 
L 80.687238 185.987368 
L 81.310375 184.714105 
L 81.933512 184.714105 
L 82.55665 183.440842 
L 84.426062 183.440842 
L 86.295474 179.621053 
L 86.918611 179.621053 
L 87.541748 178.347789 
L 91.90371 178.347789 
L 92.526847 175.801263 
L 93.149984 175.801263 
L 93.773122 173.254737 
L 95.642534 173.254737 
L 96.265671 171.981474 
L 96.888808 171.981474 
L 97.511946 170.708211 
L 98.135083 170.708211 
L 98.75822 168.161684 
L 99.381358 168.161684 
L 100.004495 166.888421 
L 100.627632 166.888421 
L 101.250769 164.341895 
L 101.873907 164.341895 
L 103.120181 161.795368 
L 103.743319 161.795368 
L 106.235868 156.702316 
L 108.10528 156.702316 
L 109.351555 154.155789 
L 110.597829 154.155789 
L 111.220967 152.882526 
L 113.090379 152.882526 
L 113.713516 151.609263 
L 114.959791 151.609263 
L 116.206065 146.516211 
L 118.075477 146.516211 
L 118.698615 145.242947 
L 119.321752 145.242947 
L 119.944889 143.969684 
L 120.568027 140.149895 
L 121.191164 137.603368 
L 123.060576 137.603368 
L 124.30685 132.510316 
L 125.553125 132.510316 
L 127.422537 128.690526 
L 128.045674 128.690526 
L 128.668812 127.417263 
L 129.291949 127.417263 
L 129.915086 126.144 
L 131.161361 126.144 
L 131.784498 124.870737 
L 132.407636 122.324211 
L 134.277048 122.324211 
L 134.900185 119.777684 
L 137.392734 119.777684 
L 138.015872 118.504421 
L 140.508421 118.504421 
L 141.131558 115.957895 
L 141.754696 114.684632 
L 143.00097 114.684632 
L 143.624107 113.411368 
L 144.247245 113.411368 
L 144.870382 110.864842 
L 146.739794 110.864842 
L 147.362931 109.591579 
L 147.986069 109.591579 
L 148.609206 107.045053 
L 149.232343 107.045053 
L 149.855481 105.771789 
L 150.478618 105.771789 
L 151.101755 104.498526 
L 152.34803 96.858947 
L 152.971167 95.585684 
L 153.594305 95.585684 
L 154.217442 94.312421 
L 154.840579 94.312421 
L 155.463717 93.039158 
L 157.956266 93.039158 
L 158.579403 90.492632 
L 163.564502 90.492632 
L 164.187639 89.219368 
L 164.810776 89.219368 
L 166.057051 86.672842 
L 168.5496 86.672842 
L 169.172738 85.399579 
L 169.795875 85.399579 
L 172.288424 80.306526 
L 174.157836 80.306526 
L 174.780974 79.033263 
L 176.650386 79.033263 
L 177.273523 77.76 
L 179.142935 77.76 
L 179.766072 76.486737 
L 180.38921 76.486737 
L 181.012347 75.213474 
L 186.620583 75.213474 
L 187.24372 73.940211 
L 192.851956 73.940211 
L 194.098231 71.393684 
L 199.083329 71.393684 
L 200.952741 67.573895 
L 205.93784 67.573895 
L 206.560977 66.300632 
L 207.807252 66.300632 
L 209.053526 63.754105 
L 209.676664 63.754105 
L 210.299801 61.207579 
L 213.415488 61.207579 
L 214.038625 59.934316 
L 219.023724 59.934316 
L 220.269998 57.387789 
L 246.441766 57.387789 
L 247.064903 56.114526 
L 248.311178 56.114526 
L 248.934315 54.841263 
L 290.684516 54.841263 
L 291.307653 53.568 
L 398.487273 53.568 
L 398.487273 53.568 
" clip-path="url(#p1536fac224)" style="fill: none; stroke-dasharray: 1.85,0.8; stroke-dashoffset: 0; stroke: #0000ff; stroke-width: 0.5"/>
   </g>
   <g id="line2d_16">
    <path d="M 73.832727 295.488 
L 74.455865 241.374316 
L 78.194689 241.374316 
L 78.817826 239.782737 
L 79.440963 239.782737 
L 80.687238 236.599579 
L 82.55665 236.599579 
L 83.179787 235.008 
L 86.918611 235.008 
L 87.541748 233.416421 
L 88.788023 233.416421 
L 90.034298 230.233263 
L 91.90371 230.233263 
L 92.526847 228.641684 
L 95.642534 228.641684 
L 96.265671 227.050105 
L 97.511946 227.050105 
L 98.75822 223.866947 
L 100.627632 223.866947 
L 101.250769 222.275368 
L 104.989593 222.275368 
L 106.235868 219.092211 
L 108.10528 219.092211 
L 108.728417 217.500632 
L 109.974692 217.500632 
L 110.597829 214.317474 
L 113.713516 214.317474 
L 114.959791 211.134316 
L 116.206065 204.768 
L 116.829203 199.993263 
L 118.698615 199.993263 
L 119.321752 198.401684 
L 119.944889 190.443789 
L 120.568027 187.260632 
L 121.191164 187.260632 
L 121.814301 184.077474 
L 123.060576 180.894316 
L 128.045674 180.894316 
L 128.668812 177.711158 
L 129.291949 172.936421 
L 133.65391 172.936421 
L 134.277048 171.344842 
L 137.392734 171.344842 
L 138.639009 168.161684 
L 141.131558 168.161684 
L 141.754696 164.978526 
L 142.377833 163.386947 
L 143.00097 160.203789 
L 144.870382 160.203789 
L 145.493519 157.020632 
L 146.116657 155.429053 
L 147.986069 155.429053 
L 148.609206 153.837474 
L 151.724893 153.837474 
L 152.34803 152.245895 
L 153.594305 152.245895 
L 154.217442 150.654316 
L 156.086854 150.654316 
L 156.709991 147.471158 
L 160.448815 147.471158 
L 161.071953 145.879579 
L 168.5496 145.879579 
L 169.172738 144.288 
L 170.419012 144.288 
L 171.04215 141.104842 
L 173.534699 141.104842 
L 174.157836 137.921684 
L 176.027248 137.921684 
L 176.650386 136.330105 
L 177.273523 133.146947 
L 177.89666 133.146947 
L 178.519798 129.963789 
L 180.38921 129.963789 
L 181.012347 126.780632 
L 181.635484 126.780632 
L 182.258622 125.189053 
L 182.881759 120.414316 
L 184.128034 114.048 
L 184.751171 112.456421 
L 185.374308 112.456421 
L 185.997445 110.864842 
L 190.359407 110.864842 
L 190.982544 109.273263 
L 192.851956 109.273263 
L 193.475093 107.681684 
L 194.721368 107.681684 
L 195.344505 106.090105 
L 196.59078 106.090105 
L 197.213917 104.498526 
L 202.822153 104.498526 
L 204.068428 101.315368 
L 205.314702 101.315368 
L 205.93784 99.723789 
L 213.415488 99.723789 
L 214.038625 98.132211 
L 214.661762 98.132211 
L 215.2849 94.949053 
L 216.531174 91.765895 
L 218.400586 91.765895 
L 219.023724 90.174316 
L 225.255097 90.174316 
L 225.878234 88.582737 
L 227.124509 88.582737 
L 227.747646 86.991158 
L 230.240195 86.991158 
L 230.863333 85.399579 
L 231.48647 85.399579 
L 232.109607 83.808 
L 235.225294 83.808 
L 235.848431 82.216421 
L 236.471569 82.216421 
L 237.094706 79.033263 
L 237.717843 77.441684 
L 239.587255 77.441684 
L 240.210393 74.258526 
L 240.83353 72.666947 
L 242.702942 72.666947 
L 243.326079 71.075368 
L 243.949217 71.075368 
L 244.572354 69.483789 
L 257.658238 69.483789 
L 258.281375 67.892211 
L 259.52765 67.892211 
L 260.150787 66.300632 
L 265.759023 66.300632 
L 266.38216 64.709053 
L 268.874709 64.709053 
L 269.497847 63.117474 
L 272.613533 63.117474 
L 273.236671 61.525895 
L 291.93079 61.525895 
L 292.553928 59.934316 
L 297.539026 59.934316 
L 298.162164 58.342737 
L 315.610009 58.342737 
L 316.233146 56.751158 
L 324.957069 56.751158 
L 325.580206 55.159579 
L 348.636287 55.159579 
L 349.259424 53.568 
L 398.487273 53.568 
L 398.487273 53.568 
" clip-path="url(#p1536fac224)" style="fill: none; stroke-dasharray: 1.85,0.8; stroke-dashoffset: 0; stroke: #bf00bf; stroke-width: 0.5"/>
   </g>
   <g id="line2d_17">
    <path d="M 73.832727 295.488 
L 74.455865 181.699542 
L 75.079002 180.743336 
L 76.948414 180.743336 
L 77.571551 179.78713 
L 78.817826 179.78713 
L 79.440963 178.830925 
L 80.687238 178.830925 
L 81.933512 176.918514 
L 84.426062 176.918514 
L 85.049199 175.006103 
L 85.672336 174.049897 
L 86.295474 172.137486 
L 86.918611 172.137486 
L 87.541748 170.225075 
L 89.41116 170.225075 
L 90.034298 169.26887 
L 91.90371 169.26887 
L 93.149984 167.356458 
L 93.773122 165.444047 
L 94.396259 164.487842 
L 95.642534 164.487842 
L 96.265671 163.531636 
L 96.888808 163.531636 
L 97.511946 162.575431 
L 98.135083 160.66302 
L 100.004495 157.794403 
L 100.627632 157.794403 
L 102.497044 154.925787 
L 103.120181 153.013375 
L 104.366456 147.276142 
L 105.612731 143.45132 
L 106.859005 143.45132 
L 107.482143 140.582704 
L 109.351555 140.582704 
L 109.974692 138.670292 
L 110.597829 134.84547 
L 111.220967 133.889265 
L 113.090379 133.889265 
L 113.713516 131.976854 
L 114.959791 131.976854 
L 116.206065 128.152032 
L 116.829203 128.152032 
L 118.698615 125.283415 
L 119.321752 123.371004 
L 119.944889 120.502387 
L 120.568027 120.502387 
L 121.191164 119.546182 
L 121.814301 119.546182 
L 122.437438 118.589976 
L 123.683713 118.589976 
L 124.30685 117.633771 
L 125.553125 113.808949 
L 126.176262 113.808949 
L 127.422537 111.896538 
L 128.045674 111.896538 
L 128.668812 110.940332 
L 129.291949 109.027921 
L 131.161361 109.027921 
L 131.784498 107.11551 
L 132.407636 107.11551 
L 133.030773 106.159304 
L 134.277048 106.159304 
L 134.900185 105.203099 
L 135.523322 105.203099 
L 136.14646 104.246893 
L 138.639009 104.246893 
L 140.508421 101.378277 
L 141.754696 101.378277 
L 142.377833 100.422071 
L 143.624107 100.422071 
L 145.493519 97.553455 
L 146.739794 97.553455 
L 147.362931 95.641043 
L 151.724893 95.641043 
L 152.34803 94.684838 
L 152.971167 94.684838 
L 153.594305 90.860016 
L 154.217442 88.947605 
L 155.463717 88.947605 
L 156.086854 87.991399 
L 156.709991 86.078988 
L 157.333129 86.078988 
L 157.956266 85.122783 
L 158.579403 83.210372 
L 159.202541 83.210372 
L 159.825678 81.29796 
L 164.187639 81.29796 
L 164.810776 80.341755 
L 165.433914 80.341755 
L 166.057051 79.385549 
L 166.680188 79.385549 
L 167.303326 78.429344 
L 167.926463 78.429344 
L 168.5496 77.473138 
L 172.288424 77.473138 
L 173.534699 75.560727 
L 174.157836 75.560727 
L 174.780974 74.604522 
L 175.404111 74.604522 
L 176.027248 73.648316 
L 176.650386 71.735905 
L 177.273523 70.7797 
L 177.89666 68.867289 
L 178.519798 65.998672 
L 179.766072 62.17385 
L 181.012347 60.261439 
L 185.374308 60.261439 
L 185.997445 59.305233 
L 186.620583 59.305233 
L 187.24372 57.392822 
L 187.866857 56.436617 
L 188.489995 56.436617 
L 189.113132 55.480411 
L 195.344505 55.480411 
L 195.967643 54.524206 
L 198.460192 54.524206 
L 199.083329 53.568 
L 398.487273 53.568 
L 398.487273 53.568 
" clip-path="url(#p1536fac224)" style="fill: none; stroke-dasharray: 1.85,0.8; stroke-dashoffset: 0; stroke: #bfbf00; stroke-width: 0.5"/>
   </g>
   <g id="line2d_18">
    <path d="M 73.832727 295.488 
L 74.455865 273.058331 
L 90.034298 273.058331 
L 90.657435 271.456212 
L 114.959791 271.456212 
L 115.582928 269.854093 
L 116.206065 269.854093 
L 116.829203 268.251974 
L 118.698615 258.639258 
L 119.944889 255.43502 
L 120.568027 247.424424 
L 121.191164 245.822305 
L 122.437438 245.822305 
L 123.060576 244.220185 
L 128.668812 244.220185 
L 129.291949 242.618066 
L 147.362931 242.618066 
L 147.986069 241.015947 
L 148.609206 241.015947 
L 149.232343 239.413828 
L 152.34803 239.413828 
L 152.971167 237.811709 
L 153.594305 237.811709 
L 154.217442 236.209589 
L 154.840579 236.209589 
L 155.463717 234.60747 
L 156.709991 234.60747 
L 157.333129 233.005351 
L 162.318227 233.005351 
L 162.941365 231.403232 
L 164.810776 231.403232 
L 165.433914 229.801113 
L 168.5496 229.801113 
L 169.795875 226.596874 
L 170.419012 226.596874 
L 171.04215 224.994755 
L 171.665287 224.994755 
L 172.288424 221.790517 
L 175.404111 221.790517 
L 176.650386 218.586278 
L 177.89666 218.586278 
L 178.519798 216.984159 
L 179.142935 216.984159 
L 180.38921 213.779921 
L 181.635484 213.779921 
L 182.258622 212.177801 
L 183.504896 202.565086 
L 184.128034 200.962967 
L 190.982544 200.962967 
L 191.605681 199.360848 
L 198.460192 199.360848 
L 199.083329 196.156609 
L 207.184114 196.156609 
L 207.807252 194.55449 
L 215.908037 194.55449 
L 216.531174 192.952371 
L 225.878234 192.952371 
L 227.124509 189.748132 
L 227.747646 189.748132 
L 228.370783 188.146013 
L 230.240195 188.146013 
L 230.863333 186.543894 
L 231.48647 186.543894 
L 232.109607 184.941775 
L 232.732745 184.941775 
L 233.355882 183.339656 
L 234.602157 183.339656 
L 235.225294 180.135417 
L 238.964118 180.135417 
L 239.587255 178.533298 
L 247.064903 178.533298 
L 247.68804 176.931179 
L 260.773924 176.931179 
L 261.397062 175.32906 
L 262.643336 175.32906 
L 263.266474 173.72694 
L 264.512748 173.72694 
L 266.38216 168.920583 
L 268.251572 168.920583 
L 269.497847 165.716344 
L 270.120984 165.716344 
L 271.367259 162.512106 
L 271.990396 162.512106 
L 272.613533 159.307868 
L 274.482945 154.50151 
L 276.975495 154.50151 
L 277.598632 152.899391 
L 279.468044 152.899391 
L 280.091181 151.297272 
L 281.960593 151.297272 
L 282.583731 149.695152 
L 284.453143 149.695152 
L 285.07628 148.093033 
L 288.815104 148.093033 
L 289.438241 146.490914 
L 290.061378 146.490914 
L 290.684516 144.888795 
L 295.046477 144.888795 
L 295.669614 143.286675 
L 296.915889 143.286675 
L 298.785301 138.480318 
L 302.524125 138.480318 
L 303.147262 136.878199 
L 303.7704 136.878199 
L 304.393537 135.276079 
L 312.494322 135.276079 
L 313.740597 132.071841 
L 317.479421 132.071841 
L 318.102558 130.469722 
L 319.97197 130.469722 
L 321.218245 127.265483 
L 322.464519 127.265483 
L 324.333931 122.459126 
L 325.580206 122.459126 
L 326.203343 120.857007 
L 326.826481 120.857007 
L 327.449618 119.254887 
L 328.072755 119.254887 
L 328.695893 117.652768 
L 329.31903 114.44853 
L 329.942167 114.44853 
L 330.565304 112.846411 
L 331.188442 112.846411 
L 331.811579 111.244291 
L 332.434716 111.244291 
L 333.680991 108.040053 
L 334.927266 108.040053 
L 335.550403 104.835815 
L 336.17354 103.233695 
L 336.796678 103.233695 
L 337.419815 101.631576 
L 339.912364 101.631576 
L 340.535502 100.029457 
L 341.781776 100.029457 
L 342.404914 95.223099 
L 344.897463 95.223099 
L 345.5206 93.62098 
L 348.01315 93.62098 
L 348.636287 92.018861 
L 351.751973 92.018861 
L 352.375111 90.416742 
L 354.86766 90.416742 
L 355.490797 88.814623 
L 357.360209 88.814623 
L 357.983347 87.212503 
L 359.229621 87.212503 
L 359.852759 85.610384 
L 368.576681 85.610384 
L 369.199819 84.008265 
L 372.938642 84.008265 
L 373.56178 82.406146 
L 377.923741 82.406146 
L 378.546878 79.201907 
L 379.793153 79.201907 
L 381.039428 72.79343 
L 381.662565 72.79343 
L 382.285702 71.191311 
L 384.778252 71.191311 
L 385.401389 67.987073 
L 386.024526 66.384954 
L 386.647664 66.384954 
L 387.270801 63.180715 
L 387.893938 63.180715 
L 388.517076 61.578596 
L 392.255899 61.578596 
L 392.879037 59.976477 
L 394.748449 59.976477 
L 395.371586 56.772238 
L 397.240998 56.772238 
L 398.487273 53.568 
L 398.487273 53.568 
" clip-path="url(#p1536fac224)" style="fill: none; stroke-dasharray: 1.85,0.8; stroke-dashoffset: 0; stroke: #000000; stroke-width: 0.5"/>
   </g>
   <g id="patch_3">
    <path d="M 57.6 307.584 
L 57.6 41.472 
" style="fill: none; stroke: #000000; stroke-width: 0.8; stroke-linejoin: miter; stroke-linecap: square"/>
   </g>
   <g id="patch_4">
    <path d="M 414.72 307.584 
L 414.72 41.472 
" style="fill: none; stroke: #000000; stroke-width: 0.8; stroke-linejoin: miter; stroke-linecap: square"/>
   </g>
   <g id="patch_5">
    <path d="M 57.6 307.584 
L 414.72 307.584 
" style="fill: none; stroke: #000000; stroke-width: 0.8; stroke-linejoin: miter; stroke-linecap: square"/>
   </g>
   <g id="patch_6">
    <path d="M 57.6 41.472 
L 414.72 41.472 
" style="fill: none; stroke: #000000; stroke-width: 0.8; stroke-linejoin: miter; stroke-linecap: square"/>
   </g>
   <g id="text_15">
    <!-- count=1000, googlenet=150, resnet50=187, squeezenetv1=112, vgg19=187, yolov2=112 -->
    <g transform="translate(-3.84 35.472) scale(0.12 -0.12)">
     <defs>
      <path id="FangSong-6f" d="M 2875 1400 
Q 2875 775 2500 362 
Q 2125 -50 1575 -50 
Q 1000 -50 637 375 
Q 275 800 275 1400 
Q 275 1950 637 2400 
Q 1000 2850 1575 2850 
Q 2175 2850 2525 2400 
Q 2875 1950 2875 1400 
z
M 675 1375 
Q 675 725 937 412 
Q 1200 100 1575 100 
Q 2000 100 2237 437 
Q 2475 775 2475 1375 
Q 2475 2025 2212 2362 
Q 1950 2700 1575 2700 
Q 1225 2700 950 2362 
Q 675 2025 675 1375 
z
" transform="scale(0.015625)"/>
      <path id="FangSong-75" d="M 1425 225 
Q 1725 225 1937 375 
Q 2150 525 2250 850 
L 2250 2425 
Q 2250 2525 2200 2587 
Q 2150 2650 2025 2650 
L 1875 2650 
L 1875 2800 
L 2025 2800 
Q 2175 2800 2300 2825 
Q 2425 2850 2550 2950 
L 2600 2950 
L 2600 500 
Q 2600 400 2662 350 
Q 2725 300 2825 300 
L 2975 300 
L 2975 150 
L 2825 150 
Q 2700 150 2575 112 
Q 2450 75 2300 0 
L 2250 0 
L 2250 525 
Q 2125 250 1875 112 
Q 1625 -25 1300 -25 
Q 900 -25 700 200 
Q 500 425 500 925 
L 500 2425 
Q 500 2525 450 2587 
Q 400 2650 275 2650 
L 125 2650 
L 125 2800 
L 275 2800 
Q 425 2800 550 2825 
Q 675 2850 800 2950 
L 850 2950 
L 850 875 
Q 850 525 1000 375 
Q 1150 225 1425 225 
z
" transform="scale(0.015625)"/>
      <path id="FangSong-3d" d="M 175 2725 
L 175 2950 
L 2950 2950 
L 2950 2725 
L 175 2725 
z
M 175 1450 
L 175 1675 
L 2950 1675 
L 2950 1450 
L 175 1450 
z
" transform="scale(0.015625)"/>
      <path id="FangSong-2c" d="M 1325 75 
Q 1200 25 1100 75 
Q 1000 125 962 237 
Q 925 350 925 437 
Q 925 525 987 612 
Q 1050 700 1150 737 
Q 1250 775 1425 725 
Q 1600 675 1650 500 
Q 1700 325 1662 150 
Q 1625 -25 1525 -200 
Q 1425 -375 1312 -475 
Q 1200 -575 1025 -675 
L 950 -575 
Q 1100 -450 1187 -312 
Q 1275 -175 1325 75 
z
" transform="scale(0.015625)"/>
      <path id="FangSong-20" transform="scale(0.015625)"/>
      <path id="FangSong-67" d="M 850 1875 
Q 850 1575 1025 1362 
Q 1200 1150 1500 1150 
Q 1825 1150 1987 1337 
Q 2150 1525 2150 1875 
Q 2150 2300 1962 2487 
Q 1775 2675 1500 2675 
Q 1225 2675 1037 2487 
Q 850 2300 850 1875 
z
M 2075 525 
Q 2450 475 2625 312 
Q 2800 150 2800 -125 
Q 2800 -500 2487 -725 
Q 2175 -950 1500 -950 
Q 975 -950 650 -737 
Q 325 -525 325 -250 
Q 325 -75 450 100 
Q 575 275 850 375 
Q 700 450 612 537 
Q 525 625 525 750 
Q 525 900 625 1012 
Q 725 1125 875 1200 
Q 725 1325 612 1500 
Q 500 1675 500 1875 
Q 500 2250 762 2537 
Q 1025 2825 1500 2825 
Q 1700 2825 1887 2775 
Q 2075 2725 2200 2600 
Q 2375 2725 2512 2787 
Q 2650 2850 2750 2850 
Q 2875 2850 2925 2762 
Q 2975 2675 2975 2600 
Q 2975 2500 2937 2437 
Q 2900 2375 2800 2375 
Q 2725 2375 2675 2412 
Q 2625 2450 2600 2525 
Q 2575 2600 2487 2587 
Q 2400 2575 2300 2500 
Q 2400 2400 2450 2225 
Q 2500 2050 2500 1875 
Q 2500 1575 2262 1287 
Q 2025 1000 1500 1000 
Q 1350 1000 1225 1037 
Q 1100 1075 1025 1125 
Q 925 1075 875 1000 
Q 825 925 825 875 
Q 825 775 875 725 
Q 925 675 1025 675 
Q 1350 625 1612 587 
Q 1875 550 2075 525 
z
M 1050 325 
Q 825 225 737 87 
Q 650 -50 650 -250 
Q 650 -450 875 -625 
Q 1100 -800 1550 -800 
Q 1975 -800 2225 -662 
Q 2475 -525 2475 -250 
Q 2475 -75 2412 25 
Q 2350 125 2225 150 
Q 1975 200 1675 237 
Q 1375 275 1050 325 
z
" transform="scale(0.015625)"/>
      <path id="FangSong-6c" d="M 900 4275 
Q 1125 4275 1325 4325 
Q 1525 4375 1700 4475 
L 1750 4475 
L 1750 350 
Q 1750 250 1812 200 
Q 1875 150 1975 150 
L 2550 150 
L 2550 0 
L 600 0 
L 600 150 
L 1175 150 
Q 1300 150 1350 200 
Q 1400 250 1400 350 
L 1400 3925 
Q 1400 4025 1350 4075 
Q 1300 4125 1175 4125 
L 625 4125 
L 625 4275 
L 900 4275 
z
" transform="scale(0.015625)"/>
      <path id="FangSong-72" d="M 1250 2025 
Q 1500 2425 1787 2637 
Q 2075 2850 2375 2850 
Q 2625 2850 2762 2737 
Q 2900 2625 2900 2475 
Q 2900 2350 2837 2275 
Q 2775 2200 2650 2200 
Q 2525 2200 2462 2275 
Q 2400 2350 2425 2475 
Q 2425 2550 2400 2600 
Q 2375 2650 2250 2650 
Q 2050 2650 1762 2400 
Q 1475 2150 1250 1700 
L 1250 350 
Q 1250 250 1312 200 
Q 1375 150 1475 150 
L 2025 150 
L 2025 0 
L 175 0 
L 175 150 
L 675 150 
Q 800 150 850 200 
Q 900 250 900 350 
L 900 2425 
Q 900 2525 850 2587 
Q 800 2650 675 2650 
L 200 2650 
L 200 2800 
L 400 2800 
Q 575 2800 812 2837 
Q 1050 2875 1175 2925 
L 1250 2925 
L 1250 2025 
z
" transform="scale(0.015625)"/>
      <path id="FangSong-73" d="M 600 2075 
Q 600 2450 887 2650 
Q 1175 2850 1575 2850 
Q 1800 2850 2000 2787 
Q 2200 2725 2275 2725 
Q 2350 2725 2400 2750 
Q 2450 2775 2525 2850 
L 2625 2025 
L 2475 2000 
Q 2375 2325 2137 2512 
Q 1900 2700 1600 2700 
Q 1275 2700 1087 2575 
Q 900 2450 900 2225 
Q 900 2025 987 1912 
Q 1075 1800 1300 1750 
Q 1475 1675 1737 1587 
Q 2000 1500 2225 1400 
Q 2425 1300 2562 1137 
Q 2700 975 2700 775 
Q 2700 400 2437 187 
Q 2175 -25 1675 -25 
Q 1350 -25 1187 37 
Q 1025 100 925 100 
Q 850 100 762 62 
Q 675 25 575 -25 
L 500 900 
L 650 925 
Q 725 525 975 325 
Q 1225 125 1675 125 
Q 2025 125 2212 250 
Q 2400 375 2400 625 
Q 2400 800 2300 912 
Q 2200 1025 2100 1075 
Q 1850 1175 1550 1287 
Q 1250 1400 1025 1500 
Q 800 1600 700 1750 
Q 600 1900 600 2075 
z
" transform="scale(0.015625)"/>
      <path id="FangSong-37" d="M 2800 4100 
Q 2275 3250 1962 2437 
Q 1650 1625 1650 1025 
Q 1650 925 1662 737 
Q 1675 550 1675 300 
Q 1675 100 1612 25 
Q 1550 -50 1400 -50 
Q 1275 -50 1187 37 
Q 1100 125 1100 350 
Q 1100 825 1312 1525 
Q 1525 2225 2450 3900 
L 1200 3900 
Q 925 3900 762 3725 
Q 600 3550 525 3200 
L 375 3225 
L 550 4275 
L 2800 4275 
L 2800 4100 
z
" transform="scale(0.015625)"/>
      <path id="FangSong-71" d="M 2250 2150 
Q 2150 2375 1975 2512 
Q 1800 2650 1550 2650 
Q 1200 2650 950 2350 
Q 700 2050 700 1325 
Q 700 700 912 437 
Q 1125 175 1450 175 
Q 1725 175 1937 300 
Q 2150 425 2250 725 
L 2250 2150 
z
M 2600 -550 
Q 2600 -675 2662 -725 
Q 2725 -775 2825 -775 
L 2975 -775 
L 2975 -925 
L 1825 -925 
L 1825 -775 
L 2025 -775 
Q 2150 -775 2200 -725 
Q 2250 -675 2250 -550 
L 2250 375 
Q 2100 175 1887 75 
Q 1675 -25 1375 -25 
Q 950 -25 625 337 
Q 300 700 300 1400 
Q 300 2075 675 2450 
Q 1050 2825 1475 2825 
Q 1750 2825 1937 2725 
Q 2125 2625 2275 2475 
L 2500 2800 
L 2600 2800 
L 2600 -550 
z
" transform="scale(0.015625)"/>
      <path id="FangSong-7a" d="M 2725 975 
L 2550 0 
L 400 0 
L 400 125 
L 2125 2650 
L 1200 2650 
Q 975 2650 825 2487 
Q 675 2325 575 1925 
L 425 1950 
L 525 2800 
L 2575 2800 
L 2575 2725 
L 825 150 
L 1775 150 
Q 2100 150 2287 350 
Q 2475 550 2575 1000 
L 2725 975 
z
" transform="scale(0.015625)"/>
      <path id="FangSong-76" d="M 1600 -25 
L 1450 -25 
L 600 2425 
Q 575 2525 500 2587 
Q 425 2650 325 2650 
L 200 2650 
L 200 2800 
L 1275 2800 
L 1275 2650 
L 1175 2650 
Q 1025 2650 987 2575 
Q 950 2500 1000 2325 
L 1600 575 
L 1650 575 
L 2250 2300 
Q 2325 2475 2262 2562 
Q 2200 2650 2050 2650 
L 2000 2650 
L 2000 2800 
L 2900 2800 
L 2900 2650 
L 2850 2650 
Q 2700 2650 2612 2562 
Q 2525 2475 2450 2300 
L 1600 -25 
z
" transform="scale(0.015625)"/>
      <path id="FangSong-39" d="M 675 2950 
Q 675 2400 887 2112 
Q 1100 1825 1425 1825 
Q 1800 1825 2075 2175 
Q 2350 2525 2350 2825 
Q 2350 3425 2150 3787 
Q 1950 4150 1500 4150 
Q 1075 4150 875 3812 
Q 675 3475 675 2950 
z
M 1350 1600 
Q 850 1600 550 1912 
Q 250 2225 250 2925 
Q 250 3525 575 3925 
Q 900 4325 1500 4325 
Q 2125 4325 2475 3825 
Q 2825 3325 2825 2375 
Q 2825 1325 2412 637 
Q 2000 -50 1275 -50 
Q 950 -50 712 100 
Q 475 250 475 500 
Q 475 600 537 700 
Q 600 800 750 800 
Q 900 800 950 687 
Q 1000 575 1000 425 
Q 1000 325 1025 262 
Q 1050 200 1075 175 
Q 1100 150 1162 137 
Q 1225 125 1300 125 
Q 1750 125 2025 625 
Q 2300 1125 2350 2300 
Q 2225 2000 1975 1800 
Q 1725 1600 1350 1600 
z
" transform="scale(0.015625)"/>
     </defs>
     <use xlink:href="#FangSong-63"/>
     <use xlink:href="#FangSong-6f" x="50"/>
     <use xlink:href="#FangSong-75" x="100"/>
     <use xlink:href="#FangSong-6e" x="150"/>
     <use xlink:href="#FangSong-74" x="200"/>
     <use xlink:href="#FangSong-3d" x="250"/>
     <use xlink:href="#FangSong-31" x="300"/>
     <use xlink:href="#FangSong-30" x="350"/>
     <use xlink:href="#FangSong-30" x="400"/>
     <use xlink:href="#FangSong-30" x="450"/>
     <use xlink:href="#FangSong-2c" x="500"/>
     <use xlink:href="#FangSong-20" x="550"/>
     <use xlink:href="#FangSong-67" x="600"/>
     <use xlink:href="#FangSong-6f" x="650"/>
     <use xlink:href="#FangSong-6f" x="700"/>
     <use xlink:href="#FangSong-67" x="750"/>
     <use xlink:href="#FangSong-6c" x="800"/>
     <use xlink:href="#FangSong-65" x="850"/>
     <use xlink:href="#FangSong-6e" x="900"/>
     <use xlink:href="#FangSong-65" x="950"/>
     <use xlink:href="#FangSong-74" x="1000"/>
     <use xlink:href="#FangSong-3d" x="1050"/>
     <use xlink:href="#FangSong-31" x="1100"/>
     <use xlink:href="#FangSong-35" x="1150"/>
     <use xlink:href="#FangSong-30" x="1200"/>
     <use xlink:href="#FangSong-2c" x="1250"/>
     <use xlink:href="#FangSong-20" x="1300"/>
     <use xlink:href="#FangSong-72" x="1350"/>
     <use xlink:href="#FangSong-65" x="1400"/>
     <use xlink:href="#FangSong-73" x="1450"/>
     <use xlink:href="#FangSong-6e" x="1500"/>
     <use xlink:href="#FangSong-65" x="1550"/>
     <use xlink:href="#FangSong-74" x="1600"/>
     <use xlink:href="#FangSong-35" x="1650"/>
     <use xlink:href="#FangSong-30" x="1700"/>
     <use xlink:href="#FangSong-3d" x="1750"/>
     <use xlink:href="#FangSong-31" x="1800"/>
     <use xlink:href="#FangSong-38" x="1850"/>
     <use xlink:href="#FangSong-37" x="1900"/>
     <use xlink:href="#FangSong-2c" x="1950"/>
     <use xlink:href="#FangSong-20" x="2000"/>
     <use xlink:href="#FangSong-73" x="2050"/>
     <use xlink:href="#FangSong-71" x="2100"/>
     <use xlink:href="#FangSong-75" x="2150"/>
     <use xlink:href="#FangSong-65" x="2200"/>
     <use xlink:href="#FangSong-65" x="2250"/>
     <use xlink:href="#FangSong-7a" x="2300"/>
     <use xlink:href="#FangSong-65" x="2350"/>
     <use xlink:href="#FangSong-6e" x="2400"/>
     <use xlink:href="#FangSong-65" x="2450"/>
     <use xlink:href="#FangSong-74" x="2500"/>
     <use xlink:href="#FangSong-76" x="2550"/>
     <use xlink:href="#FangSong-31" x="2600"/>
     <use xlink:href="#FangSong-3d" x="2650"/>
     <use xlink:href="#FangSong-31" x="2700"/>
     <use xlink:href="#FangSong-31" x="2750"/>
     <use xlink:href="#FangSong-32" x="2800"/>
     <use xlink:href="#FangSong-2c" x="2850"/>
     <use xlink:href="#FangSong-20" x="2900"/>
     <use xlink:href="#FangSong-76" x="2950"/>
     <use xlink:href="#FangSong-67" x="3000"/>
     <use xlink:href="#FangSong-67" x="3050"/>
     <use xlink:href="#FangSong-31" x="3100"/>
     <use xlink:href="#FangSong-39" x="3150"/>
     <use xlink:href="#FangSong-3d" x="3200"/>
     <use xlink:href="#FangSong-31" x="3250"/>
     <use xlink:href="#FangSong-38" x="3300"/>
     <use xlink:href="#FangSong-37" x="3350"/>
     <use xlink:href="#FangSong-2c" x="3400"/>
     <use xlink:href="#FangSong-20" x="3450"/>
     <use xlink:href="#FangSong-79" x="3500"/>
     <use xlink:href="#FangSong-6f" x="3550"/>
     <use xlink:href="#FangSong-6c" x="3600"/>
     <use xlink:href="#FangSong-6f" x="3650"/>
     <use xlink:href="#FangSong-76" x="3700"/>
     <use xlink:href="#FangSong-32" x="3750"/>
     <use xlink:href="#FangSong-3d" x="3800"/>
     <use xlink:href="#FangSong-31" x="3850"/>
     <use xlink:href="#FangSong-31" x="3900"/>
     <use xlink:href="#FangSong-32" x="3950"/>
    </g>
   </g>
   <g id="legend_1">
    <g id="patch_7">
     <path d="M 315.72 302.584 
L 407.72 302.584 
Q 409.72 302.584 409.72 300.584 
L 409.72 220.794937 
Q 409.72 218.794937 407.72 218.794937 
L 315.72 218.794937 
Q 313.72 218.794937 313.72 220.794937 
L 313.72 300.584 
Q 313.72 302.584 315.72 302.584 
z
" style="fill: #ffffff; opacity: 0.8; stroke: #cccccc; stroke-linejoin: miter"/>
    </g>
    <g id="line2d_19">
     <path d="M 317.72 226.294937 
L 327.72 226.294937 
L 337.72 226.294937 
" style="fill: none; stroke: #ff0000; stroke-linecap: square"/>
    </g>
    <g id="text_16">
     <!-- total -->
     <g transform="translate(345.72 229.794937) scale(0.1 -0.1)">
      <use xlink:href="#FangSong-74"/>
      <use xlink:href="#FangSong-6f" x="50"/>
      <use xlink:href="#FangSong-74" x="100"/>
      <use xlink:href="#FangSong-61" x="150"/>
      <use xlink:href="#FangSong-6c" x="200"/>
     </g>
    </g>
    <g id="line2d_20">
     <path d="M 317.72 239.74025 
L 327.72 239.74025 
L 337.72 239.74025 
" style="fill: none; stroke-dasharray: 1.85,0.8; stroke-dashoffset: 0; stroke: #008000; stroke-width: 0.5"/>
    </g>
    <g id="text_17">
     <!-- squeezenetv1 -->
     <g transform="translate(345.72 243.24025) scale(0.1 -0.1)">
      <use xlink:href="#FangSong-73"/>
      <use xlink:href="#FangSong-71" x="50"/>
      <use xlink:href="#FangSong-75" x="100"/>
      <use xlink:href="#FangSong-65" x="150"/>
      <use xlink:href="#FangSong-65" x="200"/>
      <use xlink:href="#FangSong-7a" x="250"/>
      <use xlink:href="#FangSong-65" x="300"/>
      <use xlink:href="#FangSong-6e" x="350"/>
      <use xlink:href="#FangSong-65" x="400"/>
      <use xlink:href="#FangSong-74" x="450"/>
      <use xlink:href="#FangSong-76" x="500"/>
      <use xlink:href="#FangSong-31" x="550"/>
     </g>
    </g>
    <g id="line2d_21">
     <path d="M 317.72 253.185562 
L 327.72 253.185562 
L 337.72 253.185562 
" style="fill: none; stroke-dasharray: 1.85,0.8; stroke-dashoffset: 0; stroke: #0000ff; stroke-width: 0.5"/>
    </g>
    <g id="text_18">
     <!-- googlenet -->
     <g transform="translate(345.72 256.685562) scale(0.1 -0.1)">
      <use xlink:href="#FangSong-67"/>
      <use xlink:href="#FangSong-6f" x="50"/>
      <use xlink:href="#FangSong-6f" x="100"/>
      <use xlink:href="#FangSong-67" x="150"/>
      <use xlink:href="#FangSong-6c" x="200"/>
      <use xlink:href="#FangSong-65" x="250"/>
      <use xlink:href="#FangSong-6e" x="300"/>
      <use xlink:href="#FangSong-65" x="350"/>
      <use xlink:href="#FangSong-74" x="400"/>
     </g>
    </g>
    <g id="line2d_22">
     <path d="M 317.72 266.669937 
L 327.72 266.669937 
L 337.72 266.669937 
" style="fill: none; stroke-dasharray: 1.85,0.8; stroke-dashoffset: 0; stroke: #bf00bf; stroke-width: 0.5"/>
    </g>
    <g id="text_19">
     <!-- resnet50 -->
     <g transform="translate(345.72 270.169937) scale(0.1 -0.1)">
      <use xlink:href="#FangSong-72"/>
      <use xlink:href="#FangSong-65" x="50"/>
      <use xlink:href="#FangSong-73" x="100"/>
      <use xlink:href="#FangSong-6e" x="150"/>
      <use xlink:href="#FangSong-65" x="200"/>
      <use xlink:href="#FangSong-74" x="250"/>
      <use xlink:href="#FangSong-35" x="300"/>
      <use xlink:href="#FangSong-30" x="350"/>
     </g>
    </g>
    <g id="line2d_23">
     <path d="M 317.72 280.11525 
L 327.72 280.11525 
L 337.72 280.11525 
" style="fill: none; stroke-dasharray: 1.85,0.8; stroke-dashoffset: 0; stroke: #bfbf00; stroke-width: 0.5"/>
    </g>
    <g id="text_20">
     <!-- yolov2 -->
     <g transform="translate(345.72 283.61525) scale(0.1 -0.1)">
      <use xlink:href="#FangSong-79"/>
      <use xlink:href="#FangSong-6f" x="50"/>
      <use xlink:href="#FangSong-6c" x="100"/>
      <use xlink:href="#FangSong-6f" x="150"/>
      <use xlink:href="#FangSong-76" x="200"/>
      <use xlink:href="#FangSong-32" x="250"/>
     </g>
    </g>
    <g id="line2d_24">
     <path d="M 317.72 293.599625 
L 327.72 293.599625 
L 337.72 293.599625 
" style="fill: none; stroke-dasharray: 1.85,0.8; stroke-dashoffset: 0; stroke: #000000; stroke-width: 0.5"/>
    </g>
    <g id="text_21">
     <!-- vgg19 -->
     <g transform="translate(345.72 297.099625) scale(0.1 -0.1)">
      <use xlink:href="#FangSong-76"/>
      <use xlink:href="#FangSong-67" x="50"/>
      <use xlink:href="#FangSong-67" x="100"/>
      <use xlink:href="#FangSong-31" x="150"/>
      <use xlink:href="#FangSong-39" x="200"/>
     </g>
    </g>
   </g>
  </g>
 </g>
 <defs>
  <clipPath id="p1536fac224">
   <rect x="57.6" y="41.472" width="357.12" height="266.112"/>
  </clipPath>
 </defs>
</svg>
