<?xml version="1.0" encoding="utf-8" standalone="no"?>
<!DOCTYPE svg PUBLIC "-//W3C//DTD SVG 1.1//EN"
  "http://www.w3.org/Graphics/SVG/1.1/DTD/svg11.dtd">
<svg xmlns:xlink="http://www.w3.org/1999/xlink" width="460.8pt" height="345.6pt" viewBox="0 0 460.8 345.6" xmlns="http://www.w3.org/2000/svg" version="1.1">
 <metadata>
  <rdf:RDF xmlns:dc="http://purl.org/dc/elements/1.1/" xmlns:cc="http://creativecommons.org/ns#" xmlns:rdf="http://www.w3.org/1999/02/22-rdf-syntax-ns#">
   <cc:Work>
    <dc:type rdf:resource="http://purl.org/dc/dcmitype/StillImage"/>
    <dc:date>2023-01-19T17:24:46.265634</dc:date>
    <dc:format>image/svg+xml</dc:format>
    <dc:creator>
     <cc:Agent>
      <dc:title>Matplotlib v3.6.3, https://matplotlib.org/</dc:title>
     </cc:Agent>
    </dc:creator>
   </cc:Work>
  </rdf:RDF>
 </metadata>
 <defs>
  <style type="text/css">*{stroke-linejoin: round; stroke-linecap: butt}</style>
 </defs>
 <g id="figure_1">
  <g id="patch_1">
   <path d="M 0 345.6 
L 460.8 345.6 
L 460.8 0 
L 0 0 
z
" style="fill: #ffffff"/>
  </g>
  <g id="axes_1">
   <g id="patch_2">
    <path d="M 57.6 307.584 
L 414.72 307.584 
L 414.72 41.472 
L 57.6 41.472 
z
" style="fill: #ffffff"/>
   </g>
   <g id="matplotlib.axis_1">
    <g id="xtick_1">
     <g id="line2d_1">
      <defs>
       <path id="m2ab41234ce" d="M 0 0 
L 0 3.5 
" style="stroke: #000000; stroke-width: 0.8"/>
      </defs>
      <g>
       <use xlink:href="#m2ab41234ce" x="69.221157" y="307.584" style="stroke: #000000; stroke-width: 0.8"/>
      </g>
     </g>
     <g id="text_1">
      <!-- 0 -->
      <g transform="translate(66.721157 321.576187) scale(0.1 -0.1)">
       <defs>
        <path id="FangSong-30" d="M 1575 4125 
Q 1225 4125 987 3587 
Q 750 3050 750 2150 
Q 750 1200 987 675 
Q 1225 150 1575 150 
Q 1950 150 2162 675 
Q 2375 1200 2375 2150 
Q 2375 3050 2175 3587 
Q 1975 4125 1575 4125 
z
M 1575 -50 
Q 1025 -50 650 525 
Q 275 1100 275 2150 
Q 275 3125 637 3725 
Q 1000 4325 1575 4325 
Q 2125 4325 2487 3750 
Q 2850 3175 2850 2150 
Q 2850 1125 2487 537 
Q 2125 -50 1575 -50 
z
" transform="scale(0.015625)"/>
       </defs>
       <use xlink:href="#FangSong-30"/>
      </g>
     </g>
    </g>
    <g id="xtick_2">
     <g id="line2d_2">
      <g>
       <use xlink:href="#m2ab41234ce" x="115.33686" y="307.584" style="stroke: #000000; stroke-width: 0.8"/>
      </g>
     </g>
     <g id="text_2">
      <!-- 10 -->
      <g transform="translate(110.33686 321.576187) scale(0.1 -0.1)">
       <defs>
        <path id="FangSong-31" d="M 1800 4350 
L 1800 550 
Q 1800 350 1925 250 
Q 2050 150 2275 150 
L 2525 150 
L 2525 0 
L 700 0 
L 700 150 
L 925 150 
Q 1175 150 1287 250 
Q 1400 350 1400 550 
L 1400 3575 
Q 1400 3675 1337 3737 
Q 1275 3800 1150 3800 
L 700 3800 
L 700 3950 
L 925 3950 
Q 1225 3950 1412 4050 
Q 1600 4150 1700 4350 
L 1800 4350 
z
" transform="scale(0.015625)"/>
       </defs>
       <use xlink:href="#FangSong-31"/>
       <use xlink:href="#FangSong-30" x="50"/>
      </g>
     </g>
    </g>
    <g id="xtick_3">
     <g id="line2d_3">
      <g>
       <use xlink:href="#m2ab41234ce" x="161.452562" y="307.584" style="stroke: #000000; stroke-width: 0.8"/>
      </g>
     </g>
     <g id="text_3">
      <!-- 20 -->
      <g transform="translate(156.452562 321.576187) scale(0.1 -0.1)">
       <defs>
        <path id="FangSong-32" d="M 2300 3225 
Q 2300 3675 2100 3912 
Q 1900 4150 1500 4150 
Q 1200 4150 987 3987 
Q 775 3825 775 3575 
Q 775 3425 862 3325 
Q 950 3225 950 3125 
Q 950 3000 887 2937 
Q 825 2875 700 2875 
Q 550 2875 462 2962 
Q 375 3050 375 3250 
Q 375 3775 750 4050 
Q 1125 4325 1550 4325 
Q 2150 4325 2437 4025 
Q 2725 3725 2725 3275 
Q 2725 2975 2587 2675 
Q 2450 2375 2150 2100 
Q 1425 1400 1037 962 
Q 650 525 575 375 
L 2050 375 
Q 2275 375 2425 550 
Q 2575 725 2625 1075 
L 2775 1075 
L 2625 0 
L 300 0 
L 300 325 
Q 425 550 712 900 
Q 1000 1250 1475 1725 
Q 1900 2150 2100 2525 
Q 2300 2900 2300 3225 
z
" transform="scale(0.015625)"/>
       </defs>
       <use xlink:href="#FangSong-32"/>
       <use xlink:href="#FangSong-30" x="50"/>
      </g>
     </g>
    </g>
    <g id="xtick_4">
     <g id="line2d_4">
      <g>
       <use xlink:href="#m2ab41234ce" x="207.568264" y="307.584" style="stroke: #000000; stroke-width: 0.8"/>
      </g>
     </g>
     <g id="text_4">
      <!-- 30 -->
      <g transform="translate(202.568264 321.576187) scale(0.1 -0.1)">
       <defs>
        <path id="FangSong-33" d="M 2775 1150 
Q 2775 675 2425 312 
Q 2075 -50 1450 -50 
Q 1000 -50 675 200 
Q 350 450 350 775 
Q 350 925 450 1037 
Q 550 1150 650 1150 
Q 800 1150 862 1037 
Q 925 925 925 850 
Q 925 725 875 637 
Q 825 550 825 475 
Q 825 325 1012 225 
Q 1200 125 1425 125 
Q 1875 125 2100 387 
Q 2325 650 2325 1200 
Q 2325 1650 2087 1925 
Q 1850 2200 1200 2200 
L 1200 2375 
Q 1700 2375 1937 2612 
Q 2175 2850 2175 3275 
Q 2175 3625 1987 3887 
Q 1800 4150 1400 4150 
Q 1225 4150 1025 4062 
Q 825 3975 825 3775 
Q 825 3575 875 3525 
Q 925 3475 925 3400 
Q 925 3275 875 3200 
Q 825 3125 700 3125 
Q 600 3125 512 3200 
Q 425 3275 425 3475 
Q 425 3850 750 4087 
Q 1075 4325 1500 4325 
Q 2000 4325 2300 4012 
Q 2600 3700 2600 3350 
Q 2600 2975 2412 2712 
Q 2225 2450 1825 2325 
Q 2375 2125 2575 1800 
Q 2775 1475 2775 1150 
z
" transform="scale(0.015625)"/>
       </defs>
       <use xlink:href="#FangSong-33"/>
       <use xlink:href="#FangSong-30" x="50"/>
      </g>
     </g>
    </g>
    <g id="xtick_5">
     <g id="line2d_5">
      <g>
       <use xlink:href="#m2ab41234ce" x="253.683967" y="307.584" style="stroke: #000000; stroke-width: 0.8"/>
      </g>
     </g>
     <g id="text_5">
      <!-- 40 -->
      <g transform="translate(248.683967 321.576187) scale(0.1 -0.1)">
       <defs>
        <path id="FangSong-34" d="M 2275 475 
Q 2275 300 2375 225 
Q 2475 150 2650 150 
L 2875 150 
L 2875 0 
L 1225 0 
L 1225 150 
L 1500 150 
Q 1700 150 1787 225 
Q 1875 300 1875 475 
L 1875 1300 
L 200 1300 
L 200 1425 
L 2025 4325 
L 2275 4325 
L 2275 1450 
L 2950 1450 
L 2950 1300 
L 2275 1300 
L 2275 475 
z
M 1850 3700 
L 425 1450 
L 1875 1450 
L 1875 3700 
L 1850 3700 
z
" transform="scale(0.015625)"/>
       </defs>
       <use xlink:href="#FangSong-34"/>
       <use xlink:href="#FangSong-30" x="50"/>
      </g>
     </g>
    </g>
    <g id="xtick_6">
     <g id="line2d_6">
      <g>
       <use xlink:href="#m2ab41234ce" x="299.799669" y="307.584" style="stroke: #000000; stroke-width: 0.8"/>
      </g>
     </g>
     <g id="text_6">
      <!-- 50 -->
      <g transform="translate(294.799669 321.576187) scale(0.1 -0.1)">
       <defs>
        <path id="FangSong-35" d="M 1700 2750 
Q 2175 2750 2475 2387 
Q 2775 2025 2775 1425 
Q 2775 750 2462 350 
Q 2150 -50 1500 -50 
Q 1050 -50 700 212 
Q 350 475 350 850 
Q 350 1000 437 1112 
Q 525 1225 675 1225 
Q 825 1225 875 1125 
Q 925 1025 925 950 
Q 925 800 850 712 
Q 775 625 775 525 
Q 775 325 1012 225 
Q 1250 125 1525 125 
Q 1925 125 2137 450 
Q 2350 775 2350 1375 
Q 2350 1875 2162 2187 
Q 1975 2500 1600 2500 
Q 1325 2500 1125 2400 
Q 925 2300 750 1975 
L 525 2000 
L 650 4275 
L 2700 4275 
L 2625 3900 
L 825 3900 
L 725 2250 
Q 975 2600 1212 2675 
Q 1450 2750 1700 2750 
z
" transform="scale(0.015625)"/>
       </defs>
       <use xlink:href="#FangSong-35"/>
       <use xlink:href="#FangSong-30" x="50"/>
      </g>
     </g>
    </g>
    <g id="xtick_7">
     <g id="line2d_7">
      <g>
       <use xlink:href="#m2ab41234ce" x="345.915372" y="307.584" style="stroke: #000000; stroke-width: 0.8"/>
      </g>
     </g>
     <g id="text_7">
      <!-- 60 -->
      <g transform="translate(340.915372 321.576187) scale(0.1 -0.1)">
       <defs>
        <path id="FangSong-36" d="M 750 1700 
Q 750 950 1012 537 
Q 1275 125 1650 125 
Q 2025 125 2225 400 
Q 2425 675 2425 1425 
Q 2425 1925 2212 2200 
Q 2000 2475 1700 2475 
Q 1425 2475 1187 2312 
Q 950 2150 750 1700 
z
M 1725 2725 
Q 2325 2725 2587 2325 
Q 2850 1925 2850 1425 
Q 2850 675 2487 312 
Q 2125 -50 1650 -50 
Q 975 -50 625 462 
Q 275 975 275 1950 
Q 275 3100 700 3712 
Q 1125 4325 1850 4325 
Q 2200 4325 2412 4125 
Q 2625 3925 2625 3775 
Q 2625 3625 2562 3550 
Q 2500 3475 2350 3475 
Q 2225 3475 2162 3537 
Q 2100 3600 2100 3725 
Q 2100 3775 2112 3825 
Q 2125 3875 2125 3925 
Q 2125 4025 2050 4087 
Q 1975 4150 1775 4150 
Q 1350 4150 1050 3762 
Q 750 3375 750 2075 
Q 900 2400 1162 2562 
Q 1425 2725 1725 2725 
z
" transform="scale(0.015625)"/>
       </defs>
       <use xlink:href="#FangSong-36"/>
       <use xlink:href="#FangSong-30" x="50"/>
      </g>
     </g>
    </g>
    <g id="xtick_8">
     <g id="line2d_8">
      <g>
       <use xlink:href="#m2ab41234ce" x="392.031074" y="307.584" style="stroke: #000000; stroke-width: 0.8"/>
      </g>
     </g>
     <g id="text_8">
      <!-- 70 -->
      <g transform="translate(387.031074 321.576187) scale(0.1 -0.1)">
       <defs>
        <path id="FangSong-37" d="M 2800 4100 
Q 2275 3250 1962 2437 
Q 1650 1625 1650 1025 
Q 1650 925 1662 737 
Q 1675 550 1675 300 
Q 1675 100 1612 25 
Q 1550 -50 1400 -50 
Q 1275 -50 1187 37 
Q 1100 125 1100 350 
Q 1100 825 1312 1525 
Q 1525 2225 2450 3900 
L 1200 3900 
Q 925 3900 762 3725 
Q 600 3550 525 3200 
L 375 3225 
L 550 4275 
L 2800 4275 
L 2800 4100 
z
" transform="scale(0.015625)"/>
       </defs>
       <use xlink:href="#FangSong-37"/>
       <use xlink:href="#FangSong-30" x="50"/>
      </g>
     </g>
    </g>
    <g id="text_9">
     <!-- Latency -->
     <g transform="translate(218.66 333.974625) scale(0.1 -0.1)">
      <defs>
       <path id="FangSong-4c" d="M 975 350 
Q 975 250 1037 200 
Q 1100 150 1200 150 
L 1875 150 
Q 2225 150 2475 362 
Q 2725 575 2850 1025 
L 2975 975 
L 2750 0 
L 175 0 
L 175 150 
L 350 150 
Q 475 150 525 200 
Q 575 250 575 350 
L 575 3925 
Q 575 4025 525 4075 
Q 475 4125 350 4125 
L 200 4125 
L 200 4275 
L 1375 4275 
L 1375 4125 
L 1200 4125 
Q 1100 4125 1037 4075 
Q 975 4025 975 3925 
L 975 350 
z
" transform="scale(0.015625)"/>
       <path id="FangSong-61" d="M 1200 -25 
Q 750 -25 500 187 
Q 250 400 250 675 
Q 250 1125 637 1412 
Q 1025 1700 2175 1825 
L 2175 2125 
Q 2175 2375 2062 2537 
Q 1950 2700 1550 2700 
Q 1125 2700 950 2562 
Q 775 2425 825 2275 
Q 875 2175 825 2075 
Q 775 1975 625 1975 
Q 525 1975 462 2037 
Q 400 2100 400 2225 
Q 400 2450 725 2650 
Q 1050 2850 1525 2850 
Q 2025 2850 2275 2662 
Q 2525 2475 2525 2125 
L 2525 475 
Q 2525 275 2562 237 
Q 2600 200 2700 200 
Q 2825 200 2875 312 
Q 2925 425 2925 625 
L 3050 625 
Q 3050 275 2925 137 
Q 2800 0 2600 0 
Q 2425 0 2325 75 
Q 2225 150 2175 325 
Q 1925 150 1712 62 
Q 1500 -25 1200 -25 
z
M 675 750 
Q 675 525 812 337 
Q 950 150 1250 150 
Q 1475 150 1700 237 
Q 1925 325 2175 500 
L 2175 1675 
Q 1325 1575 1000 1337 
Q 675 1100 675 750 
z
" transform="scale(0.015625)"/>
       <path id="FangSong-74" d="M 1475 800 
Q 1475 450 1600 325 
Q 1725 200 1975 200 
Q 2225 200 2375 362 
Q 2525 525 2575 825 
L 2700 775 
Q 2650 425 2437 200 
Q 2225 -25 1875 -25 
Q 1500 -25 1312 200 
Q 1125 425 1125 900 
L 1125 2650 
L 375 2650 
L 375 2800 
L 575 2800 
Q 875 2800 1062 2987 
Q 1250 3175 1300 3575 
L 1325 3775 
L 1475 3775 
L 1475 2800 
L 2475 2800 
L 2475 2650 
L 1475 2650 
L 1475 800 
z
" transform="scale(0.015625)"/>
       <path id="FangSong-65" d="M 2375 1550 
Q 2400 2100 2187 2387 
Q 1975 2675 1625 2675 
Q 1250 2675 1012 2375 
Q 775 2075 775 1550 
L 2375 1550 
z
M 775 1400 
Q 775 725 1037 437 
Q 1300 150 1725 150 
Q 2050 150 2275 337 
Q 2500 525 2600 800 
L 2725 750 
Q 2650 475 2387 212 
Q 2125 -50 1675 -50 
Q 1100 -50 737 325 
Q 375 700 375 1400 
Q 375 2025 737 2437 
Q 1100 2850 1625 2850 
Q 2100 2850 2450 2525 
Q 2800 2200 2800 1400 
L 775 1400 
z
" transform="scale(0.015625)"/>
       <path id="FangSong-6e" d="M 175 0 
L 175 150 
L 300 150 
Q 425 150 475 200 
Q 525 250 525 350 
L 525 2500 
Q 525 2575 500 2612 
Q 475 2650 400 2650 
L 200 2650 
L 200 2800 
L 375 2800 
Q 500 2800 612 2825 
Q 725 2850 825 2925 
L 875 2925 
L 875 2350 
Q 1100 2600 1325 2725 
Q 1550 2850 1800 2850 
Q 2225 2850 2425 2625 
Q 2625 2400 2625 1950 
L 2625 350 
Q 2625 250 2687 200 
Q 2750 150 2850 150 
L 2975 150 
L 2975 0 
L 1925 0 
L 1925 150 
L 2050 150 
Q 2175 150 2225 200 
Q 2275 250 2275 350 
L 2275 2025 
Q 2275 2325 2150 2487 
Q 2025 2650 1775 2650 
Q 1550 2650 1312 2500 
Q 1075 2350 875 2075 
L 875 350 
Q 875 250 937 200 
Q 1000 150 1100 150 
L 1225 150 
L 1225 0 
L 175 0 
z
" transform="scale(0.015625)"/>
       <path id="FangSong-63" d="M 2125 2125 
Q 2125 2200 2137 2225 
Q 2150 2250 2175 2325 
Q 2200 2425 2075 2562 
Q 1950 2700 1650 2700 
Q 1275 2700 1012 2337 
Q 750 1975 750 1375 
Q 750 825 975 487 
Q 1200 150 1725 150 
Q 2075 150 2312 375 
Q 2550 600 2650 900 
L 2775 850 
Q 2675 475 2400 212 
Q 2125 -50 1650 -50 
Q 1050 -50 700 325 
Q 350 700 350 1400 
Q 350 2025 725 2437 
Q 1100 2850 1700 2850 
Q 2125 2850 2362 2625 
Q 2600 2400 2600 2175 
Q 2600 2025 2537 1962 
Q 2475 1900 2350 1900 
Q 2250 1900 2187 1962 
Q 2125 2025 2125 2125 
z
" transform="scale(0.015625)"/>
       <path id="FangSong-79" d="M 1625 700 
L 1675 700 
L 2225 2375 
Q 2275 2500 2212 2575 
Q 2150 2650 2050 2650 
L 1900 2650 
L 1900 2800 
L 2950 2800 
L 2950 2650 
L 2800 2650 
Q 2700 2650 2600 2575 
Q 2500 2500 2450 2375 
L 1600 -100 
Q 1475 -500 1287 -712 
Q 1100 -925 800 -950 
Q 650 -950 537 -875 
Q 425 -800 425 -675 
Q 425 -575 487 -500 
Q 550 -425 675 -425 
Q 775 -425 837 -525 
Q 900 -625 1050 -587 
Q 1200 -550 1250 -425 
Q 1300 -350 1375 -162 
Q 1450 25 1500 225 
L 650 2425 
Q 625 2525 537 2587 
Q 450 2650 350 2650 
L 250 2650 
L 250 2800 
L 1300 2800 
L 1300 2650 
L 1200 2650 
Q 1100 2650 1050 2587 
Q 1000 2525 1025 2400 
L 1625 700 
z
" transform="scale(0.015625)"/>
      </defs>
      <use xlink:href="#FangSong-4c"/>
      <use xlink:href="#FangSong-61" x="50"/>
      <use xlink:href="#FangSong-74" x="100"/>
      <use xlink:href="#FangSong-65" x="150"/>
      <use xlink:href="#FangSong-6e" x="200"/>
      <use xlink:href="#FangSong-63" x="250"/>
      <use xlink:href="#FangSong-79" x="300"/>
     </g>
    </g>
   </g>
   <g id="matplotlib.axis_2">
    <g id="ytick_1">
     <g id="line2d_9">
      <defs>
       <path id="m34271d6ff2" d="M 0 0 
L -3.5 0 
" style="stroke: #000000; stroke-width: 0.8"/>
      </defs>
      <g>
       <use xlink:href="#m34271d6ff2" x="57.6" y="295.488" style="stroke: #000000; stroke-width: 0.8"/>
      </g>
     </g>
     <g id="text_10">
      <!-- 0% -->
      <g transform="translate(40.6 298.984094) scale(0.1 -0.1)">
       <defs>
        <path id="FangSong-25" d="M 725 4150 
Q 575 4150 475 3950 
Q 375 3750 375 3200 
Q 375 2575 487 2387 
Q 600 2200 725 2200 
Q 900 2200 987 2425 
Q 1075 2650 1075 3200 
Q 1075 3650 1012 3900 
Q 950 4150 725 4150 
z
M 1400 3175 
Q 1400 2725 1250 2387 
Q 1100 2050 725 2050 
Q 425 2050 237 2350 
Q 50 2650 50 3175 
Q 50 3725 250 4025 
Q 450 4325 725 4325 
Q 1025 4325 1212 4012 
Q 1400 3700 1400 3175 
z
M 2700 1100 
Q 2700 1525 2625 1800 
Q 2550 2075 2350 2075 
Q 2200 2075 2100 1837 
Q 2000 1600 2000 1100 
Q 2000 475 2112 300 
Q 2225 125 2350 125 
Q 2525 125 2612 337 
Q 2700 550 2700 1100 
z
M 3025 1075 
Q 3025 575 2850 262 
Q 2675 -50 2350 -50 
Q 2075 -50 1875 262 
Q 1675 575 1675 1075 
Q 1675 1625 1875 1937 
Q 2075 2250 2350 2250 
Q 2650 2250 2837 1925 
Q 3025 1600 3025 1075 
z
M 2500 4250 
L 700 -50 
L 550 25 
L 2325 4325 
L 2500 4250 
z
" transform="scale(0.015625)"/>
       </defs>
       <use xlink:href="#FangSong-30"/>
       <use xlink:href="#FangSong-25" x="50"/>
      </g>
     </g>
    </g>
    <g id="ytick_2">
     <g id="line2d_10">
      <g>
       <use xlink:href="#m34271d6ff2" x="57.6" y="247.104" style="stroke: #000000; stroke-width: 0.8"/>
      </g>
     </g>
     <g id="text_11">
      <!-- 20% -->
      <g transform="translate(35.6 250.600094) scale(0.1 -0.1)">
       <use xlink:href="#FangSong-32"/>
       <use xlink:href="#FangSong-30" x="50"/>
       <use xlink:href="#FangSong-25" x="100"/>
      </g>
     </g>
    </g>
    <g id="ytick_3">
     <g id="line2d_11">
      <g>
       <use xlink:href="#m34271d6ff2" x="57.6" y="198.72" style="stroke: #000000; stroke-width: 0.8"/>
      </g>
     </g>
     <g id="text_12">
      <!-- 40% -->
      <g transform="translate(35.6 202.216094) scale(0.1 -0.1)">
       <use xlink:href="#FangSong-34"/>
       <use xlink:href="#FangSong-30" x="50"/>
       <use xlink:href="#FangSong-25" x="100"/>
      </g>
     </g>
    </g>
    <g id="ytick_4">
     <g id="line2d_12">
      <g>
       <use xlink:href="#m34271d6ff2" x="57.6" y="150.336" style="stroke: #000000; stroke-width: 0.8"/>
      </g>
     </g>
     <g id="text_13">
      <!-- 60% -->
      <g transform="translate(35.6 153.832094) scale(0.1 -0.1)">
       <use xlink:href="#FangSong-36"/>
       <use xlink:href="#FangSong-30" x="50"/>
       <use xlink:href="#FangSong-25" x="100"/>
      </g>
     </g>
    </g>
    <g id="ytick_5">
     <g id="line2d_13">
      <g>
       <use xlink:href="#m34271d6ff2" x="57.6" y="101.952" style="stroke: #000000; stroke-width: 0.8"/>
      </g>
     </g>
     <g id="text_14">
      <!-- 80% -->
      <g transform="translate(35.6 105.448094) scale(0.1 -0.1)">
       <defs>
        <path id="FangSong-38" d="M 600 1025 
Q 600 625 862 375 
Q 1125 125 1525 125 
Q 2000 125 2212 375 
Q 2425 625 2425 1000 
Q 2425 1325 2125 1625 
Q 1825 1925 1225 2175 
Q 925 1975 762 1675 
Q 600 1375 600 1025 
z
M 2800 1075 
Q 2800 600 2450 275 
Q 2100 -50 1525 -50 
Q 1000 -50 625 275 
Q 250 600 250 1025 
Q 250 1450 462 1750 
Q 675 2050 1075 2275 
Q 725 2450 537 2712 
Q 350 2975 350 3300 
Q 350 3725 675 4025 
Q 1000 4325 1575 4325 
Q 2100 4325 2425 4025 
Q 2750 3725 2750 3300 
Q 2750 3000 2562 2737 
Q 2375 2475 1975 2275 
Q 2400 2025 2600 1725 
Q 2800 1425 2800 1075 
z
M 2400 3275 
Q 2400 3625 2200 3887 
Q 2000 4150 1575 4150 
Q 1100 4150 900 3900 
Q 700 3650 700 3375 
Q 700 3100 987 2837 
Q 1275 2575 1800 2375 
Q 2100 2525 2250 2750 
Q 2400 2975 2400 3275 
z
" transform="scale(0.015625)"/>
       </defs>
       <use xlink:href="#FangSong-38"/>
       <use xlink:href="#FangSong-30" x="50"/>
       <use xlink:href="#FangSong-25" x="100"/>
      </g>
     </g>
    </g>
    <g id="ytick_6">
     <g id="line2d_14">
      <g>
       <use xlink:href="#m34271d6ff2" x="57.6" y="53.568" style="stroke: #000000; stroke-width: 0.8"/>
      </g>
     </g>
     <g id="text_15">
      <!-- 100% -->
      <g transform="translate(30.6 57.064094) scale(0.1 -0.1)">
       <use xlink:href="#FangSong-31"/>
       <use xlink:href="#FangSong-30" x="50"/>
       <use xlink:href="#FangSong-30" x="100"/>
       <use xlink:href="#FangSong-25" x="150"/>
      </g>
     </g>
    </g>
    <g id="text_16">
     <!-- 累计完成比例 -->
     <g transform="translate(25.154688 204.528) rotate(-90) scale(0.1 -0.1)">
      <defs>
       <path id="FangSong-7d2f" d="M 4525 4975 
L 4700 5225 
L 5000 4950 
L 4825 4775 
L 4625 3550 
L 4850 3300 
L 3175 3150 
L 3375 2975 
Q 3200 2925 2862 2725 
Q 2525 2525 2075 2275 
L 3475 2500 
Q 3750 2675 3900 2800 
Q 4050 2925 4100 3075 
L 4175 3100 
L 4325 2700 
Q 4200 2675 3500 2237 
Q 2800 1800 2275 1550 
L 4375 1825 
L 3900 2175 
L 4000 2275 
Q 4625 1900 4950 1725 
Q 4975 1475 4925 1225 
Q 4800 1375 4500 1675 
L 3250 1475 
L 3525 1300 
Q 3375 1200 3375 875 
L 3375 25 
Q 3375 -325 3225 -625 
Q 2975 -325 2400 150 
L 2450 250 
L 3050 -75 
Q 3150 -125 3150 0 
L 3150 925 
Q 3150 1300 3125 1450 
Q 1875 1275 1575 1175 
L 1325 1425 
L 1850 1550 
Q 2175 1700 3250 2300 
Q 2075 2100 1875 2000 
L 1575 2250 
L 1800 2300 
Q 2150 2475 3025 3125 
L 2000 3025 
Q 2000 2675 1950 2700 
Q 1900 2725 1650 3025 
Q 1725 3250 1725 3425 
L 1650 4400 
Q 1625 4675 1525 4950 
L 1625 5000 
L 1875 4675 
L 4525 4975 
z
M 3150 3375 
L 3150 3875 
Q 2525 3800 2400 3725 
L 2100 3975 
Q 2500 3975 3150 4075 
L 3150 4600 
L 1900 4450 
L 1975 3250 
L 3150 3375 
z
M 3375 4100 
Q 3950 4175 4025 4225 
L 4275 4000 
Q 3950 3975 3375 3900 
L 3375 3400 
L 4400 3500 
L 4575 4750 
L 3375 4600 
L 3375 4100 
z
M 5450 -75 
Q 4975 325 3875 1025 
L 3950 1125 
Q 4850 700 5350 500 
Q 5425 250 5450 -75 
z
M 800 -250 
Q 1350 75 1825 500 
Q 2300 925 2325 1125 
L 2400 1150 
L 2550 725 
Q 2425 700 2075 425 
Q 1725 150 875 -350 
L 800 -250 
z
" transform="scale(0.015625)"/>
       <path id="FangSong-8ba1" d="M 4075 4200 
Q 4100 4825 3900 5100 
L 3975 5150 
L 4450 4725 
Q 4275 4600 4300 4200 
L 4275 3000 
Q 5525 3200 5575 3250 
L 5950 2950 
Q 5725 2975 4275 2800 
L 4250 -425 
Q 4250 -700 4150 -575 
L 3875 -150 
Q 4050 50 4025 300 
L 4050 2750 
Q 2975 2625 2900 2575 
L 2525 2825 
Q 2850 2825 4050 2975 
L 4075 4200 
z
M 1775 3250 
L 2100 2950 
L 1900 2750 
L 1875 550 
L 2825 1250 
L 2875 1175 
Q 1875 250 1750 -25 
L 1525 275 
Q 1625 375 1650 625 
L 1675 2775 
Q 900 2625 750 2550 
L 425 2800 
Q 850 2825 1650 3000 
L 1775 3250 
z
M 2025 3800 
Q 1825 4300 1325 4950 
L 1375 5025 
Q 1925 4575 2175 4300 
Q 2125 4000 2025 3800 
z
" transform="scale(0.015625)"/>
       <path id="FangSong-5b8c" d="M 5375 2050 
Q 4925 2050 3550 1950 
L 3850 1750 
Q 3725 1600 3700 1375 
L 3675 275 
Q 3650 -125 4075 -175 
L 4925 -175 
Q 5300 -150 5312 62 
Q 5325 275 5325 1025 
L 5425 1025 
Q 5450 750 5475 337 
Q 5500 -75 5700 -275 
Q 5400 -375 5000 -400 
L 4075 -400 
Q 3425 -350 3425 150 
L 3475 1450 
Q 3475 1775 3425 1925 
L 2675 1850 
L 2875 1650 
Q 2750 1550 2600 1200 
Q 2450 850 2025 312 
Q 1600 -225 600 -675 
L 550 -575 
Q 1525 -100 1987 625 
Q 2450 1350 2525 1850 
Q 1550 1775 1500 1725 
L 1150 2025 
Q 1625 2025 3212 2150 
Q 4800 2275 5000 2350 
L 5375 2050 
z
M 1650 3650 
Q 1550 3125 1325 2875 
L 1150 3250 
Q 1450 3425 1575 4400 
L 1675 4400 
L 1675 3900 
L 5025 4150 
L 5175 4400 
L 5525 4075 
Q 5375 4050 4725 3250 
L 4650 3325 
L 4975 3900 
L 1650 3650 
z
M 4475 2975 
Q 4225 2975 3412 2875 
Q 2600 2775 2400 2725 
L 2050 2975 
Q 2575 2975 3200 3075 
Q 3825 3175 4150 3225 
L 4475 2975 
z
M 3550 4575 
Q 3475 4350 3300 4150 
Q 3225 4475 2900 5200 
L 2975 5250 
Q 3350 4825 3550 4575 
z
" transform="scale(0.015625)"/>
       <path id="FangSong-6210" d="M 5575 975 
Q 5600 -150 5750 -625 
Q 4650 -225 4000 1075 
Q 3625 650 2975 225 
L 2925 325 
Q 3525 825 3900 1300 
Q 3600 2275 3500 3300 
L 1875 3125 
Q 1875 2625 1825 2100 
L 2725 2250 
L 2875 2475 
L 3175 2225 
L 3000 2050 
Q 2850 475 2575 -125 
Q 2225 400 1825 775 
L 1875 850 
L 2475 400 
Q 2650 875 2750 2000 
L 1825 1850 
Q 1675 250 600 -650 
L 525 -600 
Q 1250 250 1425 987 
Q 1600 1725 1625 2612 
Q 1650 3500 1550 3800 
L 1625 3825 
L 1850 3350 
L 3450 3525 
Q 3400 4150 3375 4562 
Q 3350 4975 3225 5200 
L 3275 5225 
L 3725 4900 
Q 3625 4925 3637 4575 
Q 3650 4225 3675 3550 
Q 4900 3700 5050 3775 
L 5325 3475 
Q 4775 3475 3725 3325 
Q 3775 2425 4075 1525 
Q 4500 2025 4687 2325 
Q 4875 2625 4800 2850 
L 4875 2875 
L 5125 2325 
Q 5075 2400 4850 2125 
Q 4625 1850 4150 1275 
Q 4625 225 5425 -125 
L 5475 975 
L 5575 975 
z
M 4100 5000 
Q 4525 4700 4875 4450 
Q 4825 4250 4750 4025 
Q 4400 4525 4025 4950 
L 4100 5000 
z
" transform="scale(0.015625)"/>
       <path id="FangSong-6bd4" d="M 3500 2125 
Q 3925 2425 4487 2975 
Q 5050 3525 4950 3750 
L 5025 3775 
L 5250 3225 
Q 5175 3250 4875 3000 
Q 4575 2750 4287 2525 
Q 4000 2300 3500 1900 
L 3500 575 
Q 3475 -100 4150 -100 
L 4800 -100 
Q 5275 -100 5375 12 
Q 5475 125 5450 1350 
L 5575 1350 
Q 5600 825 5637 412 
Q 5675 0 5800 -175 
Q 5375 -325 4800 -325 
L 4150 -325 
Q 3225 -350 3275 550 
L 3275 4300 
Q 3275 4875 3150 5150 
L 3200 5200 
L 3625 4850 
Q 3475 4825 3500 4250 
L 3500 2125 
z
M 1500 2575 
Q 1900 2625 2337 2712 
Q 2775 2800 2800 2850 
L 3075 2600 
Q 2875 2575 2350 2475 
Q 1825 2375 1775 2325 
L 1500 2525 
L 1500 150 
L 2925 1075 
L 2975 1025 
Q 1550 -75 1375 -350 
L 1200 0 
Q 1275 75 1275 350 
L 1275 3925 
Q 1275 4475 1150 4750 
L 1200 4800 
L 1625 4400 
Q 1475 4375 1500 3925 
L 1500 2575 
z
" transform="scale(0.015625)"/>
       <path id="FangSong-4f8b" d="M 3050 2000 
Q 3025 1800 2975 1600 
Q 2775 1900 2525 2250 
Q 2300 1875 2025 1550 
L 1925 1625 
Q 2675 2725 2975 3975 
Q 2475 3925 2375 3875 
L 2050 4125 
Q 2375 4125 3162 4225 
Q 3950 4325 4100 4450 
L 4350 4125 
Q 4050 4150 3100 3975 
L 3300 3700 
Q 3200 3675 3125 3525 
Q 3050 3375 2925 3050 
L 3625 3150 
L 3775 3350 
L 4050 3075 
L 3875 2900 
Q 3300 825 1850 -225 
L 1800 -100 
Q 3100 975 3625 2900 
Q 3150 2825 3025 2775 
L 2875 2925 
Q 2775 2675 2575 2350 
Q 2900 2125 3050 2000 
z
M 1275 -150 
Q 1425 25 1400 225 
L 1450 3425 
Q 1025 2800 475 2225 
L 400 2325 
Q 875 2850 1450 3887 
Q 2025 4925 1925 5150 
L 2000 5175 
L 2250 4700 
Q 2200 4725 2062 4475 
Q 1925 4225 1675 3800 
L 1625 -325 
Q 1650 -675 1525 -600 
L 1275 -150 
z
M 5475 250 
Q 5475 -300 5300 -650 
Q 4900 -100 4300 375 
L 4350 475 
L 5200 -75 
Q 5250 250 5250 575 
L 5250 4350 
Q 5275 4950 5100 5150 
L 5175 5225 
L 5600 4850 
Q 5450 4775 5475 4325 
L 5475 250 
z
M 4300 1525 
Q 4400 1650 4400 1900 
L 4400 3075 
Q 4425 3525 4300 3750 
L 4350 3800 
L 4725 3450 
Q 4600 3350 4625 3025 
L 4625 1375 
Q 4625 1050 4550 1125 
L 4300 1525 
z
" transform="scale(0.015625)"/>
      </defs>
      <use xlink:href="#FangSong-7d2f"/>
      <use xlink:href="#FangSong-8ba1" x="100"/>
      <use xlink:href="#FangSong-5b8c" x="200"/>
      <use xlink:href="#FangSong-6210" x="300"/>
      <use xlink:href="#FangSong-6bd4" x="400"/>
      <use xlink:href="#FangSong-4f8b" x="500"/>
     </g>
    </g>
   </g>
   <g id="line2d_15">
    <path d="M 73.832727 295.488 
L 74.293884 207.67104 
L 74.755041 207.67104 
L 75.216198 207.1872 
L 75.677355 206.46144 
L 76.138512 206.46144 
L 76.599669 205.9776 
L 77.060826 205.9776 
L 77.521983 205.25184 
L 77.98314 205.00992 
L 78.444298 205.00992 
L 78.905455 204.768 
L 79.366612 204.28416 
L 80.288926 202.83264 
L 80.750083 202.83264 
L 81.21124 202.59072 
L 81.672397 202.59072 
L 83.517025 201.62304 
L 84.439339 200.65536 
L 84.900496 199.20384 
L 85.361653 198.96192 
L 85.82281 198.23616 
L 86.745124 197.26848 
L 87.206281 196.54272 
L 87.667438 196.05888 
L 88.128595 195.33312 
L 88.589752 194.12352 
L 89.050909 193.39776 
L 90.895537 188.31744 
L 91.356694 186.86592 
L 91.817851 186.624 
L 92.740165 183.47904 
L 93.201322 182.75328 
L 93.662479 182.26944 
L 94.584793 179.85024 
L 95.04595 179.60832 
L 95.968264 178.1568 
L 96.429421 177.18912 
L 96.890579 176.9472 
L 97.812893 175.25376 
L 98.27405 174.528 
L 98.735207 174.28608 
L 99.657521 172.59264 
L 100.118678 170.8992 
L 100.579835 170.17344 
L 101.040992 170.17344 
L 101.502149 169.6896 
L 101.963306 168.48 
L 102.424463 167.99616 
L 103.346777 165.33504 
L 103.807934 162.67392 
L 104.730248 159.04512 
L 105.191405 157.35168 
L 106.574876 154.69056 
L 107.036033 152.51328 
L 107.49719 151.06176 
L 107.958347 150.57792 
L 108.880661 147.9168 
L 110.264132 144.77184 
L 110.725289 143.32032 
L 111.186446 142.35264 
L 111.647603 140.90112 
L 112.10876 138.96576 
L 113.031074 134.36928 
L 113.492231 133.15968 
L 114.414545 131.70816 
L 114.875702 131.22432 
L 115.33686 131.22432 
L 115.798017 130.9824 
L 116.720331 130.01472 
L 117.642645 128.32128 
L 118.103802 128.07936 
L 119.026116 127.11168 
L 119.487273 125.90208 
L 119.94843 125.90208 
L 121.331901 124.45056 
L 121.793058 123.7248 
L 122.254215 123.48288 
L 122.715372 123.48288 
L 123.176529 122.5152 
L 123.637686 122.03136 
L 124.098843 121.78944 
L 124.56 121.3056 
L 125.482314 121.3056 
L 128.710413 119.61216 
L 129.17157 118.64448 
L 129.632727 118.40256 
L 130.093884 117.6768 
L 130.555041 117.43488 
L 131.477355 115.98336 
L 131.938512 115.49952 
L 132.860826 114.048 
L 133.321983 112.8384 
L 133.78314 112.59648 
L 134.705455 111.6288 
L 135.166612 110.90304 
L 135.627769 110.4192 
L 136.088926 109.45152 
L 136.550083 109.2096 
L 137.01124 108.48384 
L 137.472397 108 
L 137.933554 107.27424 
L 138.855868 106.30656 
L 139.317025 105.33888 
L 139.778182 105.09696 
L 140.239339 104.3712 
L 141.161653 103.88736 
L 141.62281 103.40352 
L 142.545124 101.952 
L 143.006281 100.50048 
L 143.467438 100.01664 
L 144.850909 99.29088 
L 145.312066 98.80704 
L 145.773223 98.08128 
L 146.23438 97.1136 
L 146.695537 96.62976 
L 147.156694 95.42016 
L 147.617851 94.93632 
L 148.079008 93.96864 
L 148.540165 91.54944 
L 149.001322 90.58176 
L 149.462479 90.09792 
L 149.923636 89.856 
L 150.384793 88.6464 
L 150.84595 88.16256 
L 151.307107 87.92064 
L 152.229421 86.2272 
L 153.151736 85.25952 
L 153.612893 85.25952 
L 154.07405 85.0176 
L 154.535207 85.0176 
L 154.996364 84.53376 
L 155.457521 83.56608 
L 155.918678 83.32416 
L 156.379835 82.35648 
L 156.840992 82.35648 
L 157.302149 81.63072 
L 158.224463 81.14688 
L 158.68562 81.14688 
L 159.607934 80.1792 
L 160.069091 79.93728 
L 160.991405 79.93728 
L 161.452562 79.69536 
L 162.374876 79.69536 
L 162.836033 79.21152 
L 163.29719 78.48576 
L 166.525289 78.48576 
L 166.986446 78.24384 
L 167.90876 78.24384 
L 168.831074 77.76 
L 169.292231 77.03424 
L 169.753388 76.79232 
L 172.059174 76.79232 
L 172.981488 75.82464 
L 173.442645 75.82464 
L 174.364959 75.3408 
L 174.826116 74.61504 
L 175.287273 73.16352 
L 175.74843 72.43776 
L 176.209587 71.95392 
L 176.670744 71.712 
L 178.515372 71.712 
L 178.976529 71.47008 
L 179.898843 71.47008 
L 180.36 71.22816 
L 180.821157 71.22816 
L 181.743471 70.74432 
L 182.204628 70.74432 
L 183.126942 70.26048 
L 183.588099 70.26048 
L 184.97157 69.53472 
L 185.432727 69.05088 
L 186.816198 68.32512 
L 187.738512 67.35744 
L 188.199669 67.35744 
L 188.660826 67.11552 
L 189.58314 67.11552 
L 190.044298 66.8736 
L 190.966612 66.8736 
L 191.888926 66.38976 
L 192.350083 66.38976 
L 192.81124 66.14784 
L 198.806281 66.14784 
L 199.267438 65.90592 
L 199.728595 65.90592 
L 200.189752 65.664 
L 202.495537 65.664 
L 202.956694 65.42208 
L 203.417851 65.42208 
L 203.879008 65.18016 
L 206.64595 65.18016 
L 208.029421 64.4544 
L 208.490579 64.4544 
L 208.951736 64.21248 
L 209.87405 63.2448 
L 210.335207 62.51904 
L 210.796364 62.51904 
L 211.257521 62.27712 
L 211.718678 62.27712 
L 212.640992 61.79328 
L 218.174876 61.79328 
L 218.636033 61.55136 
L 220.019504 61.55136 
L 220.480661 61.30944 
L 220.941818 61.30944 
L 221.402975 61.06752 
L 223.247603 61.06752 
L 223.70876 60.8256 
L 226.014545 60.8256 
L 226.475702 60.34176 
L 230.164959 60.34176 
L 230.626116 60.09984 
L 232.470744 60.09984 
L 232.931901 59.85792 
L 233.393058 59.85792 
L 233.854215 59.616 
L 239.849256 59.616 
L 240.310413 59.37408 
L 245.38314 59.37408 
L 245.844298 59.13216 
L 249.994711 59.13216 
L 250.455868 58.89024 
L 252.300496 58.89024 
L 252.761653 58.64832 
L 253.22281 58.16448 
L 254.606281 57.43872 
L 256.450909 57.43872 
L 256.912066 56.95488 
L 257.373223 56.95488 
L 257.83438 56.71296 
L 258.295537 56.71296 
L 258.756694 56.47104 
L 259.217851 56.47104 
L 259.679008 55.9872 
L 260.601322 55.9872 
L 261.062479 55.74528 
L 264.751736 55.74528 
L 265.212893 55.50336 
L 273.052562 55.50336 
L 273.513719 55.26144 
L 281.814545 55.26144 
L 282.275702 55.01952 
L 291.498843 55.01952 
L 291.96 54.7776 
L 292.882314 54.7776 
L 293.343471 54.53568 
L 295.649256 54.53568 
L 296.57157 54.05184 
L 297.032727 54.05184 
L 297.493884 53.80992 
L 298.416198 53.80992 
L 298.877355 53.568 
L 398.487273 53.568 
L 398.487273 53.568 
" clip-path="url(#p3bbd314346)" style="fill: none; stroke: #ff0000; stroke-linecap: square"/>
   </g>
   <g id="line2d_16">
    <path d="M 73.832727 295.488 
L 74.293884 166.30272 
L 74.755041 166.0608 
L 75.677355 166.0608 
L 76.599669 165.57696 
L 77.060826 165.57696 
L 77.98314 165.09312 
L 78.444298 165.09312 
L 78.905455 164.60928 
L 79.827769 164.60928 
L 81.672397 163.6416 
L 82.133554 163.6416 
L 82.594711 163.39968 
L 83.055868 162.432 
L 83.517025 161.94816 
L 83.978182 161.70624 
L 84.439339 161.2224 
L 84.900496 160.98048 
L 85.361653 160.25472 
L 85.82281 160.25472 
L 86.745124 159.77088 
L 87.667438 158.31936 
L 88.128595 157.35168 
L 88.589752 157.35168 
L 89.050909 157.10976 
L 89.973223 156.14208 
L 90.43438 155.41632 
L 90.895537 155.1744 
L 91.356694 154.44864 
L 91.817851 154.44864 
L 92.279008 154.20672 
L 92.740165 153.72288 
L 93.201322 153.48096 
L 93.662479 152.51328 
L 94.123636 152.02944 
L 95.04595 151.5456 
L 95.507107 150.336 
L 95.968264 149.61024 
L 96.429421 149.36832 
L 96.890579 148.88448 
L 97.351736 148.15872 
L 98.27405 147.19104 
L 99.657521 144.52992 
L 100.118678 144.52992 
L 101.040992 142.35264 
L 102.424463 139.69152 
L 102.88562 138.96576 
L 103.807934 137.99808 
L 104.269091 137.99808 
L 104.730248 137.51424 
L 106.113719 135.33696 
L 106.574876 135.09504 
L 107.49719 134.12736 
L 107.958347 133.88544 
L 108.419504 133.4016 
L 109.341818 131.95008 
L 110.725289 131.22432 
L 111.186446 130.74048 
L 111.647603 130.49856 
L 112.10876 129.7728 
L 113.492231 128.32128 
L 113.953388 127.59552 
L 114.414545 126.144 
L 114.875702 125.41824 
L 115.33686 124.9344 
L 115.798017 123.7248 
L 116.720331 122.27328 
L 117.181488 122.27328 
L 118.103802 121.78944 
L 119.026116 120.096 
L 119.487273 119.85408 
L 121.331901 119.85408 
L 121.793058 119.37024 
L 122.254215 118.64448 
L 122.715372 118.64448 
L 123.176529 118.16064 
L 123.637686 117.91872 
L 124.098843 117.43488 
L 124.56 116.70912 
L 125.021157 116.4672 
L 125.482314 115.74144 
L 126.404628 115.74144 
L 126.865785 115.2576 
L 127.326942 115.01568 
L 127.788099 115.01568 
L 128.249256 114.77376 
L 129.17157 113.80608 
L 129.632727 113.56416 
L 130.093884 113.08032 
L 130.555041 113.08032 
L 131.477355 112.11264 
L 131.938512 111.38688 
L 134.705455 109.93536 
L 135.166612 109.93536 
L 135.627769 109.69344 
L 136.088926 108.96768 
L 136.550083 108.72576 
L 137.01124 108.24192 
L 137.472397 107.51616 
L 138.394711 107.51616 
L 138.855868 107.03232 
L 139.317025 107.03232 
L 139.778182 106.7904 
L 140.239339 106.06464 
L 140.700496 106.06464 
L 141.62281 105.5808 
L 142.083967 105.09696 
L 143.467438 105.09696 
L 143.928595 104.3712 
L 144.389752 103.88736 
L 144.850909 103.64544 
L 145.312066 103.64544 
L 145.773223 103.1616 
L 146.23438 102.91968 
L 146.695537 102.43584 
L 147.156694 102.19392 
L 147.617851 101.71008 
L 148.079008 100.50048 
L 148.540165 100.25856 
L 149.001322 99.77472 
L 149.462479 99.5328 
L 150.384793 99.5328 
L 150.84595 98.80704 
L 151.307107 98.3232 
L 151.768264 98.08128 
L 153.151736 98.08128 
L 153.612893 97.83936 
L 154.07405 97.83936 
L 154.535207 97.59744 
L 154.996364 97.59744 
L 155.457521 96.87168 
L 155.918678 96.87168 
L 157.302149 95.42016 
L 157.763306 94.6944 
L 158.224463 94.45248 
L 158.68562 93.24288 
L 160.069091 92.51712 
L 161.452562 91.0656 
L 161.913719 91.0656 
L 162.374876 90.58176 
L 162.836033 90.33984 
L 163.29719 89.856 
L 164.219504 89.856 
L 164.680661 88.88832 
L 165.141818 88.6464 
L 166.525289 88.6464 
L 167.447603 88.16256 
L 167.90876 88.16256 
L 168.369917 87.92064 
L 168.831074 87.92064 
L 169.292231 87.67872 
L 169.753388 87.67872 
L 170.214545 87.4368 
L 171.598017 87.4368 
L 172.059174 86.71104 
L 172.520331 86.46912 
L 173.442645 86.46912 
L 173.903802 86.2272 
L 174.364959 86.2272 
L 175.287273 85.74336 
L 177.593058 85.74336 
L 178.054215 85.50144 
L 178.515372 84.77568 
L 178.976529 84.77568 
L 179.437686 84.04992 
L 179.898843 83.808 
L 180.36 83.808 
L 180.821157 83.56608 
L 182.204628 83.56608 
L 184.510413 81.14688 
L 186.355041 81.14688 
L 187.277355 80.66304 
L 187.738512 80.66304 
L 189.58314 79.69536 
L 190.044298 79.69536 
L 190.505455 79.21152 
L 190.966612 79.21152 
L 191.888926 78.72768 
L 194.655868 78.72768 
L 195.578182 78.24384 
L 196.039339 78.24384 
L 196.500496 77.76 
L 196.961653 77.51808 
L 198.345124 77.51808 
L 199.267438 77.03424 
L 200.189752 77.03424 
L 201.112066 76.06656 
L 201.573223 76.06656 
L 202.03438 75.82464 
L 203.879008 75.82464 
L 205.262479 75.09888 
L 206.184793 75.09888 
L 207.107107 74.61504 
L 207.568264 74.61504 
L 208.029421 74.37312 
L 208.490579 73.88928 
L 211.257521 73.88928 
L 211.718678 73.16352 
L 213.563306 73.16352 
L 214.024463 72.67968 
L 214.946777 72.67968 
L 215.869091 72.19584 
L 216.791405 72.19584 
L 217.252562 71.95392 
L 218.636033 71.95392 
L 219.09719 71.712 
L 219.558347 71.22816 
L 220.941818 71.22816 
L 221.402975 70.74432 
L 221.864132 70.74432 
L 222.325289 70.5024 
L 222.786446 70.01856 
L 226.014545 70.01856 
L 226.475702 69.77664 
L 226.93686 69.77664 
L 227.398017 69.2928 
L 230.164959 69.2928 
L 230.626116 69.05088 
L 232.009587 69.05088 
L 232.931901 68.56704 
L 233.393058 68.56704 
L 233.854215 68.32512 
L 234.315372 68.32512 
L 235.698843 67.59936 
L 237.082314 67.59936 
L 238.465785 66.8736 
L 239.849256 66.8736 
L 240.310413 66.63168 
L 242.155041 66.63168 
L 242.616198 66.14784 
L 243.538512 66.14784 
L 243.999669 65.90592 
L 245.38314 65.90592 
L 245.844298 65.664 
L 246.305455 65.664 
L 246.766612 65.42208 
L 247.227769 65.42208 
L 247.688926 65.18016 
L 248.150083 65.18016 
L 249.072397 64.69632 
L 249.533554 64.69632 
L 249.994711 64.21248 
L 252.300496 64.21248 
L 252.761653 63.97056 
L 253.22281 63.97056 
L 254.606281 63.2448 
L 256.450909 63.2448 
L 256.912066 63.00288 
L 260.140165 63.00288 
L 261.062479 62.51904 
L 262.44595 62.51904 
L 263.368264 62.0352 
L 263.829421 62.0352 
L 264.290579 61.79328 
L 266.135207 61.79328 
L 266.596364 61.06752 
L 267.979835 60.34176 
L 268.440992 60.34176 
L 268.902149 60.09984 
L 269.824463 60.09984 
L 271.207934 59.37408 
L 273.052562 59.37408 
L 273.513719 59.13216 
L 274.436033 59.13216 
L 274.89719 58.89024 
L 276.741818 58.89024 
L 277.202975 58.64832 
L 279.50876 58.64832 
L 279.969917 58.4064 
L 281.814545 58.4064 
L 282.275702 58.16448 
L 285.964959 58.16448 
L 286.426116 57.92256 
L 286.887273 57.92256 
L 287.34843 57.68064 
L 288.270744 57.68064 
L 288.731901 57.43872 
L 297.493884 57.43872 
L 297.955041 57.1968 
L 298.416198 57.1968 
L 298.877355 56.95488 
L 299.338512 56.95488 
L 299.799669 56.71296 
L 304.41124 56.71296 
L 306.717025 55.50336 
L 307.639339 55.50336 
L 308.100496 55.26144 
L 309.02281 55.26144 
L 309.483967 55.01952 
L 309.945124 55.01952 
L 310.406281 54.7776 
L 313.63438 54.7776 
L 314.095537 54.53568 
L 315.017851 54.53568 
L 315.479008 54.29376 
L 332.080661 54.29376 
L 332.541818 54.05184 
L 354.216198 54.05184 
L 354.677355 53.80992 
L 398.026116 53.80992 
L 398.487273 53.568 
L 398.487273 53.568 
" clip-path="url(#p3bbd314346)" style="fill: none; stroke-dasharray: 1.85,0.8; stroke-dashoffset: 0; stroke: #008000; stroke-width: 0.5"/>
   </g>
   <g id="line2d_17">
    <path d="M 73.832727 295.488 
L 74.293884 169.93152 
L 75.216198 169.93152 
L 75.677355 169.44768 
L 76.138512 169.44768 
L 76.599669 169.20576 
L 77.98314 169.20576 
L 78.444298 168.72192 
L 78.905455 168.48 
L 79.827769 168.48 
L 80.288926 167.75424 
L 82.133554 166.78656 
L 82.594711 166.78656 
L 83.055868 166.30272 
L 83.517025 165.09312 
L 83.978182 164.8512 
L 84.900496 163.39968 
L 85.82281 162.91584 
L 87.206281 160.73856 
L 87.667438 160.73856 
L 88.128595 160.49664 
L 88.589752 159.77088 
L 89.512066 159.28704 
L 89.973223 158.8032 
L 90.43438 158.8032 
L 90.895537 158.56128 
L 91.817851 158.56128 
L 93.201322 157.10976 
L 93.662479 156.86784 
L 94.123636 156.14208 
L 94.584793 155.90016 
L 95.04595 154.93248 
L 95.507107 154.44864 
L 95.968264 153.72288 
L 96.429421 153.72288 
L 96.890579 153.48096 
L 97.351736 151.78752 
L 97.812893 151.5456 
L 98.27405 151.06176 
L 98.735207 150.336 
L 99.196364 149.85216 
L 99.657521 149.1264 
L 100.118678 147.67488 
L 100.579835 146.94912 
L 101.040992 146.94912 
L 102.424463 144.77184 
L 102.88562 143.80416 
L 103.346777 143.56224 
L 103.807934 142.11072 
L 104.730248 141.14304 
L 105.191405 141.14304 
L 105.652562 140.6592 
L 106.113719 139.93344 
L 106.574876 139.4496 
L 107.036033 137.99808 
L 107.49719 137.0304 
L 108.419504 136.06272 
L 108.880661 134.85312 
L 109.802975 134.36928 
L 110.264132 134.36928 
L 110.725289 134.12736 
L 111.186446 134.12736 
L 112.10876 133.64352 
L 113.031074 133.64352 
L 113.953388 132.67584 
L 114.414545 132.43392 
L 114.875702 131.70816 
L 115.798017 129.53088 
L 116.720331 128.07936 
L 117.181488 127.59552 
L 118.103802 127.11168 
L 118.564959 126.62784 
L 119.026116 126.62784 
L 119.487273 125.90208 
L 119.94843 125.41824 
L 120.409587 125.41824 
L 120.870744 125.17632 
L 121.793058 125.17632 
L 122.254215 124.9344 
L 123.176529 124.9344 
L 123.637686 124.20864 
L 124.098843 124.20864 
L 124.56 123.96672 
L 125.021157 123.48288 
L 125.482314 123.24096 
L 126.404628 122.27328 
L 126.865785 122.27328 
L 127.788099 121.3056 
L 128.249256 121.3056 
L 128.710413 121.06368 
L 129.17157 120.57984 
L 131.477355 119.37024 
L 131.938512 119.37024 
L 133.321983 118.64448 
L 133.78314 118.16064 
L 134.705455 118.16064 
L 135.166612 117.91872 
L 135.627769 117.91872 
L 136.088926 117.43488 
L 136.550083 117.43488 
L 137.01124 116.95104 
L 137.472397 115.98336 
L 137.933554 115.49952 
L 138.394711 115.49952 
L 139.317025 114.048 
L 140.239339 113.08032 
L 140.700496 113.08032 
L 141.161653 112.8384 
L 141.62281 112.35456 
L 143.928595 111.14496 
L 144.389752 110.66112 
L 145.312066 110.66112 
L 145.773223 109.69344 
L 146.695537 109.69344 
L 147.156694 109.45152 
L 147.617851 109.45152 
L 148.079008 108.48384 
L 148.540165 108.24192 
L 149.001322 108.24192 
L 149.462479 107.75808 
L 149.923636 107.75808 
L 150.84595 107.27424 
L 151.307107 107.27424 
L 151.768264 106.7904 
L 152.229421 106.7904 
L 152.690579 106.30656 
L 153.151736 106.06464 
L 153.612893 105.33888 
L 154.535207 104.85504 
L 154.996364 104.3712 
L 155.457521 104.3712 
L 155.918678 104.12928 
L 156.379835 103.64544 
L 157.302149 103.64544 
L 157.763306 102.43584 
L 158.224463 101.952 
L 158.68562 101.22624 
L 159.146777 100.98432 
L 159.607934 99.5328 
L 160.530248 98.56512 
L 161.452562 98.56512 
L 162.374876 98.08128 
L 162.836033 98.08128 
L 163.29719 97.83936 
L 163.758347 96.87168 
L 164.219504 96.62976 
L 164.680661 96.14592 
L 165.141818 95.904 
L 166.064132 95.904 
L 166.986446 95.42016 
L 167.447603 95.42016 
L 167.90876 95.17824 
L 168.369917 94.6944 
L 168.831074 94.45248 
L 169.753388 94.45248 
L 170.214545 94.21056 
L 170.675702 93.4848 
L 171.13686 93.4848 
L 171.598017 93.24288 
L 172.520331 93.24288 
L 172.981488 92.75904 
L 174.826116 92.75904 
L 175.287273 92.51712 
L 175.74843 92.03328 
L 176.209587 92.03328 
L 177.131901 91.0656 
L 177.593058 91.0656 
L 178.054215 90.33984 
L 178.976529 89.856 
L 179.437686 89.37216 
L 179.898843 89.13024 
L 180.36 89.13024 
L 180.821157 88.88832 
L 181.282314 88.88832 
L 181.743471 88.6464 
L 182.204628 88.6464 
L 182.665785 87.92064 
L 183.126942 87.67872 
L 183.588099 86.95296 
L 184.049256 86.46912 
L 184.97157 85.98528 
L 185.432727 85.98528 
L 186.816198 84.53376 
L 188.199669 83.808 
L 190.966612 83.808 
L 191.427769 83.56608 
L 191.888926 83.56608 
L 192.350083 83.32416 
L 192.81124 82.84032 
L 193.272397 82.5984 
L 193.733554 82.5984 
L 194.194711 82.11456 
L 195.578182 82.11456 
L 196.039339 81.63072 
L 196.500496 81.63072 
L 196.961653 81.14688 
L 197.42281 81.14688 
L 198.345124 80.66304 
L 198.806281 80.66304 
L 199.267438 80.42112 
L 200.189752 80.42112 
L 200.650909 80.1792 
L 201.112066 79.69536 
L 201.573223 79.45344 
L 202.495537 79.45344 
L 202.956694 78.9696 
L 203.417851 78.9696 
L 203.879008 78.72768 
L 204.340165 78.24384 
L 205.262479 77.76 
L 206.64595 77.76 
L 207.107107 77.27616 
L 207.568264 76.5504 
L 208.029421 76.5504 
L 208.490579 76.30848 
L 208.951736 76.30848 
L 209.87405 75.82464 
L 210.335207 75.3408 
L 210.796364 75.09888 
L 213.102149 75.09888 
L 213.563306 74.85696 
L 214.946777 74.85696 
L 215.407934 74.61504 
L 216.330248 74.61504 
L 216.791405 74.37312 
L 217.252562 74.37312 
L 218.636033 73.64736 
L 219.558347 73.64736 
L 220.019504 73.40544 
L 221.864132 73.40544 
L 222.786446 72.9216 
L 224.169917 72.9216 
L 224.631074 72.67968 
L 225.092231 72.67968 
L 226.014545 72.19584 
L 226.475702 72.19584 
L 226.93686 71.712 
L 228.781488 71.712 
L 231.087273 70.5024 
L 234.315372 70.5024 
L 234.776529 70.26048 
L 235.237686 70.26048 
L 235.698843 70.01856 
L 236.621157 70.01856 
L 237.543471 69.53472 
L 238.465785 69.53472 
L 239.388099 69.05088 
L 239.849256 69.05088 
L 240.77157 68.56704 
L 242.155041 68.56704 
L 243.538512 67.84128 
L 244.921983 67.84128 
L 245.38314 67.59936 
L 245.844298 67.59936 
L 246.305455 67.35744 
L 246.766612 67.35744 
L 247.227769 67.11552 
L 248.150083 67.11552 
L 248.61124 66.63168 
L 249.533554 66.14784 
L 249.994711 66.14784 
L 250.455868 65.90592 
L 251.839339 65.90592 
L 252.300496 65.664 
L 253.683967 65.664 
L 254.145124 65.42208 
L 255.528595 65.42208 
L 255.989752 64.93824 
L 256.450909 64.21248 
L 256.912066 63.97056 
L 257.373223 63.97056 
L 257.83438 63.48672 
L 258.756694 63.48672 
L 260.601322 62.51904 
L 261.062479 62.0352 
L 261.523636 62.0352 
L 261.984793 61.79328 
L 263.368264 61.79328 
L 263.829421 61.55136 
L 265.67405 61.55136 
L 266.135207 61.06752 
L 267.979835 61.06752 
L 268.440992 60.34176 
L 270.746777 60.34176 
L 271.207934 60.09984 
L 271.669091 59.616 
L 272.130248 59.616 
L 272.591405 59.13216 
L 273.052562 58.89024 
L 273.513719 58.89024 
L 274.436033 58.4064 
L 274.89719 57.68064 
L 275.358347 57.68064 
L 276.741818 56.95488 
L 279.50876 56.95488 
L 279.969917 56.71296 
L 285.964959 56.71296 
L 286.426116 56.47104 
L 286.887273 56.47104 
L 287.34843 56.22912 
L 288.731901 56.22912 
L 289.193058 55.9872 
L 291.498843 55.9872 
L 291.96 55.74528 
L 310.406281 55.74528 
L 310.867438 55.50336 
L 311.328595 55.50336 
L 311.789752 55.26144 
L 312.250909 55.26144 
L 312.712066 55.01952 
L 313.173223 55.01952 
L 314.095537 54.53568 
L 314.556694 54.53568 
L 315.017851 54.29376 
L 356.060826 54.29376 
L 356.521983 54.05184 
L 359.750083 54.05184 
L 360.21124 53.80992 
L 378.657521 53.80992 
L 379.118678 53.568 
L 398.487273 53.568 
L 398.487273 53.568 
" clip-path="url(#p3bbd314346)" style="fill: none; stroke-dasharray: 1.85,0.8; stroke-dashoffset: 0; stroke: #0000ff; stroke-width: 0.5"/>
   </g>
   <g id="line2d_18">
    <path d="M 73.832727 295.488 
L 74.293884 216.864 
L 76.599669 216.864 
L 77.060826 216.13824 
L 77.521983 216.13824 
L 77.98314 215.41248 
L 78.444298 215.41248 
L 78.905455 214.92864 
L 79.366612 214.68672 
L 79.827769 213.71904 
L 80.750083 213.2352 
L 81.21124 212.75136 
L 81.672397 212.75136 
L 82.133554 211.54176 
L 82.594711 211.29984 
L 83.055868 210.33216 
L 83.517025 210.09024 
L 83.978182 209.6064 
L 84.439339 208.88064 
L 84.900496 207.67104 
L 85.361653 207.42912 
L 85.82281 206.94528 
L 86.283967 205.25184 
L 86.745124 204.04224 
L 87.206281 204.04224 
L 87.667438 203.80032 
L 88.128595 202.59072 
L 88.589752 201.86496 
L 89.512066 199.68768 
L 89.973223 198.47808 
L 90.895537 194.84928 
L 91.817851 193.8816 
L 92.279008 191.94624 
L 92.740165 190.73664 
L 93.201322 190.49472 
L 93.662479 189.76896 
L 94.584793 189.28512 
L 95.04595 188.55936 
L 95.507107 188.07552 
L 95.968264 187.34976 
L 96.429421 186.38208 
L 96.890579 186.14016 
L 98.27405 184.68864 
L 98.735207 183.96288 
L 99.657521 182.02752 
L 100.579835 181.05984 
L 101.040992 179.12448 
L 101.502149 178.39872 
L 102.424463 177.43104 
L 103.346777 174.76992 
L 103.807934 173.80224 
L 104.730248 169.20576 
L 105.652562 166.78656 
L 106.113719 165.09312 
L 106.574876 164.36736 
L 107.036033 163.88352 
L 107.49719 163.15776 
L 110.725289 156.14208 
L 111.186446 154.69056 
L 111.647603 154.20672 
L 112.569917 151.78752 
L 113.031074 151.06176 
L 113.492231 149.85216 
L 113.953388 149.1264 
L 114.414545 149.1264 
L 114.875702 148.40064 
L 115.33686 147.19104 
L 116.720331 142.35264 
L 117.181488 141.38496 
L 117.642645 141.38496 
L 118.103802 141.14304 
L 118.564959 140.41728 
L 119.026116 140.17536 
L 119.487273 139.69152 
L 119.94843 139.4496 
L 120.409587 139.4496 
L 120.870744 139.20768 
L 121.331901 139.20768 
L 121.793058 138.72384 
L 122.254215 138.72384 
L 122.715372 138.48192 
L 123.637686 136.30464 
L 124.098843 136.06272 
L 124.56 135.57888 
L 125.021157 134.85312 
L 125.482314 134.6112 
L 125.943471 134.12736 
L 126.404628 133.88544 
L 126.865785 133.4016 
L 127.326942 132.43392 
L 127.788099 132.192 
L 128.249256 131.70816 
L 128.710413 130.9824 
L 129.17157 130.9824 
L 129.632727 130.01472 
L 131.016198 129.28896 
L 131.477355 128.5632 
L 131.938512 128.07936 
L 132.399669 127.83744 
L 132.860826 127.11168 
L 133.321983 126.62784 
L 134.244298 124.9344 
L 134.705455 124.9344 
L 135.166612 124.69248 
L 136.088926 122.03136 
L 137.01124 121.06368 
L 137.933554 118.8864 
L 138.855868 117.91872 
L 139.317025 116.95104 
L 139.778182 116.4672 
L 140.239339 116.22528 
L 141.161653 113.80608 
L 142.083967 112.8384 
L 142.545124 112.11264 
L 143.467438 111.6288 
L 143.928595 110.90304 
L 144.389752 109.69344 
L 144.850909 109.45152 
L 145.312066 108.96768 
L 145.773223 108 
L 146.23438 106.54848 
L 146.695537 105.82272 
L 147.156694 104.61312 
L 147.617851 104.61312 
L 149.462479 102.67776 
L 149.923636 101.952 
L 150.384793 101.46816 
L 152.229421 97.59744 
L 152.690579 97.1136 
L 153.612893 97.1136 
L 154.07405 96.62976 
L 154.996364 94.93632 
L 155.457521 94.6944 
L 155.918678 94.21056 
L 157.302149 90.58176 
L 158.224463 90.09792 
L 158.68562 89.61408 
L 159.607934 89.61408 
L 160.069091 89.13024 
L 160.530248 88.40448 
L 160.991405 87.92064 
L 162.374876 87.19488 
L 162.836033 86.2272 
L 164.680661 85.25952 
L 165.602975 85.25952 
L 166.064132 84.29184 
L 166.986446 83.32416 
L 167.447603 82.5984 
L 167.90876 82.5984 
L 169.292231 81.87264 
L 169.753388 80.90496 
L 170.214545 80.42112 
L 170.675702 80.1792 
L 171.13686 80.1792 
L 171.598017 79.93728 
L 172.981488 79.93728 
L 173.442645 79.69536 
L 173.903802 79.69536 
L 174.364959 79.45344 
L 174.826116 79.45344 
L 175.287273 78.9696 
L 176.209587 78.9696 
L 176.670744 78.24384 
L 177.131901 77.76 
L 177.593058 77.76 
L 178.054215 77.51808 
L 178.515372 77.51808 
L 178.976529 77.27616 
L 179.437686 77.27616 
L 179.898843 76.79232 
L 181.743471 76.79232 
L 182.204628 76.5504 
L 182.665785 76.06656 
L 183.126942 76.06656 
L 184.049256 75.58272 
L 184.510413 75.58272 
L 184.97157 75.09888 
L 185.893884 75.09888 
L 186.355041 74.85696 
L 186.816198 74.85696 
L 187.277355 74.61504 
L 188.199669 74.61504 
L 188.660826 74.1312 
L 189.58314 73.64736 
L 190.044298 72.9216 
L 190.505455 71.95392 
L 190.966612 71.95392 
L 191.427769 71.712 
L 191.888926 71.22816 
L 192.350083 71.22816 
L 192.81124 70.74432 
L 193.733554 70.74432 
L 194.194711 70.5024 
L 195.117025 70.5024 
L 196.039339 70.01856 
L 197.883967 70.01856 
L 198.806281 69.53472 
L 199.267438 69.05088 
L 199.728595 68.80896 
L 201.112066 68.80896 
L 201.573223 68.32512 
L 202.03438 68.0832 
L 202.956694 68.0832 
L 203.417851 67.84128 
L 204.801322 67.84128 
L 205.262479 67.59936 
L 205.723636 67.59936 
L 206.184793 67.35744 
L 207.107107 67.35744 
L 207.568264 67.11552 
L 208.490579 67.11552 
L 208.951736 66.63168 
L 209.87405 66.63168 
L 210.335207 66.14784 
L 212.179835 66.14784 
L 213.102149 65.664 
L 214.946777 65.664 
L 215.407934 65.42208 
L 215.869091 64.93824 
L 216.330248 64.93824 
L 216.791405 64.69632 
L 217.713719 64.69632 
L 218.174876 63.72864 
L 218.636033 63.48672 
L 219.09719 63.48672 
L 219.558347 63.2448 
L 220.019504 63.2448 
L 220.480661 63.00288 
L 222.786446 63.00288 
L 223.247603 62.51904 
L 223.70876 62.51904 
L 224.169917 62.27712 
L 225.553388 62.27712 
L 226.475702 61.79328 
L 229.242645 61.79328 
L 229.703802 61.55136 
L 237.082314 61.55136 
L 237.543471 61.30944 
L 238.926942 61.30944 
L 239.388099 61.06752 
L 239.849256 61.06752 
L 240.310413 60.8256 
L 244.921983 60.8256 
L 245.38314 60.58368 
L 249.072397 60.58368 
L 249.533554 60.34176 
L 250.917025 60.34176 
L 251.378182 60.09984 
L 255.528595 60.09984 
L 256.450909 59.616 
L 257.373223 59.616 
L 257.83438 59.37408 
L 258.295537 59.37408 
L 259.217851 58.89024 
L 259.679008 58.4064 
L 260.140165 58.4064 
L 260.601322 58.16448 
L 262.44595 58.16448 
L 262.907107 57.92256 
L 263.368264 57.92256 
L 263.829421 57.68064 
L 264.290579 57.1968 
L 265.67405 57.1968 
L 266.135207 56.95488 
L 266.596364 56.22912 
L 269.363306 56.22912 
L 270.28562 55.74528 
L 289.654215 55.74528 
L 290.115372 55.50336 
L 295.188099 55.50336 
L 295.649256 55.26144 
L 296.110413 55.26144 
L 296.57157 55.01952 
L 297.032727 55.01952 
L 297.493884 54.7776 
L 300.260826 54.7776 
L 301.18314 54.29376 
L 301.644298 54.29376 
L 302.105455 54.05184 
L 303.950083 54.05184 
L 304.41124 53.80992 
L 304.872397 53.80992 
L 305.333554 53.568 
L 398.487273 53.568 
L 398.487273 53.568 
" clip-path="url(#p3bbd314346)" style="fill: none; stroke-dasharray: 1.85,0.8; stroke-dashoffset: 0; stroke: #bf00bf; stroke-width: 0.5"/>
   </g>
   <g id="line2d_19">
    <path d="M 73.832727 295.488 
L 74.293884 54.29376 
L 87.667438 54.29376 
L 88.128595 53.568 
L 398.487273 53.568 
L 398.487273 53.568 
" clip-path="url(#p3bbd314346)" style="fill: none; stroke-dasharray: 1.85,0.8; stroke-dashoffset: 0; stroke: #bfbf00; stroke-width: 0.5"/>
   </g>
   <g id="patch_3">
    <path d="M 57.6 307.584 
L 57.6 41.472 
" style="fill: none; stroke: #000000; stroke-width: 0.8; stroke-linejoin: miter; stroke-linecap: square"/>
   </g>
   <g id="patch_4">
    <path d="M 414.72 307.584 
L 414.72 41.472 
" style="fill: none; stroke: #000000; stroke-width: 0.8; stroke-linejoin: miter; stroke-linecap: square"/>
   </g>
   <g id="patch_5">
    <path d="M 57.6 307.584 
L 414.72 307.584 
" style="fill: none; stroke: #000000; stroke-width: 0.8; stroke-linejoin: miter; stroke-linecap: square"/>
   </g>
   <g id="patch_6">
    <path d="M 57.6 41.472 
L 414.72 41.472 
" style="fill: none; stroke: #000000; stroke-width: 0.8; stroke-linejoin: miter; stroke-linecap: square"/>
   </g>
   <g id="text_17">
    <!-- count=1000, googlenet=150, resnet50=150, squeezenetv1=150, vgg19=150, yolov2=150 -->
    <g transform="translate(-3.84 35.472) scale(0.12 -0.12)">
     <defs>
      <path id="FangSong-6f" d="M 2875 1400 
Q 2875 775 2500 362 
Q 2125 -50 1575 -50 
Q 1000 -50 637 375 
Q 275 800 275 1400 
Q 275 1950 637 2400 
Q 1000 2850 1575 2850 
Q 2175 2850 2525 2400 
Q 2875 1950 2875 1400 
z
M 675 1375 
Q 675 725 937 412 
Q 1200 100 1575 100 
Q 2000 100 2237 437 
Q 2475 775 2475 1375 
Q 2475 2025 2212 2362 
Q 1950 2700 1575 2700 
Q 1225 2700 950 2362 
Q 675 2025 675 1375 
z
" transform="scale(0.015625)"/>
      <path id="FangSong-75" d="M 1425 225 
Q 1725 225 1937 375 
Q 2150 525 2250 850 
L 2250 2425 
Q 2250 2525 2200 2587 
Q 2150 2650 2025 2650 
L 1875 2650 
L 1875 2800 
L 2025 2800 
Q 2175 2800 2300 2825 
Q 2425 2850 2550 2950 
L 2600 2950 
L 2600 500 
Q 2600 400 2662 350 
Q 2725 300 2825 300 
L 2975 300 
L 2975 150 
L 2825 150 
Q 2700 150 2575 112 
Q 2450 75 2300 0 
L 2250 0 
L 2250 525 
Q 2125 250 1875 112 
Q 1625 -25 1300 -25 
Q 900 -25 700 200 
Q 500 425 500 925 
L 500 2425 
Q 500 2525 450 2587 
Q 400 2650 275 2650 
L 125 2650 
L 125 2800 
L 275 2800 
Q 425 2800 550 2825 
Q 675 2850 800 2950 
L 850 2950 
L 850 875 
Q 850 525 1000 375 
Q 1150 225 1425 225 
z
" transform="scale(0.015625)"/>
      <path id="FangSong-3d" d="M 175 2725 
L 175 2950 
L 2950 2950 
L 2950 2725 
L 175 2725 
z
M 175 1450 
L 175 1675 
L 2950 1675 
L 2950 1450 
L 175 1450 
z
" transform="scale(0.015625)"/>
      <path id="FangSong-2c" d="M 1325 75 
Q 1200 25 1100 75 
Q 1000 125 962 237 
Q 925 350 925 437 
Q 925 525 987 612 
Q 1050 700 1150 737 
Q 1250 775 1425 725 
Q 1600 675 1650 500 
Q 1700 325 1662 150 
Q 1625 -25 1525 -200 
Q 1425 -375 1312 -475 
Q 1200 -575 1025 -675 
L 950 -575 
Q 1100 -450 1187 -312 
Q 1275 -175 1325 75 
z
" transform="scale(0.015625)"/>
      <path id="FangSong-20" transform="scale(0.015625)"/>
      <path id="FangSong-67" d="M 850 1875 
Q 850 1575 1025 1362 
Q 1200 1150 1500 1150 
Q 1825 1150 1987 1337 
Q 2150 1525 2150 1875 
Q 2150 2300 1962 2487 
Q 1775 2675 1500 2675 
Q 1225 2675 1037 2487 
Q 850 2300 850 1875 
z
M 2075 525 
Q 2450 475 2625 312 
Q 2800 150 2800 -125 
Q 2800 -500 2487 -725 
Q 2175 -950 1500 -950 
Q 975 -950 650 -737 
Q 325 -525 325 -250 
Q 325 -75 450 100 
Q 575 275 850 375 
Q 700 450 612 537 
Q 525 625 525 750 
Q 525 900 625 1012 
Q 725 1125 875 1200 
Q 725 1325 612 1500 
Q 500 1675 500 1875 
Q 500 2250 762 2537 
Q 1025 2825 1500 2825 
Q 1700 2825 1887 2775 
Q 2075 2725 2200 2600 
Q 2375 2725 2512 2787 
Q 2650 2850 2750 2850 
Q 2875 2850 2925 2762 
Q 2975 2675 2975 2600 
Q 2975 2500 2937 2437 
Q 2900 2375 2800 2375 
Q 2725 2375 2675 2412 
Q 2625 2450 2600 2525 
Q 2575 2600 2487 2587 
Q 2400 2575 2300 2500 
Q 2400 2400 2450 2225 
Q 2500 2050 2500 1875 
Q 2500 1575 2262 1287 
Q 2025 1000 1500 1000 
Q 1350 1000 1225 1037 
Q 1100 1075 1025 1125 
Q 925 1075 875 1000 
Q 825 925 825 875 
Q 825 775 875 725 
Q 925 675 1025 675 
Q 1350 625 1612 587 
Q 1875 550 2075 525 
z
M 1050 325 
Q 825 225 737 87 
Q 650 -50 650 -250 
Q 650 -450 875 -625 
Q 1100 -800 1550 -800 
Q 1975 -800 2225 -662 
Q 2475 -525 2475 -250 
Q 2475 -75 2412 25 
Q 2350 125 2225 150 
Q 1975 200 1675 237 
Q 1375 275 1050 325 
z
" transform="scale(0.015625)"/>
      <path id="FangSong-6c" d="M 900 4275 
Q 1125 4275 1325 4325 
Q 1525 4375 1700 4475 
L 1750 4475 
L 1750 350 
Q 1750 250 1812 200 
Q 1875 150 1975 150 
L 2550 150 
L 2550 0 
L 600 0 
L 600 150 
L 1175 150 
Q 1300 150 1350 200 
Q 1400 250 1400 350 
L 1400 3925 
Q 1400 4025 1350 4075 
Q 1300 4125 1175 4125 
L 625 4125 
L 625 4275 
L 900 4275 
z
" transform="scale(0.015625)"/>
      <path id="FangSong-72" d="M 1250 2025 
Q 1500 2425 1787 2637 
Q 2075 2850 2375 2850 
Q 2625 2850 2762 2737 
Q 2900 2625 2900 2475 
Q 2900 2350 2837 2275 
Q 2775 2200 2650 2200 
Q 2525 2200 2462 2275 
Q 2400 2350 2425 2475 
Q 2425 2550 2400 2600 
Q 2375 2650 2250 2650 
Q 2050 2650 1762 2400 
Q 1475 2150 1250 1700 
L 1250 350 
Q 1250 250 1312 200 
Q 1375 150 1475 150 
L 2025 150 
L 2025 0 
L 175 0 
L 175 150 
L 675 150 
Q 800 150 850 200 
Q 900 250 900 350 
L 900 2425 
Q 900 2525 850 2587 
Q 800 2650 675 2650 
L 200 2650 
L 200 2800 
L 400 2800 
Q 575 2800 812 2837 
Q 1050 2875 1175 2925 
L 1250 2925 
L 1250 2025 
z
" transform="scale(0.015625)"/>
      <path id="FangSong-73" d="M 600 2075 
Q 600 2450 887 2650 
Q 1175 2850 1575 2850 
Q 1800 2850 2000 2787 
Q 2200 2725 2275 2725 
Q 2350 2725 2400 2750 
Q 2450 2775 2525 2850 
L 2625 2025 
L 2475 2000 
Q 2375 2325 2137 2512 
Q 1900 2700 1600 2700 
Q 1275 2700 1087 2575 
Q 900 2450 900 2225 
Q 900 2025 987 1912 
Q 1075 1800 1300 1750 
Q 1475 1675 1737 1587 
Q 2000 1500 2225 1400 
Q 2425 1300 2562 1137 
Q 2700 975 2700 775 
Q 2700 400 2437 187 
Q 2175 -25 1675 -25 
Q 1350 -25 1187 37 
Q 1025 100 925 100 
Q 850 100 762 62 
Q 675 25 575 -25 
L 500 900 
L 650 925 
Q 725 525 975 325 
Q 1225 125 1675 125 
Q 2025 125 2212 250 
Q 2400 375 2400 625 
Q 2400 800 2300 912 
Q 2200 1025 2100 1075 
Q 1850 1175 1550 1287 
Q 1250 1400 1025 1500 
Q 800 1600 700 1750 
Q 600 1900 600 2075 
z
" transform="scale(0.015625)"/>
      <path id="FangSong-71" d="M 2250 2150 
Q 2150 2375 1975 2512 
Q 1800 2650 1550 2650 
Q 1200 2650 950 2350 
Q 700 2050 700 1325 
Q 700 700 912 437 
Q 1125 175 1450 175 
Q 1725 175 1937 300 
Q 2150 425 2250 725 
L 2250 2150 
z
M 2600 -550 
Q 2600 -675 2662 -725 
Q 2725 -775 2825 -775 
L 2975 -775 
L 2975 -925 
L 1825 -925 
L 1825 -775 
L 2025 -775 
Q 2150 -775 2200 -725 
Q 2250 -675 2250 -550 
L 2250 375 
Q 2100 175 1887 75 
Q 1675 -25 1375 -25 
Q 950 -25 625 337 
Q 300 700 300 1400 
Q 300 2075 675 2450 
Q 1050 2825 1475 2825 
Q 1750 2825 1937 2725 
Q 2125 2625 2275 2475 
L 2500 2800 
L 2600 2800 
L 2600 -550 
z
" transform="scale(0.015625)"/>
      <path id="FangSong-7a" d="M 2725 975 
L 2550 0 
L 400 0 
L 400 125 
L 2125 2650 
L 1200 2650 
Q 975 2650 825 2487 
Q 675 2325 575 1925 
L 425 1950 
L 525 2800 
L 2575 2800 
L 2575 2725 
L 825 150 
L 1775 150 
Q 2100 150 2287 350 
Q 2475 550 2575 1000 
L 2725 975 
z
" transform="scale(0.015625)"/>
      <path id="FangSong-76" d="M 1600 -25 
L 1450 -25 
L 600 2425 
Q 575 2525 500 2587 
Q 425 2650 325 2650 
L 200 2650 
L 200 2800 
L 1275 2800 
L 1275 2650 
L 1175 2650 
Q 1025 2650 987 2575 
Q 950 2500 1000 2325 
L 1600 575 
L 1650 575 
L 2250 2300 
Q 2325 2475 2262 2562 
Q 2200 2650 2050 2650 
L 2000 2650 
L 2000 2800 
L 2900 2800 
L 2900 2650 
L 2850 2650 
Q 2700 2650 2612 2562 
Q 2525 2475 2450 2300 
L 1600 -25 
z
" transform="scale(0.015625)"/>
      <path id="FangSong-39" d="M 675 2950 
Q 675 2400 887 2112 
Q 1100 1825 1425 1825 
Q 1800 1825 2075 2175 
Q 2350 2525 2350 2825 
Q 2350 3425 2150 3787 
Q 1950 4150 1500 4150 
Q 1075 4150 875 3812 
Q 675 3475 675 2950 
z
M 1350 1600 
Q 850 1600 550 1912 
Q 250 2225 250 2925 
Q 250 3525 575 3925 
Q 900 4325 1500 4325 
Q 2125 4325 2475 3825 
Q 2825 3325 2825 2375 
Q 2825 1325 2412 637 
Q 2000 -50 1275 -50 
Q 950 -50 712 100 
Q 475 250 475 500 
Q 475 600 537 700 
Q 600 800 750 800 
Q 900 800 950 687 
Q 1000 575 1000 425 
Q 1000 325 1025 262 
Q 1050 200 1075 175 
Q 1100 150 1162 137 
Q 1225 125 1300 125 
Q 1750 125 2025 625 
Q 2300 1125 2350 2300 
Q 2225 2000 1975 1800 
Q 1725 1600 1350 1600 
z
" transform="scale(0.015625)"/>
     </defs>
     <use xlink:href="#FangSong-63"/>
     <use xlink:href="#FangSong-6f" x="50"/>
     <use xlink:href="#FangSong-75" x="100"/>
     <use xlink:href="#FangSong-6e" x="150"/>
     <use xlink:href="#FangSong-74" x="200"/>
     <use xlink:href="#FangSong-3d" x="250"/>
     <use xlink:href="#FangSong-31" x="300"/>
     <use xlink:href="#FangSong-30" x="350"/>
     <use xlink:href="#FangSong-30" x="400"/>
     <use xlink:href="#FangSong-30" x="450"/>
     <use xlink:href="#FangSong-2c" x="500"/>
     <use xlink:href="#FangSong-20" x="550"/>
     <use xlink:href="#FangSong-67" x="600"/>
     <use xlink:href="#FangSong-6f" x="650"/>
     <use xlink:href="#FangSong-6f" x="700"/>
     <use xlink:href="#FangSong-67" x="750"/>
     <use xlink:href="#FangSong-6c" x="800"/>
     <use xlink:href="#FangSong-65" x="850"/>
     <use xlink:href="#FangSong-6e" x="900"/>
     <use xlink:href="#FangSong-65" x="950"/>
     <use xlink:href="#FangSong-74" x="1000"/>
     <use xlink:href="#FangSong-3d" x="1050"/>
     <use xlink:href="#FangSong-31" x="1100"/>
     <use xlink:href="#FangSong-35" x="1150"/>
     <use xlink:href="#FangSong-30" x="1200"/>
     <use xlink:href="#FangSong-2c" x="1250"/>
     <use xlink:href="#FangSong-20" x="1300"/>
     <use xlink:href="#FangSong-72" x="1350"/>
     <use xlink:href="#FangSong-65" x="1400"/>
     <use xlink:href="#FangSong-73" x="1450"/>
     <use xlink:href="#FangSong-6e" x="1500"/>
     <use xlink:href="#FangSong-65" x="1550"/>
     <use xlink:href="#FangSong-74" x="1600"/>
     <use xlink:href="#FangSong-35" x="1650"/>
     <use xlink:href="#FangSong-30" x="1700"/>
     <use xlink:href="#FangSong-3d" x="1750"/>
     <use xlink:href="#FangSong-31" x="1800"/>
     <use xlink:href="#FangSong-35" x="1850"/>
     <use xlink:href="#FangSong-30" x="1900"/>
     <use xlink:href="#FangSong-2c" x="1950"/>
     <use xlink:href="#FangSong-20" x="2000"/>
     <use xlink:href="#FangSong-73" x="2050"/>
     <use xlink:href="#FangSong-71" x="2100"/>
     <use xlink:href="#FangSong-75" x="2150"/>
     <use xlink:href="#FangSong-65" x="2200"/>
     <use xlink:href="#FangSong-65" x="2250"/>
     <use xlink:href="#FangSong-7a" x="2300"/>
     <use xlink:href="#FangSong-65" x="2350"/>
     <use xlink:href="#FangSong-6e" x="2400"/>
     <use xlink:href="#FangSong-65" x="2450"/>
     <use xlink:href="#FangSong-74" x="2500"/>
     <use xlink:href="#FangSong-76" x="2550"/>
     <use xlink:href="#FangSong-31" x="2600"/>
     <use xlink:href="#FangSong-3d" x="2650"/>
     <use xlink:href="#FangSong-31" x="2700"/>
     <use xlink:href="#FangSong-35" x="2750"/>
     <use xlink:href="#FangSong-30" x="2800"/>
     <use xlink:href="#FangSong-2c" x="2850"/>
     <use xlink:href="#FangSong-20" x="2900"/>
     <use xlink:href="#FangSong-76" x="2950"/>
     <use xlink:href="#FangSong-67" x="3000"/>
     <use xlink:href="#FangSong-67" x="3050"/>
     <use xlink:href="#FangSong-31" x="3100"/>
     <use xlink:href="#FangSong-39" x="3150"/>
     <use xlink:href="#FangSong-3d" x="3200"/>
     <use xlink:href="#FangSong-31" x="3250"/>
     <use xlink:href="#FangSong-35" x="3300"/>
     <use xlink:href="#FangSong-30" x="3350"/>
     <use xlink:href="#FangSong-2c" x="3400"/>
     <use xlink:href="#FangSong-20" x="3450"/>
     <use xlink:href="#FangSong-79" x="3500"/>
     <use xlink:href="#FangSong-6f" x="3550"/>
     <use xlink:href="#FangSong-6c" x="3600"/>
     <use xlink:href="#FangSong-6f" x="3650"/>
     <use xlink:href="#FangSong-76" x="3700"/>
     <use xlink:href="#FangSong-32" x="3750"/>
     <use xlink:href="#FangSong-3d" x="3800"/>
     <use xlink:href="#FangSong-31" x="3850"/>
     <use xlink:href="#FangSong-35" x="3900"/>
     <use xlink:href="#FangSong-30" x="3950"/>
    </g>
   </g>
   <g id="legend_1">
    <g id="patch_7">
     <path d="M 335.72 302.584 
L 407.72 302.584 
Q 409.72 302.584 409.72 300.584 
L 409.72 234.357437 
Q 409.72 232.357437 407.72 232.357437 
L 335.72 232.357437 
Q 333.72 232.357437 333.72 234.357437 
L 333.72 300.584 
Q 333.72 302.584 335.72 302.584 
z
" style="fill: #ffffff; opacity: 0.8; stroke: #cccccc; stroke-linejoin: miter"/>
    </g>
    <g id="line2d_20">
     <path d="M 337.72 239.857437 
L 347.72 239.857437 
L 357.72 239.857437 
" style="fill: none; stroke: #ff0000; stroke-linecap: square"/>
    </g>
    <g id="text_18">
     <!-- DLIR -->
     <g transform="translate(365.72 243.357437) scale(0.1 -0.1)">
      <defs>
       <path id="FangSong-44" d="M 2475 2175 
Q 2475 3250 2150 3687 
Q 1825 4125 1250 4125 
Q 1075 4125 987 4075 
Q 900 4025 900 3925 
L 900 350 
Q 900 250 975 200 
Q 1050 150 1175 150 
Q 1725 150 2100 562 
Q 2475 975 2475 2175 
z
M 500 3925 
Q 500 4025 450 4075 
Q 400 4125 275 4125 
L 125 4125 
L 125 4275 
L 1250 4275 
Q 2025 4275 2487 3775 
Q 2950 3275 2950 2225 
Q 2950 1075 2500 537 
Q 2050 0 1175 0 
L 100 0 
L 100 150 
L 275 150 
Q 400 150 450 200 
Q 500 250 500 350 
L 500 3925 
z
" transform="scale(0.015625)"/>
       <path id="FangSong-49" d="M 575 4125 
L 575 4275 
L 2575 4275 
L 2575 4125 
L 2000 4125 
Q 1900 4125 1837 4075 
Q 1775 4025 1775 3925 
L 1775 350 
Q 1775 250 1837 200 
Q 1900 150 2000 150 
L 2575 150 
L 2575 0 
L 575 0 
L 575 150 
L 1150 150 
Q 1275 150 1325 200 
Q 1375 250 1375 350 
L 1375 3925 
Q 1375 4025 1325 4075 
Q 1275 4125 1150 4125 
L 575 4125 
z
" transform="scale(0.015625)"/>
       <path id="FangSong-52" d="M 2800 3275 
Q 2800 2775 2525 2500 
Q 2250 2225 1900 2175 
L 2650 325 
Q 2700 225 2762 187 
Q 2825 150 2900 150 
L 3050 150 
L 3050 0 
L 2350 0 
L 1525 2150 
L 950 2150 
L 950 350 
Q 950 250 1012 200 
Q 1075 150 1175 150 
L 1325 150 
L 1325 0 
L 175 0 
L 175 150 
L 325 150 
Q 450 150 500 200 
Q 550 250 550 350 
L 550 3925 
Q 550 4025 500 4075 
Q 450 4125 325 4125 
L 175 4125 
L 175 4275 
L 1600 4275 
Q 2175 4275 2487 4025 
Q 2800 3775 2800 3275 
z
M 950 2300 
L 1500 2300 
Q 1875 2300 2125 2525 
Q 2375 2750 2375 3225 
Q 2375 3650 2150 3887 
Q 1925 4125 1450 4125 
L 1175 4125 
Q 1075 4125 1012 4075 
Q 950 4025 950 3925 
L 950 2300 
z
" transform="scale(0.015625)"/>
      </defs>
      <use xlink:href="#FangSong-44"/>
      <use xlink:href="#FangSong-4c" x="50"/>
      <use xlink:href="#FangSong-49" x="100"/>
      <use xlink:href="#FangSong-52" x="150"/>
     </g>
    </g>
    <g id="line2d_21">
     <path d="M 337.72 253.30275 
L 347.72 253.30275 
L 357.72 253.30275 
" style="fill: none; stroke-dasharray: 1.85,0.8; stroke-dashoffset: 0; stroke: #008000; stroke-width: 0.5"/>
    </g>
    <g id="text_19">
     <!-- BNST -->
     <g transform="translate(365.72 256.80275) scale(0.1 -0.1)">
      <defs>
       <path id="FangSong-42" d="M 75 0 
L 75 150 
L 275 150 
Q 400 150 450 200 
Q 500 250 500 350 
L 500 3925 
Q 500 4025 450 4075 
Q 400 4125 275 4125 
L 125 4125 
L 125 4275 
L 1575 4275 
Q 2175 4275 2462 4037 
Q 2750 3800 2750 3300 
Q 2750 2950 2600 2725 
Q 2450 2500 1975 2325 
Q 2550 2150 2750 1825 
Q 2950 1500 2950 1100 
Q 2950 600 2600 300 
Q 2250 0 1650 0 
L 75 0 
z
M 1575 150 
Q 2000 150 2237 412 
Q 2475 675 2475 1150 
Q 2475 1700 2225 1962 
Q 1975 2225 1475 2225 
L 900 2225 
L 900 350 
Q 900 250 962 200 
Q 1025 150 1125 150 
L 1575 150 
z
M 2325 3300 
Q 2325 3750 2075 3937 
Q 1825 4125 1425 4125 
L 1125 4125 
Q 1025 4125 962 4075 
Q 900 4025 900 3925 
L 900 2375 
L 1550 2375 
Q 1825 2375 2075 2600 
Q 2325 2825 2325 3300 
z
" transform="scale(0.015625)"/>
       <path id="FangSong-4e" d="M 2500 1000 
L 2550 1000 
L 2550 3925 
Q 2550 4025 2500 4075 
Q 2450 4125 2325 4125 
L 2125 4125 
L 2125 4275 
L 3125 4275 
L 3125 4125 
L 2925 4125 
Q 2825 4125 2762 4075 
Q 2700 4025 2700 3925 
L 2700 0 
L 2550 0 
L 650 3725 
L 600 3725 
L 600 350 
Q 600 250 662 200 
Q 725 150 825 150 
L 1025 150 
L 1025 0 
L 25 0 
L 25 150 
L 225 150 
Q 350 150 400 200 
Q 450 250 450 350 
L 450 3925 
Q 450 4025 400 4075 
Q 350 4125 225 4125 
L 75 4125 
L 75 4275 
L 800 4275 
L 2500 1000 
z
" transform="scale(0.015625)"/>
       <path id="FangSong-53" d="M 1475 2050 
Q 800 2350 550 2575 
Q 300 2800 300 3275 
Q 300 3650 612 3987 
Q 925 4325 1500 4325 
Q 1750 4325 1975 4237 
Q 2200 4150 2300 4150 
Q 2375 4150 2437 4187 
Q 2500 4225 2550 4325 
L 2650 3300 
L 2525 3250 
Q 2300 3775 2062 3962 
Q 1825 4150 1450 4150 
Q 975 4150 800 3887 
Q 625 3625 625 3325 
Q 625 3050 787 2887 
Q 950 2725 1675 2400 
Q 2275 2150 2537 1837 
Q 2800 1525 2800 1100 
Q 2800 650 2487 300 
Q 2175 -50 1575 -50 
Q 1325 -50 1112 37 
Q 900 125 775 125 
Q 700 125 625 75 
Q 550 25 450 -50 
L 250 1175 
L 400 1225 
Q 575 600 887 362 
Q 1200 125 1600 125 
Q 2025 125 2237 375 
Q 2450 625 2450 1100 
Q 2450 1350 2212 1587 
Q 1975 1825 1475 2050 
z
" transform="scale(0.015625)"/>
       <path id="FangSong-54" d="M 2200 0 
L 900 0 
L 900 150 
L 1125 150 
Q 1250 150 1300 200 
Q 1350 250 1350 350 
L 1350 3850 
Q 1350 4050 1325 4075 
Q 1300 4100 1125 4100 
Q 775 4100 637 3975 
Q 500 3850 300 3300 
L 150 3325 
L 375 4275 
L 2750 4275 
L 2950 3325 
L 2825 3300 
Q 2625 3825 2512 3962 
Q 2400 4100 2050 4100 
Q 1800 4100 1775 4075 
Q 1750 4050 1750 3825 
L 1750 350 
Q 1750 250 1812 200 
Q 1875 150 1975 150 
L 2200 150 
L 2200 0 
z
" transform="scale(0.015625)"/>
      </defs>
      <use xlink:href="#FangSong-42"/>
      <use xlink:href="#FangSong-4e" x="50"/>
      <use xlink:href="#FangSong-53" x="100"/>
      <use xlink:href="#FangSong-54" x="150"/>
     </g>
    </g>
    <g id="line2d_22">
     <path d="M 337.72 266.748062 
L 347.72 266.748062 
L 357.72 266.748062 
" style="fill: none; stroke-dasharray: 1.85,0.8; stroke-dashoffset: 0; stroke: #0000ff; stroke-width: 0.5"/>
    </g>
    <g id="text_20">
     <!-- FIFO -->
     <g transform="translate(365.72 270.248062) scale(0.1 -0.1)">
      <defs>
       <path id="FangSong-46" d="M 1325 150 
L 1325 0 
L 125 0 
L 125 150 
L 300 150 
Q 425 150 475 200 
Q 525 250 525 350 
L 525 3925 
Q 525 4025 475 4075 
Q 425 4125 300 4125 
L 150 4125 
L 150 4275 
L 2750 4275 
L 3050 3375 
L 2925 3325 
Q 2725 3725 2450 3925 
Q 2175 4125 1850 4125 
L 1150 4125 
Q 1050 4125 987 4075 
Q 925 4025 925 3925 
L 925 2325 
L 1750 2325 
Q 2000 2325 2112 2437 
Q 2225 2550 2225 2800 
L 2225 2925 
L 2375 2925 
L 2375 1475 
L 2225 1475 
L 2225 1575 
Q 2225 1875 2112 2025 
Q 2000 2175 1750 2175 
L 925 2175 
L 925 350 
Q 925 250 987 200 
Q 1050 150 1150 150 
L 1325 150 
z
" transform="scale(0.015625)"/>
       <path id="FangSong-4f" d="M 675 2150 
Q 675 1075 937 587 
Q 1200 100 1600 100 
Q 2025 100 2275 562 
Q 2525 1025 2525 2150 
Q 2525 3050 2312 3600 
Q 2100 4150 1600 4150 
Q 1175 4150 925 3650 
Q 675 3150 675 2150 
z
M 3000 2150 
Q 3000 1125 2600 537 
Q 2200 -50 1600 -50 
Q 1025 -50 612 550 
Q 200 1150 200 2150 
Q 200 3125 587 3725 
Q 975 4325 1600 4325 
Q 2250 4325 2625 3687 
Q 3000 3050 3000 2150 
z
" transform="scale(0.015625)"/>
      </defs>
      <use xlink:href="#FangSong-46"/>
      <use xlink:href="#FangSong-49" x="50"/>
      <use xlink:href="#FangSong-46" x="100"/>
      <use xlink:href="#FangSong-4f" x="150"/>
     </g>
    </g>
    <g id="line2d_23">
     <path d="M 337.72 280.193375 
L 347.72 280.193375 
L 357.72 280.193375 
" style="fill: none; stroke-dasharray: 1.85,0.8; stroke-dashoffset: 0; stroke: #bf00bf; stroke-width: 0.5"/>
    </g>
    <g id="text_21">
     <!-- OYST -->
     <g transform="translate(365.72 283.693375) scale(0.1 -0.1)">
      <defs>
       <path id="FangSong-59" d="M 2350 3825 
Q 2375 3975 2312 4050 
Q 2250 4125 2075 4125 
L 2025 4125 
L 2025 4275 
L 3000 4275 
L 3000 4125 
L 2925 4125 
Q 2800 4125 2700 4037 
Q 2600 3950 2525 3775 
L 1750 1800 
L 1750 350 
Q 1750 250 1812 200 
Q 1875 150 1975 150 
L 2200 150 
L 2200 0 
L 900 0 
L 900 150 
L 1125 150 
Q 1250 150 1300 200 
Q 1350 250 1350 350 
L 1350 1650 
L 500 3850 
Q 450 3975 375 4050 
Q 300 4125 175 4125 
L 125 4125 
L 125 4275 
L 1225 4275 
L 1225 4125 
L 1075 4125 
Q 925 4125 900 4050 
Q 875 3975 925 3825 
L 1600 1975 
L 1650 1975 
L 2350 3825 
z
" transform="scale(0.015625)"/>
      </defs>
      <use xlink:href="#FangSong-4f"/>
      <use xlink:href="#FangSong-59" x="50"/>
      <use xlink:href="#FangSong-53" x="100"/>
      <use xlink:href="#FangSong-54" x="150"/>
     </g>
    </g>
    <g id="line2d_24">
     <path d="M 337.72 293.638687 
L 347.72 293.638687 
L 357.72 293.638687 
" style="fill: none; stroke-dasharray: 1.85,0.8; stroke-dashoffset: 0; stroke: #bfbf00; stroke-width: 0.5"/>
    </g>
    <g id="text_22">
     <!-- PARALLEL -->
     <g transform="translate(365.72 297.138687) scale(0.1 -0.1)">
      <defs>
       <path id="FangSong-50" d="M 925 2000 
L 925 350 
Q 925 250 987 200 
Q 1050 150 1150 150 
L 1325 150 
L 1325 0 
L 125 0 
L 125 150 
L 300 150 
Q 425 150 475 200 
Q 525 250 525 350 
L 525 3925 
Q 525 4025 475 4075 
Q 425 4125 300 4125 
L 150 4125 
L 150 4275 
L 1625 4275 
Q 2250 4275 2587 3962 
Q 2925 3650 2925 3175 
Q 2925 2600 2562 2300 
Q 2200 2000 1700 2000 
L 925 2000 
z
M 1550 2150 
Q 1925 2150 2212 2375 
Q 2500 2600 2500 3150 
Q 2500 3650 2262 3887 
Q 2025 4125 1500 4125 
L 1150 4125 
Q 1050 4125 987 4075 
Q 925 4025 925 3925 
L 925 2150 
L 1550 2150 
z
" transform="scale(0.015625)"/>
       <path id="FangSong-41" d="M 2000 1600 
L 875 1600 
L 650 650 
Q 600 425 650 287 
Q 700 150 875 150 
L 950 150 
L 950 0 
L 25 0 
L 25 150 
L 100 150 
Q 200 150 275 212 
Q 350 275 375 425 
L 1350 4250 
L 1725 4375 
L 2675 425 
Q 2725 275 2800 212 
Q 2875 150 2975 150 
L 3050 150 
L 3050 0 
L 1975 0 
L 1975 150 
L 2075 150 
Q 2225 150 2262 237 
Q 2300 325 2250 500 
L 2000 1600 
z
M 1475 3825 
L 1450 3825 
L 925 1750 
L 1975 1750 
L 1475 3825 
z
" transform="scale(0.015625)"/>
       <path id="FangSong-45" d="M 175 4125 
L 175 4275 
L 2625 4275 
L 2900 3425 
L 2775 3375 
Q 2575 3750 2350 3937 
Q 2125 4125 1850 4125 
L 1150 4125 
Q 1050 4125 987 4075 
Q 925 4025 925 3925 
L 925 2375 
L 1650 2375 
Q 1900 2375 2012 2500 
Q 2125 2625 2125 2875 
L 2125 3025 
L 2275 3025 
L 2275 1550 
L 2125 1550 
L 2125 1650 
Q 2125 1925 2012 2075 
Q 1900 2225 1650 2225 
L 925 2225 
L 925 350 
Q 925 250 987 200 
Q 1050 150 1150 150 
L 1800 150 
Q 2175 150 2437 362 
Q 2700 575 2850 1025 
L 2975 975 
L 2700 0 
L 150 0 
L 150 150 
L 300 150 
Q 425 150 475 200 
Q 525 250 525 350 
L 525 3925 
Q 525 4025 475 4075 
Q 425 4125 300 4125 
L 175 4125 
z
" transform="scale(0.015625)"/>
      </defs>
      <use xlink:href="#FangSong-50"/>
      <use xlink:href="#FangSong-41" x="50"/>
      <use xlink:href="#FangSong-52" x="100"/>
      <use xlink:href="#FangSong-41" x="150"/>
      <use xlink:href="#FangSong-4c" x="200"/>
      <use xlink:href="#FangSong-4c" x="250"/>
      <use xlink:href="#FangSong-45" x="300"/>
      <use xlink:href="#FangSong-4c" x="350"/>
     </g>
    </g>
   </g>
  </g>
 </g>
 <defs>
  <clipPath id="p3bbd314346">
   <rect x="57.6" y="41.472" width="357.12" height="266.112"/>
  </clipPath>
 </defs>
</svg>
