<?xml version="1.0" encoding="utf-8" standalone="no"?>
<!DOCTYPE svg PUBLIC "-//W3C//DTD SVG 1.1//EN"
  "http://www.w3.org/Graphics/SVG/1.1/DTD/svg11.dtd">
<svg xmlns:xlink="http://www.w3.org/1999/xlink" width="460.8pt" height="345.6pt" viewBox="0 0 460.8 345.6" xmlns="http://www.w3.org/2000/svg" version="1.1">
 <metadata>
  <rdf:RDF xmlns:dc="http://purl.org/dc/elements/1.1/" xmlns:cc="http://creativecommons.org/ns#" xmlns:rdf="http://www.w3.org/1999/02/22-rdf-syntax-ns#">
   <cc:Work>
    <dc:type rdf:resource="http://purl.org/dc/dcmitype/StillImage"/>
    <dc:date>2023-01-19T17:24:47.730516</dc:date>
    <dc:format>image/svg+xml</dc:format>
    <dc:creator>
     <cc:Agent>
      <dc:title>Matplotlib v3.6.3, https://matplotlib.org/</dc:title>
     </cc:Agent>
    </dc:creator>
   </cc:Work>
  </rdf:RDF>
 </metadata>
 <defs>
  <style type="text/css">*{stroke-linejoin: round; stroke-linecap: butt}</style>
 </defs>
 <g id="figure_1">
  <g id="patch_1">
   <path d="M 0 345.6 
L 460.8 345.6 
L 460.8 0 
L 0 0 
z
" style="fill: #ffffff"/>
  </g>
  <g id="axes_1">
   <g id="patch_2">
    <path d="M 57.6 307.584 
L 414.72 307.584 
L 414.72 41.472 
L 57.6 41.472 
z
" style="fill: #ffffff"/>
   </g>
   <g id="matplotlib.axis_1">
    <g id="xtick_1">
     <g id="line2d_1">
      <defs>
       <path id="m1694f95b38" d="M 0 0 
L 0 3.5 
" style="stroke: #000000; stroke-width: 0.8"/>
      </defs>
      <g>
       <use xlink:href="#m1694f95b38" x="70.184923" y="307.584" style="stroke: #000000; stroke-width: 0.8"/>
      </g>
     </g>
     <g id="text_1">
      <!-- 0 -->
      <g transform="translate(67.684923 321.576187) scale(0.1 -0.1)">
       <defs>
        <path id="FangSong-30" d="M 1575 4125 
Q 1225 4125 987 3587 
Q 750 3050 750 2150 
Q 750 1200 987 675 
Q 1225 150 1575 150 
Q 1950 150 2162 675 
Q 2375 1200 2375 2150 
Q 2375 3050 2175 3587 
Q 1975 4125 1575 4125 
z
M 1575 -50 
Q 1025 -50 650 525 
Q 275 1100 275 2150 
Q 275 3125 637 3725 
Q 1000 4325 1575 4325 
Q 2125 4325 2487 3750 
Q 2850 3175 2850 2150 
Q 2850 1125 2487 537 
Q 2125 -50 1575 -50 
z
" transform="scale(0.015625)"/>
       </defs>
       <use xlink:href="#FangSong-30"/>
      </g>
     </g>
    </g>
    <g id="xtick_2">
     <g id="line2d_2">
      <g>
       <use xlink:href="#m1694f95b38" x="143.141001" y="307.584" style="stroke: #000000; stroke-width: 0.8"/>
      </g>
     </g>
     <g id="text_2">
      <!-- 20 -->
      <g transform="translate(138.141001 321.576187) scale(0.1 -0.1)">
       <defs>
        <path id="FangSong-32" d="M 2300 3225 
Q 2300 3675 2100 3912 
Q 1900 4150 1500 4150 
Q 1200 4150 987 3987 
Q 775 3825 775 3575 
Q 775 3425 862 3325 
Q 950 3225 950 3125 
Q 950 3000 887 2937 
Q 825 2875 700 2875 
Q 550 2875 462 2962 
Q 375 3050 375 3250 
Q 375 3775 750 4050 
Q 1125 4325 1550 4325 
Q 2150 4325 2437 4025 
Q 2725 3725 2725 3275 
Q 2725 2975 2587 2675 
Q 2450 2375 2150 2100 
Q 1425 1400 1037 962 
Q 650 525 575 375 
L 2050 375 
Q 2275 375 2425 550 
Q 2575 725 2625 1075 
L 2775 1075 
L 2625 0 
L 300 0 
L 300 325 
Q 425 550 712 900 
Q 1000 1250 1475 1725 
Q 1900 2150 2100 2525 
Q 2300 2900 2300 3225 
z
" transform="scale(0.015625)"/>
       </defs>
       <use xlink:href="#FangSong-32"/>
       <use xlink:href="#FangSong-30" x="50"/>
      </g>
     </g>
    </g>
    <g id="xtick_3">
     <g id="line2d_3">
      <g>
       <use xlink:href="#m1694f95b38" x="216.097079" y="307.584" style="stroke: #000000; stroke-width: 0.8"/>
      </g>
     </g>
     <g id="text_3">
      <!-- 40 -->
      <g transform="translate(211.097079 321.576187) scale(0.1 -0.1)">
       <defs>
        <path id="FangSong-34" d="M 2275 475 
Q 2275 300 2375 225 
Q 2475 150 2650 150 
L 2875 150 
L 2875 0 
L 1225 0 
L 1225 150 
L 1500 150 
Q 1700 150 1787 225 
Q 1875 300 1875 475 
L 1875 1300 
L 200 1300 
L 200 1425 
L 2025 4325 
L 2275 4325 
L 2275 1450 
L 2950 1450 
L 2950 1300 
L 2275 1300 
L 2275 475 
z
M 1850 3700 
L 425 1450 
L 1875 1450 
L 1875 3700 
L 1850 3700 
z
" transform="scale(0.015625)"/>
       </defs>
       <use xlink:href="#FangSong-34"/>
       <use xlink:href="#FangSong-30" x="50"/>
      </g>
     </g>
    </g>
    <g id="xtick_4">
     <g id="line2d_4">
      <g>
       <use xlink:href="#m1694f95b38" x="289.053156" y="307.584" style="stroke: #000000; stroke-width: 0.8"/>
      </g>
     </g>
     <g id="text_4">
      <!-- 60 -->
      <g transform="translate(284.053156 321.576187) scale(0.1 -0.1)">
       <defs>
        <path id="FangSong-36" d="M 750 1700 
Q 750 950 1012 537 
Q 1275 125 1650 125 
Q 2025 125 2225 400 
Q 2425 675 2425 1425 
Q 2425 1925 2212 2200 
Q 2000 2475 1700 2475 
Q 1425 2475 1187 2312 
Q 950 2150 750 1700 
z
M 1725 2725 
Q 2325 2725 2587 2325 
Q 2850 1925 2850 1425 
Q 2850 675 2487 312 
Q 2125 -50 1650 -50 
Q 975 -50 625 462 
Q 275 975 275 1950 
Q 275 3100 700 3712 
Q 1125 4325 1850 4325 
Q 2200 4325 2412 4125 
Q 2625 3925 2625 3775 
Q 2625 3625 2562 3550 
Q 2500 3475 2350 3475 
Q 2225 3475 2162 3537 
Q 2100 3600 2100 3725 
Q 2100 3775 2112 3825 
Q 2125 3875 2125 3925 
Q 2125 4025 2050 4087 
Q 1975 4150 1775 4150 
Q 1350 4150 1050 3762 
Q 750 3375 750 2075 
Q 900 2400 1162 2562 
Q 1425 2725 1725 2725 
z
" transform="scale(0.015625)"/>
       </defs>
       <use xlink:href="#FangSong-36"/>
       <use xlink:href="#FangSong-30" x="50"/>
      </g>
     </g>
    </g>
    <g id="xtick_5">
     <g id="line2d_5">
      <g>
       <use xlink:href="#m1694f95b38" x="362.009234" y="307.584" style="stroke: #000000; stroke-width: 0.8"/>
      </g>
     </g>
     <g id="text_5">
      <!-- 80 -->
      <g transform="translate(357.009234 321.576187) scale(0.1 -0.1)">
       <defs>
        <path id="FangSong-38" d="M 600 1025 
Q 600 625 862 375 
Q 1125 125 1525 125 
Q 2000 125 2212 375 
Q 2425 625 2425 1000 
Q 2425 1325 2125 1625 
Q 1825 1925 1225 2175 
Q 925 1975 762 1675 
Q 600 1375 600 1025 
z
M 2800 1075 
Q 2800 600 2450 275 
Q 2100 -50 1525 -50 
Q 1000 -50 625 275 
Q 250 600 250 1025 
Q 250 1450 462 1750 
Q 675 2050 1075 2275 
Q 725 2450 537 2712 
Q 350 2975 350 3300 
Q 350 3725 675 4025 
Q 1000 4325 1575 4325 
Q 2100 4325 2425 4025 
Q 2750 3725 2750 3300 
Q 2750 3000 2562 2737 
Q 2375 2475 1975 2275 
Q 2400 2025 2600 1725 
Q 2800 1425 2800 1075 
z
M 2400 3275 
Q 2400 3625 2200 3887 
Q 2000 4150 1575 4150 
Q 1100 4150 900 3900 
Q 700 3650 700 3375 
Q 700 3100 987 2837 
Q 1275 2575 1800 2375 
Q 2100 2525 2250 2750 
Q 2400 2975 2400 3275 
z
" transform="scale(0.015625)"/>
       </defs>
       <use xlink:href="#FangSong-38"/>
       <use xlink:href="#FangSong-30" x="50"/>
      </g>
     </g>
    </g>
    <g id="text_6">
     <!-- Latency -->
     <g transform="translate(218.66 333.974625) scale(0.1 -0.1)">
      <defs>
       <path id="FangSong-4c" d="M 975 350 
Q 975 250 1037 200 
Q 1100 150 1200 150 
L 1875 150 
Q 2225 150 2475 362 
Q 2725 575 2850 1025 
L 2975 975 
L 2750 0 
L 175 0 
L 175 150 
L 350 150 
Q 475 150 525 200 
Q 575 250 575 350 
L 575 3925 
Q 575 4025 525 4075 
Q 475 4125 350 4125 
L 200 4125 
L 200 4275 
L 1375 4275 
L 1375 4125 
L 1200 4125 
Q 1100 4125 1037 4075 
Q 975 4025 975 3925 
L 975 350 
z
" transform="scale(0.015625)"/>
       <path id="FangSong-61" d="M 1200 -25 
Q 750 -25 500 187 
Q 250 400 250 675 
Q 250 1125 637 1412 
Q 1025 1700 2175 1825 
L 2175 2125 
Q 2175 2375 2062 2537 
Q 1950 2700 1550 2700 
Q 1125 2700 950 2562 
Q 775 2425 825 2275 
Q 875 2175 825 2075 
Q 775 1975 625 1975 
Q 525 1975 462 2037 
Q 400 2100 400 2225 
Q 400 2450 725 2650 
Q 1050 2850 1525 2850 
Q 2025 2850 2275 2662 
Q 2525 2475 2525 2125 
L 2525 475 
Q 2525 275 2562 237 
Q 2600 200 2700 200 
Q 2825 200 2875 312 
Q 2925 425 2925 625 
L 3050 625 
Q 3050 275 2925 137 
Q 2800 0 2600 0 
Q 2425 0 2325 75 
Q 2225 150 2175 325 
Q 1925 150 1712 62 
Q 1500 -25 1200 -25 
z
M 675 750 
Q 675 525 812 337 
Q 950 150 1250 150 
Q 1475 150 1700 237 
Q 1925 325 2175 500 
L 2175 1675 
Q 1325 1575 1000 1337 
Q 675 1100 675 750 
z
" transform="scale(0.015625)"/>
       <path id="FangSong-74" d="M 1475 800 
Q 1475 450 1600 325 
Q 1725 200 1975 200 
Q 2225 200 2375 362 
Q 2525 525 2575 825 
L 2700 775 
Q 2650 425 2437 200 
Q 2225 -25 1875 -25 
Q 1500 -25 1312 200 
Q 1125 425 1125 900 
L 1125 2650 
L 375 2650 
L 375 2800 
L 575 2800 
Q 875 2800 1062 2987 
Q 1250 3175 1300 3575 
L 1325 3775 
L 1475 3775 
L 1475 2800 
L 2475 2800 
L 2475 2650 
L 1475 2650 
L 1475 800 
z
" transform="scale(0.015625)"/>
       <path id="FangSong-65" d="M 2375 1550 
Q 2400 2100 2187 2387 
Q 1975 2675 1625 2675 
Q 1250 2675 1012 2375 
Q 775 2075 775 1550 
L 2375 1550 
z
M 775 1400 
Q 775 725 1037 437 
Q 1300 150 1725 150 
Q 2050 150 2275 337 
Q 2500 525 2600 800 
L 2725 750 
Q 2650 475 2387 212 
Q 2125 -50 1675 -50 
Q 1100 -50 737 325 
Q 375 700 375 1400 
Q 375 2025 737 2437 
Q 1100 2850 1625 2850 
Q 2100 2850 2450 2525 
Q 2800 2200 2800 1400 
L 775 1400 
z
" transform="scale(0.015625)"/>
       <path id="FangSong-6e" d="M 175 0 
L 175 150 
L 300 150 
Q 425 150 475 200 
Q 525 250 525 350 
L 525 2500 
Q 525 2575 500 2612 
Q 475 2650 400 2650 
L 200 2650 
L 200 2800 
L 375 2800 
Q 500 2800 612 2825 
Q 725 2850 825 2925 
L 875 2925 
L 875 2350 
Q 1100 2600 1325 2725 
Q 1550 2850 1800 2850 
Q 2225 2850 2425 2625 
Q 2625 2400 2625 1950 
L 2625 350 
Q 2625 250 2687 200 
Q 2750 150 2850 150 
L 2975 150 
L 2975 0 
L 1925 0 
L 1925 150 
L 2050 150 
Q 2175 150 2225 200 
Q 2275 250 2275 350 
L 2275 2025 
Q 2275 2325 2150 2487 
Q 2025 2650 1775 2650 
Q 1550 2650 1312 2500 
Q 1075 2350 875 2075 
L 875 350 
Q 875 250 937 200 
Q 1000 150 1100 150 
L 1225 150 
L 1225 0 
L 175 0 
z
" transform="scale(0.015625)"/>
       <path id="FangSong-63" d="M 2125 2125 
Q 2125 2200 2137 2225 
Q 2150 2250 2175 2325 
Q 2200 2425 2075 2562 
Q 1950 2700 1650 2700 
Q 1275 2700 1012 2337 
Q 750 1975 750 1375 
Q 750 825 975 487 
Q 1200 150 1725 150 
Q 2075 150 2312 375 
Q 2550 600 2650 900 
L 2775 850 
Q 2675 475 2400 212 
Q 2125 -50 1650 -50 
Q 1050 -50 700 325 
Q 350 700 350 1400 
Q 350 2025 725 2437 
Q 1100 2850 1700 2850 
Q 2125 2850 2362 2625 
Q 2600 2400 2600 2175 
Q 2600 2025 2537 1962 
Q 2475 1900 2350 1900 
Q 2250 1900 2187 1962 
Q 2125 2025 2125 2125 
z
" transform="scale(0.015625)"/>
       <path id="FangSong-79" d="M 1625 700 
L 1675 700 
L 2225 2375 
Q 2275 2500 2212 2575 
Q 2150 2650 2050 2650 
L 1900 2650 
L 1900 2800 
L 2950 2800 
L 2950 2650 
L 2800 2650 
Q 2700 2650 2600 2575 
Q 2500 2500 2450 2375 
L 1600 -100 
Q 1475 -500 1287 -712 
Q 1100 -925 800 -950 
Q 650 -950 537 -875 
Q 425 -800 425 -675 
Q 425 -575 487 -500 
Q 550 -425 675 -425 
Q 775 -425 837 -525 
Q 900 -625 1050 -587 
Q 1200 -550 1250 -425 
Q 1300 -350 1375 -162 
Q 1450 25 1500 225 
L 650 2425 
Q 625 2525 537 2587 
Q 450 2650 350 2650 
L 250 2650 
L 250 2800 
L 1300 2800 
L 1300 2650 
L 1200 2650 
Q 1100 2650 1050 2587 
Q 1000 2525 1025 2400 
L 1625 700 
z
" transform="scale(0.015625)"/>
      </defs>
      <use xlink:href="#FangSong-4c"/>
      <use xlink:href="#FangSong-61" x="50"/>
      <use xlink:href="#FangSong-74" x="100"/>
      <use xlink:href="#FangSong-65" x="150"/>
      <use xlink:href="#FangSong-6e" x="200"/>
      <use xlink:href="#FangSong-63" x="250"/>
      <use xlink:href="#FangSong-79" x="300"/>
     </g>
    </g>
   </g>
   <g id="matplotlib.axis_2">
    <g id="ytick_1">
     <g id="line2d_6">
      <defs>
       <path id="m91c58beb9d" d="M 0 0 
L -3.5 0 
" style="stroke: #000000; stroke-width: 0.8"/>
      </defs>
      <g>
       <use xlink:href="#m91c58beb9d" x="57.6" y="295.488" style="stroke: #000000; stroke-width: 0.8"/>
      </g>
     </g>
     <g id="text_7">
      <!-- 0% -->
      <g transform="translate(40.6 298.984094) scale(0.1 -0.1)">
       <defs>
        <path id="FangSong-25" d="M 725 4150 
Q 575 4150 475 3950 
Q 375 3750 375 3200 
Q 375 2575 487 2387 
Q 600 2200 725 2200 
Q 900 2200 987 2425 
Q 1075 2650 1075 3200 
Q 1075 3650 1012 3900 
Q 950 4150 725 4150 
z
M 1400 3175 
Q 1400 2725 1250 2387 
Q 1100 2050 725 2050 
Q 425 2050 237 2350 
Q 50 2650 50 3175 
Q 50 3725 250 4025 
Q 450 4325 725 4325 
Q 1025 4325 1212 4012 
Q 1400 3700 1400 3175 
z
M 2700 1100 
Q 2700 1525 2625 1800 
Q 2550 2075 2350 2075 
Q 2200 2075 2100 1837 
Q 2000 1600 2000 1100 
Q 2000 475 2112 300 
Q 2225 125 2350 125 
Q 2525 125 2612 337 
Q 2700 550 2700 1100 
z
M 3025 1075 
Q 3025 575 2850 262 
Q 2675 -50 2350 -50 
Q 2075 -50 1875 262 
Q 1675 575 1675 1075 
Q 1675 1625 1875 1937 
Q 2075 2250 2350 2250 
Q 2650 2250 2837 1925 
Q 3025 1600 3025 1075 
z
M 2500 4250 
L 700 -50 
L 550 25 
L 2325 4325 
L 2500 4250 
z
" transform="scale(0.015625)"/>
       </defs>
       <use xlink:href="#FangSong-30"/>
       <use xlink:href="#FangSong-25" x="50"/>
      </g>
     </g>
    </g>
    <g id="ytick_2">
     <g id="line2d_7">
      <g>
       <use xlink:href="#m91c58beb9d" x="57.6" y="247.104" style="stroke: #000000; stroke-width: 0.8"/>
      </g>
     </g>
     <g id="text_8">
      <!-- 20% -->
      <g transform="translate(35.6 250.600094) scale(0.1 -0.1)">
       <use xlink:href="#FangSong-32"/>
       <use xlink:href="#FangSong-30" x="50"/>
       <use xlink:href="#FangSong-25" x="100"/>
      </g>
     </g>
    </g>
    <g id="ytick_3">
     <g id="line2d_8">
      <g>
       <use xlink:href="#m91c58beb9d" x="57.6" y="198.72" style="stroke: #000000; stroke-width: 0.8"/>
      </g>
     </g>
     <g id="text_9">
      <!-- 40% -->
      <g transform="translate(35.6 202.216094) scale(0.1 -0.1)">
       <use xlink:href="#FangSong-34"/>
       <use xlink:href="#FangSong-30" x="50"/>
       <use xlink:href="#FangSong-25" x="100"/>
      </g>
     </g>
    </g>
    <g id="ytick_4">
     <g id="line2d_9">
      <g>
       <use xlink:href="#m91c58beb9d" x="57.6" y="150.336" style="stroke: #000000; stroke-width: 0.8"/>
      </g>
     </g>
     <g id="text_10">
      <!-- 60% -->
      <g transform="translate(35.6 153.832094) scale(0.1 -0.1)">
       <use xlink:href="#FangSong-36"/>
       <use xlink:href="#FangSong-30" x="50"/>
       <use xlink:href="#FangSong-25" x="100"/>
      </g>
     </g>
    </g>
    <g id="ytick_5">
     <g id="line2d_10">
      <g>
       <use xlink:href="#m91c58beb9d" x="57.6" y="101.952" style="stroke: #000000; stroke-width: 0.8"/>
      </g>
     </g>
     <g id="text_11">
      <!-- 80% -->
      <g transform="translate(35.6 105.448094) scale(0.1 -0.1)">
       <use xlink:href="#FangSong-38"/>
       <use xlink:href="#FangSong-30" x="50"/>
       <use xlink:href="#FangSong-25" x="100"/>
      </g>
     </g>
    </g>
    <g id="ytick_6">
     <g id="line2d_11">
      <g>
       <use xlink:href="#m91c58beb9d" x="57.6" y="53.568" style="stroke: #000000; stroke-width: 0.8"/>
      </g>
     </g>
     <g id="text_12">
      <!-- 100% -->
      <g transform="translate(30.6 57.064094) scale(0.1 -0.1)">
       <defs>
        <path id="FangSong-31" d="M 1800 4350 
L 1800 550 
Q 1800 350 1925 250 
Q 2050 150 2275 150 
L 2525 150 
L 2525 0 
L 700 0 
L 700 150 
L 925 150 
Q 1175 150 1287 250 
Q 1400 350 1400 550 
L 1400 3575 
Q 1400 3675 1337 3737 
Q 1275 3800 1150 3800 
L 700 3800 
L 700 3950 
L 925 3950 
Q 1225 3950 1412 4050 
Q 1600 4150 1700 4350 
L 1800 4350 
z
" transform="scale(0.015625)"/>
       </defs>
       <use xlink:href="#FangSong-31"/>
       <use xlink:href="#FangSong-30" x="50"/>
       <use xlink:href="#FangSong-30" x="100"/>
       <use xlink:href="#FangSong-25" x="150"/>
      </g>
     </g>
    </g>
    <g id="text_13">
     <!-- 累计完成比例 -->
     <g transform="translate(25.154688 204.528) rotate(-90) scale(0.1 -0.1)">
      <defs>
       <path id="FangSong-7d2f" d="M 4525 4975 
L 4700 5225 
L 5000 4950 
L 4825 4775 
L 4625 3550 
L 4850 3300 
L 3175 3150 
L 3375 2975 
Q 3200 2925 2862 2725 
Q 2525 2525 2075 2275 
L 3475 2500 
Q 3750 2675 3900 2800 
Q 4050 2925 4100 3075 
L 4175 3100 
L 4325 2700 
Q 4200 2675 3500 2237 
Q 2800 1800 2275 1550 
L 4375 1825 
L 3900 2175 
L 4000 2275 
Q 4625 1900 4950 1725 
Q 4975 1475 4925 1225 
Q 4800 1375 4500 1675 
L 3250 1475 
L 3525 1300 
Q 3375 1200 3375 875 
L 3375 25 
Q 3375 -325 3225 -625 
Q 2975 -325 2400 150 
L 2450 250 
L 3050 -75 
Q 3150 -125 3150 0 
L 3150 925 
Q 3150 1300 3125 1450 
Q 1875 1275 1575 1175 
L 1325 1425 
L 1850 1550 
Q 2175 1700 3250 2300 
Q 2075 2100 1875 2000 
L 1575 2250 
L 1800 2300 
Q 2150 2475 3025 3125 
L 2000 3025 
Q 2000 2675 1950 2700 
Q 1900 2725 1650 3025 
Q 1725 3250 1725 3425 
L 1650 4400 
Q 1625 4675 1525 4950 
L 1625 5000 
L 1875 4675 
L 4525 4975 
z
M 3150 3375 
L 3150 3875 
Q 2525 3800 2400 3725 
L 2100 3975 
Q 2500 3975 3150 4075 
L 3150 4600 
L 1900 4450 
L 1975 3250 
L 3150 3375 
z
M 3375 4100 
Q 3950 4175 4025 4225 
L 4275 4000 
Q 3950 3975 3375 3900 
L 3375 3400 
L 4400 3500 
L 4575 4750 
L 3375 4600 
L 3375 4100 
z
M 5450 -75 
Q 4975 325 3875 1025 
L 3950 1125 
Q 4850 700 5350 500 
Q 5425 250 5450 -75 
z
M 800 -250 
Q 1350 75 1825 500 
Q 2300 925 2325 1125 
L 2400 1150 
L 2550 725 
Q 2425 700 2075 425 
Q 1725 150 875 -350 
L 800 -250 
z
" transform="scale(0.015625)"/>
       <path id="FangSong-8ba1" d="M 4075 4200 
Q 4100 4825 3900 5100 
L 3975 5150 
L 4450 4725 
Q 4275 4600 4300 4200 
L 4275 3000 
Q 5525 3200 5575 3250 
L 5950 2950 
Q 5725 2975 4275 2800 
L 4250 -425 
Q 4250 -700 4150 -575 
L 3875 -150 
Q 4050 50 4025 300 
L 4050 2750 
Q 2975 2625 2900 2575 
L 2525 2825 
Q 2850 2825 4050 2975 
L 4075 4200 
z
M 1775 3250 
L 2100 2950 
L 1900 2750 
L 1875 550 
L 2825 1250 
L 2875 1175 
Q 1875 250 1750 -25 
L 1525 275 
Q 1625 375 1650 625 
L 1675 2775 
Q 900 2625 750 2550 
L 425 2800 
Q 850 2825 1650 3000 
L 1775 3250 
z
M 2025 3800 
Q 1825 4300 1325 4950 
L 1375 5025 
Q 1925 4575 2175 4300 
Q 2125 4000 2025 3800 
z
" transform="scale(0.015625)"/>
       <path id="FangSong-5b8c" d="M 5375 2050 
Q 4925 2050 3550 1950 
L 3850 1750 
Q 3725 1600 3700 1375 
L 3675 275 
Q 3650 -125 4075 -175 
L 4925 -175 
Q 5300 -150 5312 62 
Q 5325 275 5325 1025 
L 5425 1025 
Q 5450 750 5475 337 
Q 5500 -75 5700 -275 
Q 5400 -375 5000 -400 
L 4075 -400 
Q 3425 -350 3425 150 
L 3475 1450 
Q 3475 1775 3425 1925 
L 2675 1850 
L 2875 1650 
Q 2750 1550 2600 1200 
Q 2450 850 2025 312 
Q 1600 -225 600 -675 
L 550 -575 
Q 1525 -100 1987 625 
Q 2450 1350 2525 1850 
Q 1550 1775 1500 1725 
L 1150 2025 
Q 1625 2025 3212 2150 
Q 4800 2275 5000 2350 
L 5375 2050 
z
M 1650 3650 
Q 1550 3125 1325 2875 
L 1150 3250 
Q 1450 3425 1575 4400 
L 1675 4400 
L 1675 3900 
L 5025 4150 
L 5175 4400 
L 5525 4075 
Q 5375 4050 4725 3250 
L 4650 3325 
L 4975 3900 
L 1650 3650 
z
M 4475 2975 
Q 4225 2975 3412 2875 
Q 2600 2775 2400 2725 
L 2050 2975 
Q 2575 2975 3200 3075 
Q 3825 3175 4150 3225 
L 4475 2975 
z
M 3550 4575 
Q 3475 4350 3300 4150 
Q 3225 4475 2900 5200 
L 2975 5250 
Q 3350 4825 3550 4575 
z
" transform="scale(0.015625)"/>
       <path id="FangSong-6210" d="M 5575 975 
Q 5600 -150 5750 -625 
Q 4650 -225 4000 1075 
Q 3625 650 2975 225 
L 2925 325 
Q 3525 825 3900 1300 
Q 3600 2275 3500 3300 
L 1875 3125 
Q 1875 2625 1825 2100 
L 2725 2250 
L 2875 2475 
L 3175 2225 
L 3000 2050 
Q 2850 475 2575 -125 
Q 2225 400 1825 775 
L 1875 850 
L 2475 400 
Q 2650 875 2750 2000 
L 1825 1850 
Q 1675 250 600 -650 
L 525 -600 
Q 1250 250 1425 987 
Q 1600 1725 1625 2612 
Q 1650 3500 1550 3800 
L 1625 3825 
L 1850 3350 
L 3450 3525 
Q 3400 4150 3375 4562 
Q 3350 4975 3225 5200 
L 3275 5225 
L 3725 4900 
Q 3625 4925 3637 4575 
Q 3650 4225 3675 3550 
Q 4900 3700 5050 3775 
L 5325 3475 
Q 4775 3475 3725 3325 
Q 3775 2425 4075 1525 
Q 4500 2025 4687 2325 
Q 4875 2625 4800 2850 
L 4875 2875 
L 5125 2325 
Q 5075 2400 4850 2125 
Q 4625 1850 4150 1275 
Q 4625 225 5425 -125 
L 5475 975 
L 5575 975 
z
M 4100 5000 
Q 4525 4700 4875 4450 
Q 4825 4250 4750 4025 
Q 4400 4525 4025 4950 
L 4100 5000 
z
" transform="scale(0.015625)"/>
       <path id="FangSong-6bd4" d="M 3500 2125 
Q 3925 2425 4487 2975 
Q 5050 3525 4950 3750 
L 5025 3775 
L 5250 3225 
Q 5175 3250 4875 3000 
Q 4575 2750 4287 2525 
Q 4000 2300 3500 1900 
L 3500 575 
Q 3475 -100 4150 -100 
L 4800 -100 
Q 5275 -100 5375 12 
Q 5475 125 5450 1350 
L 5575 1350 
Q 5600 825 5637 412 
Q 5675 0 5800 -175 
Q 5375 -325 4800 -325 
L 4150 -325 
Q 3225 -350 3275 550 
L 3275 4300 
Q 3275 4875 3150 5150 
L 3200 5200 
L 3625 4850 
Q 3475 4825 3500 4250 
L 3500 2125 
z
M 1500 2575 
Q 1900 2625 2337 2712 
Q 2775 2800 2800 2850 
L 3075 2600 
Q 2875 2575 2350 2475 
Q 1825 2375 1775 2325 
L 1500 2525 
L 1500 150 
L 2925 1075 
L 2975 1025 
Q 1550 -75 1375 -350 
L 1200 0 
Q 1275 75 1275 350 
L 1275 3925 
Q 1275 4475 1150 4750 
L 1200 4800 
L 1625 4400 
Q 1475 4375 1500 3925 
L 1500 2575 
z
" transform="scale(0.015625)"/>
       <path id="FangSong-4f8b" d="M 3050 2000 
Q 3025 1800 2975 1600 
Q 2775 1900 2525 2250 
Q 2300 1875 2025 1550 
L 1925 1625 
Q 2675 2725 2975 3975 
Q 2475 3925 2375 3875 
L 2050 4125 
Q 2375 4125 3162 4225 
Q 3950 4325 4100 4450 
L 4350 4125 
Q 4050 4150 3100 3975 
L 3300 3700 
Q 3200 3675 3125 3525 
Q 3050 3375 2925 3050 
L 3625 3150 
L 3775 3350 
L 4050 3075 
L 3875 2900 
Q 3300 825 1850 -225 
L 1800 -100 
Q 3100 975 3625 2900 
Q 3150 2825 3025 2775 
L 2875 2925 
Q 2775 2675 2575 2350 
Q 2900 2125 3050 2000 
z
M 1275 -150 
Q 1425 25 1400 225 
L 1450 3425 
Q 1025 2800 475 2225 
L 400 2325 
Q 875 2850 1450 3887 
Q 2025 4925 1925 5150 
L 2000 5175 
L 2250 4700 
Q 2200 4725 2062 4475 
Q 1925 4225 1675 3800 
L 1625 -325 
Q 1650 -675 1525 -600 
L 1275 -150 
z
M 5475 250 
Q 5475 -300 5300 -650 
Q 4900 -100 4300 375 
L 4350 475 
L 5200 -75 
Q 5250 250 5250 575 
L 5250 4350 
Q 5275 4950 5100 5150 
L 5175 5225 
L 5600 4850 
Q 5450 4775 5475 4325 
L 5475 250 
z
M 4300 1525 
Q 4400 1650 4400 1900 
L 4400 3075 
Q 4425 3525 4300 3750 
L 4350 3800 
L 4725 3450 
Q 4600 3350 4625 3025 
L 4625 1375 
Q 4625 1050 4550 1125 
L 4300 1525 
z
" transform="scale(0.015625)"/>
      </defs>
      <use xlink:href="#FangSong-7d2f"/>
      <use xlink:href="#FangSong-8ba1" x="100"/>
      <use xlink:href="#FangSong-5b8c" x="200"/>
      <use xlink:href="#FangSong-6210" x="300"/>
      <use xlink:href="#FangSong-6bd4" x="400"/>
      <use xlink:href="#FangSong-4f8b" x="500"/>
     </g>
    </g>
   </g>
   <g id="line2d_12">
    <path d="M 73.832727 295.488 
L 74.197508 215.89632 
L 74.562288 215.17056 
L 76.02141 215.17056 
L 76.38619 214.92864 
L 76.75097 214.20288 
L 77.115751 214.20288 
L 77.480531 213.96096 
L 77.845312 213.96096 
L 78.210092 213.71904 
L 78.574872 213.2352 
L 78.939653 213.2352 
L 79.304433 212.99328 
L 79.669213 212.99328 
L 80.033994 212.75136 
L 80.763555 212.75136 
L 81.128335 212.50944 
L 81.493115 212.50944 
L 82.222676 211.54176 
L 82.587457 211.29984 
L 82.952237 209.84832 
L 83.317017 209.36448 
L 83.681798 208.3968 
L 84.411359 207.91296 
L 85.5057 206.46144 
L 85.87048 205.25184 
L 86.23526 204.52608 
L 86.964821 202.3488 
L 87.329602 201.38112 
L 87.694382 199.44576 
L 88.423943 198.47808 
L 88.788723 197.5104 
L 90.247845 195.57504 
L 90.612625 194.60736 
L 90.977406 194.36544 
L 91.342186 193.63968 
L 91.706966 192.43008 
L 92.071747 191.94624 
L 92.436527 191.22048 
L 92.801307 190.97856 
L 93.166088 190.2528 
L 93.530868 188.80128 
L 93.895649 188.31744 
L 94.260429 187.59168 
L 94.625209 186.14016 
L 96.449111 182.26944 
L 96.813892 181.30176 
L 97.178672 179.60832 
L 97.543453 178.88256 
L 98.637794 175.01184 
L 99.367354 170.65728 
L 99.732135 167.75424 
L 100.096915 166.78656 
L 101.191256 161.2224 
L 101.556037 158.8032 
L 101.920817 158.31936 
L 102.650378 156.86784 
L 103.015158 155.1744 
L 103.379939 154.44864 
L 104.109499 151.78752 
L 104.83906 151.30368 
L 105.933401 148.88448 
L 107.027743 142.35264 
L 107.757303 140.41728 
L 108.122084 138.96576 
L 108.851645 137.27232 
L 109.216425 136.78848 
L 109.581205 136.78848 
L 110.310766 134.6112 
L 111.040327 133.4016 
L 111.769888 132.43392 
L 112.134668 131.22432 
L 112.499448 130.49856 
L 112.864229 130.25664 
L 113.229009 129.28896 
L 113.59379 129.28896 
L 113.95857 129.04704 
L 114.32335 129.04704 
L 114.688131 128.80512 
L 115.417692 126.62784 
L 115.782472 126.144 
L 116.147252 125.41824 
L 116.512033 125.17632 
L 116.876813 125.17632 
L 117.606374 124.20864 
L 117.971154 122.99904 
L 118.335935 122.99904 
L 118.700715 122.5152 
L 119.065495 122.5152 
L 119.430276 122.27328 
L 119.795056 121.54752 
L 120.159837 121.3056 
L 121.254178 119.37024 
L 121.983739 118.8864 
L 122.348519 117.43488 
L 122.713299 117.19296 
L 123.07808 116.70912 
L 123.44286 115.49952 
L 124.172421 114.28992 
L 124.901982 113.32224 
L 125.266762 113.32224 
L 125.631542 112.8384 
L 125.996323 111.38688 
L 126.361103 110.90304 
L 126.725884 109.45152 
L 127.090664 108.72576 
L 127.455444 107.03232 
L 127.820225 107.03232 
L 129.644127 103.64544 
L 130.008907 103.40352 
L 130.373687 102.43584 
L 130.738468 102.43584 
L 131.468029 100.98432 
L 131.832809 100.7424 
L 132.197589 100.25856 
L 132.56237 100.01664 
L 132.92715 100.01664 
L 133.656711 97.83936 
L 134.021491 97.59744 
L 135.480613 93.72672 
L 135.845393 93.4848 
L 136.210174 92.03328 
L 136.574954 92.03328 
L 136.939734 91.79136 
L 138.034076 90.33984 
L 138.398856 90.33984 
L 139.128417 89.37216 
L 139.493197 89.37216 
L 139.857978 88.88832 
L 140.222758 88.6464 
L 140.587538 88.6464 
L 141.317099 88.16256 
L 141.681879 88.16256 
L 142.41144 87.67872 
L 142.776221 87.67872 
L 143.505781 86.46912 
L 143.870562 86.2272 
L 144.964903 86.2272 
L 145.694464 85.74336 
L 146.059244 85.74336 
L 146.424025 85.25952 
L 146.788805 85.25952 
L 147.153585 84.77568 
L 148.247926 84.77568 
L 148.612707 84.53376 
L 149.342268 84.53376 
L 149.707048 84.04992 
L 150.071828 83.808 
L 151.16617 83.808 
L 151.89573 83.32416 
L 152.260511 83.32416 
L 153.719632 82.35648 
L 154.084413 81.63072 
L 154.813973 81.63072 
L 155.178754 81.3888 
L 155.543534 81.3888 
L 155.908315 80.90496 
L 156.637875 80.90496 
L 157.002656 80.42112 
L 157.732217 79.93728 
L 158.096997 79.93728 
L 158.461777 79.69536 
L 158.826558 79.69536 
L 159.191338 79.45344 
L 159.556118 78.9696 
L 160.65046 78.24384 
L 161.38002 78.24384 
L 161.744801 77.76 
L 162.109581 77.76 
L 162.474362 77.51808 
L 162.839142 77.51808 
L 163.203922 76.79232 
L 163.568703 76.79232 
L 163.933483 76.5504 
L 164.663044 76.5504 
L 165.027824 76.30848 
L 165.392605 75.82464 
L 165.757385 74.37312 
L 166.122165 74.1312 
L 166.851726 74.1312 
L 167.216507 73.88928 
L 167.581287 73.40544 
L 168.310848 72.9216 
L 168.675628 72.19584 
L 169.769969 72.19584 
L 170.13475 71.712 
L 170.864311 71.712 
L 171.229091 71.47008 
L 173.417773 71.47008 
L 173.782554 70.98624 
L 174.876895 70.98624 
L 175.606456 70.5024 
L 177.795138 70.5024 
L 178.159918 70.26048 
L 178.524699 70.26048 
L 178.889479 70.01856 
L 185.090746 70.01856 
L 185.455526 69.77664 
L 185.820306 69.2928 
L 186.549867 69.2928 
L 186.914648 69.05088 
L 187.279428 69.05088 
L 188.008989 68.56704 
L 188.373769 68.0832 
L 188.73855 68.0832 
L 189.10333 67.84128 
L 189.832891 66.63168 
L 190.197671 66.63168 
L 190.562451 66.14784 
L 190.927232 66.14784 
L 191.292012 65.90592 
L 192.751134 65.90592 
L 193.115914 65.664 
L 194.575036 65.664 
L 195.304597 65.18016 
L 195.669377 65.18016 
L 196.034157 64.93824 
L 197.128498 64.93824 
L 197.493279 64.69632 
L 198.22284 64.69632 
L 198.58762 64.4544 
L 199.317181 64.4544 
L 199.681961 63.97056 
L 200.776302 63.97056 
L 201.141083 63.72864 
L 202.235424 63.72864 
L 202.600204 63.48672 
L 203.329765 63.48672 
L 203.694545 63.2448 
L 204.788887 63.2448 
L 205.153667 63.00288 
L 210.990153 63.00288 
L 211.719714 62.51904 
L 212.449275 62.51904 
L 212.814055 62.27712 
L 213.178836 62.27712 
L 213.908396 61.79328 
L 214.273177 61.79328 
L 214.637957 61.55136 
L 215.732298 61.55136 
L 216.461859 61.06752 
L 216.826639 61.06752 
L 217.19142 60.58368 
L 217.920981 60.58368 
L 218.285761 60.34176 
L 219.744883 60.34176 
L 220.109663 60.09984 
L 221.204004 60.09984 
L 221.568784 59.85792 
L 221.933565 59.85792 
L 222.298345 59.37408 
L 222.663126 59.37408 
L 223.027906 58.89024 
L 223.757467 58.4064 
L 225.216588 58.4064 
L 225.946149 57.1968 
L 226.67571 56.71296 
L 227.405271 56.71296 
L 227.770051 56.47104 
L 244.185169 56.47104 
L 244.549949 56.22912 
L 246.00907 56.22912 
L 246.373851 55.9872 
L 250.386435 55.9872 
L 250.751216 55.74528 
L 252.575117 55.74528 
L 252.939898 55.50336 
L 253.669459 55.50336 
L 254.034239 55.26144 
L 254.399019 54.7776 
L 254.7638 54.53568 
L 256.222921 54.53568 
L 256.587702 54.29376 
L 258.776384 54.29376 
L 259.505945 53.80992 
L 398.122492 53.80992 
L 398.487273 53.568 
L 398.487273 53.568 
" clip-path="url(#p0ef5577242)" style="fill: none; stroke: #ff0000; stroke-linecap: square"/>
   </g>
   <g id="line2d_13">
    <path d="M 73.832727 295.488 
L 74.197508 163.39968 
L 74.562288 163.39968 
L 74.927068 163.15776 
L 75.291849 162.67392 
L 77.115751 162.67392 
L 78.210092 161.94816 
L 78.574872 161.2224 
L 79.669213 160.49664 
L 80.763555 159.04512 
L 81.493115 157.5936 
L 82.222676 157.10976 
L 82.587457 156.62592 
L 82.952237 155.65824 
L 83.317017 155.41632 
L 83.681798 155.41632 
L 84.046578 154.93248 
L 84.411359 154.20672 
L 84.776139 154.20672 
L 85.5057 152.99712 
L 85.87048 152.7552 
L 86.23526 151.78752 
L 86.600041 151.5456 
L 88.059162 148.88448 
L 88.788723 146.22336 
L 89.153504 145.73952 
L 89.518284 145.01376 
L 89.883064 145.01376 
L 90.247845 144.52992 
L 90.612625 143.80416 
L 90.977406 142.59456 
L 91.342186 142.35264 
L 91.706966 141.8688 
L 92.436527 141.38496 
L 93.166088 139.4496 
L 93.530868 137.99808 
L 94.625209 135.8208 
L 94.98999 134.36928 
L 95.35477 134.12736 
L 96.084331 134.12736 
L 97.178672 131.95008 
L 97.543453 131.95008 
L 97.908233 131.46624 
L 98.273013 131.46624 
L 98.637794 130.25664 
L 99.002574 130.01472 
L 99.367354 130.01472 
L 99.732135 128.80512 
L 100.096915 128.07936 
L 100.461696 127.83744 
L 101.191256 126.144 
L 101.556037 125.90208 
L 102.285598 125.90208 
L 102.650378 125.41824 
L 103.015158 125.41824 
L 103.744719 124.9344 
L 104.109499 124.45056 
L 104.47428 124.45056 
L 104.83906 123.96672 
L 105.568621 123.96672 
L 105.933401 123.7248 
L 106.298182 122.99904 
L 106.662962 122.75712 
L 107.392523 121.78944 
L 107.757303 121.06368 
L 108.122084 119.85408 
L 108.486864 119.85408 
L 108.851645 118.8864 
L 109.945986 117.43488 
L 111.040327 116.70912 
L 111.405107 116.22528 
L 112.134668 115.74144 
L 112.499448 115.74144 
L 112.864229 115.2576 
L 113.229009 115.2576 
L 113.59379 115.01568 
L 113.95857 115.01568 
L 114.32335 114.53184 
L 115.052911 114.53184 
L 115.417692 114.048 
L 116.512033 114.048 
L 116.876813 113.80608 
L 117.241593 113.32224 
L 117.606374 113.32224 
L 118.335935 112.35456 
L 118.700715 111.6288 
L 119.065495 111.6288 
L 119.430276 111.14496 
L 120.159837 111.14496 
L 120.524617 110.90304 
L 120.889397 110.17728 
L 121.618958 110.17728 
L 121.983739 109.93536 
L 122.348519 109.45152 
L 122.713299 109.2096 
L 123.07808 107.75808 
L 123.44286 107.51616 
L 123.80764 106.7904 
L 124.172421 106.54848 
L 124.901982 105.5808 
L 125.631542 104.3712 
L 125.996323 104.12928 
L 126.361103 104.12928 
L 126.725884 103.88736 
L 127.820225 103.88736 
L 128.185005 103.40352 
L 128.549785 103.40352 
L 129.279346 102.91968 
L 129.644127 102.43584 
L 130.008907 102.19392 
L 130.373687 101.46816 
L 131.103248 101.46816 
L 131.468029 100.98432 
L 132.56237 100.25856 
L 133.291931 99.04896 
L 135.480613 97.59744 
L 135.845393 97.59744 
L 136.210174 96.87168 
L 136.939734 96.38784 
L 137.304515 95.66208 
L 137.669295 95.42016 
L 138.398856 93.96864 
L 138.763636 93.96864 
L 139.128417 93.4848 
L 139.493197 93.24288 
L 140.222758 91.79136 
L 140.587538 91.54944 
L 140.952319 90.82368 
L 141.317099 90.82368 
L 142.41144 90.09792 
L 142.776221 89.61408 
L 143.141001 89.37216 
L 143.505781 88.88832 
L 143.870562 88.16256 
L 144.235342 87.92064 
L 144.964903 87.92064 
L 145.329683 87.4368 
L 146.424025 87.4368 
L 147.518366 86.71104 
L 147.883146 86.2272 
L 148.247926 85.98528 
L 150.071828 85.98528 
L 150.801389 85.50144 
L 151.16617 84.77568 
L 151.53095 84.53376 
L 151.89573 84.04992 
L 152.260511 84.04992 
L 154.084413 82.84032 
L 157.002656 82.84032 
L 157.367436 82.5984 
L 157.732217 82.5984 
L 158.096997 82.35648 
L 158.461777 81.87264 
L 158.826558 81.87264 
L 160.285679 80.90496 
L 161.01524 80.90496 
L 161.38002 80.66304 
L 161.744801 80.66304 
L 162.839142 79.93728 
L 163.568703 79.93728 
L 163.933483 79.69536 
L 165.392605 79.69536 
L 165.757385 79.45344 
L 166.122165 79.45344 
L 166.486946 79.21152 
L 166.851726 79.21152 
L 167.216507 78.72768 
L 167.581287 78.72768 
L 167.946067 78.24384 
L 169.405189 78.24384 
L 169.769969 78.00192 
L 171.958652 78.00192 
L 172.688212 77.51808 
L 173.417773 77.51808 
L 173.782554 77.27616 
L 175.606456 77.27616 
L 175.971236 77.03424 
L 178.889479 77.03424 
L 179.61904 76.5504 
L 180.713381 76.5504 
L 181.078161 76.30848 
L 181.442942 76.30848 
L 181.807722 76.06656 
L 182.172503 76.06656 
L 183.266844 75.3408 
L 183.631624 74.85696 
L 185.820306 74.85696 
L 186.185087 74.61504 
L 186.549867 74.61504 
L 186.914648 74.37312 
L 187.279428 74.37312 
L 188.373769 73.64736 
L 189.10333 73.64736 
L 189.46811 73.40544 
L 190.197671 73.40544 
L 190.562451 72.9216 
L 190.927232 72.9216 
L 191.656793 72.43776 
L 192.021573 72.43776 
L 192.386353 71.95392 
L 193.115914 71.95392 
L 193.480695 71.712 
L 194.939816 71.712 
L 195.304597 71.47008 
L 197.858059 71.47008 
L 198.22284 71.22816 
L 199.681961 71.22816 
L 200.046742 70.98624 
L 201.141083 70.98624 
L 201.505863 70.5024 
L 202.235424 70.5024 
L 202.600204 70.01856 
L 203.329765 70.01856 
L 203.694545 69.53472 
L 204.424106 69.53472 
L 204.788887 69.05088 
L 206.612789 69.05088 
L 206.977569 68.80896 
L 207.70713 68.80896 
L 208.07191 68.32512 
L 208.801471 68.32512 
L 209.531032 67.84128 
L 209.895812 67.84128 
L 210.260592 67.59936 
L 210.990153 67.59936 
L 211.354934 67.35744 
L 212.449275 67.35744 
L 212.814055 67.11552 
L 213.543616 67.11552 
L 213.908396 66.8736 
L 215.002737 66.8736 
L 215.367518 66.63168 
L 216.097079 66.63168 
L 216.461859 66.38976 
L 216.826639 65.90592 
L 217.19142 65.18016 
L 217.5562 65.18016 
L 217.920981 64.93824 
L 218.650541 64.93824 
L 219.015322 64.69632 
L 219.380102 64.69632 
L 220.109663 64.21248 
L 222.298345 64.21248 
L 222.663126 63.97056 
L 223.392686 63.97056 
L 223.757467 63.48672 
L 224.851808 63.48672 
L 225.216588 63.2448 
L 225.581369 62.76096 
L 226.67571 62.76096 
L 227.04049 62.51904 
L 228.134831 62.51904 
L 228.864392 62.0352 
L 229.593953 62.0352 
L 231.417855 60.8256 
L 231.782635 60.34176 
L 233.606537 60.34176 
L 234.700878 59.616 
L 235.065659 59.616 
L 235.79522 59.13216 
L 236.889561 59.13216 
L 237.254341 58.89024 
L 237.983902 58.89024 
L 238.348682 58.64832 
L 239.807804 58.64832 
L 240.172584 58.4064 
L 241.631706 58.4064 
L 241.996486 58.16448 
L 244.549949 58.16448 
L 244.914729 57.92256 
L 247.103412 57.92256 
L 247.468192 57.68064 
L 248.197753 57.68064 
L 248.562533 57.43872 
L 251.115996 57.43872 
L 251.480776 57.1968 
L 254.7638 57.1968 
L 255.12858 56.95488 
L 257.682043 56.95488 
L 258.046823 56.71296 
L 260.235506 56.71296 
L 260.600286 56.47104 
L 264.61287 56.47104 
L 264.977651 56.22912 
L 269.719796 56.22912 
L 270.084576 55.9872 
L 272.638039 55.9872 
L 273.3676 55.50336 
L 274.826721 55.50336 
L 275.191502 55.26144 
L 281.027988 55.26144 
L 281.392768 55.01952 
L 281.757549 55.01952 
L 282.487109 54.53568 
L 286.864474 54.53568 
L 287.229254 54.29376 
L 297.078325 54.29376 
L 297.807886 53.80992 
L 332.097242 53.80992 
L 332.462022 53.568 
L 398.487273 53.568 
L 398.487273 53.568 
" clip-path="url(#p0ef5577242)" style="fill: none; stroke-dasharray: 1.85,0.8; stroke-dashoffset: 0; stroke: #008000; stroke-width: 0.5"/>
   </g>
   <g id="line2d_14">
    <path d="M 73.832727 295.488 
L 74.197508 164.12544 
L 74.562288 164.12544 
L 74.927068 163.6416 
L 75.656629 163.15776 
L 76.38619 162.19008 
L 76.75097 162.19008 
L 77.115751 161.70624 
L 78.574872 161.70624 
L 79.669213 160.98048 
L 80.398774 160.98048 
L 80.763555 160.0128 
L 81.493115 159.04512 
L 81.857896 158.31936 
L 82.222676 158.07744 
L 82.587457 157.5936 
L 82.952237 156.86784 
L 83.317017 156.62592 
L 83.681798 156.14208 
L 84.411359 154.93248 
L 84.776139 154.69056 
L 85.140919 154.20672 
L 85.87048 152.99712 
L 86.600041 152.02944 
L 88.059162 149.1264 
L 88.423943 149.1264 
L 89.153504 148.64256 
L 89.518284 148.15872 
L 90.247845 148.15872 
L 90.612625 147.43296 
L 90.977406 146.22336 
L 91.342186 145.98144 
L 92.436527 144.04608 
L 92.801307 143.80416 
L 93.530868 142.83648 
L 93.895649 142.83648 
L 94.260429 142.59456 
L 95.35477 140.6592 
L 95.719551 140.41728 
L 96.084331 139.69152 
L 96.449111 139.4496 
L 96.813892 138.96576 
L 97.178672 137.75616 
L 98.273013 135.8208 
L 98.637794 135.8208 
L 99.367354 135.33696 
L 99.732135 134.85312 
L 100.096915 134.85312 
L 100.461696 133.4016 
L 101.191256 132.192 
L 101.556037 131.70816 
L 101.920817 131.46624 
L 102.285598 130.9824 
L 102.650378 129.7728 
L 103.015158 129.28896 
L 103.379939 129.28896 
L 103.744719 128.80512 
L 104.109499 128.5632 
L 104.47428 128.07936 
L 105.203841 128.07936 
L 105.568621 127.83744 
L 105.933401 127.83744 
L 106.298182 127.59552 
L 107.027743 126.144 
L 107.757303 125.66016 
L 108.122084 125.17632 
L 108.851645 124.69248 
L 109.945986 124.69248 
L 110.310766 123.7248 
L 110.675546 123.24096 
L 111.405107 122.75712 
L 111.769888 121.78944 
L 112.134668 121.78944 
L 112.499448 121.3056 
L 113.59379 121.3056 
L 113.95857 121.06368 
L 114.32335 121.06368 
L 114.688131 119.85408 
L 115.052911 119.61216 
L 115.417692 119.61216 
L 115.782472 119.12832 
L 116.512033 118.64448 
L 116.876813 118.64448 
L 117.241593 118.40256 
L 117.606374 118.40256 
L 117.971154 117.43488 
L 118.335935 117.19296 
L 118.700715 116.70912 
L 119.065495 116.70912 
L 119.430276 116.22528 
L 119.795056 115.98336 
L 120.159837 115.98336 
L 121.254178 115.2576 
L 121.618958 114.77376 
L 122.348519 114.77376 
L 122.713299 114.53184 
L 123.07808 114.048 
L 123.44286 113.80608 
L 124.537201 113.80608 
L 125.266762 112.8384 
L 126.361103 112.11264 
L 126.725884 111.6288 
L 127.090664 111.38688 
L 127.455444 110.90304 
L 127.820225 110.17728 
L 128.185005 109.93536 
L 128.549785 109.45152 
L 130.008907 109.45152 
L 131.103248 108.72576 
L 131.468029 108.24192 
L 131.832809 108.24192 
L 132.197589 108 
L 132.92715 108 
L 133.656711 107.03232 
L 134.021491 106.7904 
L 134.386272 106.7904 
L 135.115832 106.30656 
L 135.480613 105.82272 
L 136.210174 105.33888 
L 136.574954 104.61312 
L 136.939734 104.61312 
L 137.304515 104.3712 
L 137.669295 103.88736 
L 138.398856 103.40352 
L 138.763636 102.67776 
L 139.128417 102.43584 
L 139.493197 102.43584 
L 139.857978 102.19392 
L 140.587538 100.01664 
L 141.317099 99.04896 
L 141.681879 98.80704 
L 142.41144 97.59744 
L 142.776221 97.59744 
L 143.141001 97.35552 
L 143.870562 96.38784 
L 144.600123 96.38784 
L 144.964903 95.904 
L 145.694464 95.904 
L 146.059244 95.66208 
L 146.424025 95.66208 
L 146.788805 95.17824 
L 147.153585 94.93632 
L 147.518366 94.93632 
L 147.883146 93.96864 
L 149.342268 93.96864 
L 149.707048 93.4848 
L 150.071828 93.24288 
L 150.436609 92.75904 
L 150.801389 92.51712 
L 151.16617 92.03328 
L 152.260511 92.03328 
L 152.625291 91.79136 
L 152.990072 91.79136 
L 153.719632 91.30752 
L 154.084413 90.82368 
L 154.813973 90.82368 
L 155.178754 90.33984 
L 156.273095 90.33984 
L 156.637875 90.09792 
L 157.002656 90.09792 
L 157.732217 89.61408 
L 158.096997 89.13024 
L 158.826558 89.13024 
L 159.191338 88.88832 
L 159.920899 88.88832 
L 160.285679 88.6464 
L 161.744801 88.6464 
L 162.474362 88.16256 
L 162.839142 88.16256 
L 163.568703 87.67872 
L 163.933483 87.67872 
L 164.298264 87.4368 
L 165.757385 87.4368 
L 166.486946 86.95296 
L 166.851726 86.46912 
L 167.216507 86.46912 
L 167.581287 85.98528 
L 167.946067 85.74336 
L 169.040409 85.74336 
L 170.13475 85.0176 
L 170.864311 85.0176 
L 171.229091 84.53376 
L 173.052993 84.53376 
L 173.417773 84.29184 
L 173.782554 83.56608 
L 174.147334 83.32416 
L 174.512114 83.32416 
L 174.876895 83.08224 
L 175.606456 83.08224 
L 176.336016 82.11456 
L 176.700797 82.11456 
L 177.065577 81.87264 
L 177.430358 81.87264 
L 177.795138 81.63072 
L 178.524699 81.63072 
L 178.889479 81.3888 
L 179.254259 80.90496 
L 179.98382 80.90496 
L 180.348601 80.66304 
L 181.078161 80.66304 
L 181.442942 80.1792 
L 182.172503 80.1792 
L 182.537283 79.69536 
L 182.902063 79.45344 
L 183.266844 79.45344 
L 183.631624 78.9696 
L 184.361185 78.9696 
L 186.185087 77.76 
L 186.914648 77.76 
L 187.644208 76.79232 
L 188.373769 76.79232 
L 188.73855 76.30848 
L 189.10333 76.06656 
L 190.197671 76.06656 
L 190.927232 75.58272 
L 191.656793 75.58272 
L 192.021573 75.09888 
L 192.386353 74.85696 
L 193.115914 74.85696 
L 193.480695 74.61504 
L 194.210255 74.61504 
L 194.575036 74.1312 
L 194.939816 74.1312 
L 196.034157 73.40544 
L 196.398938 72.67968 
L 197.128498 72.19584 
L 197.493279 71.712 
L 197.858059 71.712 
L 198.22284 71.47008 
L 198.58762 71.47008 
L 198.9524 70.98624 
L 199.317181 70.74432 
L 199.681961 70.74432 
L 200.046742 70.5024 
L 200.411522 70.01856 
L 201.141083 70.01856 
L 201.505863 69.77664 
L 202.600204 69.77664 
L 203.694545 69.05088 
L 204.059326 69.05088 
L 204.424106 68.80896 
L 204.788887 68.80896 
L 205.153667 68.56704 
L 206.248008 68.56704 
L 206.612789 68.32512 
L 206.977569 67.59936 
L 208.436691 67.59936 
L 208.801471 67.35744 
L 210.625373 67.35744 
L 210.990153 66.8736 
L 211.354934 66.8736 
L 211.719714 66.63168 
L 212.084494 66.63168 
L 212.449275 66.38976 
L 212.814055 66.38976 
L 213.543616 65.90592 
L 215.732298 65.90592 
L 216.097079 65.664 
L 216.461859 65.664 
L 216.826639 65.42208 
L 217.920981 65.42208 
L 218.285761 64.93824 
L 219.015322 64.93824 
L 219.380102 64.21248 
L 221.204004 64.21248 
L 221.568784 63.48672 
L 221.933565 63.2448 
L 222.663126 63.2448 
L 223.027906 63.00288 
L 223.392686 62.51904 
L 223.757467 62.27712 
L 225.216588 62.27712 
L 225.581369 61.79328 
L 225.946149 61.79328 
L 226.31093 61.55136 
L 228.134831 61.55136 
L 228.499612 61.30944 
L 229.229173 61.30944 
L 229.593953 61.06752 
L 232.876977 61.06752 
L 233.241757 60.34176 
L 233.606537 60.34176 
L 234.336098 59.37408 
L 235.430439 59.37408 
L 235.79522 58.89024 
L 236.16 58.89024 
L 236.52478 58.64832 
L 238.348682 58.64832 
L 238.713463 58.4064 
L 240.537365 58.4064 
L 240.902145 57.92256 
L 242.726047 57.92256 
L 243.090827 57.68064 
L 243.455608 57.68064 
L 243.820388 57.43872 
L 246.738631 57.43872 
L 247.103412 56.95488 
L 252.939898 56.95488 
L 253.304678 56.71296 
L 260.235506 56.71296 
L 260.600286 56.47104 
L 260.965066 56.47104 
L 261.329847 55.9872 
L 261.694627 55.74528 
L 264.61287 55.74528 
L 264.977651 55.50336 
L 266.071992 55.50336 
L 266.436772 55.26144 
L 268.625455 55.26144 
L 268.990235 55.01952 
L 273.002819 55.01952 
L 273.73238 54.53568 
L 285.405352 54.53568 
L 285.770133 54.29376 
L 286.499694 54.29376 
L 286.864474 54.05184 
L 287.594035 54.05184 
L 287.958815 53.80992 
L 304.738713 53.80992 
L 305.103493 53.568 
L 398.487273 53.568 
L 398.487273 53.568 
" clip-path="url(#p0ef5577242)" style="fill: none; stroke-dasharray: 1.85,0.8; stroke-dashoffset: 0; stroke: #0000ff; stroke-width: 0.5"/>
   </g>
   <g id="line2d_15">
    <path d="M 73.832727 295.488 
L 74.197508 217.34784 
L 74.562288 217.10592 
L 74.927068 217.10592 
L 75.656629 215.89632 
L 76.02141 215.89632 
L 76.38619 215.41248 
L 77.480531 215.41248 
L 77.845312 214.68672 
L 78.210092 214.4448 
L 78.939653 214.4448 
L 79.304433 213.96096 
L 79.669213 213.2352 
L 80.398774 212.75136 
L 80.763555 212.0256 
L 81.128335 211.78368 
L 81.493115 211.29984 
L 81.857896 210.57408 
L 82.587457 210.09024 
L 82.952237 210.09024 
L 83.317017 209.84832 
L 83.681798 208.88064 
L 84.046578 208.88064 
L 86.23526 204.768 
L 86.964821 202.10688 
L 87.329602 201.38112 
L 88.059162 199.20384 
L 88.788723 197.26848 
L 89.153504 195.33312 
L 89.518284 194.60736 
L 89.883064 194.36544 
L 90.247845 193.39776 
L 91.342186 189.28512 
L 92.436527 187.34976 
L 92.801307 187.34976 
L 93.166088 185.89824 
L 93.530868 185.17248 
L 93.895649 184.93056 
L 94.260429 184.93056 
L 94.98999 183.96288 
L 95.35477 183.23712 
L 95.719551 182.9952 
L 96.449111 181.7856 
L 97.178672 177.91488 
L 97.543453 176.70528 
L 98.273013 175.01184 
L 100.096915 165.09312 
L 100.461696 164.60928 
L 100.826476 161.70624 
L 101.556037 158.8032 
L 101.920817 158.31936 
L 102.650378 156.86784 
L 103.015158 155.65824 
L 103.379939 155.1744 
L 104.109499 153.48096 
L 104.83906 151.78752 
L 105.568621 149.36832 
L 105.933401 149.36832 
L 107.027743 145.25568 
L 107.757303 143.0784 
L 108.122084 140.90112 
L 108.486864 140.17536 
L 108.851645 139.93344 
L 109.216425 139.20768 
L 109.581205 138.96576 
L 109.945986 138.24 
L 110.310766 137.99808 
L 110.675546 137.51424 
L 111.040327 137.27232 
L 111.405107 136.78848 
L 111.769888 136.78848 
L 112.499448 136.30464 
L 113.229009 134.6112 
L 113.59379 134.12736 
L 114.32335 132.67584 
L 114.688131 132.67584 
L 115.417692 132.192 
L 115.782472 131.70816 
L 116.876813 129.53088 
L 117.971154 128.80512 
L 118.335935 128.32128 
L 119.795056 125.66016 
L 120.159837 125.41824 
L 121.254178 123.96672 
L 121.618958 122.99904 
L 121.983739 122.5152 
L 122.348519 121.78944 
L 122.713299 120.57984 
L 123.07808 120.57984 
L 123.44286 118.8864 
L 125.266762 115.01568 
L 125.631542 113.80608 
L 126.361103 112.35456 
L 126.725884 112.11264 
L 127.090664 110.90304 
L 128.549785 108 
L 128.914566 106.54848 
L 129.279346 106.30656 
L 129.644127 105.09696 
L 130.373687 105.09696 
L 130.738468 104.85504 
L 131.468029 103.88736 
L 131.832809 103.64544 
L 132.197589 102.91968 
L 132.56237 102.91968 
L 132.92715 102.43584 
L 133.291931 101.46816 
L 133.656711 99.5328 
L 134.021491 99.04896 
L 134.386272 97.59744 
L 134.751052 97.1136 
L 135.115832 96.38784 
L 135.480613 96.38784 
L 135.845393 96.14592 
L 136.210174 95.42016 
L 136.939734 94.93632 
L 138.398856 93.00096 
L 138.763636 92.75904 
L 140.222758 90.82368 
L 140.587538 90.82368 
L 140.952319 90.33984 
L 142.04666 88.40448 
L 142.776221 87.92064 
L 143.141001 87.92064 
L 143.505781 87.67872 
L 144.600123 87.67872 
L 144.964903 87.4368 
L 145.329683 87.4368 
L 145.694464 86.95296 
L 146.059244 86.71104 
L 148.977487 86.71104 
L 149.342268 86.2272 
L 149.707048 85.98528 
L 150.071828 85.98528 
L 150.436609 85.25952 
L 151.53095 85.25952 
L 152.260511 84.77568 
L 152.625291 84.77568 
L 152.990072 84.04992 
L 154.813973 82.84032 
L 155.543534 82.84032 
L 155.908315 82.5984 
L 156.273095 82.11456 
L 156.637875 81.87264 
L 157.367436 81.87264 
L 157.732217 81.63072 
L 158.096997 80.90496 
L 158.826558 80.90496 
L 159.191338 80.42112 
L 159.556118 80.42112 
L 159.920899 79.45344 
L 160.285679 79.45344 
L 160.65046 79.21152 
L 161.38002 78.00192 
L 162.839142 77.03424 
L 163.933483 77.03424 
L 164.298264 76.5504 
L 164.663044 76.5504 
L 165.027824 76.06656 
L 165.392605 76.06656 
L 166.122165 75.58272 
L 166.486946 75.58272 
L 166.851726 75.3408 
L 167.216507 74.37312 
L 167.946067 73.88928 
L 168.675628 73.88928 
L 170.13475 72.9216 
L 170.864311 72.9216 
L 171.229091 72.67968 
L 171.958652 72.67968 
L 172.323432 72.43776 
L 173.782554 72.43776 
L 174.147334 72.19584 
L 174.876895 72.19584 
L 175.971236 71.47008 
L 176.336016 71.47008 
L 176.700797 71.22816 
L 177.065577 71.22816 
L 177.430358 70.74432 
L 177.795138 70.5024 
L 179.254259 70.5024 
L 179.61904 70.26048 
L 181.078161 70.26048 
L 181.442942 70.01856 
L 183.996404 70.01856 
L 184.361185 69.2928 
L 185.090746 69.2928 
L 185.455526 69.05088 
L 185.820306 69.05088 
L 186.185087 68.80896 
L 187.279428 68.80896 
L 187.644208 68.56704 
L 188.008989 68.0832 
L 188.73855 68.0832 
L 189.10333 67.35744 
L 189.46811 67.35744 
L 190.197671 66.8736 
L 190.562451 66.8736 
L 191.292012 66.38976 
L 191.656793 65.90592 
L 193.115914 65.90592 
L 193.845475 65.42208 
L 194.939816 65.42208 
L 195.304597 65.18016 
L 195.669377 65.18016 
L 196.034157 64.93824 
L 196.398938 64.93824 
L 197.128498 64.4544 
L 197.858059 64.4544 
L 198.22284 64.21248 
L 198.9524 64.21248 
L 199.317181 63.97056 
L 200.046742 63.97056 
L 200.411522 63.72864 
L 200.776302 63.72864 
L 201.141083 63.48672 
L 203.329765 63.48672 
L 204.059326 63.00288 
L 204.424106 63.00288 
L 204.788887 62.76096 
L 205.883228 62.76096 
L 206.248008 62.51904 
L 208.07191 62.51904 
L 208.436691 62.27712 
L 211.354934 62.27712 
L 211.719714 61.79328 
L 214.273177 61.79328 
L 214.637957 61.55136 
L 215.002737 61.55136 
L 215.367518 61.06752 
L 220.839224 61.06752 
L 221.568784 60.58368 
L 221.933565 60.09984 
L 222.663126 59.616 
L 224.487028 59.616 
L 224.851808 59.37408 
L 225.581369 59.37408 
L 226.31093 58.89024 
L 227.405271 58.89024 
L 227.770051 58.64832 
L 228.134831 57.68064 
L 229.958733 57.68064 
L 230.323514 57.1968 
L 239.807804 57.1968 
L 240.172584 56.95488 
L 248.197753 56.95488 
L 248.562533 56.71296 
L 250.021655 56.71296 
L 250.386435 56.22912 
L 251.115996 55.74528 
L 252.939898 55.74528 
L 253.304678 55.50336 
L 254.034239 55.50336 
L 254.399019 55.26144 
L 254.7638 55.26144 
L 255.493361 54.7776 
L 256.952482 54.7776 
L 257.317263 54.53568 
L 257.682043 54.05184 
L 258.046823 54.05184 
L 258.411604 53.80992 
L 258.776384 53.80992 
L 259.141164 53.568 
L 398.487273 53.568 
L 398.487273 53.568 
" clip-path="url(#p0ef5577242)" style="fill: none; stroke-dasharray: 1.85,0.8; stroke-dashoffset: 0; stroke: #bf00bf; stroke-width: 0.5"/>
   </g>
   <g id="line2d_16">
    <path d="M 73.832727 295.488 
L 74.197508 55.01952 
L 75.656629 55.01952 
L 76.02141 54.7776 
L 76.38619 54.7776 
L 76.75097 54.53568 
L 79.304433 54.53568 
L 79.669213 54.29376 
L 80.763555 54.29376 
L 81.128335 54.05184 
L 82.222676 54.05184 
L 82.587457 53.80992 
L 85.140919 53.80992 
L 85.5057 53.568 
L 398.487273 53.568 
L 398.487273 53.568 
" clip-path="url(#p0ef5577242)" style="fill: none; stroke-dasharray: 1.85,0.8; stroke-dashoffset: 0; stroke: #bfbf00; stroke-width: 0.5"/>
   </g>
   <g id="patch_3">
    <path d="M 57.6 307.584 
L 57.6 41.472 
" style="fill: none; stroke: #000000; stroke-width: 0.8; stroke-linejoin: miter; stroke-linecap: square"/>
   </g>
   <g id="patch_4">
    <path d="M 414.72 307.584 
L 414.72 41.472 
" style="fill: none; stroke: #000000; stroke-width: 0.8; stroke-linejoin: miter; stroke-linecap: square"/>
   </g>
   <g id="patch_5">
    <path d="M 57.6 307.584 
L 414.72 307.584 
" style="fill: none; stroke: #000000; stroke-width: 0.8; stroke-linejoin: miter; stroke-linecap: square"/>
   </g>
   <g id="patch_6">
    <path d="M 57.6 41.472 
L 414.72 41.472 
" style="fill: none; stroke: #000000; stroke-width: 0.8; stroke-linejoin: miter; stroke-linecap: square"/>
   </g>
   <g id="text_14">
    <!-- count=1000, googlenet=150, resnet50=112, squeezenetv1=150, vgg19=187, yolov2=150 -->
    <g transform="translate(-3.84 35.472) scale(0.12 -0.12)">
     <defs>
      <path id="FangSong-6f" d="M 2875 1400 
Q 2875 775 2500 362 
Q 2125 -50 1575 -50 
Q 1000 -50 637 375 
Q 275 800 275 1400 
Q 275 1950 637 2400 
Q 1000 2850 1575 2850 
Q 2175 2850 2525 2400 
Q 2875 1950 2875 1400 
z
M 675 1375 
Q 675 725 937 412 
Q 1200 100 1575 100 
Q 2000 100 2237 437 
Q 2475 775 2475 1375 
Q 2475 2025 2212 2362 
Q 1950 2700 1575 2700 
Q 1225 2700 950 2362 
Q 675 2025 675 1375 
z
" transform="scale(0.015625)"/>
      <path id="FangSong-75" d="M 1425 225 
Q 1725 225 1937 375 
Q 2150 525 2250 850 
L 2250 2425 
Q 2250 2525 2200 2587 
Q 2150 2650 2025 2650 
L 1875 2650 
L 1875 2800 
L 2025 2800 
Q 2175 2800 2300 2825 
Q 2425 2850 2550 2950 
L 2600 2950 
L 2600 500 
Q 2600 400 2662 350 
Q 2725 300 2825 300 
L 2975 300 
L 2975 150 
L 2825 150 
Q 2700 150 2575 112 
Q 2450 75 2300 0 
L 2250 0 
L 2250 525 
Q 2125 250 1875 112 
Q 1625 -25 1300 -25 
Q 900 -25 700 200 
Q 500 425 500 925 
L 500 2425 
Q 500 2525 450 2587 
Q 400 2650 275 2650 
L 125 2650 
L 125 2800 
L 275 2800 
Q 425 2800 550 2825 
Q 675 2850 800 2950 
L 850 2950 
L 850 875 
Q 850 525 1000 375 
Q 1150 225 1425 225 
z
" transform="scale(0.015625)"/>
      <path id="FangSong-3d" d="M 175 2725 
L 175 2950 
L 2950 2950 
L 2950 2725 
L 175 2725 
z
M 175 1450 
L 175 1675 
L 2950 1675 
L 2950 1450 
L 175 1450 
z
" transform="scale(0.015625)"/>
      <path id="FangSong-2c" d="M 1325 75 
Q 1200 25 1100 75 
Q 1000 125 962 237 
Q 925 350 925 437 
Q 925 525 987 612 
Q 1050 700 1150 737 
Q 1250 775 1425 725 
Q 1600 675 1650 500 
Q 1700 325 1662 150 
Q 1625 -25 1525 -200 
Q 1425 -375 1312 -475 
Q 1200 -575 1025 -675 
L 950 -575 
Q 1100 -450 1187 -312 
Q 1275 -175 1325 75 
z
" transform="scale(0.015625)"/>
      <path id="FangSong-20" transform="scale(0.015625)"/>
      <path id="FangSong-67" d="M 850 1875 
Q 850 1575 1025 1362 
Q 1200 1150 1500 1150 
Q 1825 1150 1987 1337 
Q 2150 1525 2150 1875 
Q 2150 2300 1962 2487 
Q 1775 2675 1500 2675 
Q 1225 2675 1037 2487 
Q 850 2300 850 1875 
z
M 2075 525 
Q 2450 475 2625 312 
Q 2800 150 2800 -125 
Q 2800 -500 2487 -725 
Q 2175 -950 1500 -950 
Q 975 -950 650 -737 
Q 325 -525 325 -250 
Q 325 -75 450 100 
Q 575 275 850 375 
Q 700 450 612 537 
Q 525 625 525 750 
Q 525 900 625 1012 
Q 725 1125 875 1200 
Q 725 1325 612 1500 
Q 500 1675 500 1875 
Q 500 2250 762 2537 
Q 1025 2825 1500 2825 
Q 1700 2825 1887 2775 
Q 2075 2725 2200 2600 
Q 2375 2725 2512 2787 
Q 2650 2850 2750 2850 
Q 2875 2850 2925 2762 
Q 2975 2675 2975 2600 
Q 2975 2500 2937 2437 
Q 2900 2375 2800 2375 
Q 2725 2375 2675 2412 
Q 2625 2450 2600 2525 
Q 2575 2600 2487 2587 
Q 2400 2575 2300 2500 
Q 2400 2400 2450 2225 
Q 2500 2050 2500 1875 
Q 2500 1575 2262 1287 
Q 2025 1000 1500 1000 
Q 1350 1000 1225 1037 
Q 1100 1075 1025 1125 
Q 925 1075 875 1000 
Q 825 925 825 875 
Q 825 775 875 725 
Q 925 675 1025 675 
Q 1350 625 1612 587 
Q 1875 550 2075 525 
z
M 1050 325 
Q 825 225 737 87 
Q 650 -50 650 -250 
Q 650 -450 875 -625 
Q 1100 -800 1550 -800 
Q 1975 -800 2225 -662 
Q 2475 -525 2475 -250 
Q 2475 -75 2412 25 
Q 2350 125 2225 150 
Q 1975 200 1675 237 
Q 1375 275 1050 325 
z
" transform="scale(0.015625)"/>
      <path id="FangSong-6c" d="M 900 4275 
Q 1125 4275 1325 4325 
Q 1525 4375 1700 4475 
L 1750 4475 
L 1750 350 
Q 1750 250 1812 200 
Q 1875 150 1975 150 
L 2550 150 
L 2550 0 
L 600 0 
L 600 150 
L 1175 150 
Q 1300 150 1350 200 
Q 1400 250 1400 350 
L 1400 3925 
Q 1400 4025 1350 4075 
Q 1300 4125 1175 4125 
L 625 4125 
L 625 4275 
L 900 4275 
z
" transform="scale(0.015625)"/>
      <path id="FangSong-35" d="M 1700 2750 
Q 2175 2750 2475 2387 
Q 2775 2025 2775 1425 
Q 2775 750 2462 350 
Q 2150 -50 1500 -50 
Q 1050 -50 700 212 
Q 350 475 350 850 
Q 350 1000 437 1112 
Q 525 1225 675 1225 
Q 825 1225 875 1125 
Q 925 1025 925 950 
Q 925 800 850 712 
Q 775 625 775 525 
Q 775 325 1012 225 
Q 1250 125 1525 125 
Q 1925 125 2137 450 
Q 2350 775 2350 1375 
Q 2350 1875 2162 2187 
Q 1975 2500 1600 2500 
Q 1325 2500 1125 2400 
Q 925 2300 750 1975 
L 525 2000 
L 650 4275 
L 2700 4275 
L 2625 3900 
L 825 3900 
L 725 2250 
Q 975 2600 1212 2675 
Q 1450 2750 1700 2750 
z
" transform="scale(0.015625)"/>
      <path id="FangSong-72" d="M 1250 2025 
Q 1500 2425 1787 2637 
Q 2075 2850 2375 2850 
Q 2625 2850 2762 2737 
Q 2900 2625 2900 2475 
Q 2900 2350 2837 2275 
Q 2775 2200 2650 2200 
Q 2525 2200 2462 2275 
Q 2400 2350 2425 2475 
Q 2425 2550 2400 2600 
Q 2375 2650 2250 2650 
Q 2050 2650 1762 2400 
Q 1475 2150 1250 1700 
L 1250 350 
Q 1250 250 1312 200 
Q 1375 150 1475 150 
L 2025 150 
L 2025 0 
L 175 0 
L 175 150 
L 675 150 
Q 800 150 850 200 
Q 900 250 900 350 
L 900 2425 
Q 900 2525 850 2587 
Q 800 2650 675 2650 
L 200 2650 
L 200 2800 
L 400 2800 
Q 575 2800 812 2837 
Q 1050 2875 1175 2925 
L 1250 2925 
L 1250 2025 
z
" transform="scale(0.015625)"/>
      <path id="FangSong-73" d="M 600 2075 
Q 600 2450 887 2650 
Q 1175 2850 1575 2850 
Q 1800 2850 2000 2787 
Q 2200 2725 2275 2725 
Q 2350 2725 2400 2750 
Q 2450 2775 2525 2850 
L 2625 2025 
L 2475 2000 
Q 2375 2325 2137 2512 
Q 1900 2700 1600 2700 
Q 1275 2700 1087 2575 
Q 900 2450 900 2225 
Q 900 2025 987 1912 
Q 1075 1800 1300 1750 
Q 1475 1675 1737 1587 
Q 2000 1500 2225 1400 
Q 2425 1300 2562 1137 
Q 2700 975 2700 775 
Q 2700 400 2437 187 
Q 2175 -25 1675 -25 
Q 1350 -25 1187 37 
Q 1025 100 925 100 
Q 850 100 762 62 
Q 675 25 575 -25 
L 500 900 
L 650 925 
Q 725 525 975 325 
Q 1225 125 1675 125 
Q 2025 125 2212 250 
Q 2400 375 2400 625 
Q 2400 800 2300 912 
Q 2200 1025 2100 1075 
Q 1850 1175 1550 1287 
Q 1250 1400 1025 1500 
Q 800 1600 700 1750 
Q 600 1900 600 2075 
z
" transform="scale(0.015625)"/>
      <path id="FangSong-71" d="M 2250 2150 
Q 2150 2375 1975 2512 
Q 1800 2650 1550 2650 
Q 1200 2650 950 2350 
Q 700 2050 700 1325 
Q 700 700 912 437 
Q 1125 175 1450 175 
Q 1725 175 1937 300 
Q 2150 425 2250 725 
L 2250 2150 
z
M 2600 -550 
Q 2600 -675 2662 -725 
Q 2725 -775 2825 -775 
L 2975 -775 
L 2975 -925 
L 1825 -925 
L 1825 -775 
L 2025 -775 
Q 2150 -775 2200 -725 
Q 2250 -675 2250 -550 
L 2250 375 
Q 2100 175 1887 75 
Q 1675 -25 1375 -25 
Q 950 -25 625 337 
Q 300 700 300 1400 
Q 300 2075 675 2450 
Q 1050 2825 1475 2825 
Q 1750 2825 1937 2725 
Q 2125 2625 2275 2475 
L 2500 2800 
L 2600 2800 
L 2600 -550 
z
" transform="scale(0.015625)"/>
      <path id="FangSong-7a" d="M 2725 975 
L 2550 0 
L 400 0 
L 400 125 
L 2125 2650 
L 1200 2650 
Q 975 2650 825 2487 
Q 675 2325 575 1925 
L 425 1950 
L 525 2800 
L 2575 2800 
L 2575 2725 
L 825 150 
L 1775 150 
Q 2100 150 2287 350 
Q 2475 550 2575 1000 
L 2725 975 
z
" transform="scale(0.015625)"/>
      <path id="FangSong-76" d="M 1600 -25 
L 1450 -25 
L 600 2425 
Q 575 2525 500 2587 
Q 425 2650 325 2650 
L 200 2650 
L 200 2800 
L 1275 2800 
L 1275 2650 
L 1175 2650 
Q 1025 2650 987 2575 
Q 950 2500 1000 2325 
L 1600 575 
L 1650 575 
L 2250 2300 
Q 2325 2475 2262 2562 
Q 2200 2650 2050 2650 
L 2000 2650 
L 2000 2800 
L 2900 2800 
L 2900 2650 
L 2850 2650 
Q 2700 2650 2612 2562 
Q 2525 2475 2450 2300 
L 1600 -25 
z
" transform="scale(0.015625)"/>
      <path id="FangSong-39" d="M 675 2950 
Q 675 2400 887 2112 
Q 1100 1825 1425 1825 
Q 1800 1825 2075 2175 
Q 2350 2525 2350 2825 
Q 2350 3425 2150 3787 
Q 1950 4150 1500 4150 
Q 1075 4150 875 3812 
Q 675 3475 675 2950 
z
M 1350 1600 
Q 850 1600 550 1912 
Q 250 2225 250 2925 
Q 250 3525 575 3925 
Q 900 4325 1500 4325 
Q 2125 4325 2475 3825 
Q 2825 3325 2825 2375 
Q 2825 1325 2412 637 
Q 2000 -50 1275 -50 
Q 950 -50 712 100 
Q 475 250 475 500 
Q 475 600 537 700 
Q 600 800 750 800 
Q 900 800 950 687 
Q 1000 575 1000 425 
Q 1000 325 1025 262 
Q 1050 200 1075 175 
Q 1100 150 1162 137 
Q 1225 125 1300 125 
Q 1750 125 2025 625 
Q 2300 1125 2350 2300 
Q 2225 2000 1975 1800 
Q 1725 1600 1350 1600 
z
" transform="scale(0.015625)"/>
      <path id="FangSong-37" d="M 2800 4100 
Q 2275 3250 1962 2437 
Q 1650 1625 1650 1025 
Q 1650 925 1662 737 
Q 1675 550 1675 300 
Q 1675 100 1612 25 
Q 1550 -50 1400 -50 
Q 1275 -50 1187 37 
Q 1100 125 1100 350 
Q 1100 825 1312 1525 
Q 1525 2225 2450 3900 
L 1200 3900 
Q 925 3900 762 3725 
Q 600 3550 525 3200 
L 375 3225 
L 550 4275 
L 2800 4275 
L 2800 4100 
z
" transform="scale(0.015625)"/>
     </defs>
     <use xlink:href="#FangSong-63"/>
     <use xlink:href="#FangSong-6f" x="50"/>
     <use xlink:href="#FangSong-75" x="100"/>
     <use xlink:href="#FangSong-6e" x="150"/>
     <use xlink:href="#FangSong-74" x="200"/>
     <use xlink:href="#FangSong-3d" x="250"/>
     <use xlink:href="#FangSong-31" x="300"/>
     <use xlink:href="#FangSong-30" x="350"/>
     <use xlink:href="#FangSong-30" x="400"/>
     <use xlink:href="#FangSong-30" x="450"/>
     <use xlink:href="#FangSong-2c" x="500"/>
     <use xlink:href="#FangSong-20" x="550"/>
     <use xlink:href="#FangSong-67" x="600"/>
     <use xlink:href="#FangSong-6f" x="650"/>
     <use xlink:href="#FangSong-6f" x="700"/>
     <use xlink:href="#FangSong-67" x="750"/>
     <use xlink:href="#FangSong-6c" x="800"/>
     <use xlink:href="#FangSong-65" x="850"/>
     <use xlink:href="#FangSong-6e" x="900"/>
     <use xlink:href="#FangSong-65" x="950"/>
     <use xlink:href="#FangSong-74" x="1000"/>
     <use xlink:href="#FangSong-3d" x="1050"/>
     <use xlink:href="#FangSong-31" x="1100"/>
     <use xlink:href="#FangSong-35" x="1150"/>
     <use xlink:href="#FangSong-30" x="1200"/>
     <use xlink:href="#FangSong-2c" x="1250"/>
     <use xlink:href="#FangSong-20" x="1300"/>
     <use xlink:href="#FangSong-72" x="1350"/>
     <use xlink:href="#FangSong-65" x="1400"/>
     <use xlink:href="#FangSong-73" x="1450"/>
     <use xlink:href="#FangSong-6e" x="1500"/>
     <use xlink:href="#FangSong-65" x="1550"/>
     <use xlink:href="#FangSong-74" x="1600"/>
     <use xlink:href="#FangSong-35" x="1650"/>
     <use xlink:href="#FangSong-30" x="1700"/>
     <use xlink:href="#FangSong-3d" x="1750"/>
     <use xlink:href="#FangSong-31" x="1800"/>
     <use xlink:href="#FangSong-31" x="1850"/>
     <use xlink:href="#FangSong-32" x="1900"/>
     <use xlink:href="#FangSong-2c" x="1950"/>
     <use xlink:href="#FangSong-20" x="2000"/>
     <use xlink:href="#FangSong-73" x="2050"/>
     <use xlink:href="#FangSong-71" x="2100"/>
     <use xlink:href="#FangSong-75" x="2150"/>
     <use xlink:href="#FangSong-65" x="2200"/>
     <use xlink:href="#FangSong-65" x="2250"/>
     <use xlink:href="#FangSong-7a" x="2300"/>
     <use xlink:href="#FangSong-65" x="2350"/>
     <use xlink:href="#FangSong-6e" x="2400"/>
     <use xlink:href="#FangSong-65" x="2450"/>
     <use xlink:href="#FangSong-74" x="2500"/>
     <use xlink:href="#FangSong-76" x="2550"/>
     <use xlink:href="#FangSong-31" x="2600"/>
     <use xlink:href="#FangSong-3d" x="2650"/>
     <use xlink:href="#FangSong-31" x="2700"/>
     <use xlink:href="#FangSong-35" x="2750"/>
     <use xlink:href="#FangSong-30" x="2800"/>
     <use xlink:href="#FangSong-2c" x="2850"/>
     <use xlink:href="#FangSong-20" x="2900"/>
     <use xlink:href="#FangSong-76" x="2950"/>
     <use xlink:href="#FangSong-67" x="3000"/>
     <use xlink:href="#FangSong-67" x="3050"/>
     <use xlink:href="#FangSong-31" x="3100"/>
     <use xlink:href="#FangSong-39" x="3150"/>
     <use xlink:href="#FangSong-3d" x="3200"/>
     <use xlink:href="#FangSong-31" x="3250"/>
     <use xlink:href="#FangSong-38" x="3300"/>
     <use xlink:href="#FangSong-37" x="3350"/>
     <use xlink:href="#FangSong-2c" x="3400"/>
     <use xlink:href="#FangSong-20" x="3450"/>
     <use xlink:href="#FangSong-79" x="3500"/>
     <use xlink:href="#FangSong-6f" x="3550"/>
     <use xlink:href="#FangSong-6c" x="3600"/>
     <use xlink:href="#FangSong-6f" x="3650"/>
     <use xlink:href="#FangSong-76" x="3700"/>
     <use xlink:href="#FangSong-32" x="3750"/>
     <use xlink:href="#FangSong-3d" x="3800"/>
     <use xlink:href="#FangSong-31" x="3850"/>
     <use xlink:href="#FangSong-35" x="3900"/>
     <use xlink:href="#FangSong-30" x="3950"/>
    </g>
   </g>
   <g id="legend_1">
    <g id="patch_7">
     <path d="M 335.72 302.584 
L 407.72 302.584 
Q 409.72 302.584 409.72 300.584 
L 409.72 234.357437 
Q 409.72 232.357437 407.72 232.357437 
L 335.72 232.357437 
Q 333.72 232.357437 333.72 234.357437 
L 333.72 300.584 
Q 333.72 302.584 335.72 302.584 
z
" style="fill: #ffffff; opacity: 0.8; stroke: #cccccc; stroke-linejoin: miter"/>
    </g>
    <g id="line2d_17">
     <path d="M 337.72 239.857437 
L 347.72 239.857437 
L 357.72 239.857437 
" style="fill: none; stroke: #ff0000; stroke-linecap: square"/>
    </g>
    <g id="text_15">
     <!-- DLIR -->
     <g transform="translate(365.72 243.357437) scale(0.1 -0.1)">
      <defs>
       <path id="FangSong-44" d="M 2475 2175 
Q 2475 3250 2150 3687 
Q 1825 4125 1250 4125 
Q 1075 4125 987 4075 
Q 900 4025 900 3925 
L 900 350 
Q 900 250 975 200 
Q 1050 150 1175 150 
Q 1725 150 2100 562 
Q 2475 975 2475 2175 
z
M 500 3925 
Q 500 4025 450 4075 
Q 400 4125 275 4125 
L 125 4125 
L 125 4275 
L 1250 4275 
Q 2025 4275 2487 3775 
Q 2950 3275 2950 2225 
Q 2950 1075 2500 537 
Q 2050 0 1175 0 
L 100 0 
L 100 150 
L 275 150 
Q 400 150 450 200 
Q 500 250 500 350 
L 500 3925 
z
" transform="scale(0.015625)"/>
       <path id="FangSong-49" d="M 575 4125 
L 575 4275 
L 2575 4275 
L 2575 4125 
L 2000 4125 
Q 1900 4125 1837 4075 
Q 1775 4025 1775 3925 
L 1775 350 
Q 1775 250 1837 200 
Q 1900 150 2000 150 
L 2575 150 
L 2575 0 
L 575 0 
L 575 150 
L 1150 150 
Q 1275 150 1325 200 
Q 1375 250 1375 350 
L 1375 3925 
Q 1375 4025 1325 4075 
Q 1275 4125 1150 4125 
L 575 4125 
z
" transform="scale(0.015625)"/>
       <path id="FangSong-52" d="M 2800 3275 
Q 2800 2775 2525 2500 
Q 2250 2225 1900 2175 
L 2650 325 
Q 2700 225 2762 187 
Q 2825 150 2900 150 
L 3050 150 
L 3050 0 
L 2350 0 
L 1525 2150 
L 950 2150 
L 950 350 
Q 950 250 1012 200 
Q 1075 150 1175 150 
L 1325 150 
L 1325 0 
L 175 0 
L 175 150 
L 325 150 
Q 450 150 500 200 
Q 550 250 550 350 
L 550 3925 
Q 550 4025 500 4075 
Q 450 4125 325 4125 
L 175 4125 
L 175 4275 
L 1600 4275 
Q 2175 4275 2487 4025 
Q 2800 3775 2800 3275 
z
M 950 2300 
L 1500 2300 
Q 1875 2300 2125 2525 
Q 2375 2750 2375 3225 
Q 2375 3650 2150 3887 
Q 1925 4125 1450 4125 
L 1175 4125 
Q 1075 4125 1012 4075 
Q 950 4025 950 3925 
L 950 2300 
z
" transform="scale(0.015625)"/>
      </defs>
      <use xlink:href="#FangSong-44"/>
      <use xlink:href="#FangSong-4c" x="50"/>
      <use xlink:href="#FangSong-49" x="100"/>
      <use xlink:href="#FangSong-52" x="150"/>
     </g>
    </g>
    <g id="line2d_18">
     <path d="M 337.72 253.30275 
L 347.72 253.30275 
L 357.72 253.30275 
" style="fill: none; stroke-dasharray: 1.85,0.8; stroke-dashoffset: 0; stroke: #008000; stroke-width: 0.5"/>
    </g>
    <g id="text_16">
     <!-- BNST -->
     <g transform="translate(365.72 256.80275) scale(0.1 -0.1)">
      <defs>
       <path id="FangSong-42" d="M 75 0 
L 75 150 
L 275 150 
Q 400 150 450 200 
Q 500 250 500 350 
L 500 3925 
Q 500 4025 450 4075 
Q 400 4125 275 4125 
L 125 4125 
L 125 4275 
L 1575 4275 
Q 2175 4275 2462 4037 
Q 2750 3800 2750 3300 
Q 2750 2950 2600 2725 
Q 2450 2500 1975 2325 
Q 2550 2150 2750 1825 
Q 2950 1500 2950 1100 
Q 2950 600 2600 300 
Q 2250 0 1650 0 
L 75 0 
z
M 1575 150 
Q 2000 150 2237 412 
Q 2475 675 2475 1150 
Q 2475 1700 2225 1962 
Q 1975 2225 1475 2225 
L 900 2225 
L 900 350 
Q 900 250 962 200 
Q 1025 150 1125 150 
L 1575 150 
z
M 2325 3300 
Q 2325 3750 2075 3937 
Q 1825 4125 1425 4125 
L 1125 4125 
Q 1025 4125 962 4075 
Q 900 4025 900 3925 
L 900 2375 
L 1550 2375 
Q 1825 2375 2075 2600 
Q 2325 2825 2325 3300 
z
" transform="scale(0.015625)"/>
       <path id="FangSong-4e" d="M 2500 1000 
L 2550 1000 
L 2550 3925 
Q 2550 4025 2500 4075 
Q 2450 4125 2325 4125 
L 2125 4125 
L 2125 4275 
L 3125 4275 
L 3125 4125 
L 2925 4125 
Q 2825 4125 2762 4075 
Q 2700 4025 2700 3925 
L 2700 0 
L 2550 0 
L 650 3725 
L 600 3725 
L 600 350 
Q 600 250 662 200 
Q 725 150 825 150 
L 1025 150 
L 1025 0 
L 25 0 
L 25 150 
L 225 150 
Q 350 150 400 200 
Q 450 250 450 350 
L 450 3925 
Q 450 4025 400 4075 
Q 350 4125 225 4125 
L 75 4125 
L 75 4275 
L 800 4275 
L 2500 1000 
z
" transform="scale(0.015625)"/>
       <path id="FangSong-53" d="M 1475 2050 
Q 800 2350 550 2575 
Q 300 2800 300 3275 
Q 300 3650 612 3987 
Q 925 4325 1500 4325 
Q 1750 4325 1975 4237 
Q 2200 4150 2300 4150 
Q 2375 4150 2437 4187 
Q 2500 4225 2550 4325 
L 2650 3300 
L 2525 3250 
Q 2300 3775 2062 3962 
Q 1825 4150 1450 4150 
Q 975 4150 800 3887 
Q 625 3625 625 3325 
Q 625 3050 787 2887 
Q 950 2725 1675 2400 
Q 2275 2150 2537 1837 
Q 2800 1525 2800 1100 
Q 2800 650 2487 300 
Q 2175 -50 1575 -50 
Q 1325 -50 1112 37 
Q 900 125 775 125 
Q 700 125 625 75 
Q 550 25 450 -50 
L 250 1175 
L 400 1225 
Q 575 600 887 362 
Q 1200 125 1600 125 
Q 2025 125 2237 375 
Q 2450 625 2450 1100 
Q 2450 1350 2212 1587 
Q 1975 1825 1475 2050 
z
" transform="scale(0.015625)"/>
       <path id="FangSong-54" d="M 2200 0 
L 900 0 
L 900 150 
L 1125 150 
Q 1250 150 1300 200 
Q 1350 250 1350 350 
L 1350 3850 
Q 1350 4050 1325 4075 
Q 1300 4100 1125 4100 
Q 775 4100 637 3975 
Q 500 3850 300 3300 
L 150 3325 
L 375 4275 
L 2750 4275 
L 2950 3325 
L 2825 3300 
Q 2625 3825 2512 3962 
Q 2400 4100 2050 4100 
Q 1800 4100 1775 4075 
Q 1750 4050 1750 3825 
L 1750 350 
Q 1750 250 1812 200 
Q 1875 150 1975 150 
L 2200 150 
L 2200 0 
z
" transform="scale(0.015625)"/>
      </defs>
      <use xlink:href="#FangSong-42"/>
      <use xlink:href="#FangSong-4e" x="50"/>
      <use xlink:href="#FangSong-53" x="100"/>
      <use xlink:href="#FangSong-54" x="150"/>
     </g>
    </g>
    <g id="line2d_19">
     <path d="M 337.72 266.748062 
L 347.72 266.748062 
L 357.72 266.748062 
" style="fill: none; stroke-dasharray: 1.85,0.8; stroke-dashoffset: 0; stroke: #0000ff; stroke-width: 0.5"/>
    </g>
    <g id="text_17">
     <!-- FIFO -->
     <g transform="translate(365.72 270.248062) scale(0.1 -0.1)">
      <defs>
       <path id="FangSong-46" d="M 1325 150 
L 1325 0 
L 125 0 
L 125 150 
L 300 150 
Q 425 150 475 200 
Q 525 250 525 350 
L 525 3925 
Q 525 4025 475 4075 
Q 425 4125 300 4125 
L 150 4125 
L 150 4275 
L 2750 4275 
L 3050 3375 
L 2925 3325 
Q 2725 3725 2450 3925 
Q 2175 4125 1850 4125 
L 1150 4125 
Q 1050 4125 987 4075 
Q 925 4025 925 3925 
L 925 2325 
L 1750 2325 
Q 2000 2325 2112 2437 
Q 2225 2550 2225 2800 
L 2225 2925 
L 2375 2925 
L 2375 1475 
L 2225 1475 
L 2225 1575 
Q 2225 1875 2112 2025 
Q 2000 2175 1750 2175 
L 925 2175 
L 925 350 
Q 925 250 987 200 
Q 1050 150 1150 150 
L 1325 150 
z
" transform="scale(0.015625)"/>
       <path id="FangSong-4f" d="M 675 2150 
Q 675 1075 937 587 
Q 1200 100 1600 100 
Q 2025 100 2275 562 
Q 2525 1025 2525 2150 
Q 2525 3050 2312 3600 
Q 2100 4150 1600 4150 
Q 1175 4150 925 3650 
Q 675 3150 675 2150 
z
M 3000 2150 
Q 3000 1125 2600 537 
Q 2200 -50 1600 -50 
Q 1025 -50 612 550 
Q 200 1150 200 2150 
Q 200 3125 587 3725 
Q 975 4325 1600 4325 
Q 2250 4325 2625 3687 
Q 3000 3050 3000 2150 
z
" transform="scale(0.015625)"/>
      </defs>
      <use xlink:href="#FangSong-46"/>
      <use xlink:href="#FangSong-49" x="50"/>
      <use xlink:href="#FangSong-46" x="100"/>
      <use xlink:href="#FangSong-4f" x="150"/>
     </g>
    </g>
    <g id="line2d_20">
     <path d="M 337.72 280.193375 
L 347.72 280.193375 
L 357.72 280.193375 
" style="fill: none; stroke-dasharray: 1.85,0.8; stroke-dashoffset: 0; stroke: #bf00bf; stroke-width: 0.5"/>
    </g>
    <g id="text_18">
     <!-- OYST -->
     <g transform="translate(365.72 283.693375) scale(0.1 -0.1)">
      <defs>
       <path id="FangSong-59" d="M 2350 3825 
Q 2375 3975 2312 4050 
Q 2250 4125 2075 4125 
L 2025 4125 
L 2025 4275 
L 3000 4275 
L 3000 4125 
L 2925 4125 
Q 2800 4125 2700 4037 
Q 2600 3950 2525 3775 
L 1750 1800 
L 1750 350 
Q 1750 250 1812 200 
Q 1875 150 1975 150 
L 2200 150 
L 2200 0 
L 900 0 
L 900 150 
L 1125 150 
Q 1250 150 1300 200 
Q 1350 250 1350 350 
L 1350 1650 
L 500 3850 
Q 450 3975 375 4050 
Q 300 4125 175 4125 
L 125 4125 
L 125 4275 
L 1225 4275 
L 1225 4125 
L 1075 4125 
Q 925 4125 900 4050 
Q 875 3975 925 3825 
L 1600 1975 
L 1650 1975 
L 2350 3825 
z
" transform="scale(0.015625)"/>
      </defs>
      <use xlink:href="#FangSong-4f"/>
      <use xlink:href="#FangSong-59" x="50"/>
      <use xlink:href="#FangSong-53" x="100"/>
      <use xlink:href="#FangSong-54" x="150"/>
     </g>
    </g>
    <g id="line2d_21">
     <path d="M 337.72 293.638687 
L 347.72 293.638687 
L 357.72 293.638687 
" style="fill: none; stroke-dasharray: 1.85,0.8; stroke-dashoffset: 0; stroke: #bfbf00; stroke-width: 0.5"/>
    </g>
    <g id="text_19">
     <!-- PARALLEL -->
     <g transform="translate(365.72 297.138687) scale(0.1 -0.1)">
      <defs>
       <path id="FangSong-50" d="M 925 2000 
L 925 350 
Q 925 250 987 200 
Q 1050 150 1150 150 
L 1325 150 
L 1325 0 
L 125 0 
L 125 150 
L 300 150 
Q 425 150 475 200 
Q 525 250 525 350 
L 525 3925 
Q 525 4025 475 4075 
Q 425 4125 300 4125 
L 150 4125 
L 150 4275 
L 1625 4275 
Q 2250 4275 2587 3962 
Q 2925 3650 2925 3175 
Q 2925 2600 2562 2300 
Q 2200 2000 1700 2000 
L 925 2000 
z
M 1550 2150 
Q 1925 2150 2212 2375 
Q 2500 2600 2500 3150 
Q 2500 3650 2262 3887 
Q 2025 4125 1500 4125 
L 1150 4125 
Q 1050 4125 987 4075 
Q 925 4025 925 3925 
L 925 2150 
L 1550 2150 
z
" transform="scale(0.015625)"/>
       <path id="FangSong-41" d="M 2000 1600 
L 875 1600 
L 650 650 
Q 600 425 650 287 
Q 700 150 875 150 
L 950 150 
L 950 0 
L 25 0 
L 25 150 
L 100 150 
Q 200 150 275 212 
Q 350 275 375 425 
L 1350 4250 
L 1725 4375 
L 2675 425 
Q 2725 275 2800 212 
Q 2875 150 2975 150 
L 3050 150 
L 3050 0 
L 1975 0 
L 1975 150 
L 2075 150 
Q 2225 150 2262 237 
Q 2300 325 2250 500 
L 2000 1600 
z
M 1475 3825 
L 1450 3825 
L 925 1750 
L 1975 1750 
L 1475 3825 
z
" transform="scale(0.015625)"/>
       <path id="FangSong-45" d="M 175 4125 
L 175 4275 
L 2625 4275 
L 2900 3425 
L 2775 3375 
Q 2575 3750 2350 3937 
Q 2125 4125 1850 4125 
L 1150 4125 
Q 1050 4125 987 4075 
Q 925 4025 925 3925 
L 925 2375 
L 1650 2375 
Q 1900 2375 2012 2500 
Q 2125 2625 2125 2875 
L 2125 3025 
L 2275 3025 
L 2275 1550 
L 2125 1550 
L 2125 1650 
Q 2125 1925 2012 2075 
Q 1900 2225 1650 2225 
L 925 2225 
L 925 350 
Q 925 250 987 200 
Q 1050 150 1150 150 
L 1800 150 
Q 2175 150 2437 362 
Q 2700 575 2850 1025 
L 2975 975 
L 2700 0 
L 150 0 
L 150 150 
L 300 150 
Q 425 150 475 200 
Q 525 250 525 350 
L 525 3925 
Q 525 4025 475 4075 
Q 425 4125 300 4125 
L 175 4125 
z
" transform="scale(0.015625)"/>
      </defs>
      <use xlink:href="#FangSong-50"/>
      <use xlink:href="#FangSong-41" x="50"/>
      <use xlink:href="#FangSong-52" x="100"/>
      <use xlink:href="#FangSong-41" x="150"/>
      <use xlink:href="#FangSong-4c" x="200"/>
      <use xlink:href="#FangSong-4c" x="250"/>
      <use xlink:href="#FangSong-45" x="300"/>
      <use xlink:href="#FangSong-4c" x="350"/>
     </g>
    </g>
   </g>
  </g>
 </g>
 <defs>
  <clipPath id="p0ef5577242">
   <rect x="57.6" y="41.472" width="357.12" height="266.112"/>
  </clipPath>
 </defs>
</svg>
