<?xml version="1.0" encoding="utf-8" standalone="no"?>
<!DOCTYPE svg PUBLIC "-//W3C//DTD SVG 1.1//EN"
  "http://www.w3.org/Graphics/SVG/1.1/DTD/svg11.dtd">
<svg xmlns:xlink="http://www.w3.org/1999/xlink" width="460.8pt" height="345.6pt" viewBox="0 0 460.8 345.6" xmlns="http://www.w3.org/2000/svg" version="1.1">
 <metadata>
  <rdf:RDF xmlns:dc="http://purl.org/dc/elements/1.1/" xmlns:cc="http://creativecommons.org/ns#" xmlns:rdf="http://www.w3.org/1999/02/22-rdf-syntax-ns#">
   <cc:Work>
    <dc:type rdf:resource="http://purl.org/dc/dcmitype/StillImage"/>
    <dc:date>2023-01-19T17:24:44.351330</dc:date>
    <dc:format>image/svg+xml</dc:format>
    <dc:creator>
     <cc:Agent>
      <dc:title>Matplotlib v3.6.3, https://matplotlib.org/</dc:title>
     </cc:Agent>
    </dc:creator>
   </cc:Work>
  </rdf:RDF>
 </metadata>
 <defs>
  <style type="text/css">*{stroke-linejoin: round; stroke-linecap: butt}</style>
 </defs>
 <g id="figure_1">
  <g id="patch_1">
   <path d="M 0 345.6 
L 460.8 345.6 
L 460.8 0 
L 0 0 
z
" style="fill: #ffffff"/>
  </g>
  <g id="axes_1">
   <g id="patch_2">
    <path d="M 57.6 307.584 
L 414.72 307.584 
L 414.72 41.472 
L 57.6 41.472 
z
" style="fill: #ffffff"/>
   </g>
   <g id="matplotlib.axis_1">
    <g id="xtick_1">
     <g id="line2d_1">
      <defs>
       <path id="m9a1b5bd0a4" d="M 0 0 
L 0 3.5 
" style="stroke: #000000; stroke-width: 0.8"/>
      </defs>
      <g>
       <use xlink:href="#m9a1b5bd0a4" x="69.336127" y="307.584" style="stroke: #000000; stroke-width: 0.8"/>
      </g>
     </g>
     <g id="text_1">
      <!-- 0 -->
      <g transform="translate(66.836127 321.576187) scale(0.1 -0.1)">
       <defs>
        <path id="FangSong-30" d="M 1575 4125 
Q 1225 4125 987 3587 
Q 750 3050 750 2150 
Q 750 1200 987 675 
Q 1225 150 1575 150 
Q 1950 150 2162 675 
Q 2375 1200 2375 2150 
Q 2375 3050 2175 3587 
Q 1975 4125 1575 4125 
z
M 1575 -50 
Q 1025 -50 650 525 
Q 275 1100 275 2150 
Q 275 3125 637 3725 
Q 1000 4325 1575 4325 
Q 2125 4325 2487 3750 
Q 2850 3175 2850 2150 
Q 2850 1125 2487 537 
Q 2125 -50 1575 -50 
z
" transform="scale(0.015625)"/>
       </defs>
       <use xlink:href="#FangSong-30"/>
      </g>
     </g>
    </g>
    <g id="xtick_2">
     <g id="line2d_2">
      <g>
       <use xlink:href="#m9a1b5bd0a4" x="114.30213" y="307.584" style="stroke: #000000; stroke-width: 0.8"/>
      </g>
     </g>
     <g id="text_2">
      <!-- 10 -->
      <g transform="translate(109.30213 321.576187) scale(0.1 -0.1)">
       <defs>
        <path id="FangSong-31" d="M 1800 4350 
L 1800 550 
Q 1800 350 1925 250 
Q 2050 150 2275 150 
L 2525 150 
L 2525 0 
L 700 0 
L 700 150 
L 925 150 
Q 1175 150 1287 250 
Q 1400 350 1400 550 
L 1400 3575 
Q 1400 3675 1337 3737 
Q 1275 3800 1150 3800 
L 700 3800 
L 700 3950 
L 925 3950 
Q 1225 3950 1412 4050 
Q 1600 4150 1700 4350 
L 1800 4350 
z
" transform="scale(0.015625)"/>
       </defs>
       <use xlink:href="#FangSong-31"/>
       <use xlink:href="#FangSong-30" x="50"/>
      </g>
     </g>
    </g>
    <g id="xtick_3">
     <g id="line2d_3">
      <g>
       <use xlink:href="#m9a1b5bd0a4" x="159.268134" y="307.584" style="stroke: #000000; stroke-width: 0.8"/>
      </g>
     </g>
     <g id="text_3">
      <!-- 20 -->
      <g transform="translate(154.268134 321.576187) scale(0.1 -0.1)">
       <defs>
        <path id="FangSong-32" d="M 2300 3225 
Q 2300 3675 2100 3912 
Q 1900 4150 1500 4150 
Q 1200 4150 987 3987 
Q 775 3825 775 3575 
Q 775 3425 862 3325 
Q 950 3225 950 3125 
Q 950 3000 887 2937 
Q 825 2875 700 2875 
Q 550 2875 462 2962 
Q 375 3050 375 3250 
Q 375 3775 750 4050 
Q 1125 4325 1550 4325 
Q 2150 4325 2437 4025 
Q 2725 3725 2725 3275 
Q 2725 2975 2587 2675 
Q 2450 2375 2150 2100 
Q 1425 1400 1037 962 
Q 650 525 575 375 
L 2050 375 
Q 2275 375 2425 550 
Q 2575 725 2625 1075 
L 2775 1075 
L 2625 0 
L 300 0 
L 300 325 
Q 425 550 712 900 
Q 1000 1250 1475 1725 
Q 1900 2150 2100 2525 
Q 2300 2900 2300 3225 
z
" transform="scale(0.015625)"/>
       </defs>
       <use xlink:href="#FangSong-32"/>
       <use xlink:href="#FangSong-30" x="50"/>
      </g>
     </g>
    </g>
    <g id="xtick_4">
     <g id="line2d_4">
      <g>
       <use xlink:href="#m9a1b5bd0a4" x="204.234137" y="307.584" style="stroke: #000000; stroke-width: 0.8"/>
      </g>
     </g>
     <g id="text_4">
      <!-- 30 -->
      <g transform="translate(199.234137 321.576187) scale(0.1 -0.1)">
       <defs>
        <path id="FangSong-33" d="M 2775 1150 
Q 2775 675 2425 312 
Q 2075 -50 1450 -50 
Q 1000 -50 675 200 
Q 350 450 350 775 
Q 350 925 450 1037 
Q 550 1150 650 1150 
Q 800 1150 862 1037 
Q 925 925 925 850 
Q 925 725 875 637 
Q 825 550 825 475 
Q 825 325 1012 225 
Q 1200 125 1425 125 
Q 1875 125 2100 387 
Q 2325 650 2325 1200 
Q 2325 1650 2087 1925 
Q 1850 2200 1200 2200 
L 1200 2375 
Q 1700 2375 1937 2612 
Q 2175 2850 2175 3275 
Q 2175 3625 1987 3887 
Q 1800 4150 1400 4150 
Q 1225 4150 1025 4062 
Q 825 3975 825 3775 
Q 825 3575 875 3525 
Q 925 3475 925 3400 
Q 925 3275 875 3200 
Q 825 3125 700 3125 
Q 600 3125 512 3200 
Q 425 3275 425 3475 
Q 425 3850 750 4087 
Q 1075 4325 1500 4325 
Q 2000 4325 2300 4012 
Q 2600 3700 2600 3350 
Q 2600 2975 2412 2712 
Q 2225 2450 1825 2325 
Q 2375 2125 2575 1800 
Q 2775 1475 2775 1150 
z
" transform="scale(0.015625)"/>
       </defs>
       <use xlink:href="#FangSong-33"/>
       <use xlink:href="#FangSong-30" x="50"/>
      </g>
     </g>
    </g>
    <g id="xtick_5">
     <g id="line2d_5">
      <g>
       <use xlink:href="#m9a1b5bd0a4" x="249.200141" y="307.584" style="stroke: #000000; stroke-width: 0.8"/>
      </g>
     </g>
     <g id="text_5">
      <!-- 40 -->
      <g transform="translate(244.200141 321.576187) scale(0.1 -0.1)">
       <defs>
        <path id="FangSong-34" d="M 2275 475 
Q 2275 300 2375 225 
Q 2475 150 2650 150 
L 2875 150 
L 2875 0 
L 1225 0 
L 1225 150 
L 1500 150 
Q 1700 150 1787 225 
Q 1875 300 1875 475 
L 1875 1300 
L 200 1300 
L 200 1425 
L 2025 4325 
L 2275 4325 
L 2275 1450 
L 2950 1450 
L 2950 1300 
L 2275 1300 
L 2275 475 
z
M 1850 3700 
L 425 1450 
L 1875 1450 
L 1875 3700 
L 1850 3700 
z
" transform="scale(0.015625)"/>
       </defs>
       <use xlink:href="#FangSong-34"/>
       <use xlink:href="#FangSong-30" x="50"/>
      </g>
     </g>
    </g>
    <g id="xtick_6">
     <g id="line2d_6">
      <g>
       <use xlink:href="#m9a1b5bd0a4" x="294.166145" y="307.584" style="stroke: #000000; stroke-width: 0.8"/>
      </g>
     </g>
     <g id="text_6">
      <!-- 50 -->
      <g transform="translate(289.166145 321.576187) scale(0.1 -0.1)">
       <defs>
        <path id="FangSong-35" d="M 1700 2750 
Q 2175 2750 2475 2387 
Q 2775 2025 2775 1425 
Q 2775 750 2462 350 
Q 2150 -50 1500 -50 
Q 1050 -50 700 212 
Q 350 475 350 850 
Q 350 1000 437 1112 
Q 525 1225 675 1225 
Q 825 1225 875 1125 
Q 925 1025 925 950 
Q 925 800 850 712 
Q 775 625 775 525 
Q 775 325 1012 225 
Q 1250 125 1525 125 
Q 1925 125 2137 450 
Q 2350 775 2350 1375 
Q 2350 1875 2162 2187 
Q 1975 2500 1600 2500 
Q 1325 2500 1125 2400 
Q 925 2300 750 1975 
L 525 2000 
L 650 4275 
L 2700 4275 
L 2625 3900 
L 825 3900 
L 725 2250 
Q 975 2600 1212 2675 
Q 1450 2750 1700 2750 
z
" transform="scale(0.015625)"/>
       </defs>
       <use xlink:href="#FangSong-35"/>
       <use xlink:href="#FangSong-30" x="50"/>
      </g>
     </g>
    </g>
    <g id="xtick_7">
     <g id="line2d_7">
      <g>
       <use xlink:href="#m9a1b5bd0a4" x="339.132148" y="307.584" style="stroke: #000000; stroke-width: 0.8"/>
      </g>
     </g>
     <g id="text_7">
      <!-- 60 -->
      <g transform="translate(334.132148 321.576187) scale(0.1 -0.1)">
       <defs>
        <path id="FangSong-36" d="M 750 1700 
Q 750 950 1012 537 
Q 1275 125 1650 125 
Q 2025 125 2225 400 
Q 2425 675 2425 1425 
Q 2425 1925 2212 2200 
Q 2000 2475 1700 2475 
Q 1425 2475 1187 2312 
Q 950 2150 750 1700 
z
M 1725 2725 
Q 2325 2725 2587 2325 
Q 2850 1925 2850 1425 
Q 2850 675 2487 312 
Q 2125 -50 1650 -50 
Q 975 -50 625 462 
Q 275 975 275 1950 
Q 275 3100 700 3712 
Q 1125 4325 1850 4325 
Q 2200 4325 2412 4125 
Q 2625 3925 2625 3775 
Q 2625 3625 2562 3550 
Q 2500 3475 2350 3475 
Q 2225 3475 2162 3537 
Q 2100 3600 2100 3725 
Q 2100 3775 2112 3825 
Q 2125 3875 2125 3925 
Q 2125 4025 2050 4087 
Q 1975 4150 1775 4150 
Q 1350 4150 1050 3762 
Q 750 3375 750 2075 
Q 900 2400 1162 2562 
Q 1425 2725 1725 2725 
z
" transform="scale(0.015625)"/>
       </defs>
       <use xlink:href="#FangSong-36"/>
       <use xlink:href="#FangSong-30" x="50"/>
      </g>
     </g>
    </g>
    <g id="xtick_8">
     <g id="line2d_8">
      <g>
       <use xlink:href="#m9a1b5bd0a4" x="384.098152" y="307.584" style="stroke: #000000; stroke-width: 0.8"/>
      </g>
     </g>
     <g id="text_8">
      <!-- 70 -->
      <g transform="translate(379.098152 321.576187) scale(0.1 -0.1)">
       <defs>
        <path id="FangSong-37" d="M 2800 4100 
Q 2275 3250 1962 2437 
Q 1650 1625 1650 1025 
Q 1650 925 1662 737 
Q 1675 550 1675 300 
Q 1675 100 1612 25 
Q 1550 -50 1400 -50 
Q 1275 -50 1187 37 
Q 1100 125 1100 350 
Q 1100 825 1312 1525 
Q 1525 2225 2450 3900 
L 1200 3900 
Q 925 3900 762 3725 
Q 600 3550 525 3200 
L 375 3225 
L 550 4275 
L 2800 4275 
L 2800 4100 
z
" transform="scale(0.015625)"/>
       </defs>
       <use xlink:href="#FangSong-37"/>
       <use xlink:href="#FangSong-30" x="50"/>
      </g>
     </g>
    </g>
    <g id="text_9">
     <!-- Latency -->
     <g transform="translate(218.66 333.974625) scale(0.1 -0.1)">
      <defs>
       <path id="FangSong-4c" d="M 975 350 
Q 975 250 1037 200 
Q 1100 150 1200 150 
L 1875 150 
Q 2225 150 2475 362 
Q 2725 575 2850 1025 
L 2975 975 
L 2750 0 
L 175 0 
L 175 150 
L 350 150 
Q 475 150 525 200 
Q 575 250 575 350 
L 575 3925 
Q 575 4025 525 4075 
Q 475 4125 350 4125 
L 200 4125 
L 200 4275 
L 1375 4275 
L 1375 4125 
L 1200 4125 
Q 1100 4125 1037 4075 
Q 975 4025 975 3925 
L 975 350 
z
" transform="scale(0.015625)"/>
       <path id="FangSong-61" d="M 1200 -25 
Q 750 -25 500 187 
Q 250 400 250 675 
Q 250 1125 637 1412 
Q 1025 1700 2175 1825 
L 2175 2125 
Q 2175 2375 2062 2537 
Q 1950 2700 1550 2700 
Q 1125 2700 950 2562 
Q 775 2425 825 2275 
Q 875 2175 825 2075 
Q 775 1975 625 1975 
Q 525 1975 462 2037 
Q 400 2100 400 2225 
Q 400 2450 725 2650 
Q 1050 2850 1525 2850 
Q 2025 2850 2275 2662 
Q 2525 2475 2525 2125 
L 2525 475 
Q 2525 275 2562 237 
Q 2600 200 2700 200 
Q 2825 200 2875 312 
Q 2925 425 2925 625 
L 3050 625 
Q 3050 275 2925 137 
Q 2800 0 2600 0 
Q 2425 0 2325 75 
Q 2225 150 2175 325 
Q 1925 150 1712 62 
Q 1500 -25 1200 -25 
z
M 675 750 
Q 675 525 812 337 
Q 950 150 1250 150 
Q 1475 150 1700 237 
Q 1925 325 2175 500 
L 2175 1675 
Q 1325 1575 1000 1337 
Q 675 1100 675 750 
z
" transform="scale(0.015625)"/>
       <path id="FangSong-74" d="M 1475 800 
Q 1475 450 1600 325 
Q 1725 200 1975 200 
Q 2225 200 2375 362 
Q 2525 525 2575 825 
L 2700 775 
Q 2650 425 2437 200 
Q 2225 -25 1875 -25 
Q 1500 -25 1312 200 
Q 1125 425 1125 900 
L 1125 2650 
L 375 2650 
L 375 2800 
L 575 2800 
Q 875 2800 1062 2987 
Q 1250 3175 1300 3575 
L 1325 3775 
L 1475 3775 
L 1475 2800 
L 2475 2800 
L 2475 2650 
L 1475 2650 
L 1475 800 
z
" transform="scale(0.015625)"/>
       <path id="FangSong-65" d="M 2375 1550 
Q 2400 2100 2187 2387 
Q 1975 2675 1625 2675 
Q 1250 2675 1012 2375 
Q 775 2075 775 1550 
L 2375 1550 
z
M 775 1400 
Q 775 725 1037 437 
Q 1300 150 1725 150 
Q 2050 150 2275 337 
Q 2500 525 2600 800 
L 2725 750 
Q 2650 475 2387 212 
Q 2125 -50 1675 -50 
Q 1100 -50 737 325 
Q 375 700 375 1400 
Q 375 2025 737 2437 
Q 1100 2850 1625 2850 
Q 2100 2850 2450 2525 
Q 2800 2200 2800 1400 
L 775 1400 
z
" transform="scale(0.015625)"/>
       <path id="FangSong-6e" d="M 175 0 
L 175 150 
L 300 150 
Q 425 150 475 200 
Q 525 250 525 350 
L 525 2500 
Q 525 2575 500 2612 
Q 475 2650 400 2650 
L 200 2650 
L 200 2800 
L 375 2800 
Q 500 2800 612 2825 
Q 725 2850 825 2925 
L 875 2925 
L 875 2350 
Q 1100 2600 1325 2725 
Q 1550 2850 1800 2850 
Q 2225 2850 2425 2625 
Q 2625 2400 2625 1950 
L 2625 350 
Q 2625 250 2687 200 
Q 2750 150 2850 150 
L 2975 150 
L 2975 0 
L 1925 0 
L 1925 150 
L 2050 150 
Q 2175 150 2225 200 
Q 2275 250 2275 350 
L 2275 2025 
Q 2275 2325 2150 2487 
Q 2025 2650 1775 2650 
Q 1550 2650 1312 2500 
Q 1075 2350 875 2075 
L 875 350 
Q 875 250 937 200 
Q 1000 150 1100 150 
L 1225 150 
L 1225 0 
L 175 0 
z
" transform="scale(0.015625)"/>
       <path id="FangSong-63" d="M 2125 2125 
Q 2125 2200 2137 2225 
Q 2150 2250 2175 2325 
Q 2200 2425 2075 2562 
Q 1950 2700 1650 2700 
Q 1275 2700 1012 2337 
Q 750 1975 750 1375 
Q 750 825 975 487 
Q 1200 150 1725 150 
Q 2075 150 2312 375 
Q 2550 600 2650 900 
L 2775 850 
Q 2675 475 2400 212 
Q 2125 -50 1650 -50 
Q 1050 -50 700 325 
Q 350 700 350 1400 
Q 350 2025 725 2437 
Q 1100 2850 1700 2850 
Q 2125 2850 2362 2625 
Q 2600 2400 2600 2175 
Q 2600 2025 2537 1962 
Q 2475 1900 2350 1900 
Q 2250 1900 2187 1962 
Q 2125 2025 2125 2125 
z
" transform="scale(0.015625)"/>
       <path id="FangSong-79" d="M 1625 700 
L 1675 700 
L 2225 2375 
Q 2275 2500 2212 2575 
Q 2150 2650 2050 2650 
L 1900 2650 
L 1900 2800 
L 2950 2800 
L 2950 2650 
L 2800 2650 
Q 2700 2650 2600 2575 
Q 2500 2500 2450 2375 
L 1600 -100 
Q 1475 -500 1287 -712 
Q 1100 -925 800 -950 
Q 650 -950 537 -875 
Q 425 -800 425 -675 
Q 425 -575 487 -500 
Q 550 -425 675 -425 
Q 775 -425 837 -525 
Q 900 -625 1050 -587 
Q 1200 -550 1250 -425 
Q 1300 -350 1375 -162 
Q 1450 25 1500 225 
L 650 2425 
Q 625 2525 537 2587 
Q 450 2650 350 2650 
L 250 2650 
L 250 2800 
L 1300 2800 
L 1300 2650 
L 1200 2650 
Q 1100 2650 1050 2587 
Q 1000 2525 1025 2400 
L 1625 700 
z
" transform="scale(0.015625)"/>
      </defs>
      <use xlink:href="#FangSong-4c"/>
      <use xlink:href="#FangSong-61" x="50"/>
      <use xlink:href="#FangSong-74" x="100"/>
      <use xlink:href="#FangSong-65" x="150"/>
      <use xlink:href="#FangSong-6e" x="200"/>
      <use xlink:href="#FangSong-63" x="250"/>
      <use xlink:href="#FangSong-79" x="300"/>
     </g>
    </g>
   </g>
   <g id="matplotlib.axis_2">
    <g id="ytick_1">
     <g id="line2d_9">
      <defs>
       <path id="m2ece9b0b9f" d="M 0 0 
L -3.5 0 
" style="stroke: #000000; stroke-width: 0.8"/>
      </defs>
      <g>
       <use xlink:href="#m2ece9b0b9f" x="57.6" y="295.488" style="stroke: #000000; stroke-width: 0.8"/>
      </g>
     </g>
     <g id="text_10">
      <!-- 0% -->
      <g transform="translate(40.6 298.984094) scale(0.1 -0.1)">
       <defs>
        <path id="FangSong-25" d="M 725 4150 
Q 575 4150 475 3950 
Q 375 3750 375 3200 
Q 375 2575 487 2387 
Q 600 2200 725 2200 
Q 900 2200 987 2425 
Q 1075 2650 1075 3200 
Q 1075 3650 1012 3900 
Q 950 4150 725 4150 
z
M 1400 3175 
Q 1400 2725 1250 2387 
Q 1100 2050 725 2050 
Q 425 2050 237 2350 
Q 50 2650 50 3175 
Q 50 3725 250 4025 
Q 450 4325 725 4325 
Q 1025 4325 1212 4012 
Q 1400 3700 1400 3175 
z
M 2700 1100 
Q 2700 1525 2625 1800 
Q 2550 2075 2350 2075 
Q 2200 2075 2100 1837 
Q 2000 1600 2000 1100 
Q 2000 475 2112 300 
Q 2225 125 2350 125 
Q 2525 125 2612 337 
Q 2700 550 2700 1100 
z
M 3025 1075 
Q 3025 575 2850 262 
Q 2675 -50 2350 -50 
Q 2075 -50 1875 262 
Q 1675 575 1675 1075 
Q 1675 1625 1875 1937 
Q 2075 2250 2350 2250 
Q 2650 2250 2837 1925 
Q 3025 1600 3025 1075 
z
M 2500 4250 
L 700 -50 
L 550 25 
L 2325 4325 
L 2500 4250 
z
" transform="scale(0.015625)"/>
       </defs>
       <use xlink:href="#FangSong-30"/>
       <use xlink:href="#FangSong-25" x="50"/>
      </g>
     </g>
    </g>
    <g id="ytick_2">
     <g id="line2d_10">
      <g>
       <use xlink:href="#m2ece9b0b9f" x="57.6" y="247.104" style="stroke: #000000; stroke-width: 0.8"/>
      </g>
     </g>
     <g id="text_11">
      <!-- 20% -->
      <g transform="translate(35.6 250.600094) scale(0.1 -0.1)">
       <use xlink:href="#FangSong-32"/>
       <use xlink:href="#FangSong-30" x="50"/>
       <use xlink:href="#FangSong-25" x="100"/>
      </g>
     </g>
    </g>
    <g id="ytick_3">
     <g id="line2d_11">
      <g>
       <use xlink:href="#m2ece9b0b9f" x="57.6" y="198.72" style="stroke: #000000; stroke-width: 0.8"/>
      </g>
     </g>
     <g id="text_12">
      <!-- 40% -->
      <g transform="translate(35.6 202.216094) scale(0.1 -0.1)">
       <use xlink:href="#FangSong-34"/>
       <use xlink:href="#FangSong-30" x="50"/>
       <use xlink:href="#FangSong-25" x="100"/>
      </g>
     </g>
    </g>
    <g id="ytick_4">
     <g id="line2d_12">
      <g>
       <use xlink:href="#m2ece9b0b9f" x="57.6" y="150.336" style="stroke: #000000; stroke-width: 0.8"/>
      </g>
     </g>
     <g id="text_13">
      <!-- 60% -->
      <g transform="translate(35.6 153.832094) scale(0.1 -0.1)">
       <use xlink:href="#FangSong-36"/>
       <use xlink:href="#FangSong-30" x="50"/>
       <use xlink:href="#FangSong-25" x="100"/>
      </g>
     </g>
    </g>
    <g id="ytick_5">
     <g id="line2d_13">
      <g>
       <use xlink:href="#m2ece9b0b9f" x="57.6" y="101.952" style="stroke: #000000; stroke-width: 0.8"/>
      </g>
     </g>
     <g id="text_14">
      <!-- 80% -->
      <g transform="translate(35.6 105.448094) scale(0.1 -0.1)">
       <defs>
        <path id="FangSong-38" d="M 600 1025 
Q 600 625 862 375 
Q 1125 125 1525 125 
Q 2000 125 2212 375 
Q 2425 625 2425 1000 
Q 2425 1325 2125 1625 
Q 1825 1925 1225 2175 
Q 925 1975 762 1675 
Q 600 1375 600 1025 
z
M 2800 1075 
Q 2800 600 2450 275 
Q 2100 -50 1525 -50 
Q 1000 -50 625 275 
Q 250 600 250 1025 
Q 250 1450 462 1750 
Q 675 2050 1075 2275 
Q 725 2450 537 2712 
Q 350 2975 350 3300 
Q 350 3725 675 4025 
Q 1000 4325 1575 4325 
Q 2100 4325 2425 4025 
Q 2750 3725 2750 3300 
Q 2750 3000 2562 2737 
Q 2375 2475 1975 2275 
Q 2400 2025 2600 1725 
Q 2800 1425 2800 1075 
z
M 2400 3275 
Q 2400 3625 2200 3887 
Q 2000 4150 1575 4150 
Q 1100 4150 900 3900 
Q 700 3650 700 3375 
Q 700 3100 987 2837 
Q 1275 2575 1800 2375 
Q 2100 2525 2250 2750 
Q 2400 2975 2400 3275 
z
" transform="scale(0.015625)"/>
       </defs>
       <use xlink:href="#FangSong-38"/>
       <use xlink:href="#FangSong-30" x="50"/>
       <use xlink:href="#FangSong-25" x="100"/>
      </g>
     </g>
    </g>
    <g id="ytick_6">
     <g id="line2d_14">
      <g>
       <use xlink:href="#m2ece9b0b9f" x="57.6" y="53.568" style="stroke: #000000; stroke-width: 0.8"/>
      </g>
     </g>
     <g id="text_15">
      <!-- 100% -->
      <g transform="translate(30.6 57.064094) scale(0.1 -0.1)">
       <use xlink:href="#FangSong-31"/>
       <use xlink:href="#FangSong-30" x="50"/>
       <use xlink:href="#FangSong-30" x="100"/>
       <use xlink:href="#FangSong-25" x="150"/>
      </g>
     </g>
    </g>
    <g id="text_16">
     <!-- 累计完成比例 -->
     <g transform="translate(25.154688 204.528) rotate(-90) scale(0.1 -0.1)">
      <defs>
       <path id="FangSong-7d2f" d="M 4525 4975 
L 4700 5225 
L 5000 4950 
L 4825 4775 
L 4625 3550 
L 4850 3300 
L 3175 3150 
L 3375 2975 
Q 3200 2925 2862 2725 
Q 2525 2525 2075 2275 
L 3475 2500 
Q 3750 2675 3900 2800 
Q 4050 2925 4100 3075 
L 4175 3100 
L 4325 2700 
Q 4200 2675 3500 2237 
Q 2800 1800 2275 1550 
L 4375 1825 
L 3900 2175 
L 4000 2275 
Q 4625 1900 4950 1725 
Q 4975 1475 4925 1225 
Q 4800 1375 4500 1675 
L 3250 1475 
L 3525 1300 
Q 3375 1200 3375 875 
L 3375 25 
Q 3375 -325 3225 -625 
Q 2975 -325 2400 150 
L 2450 250 
L 3050 -75 
Q 3150 -125 3150 0 
L 3150 925 
Q 3150 1300 3125 1450 
Q 1875 1275 1575 1175 
L 1325 1425 
L 1850 1550 
Q 2175 1700 3250 2300 
Q 2075 2100 1875 2000 
L 1575 2250 
L 1800 2300 
Q 2150 2475 3025 3125 
L 2000 3025 
Q 2000 2675 1950 2700 
Q 1900 2725 1650 3025 
Q 1725 3250 1725 3425 
L 1650 4400 
Q 1625 4675 1525 4950 
L 1625 5000 
L 1875 4675 
L 4525 4975 
z
M 3150 3375 
L 3150 3875 
Q 2525 3800 2400 3725 
L 2100 3975 
Q 2500 3975 3150 4075 
L 3150 4600 
L 1900 4450 
L 1975 3250 
L 3150 3375 
z
M 3375 4100 
Q 3950 4175 4025 4225 
L 4275 4000 
Q 3950 3975 3375 3900 
L 3375 3400 
L 4400 3500 
L 4575 4750 
L 3375 4600 
L 3375 4100 
z
M 5450 -75 
Q 4975 325 3875 1025 
L 3950 1125 
Q 4850 700 5350 500 
Q 5425 250 5450 -75 
z
M 800 -250 
Q 1350 75 1825 500 
Q 2300 925 2325 1125 
L 2400 1150 
L 2550 725 
Q 2425 700 2075 425 
Q 1725 150 875 -350 
L 800 -250 
z
" transform="scale(0.015625)"/>
       <path id="FangSong-8ba1" d="M 4075 4200 
Q 4100 4825 3900 5100 
L 3975 5150 
L 4450 4725 
Q 4275 4600 4300 4200 
L 4275 3000 
Q 5525 3200 5575 3250 
L 5950 2950 
Q 5725 2975 4275 2800 
L 4250 -425 
Q 4250 -700 4150 -575 
L 3875 -150 
Q 4050 50 4025 300 
L 4050 2750 
Q 2975 2625 2900 2575 
L 2525 2825 
Q 2850 2825 4050 2975 
L 4075 4200 
z
M 1775 3250 
L 2100 2950 
L 1900 2750 
L 1875 550 
L 2825 1250 
L 2875 1175 
Q 1875 250 1750 -25 
L 1525 275 
Q 1625 375 1650 625 
L 1675 2775 
Q 900 2625 750 2550 
L 425 2800 
Q 850 2825 1650 3000 
L 1775 3250 
z
M 2025 3800 
Q 1825 4300 1325 4950 
L 1375 5025 
Q 1925 4575 2175 4300 
Q 2125 4000 2025 3800 
z
" transform="scale(0.015625)"/>
       <path id="FangSong-5b8c" d="M 5375 2050 
Q 4925 2050 3550 1950 
L 3850 1750 
Q 3725 1600 3700 1375 
L 3675 275 
Q 3650 -125 4075 -175 
L 4925 -175 
Q 5300 -150 5312 62 
Q 5325 275 5325 1025 
L 5425 1025 
Q 5450 750 5475 337 
Q 5500 -75 5700 -275 
Q 5400 -375 5000 -400 
L 4075 -400 
Q 3425 -350 3425 150 
L 3475 1450 
Q 3475 1775 3425 1925 
L 2675 1850 
L 2875 1650 
Q 2750 1550 2600 1200 
Q 2450 850 2025 312 
Q 1600 -225 600 -675 
L 550 -575 
Q 1525 -100 1987 625 
Q 2450 1350 2525 1850 
Q 1550 1775 1500 1725 
L 1150 2025 
Q 1625 2025 3212 2150 
Q 4800 2275 5000 2350 
L 5375 2050 
z
M 1650 3650 
Q 1550 3125 1325 2875 
L 1150 3250 
Q 1450 3425 1575 4400 
L 1675 4400 
L 1675 3900 
L 5025 4150 
L 5175 4400 
L 5525 4075 
Q 5375 4050 4725 3250 
L 4650 3325 
L 4975 3900 
L 1650 3650 
z
M 4475 2975 
Q 4225 2975 3412 2875 
Q 2600 2775 2400 2725 
L 2050 2975 
Q 2575 2975 3200 3075 
Q 3825 3175 4150 3225 
L 4475 2975 
z
M 3550 4575 
Q 3475 4350 3300 4150 
Q 3225 4475 2900 5200 
L 2975 5250 
Q 3350 4825 3550 4575 
z
" transform="scale(0.015625)"/>
       <path id="FangSong-6210" d="M 5575 975 
Q 5600 -150 5750 -625 
Q 4650 -225 4000 1075 
Q 3625 650 2975 225 
L 2925 325 
Q 3525 825 3900 1300 
Q 3600 2275 3500 3300 
L 1875 3125 
Q 1875 2625 1825 2100 
L 2725 2250 
L 2875 2475 
L 3175 2225 
L 3000 2050 
Q 2850 475 2575 -125 
Q 2225 400 1825 775 
L 1875 850 
L 2475 400 
Q 2650 875 2750 2000 
L 1825 1850 
Q 1675 250 600 -650 
L 525 -600 
Q 1250 250 1425 987 
Q 1600 1725 1625 2612 
Q 1650 3500 1550 3800 
L 1625 3825 
L 1850 3350 
L 3450 3525 
Q 3400 4150 3375 4562 
Q 3350 4975 3225 5200 
L 3275 5225 
L 3725 4900 
Q 3625 4925 3637 4575 
Q 3650 4225 3675 3550 
Q 4900 3700 5050 3775 
L 5325 3475 
Q 4775 3475 3725 3325 
Q 3775 2425 4075 1525 
Q 4500 2025 4687 2325 
Q 4875 2625 4800 2850 
L 4875 2875 
L 5125 2325 
Q 5075 2400 4850 2125 
Q 4625 1850 4150 1275 
Q 4625 225 5425 -125 
L 5475 975 
L 5575 975 
z
M 4100 5000 
Q 4525 4700 4875 4450 
Q 4825 4250 4750 4025 
Q 4400 4525 4025 4950 
L 4100 5000 
z
" transform="scale(0.015625)"/>
       <path id="FangSong-6bd4" d="M 3500 2125 
Q 3925 2425 4487 2975 
Q 5050 3525 4950 3750 
L 5025 3775 
L 5250 3225 
Q 5175 3250 4875 3000 
Q 4575 2750 4287 2525 
Q 4000 2300 3500 1900 
L 3500 575 
Q 3475 -100 4150 -100 
L 4800 -100 
Q 5275 -100 5375 12 
Q 5475 125 5450 1350 
L 5575 1350 
Q 5600 825 5637 412 
Q 5675 0 5800 -175 
Q 5375 -325 4800 -325 
L 4150 -325 
Q 3225 -350 3275 550 
L 3275 4300 
Q 3275 4875 3150 5150 
L 3200 5200 
L 3625 4850 
Q 3475 4825 3500 4250 
L 3500 2125 
z
M 1500 2575 
Q 1900 2625 2337 2712 
Q 2775 2800 2800 2850 
L 3075 2600 
Q 2875 2575 2350 2475 
Q 1825 2375 1775 2325 
L 1500 2525 
L 1500 150 
L 2925 1075 
L 2975 1025 
Q 1550 -75 1375 -350 
L 1200 0 
Q 1275 75 1275 350 
L 1275 3925 
Q 1275 4475 1150 4750 
L 1200 4800 
L 1625 4400 
Q 1475 4375 1500 3925 
L 1500 2575 
z
" transform="scale(0.015625)"/>
       <path id="FangSong-4f8b" d="M 3050 2000 
Q 3025 1800 2975 1600 
Q 2775 1900 2525 2250 
Q 2300 1875 2025 1550 
L 1925 1625 
Q 2675 2725 2975 3975 
Q 2475 3925 2375 3875 
L 2050 4125 
Q 2375 4125 3162 4225 
Q 3950 4325 4100 4450 
L 4350 4125 
Q 4050 4150 3100 3975 
L 3300 3700 
Q 3200 3675 3125 3525 
Q 3050 3375 2925 3050 
L 3625 3150 
L 3775 3350 
L 4050 3075 
L 3875 2900 
Q 3300 825 1850 -225 
L 1800 -100 
Q 3100 975 3625 2900 
Q 3150 2825 3025 2775 
L 2875 2925 
Q 2775 2675 2575 2350 
Q 2900 2125 3050 2000 
z
M 1275 -150 
Q 1425 25 1400 225 
L 1450 3425 
Q 1025 2800 475 2225 
L 400 2325 
Q 875 2850 1450 3887 
Q 2025 4925 1925 5150 
L 2000 5175 
L 2250 4700 
Q 2200 4725 2062 4475 
Q 1925 4225 1675 3800 
L 1625 -325 
Q 1650 -675 1525 -600 
L 1275 -150 
z
M 5475 250 
Q 5475 -300 5300 -650 
Q 4900 -100 4300 375 
L 4350 475 
L 5200 -75 
Q 5250 250 5250 575 
L 5250 4350 
Q 5275 4950 5100 5150 
L 5175 5225 
L 5600 4850 
Q 5450 4775 5475 4325 
L 5475 250 
z
M 4300 1525 
Q 4400 1650 4400 1900 
L 4400 3075 
Q 4425 3525 4300 3750 
L 4350 3800 
L 4725 3450 
Q 4600 3350 4625 3025 
L 4625 1375 
Q 4625 1050 4550 1125 
L 4300 1525 
z
" transform="scale(0.015625)"/>
      </defs>
      <use xlink:href="#FangSong-7d2f"/>
      <use xlink:href="#FangSong-8ba1" x="100"/>
      <use xlink:href="#FangSong-5b8c" x="200"/>
      <use xlink:href="#FangSong-6210" x="300"/>
      <use xlink:href="#FangSong-6bd4" x="400"/>
      <use xlink:href="#FangSong-4f8b" x="500"/>
     </g>
    </g>
   </g>
   <g id="line2d_15">
    <path d="M 73.832727 295.488 
L 74.282387 190.49472 
L 75.181707 190.49472 
L 75.631367 190.2528 
L 76.081027 190.2528 
L 76.530687 189.52704 
L 78.778988 189.52704 
L 79.678308 188.55936 
L 80.127968 188.31744 
L 80.577628 188.31744 
L 81.476948 187.34976 
L 82.376268 187.34976 
L 82.825928 186.624 
L 84.174908 186.624 
L 84.624568 186.14016 
L 85.523888 185.65632 
L 85.973548 184.68864 
L 86.872868 184.68864 
L 87.322528 183.96288 
L 87.772188 183.47904 
L 88.671508 182.02752 
L 89.121168 181.7856 
L 89.570829 181.05984 
L 90.020489 180.576 
L 90.470149 180.33408 
L 90.919809 179.60832 
L 91.369469 179.12448 
L 91.819129 178.88256 
L 92.268789 177.91488 
L 93.168109 177.91488 
L 94.067429 177.43104 
L 94.517089 176.9472 
L 95.416409 174.76992 
L 95.866069 174.528 
L 96.315729 174.528 
L 97.664709 173.80224 
L 98.564029 172.83456 
L 99.013689 171.86688 
L 99.463349 171.62496 
L 101.261989 168.72192 
L 102.161309 167.75424 
L 102.61097 167.51232 
L 103.06063 166.54464 
L 104.40961 165.81888 
L 104.85927 164.8512 
L 105.30893 164.60928 
L 105.75859 164.60928 
L 106.20825 164.36736 
L 106.65791 163.6416 
L 107.55723 161.94816 
L 108.00689 161.94816 
L 108.45655 161.2224 
L 108.90621 160.98048 
L 109.35587 160.49664 
L 109.80553 159.77088 
L 110.25519 159.52896 
L 110.70485 159.04512 
L 111.60417 158.56128 
L 112.50349 157.5936 
L 113.40281 157.5936 
L 114.30213 157.10976 
L 115.201451 157.10976 
L 115.651111 155.90016 
L 116.550431 155.41632 
L 117.000091 154.69056 
L 117.449751 154.20672 
L 118.798731 153.48096 
L 119.248391 153.48096 
L 119.698051 152.7552 
L 120.597371 152.27136 
L 121.047031 152.27136 
L 121.496691 151.78752 
L 121.946351 151.5456 
L 122.396011 151.06176 
L 122.845671 150.81984 
L 123.744991 150.81984 
L 125.093971 150.09408 
L 126.442951 148.64256 
L 127.342271 148.15872 
L 127.791932 147.67488 
L 130.939552 145.98144 
L 131.389212 145.25568 
L 131.838872 145.01376 
L 132.738192 144.04608 
L 133.187852 143.80416 
L 133.637512 143.0784 
L 134.087172 142.59456 
L 134.536832 142.35264 
L 134.986492 141.62688 
L 135.436152 141.62688 
L 137.684452 140.41728 
L 138.134112 140.41728 
L 138.583772 139.69152 
L 139.033432 139.69152 
L 139.483092 139.4496 
L 139.932752 138.72384 
L 140.832073 138.24 
L 141.281733 137.75616 
L 141.731393 137.75616 
L 142.181053 137.51424 
L 143.530033 137.51424 
L 143.979693 137.27232 
L 144.879013 136.30464 
L 145.328673 136.06272 
L 145.778333 135.57888 
L 146.227993 134.85312 
L 146.677653 134.6112 
L 147.127313 134.12736 
L 148.026633 134.12736 
L 148.925953 133.64352 
L 149.375613 132.91776 
L 149.825273 132.67584 
L 150.274933 131.95008 
L 150.724593 131.70816 
L 151.174253 131.22432 
L 151.623913 130.9824 
L 152.073573 130.9824 
L 152.523233 130.49856 
L 153.872214 129.7728 
L 154.771534 128.80512 
L 156.570174 127.83744 
L 157.019834 127.11168 
L 157.919154 126.144 
L 158.368814 125.90208 
L 158.818474 125.90208 
L 159.717794 124.45056 
L 160.167454 124.20864 
L 160.617114 123.7248 
L 162.865414 122.5152 
L 163.315074 122.03136 
L 163.764734 122.03136 
L 164.214394 121.3056 
L 165.113714 120.82176 
L 165.563374 120.82176 
L 166.013035 120.33792 
L 166.462695 120.096 
L 166.912355 119.61216 
L 167.811675 119.61216 
L 168.261335 119.12832 
L 168.710995 119.12832 
L 169.160655 118.64448 
L 170.059975 118.16064 
L 170.509635 117.6768 
L 170.959295 117.6768 
L 171.408955 117.43488 
L 171.858615 116.95104 
L 172.308275 116.70912 
L 173.657255 116.70912 
L 174.106915 116.4672 
L 174.556575 115.98336 
L 175.006235 115.74144 
L 175.455895 114.77376 
L 175.905555 114.53184 
L 177.254535 113.08032 
L 177.704195 113.08032 
L 179.053176 111.6288 
L 180.402156 110.90304 
L 180.851816 110.90304 
L 181.301476 109.93536 
L 182.200796 109.93536 
L 182.650456 109.69344 
L 183.100116 109.2096 
L 183.549776 109.2096 
L 183.999436 108.48384 
L 184.449096 108.24192 
L 184.898756 108.24192 
L 185.798076 107.75808 
L 186.247736 107.27424 
L 187.596716 106.54848 
L 188.046376 106.06464 
L 188.496036 106.06464 
L 188.945696 105.82272 
L 189.845016 105.82272 
L 190.294676 104.85504 
L 190.744336 104.3712 
L 191.193996 104.3712 
L 191.643657 104.12928 
L 192.992637 104.12928 
L 193.442297 103.88736 
L 193.891957 103.88736 
L 194.341617 103.64544 
L 194.791277 103.64544 
L 195.240937 103.40352 
L 195.690597 103.40352 
L 196.140257 103.1616 
L 197.039577 103.1616 
L 198.388557 102.43584 
L 198.838217 102.43584 
L 199.287877 102.19392 
L 201.086517 100.25856 
L 201.536177 100.25856 
L 201.985837 99.77472 
L 203.334817 99.04896 
L 204.683798 99.04896 
L 205.133458 98.56512 
L 206.032778 98.56512 
L 206.482438 98.3232 
L 206.932098 98.3232 
L 207.381758 98.08128 
L 209.180398 98.08128 
L 209.630058 97.59744 
L 210.079718 97.35552 
L 210.529378 97.35552 
L 211.428698 96.87168 
L 212.328018 96.87168 
L 213.676998 96.14592 
L 214.126658 96.14592 
L 215.025978 95.66208 
L 216.374958 95.66208 
L 216.824618 95.17824 
L 217.274279 95.17824 
L 217.723939 94.45248 
L 218.173599 94.21056 
L 219.522579 94.21056 
L 219.972239 93.72672 
L 220.421899 93.4848 
L 220.871559 92.75904 
L 221.321219 92.51712 
L 221.770879 91.79136 
L 222.220539 91.79136 
L 222.670199 91.54944 
L 223.569519 91.54944 
L 224.019179 91.30752 
L 224.468839 91.30752 
L 224.918499 91.0656 
L 225.368159 90.58176 
L 225.817819 90.33984 
L 226.267479 90.33984 
L 227.166799 89.856 
L 227.616459 89.856 
L 228.066119 89.61408 
L 228.515779 89.13024 
L 228.965439 88.88832 
L 229.415099 88.88832 
L 229.86476 88.6464 
L 230.31442 88.6464 
L 230.76408 88.40448 
L 231.21374 87.4368 
L 232.11306 87.4368 
L 232.56272 87.19488 
L 233.01238 87.19488 
L 233.46204 86.95296 
L 233.9117 86.95296 
L 234.36136 86.2272 
L 234.81102 86.2272 
L 235.26068 85.74336 
L 235.71034 85.74336 
L 236.16 85.50144 
L 236.60966 85.50144 
L 237.05932 85.25952 
L 237.50898 85.25952 
L 237.95864 84.29184 
L 238.4083 84.29184 
L 238.85796 84.04992 
L 239.30762 84.04992 
L 239.75728 83.808 
L 240.6566 82.84032 
L 241.10626 82.5984 
L 242.45524 82.5984 
L 243.354561 82.11456 
L 245.602861 82.11456 
L 246.052521 81.87264 
L 247.851161 81.87264 
L 248.300821 81.3888 
L 249.200141 81.3888 
L 250.998781 80.42112 
L 251.448441 80.42112 
L 253.696741 79.21152 
L 254.146401 78.48576 
L 254.596061 78.24384 
L 255.045721 78.24384 
L 255.495382 77.03424 
L 255.945042 76.5504 
L 256.394702 76.30848 
L 256.844362 76.30848 
L 257.294022 76.06656 
L 257.743682 75.58272 
L 258.193342 75.58272 
L 258.643002 75.3408 
L 259.092662 75.3408 
L 259.542322 75.09888 
L 259.991982 75.09888 
L 260.441642 74.85696 
L 260.891302 74.37312 
L 261.340962 74.1312 
L 261.790622 74.1312 
L 262.240282 73.88928 
L 262.689942 73.88928 
L 263.139602 73.64736 
L 263.589262 73.64736 
L 264.938242 72.9216 
L 265.387902 72.43776 
L 266.287222 71.95392 
L 267.186542 71.95392 
L 267.636202 71.22816 
L 268.085863 70.98624 
L 268.535523 70.01856 
L 268.985183 69.53472 
L 270.334163 68.80896 
L 270.783823 67.84128 
L 272.132803 67.84128 
L 272.582463 67.59936 
L 273.032123 66.63168 
L 273.481783 66.63168 
L 274.381103 66.14784 
L 274.830763 65.664 
L 275.730083 65.664 
L 276.179743 65.42208 
L 276.629403 64.69632 
L 277.079063 64.21248 
L 278.428043 63.48672 
L 278.877703 63.48672 
L 279.327363 62.76096 
L 280.226683 62.27712 
L 280.676343 62.27712 
L 281.126004 62.0352 
L 281.575664 62.0352 
L 282.025324 61.55136 
L 283.374304 61.55136 
L 283.823964 61.30944 
L 284.723284 61.30944 
L 285.622604 60.8256 
L 286.072264 60.8256 
L 286.521924 60.58368 
L 287.421244 60.58368 
L 287.870904 60.34176 
L 291.917844 60.34176 
L 292.367504 59.85792 
L 292.817164 59.85792 
L 293.266824 59.616 
L 293.716485 59.616 
L 294.166145 59.37408 
L 295.065465 59.37408 
L 295.515125 59.13216 
L 297.313765 59.13216 
L 298.213085 58.64832 
L 299.112405 58.64832 
L 299.562065 58.4064 
L 303.159345 58.4064 
L 303.609005 58.16448 
L 306.306965 58.16448 
L 307.206286 57.68064 
L 307.655946 57.68064 
L 308.105606 57.43872 
L 309.904246 57.43872 
L 310.353906 57.1968 
L 311.253226 57.1968 
L 312.152546 56.71296 
L 313.501526 56.71296 
L 313.951186 56.47104 
L 314.400846 55.9872 
L 325.642347 55.9872 
L 326.092007 55.74528 
L 327.440987 55.74528 
L 327.890647 55.50336 
L 333.736228 55.50336 
L 334.185888 55.26144 
L 334.635548 55.26144 
L 335.085208 55.01952 
L 339.132148 55.01952 
L 339.581808 54.7776 
L 341.830108 54.7776 
L 342.279768 54.53568 
L 345.877049 54.53568 
L 346.326709 54.29376 
L 349.923989 54.29376 
L 350.373649 54.05184 
L 365.21243 54.05184 
L 365.66209 53.80992 
L 398.037613 53.80992 
L 398.487273 53.568 
L 398.487273 53.568 
" clip-path="url(#pdbdee1a18b)" style="fill: none; stroke: #ff0000; stroke-linecap: square"/>
   </g>
   <g id="line2d_16">
    <path d="M 73.832727 295.488 
L 74.282387 129.108237 
L 75.181707 129.108237 
L 75.631367 128.152032 
L 78.778988 128.152032 
L 79.228648 127.195826 
L 79.678308 125.283415 
L 80.127968 124.327209 
L 81.027288 124.327209 
L 81.476948 122.414798 
L 82.376268 122.414798 
L 82.825928 121.458593 
L 85.074228 121.458593 
L 85.523888 120.502387 
L 85.973548 117.633771 
L 86.872868 117.633771 
L 87.772188 115.72136 
L 89.121168 115.72136 
L 90.020489 113.808949 
L 90.470149 113.808949 
L 90.919809 112.852743 
L 91.369469 110.940332 
L 91.819129 109.984126 
L 92.268789 108.071715 
L 94.517089 108.071715 
L 94.966749 106.159304 
L 96.765389 106.159304 
L 97.664709 104.246893 
L 98.564029 104.246893 
L 100.362669 100.422071 
L 100.812329 97.553455 
L 101.261989 96.597249 
L 102.161309 96.597249 
L 102.61097 95.641043 
L 104.40961 95.641043 
L 104.85927 94.684838 
L 105.75859 94.684838 
L 106.20825 93.728632 
L 106.65791 93.728632 
L 107.10757 92.772427 
L 110.25519 92.772427 
L 110.70485 91.816221 
L 111.60417 91.816221 
L 112.05383 90.860016 
L 115.201451 90.860016 
L 115.651111 89.90381 
L 116.550431 89.90381 
L 117.000091 87.991399 
L 121.047031 87.991399 
L 121.496691 87.035194 
L 121.946351 87.035194 
L 122.396011 86.078988 
L 124.194651 86.078988 
L 125.093971 84.166577 
L 125.543631 84.166577 
L 125.993291 83.210372 
L 127.342271 83.210372 
L 127.791932 82.254166 
L 130.040232 82.254166 
L 130.939552 80.341755 
L 131.389212 78.429344 
L 133.187852 78.429344 
L 133.637512 76.516933 
L 135.436152 76.516933 
L 135.885812 75.560727 
L 138.134112 75.560727 
L 138.583772 73.648316 
L 139.033432 73.648316 
L 139.483092 72.692111 
L 139.932752 72.692111 
L 140.832073 70.7797 
L 143.979693 70.7797 
L 144.429353 69.823494 
L 146.227993 69.823494 
L 146.677653 68.867289 
L 148.476293 68.867289 
L 150.274933 65.042466 
L 150.724593 65.042466 
L 151.174253 63.130055 
L 152.073573 63.130055 
L 152.972893 61.217644 
L 153.872214 61.217644 
L 154.321874 60.261439 
L 155.670854 60.261439 
L 156.570174 58.349028 
L 158.818474 58.349028 
L 159.268134 57.392822 
L 162.865414 57.392822 
L 163.315074 56.436617 
L 165.563374 56.436617 
L 166.013035 55.480411 
L 169.610315 55.480411 
L 170.059975 54.524206 
L 175.905555 54.524206 
L 176.355215 53.568 
L 398.487273 53.568 
L 398.487273 53.568 
" clip-path="url(#pdbdee1a18b)" style="fill: none; stroke-dasharray: 1.85,0.8; stroke-dashoffset: 0; stroke: #008000; stroke-width: 0.5"/>
   </g>
   <g id="line2d_17">
    <path d="M 73.832727 295.488 
L 74.282387 227.050105 
L 76.081027 227.050105 
L 76.530687 223.866947 
L 87.772188 223.866947 
L 88.221848 222.275368 
L 90.470149 222.275368 
L 90.919809 220.683789 
L 91.819129 220.683789 
L 92.268789 217.500632 
L 93.168109 217.500632 
L 93.617769 215.909053 
L 94.517089 215.909053 
L 95.416409 212.725895 
L 98.114369 212.725895 
L 99.013689 209.542737 
L 102.61097 209.542737 
L 103.06063 207.951158 
L 108.00689 207.951158 
L 108.45655 206.359579 
L 109.35587 206.359579 
L 109.80553 203.176421 
L 110.25519 203.176421 
L 111.15451 199.993263 
L 112.05383 199.993263 
L 112.50349 196.810105 
L 113.85247 196.810105 
L 114.30213 195.218526 
L 116.100771 195.218526 
L 116.550431 193.626947 
L 119.248391 193.626947 
L 119.698051 192.035368 
L 121.496691 192.035368 
L 122.396011 188.852211 
L 125.093971 188.852211 
L 125.543631 187.260632 
L 127.791932 187.260632 
L 128.691252 184.077474 
L 129.140912 184.077474 
L 129.590572 182.485895 
L 131.389212 182.485895 
L 131.838872 180.894316 
L 133.637512 180.894316 
L 134.087172 179.302737 
L 136.785132 179.302737 
L 137.234792 177.711158 
L 144.429353 177.711158 
L 144.879013 176.119579 
L 145.778333 176.119579 
L 146.227993 174.528 
L 146.677653 174.528 
L 147.127313 172.936421 
L 149.825273 172.936421 
L 150.274933 171.344842 
L 154.321874 171.344842 
L 154.771534 169.753263 
L 157.469494 169.753263 
L 157.919154 166.570105 
L 158.818474 166.570105 
L 159.717794 163.386947 
L 161.516434 163.386947 
L 162.415754 160.203789 
L 164.664054 160.203789 
L 165.113714 158.612211 
L 166.462695 158.612211 
L 166.912355 157.020632 
L 168.710995 157.020632 
L 169.160655 153.837474 
L 170.059975 153.837474 
L 170.509635 152.245895 
L 170.959295 152.245895 
L 171.408955 150.654316 
L 175.455895 150.654316 
L 175.905555 149.062737 
L 176.355215 149.062737 
L 176.804875 147.471158 
L 178.603515 147.471158 
L 179.502836 144.288 
L 180.851816 144.288 
L 181.301476 142.696421 
L 182.650456 142.696421 
L 183.100116 141.104842 
L 183.549776 141.104842 
L 183.999436 139.513263 
L 186.247736 139.513263 
L 186.697396 137.921684 
L 187.147056 137.921684 
L 188.046376 134.738526 
L 194.791277 134.738526 
L 195.240937 133.146947 
L 195.690597 133.146947 
L 196.140257 131.555368 
L 198.838217 131.555368 
L 199.737537 128.372211 
L 200.187197 128.372211 
L 201.086517 125.189053 
L 201.536177 125.189053 
L 201.985837 123.597474 
L 212.777678 123.597474 
L 213.227338 122.005895 
L 221.321219 122.005895 
L 221.770879 120.414316 
L 222.220539 120.414316 
L 222.670199 118.822737 
L 224.918499 118.822737 
L 225.368159 117.231158 
L 226.267479 117.231158 
L 226.717139 115.639579 
L 228.066119 115.639579 
L 228.965439 112.456421 
L 230.76408 112.456421 
L 231.21374 107.681684 
L 239.75728 107.681684 
L 240.20694 106.090105 
L 240.6566 106.090105 
L 241.10626 104.498526 
L 252.347761 104.498526 
L 254.146401 98.132211 
L 255.045721 98.132211 
L 255.945042 94.949053 
L 257.294022 94.949053 
L 257.743682 93.357474 
L 260.441642 93.357474 
L 261.340962 90.174316 
L 262.689942 90.174316 
L 263.139602 88.582737 
L 264.938242 88.582737 
L 265.387902 86.991158 
L 267.186542 86.991158 
L 267.636202 85.399579 
L 268.085863 85.399579 
L 268.535523 83.808 
L 268.985183 80.624842 
L 269.884503 77.441684 
L 270.334163 77.441684 
L 270.783823 74.258526 
L 273.481783 74.258526 
L 274.830763 69.483789 
L 276.629403 69.483789 
L 277.079063 67.892211 
L 283.374304 67.892211 
L 283.823964 66.300632 
L 284.723284 66.300632 
L 285.172944 64.709053 
L 287.421244 64.709053 
L 287.870904 63.117474 
L 297.763425 63.117474 
L 298.213085 61.525895 
L 306.756626 61.525895 
L 307.206286 59.934316 
L 311.702886 59.934316 
L 312.152546 58.342737 
L 313.951186 58.342737 
L 314.400846 56.751158 
L 349.923989 56.751158 
L 350.373649 55.159579 
L 398.037613 55.159579 
L 398.487273 53.568 
L 398.487273 53.568 
" clip-path="url(#pdbdee1a18b)" style="fill: none; stroke-dasharray: 1.85,0.8; stroke-dashoffset: 0; stroke: #0000ff; stroke-width: 0.5"/>
   </g>
   <g id="line2d_18">
    <path d="M 73.832727 295.488 
L 74.282387 190.719496 
L 78.778988 190.719496 
L 79.228648 189.767055 
L 80.577628 189.767055 
L 81.027288 188.814614 
L 84.174908 188.814614 
L 84.624568 187.862173 
L 87.772188 187.862173 
L 88.221848 185.957291 
L 88.671508 185.00485 
L 89.121168 185.00485 
L 90.020489 183.099969 
L 90.470149 183.099969 
L 90.919809 182.147528 
L 94.067429 182.147528 
L 94.966749 180.242646 
L 95.416409 178.337764 
L 97.664709 178.337764 
L 98.114369 177.385323 
L 98.564029 177.385323 
L 99.013689 175.480441 
L 99.463349 175.480441 
L 99.913009 174.528 
L 100.362669 172.623118 
L 100.812329 172.623118 
L 102.161309 169.765795 
L 102.61097 169.765795 
L 103.06063 168.813354 
L 103.51029 168.813354 
L 103.95995 167.860913 
L 104.40961 167.860913 
L 105.30893 165.956031 
L 106.65791 165.956031 
L 107.10757 164.05115 
L 108.90621 164.05115 
L 109.35587 162.146268 
L 109.80553 161.193827 
L 115.201451 161.193827 
L 115.651111 159.288945 
L 117.000091 159.288945 
L 118.798731 155.479181 
L 119.248391 155.479181 
L 120.147711 153.574299 
L 121.047031 153.574299 
L 121.496691 152.621858 
L 122.396011 152.621858 
L 122.845671 151.669417 
L 125.543631 151.669417 
L 125.993291 150.716976 
L 126.892611 150.716976 
L 127.342271 149.764535 
L 129.590572 149.764535 
L 130.040232 148.812094 
L 131.838872 148.812094 
L 132.738192 146.907213 
L 133.637512 146.907213 
L 134.087172 145.954772 
L 136.335472 145.954772 
L 136.785132 145.002331 
L 143.979693 145.002331 
L 144.879013 143.097449 
L 145.328673 143.097449 
L 145.778333 142.145008 
L 146.677653 142.145008 
L 147.127313 141.192567 
L 148.925953 141.192567 
L 149.375613 140.240126 
L 150.274933 140.240126 
L 150.724593 139.287685 
L 151.174253 139.287685 
L 151.623913 138.335244 
L 152.972893 138.335244 
L 153.422554 137.382803 
L 156.570174 137.382803 
L 157.019834 134.52548 
L 158.818474 134.52548 
L 159.717794 132.620598 
L 160.167454 132.620598 
L 161.516434 129.763276 
L 162.415754 129.763276 
L 162.865414 128.810835 
L 164.214394 128.810835 
L 164.664054 127.858394 
L 165.563374 127.858394 
L 166.013035 126.905953 
L 167.811675 126.905953 
L 168.261335 125.953512 
L 170.059975 125.953512 
L 170.509635 125.001071 
L 171.408955 125.001071 
L 171.858615 124.04863 
L 174.106915 124.04863 
L 175.006235 122.143748 
L 175.455895 120.238866 
L 175.905555 120.238866 
L 176.355215 119.286425 
L 176.804875 119.286425 
L 177.254535 118.333984 
L 177.704195 118.333984 
L 178.153855 116.429102 
L 178.603515 115.476661 
L 179.502836 115.476661 
L 179.952496 114.52422 
L 180.851816 114.52422 
L 181.301476 112.619339 
L 182.200796 112.619339 
L 183.100116 110.714457 
L 186.697396 110.714457 
L 187.147056 109.762016 
L 187.596716 109.762016 
L 188.046376 108.809575 
L 188.496036 108.809575 
L 188.945696 107.857134 
L 189.845016 107.857134 
L 190.294676 104.999811 
L 192.992637 104.999811 
L 193.442297 104.04737 
L 193.891957 104.04737 
L 194.341617 103.094929 
L 197.489237 103.094929 
L 197.938897 102.142488 
L 199.737537 102.142488 
L 200.636857 100.237606 
L 206.932098 100.237606 
L 207.381758 99.285165 
L 210.979038 99.285165 
L 211.428698 98.332724 
L 213.227338 98.332724 
L 213.676998 97.380283 
L 214.576318 97.380283 
L 215.025978 96.427843 
L 216.374958 96.427843 
L 216.824618 95.475402 
L 217.274279 95.475402 
L 218.173599 93.57052 
L 219.522579 93.57052 
L 219.972239 92.618079 
L 220.421899 92.618079 
L 220.871559 91.665638 
L 225.368159 91.665638 
L 225.817819 90.713197 
L 229.415099 90.713197 
L 229.86476 89.760756 
L 230.31442 89.760756 
L 231.21374 87.855874 
L 233.9117 87.855874 
L 234.36136 86.903433 
L 236.60966 86.903433 
L 237.05932 85.950992 
L 239.30762 85.950992 
L 239.75728 84.998551 
L 240.20694 84.998551 
L 240.6566 84.04611 
L 242.904901 84.04611 
L 243.354561 83.093669 
L 247.851161 83.093669 
L 248.300821 82.141228 
L 249.200141 82.141228 
L 250.998781 78.331465 
L 253.696741 78.331465 
L 254.146401 76.426583 
L 255.045721 76.426583 
L 255.495382 75.474142 
L 256.844362 75.474142 
L 257.294022 74.521701 
L 261.790622 74.521701 
L 262.240282 73.56926 
L 263.589262 73.56926 
L 266.287222 67.854614 
L 269.884503 67.854614 
L 270.334163 66.902173 
L 272.582463 66.902173 
L 273.032123 65.949732 
L 274.381103 65.949732 
L 274.830763 64.997291 
L 275.730083 64.997291 
L 276.629403 63.092409 
L 277.528723 63.092409 
L 277.978383 62.139969 
L 279.777023 62.139969 
L 280.226683 61.187528 
L 280.676343 61.187528 
L 281.126004 60.235087 
L 285.172944 60.235087 
L 285.622604 59.282646 
L 291.917844 59.282646 
L 292.367504 58.330205 
L 297.313765 58.330205 
L 297.763425 57.377764 
L 306.306965 57.377764 
L 306.756626 56.425323 
L 309.904246 56.425323 
L 310.353906 55.472882 
L 311.253226 55.472882 
L 311.702886 54.520441 
L 313.951186 54.520441 
L 314.400846 53.568 
L 398.487273 53.568 
L 398.487273 53.568 
" clip-path="url(#pdbdee1a18b)" style="fill: none; stroke-dasharray: 1.85,0.8; stroke-dashoffset: 0; stroke: #bf00bf; stroke-width: 0.5"/>
   </g>
   <g id="line2d_19">
    <path d="M 73.832727 295.488 
L 74.282387 219.968 
L 76.081027 219.968 
L 76.530687 218.688 
L 80.577628 218.688 
L 81.027288 217.408 
L 82.376268 217.408 
L 82.825928 216.128 
L 86.872868 216.128 
L 87.772188 213.568 
L 88.221848 213.568 
L 88.671508 212.288 
L 89.121168 212.288 
L 89.570829 211.008 
L 90.020489 211.008 
L 90.470149 209.728 
L 93.617769 209.728 
L 95.416409 204.608 
L 100.812329 204.608 
L 101.261989 203.328 
L 102.61097 203.328 
L 103.06063 200.768 
L 103.51029 199.488 
L 104.40961 199.488 
L 104.85927 198.208 
L 106.20825 198.208 
L 106.65791 195.648 
L 107.10757 195.648 
L 107.55723 193.088 
L 108.00689 193.088 
L 108.90621 190.528 
L 109.80553 190.528 
L 110.25519 189.248 
L 111.60417 189.248 
L 112.05383 187.968 
L 113.40281 187.968 
L 113.85247 186.688 
L 116.550431 186.688 
L 117.449751 184.128 
L 119.248391 184.128 
L 119.698051 182.848 
L 120.147711 182.848 
L 120.597371 181.568 
L 123.744991 181.568 
L 124.194651 180.288 
L 125.093971 180.288 
L 125.543631 179.008 
L 125.993291 179.008 
L 126.442951 177.728 
L 127.342271 177.728 
L 127.791932 176.448 
L 130.939552 176.448 
L 131.389212 175.168 
L 131.838872 175.168 
L 132.738192 172.608 
L 134.536832 172.608 
L 134.986492 171.328 
L 135.885812 171.328 
L 136.335472 170.048 
L 137.234792 170.048 
L 137.684452 168.768 
L 138.134112 168.768 
L 138.583772 167.488 
L 139.483092 167.488 
L 139.932752 164.928 
L 140.832073 164.928 
L 141.281733 163.648 
L 141.731393 163.648 
L 142.181053 162.368 
L 143.530033 162.368 
L 143.979693 161.088 
L 145.328673 161.088 
L 145.778333 159.808 
L 146.227993 157.248 
L 148.026633 157.248 
L 148.476293 155.968 
L 153.422554 155.968 
L 153.872214 154.688 
L 155.221194 154.688 
L 155.670854 153.408 
L 157.919154 153.408 
L 158.368814 152.128 
L 159.268134 152.128 
L 160.167454 149.568 
L 162.865414 149.568 
L 163.315074 148.288 
L 163.764734 148.288 
L 164.214394 145.728 
L 166.013035 145.728 
L 166.462695 144.448 
L 167.811675 144.448 
L 168.261335 143.168 
L 173.657255 143.168 
L 174.106915 141.888 
L 175.006235 141.888 
L 175.455895 139.328 
L 180.851816 139.328 
L 181.301476 138.048 
L 183.549776 138.048 
L 183.999436 135.488 
L 184.898756 135.488 
L 186.247736 131.648 
L 190.294676 131.648 
L 190.744336 130.368 
L 197.938897 130.368 
L 198.388557 129.088 
L 199.287877 129.088 
L 199.737537 127.808 
L 200.636857 127.808 
L 201.086517 126.528 
L 201.536177 126.528 
L 201.985837 125.248 
L 202.435497 125.248 
L 202.885157 123.968 
L 209.180398 123.968 
L 209.630058 122.688 
L 210.529378 122.688 
L 210.979038 121.408 
L 217.274279 121.408 
L 217.723939 120.128 
L 219.522579 120.128 
L 220.421899 117.568 
L 220.871559 115.008 
L 221.321219 113.728 
L 221.770879 111.168 
L 223.569519 111.168 
L 224.019179 109.888 
L 224.468839 109.888 
L 224.918499 108.608 
L 227.616459 108.608 
L 228.515779 106.048 
L 233.9117 106.048 
L 234.36136 103.488 
L 234.81102 103.488 
L 235.26068 100.928 
L 237.50898 100.928 
L 237.95864 98.368 
L 239.75728 98.368 
L 240.6566 95.808 
L 242.45524 95.808 
L 242.904901 94.528 
L 247.851161 94.528 
L 248.300821 93.248 
L 251.898101 93.248 
L 252.347761 91.968 
L 254.146401 91.968 
L 254.596061 90.688 
L 255.045721 90.688 
L 255.945042 88.128 
L 257.294022 88.128 
L 257.743682 86.848 
L 258.193342 86.848 
L 258.643002 85.568 
L 259.991982 85.568 
L 260.891302 83.008 
L 267.186542 83.008 
L 268.085863 80.448 
L 270.334163 80.448 
L 270.783823 79.168 
L 272.132803 79.168 
L 272.582463 77.888 
L 273.032123 75.328 
L 276.179743 75.328 
L 277.079063 72.768 
L 278.877703 72.768 
L 279.777023 70.208 
L 281.575664 70.208 
L 282.025324 67.648 
L 286.072264 67.648 
L 286.521924 66.368 
L 291.917844 66.368 
L 292.367504 65.088 
L 292.817164 65.088 
L 293.266824 63.808 
L 293.716485 63.808 
L 294.166145 62.528 
L 307.655946 62.528 
L 308.105606 61.248 
L 325.642347 61.248 
L 326.092007 59.968 
L 327.440987 59.968 
L 327.890647 58.688 
L 333.736228 58.688 
L 334.185888 57.408 
L 334.635548 57.408 
L 335.085208 56.128 
L 341.830108 56.128 
L 342.279768 54.848 
L 345.877049 54.848 
L 346.326709 53.568 
L 398.487273 53.568 
L 398.487273 53.568 
" clip-path="url(#pdbdee1a18b)" style="fill: none; stroke-dasharray: 1.85,0.8; stroke-dashoffset: 0; stroke: #bfbf00; stroke-width: 0.5"/>
   </g>
   <g id="line2d_20">
    <path d="M 73.832727 295.488 
L 74.282387 219.092211 
L 82.376268 219.092211 
L 82.825928 217.500632 
L 84.174908 217.500632 
L 85.074228 214.317474 
L 85.523888 214.317474 
L 85.973548 212.725895 
L 86.872868 212.725895 
L 87.322528 211.134316 
L 88.221848 211.134316 
L 89.121168 207.951158 
L 95.416409 207.951158 
L 95.866069 206.359579 
L 96.315729 206.359579 
L 96.765389 204.768 
L 97.664709 204.768 
L 98.564029 201.584842 
L 99.463349 201.584842 
L 99.913009 199.993263 
L 101.261989 199.993263 
L 102.161309 196.810105 
L 103.95995 196.810105 
L 104.85927 193.626947 
L 106.20825 193.626947 
L 107.55723 188.852211 
L 108.00689 188.852211 
L 108.45655 187.260632 
L 111.15451 187.260632 
L 111.60417 185.669053 
L 115.201451 185.669053 
L 115.651111 182.485895 
L 116.100771 180.894316 
L 125.993291 180.894316 
L 126.892611 177.711158 
L 128.691252 177.711158 
L 129.140912 176.119579 
L 132.738192 176.119579 
L 133.637512 172.936421 
L 134.087172 172.936421 
L 134.536832 171.344842 
L 134.986492 168.161684 
L 139.483092 168.161684 
L 139.932752 166.570105 
L 140.832073 166.570105 
L 141.281733 164.978526 
L 144.879013 164.978526 
L 145.328673 163.386947 
L 148.925953 163.386947 
L 149.375613 161.795368 
L 149.825273 161.795368 
L 150.274933 160.203789 
L 152.073573 160.203789 
L 152.523233 158.612211 
L 153.872214 158.612211 
L 155.221194 153.837474 
L 157.019834 153.837474 
L 157.469494 150.654316 
L 160.167454 150.654316 
L 160.617114 149.062737 
L 163.764734 149.062737 
L 164.214394 147.471158 
L 166.462695 147.471158 
L 166.912355 145.879579 
L 169.160655 145.879579 
L 169.610315 144.288 
L 171.408955 144.288 
L 172.308275 141.104842 
L 174.106915 141.104842 
L 174.556575 139.513263 
L 176.355215 139.513263 
L 177.254535 136.330105 
L 178.153855 136.330105 
L 179.053176 133.146947 
L 179.952496 133.146947 
L 180.402156 131.555368 
L 183.999436 131.555368 
L 184.449096 129.963789 
L 185.798076 129.963789 
L 186.247736 128.372211 
L 189.845016 128.372211 
L 190.744336 125.189053 
L 191.193996 125.189053 
L 191.643657 123.597474 
L 197.039577 123.597474 
L 197.489237 122.005895 
L 199.737537 122.005895 
L 200.187197 120.414316 
L 201.985837 120.414316 
L 202.435497 118.822737 
L 202.885157 118.822737 
L 203.334817 117.231158 
L 204.683798 117.231158 
L 205.133458 114.048 
L 206.032778 114.048 
L 206.482438 112.456421 
L 209.180398 112.456421 
L 210.079718 109.273263 
L 212.328018 109.273263 
L 212.777678 107.681684 
L 214.126658 107.681684 
L 214.576318 106.090105 
L 216.374958 106.090105 
L 216.824618 104.498526 
L 217.274279 104.498526 
L 217.723939 102.906947 
L 224.918499 102.906947 
L 225.368159 101.315368 
L 226.717139 101.315368 
L 227.166799 99.723789 
L 232.11306 99.723789 
L 232.56272 98.132211 
L 233.01238 98.132211 
L 233.46204 96.540632 
L 235.71034 96.540632 
L 236.16 94.949053 
L 237.50898 94.949053 
L 237.95864 91.765895 
L 238.4083 91.765895 
L 238.85796 90.174316 
L 245.602861 90.174316 
L 246.052521 88.582737 
L 251.448441 88.582737 
L 251.898101 86.991158 
L 255.045721 86.991158 
L 255.495382 83.808 
L 255.945042 83.808 
L 256.394702 82.216421 
L 259.092662 82.216421 
L 259.542322 80.624842 
L 267.186542 80.624842 
L 267.636202 79.033263 
L 268.085863 79.033263 
L 268.535523 74.258526 
L 270.334163 74.258526 
L 270.783823 72.666947 
L 272.582463 72.666947 
L 273.032123 71.075368 
L 276.179743 71.075368 
L 276.629403 69.483789 
L 277.079063 69.483789 
L 277.528723 67.892211 
L 277.978383 67.892211 
L 278.428043 66.300632 
L 278.877703 66.300632 
L 279.327363 63.117474 
L 295.065465 63.117474 
L 295.515125 61.525895 
L 299.112405 61.525895 
L 299.562065 59.934316 
L 303.159345 59.934316 
L 303.609005 58.342737 
L 313.501526 58.342737 
L 313.951186 56.751158 
L 339.132148 56.751158 
L 339.581808 55.159579 
L 365.21243 55.159579 
L 365.66209 53.568 
L 398.487273 53.568 
L 398.487273 53.568 
" clip-path="url(#pdbdee1a18b)" style="fill: none; stroke-dasharray: 1.85,0.8; stroke-dashoffset: 0; stroke: #000000; stroke-width: 0.5"/>
   </g>
   <g id="patch_3">
    <path d="M 57.6 307.584 
L 57.6 41.472 
" style="fill: none; stroke: #000000; stroke-width: 0.8; stroke-linejoin: miter; stroke-linecap: square"/>
   </g>
   <g id="patch_4">
    <path d="M 414.72 307.584 
L 414.72 41.472 
" style="fill: none; stroke: #000000; stroke-width: 0.8; stroke-linejoin: miter; stroke-linecap: square"/>
   </g>
   <g id="patch_5">
    <path d="M 57.6 307.584 
L 414.72 307.584 
" style="fill: none; stroke: #000000; stroke-width: 0.8; stroke-linejoin: miter; stroke-linecap: square"/>
   </g>
   <g id="patch_6">
    <path d="M 57.6 41.472 
L 414.72 41.472 
" style="fill: none; stroke: #000000; stroke-width: 0.8; stroke-linejoin: miter; stroke-linecap: square"/>
   </g>
   <g id="text_17">
    <!-- count=1000, googlenet=150, resnet50=112, squeezenetv1=187, vgg19=112, yolov2=187 -->
    <g transform="translate(-3.84 35.472) scale(0.12 -0.12)">
     <defs>
      <path id="FangSong-6f" d="M 2875 1400 
Q 2875 775 2500 362 
Q 2125 -50 1575 -50 
Q 1000 -50 637 375 
Q 275 800 275 1400 
Q 275 1950 637 2400 
Q 1000 2850 1575 2850 
Q 2175 2850 2525 2400 
Q 2875 1950 2875 1400 
z
M 675 1375 
Q 675 725 937 412 
Q 1200 100 1575 100 
Q 2000 100 2237 437 
Q 2475 775 2475 1375 
Q 2475 2025 2212 2362 
Q 1950 2700 1575 2700 
Q 1225 2700 950 2362 
Q 675 2025 675 1375 
z
" transform="scale(0.015625)"/>
      <path id="FangSong-75" d="M 1425 225 
Q 1725 225 1937 375 
Q 2150 525 2250 850 
L 2250 2425 
Q 2250 2525 2200 2587 
Q 2150 2650 2025 2650 
L 1875 2650 
L 1875 2800 
L 2025 2800 
Q 2175 2800 2300 2825 
Q 2425 2850 2550 2950 
L 2600 2950 
L 2600 500 
Q 2600 400 2662 350 
Q 2725 300 2825 300 
L 2975 300 
L 2975 150 
L 2825 150 
Q 2700 150 2575 112 
Q 2450 75 2300 0 
L 2250 0 
L 2250 525 
Q 2125 250 1875 112 
Q 1625 -25 1300 -25 
Q 900 -25 700 200 
Q 500 425 500 925 
L 500 2425 
Q 500 2525 450 2587 
Q 400 2650 275 2650 
L 125 2650 
L 125 2800 
L 275 2800 
Q 425 2800 550 2825 
Q 675 2850 800 2950 
L 850 2950 
L 850 875 
Q 850 525 1000 375 
Q 1150 225 1425 225 
z
" transform="scale(0.015625)"/>
      <path id="FangSong-3d" d="M 175 2725 
L 175 2950 
L 2950 2950 
L 2950 2725 
L 175 2725 
z
M 175 1450 
L 175 1675 
L 2950 1675 
L 2950 1450 
L 175 1450 
z
" transform="scale(0.015625)"/>
      <path id="FangSong-2c" d="M 1325 75 
Q 1200 25 1100 75 
Q 1000 125 962 237 
Q 925 350 925 437 
Q 925 525 987 612 
Q 1050 700 1150 737 
Q 1250 775 1425 725 
Q 1600 675 1650 500 
Q 1700 325 1662 150 
Q 1625 -25 1525 -200 
Q 1425 -375 1312 -475 
Q 1200 -575 1025 -675 
L 950 -575 
Q 1100 -450 1187 -312 
Q 1275 -175 1325 75 
z
" transform="scale(0.015625)"/>
      <path id="FangSong-20" transform="scale(0.015625)"/>
      <path id="FangSong-67" d="M 850 1875 
Q 850 1575 1025 1362 
Q 1200 1150 1500 1150 
Q 1825 1150 1987 1337 
Q 2150 1525 2150 1875 
Q 2150 2300 1962 2487 
Q 1775 2675 1500 2675 
Q 1225 2675 1037 2487 
Q 850 2300 850 1875 
z
M 2075 525 
Q 2450 475 2625 312 
Q 2800 150 2800 -125 
Q 2800 -500 2487 -725 
Q 2175 -950 1500 -950 
Q 975 -950 650 -737 
Q 325 -525 325 -250 
Q 325 -75 450 100 
Q 575 275 850 375 
Q 700 450 612 537 
Q 525 625 525 750 
Q 525 900 625 1012 
Q 725 1125 875 1200 
Q 725 1325 612 1500 
Q 500 1675 500 1875 
Q 500 2250 762 2537 
Q 1025 2825 1500 2825 
Q 1700 2825 1887 2775 
Q 2075 2725 2200 2600 
Q 2375 2725 2512 2787 
Q 2650 2850 2750 2850 
Q 2875 2850 2925 2762 
Q 2975 2675 2975 2600 
Q 2975 2500 2937 2437 
Q 2900 2375 2800 2375 
Q 2725 2375 2675 2412 
Q 2625 2450 2600 2525 
Q 2575 2600 2487 2587 
Q 2400 2575 2300 2500 
Q 2400 2400 2450 2225 
Q 2500 2050 2500 1875 
Q 2500 1575 2262 1287 
Q 2025 1000 1500 1000 
Q 1350 1000 1225 1037 
Q 1100 1075 1025 1125 
Q 925 1075 875 1000 
Q 825 925 825 875 
Q 825 775 875 725 
Q 925 675 1025 675 
Q 1350 625 1612 587 
Q 1875 550 2075 525 
z
M 1050 325 
Q 825 225 737 87 
Q 650 -50 650 -250 
Q 650 -450 875 -625 
Q 1100 -800 1550 -800 
Q 1975 -800 2225 -662 
Q 2475 -525 2475 -250 
Q 2475 -75 2412 25 
Q 2350 125 2225 150 
Q 1975 200 1675 237 
Q 1375 275 1050 325 
z
" transform="scale(0.015625)"/>
      <path id="FangSong-6c" d="M 900 4275 
Q 1125 4275 1325 4325 
Q 1525 4375 1700 4475 
L 1750 4475 
L 1750 350 
Q 1750 250 1812 200 
Q 1875 150 1975 150 
L 2550 150 
L 2550 0 
L 600 0 
L 600 150 
L 1175 150 
Q 1300 150 1350 200 
Q 1400 250 1400 350 
L 1400 3925 
Q 1400 4025 1350 4075 
Q 1300 4125 1175 4125 
L 625 4125 
L 625 4275 
L 900 4275 
z
" transform="scale(0.015625)"/>
      <path id="FangSong-72" d="M 1250 2025 
Q 1500 2425 1787 2637 
Q 2075 2850 2375 2850 
Q 2625 2850 2762 2737 
Q 2900 2625 2900 2475 
Q 2900 2350 2837 2275 
Q 2775 2200 2650 2200 
Q 2525 2200 2462 2275 
Q 2400 2350 2425 2475 
Q 2425 2550 2400 2600 
Q 2375 2650 2250 2650 
Q 2050 2650 1762 2400 
Q 1475 2150 1250 1700 
L 1250 350 
Q 1250 250 1312 200 
Q 1375 150 1475 150 
L 2025 150 
L 2025 0 
L 175 0 
L 175 150 
L 675 150 
Q 800 150 850 200 
Q 900 250 900 350 
L 900 2425 
Q 900 2525 850 2587 
Q 800 2650 675 2650 
L 200 2650 
L 200 2800 
L 400 2800 
Q 575 2800 812 2837 
Q 1050 2875 1175 2925 
L 1250 2925 
L 1250 2025 
z
" transform="scale(0.015625)"/>
      <path id="FangSong-73" d="M 600 2075 
Q 600 2450 887 2650 
Q 1175 2850 1575 2850 
Q 1800 2850 2000 2787 
Q 2200 2725 2275 2725 
Q 2350 2725 2400 2750 
Q 2450 2775 2525 2850 
L 2625 2025 
L 2475 2000 
Q 2375 2325 2137 2512 
Q 1900 2700 1600 2700 
Q 1275 2700 1087 2575 
Q 900 2450 900 2225 
Q 900 2025 987 1912 
Q 1075 1800 1300 1750 
Q 1475 1675 1737 1587 
Q 2000 1500 2225 1400 
Q 2425 1300 2562 1137 
Q 2700 975 2700 775 
Q 2700 400 2437 187 
Q 2175 -25 1675 -25 
Q 1350 -25 1187 37 
Q 1025 100 925 100 
Q 850 100 762 62 
Q 675 25 575 -25 
L 500 900 
L 650 925 
Q 725 525 975 325 
Q 1225 125 1675 125 
Q 2025 125 2212 250 
Q 2400 375 2400 625 
Q 2400 800 2300 912 
Q 2200 1025 2100 1075 
Q 1850 1175 1550 1287 
Q 1250 1400 1025 1500 
Q 800 1600 700 1750 
Q 600 1900 600 2075 
z
" transform="scale(0.015625)"/>
      <path id="FangSong-71" d="M 2250 2150 
Q 2150 2375 1975 2512 
Q 1800 2650 1550 2650 
Q 1200 2650 950 2350 
Q 700 2050 700 1325 
Q 700 700 912 437 
Q 1125 175 1450 175 
Q 1725 175 1937 300 
Q 2150 425 2250 725 
L 2250 2150 
z
M 2600 -550 
Q 2600 -675 2662 -725 
Q 2725 -775 2825 -775 
L 2975 -775 
L 2975 -925 
L 1825 -925 
L 1825 -775 
L 2025 -775 
Q 2150 -775 2200 -725 
Q 2250 -675 2250 -550 
L 2250 375 
Q 2100 175 1887 75 
Q 1675 -25 1375 -25 
Q 950 -25 625 337 
Q 300 700 300 1400 
Q 300 2075 675 2450 
Q 1050 2825 1475 2825 
Q 1750 2825 1937 2725 
Q 2125 2625 2275 2475 
L 2500 2800 
L 2600 2800 
L 2600 -550 
z
" transform="scale(0.015625)"/>
      <path id="FangSong-7a" d="M 2725 975 
L 2550 0 
L 400 0 
L 400 125 
L 2125 2650 
L 1200 2650 
Q 975 2650 825 2487 
Q 675 2325 575 1925 
L 425 1950 
L 525 2800 
L 2575 2800 
L 2575 2725 
L 825 150 
L 1775 150 
Q 2100 150 2287 350 
Q 2475 550 2575 1000 
L 2725 975 
z
" transform="scale(0.015625)"/>
      <path id="FangSong-76" d="M 1600 -25 
L 1450 -25 
L 600 2425 
Q 575 2525 500 2587 
Q 425 2650 325 2650 
L 200 2650 
L 200 2800 
L 1275 2800 
L 1275 2650 
L 1175 2650 
Q 1025 2650 987 2575 
Q 950 2500 1000 2325 
L 1600 575 
L 1650 575 
L 2250 2300 
Q 2325 2475 2262 2562 
Q 2200 2650 2050 2650 
L 2000 2650 
L 2000 2800 
L 2900 2800 
L 2900 2650 
L 2850 2650 
Q 2700 2650 2612 2562 
Q 2525 2475 2450 2300 
L 1600 -25 
z
" transform="scale(0.015625)"/>
      <path id="FangSong-39" d="M 675 2950 
Q 675 2400 887 2112 
Q 1100 1825 1425 1825 
Q 1800 1825 2075 2175 
Q 2350 2525 2350 2825 
Q 2350 3425 2150 3787 
Q 1950 4150 1500 4150 
Q 1075 4150 875 3812 
Q 675 3475 675 2950 
z
M 1350 1600 
Q 850 1600 550 1912 
Q 250 2225 250 2925 
Q 250 3525 575 3925 
Q 900 4325 1500 4325 
Q 2125 4325 2475 3825 
Q 2825 3325 2825 2375 
Q 2825 1325 2412 637 
Q 2000 -50 1275 -50 
Q 950 -50 712 100 
Q 475 250 475 500 
Q 475 600 537 700 
Q 600 800 750 800 
Q 900 800 950 687 
Q 1000 575 1000 425 
Q 1000 325 1025 262 
Q 1050 200 1075 175 
Q 1100 150 1162 137 
Q 1225 125 1300 125 
Q 1750 125 2025 625 
Q 2300 1125 2350 2300 
Q 2225 2000 1975 1800 
Q 1725 1600 1350 1600 
z
" transform="scale(0.015625)"/>
     </defs>
     <use xlink:href="#FangSong-63"/>
     <use xlink:href="#FangSong-6f" x="50"/>
     <use xlink:href="#FangSong-75" x="100"/>
     <use xlink:href="#FangSong-6e" x="150"/>
     <use xlink:href="#FangSong-74" x="200"/>
     <use xlink:href="#FangSong-3d" x="250"/>
     <use xlink:href="#FangSong-31" x="300"/>
     <use xlink:href="#FangSong-30" x="350"/>
     <use xlink:href="#FangSong-30" x="400"/>
     <use xlink:href="#FangSong-30" x="450"/>
     <use xlink:href="#FangSong-2c" x="500"/>
     <use xlink:href="#FangSong-20" x="550"/>
     <use xlink:href="#FangSong-67" x="600"/>
     <use xlink:href="#FangSong-6f" x="650"/>
     <use xlink:href="#FangSong-6f" x="700"/>
     <use xlink:href="#FangSong-67" x="750"/>
     <use xlink:href="#FangSong-6c" x="800"/>
     <use xlink:href="#FangSong-65" x="850"/>
     <use xlink:href="#FangSong-6e" x="900"/>
     <use xlink:href="#FangSong-65" x="950"/>
     <use xlink:href="#FangSong-74" x="1000"/>
     <use xlink:href="#FangSong-3d" x="1050"/>
     <use xlink:href="#FangSong-31" x="1100"/>
     <use xlink:href="#FangSong-35" x="1150"/>
     <use xlink:href="#FangSong-30" x="1200"/>
     <use xlink:href="#FangSong-2c" x="1250"/>
     <use xlink:href="#FangSong-20" x="1300"/>
     <use xlink:href="#FangSong-72" x="1350"/>
     <use xlink:href="#FangSong-65" x="1400"/>
     <use xlink:href="#FangSong-73" x="1450"/>
     <use xlink:href="#FangSong-6e" x="1500"/>
     <use xlink:href="#FangSong-65" x="1550"/>
     <use xlink:href="#FangSong-74" x="1600"/>
     <use xlink:href="#FangSong-35" x="1650"/>
     <use xlink:href="#FangSong-30" x="1700"/>
     <use xlink:href="#FangSong-3d" x="1750"/>
     <use xlink:href="#FangSong-31" x="1800"/>
     <use xlink:href="#FangSong-31" x="1850"/>
     <use xlink:href="#FangSong-32" x="1900"/>
     <use xlink:href="#FangSong-2c" x="1950"/>
     <use xlink:href="#FangSong-20" x="2000"/>
     <use xlink:href="#FangSong-73" x="2050"/>
     <use xlink:href="#FangSong-71" x="2100"/>
     <use xlink:href="#FangSong-75" x="2150"/>
     <use xlink:href="#FangSong-65" x="2200"/>
     <use xlink:href="#FangSong-65" x="2250"/>
     <use xlink:href="#FangSong-7a" x="2300"/>
     <use xlink:href="#FangSong-65" x="2350"/>
     <use xlink:href="#FangSong-6e" x="2400"/>
     <use xlink:href="#FangSong-65" x="2450"/>
     <use xlink:href="#FangSong-74" x="2500"/>
     <use xlink:href="#FangSong-76" x="2550"/>
     <use xlink:href="#FangSong-31" x="2600"/>
     <use xlink:href="#FangSong-3d" x="2650"/>
     <use xlink:href="#FangSong-31" x="2700"/>
     <use xlink:href="#FangSong-38" x="2750"/>
     <use xlink:href="#FangSong-37" x="2800"/>
     <use xlink:href="#FangSong-2c" x="2850"/>
     <use xlink:href="#FangSong-20" x="2900"/>
     <use xlink:href="#FangSong-76" x="2950"/>
     <use xlink:href="#FangSong-67" x="3000"/>
     <use xlink:href="#FangSong-67" x="3050"/>
     <use xlink:href="#FangSong-31" x="3100"/>
     <use xlink:href="#FangSong-39" x="3150"/>
     <use xlink:href="#FangSong-3d" x="3200"/>
     <use xlink:href="#FangSong-31" x="3250"/>
     <use xlink:href="#FangSong-31" x="3300"/>
     <use xlink:href="#FangSong-32" x="3350"/>
     <use xlink:href="#FangSong-2c" x="3400"/>
     <use xlink:href="#FangSong-20" x="3450"/>
     <use xlink:href="#FangSong-79" x="3500"/>
     <use xlink:href="#FangSong-6f" x="3550"/>
     <use xlink:href="#FangSong-6c" x="3600"/>
     <use xlink:href="#FangSong-6f" x="3650"/>
     <use xlink:href="#FangSong-76" x="3700"/>
     <use xlink:href="#FangSong-32" x="3750"/>
     <use xlink:href="#FangSong-3d" x="3800"/>
     <use xlink:href="#FangSong-31" x="3850"/>
     <use xlink:href="#FangSong-38" x="3900"/>
     <use xlink:href="#FangSong-37" x="3950"/>
    </g>
   </g>
   <g id="legend_1">
    <g id="patch_7">
     <path d="M 315.72 302.584 
L 407.72 302.584 
Q 409.72 302.584 409.72 300.584 
L 409.72 220.794937 
Q 409.72 218.794937 407.72 218.794937 
L 315.72 218.794937 
Q 313.72 218.794937 313.72 220.794937 
L 313.72 300.584 
Q 313.72 302.584 315.72 302.584 
z
" style="fill: #ffffff; opacity: 0.8; stroke: #cccccc; stroke-linejoin: miter"/>
    </g>
    <g id="line2d_21">
     <path d="M 317.72 226.294937 
L 327.72 226.294937 
L 337.72 226.294937 
" style="fill: none; stroke: #ff0000; stroke-linecap: square"/>
    </g>
    <g id="text_18">
     <!-- total -->
     <g transform="translate(345.72 229.794937) scale(0.1 -0.1)">
      <use xlink:href="#FangSong-74"/>
      <use xlink:href="#FangSong-6f" x="50"/>
      <use xlink:href="#FangSong-74" x="100"/>
      <use xlink:href="#FangSong-61" x="150"/>
      <use xlink:href="#FangSong-6c" x="200"/>
     </g>
    </g>
    <g id="line2d_22">
     <path d="M 317.72 239.74025 
L 327.72 239.74025 
L 337.72 239.74025 
" style="fill: none; stroke-dasharray: 1.85,0.8; stroke-dashoffset: 0; stroke: #008000; stroke-width: 0.5"/>
    </g>
    <g id="text_19">
     <!-- vgg19 -->
     <g transform="translate(345.72 243.24025) scale(0.1 -0.1)">
      <use xlink:href="#FangSong-76"/>
      <use xlink:href="#FangSong-67" x="50"/>
      <use xlink:href="#FangSong-67" x="100"/>
      <use xlink:href="#FangSong-31" x="150"/>
      <use xlink:href="#FangSong-39" x="200"/>
     </g>
    </g>
    <g id="line2d_23">
     <path d="M 317.72 253.224625 
L 327.72 253.224625 
L 337.72 253.224625 
" style="fill: none; stroke-dasharray: 1.85,0.8; stroke-dashoffset: 0; stroke: #0000ff; stroke-width: 0.5"/>
    </g>
    <g id="text_20">
     <!-- squeezenetv1 -->
     <g transform="translate(345.72 256.724625) scale(0.1 -0.1)">
      <use xlink:href="#FangSong-73"/>
      <use xlink:href="#FangSong-71" x="50"/>
      <use xlink:href="#FangSong-75" x="100"/>
      <use xlink:href="#FangSong-65" x="150"/>
      <use xlink:href="#FangSong-65" x="200"/>
      <use xlink:href="#FangSong-7a" x="250"/>
      <use xlink:href="#FangSong-65" x="300"/>
      <use xlink:href="#FangSong-6e" x="350"/>
      <use xlink:href="#FangSong-65" x="400"/>
      <use xlink:href="#FangSong-74" x="450"/>
      <use xlink:href="#FangSong-76" x="500"/>
      <use xlink:href="#FangSong-31" x="550"/>
     </g>
    </g>
    <g id="line2d_24">
     <path d="M 317.72 266.669937 
L 327.72 266.669937 
L 337.72 266.669937 
" style="fill: none; stroke-dasharray: 1.85,0.8; stroke-dashoffset: 0; stroke: #bf00bf; stroke-width: 0.5"/>
    </g>
    <g id="text_21">
     <!-- resnet50 -->
     <g transform="translate(345.72 270.169937) scale(0.1 -0.1)">
      <use xlink:href="#FangSong-72"/>
      <use xlink:href="#FangSong-65" x="50"/>
      <use xlink:href="#FangSong-73" x="100"/>
      <use xlink:href="#FangSong-6e" x="150"/>
      <use xlink:href="#FangSong-65" x="200"/>
      <use xlink:href="#FangSong-74" x="250"/>
      <use xlink:href="#FangSong-35" x="300"/>
      <use xlink:href="#FangSong-30" x="350"/>
     </g>
    </g>
    <g id="line2d_25">
     <path d="M 317.72 280.11525 
L 327.72 280.11525 
L 337.72 280.11525 
" style="fill: none; stroke-dasharray: 1.85,0.8; stroke-dashoffset: 0; stroke: #bfbf00; stroke-width: 0.5"/>
    </g>
    <g id="text_22">
     <!-- googlenet -->
     <g transform="translate(345.72 283.61525) scale(0.1 -0.1)">
      <use xlink:href="#FangSong-67"/>
      <use xlink:href="#FangSong-6f" x="50"/>
      <use xlink:href="#FangSong-6f" x="100"/>
      <use xlink:href="#FangSong-67" x="150"/>
      <use xlink:href="#FangSong-6c" x="200"/>
      <use xlink:href="#FangSong-65" x="250"/>
      <use xlink:href="#FangSong-6e" x="300"/>
      <use xlink:href="#FangSong-65" x="350"/>
      <use xlink:href="#FangSong-74" x="400"/>
     </g>
    </g>
    <g id="line2d_26">
     <path d="M 317.72 293.599625 
L 327.72 293.599625 
L 337.72 293.599625 
" style="fill: none; stroke-dasharray: 1.85,0.8; stroke-dashoffset: 0; stroke: #000000; stroke-width: 0.5"/>
    </g>
    <g id="text_23">
     <!-- yolov2 -->
     <g transform="translate(345.72 297.099625) scale(0.1 -0.1)">
      <use xlink:href="#FangSong-79"/>
      <use xlink:href="#FangSong-6f" x="50"/>
      <use xlink:href="#FangSong-6c" x="100"/>
      <use xlink:href="#FangSong-6f" x="150"/>
      <use xlink:href="#FangSong-76" x="200"/>
      <use xlink:href="#FangSong-32" x="250"/>
     </g>
    </g>
   </g>
  </g>
 </g>
 <defs>
  <clipPath id="pdbdee1a18b">
   <rect x="57.6" y="41.472" width="357.12" height="266.112"/>
  </clipPath>
 </defs>
</svg>
