<?xml version="1.0" encoding="utf-8" standalone="no"?>
<!DOCTYPE svg PUBLIC "-//W3C//DTD SVG 1.1//EN"
  "http://www.w3.org/Graphics/SVG/1.1/DTD/svg11.dtd">
<svg xmlns:xlink="http://www.w3.org/1999/xlink" width="460.8pt" height="345.6pt" viewBox="0 0 460.8 345.6" xmlns="http://www.w3.org/2000/svg" version="1.1">
 <metadata>
  <rdf:RDF xmlns:dc="http://purl.org/dc/elements/1.1/" xmlns:cc="http://creativecommons.org/ns#" xmlns:rdf="http://www.w3.org/1999/02/22-rdf-syntax-ns#">
   <cc:Work>
    <dc:type rdf:resource="http://purl.org/dc/dcmitype/StillImage"/>
    <dc:date>2023-01-19T17:24:44.227627</dc:date>
    <dc:format>image/svg+xml</dc:format>
    <dc:creator>
     <cc:Agent>
      <dc:title>Matplotlib v3.6.3, https://matplotlib.org/</dc:title>
     </cc:Agent>
    </dc:creator>
   </cc:Work>
  </rdf:RDF>
 </metadata>
 <defs>
  <style type="text/css">*{stroke-linejoin: round; stroke-linecap: butt}</style>
 </defs>
 <g id="figure_1">
  <g id="patch_1">
   <path d="M 0 345.6 
L 460.8 345.6 
L 460.8 0 
L 0 0 
z
" style="fill: #ffffff"/>
  </g>
  <g id="axes_1">
   <g id="patch_2">
    <path d="M 57.6 307.584 
L 414.72 307.584 
L 414.72 41.472 
L 57.6 41.472 
z
" style="fill: #ffffff"/>
   </g>
   <g id="matplotlib.axis_1">
    <g id="xtick_1">
     <g id="line2d_1">
      <defs>
       <path id="m705487236d" d="M 0 0 
L 0 3.5 
" style="stroke: #000000; stroke-width: 0.8"/>
      </defs>
      <g>
       <use xlink:href="#m705487236d" x="69.939987" y="307.584" style="stroke: #000000; stroke-width: 0.8"/>
      </g>
     </g>
     <g id="text_1">
      <!-- 0 -->
      <g transform="translate(67.439987 321.576187) scale(0.1 -0.1)">
       <defs>
        <path id="FangSong-30" d="M 1575 4125 
Q 1225 4125 987 3587 
Q 750 3050 750 2150 
Q 750 1200 987 675 
Q 1225 150 1575 150 
Q 1950 150 2162 675 
Q 2375 1200 2375 2150 
Q 2375 3050 2175 3587 
Q 1975 4125 1575 4125 
z
M 1575 -50 
Q 1025 -50 650 525 
Q 275 1100 275 2150 
Q 275 3125 637 3725 
Q 1000 4325 1575 4325 
Q 2125 4325 2487 3750 
Q 2850 3175 2850 2150 
Q 2850 1125 2487 537 
Q 2125 -50 1575 -50 
z
" transform="scale(0.015625)"/>
       </defs>
       <use xlink:href="#FangSong-30"/>
      </g>
     </g>
    </g>
    <g id="xtick_2">
     <g id="line2d_2">
      <g>
       <use xlink:href="#m705487236d" x="147.794794" y="307.584" style="stroke: #000000; stroke-width: 0.8"/>
      </g>
     </g>
     <g id="text_2">
      <!-- 20 -->
      <g transform="translate(142.794794 321.576187) scale(0.1 -0.1)">
       <defs>
        <path id="FangSong-32" d="M 2300 3225 
Q 2300 3675 2100 3912 
Q 1900 4150 1500 4150 
Q 1200 4150 987 3987 
Q 775 3825 775 3575 
Q 775 3425 862 3325 
Q 950 3225 950 3125 
Q 950 3000 887 2937 
Q 825 2875 700 2875 
Q 550 2875 462 2962 
Q 375 3050 375 3250 
Q 375 3775 750 4050 
Q 1125 4325 1550 4325 
Q 2150 4325 2437 4025 
Q 2725 3725 2725 3275 
Q 2725 2975 2587 2675 
Q 2450 2375 2150 2100 
Q 1425 1400 1037 962 
Q 650 525 575 375 
L 2050 375 
Q 2275 375 2425 550 
Q 2575 725 2625 1075 
L 2775 1075 
L 2625 0 
L 300 0 
L 300 325 
Q 425 550 712 900 
Q 1000 1250 1475 1725 
Q 1900 2150 2100 2525 
Q 2300 2900 2300 3225 
z
" transform="scale(0.015625)"/>
       </defs>
       <use xlink:href="#FangSong-32"/>
       <use xlink:href="#FangSong-30" x="50"/>
      </g>
     </g>
    </g>
    <g id="xtick_3">
     <g id="line2d_3">
      <g>
       <use xlink:href="#m705487236d" x="225.649601" y="307.584" style="stroke: #000000; stroke-width: 0.8"/>
      </g>
     </g>
     <g id="text_3">
      <!-- 40 -->
      <g transform="translate(220.649601 321.576187) scale(0.1 -0.1)">
       <defs>
        <path id="FangSong-34" d="M 2275 475 
Q 2275 300 2375 225 
Q 2475 150 2650 150 
L 2875 150 
L 2875 0 
L 1225 0 
L 1225 150 
L 1500 150 
Q 1700 150 1787 225 
Q 1875 300 1875 475 
L 1875 1300 
L 200 1300 
L 200 1425 
L 2025 4325 
L 2275 4325 
L 2275 1450 
L 2950 1450 
L 2950 1300 
L 2275 1300 
L 2275 475 
z
M 1850 3700 
L 425 1450 
L 1875 1450 
L 1875 3700 
L 1850 3700 
z
" transform="scale(0.015625)"/>
       </defs>
       <use xlink:href="#FangSong-34"/>
       <use xlink:href="#FangSong-30" x="50"/>
      </g>
     </g>
    </g>
    <g id="xtick_4">
     <g id="line2d_4">
      <g>
       <use xlink:href="#m705487236d" x="303.504408" y="307.584" style="stroke: #000000; stroke-width: 0.8"/>
      </g>
     </g>
     <g id="text_4">
      <!-- 60 -->
      <g transform="translate(298.504408 321.576187) scale(0.1 -0.1)">
       <defs>
        <path id="FangSong-36" d="M 750 1700 
Q 750 950 1012 537 
Q 1275 125 1650 125 
Q 2025 125 2225 400 
Q 2425 675 2425 1425 
Q 2425 1925 2212 2200 
Q 2000 2475 1700 2475 
Q 1425 2475 1187 2312 
Q 950 2150 750 1700 
z
M 1725 2725 
Q 2325 2725 2587 2325 
Q 2850 1925 2850 1425 
Q 2850 675 2487 312 
Q 2125 -50 1650 -50 
Q 975 -50 625 462 
Q 275 975 275 1950 
Q 275 3100 700 3712 
Q 1125 4325 1850 4325 
Q 2200 4325 2412 4125 
Q 2625 3925 2625 3775 
Q 2625 3625 2562 3550 
Q 2500 3475 2350 3475 
Q 2225 3475 2162 3537 
Q 2100 3600 2100 3725 
Q 2100 3775 2112 3825 
Q 2125 3875 2125 3925 
Q 2125 4025 2050 4087 
Q 1975 4150 1775 4150 
Q 1350 4150 1050 3762 
Q 750 3375 750 2075 
Q 900 2400 1162 2562 
Q 1425 2725 1725 2725 
z
" transform="scale(0.015625)"/>
       </defs>
       <use xlink:href="#FangSong-36"/>
       <use xlink:href="#FangSong-30" x="50"/>
      </g>
     </g>
    </g>
    <g id="xtick_5">
     <g id="line2d_5">
      <g>
       <use xlink:href="#m705487236d" x="381.359215" y="307.584" style="stroke: #000000; stroke-width: 0.8"/>
      </g>
     </g>
     <g id="text_5">
      <!-- 80 -->
      <g transform="translate(376.359215 321.576187) scale(0.1 -0.1)">
       <defs>
        <path id="FangSong-38" d="M 600 1025 
Q 600 625 862 375 
Q 1125 125 1525 125 
Q 2000 125 2212 375 
Q 2425 625 2425 1000 
Q 2425 1325 2125 1625 
Q 1825 1925 1225 2175 
Q 925 1975 762 1675 
Q 600 1375 600 1025 
z
M 2800 1075 
Q 2800 600 2450 275 
Q 2100 -50 1525 -50 
Q 1000 -50 625 275 
Q 250 600 250 1025 
Q 250 1450 462 1750 
Q 675 2050 1075 2275 
Q 725 2450 537 2712 
Q 350 2975 350 3300 
Q 350 3725 675 4025 
Q 1000 4325 1575 4325 
Q 2100 4325 2425 4025 
Q 2750 3725 2750 3300 
Q 2750 3000 2562 2737 
Q 2375 2475 1975 2275 
Q 2400 2025 2600 1725 
Q 2800 1425 2800 1075 
z
M 2400 3275 
Q 2400 3625 2200 3887 
Q 2000 4150 1575 4150 
Q 1100 4150 900 3900 
Q 700 3650 700 3375 
Q 700 3100 987 2837 
Q 1275 2575 1800 2375 
Q 2100 2525 2250 2750 
Q 2400 2975 2400 3275 
z
" transform="scale(0.015625)"/>
       </defs>
       <use xlink:href="#FangSong-38"/>
       <use xlink:href="#FangSong-30" x="50"/>
      </g>
     </g>
    </g>
    <g id="text_6">
     <!-- Latency -->
     <g transform="translate(218.66 333.974625) scale(0.1 -0.1)">
      <defs>
       <path id="FangSong-4c" d="M 975 350 
Q 975 250 1037 200 
Q 1100 150 1200 150 
L 1875 150 
Q 2225 150 2475 362 
Q 2725 575 2850 1025 
L 2975 975 
L 2750 0 
L 175 0 
L 175 150 
L 350 150 
Q 475 150 525 200 
Q 575 250 575 350 
L 575 3925 
Q 575 4025 525 4075 
Q 475 4125 350 4125 
L 200 4125 
L 200 4275 
L 1375 4275 
L 1375 4125 
L 1200 4125 
Q 1100 4125 1037 4075 
Q 975 4025 975 3925 
L 975 350 
z
" transform="scale(0.015625)"/>
       <path id="FangSong-61" d="M 1200 -25 
Q 750 -25 500 187 
Q 250 400 250 675 
Q 250 1125 637 1412 
Q 1025 1700 2175 1825 
L 2175 2125 
Q 2175 2375 2062 2537 
Q 1950 2700 1550 2700 
Q 1125 2700 950 2562 
Q 775 2425 825 2275 
Q 875 2175 825 2075 
Q 775 1975 625 1975 
Q 525 1975 462 2037 
Q 400 2100 400 2225 
Q 400 2450 725 2650 
Q 1050 2850 1525 2850 
Q 2025 2850 2275 2662 
Q 2525 2475 2525 2125 
L 2525 475 
Q 2525 275 2562 237 
Q 2600 200 2700 200 
Q 2825 200 2875 312 
Q 2925 425 2925 625 
L 3050 625 
Q 3050 275 2925 137 
Q 2800 0 2600 0 
Q 2425 0 2325 75 
Q 2225 150 2175 325 
Q 1925 150 1712 62 
Q 1500 -25 1200 -25 
z
M 675 750 
Q 675 525 812 337 
Q 950 150 1250 150 
Q 1475 150 1700 237 
Q 1925 325 2175 500 
L 2175 1675 
Q 1325 1575 1000 1337 
Q 675 1100 675 750 
z
" transform="scale(0.015625)"/>
       <path id="FangSong-74" d="M 1475 800 
Q 1475 450 1600 325 
Q 1725 200 1975 200 
Q 2225 200 2375 362 
Q 2525 525 2575 825 
L 2700 775 
Q 2650 425 2437 200 
Q 2225 -25 1875 -25 
Q 1500 -25 1312 200 
Q 1125 425 1125 900 
L 1125 2650 
L 375 2650 
L 375 2800 
L 575 2800 
Q 875 2800 1062 2987 
Q 1250 3175 1300 3575 
L 1325 3775 
L 1475 3775 
L 1475 2800 
L 2475 2800 
L 2475 2650 
L 1475 2650 
L 1475 800 
z
" transform="scale(0.015625)"/>
       <path id="FangSong-65" d="M 2375 1550 
Q 2400 2100 2187 2387 
Q 1975 2675 1625 2675 
Q 1250 2675 1012 2375 
Q 775 2075 775 1550 
L 2375 1550 
z
M 775 1400 
Q 775 725 1037 437 
Q 1300 150 1725 150 
Q 2050 150 2275 337 
Q 2500 525 2600 800 
L 2725 750 
Q 2650 475 2387 212 
Q 2125 -50 1675 -50 
Q 1100 -50 737 325 
Q 375 700 375 1400 
Q 375 2025 737 2437 
Q 1100 2850 1625 2850 
Q 2100 2850 2450 2525 
Q 2800 2200 2800 1400 
L 775 1400 
z
" transform="scale(0.015625)"/>
       <path id="FangSong-6e" d="M 175 0 
L 175 150 
L 300 150 
Q 425 150 475 200 
Q 525 250 525 350 
L 525 2500 
Q 525 2575 500 2612 
Q 475 2650 400 2650 
L 200 2650 
L 200 2800 
L 375 2800 
Q 500 2800 612 2825 
Q 725 2850 825 2925 
L 875 2925 
L 875 2350 
Q 1100 2600 1325 2725 
Q 1550 2850 1800 2850 
Q 2225 2850 2425 2625 
Q 2625 2400 2625 1950 
L 2625 350 
Q 2625 250 2687 200 
Q 2750 150 2850 150 
L 2975 150 
L 2975 0 
L 1925 0 
L 1925 150 
L 2050 150 
Q 2175 150 2225 200 
Q 2275 250 2275 350 
L 2275 2025 
Q 2275 2325 2150 2487 
Q 2025 2650 1775 2650 
Q 1550 2650 1312 2500 
Q 1075 2350 875 2075 
L 875 350 
Q 875 250 937 200 
Q 1000 150 1100 150 
L 1225 150 
L 1225 0 
L 175 0 
z
" transform="scale(0.015625)"/>
       <path id="FangSong-63" d="M 2125 2125 
Q 2125 2200 2137 2225 
Q 2150 2250 2175 2325 
Q 2200 2425 2075 2562 
Q 1950 2700 1650 2700 
Q 1275 2700 1012 2337 
Q 750 1975 750 1375 
Q 750 825 975 487 
Q 1200 150 1725 150 
Q 2075 150 2312 375 
Q 2550 600 2650 900 
L 2775 850 
Q 2675 475 2400 212 
Q 2125 -50 1650 -50 
Q 1050 -50 700 325 
Q 350 700 350 1400 
Q 350 2025 725 2437 
Q 1100 2850 1700 2850 
Q 2125 2850 2362 2625 
Q 2600 2400 2600 2175 
Q 2600 2025 2537 1962 
Q 2475 1900 2350 1900 
Q 2250 1900 2187 1962 
Q 2125 2025 2125 2125 
z
" transform="scale(0.015625)"/>
       <path id="FangSong-79" d="M 1625 700 
L 1675 700 
L 2225 2375 
Q 2275 2500 2212 2575 
Q 2150 2650 2050 2650 
L 1900 2650 
L 1900 2800 
L 2950 2800 
L 2950 2650 
L 2800 2650 
Q 2700 2650 2600 2575 
Q 2500 2500 2450 2375 
L 1600 -100 
Q 1475 -500 1287 -712 
Q 1100 -925 800 -950 
Q 650 -950 537 -875 
Q 425 -800 425 -675 
Q 425 -575 487 -500 
Q 550 -425 675 -425 
Q 775 -425 837 -525 
Q 900 -625 1050 -587 
Q 1200 -550 1250 -425 
Q 1300 -350 1375 -162 
Q 1450 25 1500 225 
L 650 2425 
Q 625 2525 537 2587 
Q 450 2650 350 2650 
L 250 2650 
L 250 2800 
L 1300 2800 
L 1300 2650 
L 1200 2650 
Q 1100 2650 1050 2587 
Q 1000 2525 1025 2400 
L 1625 700 
z
" transform="scale(0.015625)"/>
      </defs>
      <use xlink:href="#FangSong-4c"/>
      <use xlink:href="#FangSong-61" x="50"/>
      <use xlink:href="#FangSong-74" x="100"/>
      <use xlink:href="#FangSong-65" x="150"/>
      <use xlink:href="#FangSong-6e" x="200"/>
      <use xlink:href="#FangSong-63" x="250"/>
      <use xlink:href="#FangSong-79" x="300"/>
     </g>
    </g>
   </g>
   <g id="matplotlib.axis_2">
    <g id="ytick_1">
     <g id="line2d_6">
      <defs>
       <path id="m547d86c17e" d="M 0 0 
L -3.5 0 
" style="stroke: #000000; stroke-width: 0.8"/>
      </defs>
      <g>
       <use xlink:href="#m547d86c17e" x="57.6" y="295.488" style="stroke: #000000; stroke-width: 0.8"/>
      </g>
     </g>
     <g id="text_7">
      <!-- 0% -->
      <g transform="translate(40.6 298.984094) scale(0.1 -0.1)">
       <defs>
        <path id="FangSong-25" d="M 725 4150 
Q 575 4150 475 3950 
Q 375 3750 375 3200 
Q 375 2575 487 2387 
Q 600 2200 725 2200 
Q 900 2200 987 2425 
Q 1075 2650 1075 3200 
Q 1075 3650 1012 3900 
Q 950 4150 725 4150 
z
M 1400 3175 
Q 1400 2725 1250 2387 
Q 1100 2050 725 2050 
Q 425 2050 237 2350 
Q 50 2650 50 3175 
Q 50 3725 250 4025 
Q 450 4325 725 4325 
Q 1025 4325 1212 4012 
Q 1400 3700 1400 3175 
z
M 2700 1100 
Q 2700 1525 2625 1800 
Q 2550 2075 2350 2075 
Q 2200 2075 2100 1837 
Q 2000 1600 2000 1100 
Q 2000 475 2112 300 
Q 2225 125 2350 125 
Q 2525 125 2612 337 
Q 2700 550 2700 1100 
z
M 3025 1075 
Q 3025 575 2850 262 
Q 2675 -50 2350 -50 
Q 2075 -50 1875 262 
Q 1675 575 1675 1075 
Q 1675 1625 1875 1937 
Q 2075 2250 2350 2250 
Q 2650 2250 2837 1925 
Q 3025 1600 3025 1075 
z
M 2500 4250 
L 700 -50 
L 550 25 
L 2325 4325 
L 2500 4250 
z
" transform="scale(0.015625)"/>
       </defs>
       <use xlink:href="#FangSong-30"/>
       <use xlink:href="#FangSong-25" x="50"/>
      </g>
     </g>
    </g>
    <g id="ytick_2">
     <g id="line2d_7">
      <g>
       <use xlink:href="#m547d86c17e" x="57.6" y="247.104" style="stroke: #000000; stroke-width: 0.8"/>
      </g>
     </g>
     <g id="text_8">
      <!-- 20% -->
      <g transform="translate(35.6 250.600094) scale(0.1 -0.1)">
       <use xlink:href="#FangSong-32"/>
       <use xlink:href="#FangSong-30" x="50"/>
       <use xlink:href="#FangSong-25" x="100"/>
      </g>
     </g>
    </g>
    <g id="ytick_3">
     <g id="line2d_8">
      <g>
       <use xlink:href="#m547d86c17e" x="57.6" y="198.72" style="stroke: #000000; stroke-width: 0.8"/>
      </g>
     </g>
     <g id="text_9">
      <!-- 40% -->
      <g transform="translate(35.6 202.216094) scale(0.1 -0.1)">
       <use xlink:href="#FangSong-34"/>
       <use xlink:href="#FangSong-30" x="50"/>
       <use xlink:href="#FangSong-25" x="100"/>
      </g>
     </g>
    </g>
    <g id="ytick_4">
     <g id="line2d_9">
      <g>
       <use xlink:href="#m547d86c17e" x="57.6" y="150.336" style="stroke: #000000; stroke-width: 0.8"/>
      </g>
     </g>
     <g id="text_10">
      <!-- 60% -->
      <g transform="translate(35.6 153.832094) scale(0.1 -0.1)">
       <use xlink:href="#FangSong-36"/>
       <use xlink:href="#FangSong-30" x="50"/>
       <use xlink:href="#FangSong-25" x="100"/>
      </g>
     </g>
    </g>
    <g id="ytick_5">
     <g id="line2d_10">
      <g>
       <use xlink:href="#m547d86c17e" x="57.6" y="101.952" style="stroke: #000000; stroke-width: 0.8"/>
      </g>
     </g>
     <g id="text_11">
      <!-- 80% -->
      <g transform="translate(35.6 105.448094) scale(0.1 -0.1)">
       <use xlink:href="#FangSong-38"/>
       <use xlink:href="#FangSong-30" x="50"/>
       <use xlink:href="#FangSong-25" x="100"/>
      </g>
     </g>
    </g>
    <g id="ytick_6">
     <g id="line2d_11">
      <g>
       <use xlink:href="#m547d86c17e" x="57.6" y="53.568" style="stroke: #000000; stroke-width: 0.8"/>
      </g>
     </g>
     <g id="text_12">
      <!-- 100% -->
      <g transform="translate(30.6 57.064094) scale(0.1 -0.1)">
       <defs>
        <path id="FangSong-31" d="M 1800 4350 
L 1800 550 
Q 1800 350 1925 250 
Q 2050 150 2275 150 
L 2525 150 
L 2525 0 
L 700 0 
L 700 150 
L 925 150 
Q 1175 150 1287 250 
Q 1400 350 1400 550 
L 1400 3575 
Q 1400 3675 1337 3737 
Q 1275 3800 1150 3800 
L 700 3800 
L 700 3950 
L 925 3950 
Q 1225 3950 1412 4050 
Q 1600 4150 1700 4350 
L 1800 4350 
z
" transform="scale(0.015625)"/>
       </defs>
       <use xlink:href="#FangSong-31"/>
       <use xlink:href="#FangSong-30" x="50"/>
       <use xlink:href="#FangSong-30" x="100"/>
       <use xlink:href="#FangSong-25" x="150"/>
      </g>
     </g>
    </g>
    <g id="text_13">
     <!-- 累计完成比例 -->
     <g transform="translate(25.154688 204.528) rotate(-90) scale(0.1 -0.1)">
      <defs>
       <path id="FangSong-7d2f" d="M 4525 4975 
L 4700 5225 
L 5000 4950 
L 4825 4775 
L 4625 3550 
L 4850 3300 
L 3175 3150 
L 3375 2975 
Q 3200 2925 2862 2725 
Q 2525 2525 2075 2275 
L 3475 2500 
Q 3750 2675 3900 2800 
Q 4050 2925 4100 3075 
L 4175 3100 
L 4325 2700 
Q 4200 2675 3500 2237 
Q 2800 1800 2275 1550 
L 4375 1825 
L 3900 2175 
L 4000 2275 
Q 4625 1900 4950 1725 
Q 4975 1475 4925 1225 
Q 4800 1375 4500 1675 
L 3250 1475 
L 3525 1300 
Q 3375 1200 3375 875 
L 3375 25 
Q 3375 -325 3225 -625 
Q 2975 -325 2400 150 
L 2450 250 
L 3050 -75 
Q 3150 -125 3150 0 
L 3150 925 
Q 3150 1300 3125 1450 
Q 1875 1275 1575 1175 
L 1325 1425 
L 1850 1550 
Q 2175 1700 3250 2300 
Q 2075 2100 1875 2000 
L 1575 2250 
L 1800 2300 
Q 2150 2475 3025 3125 
L 2000 3025 
Q 2000 2675 1950 2700 
Q 1900 2725 1650 3025 
Q 1725 3250 1725 3425 
L 1650 4400 
Q 1625 4675 1525 4950 
L 1625 5000 
L 1875 4675 
L 4525 4975 
z
M 3150 3375 
L 3150 3875 
Q 2525 3800 2400 3725 
L 2100 3975 
Q 2500 3975 3150 4075 
L 3150 4600 
L 1900 4450 
L 1975 3250 
L 3150 3375 
z
M 3375 4100 
Q 3950 4175 4025 4225 
L 4275 4000 
Q 3950 3975 3375 3900 
L 3375 3400 
L 4400 3500 
L 4575 4750 
L 3375 4600 
L 3375 4100 
z
M 5450 -75 
Q 4975 325 3875 1025 
L 3950 1125 
Q 4850 700 5350 500 
Q 5425 250 5450 -75 
z
M 800 -250 
Q 1350 75 1825 500 
Q 2300 925 2325 1125 
L 2400 1150 
L 2550 725 
Q 2425 700 2075 425 
Q 1725 150 875 -350 
L 800 -250 
z
" transform="scale(0.015625)"/>
       <path id="FangSong-8ba1" d="M 4075 4200 
Q 4100 4825 3900 5100 
L 3975 5150 
L 4450 4725 
Q 4275 4600 4300 4200 
L 4275 3000 
Q 5525 3200 5575 3250 
L 5950 2950 
Q 5725 2975 4275 2800 
L 4250 -425 
Q 4250 -700 4150 -575 
L 3875 -150 
Q 4050 50 4025 300 
L 4050 2750 
Q 2975 2625 2900 2575 
L 2525 2825 
Q 2850 2825 4050 2975 
L 4075 4200 
z
M 1775 3250 
L 2100 2950 
L 1900 2750 
L 1875 550 
L 2825 1250 
L 2875 1175 
Q 1875 250 1750 -25 
L 1525 275 
Q 1625 375 1650 625 
L 1675 2775 
Q 900 2625 750 2550 
L 425 2800 
Q 850 2825 1650 3000 
L 1775 3250 
z
M 2025 3800 
Q 1825 4300 1325 4950 
L 1375 5025 
Q 1925 4575 2175 4300 
Q 2125 4000 2025 3800 
z
" transform="scale(0.015625)"/>
       <path id="FangSong-5b8c" d="M 5375 2050 
Q 4925 2050 3550 1950 
L 3850 1750 
Q 3725 1600 3700 1375 
L 3675 275 
Q 3650 -125 4075 -175 
L 4925 -175 
Q 5300 -150 5312 62 
Q 5325 275 5325 1025 
L 5425 1025 
Q 5450 750 5475 337 
Q 5500 -75 5700 -275 
Q 5400 -375 5000 -400 
L 4075 -400 
Q 3425 -350 3425 150 
L 3475 1450 
Q 3475 1775 3425 1925 
L 2675 1850 
L 2875 1650 
Q 2750 1550 2600 1200 
Q 2450 850 2025 312 
Q 1600 -225 600 -675 
L 550 -575 
Q 1525 -100 1987 625 
Q 2450 1350 2525 1850 
Q 1550 1775 1500 1725 
L 1150 2025 
Q 1625 2025 3212 2150 
Q 4800 2275 5000 2350 
L 5375 2050 
z
M 1650 3650 
Q 1550 3125 1325 2875 
L 1150 3250 
Q 1450 3425 1575 4400 
L 1675 4400 
L 1675 3900 
L 5025 4150 
L 5175 4400 
L 5525 4075 
Q 5375 4050 4725 3250 
L 4650 3325 
L 4975 3900 
L 1650 3650 
z
M 4475 2975 
Q 4225 2975 3412 2875 
Q 2600 2775 2400 2725 
L 2050 2975 
Q 2575 2975 3200 3075 
Q 3825 3175 4150 3225 
L 4475 2975 
z
M 3550 4575 
Q 3475 4350 3300 4150 
Q 3225 4475 2900 5200 
L 2975 5250 
Q 3350 4825 3550 4575 
z
" transform="scale(0.015625)"/>
       <path id="FangSong-6210" d="M 5575 975 
Q 5600 -150 5750 -625 
Q 4650 -225 4000 1075 
Q 3625 650 2975 225 
L 2925 325 
Q 3525 825 3900 1300 
Q 3600 2275 3500 3300 
L 1875 3125 
Q 1875 2625 1825 2100 
L 2725 2250 
L 2875 2475 
L 3175 2225 
L 3000 2050 
Q 2850 475 2575 -125 
Q 2225 400 1825 775 
L 1875 850 
L 2475 400 
Q 2650 875 2750 2000 
L 1825 1850 
Q 1675 250 600 -650 
L 525 -600 
Q 1250 250 1425 987 
Q 1600 1725 1625 2612 
Q 1650 3500 1550 3800 
L 1625 3825 
L 1850 3350 
L 3450 3525 
Q 3400 4150 3375 4562 
Q 3350 4975 3225 5200 
L 3275 5225 
L 3725 4900 
Q 3625 4925 3637 4575 
Q 3650 4225 3675 3550 
Q 4900 3700 5050 3775 
L 5325 3475 
Q 4775 3475 3725 3325 
Q 3775 2425 4075 1525 
Q 4500 2025 4687 2325 
Q 4875 2625 4800 2850 
L 4875 2875 
L 5125 2325 
Q 5075 2400 4850 2125 
Q 4625 1850 4150 1275 
Q 4625 225 5425 -125 
L 5475 975 
L 5575 975 
z
M 4100 5000 
Q 4525 4700 4875 4450 
Q 4825 4250 4750 4025 
Q 4400 4525 4025 4950 
L 4100 5000 
z
" transform="scale(0.015625)"/>
       <path id="FangSong-6bd4" d="M 3500 2125 
Q 3925 2425 4487 2975 
Q 5050 3525 4950 3750 
L 5025 3775 
L 5250 3225 
Q 5175 3250 4875 3000 
Q 4575 2750 4287 2525 
Q 4000 2300 3500 1900 
L 3500 575 
Q 3475 -100 4150 -100 
L 4800 -100 
Q 5275 -100 5375 12 
Q 5475 125 5450 1350 
L 5575 1350 
Q 5600 825 5637 412 
Q 5675 0 5800 -175 
Q 5375 -325 4800 -325 
L 4150 -325 
Q 3225 -350 3275 550 
L 3275 4300 
Q 3275 4875 3150 5150 
L 3200 5200 
L 3625 4850 
Q 3475 4825 3500 4250 
L 3500 2125 
z
M 1500 2575 
Q 1900 2625 2337 2712 
Q 2775 2800 2800 2850 
L 3075 2600 
Q 2875 2575 2350 2475 
Q 1825 2375 1775 2325 
L 1500 2525 
L 1500 150 
L 2925 1075 
L 2975 1025 
Q 1550 -75 1375 -350 
L 1200 0 
Q 1275 75 1275 350 
L 1275 3925 
Q 1275 4475 1150 4750 
L 1200 4800 
L 1625 4400 
Q 1475 4375 1500 3925 
L 1500 2575 
z
" transform="scale(0.015625)"/>
       <path id="FangSong-4f8b" d="M 3050 2000 
Q 3025 1800 2975 1600 
Q 2775 1900 2525 2250 
Q 2300 1875 2025 1550 
L 1925 1625 
Q 2675 2725 2975 3975 
Q 2475 3925 2375 3875 
L 2050 4125 
Q 2375 4125 3162 4225 
Q 3950 4325 4100 4450 
L 4350 4125 
Q 4050 4150 3100 3975 
L 3300 3700 
Q 3200 3675 3125 3525 
Q 3050 3375 2925 3050 
L 3625 3150 
L 3775 3350 
L 4050 3075 
L 3875 2900 
Q 3300 825 1850 -225 
L 1800 -100 
Q 3100 975 3625 2900 
Q 3150 2825 3025 2775 
L 2875 2925 
Q 2775 2675 2575 2350 
Q 2900 2125 3050 2000 
z
M 1275 -150 
Q 1425 25 1400 225 
L 1450 3425 
Q 1025 2800 475 2225 
L 400 2325 
Q 875 2850 1450 3887 
Q 2025 4925 1925 5150 
L 2000 5175 
L 2250 4700 
Q 2200 4725 2062 4475 
Q 1925 4225 1675 3800 
L 1625 -325 
Q 1650 -675 1525 -600 
L 1275 -150 
z
M 5475 250 
Q 5475 -300 5300 -650 
Q 4900 -100 4300 375 
L 4350 475 
L 5200 -75 
Q 5250 250 5250 575 
L 5250 4350 
Q 5275 4950 5100 5150 
L 5175 5225 
L 5600 4850 
Q 5450 4775 5475 4325 
L 5475 250 
z
M 4300 1525 
Q 4400 1650 4400 1900 
L 4400 3075 
Q 4425 3525 4300 3750 
L 4350 3800 
L 4725 3450 
Q 4600 3350 4625 3025 
L 4625 1375 
Q 4625 1050 4550 1125 
L 4300 1525 
z
" transform="scale(0.015625)"/>
      </defs>
      <use xlink:href="#FangSong-7d2f"/>
      <use xlink:href="#FangSong-8ba1" x="100"/>
      <use xlink:href="#FangSong-5b8c" x="200"/>
      <use xlink:href="#FangSong-6210" x="300"/>
      <use xlink:href="#FangSong-6bd4" x="400"/>
      <use xlink:href="#FangSong-4f8b" x="500"/>
     </g>
    </g>
   </g>
   <g id="line2d_12">
    <path d="M 73.832727 295.488 
L 74.222001 190.2528 
L 75.779097 190.2528 
L 76.168371 189.76896 
L 76.557646 189.52704 
L 77.336194 188.55936 
L 78.114742 188.07552 
L 78.504016 187.59168 
L 78.89329 187.34976 
L 79.282564 186.86592 
L 79.671838 186.624 
L 80.450386 185.65632 
L 81.228934 183.96288 
L 81.618208 183.96288 
L 82.007482 183.23712 
L 82.396756 182.9952 
L 82.78603 182.02752 
L 83.175304 181.54368 
L 83.564578 181.54368 
L 83.953852 180.81792 
L 84.343126 180.576 
L 84.7324 179.60832 
L 85.121674 179.12448 
L 85.510948 178.88256 
L 85.900222 178.39872 
L 86.67877 176.9472 
L 87.068044 176.70528 
L 87.846593 175.7376 
L 88.235867 174.76992 
L 89.014415 174.28608 
L 89.403689 173.80224 
L 89.792963 173.56032 
L 90.960785 170.41536 
L 91.350059 170.41536 
L 92.517881 169.6896 
L 92.907155 169.6896 
L 93.296429 169.44768 
L 93.685703 168.23808 
L 94.074977 167.75424 
L 94.464251 167.51232 
L 94.853525 167.02848 
L 96.021347 164.36736 
L 96.410621 164.12544 
L 96.799895 163.39968 
L 97.189169 162.19008 
L 97.578443 161.46432 
L 97.967717 161.46432 
L 98.356991 160.98048 
L 98.746266 160.0128 
L 99.13554 159.77088 
L 99.524814 159.77088 
L 99.914088 159.52896 
L 100.303362 159.04512 
L 100.692636 159.04512 
L 101.471184 157.5936 
L 102.249732 157.10976 
L 102.639006 156.62592 
L 103.02828 155.65824 
L 103.417554 155.65824 
L 104.196102 153.9648 
L 104.97465 152.99712 
L 105.363924 152.27136 
L 105.753198 152.02944 
L 106.142472 151.5456 
L 106.531746 151.30368 
L 106.92102 151.30368 
L 107.310294 150.09408 
L 107.699568 149.61024 
L 108.088842 148.88448 
L 108.478116 147.9168 
L 109.256664 146.94912 
L 109.645939 146.7072 
L 110.035213 145.98144 
L 110.424487 145.73952 
L 111.592309 144.288 
L 112.760131 141.38496 
L 113.149405 140.90112 
L 114.706501 139.93344 
L 115.095775 139.4496 
L 115.485049 139.20768 
L 115.874323 139.20768 
L 116.263597 138.96576 
L 116.652871 138.96576 
L 117.820693 138.24 
L 118.599241 138.24 
L 119.377789 137.75616 
L 119.767063 137.27232 
L 120.156337 135.8208 
L 120.934886 135.33696 
L 121.32416 134.85312 
L 121.713434 134.12736 
L 122.102708 133.88544 
L 122.491982 133.4016 
L 122.881256 132.67584 
L 123.27053 132.43392 
L 123.659804 132.43392 
L 125.995448 130.9824 
L 127.16327 129.53088 
L 127.552544 129.53088 
L 127.941818 129.04704 
L 128.331092 128.32128 
L 128.720366 128.07936 
L 129.10964 128.07936 
L 129.498914 127.83744 
L 129.888188 127.83744 
L 130.277462 127.59552 
L 130.666736 127.59552 
L 131.05601 127.3536 
L 131.445284 126.86976 
L 131.834559 126.62784 
L 132.223833 126.144 
L 132.613107 126.144 
L 133.002381 125.66016 
L 133.780929 125.17632 
L 134.170203 124.69248 
L 134.559477 123.96672 
L 135.338025 123.48288 
L 135.727299 122.99904 
L 136.505847 122.5152 
L 136.895121 122.5152 
L 137.284395 122.03136 
L 137.673669 121.3056 
L 138.062943 121.3056 
L 138.841491 120.82176 
L 139.230765 120.096 
L 139.620039 119.61216 
L 140.787861 118.8864 
L 141.177135 118.8864 
L 141.566409 117.19296 
L 141.955683 116.70912 
L 142.344957 116.70912 
L 142.734232 116.22528 
L 143.51278 115.74144 
L 143.902054 115.74144 
L 144.291328 115.49952 
L 144.680602 115.01568 
L 145.069876 115.01568 
L 145.45915 114.77376 
L 145.848424 114.77376 
L 146.237698 114.28992 
L 146.626972 114.28992 
L 147.016246 114.048 
L 147.794794 112.35456 
L 148.184068 112.35456 
L 148.573342 111.38688 
L 149.35189 110.90304 
L 149.741164 110.4192 
L 150.130438 110.17728 
L 150.908986 110.17728 
L 151.29826 109.69344 
L 152.076808 109.69344 
L 153.24463 108.96768 
L 153.633905 108.48384 
L 154.412453 108.48384 
L 155.580275 107.75808 
L 155.969549 107.75808 
L 157.137371 107.03232 
L 157.526645 107.03232 
L 157.915919 106.7904 
L 158.305193 106.30656 
L 159.083741 105.82272 
L 159.473015 105.33888 
L 159.862289 105.33888 
L 160.251563 105.09696 
L 160.640837 105.09696 
L 161.030111 104.85504 
L 161.419385 104.85504 
L 161.808659 104.61312 
L 162.197933 104.61312 
L 162.587207 104.3712 
L 162.976481 103.88736 
L 163.365755 103.64544 
L 164.144303 103.64544 
L 164.533578 102.91968 
L 164.922852 102.91968 
L 165.312126 102.19392 
L 165.7014 101.952 
L 166.869222 101.952 
L 167.258496 101.71008 
L 168.037044 100.7424 
L 169.204866 100.01664 
L 169.59414 99.5328 
L 169.983414 99.29088 
L 170.372688 99.29088 
L 170.761962 98.80704 
L 171.54051 98.3232 
L 171.929784 98.3232 
L 172.319058 98.08128 
L 173.097606 98.08128 
L 173.48688 97.83936 
L 173.876154 97.35552 
L 174.265428 97.35552 
L 174.654702 97.1136 
L 176.211799 97.1136 
L 176.601073 96.87168 
L 177.379621 96.87168 
L 177.768895 96.14592 
L 178.158169 96.14592 
L 178.936717 95.66208 
L 179.325991 94.93632 
L 179.715265 94.6944 
L 180.493813 94.6944 
L 181.272361 94.21056 
L 181.661635 93.72672 
L 182.440183 93.24288 
L 182.829457 93.24288 
L 184.775827 92.03328 
L 185.165101 92.03328 
L 185.554375 91.54944 
L 186.332923 91.0656 
L 191.393486 91.0656 
L 191.78276 90.58176 
L 192.561308 90.58176 
L 192.950582 90.33984 
L 194.118404 90.33984 
L 194.896952 89.856 
L 195.286226 89.856 
L 195.6755 89.37216 
L 196.064774 88.6464 
L 196.454048 88.6464 
L 196.843322 88.40448 
L 197.232596 88.40448 
L 197.621871 88.16256 
L 198.789693 88.16256 
L 199.568241 87.67872 
L 200.346789 87.67872 
L 200.736063 86.95296 
L 201.125337 86.95296 
L 201.514611 86.71104 
L 203.460981 86.71104 
L 204.239529 86.2272 
L 204.628803 85.74336 
L 205.407351 85.74336 
L 205.796625 85.25952 
L 206.964447 85.25952 
L 207.742995 84.29184 
L 208.132269 83.56608 
L 208.910818 83.56608 
L 209.300092 83.32416 
L 209.689366 83.32416 
L 210.07864 83.08224 
L 210.467914 83.08224 
L 210.857188 82.84032 
L 214.360654 82.84032 
L 214.749928 82.5984 
L 215.139202 82.11456 
L 215.528476 81.87264 
L 216.307024 81.87264 
L 216.696298 81.63072 
L 217.085572 81.14688 
L 217.474846 80.90496 
L 217.86412 80.42112 
L 218.253394 80.1792 
L 219.421216 80.1792 
L 219.810491 79.93728 
L 220.199765 79.21152 
L 220.589039 79.21152 
L 220.978313 78.9696 
L 221.367587 78.9696 
L 221.756861 78.24384 
L 222.146135 78.00192 
L 222.924683 78.00192 
L 223.703231 77.51808 
L 224.092505 76.79232 
L 224.481779 76.5504 
L 224.871053 76.5504 
L 225.260327 76.30848 
L 225.649601 76.30848 
L 226.038875 76.06656 
L 226.428149 76.06656 
L 226.817423 75.82464 
L 227.595971 75.82464 
L 227.985245 75.58272 
L 228.374519 75.58272 
L 228.763793 75.3408 
L 229.153067 74.85696 
L 230.710164 74.85696 
L 231.099438 74.61504 
L 231.488712 74.61504 
L 231.877986 74.37312 
L 232.26726 74.37312 
L 232.656534 73.16352 
L 233.045808 72.9216 
L 233.435082 72.9216 
L 234.21363 72.43776 
L 234.992178 72.43776 
L 235.381452 72.19584 
L 235.770726 71.712 
L 236.16 71.712 
L 236.549274 71.47008 
L 237.327822 71.47008 
L 237.717096 71.22816 
L 238.10637 71.22816 
L 239.274192 70.5024 
L 239.663466 70.5024 
L 240.831288 69.77664 
L 241.220562 69.2928 
L 241.609836 69.05088 
L 243.166933 69.05088 
L 243.556207 68.80896 
L 243.945481 68.80896 
L 244.334755 68.32512 
L 244.724029 68.32512 
L 245.113303 68.0832 
L 245.502577 67.59936 
L 246.670399 66.8736 
L 247.059673 66.38976 
L 248.227495 65.664 
L 248.616769 65.664 
L 249.006043 64.93824 
L 249.784591 64.93824 
L 250.563139 64.4544 
L 252.120235 64.4544 
L 252.509509 64.21248 
L 252.898784 63.72864 
L 255.623702 63.72864 
L 256.012976 63.2448 
L 256.791524 63.2448 
L 257.570072 62.76096 
L 258.737894 62.76096 
L 259.127168 62.27712 
L 259.516442 62.27712 
L 259.905716 62.0352 
L 261.852086 62.0352 
L 262.24136 61.30944 
L 264.187731 61.30944 
L 264.577005 61.06752 
L 265.744827 61.06752 
L 267.301923 60.09984 
L 267.691197 60.09984 
L 268.080471 59.85792 
L 270.416115 59.85792 
L 270.805389 59.616 
L 271.973211 59.616 
L 272.362485 59.37408 
L 272.751759 59.37408 
L 273.530307 58.89024 
L 275.476678 58.89024 
L 276.255226 58.4064 
L 276.6445 57.92256 
L 277.423048 57.92256 
L 277.812322 57.1968 
L 278.59087 57.1968 
L 278.980144 56.71296 
L 279.369418 56.71296 
L 279.758692 56.47104 
L 280.926514 56.47104 
L 281.315788 55.9872 
L 282.094336 55.9872 
L 282.872884 55.50336 
L 289.490543 55.50336 
L 289.879817 55.26144 
L 291.826187 55.26144 
L 292.215461 55.01952 
L 312.846985 55.01952 
L 313.236259 54.7776 
L 314.014807 54.7776 
L 314.793355 54.29376 
L 315.961177 54.29376 
L 316.350451 54.05184 
L 318.296821 54.05184 
L 318.686095 53.80992 
L 398.097999 53.80992 
L 398.487273 53.568 
L 398.487273 53.568 
" clip-path="url(#p8bf73436c2)" style="fill: none; stroke: #ff0000; stroke-linecap: square"/>
   </g>
   <g id="line2d_13">
    <path d="M 73.832727 295.488 
L 74.222001 218.586278 
L 75.779097 218.586278 
L 76.168371 216.984159 
L 76.94692 216.984159 
L 77.336194 215.38204 
L 80.83966 215.38204 
L 81.228934 213.779921 
L 81.618208 213.779921 
L 82.007482 212.177801 
L 82.396756 212.177801 
L 82.78603 208.973563 
L 83.564578 208.973563 
L 83.953852 207.371444 
L 85.900222 207.371444 
L 86.67877 204.167205 
L 89.014415 204.167205 
L 89.403689 202.565086 
L 90.182237 202.565086 
L 90.571511 196.156609 
L 90.960785 194.55449 
L 92.907155 194.55449 
L 93.296429 192.952371 
L 93.685703 192.952371 
L 94.074977 191.350252 
L 94.853525 191.350252 
L 95.242799 188.146013 
L 95.632073 188.146013 
L 96.021347 186.543894 
L 96.799895 186.543894 
L 97.189169 184.941775 
L 98.356991 184.941775 
L 98.746266 181.737536 
L 99.13554 180.135417 
L 100.692636 180.135417 
L 101.08191 176.931179 
L 101.471184 175.32906 
L 101.860458 175.32906 
L 102.249732 173.72694 
L 102.639006 173.72694 
L 103.02828 172.124821 
L 103.417554 172.124821 
L 103.806828 170.522702 
L 105.753198 170.522702 
L 106.531746 167.318464 
L 106.92102 167.318464 
L 107.310294 164.114225 
L 108.86739 164.114225 
L 109.256664 162.512106 
L 110.035213 162.512106 
L 110.424487 160.909987 
L 112.370857 160.909987 
L 113.149405 157.705748 
L 113.538679 157.705748 
L 113.927953 156.103629 
L 114.706501 156.103629 
L 115.095775 154.50151 
L 116.652871 154.50151 
L 117.042145 152.899391 
L 120.156337 152.899391 
L 120.545612 151.297272 
L 120.934886 151.297272 
L 121.32416 149.695152 
L 121.713434 146.490914 
L 122.491982 146.490914 
L 123.27053 143.286675 
L 125.2169 143.286675 
L 125.606174 141.684556 
L 125.995448 141.684556 
L 126.773996 138.480318 
L 128.331092 138.480318 
L 128.720366 136.878199 
L 132.613107 136.878199 
L 133.002381 135.276079 
L 134.559477 135.276079 
L 134.948751 133.67396 
L 135.338025 133.67396 
L 135.727299 130.469722 
L 136.895121 130.469722 
L 137.284395 128.867603 
L 138.841491 128.867603 
L 139.230765 127.265483 
L 139.620039 127.265483 
L 140.009313 125.663364 
L 141.177135 125.663364 
L 141.566409 120.857007 
L 143.902054 120.857007 
L 144.680602 117.652768 
L 147.016246 117.652768 
L 147.40552 116.050649 
L 148.184068 116.050649 
L 148.962616 112.846411 
L 150.908986 112.846411 
L 151.29826 111.244291 
L 152.076808 111.244291 
L 152.855356 108.040053 
L 162.976481 108.040053 
L 163.365755 106.437934 
L 164.922852 106.437934 
L 165.312126 104.835815 
L 169.204866 104.835815 
L 169.59414 103.233695 
L 178.936717 103.233695 
L 179.325991 101.631576 
L 182.050909 101.631576 
L 182.440183 100.029457 
L 183.218731 100.029457 
L 183.608005 98.427338 
L 185.165101 98.427338 
L 185.943649 95.223099 
L 195.6755 95.223099 
L 196.064774 93.62098 
L 200.346789 93.62098 
L 200.736063 92.018861 
L 203.850255 92.018861 
L 204.628803 88.814623 
L 205.407351 88.814623 
L 205.796625 85.610384 
L 206.964447 85.610384 
L 207.742995 82.406146 
L 217.474846 82.406146 
L 218.253394 79.201907 
L 224.092505 79.201907 
L 224.481779 77.599788 
L 227.595971 77.599788 
L 227.985245 75.997669 
L 232.26726 75.997669 
L 232.656534 71.191311 
L 233.435082 71.191311 
L 233.824356 69.589192 
L 238.10637 69.589192 
L 238.495644 67.987073 
L 240.831288 67.987073 
L 241.609836 64.782834 
L 244.724029 64.782834 
L 245.502577 61.578596 
L 246.281125 61.578596 
L 247.059673 58.374358 
L 248.616769 58.374358 
L 249.006043 56.772238 
L 249.784591 56.772238 
L 250.173865 55.170119 
L 258.737894 55.170119 
L 259.127168 53.568 
L 398.487273 53.568 
L 398.487273 53.568 
" clip-path="url(#p8bf73436c2)" style="fill: none; stroke-dasharray: 1.85,0.8; stroke-dashoffset: 0; stroke: #008000; stroke-width: 0.5"/>
   </g>
   <g id="line2d_14">
    <path d="M 73.832727 295.488 
L 74.222001 126.239621 
L 76.557646 126.239621 
L 76.94692 125.283415 
L 78.114742 125.283415 
L 79.282564 122.414798 
L 81.618208 122.414798 
L 82.007482 121.458593 
L 82.78603 121.458593 
L 83.175304 120.502387 
L 84.343126 120.502387 
L 85.510948 117.633771 
L 85.900222 115.72136 
L 87.846593 115.72136 
L 88.235867 113.808949 
L 88.625141 112.852743 
L 89.403689 112.852743 
L 89.792963 111.896538 
L 90.182237 109.984126 
L 90.960785 108.071715 
L 91.739333 108.071715 
L 92.128607 107.11551 
L 94.853525 107.11551 
L 96.799895 102.334482 
L 97.967717 102.334482 
L 98.356991 101.378277 
L 101.08191 101.378277 
L 101.471184 99.465866 
L 102.249732 99.465866 
L 103.02828 97.553455 
L 103.417554 97.553455 
L 103.806828 95.641043 
L 104.97465 95.641043 
L 105.363924 94.684838 
L 106.92102 94.684838 
L 107.699568 92.772427 
L 108.478116 92.772427 
L 108.86739 90.860016 
L 109.256664 89.90381 
L 111.203035 89.90381 
L 111.592309 87.991399 
L 117.431419 87.991399 
L 117.820693 87.035194 
L 119.767063 87.035194 
L 120.156337 85.122783 
L 122.491982 85.122783 
L 122.881256 84.166577 
L 123.659804 84.166577 
L 124.049078 83.210372 
L 126.773996 83.210372 
L 127.16327 81.29796 
L 130.666736 81.29796 
L 131.834559 78.429344 
L 133.780929 78.429344 
L 134.170203 76.516933 
L 134.559477 75.560727 
L 135.727299 75.560727 
L 136.116573 74.604522 
L 137.284395 74.604522 
L 137.673669 73.648316 
L 138.062943 73.648316 
L 138.452217 72.692111 
L 138.841491 72.692111 
L 139.230765 71.735905 
L 141.566409 71.735905 
L 141.955683 70.7797 
L 145.069876 70.7797 
L 145.45915 69.823494 
L 145.848424 69.823494 
L 146.237698 68.867289 
L 146.626972 68.867289 
L 147.016246 67.911083 
L 147.794794 64.086261 
L 156.358823 64.086261 
L 156.748097 63.130055 
L 160.640837 63.130055 
L 161.030111 62.17385 
L 164.144303 62.17385 
L 164.533578 61.217644 
L 171.929784 61.217644 
L 172.319058 60.261439 
L 173.097606 60.261439 
L 173.48688 59.305233 
L 177.379621 59.305233 
L 177.768895 58.349028 
L 178.547443 58.349028 
L 178.936717 57.392822 
L 180.493813 57.392822 
L 180.883087 56.436617 
L 181.272361 56.436617 
L 181.661635 55.480411 
L 191.393486 55.480411 
L 191.78276 54.524206 
L 195.6755 54.524206 
L 196.064774 53.568 
L 398.487273 53.568 
L 398.487273 53.568 
" clip-path="url(#p8bf73436c2)" style="fill: none; stroke-dasharray: 1.85,0.8; stroke-dashoffset: 0; stroke: #0000ff; stroke-width: 0.5"/>
   </g>
   <g id="line2d_15">
    <path d="M 73.832727 295.488 
L 74.222001 231.824842 
L 76.168371 231.824842 
L 77.336194 227.050105 
L 77.725468 227.050105 
L 78.504016 223.866947 
L 78.89329 223.866947 
L 79.282564 222.275368 
L 79.671838 222.275368 
L 80.061112 219.092211 
L 80.450386 219.092211 
L 81.228934 215.909053 
L 82.78603 215.909053 
L 83.175304 214.317474 
L 83.564578 214.317474 
L 83.953852 212.725895 
L 84.343126 212.725895 
L 85.121674 209.542737 
L 87.068044 209.542737 
L 87.457319 206.359579 
L 87.846593 206.359579 
L 88.235867 203.176421 
L 88.625141 203.176421 
L 89.014415 201.584842 
L 89.792963 201.584842 
L 90.182237 199.993263 
L 90.571511 199.993263 
L 90.960785 198.401684 
L 93.296429 198.401684 
L 93.685703 193.626947 
L 94.074977 193.626947 
L 94.853525 190.443789 
L 95.632073 190.443789 
L 96.021347 187.260632 
L 96.410621 187.260632 
L 96.799895 185.669053 
L 97.578443 179.302737 
L 102.639006 179.302737 
L 103.02828 177.711158 
L 103.806828 177.711158 
L 104.585376 174.528 
L 104.97465 171.344842 
L 105.753198 168.161684 
L 106.92102 168.161684 
L 107.310294 166.570105 
L 108.088842 166.570105 
L 108.478116 164.978526 
L 109.645939 164.978526 
L 110.035213 161.795368 
L 110.424487 161.795368 
L 110.813761 160.203789 
L 111.981583 160.203789 
L 112.370857 157.020632 
L 113.538679 152.245895 
L 114.317227 152.245895 
L 114.706501 150.654316 
L 121.32416 150.654316 
L 121.713434 149.062737 
L 122.102708 149.062737 
L 122.491982 147.471158 
L 124.049078 147.471158 
L 124.438352 145.879579 
L 124.827626 145.879579 
L 125.2169 144.288 
L 126.384722 144.288 
L 126.773996 142.696421 
L 129.10964 142.696421 
L 129.498914 141.104842 
L 129.888188 141.104842 
L 130.277462 139.513263 
L 133.391655 139.513263 
L 133.780929 137.921684 
L 134.948751 137.921684 
L 135.338025 136.330105 
L 136.895121 136.330105 
L 137.284395 134.738526 
L 138.452217 134.738526 
L 138.841491 133.146947 
L 140.009313 133.146947 
L 140.398587 131.555368 
L 141.177135 131.555368 
L 141.566409 128.372211 
L 145.848424 128.372211 
L 146.237698 126.780632 
L 147.40552 126.780632 
L 147.794794 125.189053 
L 149.35189 125.189053 
L 149.741164 123.597474 
L 150.908986 123.597474 
L 151.29826 122.005895 
L 152.855356 122.005895 
L 153.24463 120.414316 
L 157.915919 120.414316 
L 158.305193 118.822737 
L 159.083741 118.822737 
L 159.473015 115.639579 
L 159.862289 115.639579 
L 160.251563 114.048 
L 161.419385 114.048 
L 161.808659 112.456421 
L 162.587207 112.456421 
L 162.976481 110.864842 
L 164.922852 110.864842 
L 165.312126 107.681684 
L 165.7014 106.090105 
L 166.869222 106.090105 
L 167.258496 104.498526 
L 181.661635 104.498526 
L 182.050909 102.906947 
L 183.997279 102.906947 
L 184.386553 101.315368 
L 192.561308 101.315368 
L 192.950582 99.723789 
L 195.6755 99.723789 
L 196.064774 98.132211 
L 200.346789 98.132211 
L 200.736063 96.540632 
L 204.239529 96.540632 
L 204.628803 94.949053 
L 210.467914 94.949053 
L 210.857188 93.357474 
L 214.360654 93.357474 
L 214.749928 91.765895 
L 216.696298 91.765895 
L 217.085572 90.174316 
L 219.810491 90.174316 
L 220.199765 88.582737 
L 225.649601 88.582737 
L 226.038875 86.991158 
L 231.488712 86.991158 
L 231.877986 85.399579 
L 232.26726 85.399579 
L 232.656534 82.216421 
L 234.992178 82.216421 
L 235.381452 80.624842 
L 238.495644 80.624842 
L 238.884918 79.033263 
L 239.663466 79.033263 
L 240.05274 77.441684 
L 240.442014 77.441684 
L 241.220562 74.258526 
L 243.945481 74.258526 
L 244.334755 72.666947 
L 245.113303 72.666947 
L 245.502577 71.075368 
L 248.616769 71.075368 
L 249.006043 69.483789 
L 250.173865 69.483789 
L 250.563139 67.892211 
L 252.120235 67.892211 
L 252.509509 66.300632 
L 258.737894 66.300632 
L 259.127168 64.709053 
L 264.187731 64.709053 
L 264.577005 63.117474 
L 275.476678 63.117474 
L 275.865952 61.525895 
L 276.255226 61.525895 
L 276.6445 59.934316 
L 277.423048 59.934316 
L 277.812322 56.751158 
L 278.59087 56.751158 
L 278.980144 55.159579 
L 279.369418 55.159579 
L 279.758692 53.568 
L 398.487273 53.568 
L 398.487273 53.568 
" clip-path="url(#p8bf73436c2)" style="fill: none; stroke-dasharray: 1.85,0.8; stroke-dashoffset: 0; stroke: #bf00bf; stroke-width: 0.5"/>
   </g>
   <g id="line2d_16">
    <path d="M 73.832727 295.488 
L 74.222001 195.873882 
L 75.779097 195.873882 
L 76.168371 194.925176 
L 77.336194 194.925176 
L 77.725468 193.976471 
L 79.282564 193.976471 
L 79.671838 193.027765 
L 80.061112 193.027765 
L 80.450386 191.130353 
L 80.83966 188.284235 
L 81.618208 188.284235 
L 82.007482 187.335529 
L 82.396756 187.335529 
L 82.78603 185.438118 
L 83.564578 185.438118 
L 83.953852 184.489412 
L 84.343126 184.489412 
L 84.7324 183.540706 
L 85.900222 183.540706 
L 86.289496 182.592 
L 86.67877 180.694588 
L 87.068044 179.745882 
L 87.457319 179.745882 
L 87.846593 178.797176 
L 89.792963 178.797176 
L 90.182237 177.848471 
L 90.571511 177.848471 
L 90.960785 176.899765 
L 91.350059 176.899765 
L 91.739333 175.951059 
L 93.685703 175.951059 
L 94.074977 175.002353 
L 94.853525 175.002353 
L 95.632073 173.104941 
L 96.799895 173.104941 
L 97.189169 172.156235 
L 98.356991 172.156235 
L 98.746266 170.258824 
L 99.914088 170.258824 
L 100.303362 169.310118 
L 101.471184 169.310118 
L 101.860458 168.361412 
L 102.639006 168.361412 
L 103.02828 167.412706 
L 104.97465 167.412706 
L 105.363924 166.464 
L 106.92102 166.464 
L 107.310294 165.515294 
L 108.088842 165.515294 
L 108.478116 163.617882 
L 109.645939 163.617882 
L 110.035213 162.669176 
L 110.424487 162.669176 
L 110.813761 161.720471 
L 111.203035 159.823059 
L 111.592309 159.823059 
L 111.981583 157.925647 
L 112.370857 156.976941 
L 112.760131 155.079529 
L 114.706501 155.079529 
L 115.095775 154.130824 
L 118.988515 154.130824 
L 119.767063 152.233412 
L 120.156337 150.336 
L 120.545612 150.336 
L 120.934886 149.387294 
L 122.491982 149.387294 
L 122.881256 148.438588 
L 124.438352 148.438588 
L 124.827626 147.489882 
L 127.552544 147.489882 
L 127.941818 145.592471 
L 128.331092 144.643765 
L 131.834559 144.643765 
L 132.223833 143.695059 
L 132.613107 143.695059 
L 133.391655 141.797647 
L 134.170203 141.797647 
L 134.559477 139.900235 
L 136.116573 139.900235 
L 136.505847 138.951529 
L 137.284395 138.951529 
L 137.673669 138.002824 
L 139.230765 138.002824 
L 139.620039 137.054118 
L 140.398587 137.054118 
L 140.787861 136.105412 
L 143.123506 136.105412 
L 143.51278 135.156706 
L 144.291328 135.156706 
L 144.680602 134.208 
L 147.016246 134.208 
L 147.40552 133.259294 
L 148.184068 133.259294 
L 148.573342 131.361882 
L 149.35189 131.361882 
L 149.741164 130.413176 
L 153.24463 130.413176 
L 153.633905 128.515765 
L 154.412453 128.515765 
L 155.191001 126.618353 
L 155.969549 126.618353 
L 156.358823 125.669647 
L 156.748097 125.669647 
L 157.137371 124.720941 
L 157.526645 124.720941 
L 157.915919 123.772235 
L 158.305193 123.772235 
L 158.694467 122.823529 
L 162.197933 122.823529 
L 162.976481 120.926118 
L 164.144303 120.926118 
L 164.533578 119.977412 
L 168.037044 119.977412 
L 168.815592 118.08 
L 169.204866 118.08 
L 169.983414 116.182588 
L 170.372688 116.182588 
L 171.54051 113.336471 
L 174.265428 113.336471 
L 174.654702 112.387765 
L 177.379621 112.387765 
L 177.768895 111.439059 
L 178.158169 111.439059 
L 178.547443 110.490353 
L 178.936717 110.490353 
L 179.715265 108.592941 
L 180.883087 108.592941 
L 181.272361 107.644235 
L 183.608005 107.644235 
L 183.997279 106.695529 
L 184.386553 106.695529 
L 184.775827 105.746824 
L 185.943649 105.746824 
L 186.332923 104.798118 
L 191.393486 104.798118 
L 191.78276 103.849412 
L 195.286226 103.849412 
L 195.6755 102.900706 
L 196.454048 102.900706 
L 196.843322 101.952 
L 197.232596 101.952 
L 197.621871 101.003294 
L 207.353721 101.003294 
L 208.132269 99.105882 
L 208.910818 99.105882 
L 209.300092 98.157176 
L 209.689366 98.157176 
L 210.07864 97.208471 
L 215.139202 97.208471 
L 215.528476 96.259765 
L 216.696298 96.259765 
L 217.86412 93.413647 
L 219.421216 93.413647 
L 219.810491 92.464941 
L 220.589039 92.464941 
L 220.978313 91.516235 
L 221.367587 91.516235 
L 221.756861 89.618824 
L 224.871053 89.618824 
L 225.260327 88.670118 
L 226.428149 88.670118 
L 226.817423 87.721412 
L 233.824356 87.721412 
L 234.21363 86.772706 
L 235.381452 86.772706 
L 235.770726 85.824 
L 236.16 85.824 
L 236.549274 84.875294 
L 238.884918 84.875294 
L 239.274192 83.926588 
L 240.05274 83.926588 
L 240.442014 82.977882 
L 243.166933 82.977882 
L 243.556207 82.029176 
L 245.891851 82.029176 
L 246.281125 81.080471 
L 246.670399 81.080471 
L 248.227495 77.285647 
L 252.509509 77.285647 
L 252.898784 76.336941 
L 255.623702 76.336941 
L 256.012976 74.439529 
L 257.180798 74.439529 
L 257.570072 73.490824 
L 261.852086 73.490824 
L 262.24136 71.593412 
L 266.134101 71.593412 
L 267.301923 68.747294 
L 267.691197 68.747294 
L 268.080471 67.798588 
L 271.973211 67.798588 
L 272.362485 66.849882 
L 272.751759 66.849882 
L 273.530307 64.952471 
L 275.865952 64.952471 
L 276.6445 63.055059 
L 277.423048 63.055059 
L 277.812322 62.106353 
L 278.59087 62.106353 
L 278.980144 61.157647 
L 280.926514 61.157647 
L 281.315788 60.208941 
L 282.094336 60.208941 
L 282.48361 59.260235 
L 289.490543 59.260235 
L 289.879817 58.311529 
L 291.826187 58.311529 
L 292.215461 57.362824 
L 314.014807 57.362824 
L 314.404081 56.414118 
L 315.961177 56.414118 
L 316.350451 55.465412 
L 318.296821 55.465412 
L 318.686095 54.516706 
L 398.097999 54.516706 
L 398.487273 53.568 
L 398.487273 53.568 
" clip-path="url(#p8bf73436c2)" style="fill: none; stroke-dasharray: 1.85,0.8; stroke-dashoffset: 0; stroke: #bfbf00; stroke-width: 0.5"/>
   </g>
   <g id="line2d_17">
    <path d="M 73.832727 295.488 
L 74.222001 212.288 
L 80.83966 212.288 
L 81.228934 211.008 
L 82.007482 211.008 
L 82.396756 209.728 
L 83.953852 209.728 
L 84.7324 207.168 
L 85.900222 207.168 
L 86.289496 205.888 
L 87.457319 205.888 
L 87.846593 204.608 
L 89.014415 204.608 
L 89.403689 203.328 
L 92.128607 203.328 
L 92.517881 202.048 
L 93.296429 202.048 
L 93.685703 199.488 
L 94.464251 199.488 
L 94.853525 198.208 
L 95.242799 198.208 
L 95.632073 196.928 
L 96.410621 196.928 
L 97.578443 193.088 
L 97.967717 193.088 
L 98.356991 191.808 
L 99.524814 191.808 
L 100.303362 189.248 
L 100.692636 189.248 
L 101.08191 187.968 
L 102.249732 187.968 
L 102.639006 186.688 
L 103.417554 186.688 
L 103.806828 185.408 
L 104.196102 182.848 
L 104.585376 181.568 
L 105.753198 181.568 
L 106.142472 180.288 
L 107.310294 180.288 
L 107.699568 179.008 
L 108.088842 175.168 
L 108.478116 173.888 
L 109.256664 173.888 
L 109.645939 172.608 
L 111.592309 172.608 
L 111.981583 170.048 
L 112.370857 168.768 
L 113.927953 168.768 
L 114.317227 167.488 
L 115.095775 167.488 
L 115.485049 166.208 
L 115.874323 166.208 
L 116.263597 164.928 
L 117.042145 164.928 
L 117.431419 163.648 
L 118.599241 163.648 
L 118.988515 162.368 
L 119.377789 162.368 
L 119.767063 161.088 
L 120.156337 158.528 
L 120.934886 158.528 
L 121.32416 157.248 
L 121.713434 157.248 
L 122.491982 154.688 
L 125.606174 154.688 
L 126.384722 152.128 
L 127.941818 152.128 
L 128.331092 149.568 
L 131.05601 149.568 
L 131.445284 148.288 
L 131.834559 148.288 
L 132.223833 147.008 
L 137.284395 147.008 
L 137.673669 145.728 
L 138.841491 145.728 
L 139.620039 143.168 
L 141.177135 143.168 
L 141.566409 140.608 
L 141.955683 139.328 
L 142.344957 139.328 
L 142.734232 136.768 
L 143.123506 135.488 
L 148.184068 135.488 
L 148.573342 134.208 
L 148.962616 134.208 
L 149.35189 132.928 
L 149.741164 132.928 
L 150.130438 131.648 
L 155.191001 131.648 
L 155.580275 130.368 
L 157.915919 130.368 
L 158.305193 129.088 
L 158.694467 129.088 
L 159.083741 127.808 
L 164.144303 127.808 
L 164.533578 126.528 
L 167.258496 126.528 
L 168.037044 121.408 
L 168.815592 121.408 
L 169.204866 120.128 
L 170.372688 120.128 
L 170.761962 118.848 
L 173.48688 118.848 
L 173.876154 116.288 
L 176.211799 116.288 
L 176.601073 115.008 
L 177.379621 115.008 
L 177.768895 113.728 
L 178.936717 113.728 
L 179.325991 112.448 
L 181.272361 112.448 
L 181.661635 111.168 
L 182.829457 111.168 
L 183.218731 109.888 
L 185.165101 109.888 
L 185.554375 108.608 
L 194.118404 108.608 
L 194.896952 106.048 
L 195.286226 106.048 
L 195.6755 104.768 
L 198.789693 104.768 
L 199.568241 102.208 
L 200.346789 102.208 
L 200.736063 100.928 
L 201.125337 100.928 
L 201.514611 99.648 
L 203.460981 99.648 
L 203.850255 98.368 
L 206.964447 98.368 
L 207.353721 97.088 
L 207.742995 97.088 
L 208.132269 94.528 
L 214.749928 94.528 
L 215.139202 91.968 
L 216.307024 91.968 
L 216.696298 90.688 
L 219.810491 90.688 
L 220.199765 88.128 
L 221.367587 88.128 
L 222.146135 85.568 
L 222.924683 85.568 
L 223.703231 83.008 
L 224.092505 79.168 
L 228.374519 79.168 
L 228.763793 77.888 
L 229.153067 75.328 
L 230.710164 75.328 
L 231.099438 74.048 
L 232.656534 74.048 
L 233.045808 72.768 
L 235.381452 72.768 
L 235.770726 71.488 
L 237.327822 71.488 
L 237.717096 70.208 
L 243.945481 70.208 
L 244.334755 68.928 
L 245.502577 68.928 
L 245.891851 67.648 
L 248.616769 67.648 
L 249.006043 66.368 
L 252.509509 66.368 
L 252.898784 65.088 
L 256.791524 65.088 
L 257.180798 63.808 
L 259.516442 63.808 
L 259.905716 62.528 
L 261.852086 62.528 
L 262.24136 61.248 
L 265.744827 61.248 
L 266.134101 59.968 
L 270.416115 59.968 
L 270.805389 58.688 
L 280.926514 58.688 
L 281.315788 57.408 
L 282.48361 57.408 
L 282.872884 56.128 
L 312.846985 56.128 
L 313.236259 54.848 
L 314.404081 54.848 
L 314.793355 53.568 
L 398.487273 53.568 
L 398.487273 53.568 
" clip-path="url(#p8bf73436c2)" style="fill: none; stroke-dasharray: 1.85,0.8; stroke-dashoffset: 0; stroke: #000000; stroke-width: 0.5"/>
   </g>
   <g id="patch_3">
    <path d="M 57.6 307.584 
L 57.6 41.472 
" style="fill: none; stroke: #000000; stroke-width: 0.8; stroke-linejoin: miter; stroke-linecap: square"/>
   </g>
   <g id="patch_4">
    <path d="M 414.72 307.584 
L 414.72 41.472 
" style="fill: none; stroke: #000000; stroke-width: 0.8; stroke-linejoin: miter; stroke-linecap: square"/>
   </g>
   <g id="patch_5">
    <path d="M 57.6 307.584 
L 414.72 307.584 
" style="fill: none; stroke: #000000; stroke-width: 0.8; stroke-linejoin: miter; stroke-linecap: square"/>
   </g>
   <g id="patch_6">
    <path d="M 57.6 41.472 
L 414.72 41.472 
" style="fill: none; stroke: #000000; stroke-width: 0.8; stroke-linejoin: miter; stroke-linecap: square"/>
   </g>
   <g id="text_14">
    <!-- count=1000, googlenet=150, resnet50=112, squeezenetv1=187, vgg19=112, yolov2=187 -->
    <g transform="translate(-3.84 35.472) scale(0.12 -0.12)">
     <defs>
      <path id="FangSong-6f" d="M 2875 1400 
Q 2875 775 2500 362 
Q 2125 -50 1575 -50 
Q 1000 -50 637 375 
Q 275 800 275 1400 
Q 275 1950 637 2400 
Q 1000 2850 1575 2850 
Q 2175 2850 2525 2400 
Q 2875 1950 2875 1400 
z
M 675 1375 
Q 675 725 937 412 
Q 1200 100 1575 100 
Q 2000 100 2237 437 
Q 2475 775 2475 1375 
Q 2475 2025 2212 2362 
Q 1950 2700 1575 2700 
Q 1225 2700 950 2362 
Q 675 2025 675 1375 
z
" transform="scale(0.015625)"/>
      <path id="FangSong-75" d="M 1425 225 
Q 1725 225 1937 375 
Q 2150 525 2250 850 
L 2250 2425 
Q 2250 2525 2200 2587 
Q 2150 2650 2025 2650 
L 1875 2650 
L 1875 2800 
L 2025 2800 
Q 2175 2800 2300 2825 
Q 2425 2850 2550 2950 
L 2600 2950 
L 2600 500 
Q 2600 400 2662 350 
Q 2725 300 2825 300 
L 2975 300 
L 2975 150 
L 2825 150 
Q 2700 150 2575 112 
Q 2450 75 2300 0 
L 2250 0 
L 2250 525 
Q 2125 250 1875 112 
Q 1625 -25 1300 -25 
Q 900 -25 700 200 
Q 500 425 500 925 
L 500 2425 
Q 500 2525 450 2587 
Q 400 2650 275 2650 
L 125 2650 
L 125 2800 
L 275 2800 
Q 425 2800 550 2825 
Q 675 2850 800 2950 
L 850 2950 
L 850 875 
Q 850 525 1000 375 
Q 1150 225 1425 225 
z
" transform="scale(0.015625)"/>
      <path id="FangSong-3d" d="M 175 2725 
L 175 2950 
L 2950 2950 
L 2950 2725 
L 175 2725 
z
M 175 1450 
L 175 1675 
L 2950 1675 
L 2950 1450 
L 175 1450 
z
" transform="scale(0.015625)"/>
      <path id="FangSong-2c" d="M 1325 75 
Q 1200 25 1100 75 
Q 1000 125 962 237 
Q 925 350 925 437 
Q 925 525 987 612 
Q 1050 700 1150 737 
Q 1250 775 1425 725 
Q 1600 675 1650 500 
Q 1700 325 1662 150 
Q 1625 -25 1525 -200 
Q 1425 -375 1312 -475 
Q 1200 -575 1025 -675 
L 950 -575 
Q 1100 -450 1187 -312 
Q 1275 -175 1325 75 
z
" transform="scale(0.015625)"/>
      <path id="FangSong-20" transform="scale(0.015625)"/>
      <path id="FangSong-67" d="M 850 1875 
Q 850 1575 1025 1362 
Q 1200 1150 1500 1150 
Q 1825 1150 1987 1337 
Q 2150 1525 2150 1875 
Q 2150 2300 1962 2487 
Q 1775 2675 1500 2675 
Q 1225 2675 1037 2487 
Q 850 2300 850 1875 
z
M 2075 525 
Q 2450 475 2625 312 
Q 2800 150 2800 -125 
Q 2800 -500 2487 -725 
Q 2175 -950 1500 -950 
Q 975 -950 650 -737 
Q 325 -525 325 -250 
Q 325 -75 450 100 
Q 575 275 850 375 
Q 700 450 612 537 
Q 525 625 525 750 
Q 525 900 625 1012 
Q 725 1125 875 1200 
Q 725 1325 612 1500 
Q 500 1675 500 1875 
Q 500 2250 762 2537 
Q 1025 2825 1500 2825 
Q 1700 2825 1887 2775 
Q 2075 2725 2200 2600 
Q 2375 2725 2512 2787 
Q 2650 2850 2750 2850 
Q 2875 2850 2925 2762 
Q 2975 2675 2975 2600 
Q 2975 2500 2937 2437 
Q 2900 2375 2800 2375 
Q 2725 2375 2675 2412 
Q 2625 2450 2600 2525 
Q 2575 2600 2487 2587 
Q 2400 2575 2300 2500 
Q 2400 2400 2450 2225 
Q 2500 2050 2500 1875 
Q 2500 1575 2262 1287 
Q 2025 1000 1500 1000 
Q 1350 1000 1225 1037 
Q 1100 1075 1025 1125 
Q 925 1075 875 1000 
Q 825 925 825 875 
Q 825 775 875 725 
Q 925 675 1025 675 
Q 1350 625 1612 587 
Q 1875 550 2075 525 
z
M 1050 325 
Q 825 225 737 87 
Q 650 -50 650 -250 
Q 650 -450 875 -625 
Q 1100 -800 1550 -800 
Q 1975 -800 2225 -662 
Q 2475 -525 2475 -250 
Q 2475 -75 2412 25 
Q 2350 125 2225 150 
Q 1975 200 1675 237 
Q 1375 275 1050 325 
z
" transform="scale(0.015625)"/>
      <path id="FangSong-6c" d="M 900 4275 
Q 1125 4275 1325 4325 
Q 1525 4375 1700 4475 
L 1750 4475 
L 1750 350 
Q 1750 250 1812 200 
Q 1875 150 1975 150 
L 2550 150 
L 2550 0 
L 600 0 
L 600 150 
L 1175 150 
Q 1300 150 1350 200 
Q 1400 250 1400 350 
L 1400 3925 
Q 1400 4025 1350 4075 
Q 1300 4125 1175 4125 
L 625 4125 
L 625 4275 
L 900 4275 
z
" transform="scale(0.015625)"/>
      <path id="FangSong-35" d="M 1700 2750 
Q 2175 2750 2475 2387 
Q 2775 2025 2775 1425 
Q 2775 750 2462 350 
Q 2150 -50 1500 -50 
Q 1050 -50 700 212 
Q 350 475 350 850 
Q 350 1000 437 1112 
Q 525 1225 675 1225 
Q 825 1225 875 1125 
Q 925 1025 925 950 
Q 925 800 850 712 
Q 775 625 775 525 
Q 775 325 1012 225 
Q 1250 125 1525 125 
Q 1925 125 2137 450 
Q 2350 775 2350 1375 
Q 2350 1875 2162 2187 
Q 1975 2500 1600 2500 
Q 1325 2500 1125 2400 
Q 925 2300 750 1975 
L 525 2000 
L 650 4275 
L 2700 4275 
L 2625 3900 
L 825 3900 
L 725 2250 
Q 975 2600 1212 2675 
Q 1450 2750 1700 2750 
z
" transform="scale(0.015625)"/>
      <path id="FangSong-72" d="M 1250 2025 
Q 1500 2425 1787 2637 
Q 2075 2850 2375 2850 
Q 2625 2850 2762 2737 
Q 2900 2625 2900 2475 
Q 2900 2350 2837 2275 
Q 2775 2200 2650 2200 
Q 2525 2200 2462 2275 
Q 2400 2350 2425 2475 
Q 2425 2550 2400 2600 
Q 2375 2650 2250 2650 
Q 2050 2650 1762 2400 
Q 1475 2150 1250 1700 
L 1250 350 
Q 1250 250 1312 200 
Q 1375 150 1475 150 
L 2025 150 
L 2025 0 
L 175 0 
L 175 150 
L 675 150 
Q 800 150 850 200 
Q 900 250 900 350 
L 900 2425 
Q 900 2525 850 2587 
Q 800 2650 675 2650 
L 200 2650 
L 200 2800 
L 400 2800 
Q 575 2800 812 2837 
Q 1050 2875 1175 2925 
L 1250 2925 
L 1250 2025 
z
" transform="scale(0.015625)"/>
      <path id="FangSong-73" d="M 600 2075 
Q 600 2450 887 2650 
Q 1175 2850 1575 2850 
Q 1800 2850 2000 2787 
Q 2200 2725 2275 2725 
Q 2350 2725 2400 2750 
Q 2450 2775 2525 2850 
L 2625 2025 
L 2475 2000 
Q 2375 2325 2137 2512 
Q 1900 2700 1600 2700 
Q 1275 2700 1087 2575 
Q 900 2450 900 2225 
Q 900 2025 987 1912 
Q 1075 1800 1300 1750 
Q 1475 1675 1737 1587 
Q 2000 1500 2225 1400 
Q 2425 1300 2562 1137 
Q 2700 975 2700 775 
Q 2700 400 2437 187 
Q 2175 -25 1675 -25 
Q 1350 -25 1187 37 
Q 1025 100 925 100 
Q 850 100 762 62 
Q 675 25 575 -25 
L 500 900 
L 650 925 
Q 725 525 975 325 
Q 1225 125 1675 125 
Q 2025 125 2212 250 
Q 2400 375 2400 625 
Q 2400 800 2300 912 
Q 2200 1025 2100 1075 
Q 1850 1175 1550 1287 
Q 1250 1400 1025 1500 
Q 800 1600 700 1750 
Q 600 1900 600 2075 
z
" transform="scale(0.015625)"/>
      <path id="FangSong-71" d="M 2250 2150 
Q 2150 2375 1975 2512 
Q 1800 2650 1550 2650 
Q 1200 2650 950 2350 
Q 700 2050 700 1325 
Q 700 700 912 437 
Q 1125 175 1450 175 
Q 1725 175 1937 300 
Q 2150 425 2250 725 
L 2250 2150 
z
M 2600 -550 
Q 2600 -675 2662 -725 
Q 2725 -775 2825 -775 
L 2975 -775 
L 2975 -925 
L 1825 -925 
L 1825 -775 
L 2025 -775 
Q 2150 -775 2200 -725 
Q 2250 -675 2250 -550 
L 2250 375 
Q 2100 175 1887 75 
Q 1675 -25 1375 -25 
Q 950 -25 625 337 
Q 300 700 300 1400 
Q 300 2075 675 2450 
Q 1050 2825 1475 2825 
Q 1750 2825 1937 2725 
Q 2125 2625 2275 2475 
L 2500 2800 
L 2600 2800 
L 2600 -550 
z
" transform="scale(0.015625)"/>
      <path id="FangSong-7a" d="M 2725 975 
L 2550 0 
L 400 0 
L 400 125 
L 2125 2650 
L 1200 2650 
Q 975 2650 825 2487 
Q 675 2325 575 1925 
L 425 1950 
L 525 2800 
L 2575 2800 
L 2575 2725 
L 825 150 
L 1775 150 
Q 2100 150 2287 350 
Q 2475 550 2575 1000 
L 2725 975 
z
" transform="scale(0.015625)"/>
      <path id="FangSong-76" d="M 1600 -25 
L 1450 -25 
L 600 2425 
Q 575 2525 500 2587 
Q 425 2650 325 2650 
L 200 2650 
L 200 2800 
L 1275 2800 
L 1275 2650 
L 1175 2650 
Q 1025 2650 987 2575 
Q 950 2500 1000 2325 
L 1600 575 
L 1650 575 
L 2250 2300 
Q 2325 2475 2262 2562 
Q 2200 2650 2050 2650 
L 2000 2650 
L 2000 2800 
L 2900 2800 
L 2900 2650 
L 2850 2650 
Q 2700 2650 2612 2562 
Q 2525 2475 2450 2300 
L 1600 -25 
z
" transform="scale(0.015625)"/>
      <path id="FangSong-37" d="M 2800 4100 
Q 2275 3250 1962 2437 
Q 1650 1625 1650 1025 
Q 1650 925 1662 737 
Q 1675 550 1675 300 
Q 1675 100 1612 25 
Q 1550 -50 1400 -50 
Q 1275 -50 1187 37 
Q 1100 125 1100 350 
Q 1100 825 1312 1525 
Q 1525 2225 2450 3900 
L 1200 3900 
Q 925 3900 762 3725 
Q 600 3550 525 3200 
L 375 3225 
L 550 4275 
L 2800 4275 
L 2800 4100 
z
" transform="scale(0.015625)"/>
      <path id="FangSong-39" d="M 675 2950 
Q 675 2400 887 2112 
Q 1100 1825 1425 1825 
Q 1800 1825 2075 2175 
Q 2350 2525 2350 2825 
Q 2350 3425 2150 3787 
Q 1950 4150 1500 4150 
Q 1075 4150 875 3812 
Q 675 3475 675 2950 
z
M 1350 1600 
Q 850 1600 550 1912 
Q 250 2225 250 2925 
Q 250 3525 575 3925 
Q 900 4325 1500 4325 
Q 2125 4325 2475 3825 
Q 2825 3325 2825 2375 
Q 2825 1325 2412 637 
Q 2000 -50 1275 -50 
Q 950 -50 712 100 
Q 475 250 475 500 
Q 475 600 537 700 
Q 600 800 750 800 
Q 900 800 950 687 
Q 1000 575 1000 425 
Q 1000 325 1025 262 
Q 1050 200 1075 175 
Q 1100 150 1162 137 
Q 1225 125 1300 125 
Q 1750 125 2025 625 
Q 2300 1125 2350 2300 
Q 2225 2000 1975 1800 
Q 1725 1600 1350 1600 
z
" transform="scale(0.015625)"/>
     </defs>
     <use xlink:href="#FangSong-63"/>
     <use xlink:href="#FangSong-6f" x="50"/>
     <use xlink:href="#FangSong-75" x="100"/>
     <use xlink:href="#FangSong-6e" x="150"/>
     <use xlink:href="#FangSong-74" x="200"/>
     <use xlink:href="#FangSong-3d" x="250"/>
     <use xlink:href="#FangSong-31" x="300"/>
     <use xlink:href="#FangSong-30" x="350"/>
     <use xlink:href="#FangSong-30" x="400"/>
     <use xlink:href="#FangSong-30" x="450"/>
     <use xlink:href="#FangSong-2c" x="500"/>
     <use xlink:href="#FangSong-20" x="550"/>
     <use xlink:href="#FangSong-67" x="600"/>
     <use xlink:href="#FangSong-6f" x="650"/>
     <use xlink:href="#FangSong-6f" x="700"/>
     <use xlink:href="#FangSong-67" x="750"/>
     <use xlink:href="#FangSong-6c" x="800"/>
     <use xlink:href="#FangSong-65" x="850"/>
     <use xlink:href="#FangSong-6e" x="900"/>
     <use xlink:href="#FangSong-65" x="950"/>
     <use xlink:href="#FangSong-74" x="1000"/>
     <use xlink:href="#FangSong-3d" x="1050"/>
     <use xlink:href="#FangSong-31" x="1100"/>
     <use xlink:href="#FangSong-35" x="1150"/>
     <use xlink:href="#FangSong-30" x="1200"/>
     <use xlink:href="#FangSong-2c" x="1250"/>
     <use xlink:href="#FangSong-20" x="1300"/>
     <use xlink:href="#FangSong-72" x="1350"/>
     <use xlink:href="#FangSong-65" x="1400"/>
     <use xlink:href="#FangSong-73" x="1450"/>
     <use xlink:href="#FangSong-6e" x="1500"/>
     <use xlink:href="#FangSong-65" x="1550"/>
     <use xlink:href="#FangSong-74" x="1600"/>
     <use xlink:href="#FangSong-35" x="1650"/>
     <use xlink:href="#FangSong-30" x="1700"/>
     <use xlink:href="#FangSong-3d" x="1750"/>
     <use xlink:href="#FangSong-31" x="1800"/>
     <use xlink:href="#FangSong-31" x="1850"/>
     <use xlink:href="#FangSong-32" x="1900"/>
     <use xlink:href="#FangSong-2c" x="1950"/>
     <use xlink:href="#FangSong-20" x="2000"/>
     <use xlink:href="#FangSong-73" x="2050"/>
     <use xlink:href="#FangSong-71" x="2100"/>
     <use xlink:href="#FangSong-75" x="2150"/>
     <use xlink:href="#FangSong-65" x="2200"/>
     <use xlink:href="#FangSong-65" x="2250"/>
     <use xlink:href="#FangSong-7a" x="2300"/>
     <use xlink:href="#FangSong-65" x="2350"/>
     <use xlink:href="#FangSong-6e" x="2400"/>
     <use xlink:href="#FangSong-65" x="2450"/>
     <use xlink:href="#FangSong-74" x="2500"/>
     <use xlink:href="#FangSong-76" x="2550"/>
     <use xlink:href="#FangSong-31" x="2600"/>
     <use xlink:href="#FangSong-3d" x="2650"/>
     <use xlink:href="#FangSong-31" x="2700"/>
     <use xlink:href="#FangSong-38" x="2750"/>
     <use xlink:href="#FangSong-37" x="2800"/>
     <use xlink:href="#FangSong-2c" x="2850"/>
     <use xlink:href="#FangSong-20" x="2900"/>
     <use xlink:href="#FangSong-76" x="2950"/>
     <use xlink:href="#FangSong-67" x="3000"/>
     <use xlink:href="#FangSong-67" x="3050"/>
     <use xlink:href="#FangSong-31" x="3100"/>
     <use xlink:href="#FangSong-39" x="3150"/>
     <use xlink:href="#FangSong-3d" x="3200"/>
     <use xlink:href="#FangSong-31" x="3250"/>
     <use xlink:href="#FangSong-31" x="3300"/>
     <use xlink:href="#FangSong-32" x="3350"/>
     <use xlink:href="#FangSong-2c" x="3400"/>
     <use xlink:href="#FangSong-20" x="3450"/>
     <use xlink:href="#FangSong-79" x="3500"/>
     <use xlink:href="#FangSong-6f" x="3550"/>
     <use xlink:href="#FangSong-6c" x="3600"/>
     <use xlink:href="#FangSong-6f" x="3650"/>
     <use xlink:href="#FangSong-76" x="3700"/>
     <use xlink:href="#FangSong-32" x="3750"/>
     <use xlink:href="#FangSong-3d" x="3800"/>
     <use xlink:href="#FangSong-31" x="3850"/>
     <use xlink:href="#FangSong-38" x="3900"/>
     <use xlink:href="#FangSong-37" x="3950"/>
    </g>
   </g>
   <g id="legend_1">
    <g id="patch_7">
     <path d="M 315.72 302.584 
L 407.72 302.584 
Q 409.72 302.584 409.72 300.584 
L 409.72 220.794937 
Q 409.72 218.794937 407.72 218.794937 
L 315.72 218.794937 
Q 313.72 218.794937 313.72 220.794937 
L 313.72 300.584 
Q 313.72 302.584 315.72 302.584 
z
" style="fill: #ffffff; opacity: 0.8; stroke: #cccccc; stroke-linejoin: miter"/>
    </g>
    <g id="line2d_18">
     <path d="M 317.72 226.294937 
L 327.72 226.294937 
L 337.72 226.294937 
" style="fill: none; stroke: #ff0000; stroke-linecap: square"/>
    </g>
    <g id="text_15">
     <!-- total -->
     <g transform="translate(345.72 229.794937) scale(0.1 -0.1)">
      <use xlink:href="#FangSong-74"/>
      <use xlink:href="#FangSong-6f" x="50"/>
      <use xlink:href="#FangSong-74" x="100"/>
      <use xlink:href="#FangSong-61" x="150"/>
      <use xlink:href="#FangSong-6c" x="200"/>
     </g>
    </g>
    <g id="line2d_19">
     <path d="M 317.72 239.74025 
L 327.72 239.74025 
L 337.72 239.74025 
" style="fill: none; stroke-dasharray: 1.85,0.8; stroke-dashoffset: 0; stroke: #008000; stroke-width: 0.5"/>
    </g>
    <g id="text_16">
     <!-- yolov2 -->
     <g transform="translate(345.72 243.24025) scale(0.1 -0.1)">
      <use xlink:href="#FangSong-79"/>
      <use xlink:href="#FangSong-6f" x="50"/>
      <use xlink:href="#FangSong-6c" x="100"/>
      <use xlink:href="#FangSong-6f" x="150"/>
      <use xlink:href="#FangSong-76" x="200"/>
      <use xlink:href="#FangSong-32" x="250"/>
     </g>
    </g>
    <g id="line2d_20">
     <path d="M 317.72 253.224625 
L 327.72 253.224625 
L 337.72 253.224625 
" style="fill: none; stroke-dasharray: 1.85,0.8; stroke-dashoffset: 0; stroke: #0000ff; stroke-width: 0.5"/>
    </g>
    <g id="text_17">
     <!-- vgg19 -->
     <g transform="translate(345.72 256.724625) scale(0.1 -0.1)">
      <use xlink:href="#FangSong-76"/>
      <use xlink:href="#FangSong-67" x="50"/>
      <use xlink:href="#FangSong-67" x="100"/>
      <use xlink:href="#FangSong-31" x="150"/>
      <use xlink:href="#FangSong-39" x="200"/>
     </g>
    </g>
    <g id="line2d_21">
     <path d="M 317.72 266.709 
L 327.72 266.709 
L 337.72 266.709 
" style="fill: none; stroke-dasharray: 1.85,0.8; stroke-dashoffset: 0; stroke: #bf00bf; stroke-width: 0.5"/>
    </g>
    <g id="text_18">
     <!-- squeezenetv1 -->
     <g transform="translate(345.72 270.209) scale(0.1 -0.1)">
      <use xlink:href="#FangSong-73"/>
      <use xlink:href="#FangSong-71" x="50"/>
      <use xlink:href="#FangSong-75" x="100"/>
      <use xlink:href="#FangSong-65" x="150"/>
      <use xlink:href="#FangSong-65" x="200"/>
      <use xlink:href="#FangSong-7a" x="250"/>
      <use xlink:href="#FangSong-65" x="300"/>
      <use xlink:href="#FangSong-6e" x="350"/>
      <use xlink:href="#FangSong-65" x="400"/>
      <use xlink:href="#FangSong-74" x="450"/>
      <use xlink:href="#FangSong-76" x="500"/>
      <use xlink:href="#FangSong-31" x="550"/>
     </g>
    </g>
    <g id="line2d_22">
     <path d="M 317.72 280.154312 
L 327.72 280.154312 
L 337.72 280.154312 
" style="fill: none; stroke-dasharray: 1.85,0.8; stroke-dashoffset: 0; stroke: #bfbf00; stroke-width: 0.5"/>
    </g>
    <g id="text_19">
     <!-- resnet50 -->
     <g transform="translate(345.72 283.654312) scale(0.1 -0.1)">
      <use xlink:href="#FangSong-72"/>
      <use xlink:href="#FangSong-65" x="50"/>
      <use xlink:href="#FangSong-73" x="100"/>
      <use xlink:href="#FangSong-6e" x="150"/>
      <use xlink:href="#FangSong-65" x="200"/>
      <use xlink:href="#FangSong-74" x="250"/>
      <use xlink:href="#FangSong-35" x="300"/>
      <use xlink:href="#FangSong-30" x="350"/>
     </g>
    </g>
    <g id="line2d_23">
     <path d="M 317.72 293.599625 
L 327.72 293.599625 
L 337.72 293.599625 
" style="fill: none; stroke-dasharray: 1.85,0.8; stroke-dashoffset: 0; stroke: #000000; stroke-width: 0.5"/>
    </g>
    <g id="text_20">
     <!-- googlenet -->
     <g transform="translate(345.72 297.099625) scale(0.1 -0.1)">
      <use xlink:href="#FangSong-67"/>
      <use xlink:href="#FangSong-6f" x="50"/>
      <use xlink:href="#FangSong-6f" x="100"/>
      <use xlink:href="#FangSong-67" x="150"/>
      <use xlink:href="#FangSong-6c" x="200"/>
      <use xlink:href="#FangSong-65" x="250"/>
      <use xlink:href="#FangSong-6e" x="300"/>
      <use xlink:href="#FangSong-65" x="350"/>
      <use xlink:href="#FangSong-74" x="400"/>
     </g>
    </g>
   </g>
  </g>
 </g>
 <defs>
  <clipPath id="p8bf73436c2">
   <rect x="57.6" y="41.472" width="357.12" height="266.112"/>
  </clipPath>
 </defs>
</svg>
