<?xml version="1.0" encoding="utf-8" standalone="no"?>
<!DOCTYPE svg PUBLIC "-//W3C//DTD SVG 1.1//EN"
  "http://www.w3.org/Graphics/SVG/1.1/DTD/svg11.dtd">
<svg xmlns:xlink="http://www.w3.org/1999/xlink" width="460.8pt" height="345.6pt" viewBox="0 0 460.8 345.6" xmlns="http://www.w3.org/2000/svg" version="1.1">
 <metadata>
  <rdf:RDF xmlns:dc="http://purl.org/dc/elements/1.1/" xmlns:cc="http://creativecommons.org/ns#" xmlns:rdf="http://www.w3.org/1999/02/22-rdf-syntax-ns#">
   <cc:Work>
    <dc:type rdf:resource="http://purl.org/dc/dcmitype/StillImage"/>
    <dc:date>2023-01-19T17:24:44.717028</dc:date>
    <dc:format>image/svg+xml</dc:format>
    <dc:creator>
     <cc:Agent>
      <dc:title>Matplotlib v3.6.3, https://matplotlib.org/</dc:title>
     </cc:Agent>
    </dc:creator>
   </cc:Work>
  </rdf:RDF>
 </metadata>
 <defs>
  <style type="text/css">*{stroke-linejoin: round; stroke-linecap: butt}</style>
 </defs>
 <g id="figure_1">
  <g id="patch_1">
   <path d="M 0 345.6 
L 460.8 345.6 
L 460.8 0 
L 0 0 
z
" style="fill: #ffffff"/>
  </g>
  <g id="axes_1">
   <g id="patch_2">
    <path d="M 57.6 307.584 
L 414.72 307.584 
L 414.72 41.472 
L 57.6 41.472 
z
" style="fill: #ffffff"/>
   </g>
   <g id="matplotlib.axis_1">
    <g id="xtick_1">
     <g id="line2d_1">
      <defs>
       <path id="m05a9ed69e4" d="M 0 0 
L 0 3.5 
" style="stroke: #000000; stroke-width: 0.8"/>
      </defs>
      <g>
       <use xlink:href="#m05a9ed69e4" x="71.650909" y="307.584" style="stroke: #000000; stroke-width: 0.8"/>
      </g>
     </g>
     <g id="text_1">
      <!-- 0 -->
      <g transform="translate(69.150909 321.576187) scale(0.1 -0.1)">
       <defs>
        <path id="FangSong-30" d="M 1575 4125 
Q 1225 4125 987 3587 
Q 750 3050 750 2150 
Q 750 1200 987 675 
Q 1225 150 1575 150 
Q 1950 150 2162 675 
Q 2375 1200 2375 2150 
Q 2375 3050 2175 3587 
Q 1975 4125 1575 4125 
z
M 1575 -50 
Q 1025 -50 650 525 
Q 275 1100 275 2150 
Q 275 3125 637 3725 
Q 1000 4325 1575 4325 
Q 2125 4325 2487 3750 
Q 2850 3175 2850 2150 
Q 2850 1125 2487 537 
Q 2125 -50 1575 -50 
z
" transform="scale(0.015625)"/>
       </defs>
       <use xlink:href="#FangSong-30"/>
      </g>
     </g>
    </g>
    <g id="xtick_2">
     <g id="line2d_2">
      <g>
       <use xlink:href="#m05a9ed69e4" x="115.287273" y="307.584" style="stroke: #000000; stroke-width: 0.8"/>
      </g>
     </g>
     <g id="text_2">
      <!-- 20 -->
      <g transform="translate(110.287273 321.576187) scale(0.1 -0.1)">
       <defs>
        <path id="FangSong-32" d="M 2300 3225 
Q 2300 3675 2100 3912 
Q 1900 4150 1500 4150 
Q 1200 4150 987 3987 
Q 775 3825 775 3575 
Q 775 3425 862 3325 
Q 950 3225 950 3125 
Q 950 3000 887 2937 
Q 825 2875 700 2875 
Q 550 2875 462 2962 
Q 375 3050 375 3250 
Q 375 3775 750 4050 
Q 1125 4325 1550 4325 
Q 2150 4325 2437 4025 
Q 2725 3725 2725 3275 
Q 2725 2975 2587 2675 
Q 2450 2375 2150 2100 
Q 1425 1400 1037 962 
Q 650 525 575 375 
L 2050 375 
Q 2275 375 2425 550 
Q 2575 725 2625 1075 
L 2775 1075 
L 2625 0 
L 300 0 
L 300 325 
Q 425 550 712 900 
Q 1000 1250 1475 1725 
Q 1900 2150 2100 2525 
Q 2300 2900 2300 3225 
z
" transform="scale(0.015625)"/>
       </defs>
       <use xlink:href="#FangSong-32"/>
       <use xlink:href="#FangSong-30" x="50"/>
      </g>
     </g>
    </g>
    <g id="xtick_3">
     <g id="line2d_3">
      <g>
       <use xlink:href="#m05a9ed69e4" x="158.923636" y="307.584" style="stroke: #000000; stroke-width: 0.8"/>
      </g>
     </g>
     <g id="text_3">
      <!-- 40 -->
      <g transform="translate(153.923636 321.576187) scale(0.1 -0.1)">
       <defs>
        <path id="FangSong-34" d="M 2275 475 
Q 2275 300 2375 225 
Q 2475 150 2650 150 
L 2875 150 
L 2875 0 
L 1225 0 
L 1225 150 
L 1500 150 
Q 1700 150 1787 225 
Q 1875 300 1875 475 
L 1875 1300 
L 200 1300 
L 200 1425 
L 2025 4325 
L 2275 4325 
L 2275 1450 
L 2950 1450 
L 2950 1300 
L 2275 1300 
L 2275 475 
z
M 1850 3700 
L 425 1450 
L 1875 1450 
L 1875 3700 
L 1850 3700 
z
" transform="scale(0.015625)"/>
       </defs>
       <use xlink:href="#FangSong-34"/>
       <use xlink:href="#FangSong-30" x="50"/>
      </g>
     </g>
    </g>
    <g id="xtick_4">
     <g id="line2d_4">
      <g>
       <use xlink:href="#m05a9ed69e4" x="202.56" y="307.584" style="stroke: #000000; stroke-width: 0.8"/>
      </g>
     </g>
     <g id="text_4">
      <!-- 60 -->
      <g transform="translate(197.56 321.576187) scale(0.1 -0.1)">
       <defs>
        <path id="FangSong-36" d="M 750 1700 
Q 750 950 1012 537 
Q 1275 125 1650 125 
Q 2025 125 2225 400 
Q 2425 675 2425 1425 
Q 2425 1925 2212 2200 
Q 2000 2475 1700 2475 
Q 1425 2475 1187 2312 
Q 950 2150 750 1700 
z
M 1725 2725 
Q 2325 2725 2587 2325 
Q 2850 1925 2850 1425 
Q 2850 675 2487 312 
Q 2125 -50 1650 -50 
Q 975 -50 625 462 
Q 275 975 275 1950 
Q 275 3100 700 3712 
Q 1125 4325 1850 4325 
Q 2200 4325 2412 4125 
Q 2625 3925 2625 3775 
Q 2625 3625 2562 3550 
Q 2500 3475 2350 3475 
Q 2225 3475 2162 3537 
Q 2100 3600 2100 3725 
Q 2100 3775 2112 3825 
Q 2125 3875 2125 3925 
Q 2125 4025 2050 4087 
Q 1975 4150 1775 4150 
Q 1350 4150 1050 3762 
Q 750 3375 750 2075 
Q 900 2400 1162 2562 
Q 1425 2725 1725 2725 
z
" transform="scale(0.015625)"/>
       </defs>
       <use xlink:href="#FangSong-36"/>
       <use xlink:href="#FangSong-30" x="50"/>
      </g>
     </g>
    </g>
    <g id="xtick_5">
     <g id="line2d_5">
      <g>
       <use xlink:href="#m05a9ed69e4" x="246.196364" y="307.584" style="stroke: #000000; stroke-width: 0.8"/>
      </g>
     </g>
     <g id="text_5">
      <!-- 80 -->
      <g transform="translate(241.196364 321.576187) scale(0.1 -0.1)">
       <defs>
        <path id="FangSong-38" d="M 600 1025 
Q 600 625 862 375 
Q 1125 125 1525 125 
Q 2000 125 2212 375 
Q 2425 625 2425 1000 
Q 2425 1325 2125 1625 
Q 1825 1925 1225 2175 
Q 925 1975 762 1675 
Q 600 1375 600 1025 
z
M 2800 1075 
Q 2800 600 2450 275 
Q 2100 -50 1525 -50 
Q 1000 -50 625 275 
Q 250 600 250 1025 
Q 250 1450 462 1750 
Q 675 2050 1075 2275 
Q 725 2450 537 2712 
Q 350 2975 350 3300 
Q 350 3725 675 4025 
Q 1000 4325 1575 4325 
Q 2100 4325 2425 4025 
Q 2750 3725 2750 3300 
Q 2750 3000 2562 2737 
Q 2375 2475 1975 2275 
Q 2400 2025 2600 1725 
Q 2800 1425 2800 1075 
z
M 2400 3275 
Q 2400 3625 2200 3887 
Q 2000 4150 1575 4150 
Q 1100 4150 900 3900 
Q 700 3650 700 3375 
Q 700 3100 987 2837 
Q 1275 2575 1800 2375 
Q 2100 2525 2250 2750 
Q 2400 2975 2400 3275 
z
" transform="scale(0.015625)"/>
       </defs>
       <use xlink:href="#FangSong-38"/>
       <use xlink:href="#FangSong-30" x="50"/>
      </g>
     </g>
    </g>
    <g id="xtick_6">
     <g id="line2d_6">
      <g>
       <use xlink:href="#m05a9ed69e4" x="289.832727" y="307.584" style="stroke: #000000; stroke-width: 0.8"/>
      </g>
     </g>
     <g id="text_6">
      <!-- 100 -->
      <g transform="translate(282.332727 321.576187) scale(0.1 -0.1)">
       <defs>
        <path id="FangSong-31" d="M 1800 4350 
L 1800 550 
Q 1800 350 1925 250 
Q 2050 150 2275 150 
L 2525 150 
L 2525 0 
L 700 0 
L 700 150 
L 925 150 
Q 1175 150 1287 250 
Q 1400 350 1400 550 
L 1400 3575 
Q 1400 3675 1337 3737 
Q 1275 3800 1150 3800 
L 700 3800 
L 700 3950 
L 925 3950 
Q 1225 3950 1412 4050 
Q 1600 4150 1700 4350 
L 1800 4350 
z
" transform="scale(0.015625)"/>
       </defs>
       <use xlink:href="#FangSong-31"/>
       <use xlink:href="#FangSong-30" x="50"/>
       <use xlink:href="#FangSong-30" x="100"/>
      </g>
     </g>
    </g>
    <g id="xtick_7">
     <g id="line2d_7">
      <g>
       <use xlink:href="#m05a9ed69e4" x="333.469091" y="307.584" style="stroke: #000000; stroke-width: 0.8"/>
      </g>
     </g>
     <g id="text_7">
      <!-- 120 -->
      <g transform="translate(325.969091 321.576187) scale(0.1 -0.1)">
       <use xlink:href="#FangSong-31"/>
       <use xlink:href="#FangSong-32" x="50"/>
       <use xlink:href="#FangSong-30" x="100"/>
      </g>
     </g>
    </g>
    <g id="xtick_8">
     <g id="line2d_8">
      <g>
       <use xlink:href="#m05a9ed69e4" x="377.105455" y="307.584" style="stroke: #000000; stroke-width: 0.8"/>
      </g>
     </g>
     <g id="text_8">
      <!-- 140 -->
      <g transform="translate(369.605455 321.576187) scale(0.1 -0.1)">
       <use xlink:href="#FangSong-31"/>
       <use xlink:href="#FangSong-34" x="50"/>
       <use xlink:href="#FangSong-30" x="100"/>
      </g>
     </g>
    </g>
    <g id="text_9">
     <!-- Latency -->
     <g transform="translate(218.66 333.974625) scale(0.1 -0.1)">
      <defs>
       <path id="FangSong-4c" d="M 975 350 
Q 975 250 1037 200 
Q 1100 150 1200 150 
L 1875 150 
Q 2225 150 2475 362 
Q 2725 575 2850 1025 
L 2975 975 
L 2750 0 
L 175 0 
L 175 150 
L 350 150 
Q 475 150 525 200 
Q 575 250 575 350 
L 575 3925 
Q 575 4025 525 4075 
Q 475 4125 350 4125 
L 200 4125 
L 200 4275 
L 1375 4275 
L 1375 4125 
L 1200 4125 
Q 1100 4125 1037 4075 
Q 975 4025 975 3925 
L 975 350 
z
" transform="scale(0.015625)"/>
       <path id="FangSong-61" d="M 1200 -25 
Q 750 -25 500 187 
Q 250 400 250 675 
Q 250 1125 637 1412 
Q 1025 1700 2175 1825 
L 2175 2125 
Q 2175 2375 2062 2537 
Q 1950 2700 1550 2700 
Q 1125 2700 950 2562 
Q 775 2425 825 2275 
Q 875 2175 825 2075 
Q 775 1975 625 1975 
Q 525 1975 462 2037 
Q 400 2100 400 2225 
Q 400 2450 725 2650 
Q 1050 2850 1525 2850 
Q 2025 2850 2275 2662 
Q 2525 2475 2525 2125 
L 2525 475 
Q 2525 275 2562 237 
Q 2600 200 2700 200 
Q 2825 200 2875 312 
Q 2925 425 2925 625 
L 3050 625 
Q 3050 275 2925 137 
Q 2800 0 2600 0 
Q 2425 0 2325 75 
Q 2225 150 2175 325 
Q 1925 150 1712 62 
Q 1500 -25 1200 -25 
z
M 675 750 
Q 675 525 812 337 
Q 950 150 1250 150 
Q 1475 150 1700 237 
Q 1925 325 2175 500 
L 2175 1675 
Q 1325 1575 1000 1337 
Q 675 1100 675 750 
z
" transform="scale(0.015625)"/>
       <path id="FangSong-74" d="M 1475 800 
Q 1475 450 1600 325 
Q 1725 200 1975 200 
Q 2225 200 2375 362 
Q 2525 525 2575 825 
L 2700 775 
Q 2650 425 2437 200 
Q 2225 -25 1875 -25 
Q 1500 -25 1312 200 
Q 1125 425 1125 900 
L 1125 2650 
L 375 2650 
L 375 2800 
L 575 2800 
Q 875 2800 1062 2987 
Q 1250 3175 1300 3575 
L 1325 3775 
L 1475 3775 
L 1475 2800 
L 2475 2800 
L 2475 2650 
L 1475 2650 
L 1475 800 
z
" transform="scale(0.015625)"/>
       <path id="FangSong-65" d="M 2375 1550 
Q 2400 2100 2187 2387 
Q 1975 2675 1625 2675 
Q 1250 2675 1012 2375 
Q 775 2075 775 1550 
L 2375 1550 
z
M 775 1400 
Q 775 725 1037 437 
Q 1300 150 1725 150 
Q 2050 150 2275 337 
Q 2500 525 2600 800 
L 2725 750 
Q 2650 475 2387 212 
Q 2125 -50 1675 -50 
Q 1100 -50 737 325 
Q 375 700 375 1400 
Q 375 2025 737 2437 
Q 1100 2850 1625 2850 
Q 2100 2850 2450 2525 
Q 2800 2200 2800 1400 
L 775 1400 
z
" transform="scale(0.015625)"/>
       <path id="FangSong-6e" d="M 175 0 
L 175 150 
L 300 150 
Q 425 150 475 200 
Q 525 250 525 350 
L 525 2500 
Q 525 2575 500 2612 
Q 475 2650 400 2650 
L 200 2650 
L 200 2800 
L 375 2800 
Q 500 2800 612 2825 
Q 725 2850 825 2925 
L 875 2925 
L 875 2350 
Q 1100 2600 1325 2725 
Q 1550 2850 1800 2850 
Q 2225 2850 2425 2625 
Q 2625 2400 2625 1950 
L 2625 350 
Q 2625 250 2687 200 
Q 2750 150 2850 150 
L 2975 150 
L 2975 0 
L 1925 0 
L 1925 150 
L 2050 150 
Q 2175 150 2225 200 
Q 2275 250 2275 350 
L 2275 2025 
Q 2275 2325 2150 2487 
Q 2025 2650 1775 2650 
Q 1550 2650 1312 2500 
Q 1075 2350 875 2075 
L 875 350 
Q 875 250 937 200 
Q 1000 150 1100 150 
L 1225 150 
L 1225 0 
L 175 0 
z
" transform="scale(0.015625)"/>
       <path id="FangSong-63" d="M 2125 2125 
Q 2125 2200 2137 2225 
Q 2150 2250 2175 2325 
Q 2200 2425 2075 2562 
Q 1950 2700 1650 2700 
Q 1275 2700 1012 2337 
Q 750 1975 750 1375 
Q 750 825 975 487 
Q 1200 150 1725 150 
Q 2075 150 2312 375 
Q 2550 600 2650 900 
L 2775 850 
Q 2675 475 2400 212 
Q 2125 -50 1650 -50 
Q 1050 -50 700 325 
Q 350 700 350 1400 
Q 350 2025 725 2437 
Q 1100 2850 1700 2850 
Q 2125 2850 2362 2625 
Q 2600 2400 2600 2175 
Q 2600 2025 2537 1962 
Q 2475 1900 2350 1900 
Q 2250 1900 2187 1962 
Q 2125 2025 2125 2125 
z
" transform="scale(0.015625)"/>
       <path id="FangSong-79" d="M 1625 700 
L 1675 700 
L 2225 2375 
Q 2275 2500 2212 2575 
Q 2150 2650 2050 2650 
L 1900 2650 
L 1900 2800 
L 2950 2800 
L 2950 2650 
L 2800 2650 
Q 2700 2650 2600 2575 
Q 2500 2500 2450 2375 
L 1600 -100 
Q 1475 -500 1287 -712 
Q 1100 -925 800 -950 
Q 650 -950 537 -875 
Q 425 -800 425 -675 
Q 425 -575 487 -500 
Q 550 -425 675 -425 
Q 775 -425 837 -525 
Q 900 -625 1050 -587 
Q 1200 -550 1250 -425 
Q 1300 -350 1375 -162 
Q 1450 25 1500 225 
L 650 2425 
Q 625 2525 537 2587 
Q 450 2650 350 2650 
L 250 2650 
L 250 2800 
L 1300 2800 
L 1300 2650 
L 1200 2650 
Q 1100 2650 1050 2587 
Q 1000 2525 1025 2400 
L 1625 700 
z
" transform="scale(0.015625)"/>
      </defs>
      <use xlink:href="#FangSong-4c"/>
      <use xlink:href="#FangSong-61" x="50"/>
      <use xlink:href="#FangSong-74" x="100"/>
      <use xlink:href="#FangSong-65" x="150"/>
      <use xlink:href="#FangSong-6e" x="200"/>
      <use xlink:href="#FangSong-63" x="250"/>
      <use xlink:href="#FangSong-79" x="300"/>
     </g>
    </g>
   </g>
   <g id="matplotlib.axis_2">
    <g id="ytick_1">
     <g id="line2d_9">
      <defs>
       <path id="m92083bdb20" d="M 0 0 
L -3.5 0 
" style="stroke: #000000; stroke-width: 0.8"/>
      </defs>
      <g>
       <use xlink:href="#m92083bdb20" x="57.6" y="295.488" style="stroke: #000000; stroke-width: 0.8"/>
      </g>
     </g>
     <g id="text_10">
      <!-- 0% -->
      <g transform="translate(40.6 298.984094) scale(0.1 -0.1)">
       <defs>
        <path id="FangSong-25" d="M 725 4150 
Q 575 4150 475 3950 
Q 375 3750 375 3200 
Q 375 2575 487 2387 
Q 600 2200 725 2200 
Q 900 2200 987 2425 
Q 1075 2650 1075 3200 
Q 1075 3650 1012 3900 
Q 950 4150 725 4150 
z
M 1400 3175 
Q 1400 2725 1250 2387 
Q 1100 2050 725 2050 
Q 425 2050 237 2350 
Q 50 2650 50 3175 
Q 50 3725 250 4025 
Q 450 4325 725 4325 
Q 1025 4325 1212 4012 
Q 1400 3700 1400 3175 
z
M 2700 1100 
Q 2700 1525 2625 1800 
Q 2550 2075 2350 2075 
Q 2200 2075 2100 1837 
Q 2000 1600 2000 1100 
Q 2000 475 2112 300 
Q 2225 125 2350 125 
Q 2525 125 2612 337 
Q 2700 550 2700 1100 
z
M 3025 1075 
Q 3025 575 2850 262 
Q 2675 -50 2350 -50 
Q 2075 -50 1875 262 
Q 1675 575 1675 1075 
Q 1675 1625 1875 1937 
Q 2075 2250 2350 2250 
Q 2650 2250 2837 1925 
Q 3025 1600 3025 1075 
z
M 2500 4250 
L 700 -50 
L 550 25 
L 2325 4325 
L 2500 4250 
z
" transform="scale(0.015625)"/>
       </defs>
       <use xlink:href="#FangSong-30"/>
       <use xlink:href="#FangSong-25" x="50"/>
      </g>
     </g>
    </g>
    <g id="ytick_2">
     <g id="line2d_10">
      <g>
       <use xlink:href="#m92083bdb20" x="57.6" y="247.104" style="stroke: #000000; stroke-width: 0.8"/>
      </g>
     </g>
     <g id="text_11">
      <!-- 20% -->
      <g transform="translate(35.6 250.600094) scale(0.1 -0.1)">
       <use xlink:href="#FangSong-32"/>
       <use xlink:href="#FangSong-30" x="50"/>
       <use xlink:href="#FangSong-25" x="100"/>
      </g>
     </g>
    </g>
    <g id="ytick_3">
     <g id="line2d_11">
      <g>
       <use xlink:href="#m92083bdb20" x="57.6" y="198.72" style="stroke: #000000; stroke-width: 0.8"/>
      </g>
     </g>
     <g id="text_12">
      <!-- 40% -->
      <g transform="translate(35.6 202.216094) scale(0.1 -0.1)">
       <use xlink:href="#FangSong-34"/>
       <use xlink:href="#FangSong-30" x="50"/>
       <use xlink:href="#FangSong-25" x="100"/>
      </g>
     </g>
    </g>
    <g id="ytick_4">
     <g id="line2d_12">
      <g>
       <use xlink:href="#m92083bdb20" x="57.6" y="150.336" style="stroke: #000000; stroke-width: 0.8"/>
      </g>
     </g>
     <g id="text_13">
      <!-- 60% -->
      <g transform="translate(35.6 153.832094) scale(0.1 -0.1)">
       <use xlink:href="#FangSong-36"/>
       <use xlink:href="#FangSong-30" x="50"/>
       <use xlink:href="#FangSong-25" x="100"/>
      </g>
     </g>
    </g>
    <g id="ytick_5">
     <g id="line2d_13">
      <g>
       <use xlink:href="#m92083bdb20" x="57.6" y="101.952" style="stroke: #000000; stroke-width: 0.8"/>
      </g>
     </g>
     <g id="text_14">
      <!-- 80% -->
      <g transform="translate(35.6 105.448094) scale(0.1 -0.1)">
       <use xlink:href="#FangSong-38"/>
       <use xlink:href="#FangSong-30" x="50"/>
       <use xlink:href="#FangSong-25" x="100"/>
      </g>
     </g>
    </g>
    <g id="ytick_6">
     <g id="line2d_14">
      <g>
       <use xlink:href="#m92083bdb20" x="57.6" y="53.568" style="stroke: #000000; stroke-width: 0.8"/>
      </g>
     </g>
     <g id="text_15">
      <!-- 100% -->
      <g transform="translate(30.6 57.064094) scale(0.1 -0.1)">
       <use xlink:href="#FangSong-31"/>
       <use xlink:href="#FangSong-30" x="50"/>
       <use xlink:href="#FangSong-30" x="100"/>
       <use xlink:href="#FangSong-25" x="150"/>
      </g>
     </g>
    </g>
    <g id="text_16">
     <!-- 累计完成比例 -->
     <g transform="translate(25.154688 204.528) rotate(-90) scale(0.1 -0.1)">
      <defs>
       <path id="FangSong-7d2f" d="M 4525 4975 
L 4700 5225 
L 5000 4950 
L 4825 4775 
L 4625 3550 
L 4850 3300 
L 3175 3150 
L 3375 2975 
Q 3200 2925 2862 2725 
Q 2525 2525 2075 2275 
L 3475 2500 
Q 3750 2675 3900 2800 
Q 4050 2925 4100 3075 
L 4175 3100 
L 4325 2700 
Q 4200 2675 3500 2237 
Q 2800 1800 2275 1550 
L 4375 1825 
L 3900 2175 
L 4000 2275 
Q 4625 1900 4950 1725 
Q 4975 1475 4925 1225 
Q 4800 1375 4500 1675 
L 3250 1475 
L 3525 1300 
Q 3375 1200 3375 875 
L 3375 25 
Q 3375 -325 3225 -625 
Q 2975 -325 2400 150 
L 2450 250 
L 3050 -75 
Q 3150 -125 3150 0 
L 3150 925 
Q 3150 1300 3125 1450 
Q 1875 1275 1575 1175 
L 1325 1425 
L 1850 1550 
Q 2175 1700 3250 2300 
Q 2075 2100 1875 2000 
L 1575 2250 
L 1800 2300 
Q 2150 2475 3025 3125 
L 2000 3025 
Q 2000 2675 1950 2700 
Q 1900 2725 1650 3025 
Q 1725 3250 1725 3425 
L 1650 4400 
Q 1625 4675 1525 4950 
L 1625 5000 
L 1875 4675 
L 4525 4975 
z
M 3150 3375 
L 3150 3875 
Q 2525 3800 2400 3725 
L 2100 3975 
Q 2500 3975 3150 4075 
L 3150 4600 
L 1900 4450 
L 1975 3250 
L 3150 3375 
z
M 3375 4100 
Q 3950 4175 4025 4225 
L 4275 4000 
Q 3950 3975 3375 3900 
L 3375 3400 
L 4400 3500 
L 4575 4750 
L 3375 4600 
L 3375 4100 
z
M 5450 -75 
Q 4975 325 3875 1025 
L 3950 1125 
Q 4850 700 5350 500 
Q 5425 250 5450 -75 
z
M 800 -250 
Q 1350 75 1825 500 
Q 2300 925 2325 1125 
L 2400 1150 
L 2550 725 
Q 2425 700 2075 425 
Q 1725 150 875 -350 
L 800 -250 
z
" transform="scale(0.015625)"/>
       <path id="FangSong-8ba1" d="M 4075 4200 
Q 4100 4825 3900 5100 
L 3975 5150 
L 4450 4725 
Q 4275 4600 4300 4200 
L 4275 3000 
Q 5525 3200 5575 3250 
L 5950 2950 
Q 5725 2975 4275 2800 
L 4250 -425 
Q 4250 -700 4150 -575 
L 3875 -150 
Q 4050 50 4025 300 
L 4050 2750 
Q 2975 2625 2900 2575 
L 2525 2825 
Q 2850 2825 4050 2975 
L 4075 4200 
z
M 1775 3250 
L 2100 2950 
L 1900 2750 
L 1875 550 
L 2825 1250 
L 2875 1175 
Q 1875 250 1750 -25 
L 1525 275 
Q 1625 375 1650 625 
L 1675 2775 
Q 900 2625 750 2550 
L 425 2800 
Q 850 2825 1650 3000 
L 1775 3250 
z
M 2025 3800 
Q 1825 4300 1325 4950 
L 1375 5025 
Q 1925 4575 2175 4300 
Q 2125 4000 2025 3800 
z
" transform="scale(0.015625)"/>
       <path id="FangSong-5b8c" d="M 5375 2050 
Q 4925 2050 3550 1950 
L 3850 1750 
Q 3725 1600 3700 1375 
L 3675 275 
Q 3650 -125 4075 -175 
L 4925 -175 
Q 5300 -150 5312 62 
Q 5325 275 5325 1025 
L 5425 1025 
Q 5450 750 5475 337 
Q 5500 -75 5700 -275 
Q 5400 -375 5000 -400 
L 4075 -400 
Q 3425 -350 3425 150 
L 3475 1450 
Q 3475 1775 3425 1925 
L 2675 1850 
L 2875 1650 
Q 2750 1550 2600 1200 
Q 2450 850 2025 312 
Q 1600 -225 600 -675 
L 550 -575 
Q 1525 -100 1987 625 
Q 2450 1350 2525 1850 
Q 1550 1775 1500 1725 
L 1150 2025 
Q 1625 2025 3212 2150 
Q 4800 2275 5000 2350 
L 5375 2050 
z
M 1650 3650 
Q 1550 3125 1325 2875 
L 1150 3250 
Q 1450 3425 1575 4400 
L 1675 4400 
L 1675 3900 
L 5025 4150 
L 5175 4400 
L 5525 4075 
Q 5375 4050 4725 3250 
L 4650 3325 
L 4975 3900 
L 1650 3650 
z
M 4475 2975 
Q 4225 2975 3412 2875 
Q 2600 2775 2400 2725 
L 2050 2975 
Q 2575 2975 3200 3075 
Q 3825 3175 4150 3225 
L 4475 2975 
z
M 3550 4575 
Q 3475 4350 3300 4150 
Q 3225 4475 2900 5200 
L 2975 5250 
Q 3350 4825 3550 4575 
z
" transform="scale(0.015625)"/>
       <path id="FangSong-6210" d="M 5575 975 
Q 5600 -150 5750 -625 
Q 4650 -225 4000 1075 
Q 3625 650 2975 225 
L 2925 325 
Q 3525 825 3900 1300 
Q 3600 2275 3500 3300 
L 1875 3125 
Q 1875 2625 1825 2100 
L 2725 2250 
L 2875 2475 
L 3175 2225 
L 3000 2050 
Q 2850 475 2575 -125 
Q 2225 400 1825 775 
L 1875 850 
L 2475 400 
Q 2650 875 2750 2000 
L 1825 1850 
Q 1675 250 600 -650 
L 525 -600 
Q 1250 250 1425 987 
Q 1600 1725 1625 2612 
Q 1650 3500 1550 3800 
L 1625 3825 
L 1850 3350 
L 3450 3525 
Q 3400 4150 3375 4562 
Q 3350 4975 3225 5200 
L 3275 5225 
L 3725 4900 
Q 3625 4925 3637 4575 
Q 3650 4225 3675 3550 
Q 4900 3700 5050 3775 
L 5325 3475 
Q 4775 3475 3725 3325 
Q 3775 2425 4075 1525 
Q 4500 2025 4687 2325 
Q 4875 2625 4800 2850 
L 4875 2875 
L 5125 2325 
Q 5075 2400 4850 2125 
Q 4625 1850 4150 1275 
Q 4625 225 5425 -125 
L 5475 975 
L 5575 975 
z
M 4100 5000 
Q 4525 4700 4875 4450 
Q 4825 4250 4750 4025 
Q 4400 4525 4025 4950 
L 4100 5000 
z
" transform="scale(0.015625)"/>
       <path id="FangSong-6bd4" d="M 3500 2125 
Q 3925 2425 4487 2975 
Q 5050 3525 4950 3750 
L 5025 3775 
L 5250 3225 
Q 5175 3250 4875 3000 
Q 4575 2750 4287 2525 
Q 4000 2300 3500 1900 
L 3500 575 
Q 3475 -100 4150 -100 
L 4800 -100 
Q 5275 -100 5375 12 
Q 5475 125 5450 1350 
L 5575 1350 
Q 5600 825 5637 412 
Q 5675 0 5800 -175 
Q 5375 -325 4800 -325 
L 4150 -325 
Q 3225 -350 3275 550 
L 3275 4300 
Q 3275 4875 3150 5150 
L 3200 5200 
L 3625 4850 
Q 3475 4825 3500 4250 
L 3500 2125 
z
M 1500 2575 
Q 1900 2625 2337 2712 
Q 2775 2800 2800 2850 
L 3075 2600 
Q 2875 2575 2350 2475 
Q 1825 2375 1775 2325 
L 1500 2525 
L 1500 150 
L 2925 1075 
L 2975 1025 
Q 1550 -75 1375 -350 
L 1200 0 
Q 1275 75 1275 350 
L 1275 3925 
Q 1275 4475 1150 4750 
L 1200 4800 
L 1625 4400 
Q 1475 4375 1500 3925 
L 1500 2575 
z
" transform="scale(0.015625)"/>
       <path id="FangSong-4f8b" d="M 3050 2000 
Q 3025 1800 2975 1600 
Q 2775 1900 2525 2250 
Q 2300 1875 2025 1550 
L 1925 1625 
Q 2675 2725 2975 3975 
Q 2475 3925 2375 3875 
L 2050 4125 
Q 2375 4125 3162 4225 
Q 3950 4325 4100 4450 
L 4350 4125 
Q 4050 4150 3100 3975 
L 3300 3700 
Q 3200 3675 3125 3525 
Q 3050 3375 2925 3050 
L 3625 3150 
L 3775 3350 
L 4050 3075 
L 3875 2900 
Q 3300 825 1850 -225 
L 1800 -100 
Q 3100 975 3625 2900 
Q 3150 2825 3025 2775 
L 2875 2925 
Q 2775 2675 2575 2350 
Q 2900 2125 3050 2000 
z
M 1275 -150 
Q 1425 25 1400 225 
L 1450 3425 
Q 1025 2800 475 2225 
L 400 2325 
Q 875 2850 1450 3887 
Q 2025 4925 1925 5150 
L 2000 5175 
L 2250 4700 
Q 2200 4725 2062 4475 
Q 1925 4225 1675 3800 
L 1625 -325 
Q 1650 -675 1525 -600 
L 1275 -150 
z
M 5475 250 
Q 5475 -300 5300 -650 
Q 4900 -100 4300 375 
L 4350 475 
L 5200 -75 
Q 5250 250 5250 575 
L 5250 4350 
Q 5275 4950 5100 5150 
L 5175 5225 
L 5600 4850 
Q 5450 4775 5475 4325 
L 5475 250 
z
M 4300 1525 
Q 4400 1650 4400 1900 
L 4400 3075 
Q 4425 3525 4300 3750 
L 4350 3800 
L 4725 3450 
Q 4600 3350 4625 3025 
L 4625 1375 
Q 4625 1050 4550 1125 
L 4300 1525 
z
" transform="scale(0.015625)"/>
      </defs>
      <use xlink:href="#FangSong-7d2f"/>
      <use xlink:href="#FangSong-8ba1" x="100"/>
      <use xlink:href="#FangSong-5b8c" x="200"/>
      <use xlink:href="#FangSong-6210" x="300"/>
      <use xlink:href="#FangSong-6bd4" x="400"/>
      <use xlink:href="#FangSong-4f8b" x="500"/>
     </g>
    </g>
   </g>
   <g id="line2d_15">
    <path d="M 73.832727 295.488 
L 74.050909 252.18432 
L 74.487273 252.18432 
L 74.705455 251.45856 
L 74.923636 251.21664 
L 75.141818 250.49088 
L 75.578182 250.00704 
L 76.014545 249.28128 
L 76.232727 249.03936 
L 77.541818 245.8944 
L 77.76 244.92672 
L 77.978182 244.6848 
L 78.632727 242.50752 
L 78.850909 242.50752 
L 80.16 239.8464 
L 80.596364 237.91104 
L 81.032727 236.94336 
L 81.250909 235.73376 
L 81.687273 234.52416 
L 82.341818 231.13728 
L 82.56 229.92768 
L 82.778182 229.68576 
L 83.869091 225.81504 
L 84.087273 224.60544 
L 84.305455 224.36352 
L 85.178182 220.00896 
L 85.396364 219.76704 
L 85.614545 219.76704 
L 86.269091 217.10592 
L 86.487273 216.864 
L 86.705455 215.6544 
L 86.923636 215.17056 
L 87.36 212.75136 
L 87.796364 211.29984 
L 88.669091 203.31648 
L 89.105455 200.17152 
L 89.323636 199.44576 
L 89.541818 198.23616 
L 89.978182 197.02656 
L 90.414545 192.91392 
L 90.850909 191.4624 
L 91.287273 189.52704 
L 91.723636 188.07552 
L 93.250909 184.44672 
L 93.687273 182.51136 
L 94.123636 178.88256 
L 94.996364 174.528 
L 95.214545 173.80224 
L 95.650909 171.62496 
L 96.087273 170.17344 
L 96.523636 169.6896 
L 96.741818 169.6896 
L 97.178182 168.48 
L 98.050909 165.81888 
L 98.923636 163.88352 
L 99.36 160.98048 
L 99.578182 160.98048 
L 99.796364 160.73856 
L 100.232727 158.31936 
L 100.450909 157.5936 
L 100.669091 157.35168 
L 101.541818 154.44864 
L 101.978182 151.78752 
L 102.196364 151.06176 
L 102.414545 150.81984 
L 103.069091 148.88448 
L 103.505455 146.22336 
L 103.723636 146.22336 
L 103.941818 144.77184 
L 104.16 144.288 
L 104.378182 142.83648 
L 104.596364 142.59456 
L 106.123636 139.20768 
L 107.214545 133.64352 
L 107.432727 133.15968 
L 107.650909 132.192 
L 107.869091 132.192 
L 108.305455 131.22432 
L 108.96 128.5632 
L 109.396364 127.59552 
L 109.832727 125.41824 
L 110.269091 124.45056 
L 110.487273 123.48288 
L 110.705455 123.24096 
L 110.923636 122.75712 
L 112.014545 118.16064 
L 112.232727 117.91872 
L 112.450909 117.91872 
L 112.887273 115.98336 
L 113.105455 115.98336 
L 113.323636 115.74144 
L 113.76 113.80608 
L 114.414545 111.38688 
L 114.632727 111.14496 
L 114.850909 110.66112 
L 115.287273 108.48384 
L 115.723636 107.03232 
L 116.378182 107.03232 
L 116.596364 106.54848 
L 116.814545 105.5808 
L 117.032727 105.5808 
L 117.469091 105.09696 
L 117.905455 105.09696 
L 119.432727 101.71008 
L 119.650909 101.71008 
L 119.869091 101.46816 
L 120.96 101.46816 
L 121.178182 100.98432 
L 121.614545 100.98432 
L 122.269091 99.04896 
L 122.487273 98.80704 
L 123.36 97.1136 
L 123.578182 97.1136 
L 124.014545 96.62976 
L 124.450909 95.42016 
L 124.669091 95.17824 
L 125.105455 95.17824 
L 125.323636 94.21056 
L 125.541818 93.96864 
L 126.196364 92.03328 
L 127.287273 89.856 
L 127.505455 89.61408 
L 128.16 89.61408 
L 128.378182 89.13024 
L 128.814545 89.13024 
L 129.032727 88.16256 
L 129.250909 88.16256 
L 129.469091 87.4368 
L 129.687273 87.19488 
L 130.123636 87.19488 
L 130.341818 86.71104 
L 130.56 86.71104 
L 130.996364 85.98528 
L 131.214545 85.74336 
L 131.432727 85.0176 
L 131.650909 84.77568 
L 131.869091 84.77568 
L 132.305455 84.04992 
L 133.178182 84.04992 
L 133.396364 83.808 
L 133.614545 83.808 
L 133.832727 83.56608 
L 134.705455 83.56608 
L 134.923636 83.32416 
L 135.578182 83.32416 
L 135.796364 83.08224 
L 136.014545 83.08224 
L 136.450909 82.35648 
L 136.669091 82.35648 
L 137.105455 81.87264 
L 137.323636 81.87264 
L 137.76 81.3888 
L 138.196364 81.3888 
L 138.414545 80.66304 
L 139.505455 80.66304 
L 139.723636 80.42112 
L 140.16 79.45344 
L 140.378182 79.45344 
L 140.596364 79.21152 
L 140.814545 79.21152 
L 141.032727 78.9696 
L 141.250909 78.9696 
L 141.687273 78.48576 
L 141.905455 78.00192 
L 142.123636 78.00192 
L 142.341818 77.76 
L 142.56 77.76 
L 142.778182 77.51808 
L 143.432727 76.30848 
L 143.650909 76.30848 
L 143.869091 76.06656 
L 144.305455 75.3408 
L 144.741818 74.85696 
L 145.178182 74.85696 
L 145.396364 74.61504 
L 145.614545 74.61504 
L 146.050909 74.1312 
L 147.36 74.1312 
L 147.578182 72.9216 
L 147.796364 72.43776 
L 148.014545 72.43776 
L 148.232727 72.19584 
L 148.450909 72.19584 
L 148.669091 71.95392 
L 148.887273 71.47008 
L 149.541818 71.47008 
L 149.76 70.98624 
L 150.414545 70.98624 
L 150.850909 70.5024 
L 151.287273 70.5024 
L 151.505455 69.77664 
L 151.723636 69.53472 
L 151.941818 69.53472 
L 152.16 69.2928 
L 153.905455 69.2928 
L 154.341818 68.56704 
L 155.432727 68.56704 
L 155.869091 67.84128 
L 156.087273 67.84128 
L 156.305455 67.59936 
L 156.523636 67.59936 
L 156.741818 67.35744 
L 157.396364 67.35744 
L 157.832727 66.8736 
L 158.050909 66.38976 
L 158.269091 66.38976 
L 158.705455 65.90592 
L 161.978182 65.90592 
L 162.196364 65.664 
L 162.632727 65.664 
L 162.850909 65.18016 
L 163.287273 65.18016 
L 163.505455 64.4544 
L 163.941818 64.4544 
L 164.596364 63.2448 
L 164.814545 63.00288 
L 165.469091 61.55136 
L 165.687273 61.55136 
L 165.905455 61.30944 
L 166.341818 61.30944 
L 166.56 61.06752 
L 166.996364 60.34176 
L 168.523636 60.34176 
L 168.741818 60.09984 
L 174.196364 60.09984 
L 174.414545 59.85792 
L 175.505455 59.85792 
L 175.723636 59.616 
L 177.032727 59.616 
L 177.250909 59.37408 
L 177.905455 59.37408 
L 178.123636 59.13216 
L 178.56 59.13216 
L 178.778182 58.64832 
L 178.996364 58.64832 
L 179.214545 58.4064 
L 179.650909 58.4064 
L 179.869091 57.92256 
L 181.178182 57.92256 
L 181.614545 57.43872 
L 182.705455 57.43872 
L 182.923636 56.71296 
L 183.141818 56.71296 
L 183.36 56.47104 
L 183.578182 56.47104 
L 184.232727 55.74528 
L 184.450909 55.74528 
L 184.669091 55.50336 
L 188.596364 55.50336 
L 188.814545 55.26144 
L 198.850909 55.26144 
L 199.069091 55.01952 
L 204.741818 55.01952 
L 204.96 54.7776 
L 224.814545 54.7776 
L 225.032727 54.53568 
L 316.232727 54.53568 
L 316.450909 54.29376 
L 362.705455 54.29376 
L 362.923636 54.05184 
L 365.105455 54.05184 
L 365.323636 53.80992 
L 398.269091 53.80992 
L 398.487273 53.568 
L 398.487273 53.568 
" clip-path="url(#p4bf8bc272f)" style="fill: none; stroke: #ff0000; stroke-linecap: square"/>
   </g>
   <g id="line2d_16">
    <path d="M 73.832727 295.488 
L 74.050909 190.2528 
L 74.923636 190.2528 
L 75.796364 188.55936 
L 76.232727 188.07552 
L 76.887273 186.86592 
L 77.105455 186.624 
L 77.541818 185.65632 
L 77.978182 183.96288 
L 78.196364 183.96288 
L 78.414545 183.23712 
L 78.632727 182.9952 
L 79.069091 181.54368 
L 79.287273 181.54368 
L 79.505455 180.81792 
L 79.723636 180.576 
L 80.16 179.12448 
L 80.378182 178.88256 
L 80.814545 177.67296 
L 81.032727 176.9472 
L 81.250909 176.70528 
L 81.687273 175.7376 
L 81.905455 174.76992 
L 82.341818 174.28608 
L 82.996364 172.59264 
L 83.432727 170.41536 
L 83.650909 170.41536 
L 84.305455 169.6896 
L 84.523636 169.6896 
L 84.741818 169.44768 
L 84.96 168.23808 
L 85.832727 166.0608 
L 87.141818 161.46432 
L 87.36 161.46432 
L 87.578182 160.98048 
L 87.796364 160.0128 
L 88.014545 159.77088 
L 88.232727 159.77088 
L 88.450909 159.52896 
L 88.669091 159.04512 
L 88.887273 159.04512 
L 89.323636 157.5936 
L 89.76 157.10976 
L 89.978182 156.62592 
L 90.196364 155.65824 
L 90.414545 155.65824 
L 90.850909 153.9648 
L 92.16 151.30368 
L 92.378182 151.30368 
L 92.596364 150.09408 
L 93.032727 148.88448 
L 93.469091 147.43296 
L 95.214545 143.32032 
L 95.869091 140.90112 
L 96.741818 139.93344 
L 97.178182 139.20768 
L 97.396364 139.20768 
L 97.614545 138.96576 
L 97.832727 138.96576 
L 98.487273 138.24 
L 98.923636 138.24 
L 99.36 137.75616 
L 99.578182 137.27232 
L 99.796364 135.8208 
L 100.232727 135.33696 
L 101.541818 132.43392 
L 101.76 132.43392 
L 103.069091 130.9824 
L 103.723636 129.53088 
L 103.941818 129.53088 
L 104.596364 128.07936 
L 104.814545 128.07936 
L 105.032727 127.83744 
L 105.250909 127.83744 
L 105.469091 127.59552 
L 105.687273 127.59552 
L 105.905455 127.3536 
L 106.56 126.144 
L 106.778182 126.144 
L 107.214545 125.41824 
L 107.432727 125.17632 
L 108.523636 122.99904 
L 108.96 122.5152 
L 109.178182 122.5152 
L 109.832727 121.3056 
L 110.269091 120.82176 
L 110.705455 119.61216 
L 111.36 118.8864 
L 111.578182 118.8864 
L 111.796364 117.19296 
L 112.014545 116.70912 
L 112.232727 116.70912 
L 112.669091 115.98336 
L 112.887273 115.74144 
L 113.105455 115.74144 
L 113.323636 115.49952 
L 113.541818 115.01568 
L 113.76 115.01568 
L 113.978182 114.77376 
L 114.196364 114.77376 
L 114.414545 114.28992 
L 114.632727 114.28992 
L 114.850909 114.048 
L 115.287273 112.35456 
L 115.505455 112.35456 
L 115.723636 111.38688 
L 116.16 110.90304 
L 116.596364 110.17728 
L 117.032727 110.17728 
L 117.250909 109.69344 
L 117.687273 109.69344 
L 118.341818 108.96768 
L 118.56 108.48384 
L 118.996364 108.48384 
L 119.650909 107.75808 
L 119.869091 107.75808 
L 120.523636 107.03232 
L 120.741818 107.03232 
L 120.96 106.7904 
L 121.396364 106.06464 
L 121.614545 105.82272 
L 121.832727 105.33888 
L 122.050909 105.33888 
L 122.269091 105.09696 
L 122.487273 105.09696 
L 122.705455 104.85504 
L 122.923636 104.85504 
L 123.141818 104.61312 
L 123.36 104.61312 
L 123.578182 104.3712 
L 124.014545 103.64544 
L 124.450909 103.64544 
L 124.669091 102.91968 
L 124.887273 102.91968 
L 125.105455 102.19392 
L 125.323636 101.952 
L 125.978182 101.952 
L 126.196364 101.71008 
L 126.850909 100.50048 
L 127.287273 100.01664 
L 127.723636 99.29088 
L 127.941818 99.29088 
L 128.378182 98.56512 
L 128.596364 98.3232 
L 128.814545 98.3232 
L 129.032727 98.08128 
L 129.469091 98.08128 
L 129.687273 97.83936 
L 129.905455 97.35552 
L 130.123636 97.35552 
L 130.341818 97.1136 
L 131.214545 97.1136 
L 131.432727 96.87168 
L 131.869091 96.87168 
L 132.087273 96.14592 
L 132.305455 96.14592 
L 132.741818 95.66208 
L 132.96 94.93632 
L 133.178182 94.6944 
L 133.614545 94.6944 
L 134.050909 94.21056 
L 134.487273 93.4848 
L 134.705455 93.24288 
L 134.923636 93.24288 
L 136.014545 92.03328 
L 136.232727 92.03328 
L 136.669091 91.30752 
L 136.887273 91.0656 
L 139.723636 91.0656 
L 139.941818 90.58176 
L 140.378182 90.58176 
L 140.596364 90.33984 
L 141.250909 90.33984 
L 141.687273 89.856 
L 141.905455 89.856 
L 142.56 88.6464 
L 142.778182 88.40448 
L 142.996364 88.40448 
L 143.214545 88.16256 
L 143.869091 88.16256 
L 144.305455 87.67872 
L 144.741818 87.67872 
L 144.96 86.95296 
L 145.178182 86.95296 
L 145.396364 86.71104 
L 146.487273 86.71104 
L 146.923636 86.2272 
L 147.141818 85.74336 
L 147.578182 85.74336 
L 147.796364 85.25952 
L 148.450909 85.25952 
L 149.323636 83.56608 
L 149.541818 83.56608 
L 149.76 83.32416 
L 149.978182 83.32416 
L 150.196364 83.08224 
L 150.414545 83.08224 
L 150.632727 82.84032 
L 152.596364 82.84032 
L 152.814545 82.5984 
L 153.250909 81.87264 
L 153.687273 81.87264 
L 153.905455 81.63072 
L 154.56 80.42112 
L 154.778182 80.1792 
L 155.432727 80.1792 
L 155.650909 79.93728 
L 155.869091 79.21152 
L 156.087273 79.21152 
L 156.305455 78.9696 
L 156.523636 78.9696 
L 156.741818 78.24384 
L 156.96 78.00192 
L 157.396364 78.00192 
L 157.832727 77.51808 
L 158.050909 76.79232 
L 158.269091 76.5504 
L 158.487273 76.5504 
L 158.705455 76.30848 
L 158.923636 76.30848 
L 159.141818 76.06656 
L 159.36 76.06656 
L 159.578182 75.82464 
L 160.014545 75.82464 
L 160.232727 75.58272 
L 160.450909 75.58272 
L 160.669091 75.3408 
L 160.887273 74.85696 
L 161.76 74.85696 
L 161.978182 74.61504 
L 162.196364 74.61504 
L 162.414545 74.37312 
L 162.632727 74.37312 
L 162.850909 73.16352 
L 163.069091 72.9216 
L 163.287273 72.9216 
L 163.723636 72.43776 
L 164.16 72.43776 
L 164.378182 72.19584 
L 164.596364 71.712 
L 164.814545 71.712 
L 165.032727 71.47008 
L 165.469091 71.47008 
L 165.687273 71.22816 
L 165.905455 71.22816 
L 166.56 70.5024 
L 166.778182 70.5024 
L 167.432727 69.77664 
L 167.869091 69.05088 
L 168.741818 69.05088 
L 168.96 68.80896 
L 169.178182 68.80896 
L 169.396364 68.32512 
L 169.614545 68.32512 
L 169.832727 68.0832 
L 170.269091 67.35744 
L 170.705455 66.8736 
L 171.141818 66.14784 
L 171.578182 65.664 
L 171.796364 65.664 
L 172.014545 64.93824 
L 172.450909 64.93824 
L 172.887273 64.4544 
L 173.76 64.4544 
L 173.978182 64.21248 
L 174.196364 63.72864 
L 175.723636 63.72864 
L 175.941818 63.2448 
L 176.378182 63.2448 
L 176.814545 62.76096 
L 177.469091 62.76096 
L 177.687273 62.27712 
L 177.905455 62.27712 
L 178.123636 62.0352 
L 179.214545 62.0352 
L 179.432727 61.30944 
L 180.523636 61.30944 
L 180.741818 61.06752 
L 181.396364 61.06752 
L 182.269091 60.09984 
L 182.487273 60.09984 
L 182.705455 59.85792 
L 184.014545 59.85792 
L 184.232727 59.616 
L 184.887273 59.616 
L 185.105455 59.37408 
L 185.323636 59.37408 
L 185.76 58.89024 
L 186.850909 58.89024 
L 187.287273 58.4064 
L 187.505455 57.92256 
L 187.941818 57.92256 
L 188.16 57.1968 
L 188.596364 57.1968 
L 188.814545 56.71296 
L 189.032727 56.71296 
L 189.250909 56.47104 
L 189.905455 56.47104 
L 190.123636 55.9872 
L 190.56 55.9872 
L 190.996364 55.50336 
L 194.705455 55.50336 
L 194.923636 55.26144 
L 196.014545 55.26144 
L 196.232727 55.01952 
L 207.796364 55.01952 
L 208.014545 54.7776 
L 208.450909 54.7776 
L 208.887273 54.29376 
L 209.541818 54.29376 
L 209.76 54.05184 
L 210.850909 54.05184 
L 211.069091 53.80992 
L 255.578182 53.80992 
L 255.796364 53.568 
L 398.487273 53.568 
L 398.487273 53.568 
" clip-path="url(#p4bf8bc272f)" style="fill: none; stroke-dasharray: 1.85,0.8; stroke-dashoffset: 0; stroke: #008000; stroke-width: 0.5"/>
   </g>
   <g id="line2d_17">
    <path d="M 73.832727 295.488 
L 74.050909 190.49472 
L 74.487273 190.49472 
L 74.705455 190.2528 
L 74.923636 190.2528 
L 75.141818 189.52704 
L 76.232727 189.52704 
L 76.887273 188.31744 
L 77.105455 188.31744 
L 77.541818 187.34976 
L 77.978182 187.34976 
L 78.196364 186.624 
L 78.850909 186.624 
L 79.287273 185.89824 
L 79.505455 185.65632 
L 79.723636 184.68864 
L 80.16 184.68864 
L 81.032727 182.02752 
L 81.250909 181.7856 
L 81.687273 180.576 
L 81.905455 180.33408 
L 82.341818 179.12448 
L 82.56 178.88256 
L 82.778182 177.91488 
L 83.214545 177.91488 
L 83.650909 177.43104 
L 83.869091 176.9472 
L 84.305455 174.76992 
L 84.523636 174.528 
L 84.741818 174.528 
L 85.396364 173.80224 
L 85.832727 172.83456 
L 86.050909 171.86688 
L 86.269091 171.62496 
L 87.36 168.23808 
L 88.450909 166.0608 
L 88.669091 165.81888 
L 88.887273 164.8512 
L 89.105455 164.60928 
L 89.323636 164.60928 
L 89.541818 164.36736 
L 90.196364 161.94816 
L 90.414545 161.94816 
L 90.632727 161.2224 
L 90.850909 160.98048 
L 91.941818 158.8032 
L 92.16 158.56128 
L 92.596364 157.5936 
L 93.032727 157.5936 
L 93.469091 157.10976 
L 93.905455 157.10976 
L 94.123636 155.90016 
L 94.56 155.41632 
L 94.996364 154.20672 
L 95.650909 153.48096 
L 95.869091 153.48096 
L 96.087273 152.7552 
L 96.523636 152.27136 
L 96.741818 152.27136 
L 97.396364 151.06176 
L 97.614545 150.81984 
L 98.050909 150.81984 
L 98.705455 150.09408 
L 99.578182 148.40064 
L 99.796364 148.15872 
L 100.232727 147.43296 
L 101.541818 145.98144 
L 101.76 145.25568 
L 101.978182 145.01376 
L 103.505455 141.62688 
L 103.723636 141.62688 
L 104.814545 140.41728 
L 105.032727 140.41728 
L 105.250909 139.69152 
L 105.469091 139.69152 
L 105.687273 139.4496 
L 105.905455 138.72384 
L 106.341818 138.24 
L 106.56 137.75616 
L 106.778182 137.75616 
L 106.996364 137.51424 
L 107.650909 137.51424 
L 107.869091 137.27232 
L 109.396364 134.12736 
L 109.832727 134.12736 
L 110.269091 133.64352 
L 110.487273 132.91776 
L 110.705455 132.67584 
L 110.923636 131.95008 
L 111.141818 131.70816 
L 111.578182 130.9824 
L 111.796364 130.9824 
L 112.232727 130.25664 
L 112.669091 129.7728 
L 113.323636 128.5632 
L 113.978182 127.83744 
L 114.414545 126.62784 
L 114.850909 125.90208 
L 115.069091 125.90208 
L 115.505455 124.45056 
L 115.723636 124.20864 
L 116.16 123.48288 
L 117.032727 122.5152 
L 117.250909 122.03136 
L 117.469091 122.03136 
L 117.687273 121.3056 
L 118.123636 120.82176 
L 118.341818 120.82176 
L 118.996364 119.61216 
L 119.432727 119.61216 
L 119.650909 119.12832 
L 119.869091 119.12832 
L 120.305455 118.40256 
L 120.523636 118.16064 
L 120.741818 117.6768 
L 120.96 117.6768 
L 121.178182 117.43488 
L 121.614545 116.70912 
L 122.269091 116.70912 
L 122.487273 116.4672 
L 124.014545 113.08032 
L 124.232727 113.08032 
L 125.105455 111.38688 
L 125.541818 110.90304 
L 125.76 110.90304 
L 125.978182 109.93536 
L 126.414545 109.93536 
L 126.632727 109.69344 
L 126.850909 109.2096 
L 127.069091 109.2096 
L 127.287273 108.48384 
L 127.505455 108.24192 
L 127.723636 108.24192 
L 128.16 107.75808 
L 128.596364 107.03232 
L 129.032727 106.54848 
L 129.250909 106.06464 
L 129.469091 106.06464 
L 129.687273 105.82272 
L 130.123636 105.82272 
L 130.56 104.3712 
L 130.778182 104.3712 
L 130.996364 104.12928 
L 131.650909 104.12928 
L 131.869091 103.88736 
L 132.087273 103.88736 
L 132.305455 103.64544 
L 132.523636 103.64544 
L 132.741818 103.40352 
L 132.96 103.40352 
L 133.178182 103.1616 
L 133.614545 103.1616 
L 134.269091 102.43584 
L 134.487273 102.43584 
L 134.705455 102.19392 
L 135.578182 100.25856 
L 135.796364 100.25856 
L 136.232727 99.5328 
L 136.669091 99.04896 
L 137.323636 99.04896 
L 137.541818 98.56512 
L 137.978182 98.56512 
L 138.196364 98.3232 
L 138.414545 98.3232 
L 138.632727 98.08128 
L 139.505455 98.08128 
L 139.941818 97.35552 
L 140.16 97.35552 
L 140.596364 96.87168 
L 141.032727 96.87168 
L 141.687273 96.14592 
L 141.905455 96.14592 
L 142.341818 95.66208 
L 142.996364 95.66208 
L 143.214545 95.17824 
L 143.432727 95.17824 
L 143.650909 94.45248 
L 143.869091 94.21056 
L 144.523636 94.21056 
L 145.614545 91.79136 
L 145.832727 91.79136 
L 146.050909 91.54944 
L 146.487273 91.54944 
L 146.705455 91.30752 
L 146.923636 91.30752 
L 147.141818 91.0656 
L 147.578182 90.33984 
L 147.796364 90.33984 
L 148.232727 89.856 
L 148.450909 89.856 
L 148.669091 89.61408 
L 149.105455 88.88832 
L 149.323636 88.88832 
L 149.541818 88.6464 
L 149.76 88.6464 
L 149.978182 88.40448 
L 150.196364 87.4368 
L 150.632727 87.4368 
L 150.850909 87.19488 
L 151.069091 87.19488 
L 151.287273 86.95296 
L 151.505455 86.95296 
L 151.723636 86.2272 
L 151.941818 86.2272 
L 152.16 85.74336 
L 152.378182 85.74336 
L 152.596364 85.50144 
L 152.814545 85.50144 
L 153.032727 85.25952 
L 153.250909 85.25952 
L 153.469091 84.29184 
L 153.687273 84.29184 
L 153.905455 84.04992 
L 154.123636 84.04992 
L 154.341818 83.808 
L 154.996364 82.5984 
L 155.650909 82.5984 
L 156.087273 82.11456 
L 157.178182 82.11456 
L 157.396364 81.87264 
L 158.269091 81.87264 
L 158.487273 81.3888 
L 158.923636 81.3888 
L 159.796364 80.42112 
L 160.014545 80.42112 
L 161.105455 79.21152 
L 161.323636 78.48576 
L 161.541818 78.24384 
L 161.76 78.24384 
L 161.978182 77.03424 
L 162.414545 76.30848 
L 162.632727 76.30848 
L 162.850909 76.06656 
L 163.069091 75.58272 
L 163.287273 75.58272 
L 163.505455 75.3408 
L 163.723636 75.3408 
L 163.941818 75.09888 
L 164.16 75.09888 
L 164.378182 74.85696 
L 164.814545 74.1312 
L 165.032727 74.1312 
L 165.250909 73.88928 
L 165.469091 73.88928 
L 165.687273 73.64736 
L 165.905455 73.64736 
L 166.56 72.9216 
L 166.996364 72.19584 
L 167.214545 71.95392 
L 167.650909 71.95392 
L 167.869091 71.22816 
L 168.087273 70.98624 
L 168.523636 69.53472 
L 169.178182 68.80896 
L 169.396364 67.84128 
L 170.050909 67.84128 
L 170.269091 67.59936 
L 170.487273 66.63168 
L 170.705455 66.63168 
L 171.141818 66.14784 
L 171.36 65.664 
L 171.796364 65.664 
L 172.014545 65.42208 
L 172.450909 64.21248 
L 173.105455 63.48672 
L 173.323636 63.48672 
L 173.541818 62.76096 
L 173.978182 62.27712 
L 174.196364 62.27712 
L 174.414545 62.0352 
L 174.632727 62.0352 
L 174.850909 61.55136 
L 175.505455 61.55136 
L 175.723636 61.30944 
L 176.16 61.30944 
L 176.596364 60.8256 
L 176.814545 60.8256 
L 177.032727 60.58368 
L 177.469091 60.58368 
L 177.687273 60.34176 
L 179.650909 60.34176 
L 179.869091 59.85792 
L 180.087273 59.85792 
L 180.305455 59.616 
L 180.523636 59.616 
L 180.741818 59.37408 
L 181.178182 59.37408 
L 181.396364 59.13216 
L 182.269091 59.13216 
L 182.705455 58.64832 
L 183.141818 58.64832 
L 183.36 58.4064 
L 185.105455 58.4064 
L 185.323636 58.16448 
L 186.632727 58.16448 
L 187.069091 57.68064 
L 187.287273 57.68064 
L 187.505455 57.43872 
L 188.378182 57.43872 
L 188.596364 57.1968 
L 189.032727 57.1968 
L 189.469091 56.71296 
L 190.123636 56.71296 
L 190.341818 56.47104 
L 190.56 55.9872 
L 196.014545 55.9872 
L 196.232727 55.74528 
L 196.887273 55.74528 
L 197.105455 55.50336 
L 199.941818 55.50336 
L 200.16 55.26144 
L 200.378182 55.26144 
L 200.596364 55.01952 
L 202.56 55.01952 
L 202.778182 54.7776 
L 203.869091 54.7776 
L 204.087273 54.53568 
L 205.832727 54.53568 
L 206.050909 54.29376 
L 207.796364 54.29376 
L 208.014545 54.05184 
L 215.214545 54.05184 
L 215.432727 53.80992 
L 231.141818 53.80992 
L 231.36 53.568 
L 398.487273 53.568 
L 398.487273 53.568 
" clip-path="url(#p4bf8bc272f)" style="fill: none; stroke-dasharray: 1.85,0.8; stroke-dashoffset: 0; stroke: #0000ff; stroke-width: 0.5"/>
   </g>
   <g id="line2d_18">
    <path d="M 73.832727 295.488 
L 74.050909 257.50656 
L 74.269091 257.50656 
L 74.487273 257.26464 
L 74.705455 257.26464 
L 75.141818 256.7808 
L 75.36 256.29696 
L 75.578182 256.29696 
L 76.669091 254.11968 
L 76.887273 254.11968 
L 77.105455 253.87776 
L 77.978182 251.9424 
L 78.196364 251.9424 
L 78.414545 251.70048 
L 78.632727 250.49088 
L 78.850909 250.24896 
L 79.287273 247.82976 
L 80.16 244.44288 
L 81.032727 241.29792 
L 81.469091 239.36256 
L 82.123636 236.94336 
L 83.432727 230.89536 
L 84.087273 226.78272 
L 84.305455 226.05696 
L 84.523636 225.81504 
L 84.741818 224.60544 
L 84.96 224.60544 
L 86.050909 220.25088 
L 87.141818 217.83168 
L 87.796364 214.4448 
L 88.450909 212.0256 
L 93.905455 187.8336 
L 94.123636 187.59168 
L 94.56 184.2048 
L 94.778182 183.47904 
L 95.432727 177.67296 
L 95.650909 177.43104 
L 95.869091 175.97952 
L 96.741818 173.80224 
L 96.96 172.59264 
L 97.832727 170.41536 
L 98.269091 168.48 
L 99.141818 165.09312 
L 99.36 164.8512 
L 99.578182 164.8512 
L 99.796364 163.6416 
L 100.450909 162.19008 
L 100.887273 160.49664 
L 101.105455 160.25472 
L 101.978182 156.86784 
L 102.414545 155.65824 
L 102.632727 155.65824 
L 103.505455 152.7552 
L 103.723636 151.06176 
L 104.16 149.85216 
L 104.596364 148.15872 
L 105.032727 147.67488 
L 105.250909 146.7072 
L 105.469091 146.46528 
L 105.687273 144.77184 
L 106.778182 141.38496 
L 106.996364 140.90112 
L 107.214545 139.20768 
L 107.432727 138.72384 
L 108.305455 134.36928 
L 108.741818 133.15968 
L 108.96 132.67584 
L 109.178182 132.67584 
L 109.396364 131.70816 
L 109.614545 131.46624 
L 110.050909 129.53088 
L 110.487273 128.32128 
L 110.705455 128.07936 
L 111.36 126.38592 
L 111.796364 123.48288 
L 112.014545 122.99904 
L 112.887273 119.61216 
L 113.105455 119.37024 
L 113.541818 118.64448 
L 113.978182 118.64448 
L 114.414545 117.19296 
L 114.632727 117.19296 
L 114.850909 116.95104 
L 115.505455 115.74144 
L 115.941818 115.2576 
L 116.16 114.53184 
L 116.378182 114.28992 
L 117.032727 112.8384 
L 117.469091 110.66112 
L 117.905455 109.93536 
L 118.123636 109.93536 
L 118.341818 109.2096 
L 118.56 108.96768 
L 119.214545 107.75808 
L 119.432727 107.51616 
L 119.650909 106.7904 
L 120.087273 106.7904 
L 120.523636 106.30656 
L 120.741818 105.82272 
L 121.178182 105.82272 
L 121.396364 105.33888 
L 121.832727 105.33888 
L 122.050909 105.09696 
L 124.014545 100.98432 
L 124.232727 100.98432 
L 124.669091 99.77472 
L 125.105455 99.29088 
L 125.541818 98.3232 
L 125.76 98.3232 
L 126.196364 97.83936 
L 126.632727 97.1136 
L 126.850909 96.87168 
L 127.505455 95.66208 
L 127.723636 95.42016 
L 127.941818 95.42016 
L 128.596364 93.96864 
L 128.814545 93.96864 
L 129.032727 93.72672 
L 129.250909 93.72672 
L 129.469091 93.4848 
L 129.687273 93.4848 
L 130.123636 93.00096 
L 130.56 91.79136 
L 130.778182 91.79136 
L 130.996364 91.30752 
L 131.214545 91.30752 
L 131.432727 91.0656 
L 131.650909 91.0656 
L 132.305455 89.61408 
L 132.741818 89.61408 
L 132.96 89.37216 
L 133.178182 89.37216 
L 134.050909 88.40448 
L 134.269091 88.40448 
L 134.487273 88.16256 
L 135.141818 88.16256 
L 135.36 87.92064 
L 136.232727 87.92064 
L 136.669091 87.4368 
L 136.887273 87.4368 
L 137.323636 86.46912 
L 137.76 86.46912 
L 137.978182 85.74336 
L 138.196364 85.50144 
L 138.850909 85.50144 
L 139.287273 85.0176 
L 139.505455 85.0176 
L 139.723636 84.77568 
L 139.941818 84.77568 
L 140.378182 83.56608 
L 140.596364 83.56608 
L 140.814545 82.5984 
L 141.032727 82.5984 
L 141.687273 81.3888 
L 142.123636 80.90496 
L 142.341818 80.90496 
L 142.56 80.66304 
L 142.778182 80.1792 
L 143.432727 80.1792 
L 143.650909 79.69536 
L 143.869091 79.69536 
L 144.087273 79.21152 
L 144.305455 79.21152 
L 144.523636 78.9696 
L 144.741818 78.00192 
L 145.178182 78.00192 
L 145.614545 76.79232 
L 146.269091 75.58272 
L 146.487273 75.58272 
L 146.923636 75.09888 
L 147.36 74.1312 
L 147.578182 74.1312 
L 148.232727 72.9216 
L 149.105455 72.9216 
L 149.323636 72.19584 
L 149.76 72.19584 
L 149.978182 71.95392 
L 150.632727 71.95392 
L 151.287273 71.22816 
L 151.941818 71.22816 
L 152.16 70.98624 
L 153.032727 70.98624 
L 153.250909 70.5024 
L 153.469091 70.5024 
L 153.687273 69.77664 
L 155.869091 69.77664 
L 156.305455 69.2928 
L 156.741818 69.2928 
L 157.178182 68.80896 
L 157.396364 68.80896 
L 157.614545 68.56704 
L 158.269091 68.56704 
L 158.487273 68.32512 
L 158.705455 67.84128 
L 158.923636 67.84128 
L 159.141818 67.59936 
L 159.796364 66.38976 
L 160.232727 66.38976 
L 160.450909 66.14784 
L 160.669091 66.14784 
L 161.76 64.93824 
L 161.978182 64.93824 
L 162.196364 64.69632 
L 162.632727 63.97056 
L 163.069091 63.97056 
L 163.287273 63.48672 
L 163.723636 63.48672 
L 164.16 63.00288 
L 164.378182 63.00288 
L 164.596364 62.51904 
L 164.814545 62.51904 
L 165.032727 62.27712 
L 165.250909 62.27712 
L 165.469091 62.0352 
L 165.905455 62.0352 
L 166.123636 61.79328 
L 166.56 61.79328 
L 166.778182 61.06752 
L 166.996364 60.8256 
L 167.432727 60.8256 
L 167.650909 60.58368 
L 167.869091 60.58368 
L 168.087273 60.34176 
L 168.305455 60.34176 
L 168.523636 60.09984 
L 168.741818 60.09984 
L 168.96 59.616 
L 169.396364 59.616 
L 170.050909 58.89024 
L 171.36 58.89024 
L 171.578182 58.64832 
L 173.978182 58.64832 
L 174.196364 58.4064 
L 176.596364 58.4064 
L 176.814545 58.16448 
L 177.469091 58.16448 
L 177.687273 57.92256 
L 178.123636 57.92256 
L 178.341818 57.68064 
L 182.705455 57.68064 
L 183.36 56.47104 
L 184.014545 56.47104 
L 184.232727 56.22912 
L 184.450909 56.22912 
L 184.669091 55.74528 
L 185.105455 55.74528 
L 185.323636 55.26144 
L 186.196364 55.26144 
L 186.632727 54.7776 
L 187.069091 54.7776 
L 187.287273 54.29376 
L 190.123636 54.29376 
L 190.341818 54.05184 
L 194.487273 54.05184 
L 194.705455 53.80992 
L 195.36 53.80992 
L 195.578182 53.568 
L 398.487273 53.568 
L 398.487273 53.568 
" clip-path="url(#p4bf8bc272f)" style="fill: none; stroke-dasharray: 1.85,0.8; stroke-dashoffset: 0; stroke: #bf00bf; stroke-width: 0.5"/>
   </g>
   <g id="line2d_19">
    <path d="M 73.832727 295.488 
L 74.050909 55.74528 
L 74.487273 55.74528 
L 74.705455 55.50336 
L 79.723636 55.50336 
L 79.941818 55.26144 
L 80.378182 55.26144 
L 80.814545 53.568 
L 398.487273 53.568 
L 398.487273 53.568 
" clip-path="url(#p4bf8bc272f)" style="fill: none; stroke-dasharray: 1.85,0.8; stroke-dashoffset: 0; stroke: #bfbf00; stroke-width: 0.5"/>
   </g>
   <g id="patch_3">
    <path d="M 57.6 307.584 
L 57.6 41.472 
" style="fill: none; stroke: #000000; stroke-width: 0.8; stroke-linejoin: miter; stroke-linecap: square"/>
   </g>
   <g id="patch_4">
    <path d="M 414.72 307.584 
L 414.72 41.472 
" style="fill: none; stroke: #000000; stroke-width: 0.8; stroke-linejoin: miter; stroke-linecap: square"/>
   </g>
   <g id="patch_5">
    <path d="M 57.6 307.584 
L 414.72 307.584 
" style="fill: none; stroke: #000000; stroke-width: 0.8; stroke-linejoin: miter; stroke-linecap: square"/>
   </g>
   <g id="patch_6">
    <path d="M 57.6 41.472 
L 414.72 41.472 
" style="fill: none; stroke: #000000; stroke-width: 0.8; stroke-linejoin: miter; stroke-linecap: square"/>
   </g>
   <g id="text_17">
    <!-- count=1000, googlenet=150, resnet50=112, squeezenetv1=187, vgg19=112, yolov2=187 -->
    <g transform="translate(-3.84 35.472) scale(0.12 -0.12)">
     <defs>
      <path id="FangSong-6f" d="M 2875 1400 
Q 2875 775 2500 362 
Q 2125 -50 1575 -50 
Q 1000 -50 637 375 
Q 275 800 275 1400 
Q 275 1950 637 2400 
Q 1000 2850 1575 2850 
Q 2175 2850 2525 2400 
Q 2875 1950 2875 1400 
z
M 675 1375 
Q 675 725 937 412 
Q 1200 100 1575 100 
Q 2000 100 2237 437 
Q 2475 775 2475 1375 
Q 2475 2025 2212 2362 
Q 1950 2700 1575 2700 
Q 1225 2700 950 2362 
Q 675 2025 675 1375 
z
" transform="scale(0.015625)"/>
      <path id="FangSong-75" d="M 1425 225 
Q 1725 225 1937 375 
Q 2150 525 2250 850 
L 2250 2425 
Q 2250 2525 2200 2587 
Q 2150 2650 2025 2650 
L 1875 2650 
L 1875 2800 
L 2025 2800 
Q 2175 2800 2300 2825 
Q 2425 2850 2550 2950 
L 2600 2950 
L 2600 500 
Q 2600 400 2662 350 
Q 2725 300 2825 300 
L 2975 300 
L 2975 150 
L 2825 150 
Q 2700 150 2575 112 
Q 2450 75 2300 0 
L 2250 0 
L 2250 525 
Q 2125 250 1875 112 
Q 1625 -25 1300 -25 
Q 900 -25 700 200 
Q 500 425 500 925 
L 500 2425 
Q 500 2525 450 2587 
Q 400 2650 275 2650 
L 125 2650 
L 125 2800 
L 275 2800 
Q 425 2800 550 2825 
Q 675 2850 800 2950 
L 850 2950 
L 850 875 
Q 850 525 1000 375 
Q 1150 225 1425 225 
z
" transform="scale(0.015625)"/>
      <path id="FangSong-3d" d="M 175 2725 
L 175 2950 
L 2950 2950 
L 2950 2725 
L 175 2725 
z
M 175 1450 
L 175 1675 
L 2950 1675 
L 2950 1450 
L 175 1450 
z
" transform="scale(0.015625)"/>
      <path id="FangSong-2c" d="M 1325 75 
Q 1200 25 1100 75 
Q 1000 125 962 237 
Q 925 350 925 437 
Q 925 525 987 612 
Q 1050 700 1150 737 
Q 1250 775 1425 725 
Q 1600 675 1650 500 
Q 1700 325 1662 150 
Q 1625 -25 1525 -200 
Q 1425 -375 1312 -475 
Q 1200 -575 1025 -675 
L 950 -575 
Q 1100 -450 1187 -312 
Q 1275 -175 1325 75 
z
" transform="scale(0.015625)"/>
      <path id="FangSong-20" transform="scale(0.015625)"/>
      <path id="FangSong-67" d="M 850 1875 
Q 850 1575 1025 1362 
Q 1200 1150 1500 1150 
Q 1825 1150 1987 1337 
Q 2150 1525 2150 1875 
Q 2150 2300 1962 2487 
Q 1775 2675 1500 2675 
Q 1225 2675 1037 2487 
Q 850 2300 850 1875 
z
M 2075 525 
Q 2450 475 2625 312 
Q 2800 150 2800 -125 
Q 2800 -500 2487 -725 
Q 2175 -950 1500 -950 
Q 975 -950 650 -737 
Q 325 -525 325 -250 
Q 325 -75 450 100 
Q 575 275 850 375 
Q 700 450 612 537 
Q 525 625 525 750 
Q 525 900 625 1012 
Q 725 1125 875 1200 
Q 725 1325 612 1500 
Q 500 1675 500 1875 
Q 500 2250 762 2537 
Q 1025 2825 1500 2825 
Q 1700 2825 1887 2775 
Q 2075 2725 2200 2600 
Q 2375 2725 2512 2787 
Q 2650 2850 2750 2850 
Q 2875 2850 2925 2762 
Q 2975 2675 2975 2600 
Q 2975 2500 2937 2437 
Q 2900 2375 2800 2375 
Q 2725 2375 2675 2412 
Q 2625 2450 2600 2525 
Q 2575 2600 2487 2587 
Q 2400 2575 2300 2500 
Q 2400 2400 2450 2225 
Q 2500 2050 2500 1875 
Q 2500 1575 2262 1287 
Q 2025 1000 1500 1000 
Q 1350 1000 1225 1037 
Q 1100 1075 1025 1125 
Q 925 1075 875 1000 
Q 825 925 825 875 
Q 825 775 875 725 
Q 925 675 1025 675 
Q 1350 625 1612 587 
Q 1875 550 2075 525 
z
M 1050 325 
Q 825 225 737 87 
Q 650 -50 650 -250 
Q 650 -450 875 -625 
Q 1100 -800 1550 -800 
Q 1975 -800 2225 -662 
Q 2475 -525 2475 -250 
Q 2475 -75 2412 25 
Q 2350 125 2225 150 
Q 1975 200 1675 237 
Q 1375 275 1050 325 
z
" transform="scale(0.015625)"/>
      <path id="FangSong-6c" d="M 900 4275 
Q 1125 4275 1325 4325 
Q 1525 4375 1700 4475 
L 1750 4475 
L 1750 350 
Q 1750 250 1812 200 
Q 1875 150 1975 150 
L 2550 150 
L 2550 0 
L 600 0 
L 600 150 
L 1175 150 
Q 1300 150 1350 200 
Q 1400 250 1400 350 
L 1400 3925 
Q 1400 4025 1350 4075 
Q 1300 4125 1175 4125 
L 625 4125 
L 625 4275 
L 900 4275 
z
" transform="scale(0.015625)"/>
      <path id="FangSong-35" d="M 1700 2750 
Q 2175 2750 2475 2387 
Q 2775 2025 2775 1425 
Q 2775 750 2462 350 
Q 2150 -50 1500 -50 
Q 1050 -50 700 212 
Q 350 475 350 850 
Q 350 1000 437 1112 
Q 525 1225 675 1225 
Q 825 1225 875 1125 
Q 925 1025 925 950 
Q 925 800 850 712 
Q 775 625 775 525 
Q 775 325 1012 225 
Q 1250 125 1525 125 
Q 1925 125 2137 450 
Q 2350 775 2350 1375 
Q 2350 1875 2162 2187 
Q 1975 2500 1600 2500 
Q 1325 2500 1125 2400 
Q 925 2300 750 1975 
L 525 2000 
L 650 4275 
L 2700 4275 
L 2625 3900 
L 825 3900 
L 725 2250 
Q 975 2600 1212 2675 
Q 1450 2750 1700 2750 
z
" transform="scale(0.015625)"/>
      <path id="FangSong-72" d="M 1250 2025 
Q 1500 2425 1787 2637 
Q 2075 2850 2375 2850 
Q 2625 2850 2762 2737 
Q 2900 2625 2900 2475 
Q 2900 2350 2837 2275 
Q 2775 2200 2650 2200 
Q 2525 2200 2462 2275 
Q 2400 2350 2425 2475 
Q 2425 2550 2400 2600 
Q 2375 2650 2250 2650 
Q 2050 2650 1762 2400 
Q 1475 2150 1250 1700 
L 1250 350 
Q 1250 250 1312 200 
Q 1375 150 1475 150 
L 2025 150 
L 2025 0 
L 175 0 
L 175 150 
L 675 150 
Q 800 150 850 200 
Q 900 250 900 350 
L 900 2425 
Q 900 2525 850 2587 
Q 800 2650 675 2650 
L 200 2650 
L 200 2800 
L 400 2800 
Q 575 2800 812 2837 
Q 1050 2875 1175 2925 
L 1250 2925 
L 1250 2025 
z
" transform="scale(0.015625)"/>
      <path id="FangSong-73" d="M 600 2075 
Q 600 2450 887 2650 
Q 1175 2850 1575 2850 
Q 1800 2850 2000 2787 
Q 2200 2725 2275 2725 
Q 2350 2725 2400 2750 
Q 2450 2775 2525 2850 
L 2625 2025 
L 2475 2000 
Q 2375 2325 2137 2512 
Q 1900 2700 1600 2700 
Q 1275 2700 1087 2575 
Q 900 2450 900 2225 
Q 900 2025 987 1912 
Q 1075 1800 1300 1750 
Q 1475 1675 1737 1587 
Q 2000 1500 2225 1400 
Q 2425 1300 2562 1137 
Q 2700 975 2700 775 
Q 2700 400 2437 187 
Q 2175 -25 1675 -25 
Q 1350 -25 1187 37 
Q 1025 100 925 100 
Q 850 100 762 62 
Q 675 25 575 -25 
L 500 900 
L 650 925 
Q 725 525 975 325 
Q 1225 125 1675 125 
Q 2025 125 2212 250 
Q 2400 375 2400 625 
Q 2400 800 2300 912 
Q 2200 1025 2100 1075 
Q 1850 1175 1550 1287 
Q 1250 1400 1025 1500 
Q 800 1600 700 1750 
Q 600 1900 600 2075 
z
" transform="scale(0.015625)"/>
      <path id="FangSong-71" d="M 2250 2150 
Q 2150 2375 1975 2512 
Q 1800 2650 1550 2650 
Q 1200 2650 950 2350 
Q 700 2050 700 1325 
Q 700 700 912 437 
Q 1125 175 1450 175 
Q 1725 175 1937 300 
Q 2150 425 2250 725 
L 2250 2150 
z
M 2600 -550 
Q 2600 -675 2662 -725 
Q 2725 -775 2825 -775 
L 2975 -775 
L 2975 -925 
L 1825 -925 
L 1825 -775 
L 2025 -775 
Q 2150 -775 2200 -725 
Q 2250 -675 2250 -550 
L 2250 375 
Q 2100 175 1887 75 
Q 1675 -25 1375 -25 
Q 950 -25 625 337 
Q 300 700 300 1400 
Q 300 2075 675 2450 
Q 1050 2825 1475 2825 
Q 1750 2825 1937 2725 
Q 2125 2625 2275 2475 
L 2500 2800 
L 2600 2800 
L 2600 -550 
z
" transform="scale(0.015625)"/>
      <path id="FangSong-7a" d="M 2725 975 
L 2550 0 
L 400 0 
L 400 125 
L 2125 2650 
L 1200 2650 
Q 975 2650 825 2487 
Q 675 2325 575 1925 
L 425 1950 
L 525 2800 
L 2575 2800 
L 2575 2725 
L 825 150 
L 1775 150 
Q 2100 150 2287 350 
Q 2475 550 2575 1000 
L 2725 975 
z
" transform="scale(0.015625)"/>
      <path id="FangSong-76" d="M 1600 -25 
L 1450 -25 
L 600 2425 
Q 575 2525 500 2587 
Q 425 2650 325 2650 
L 200 2650 
L 200 2800 
L 1275 2800 
L 1275 2650 
L 1175 2650 
Q 1025 2650 987 2575 
Q 950 2500 1000 2325 
L 1600 575 
L 1650 575 
L 2250 2300 
Q 2325 2475 2262 2562 
Q 2200 2650 2050 2650 
L 2000 2650 
L 2000 2800 
L 2900 2800 
L 2900 2650 
L 2850 2650 
Q 2700 2650 2612 2562 
Q 2525 2475 2450 2300 
L 1600 -25 
z
" transform="scale(0.015625)"/>
      <path id="FangSong-37" d="M 2800 4100 
Q 2275 3250 1962 2437 
Q 1650 1625 1650 1025 
Q 1650 925 1662 737 
Q 1675 550 1675 300 
Q 1675 100 1612 25 
Q 1550 -50 1400 -50 
Q 1275 -50 1187 37 
Q 1100 125 1100 350 
Q 1100 825 1312 1525 
Q 1525 2225 2450 3900 
L 1200 3900 
Q 925 3900 762 3725 
Q 600 3550 525 3200 
L 375 3225 
L 550 4275 
L 2800 4275 
L 2800 4100 
z
" transform="scale(0.015625)"/>
      <path id="FangSong-39" d="M 675 2950 
Q 675 2400 887 2112 
Q 1100 1825 1425 1825 
Q 1800 1825 2075 2175 
Q 2350 2525 2350 2825 
Q 2350 3425 2150 3787 
Q 1950 4150 1500 4150 
Q 1075 4150 875 3812 
Q 675 3475 675 2950 
z
M 1350 1600 
Q 850 1600 550 1912 
Q 250 2225 250 2925 
Q 250 3525 575 3925 
Q 900 4325 1500 4325 
Q 2125 4325 2475 3825 
Q 2825 3325 2825 2375 
Q 2825 1325 2412 637 
Q 2000 -50 1275 -50 
Q 950 -50 712 100 
Q 475 250 475 500 
Q 475 600 537 700 
Q 600 800 750 800 
Q 900 800 950 687 
Q 1000 575 1000 425 
Q 1000 325 1025 262 
Q 1050 200 1075 175 
Q 1100 150 1162 137 
Q 1225 125 1300 125 
Q 1750 125 2025 625 
Q 2300 1125 2350 2300 
Q 2225 2000 1975 1800 
Q 1725 1600 1350 1600 
z
" transform="scale(0.015625)"/>
     </defs>
     <use xlink:href="#FangSong-63"/>
     <use xlink:href="#FangSong-6f" x="50"/>
     <use xlink:href="#FangSong-75" x="100"/>
     <use xlink:href="#FangSong-6e" x="150"/>
     <use xlink:href="#FangSong-74" x="200"/>
     <use xlink:href="#FangSong-3d" x="250"/>
     <use xlink:href="#FangSong-31" x="300"/>
     <use xlink:href="#FangSong-30" x="350"/>
     <use xlink:href="#FangSong-30" x="400"/>
     <use xlink:href="#FangSong-30" x="450"/>
     <use xlink:href="#FangSong-2c" x="500"/>
     <use xlink:href="#FangSong-20" x="550"/>
     <use xlink:href="#FangSong-67" x="600"/>
     <use xlink:href="#FangSong-6f" x="650"/>
     <use xlink:href="#FangSong-6f" x="700"/>
     <use xlink:href="#FangSong-67" x="750"/>
     <use xlink:href="#FangSong-6c" x="800"/>
     <use xlink:href="#FangSong-65" x="850"/>
     <use xlink:href="#FangSong-6e" x="900"/>
     <use xlink:href="#FangSong-65" x="950"/>
     <use xlink:href="#FangSong-74" x="1000"/>
     <use xlink:href="#FangSong-3d" x="1050"/>
     <use xlink:href="#FangSong-31" x="1100"/>
     <use xlink:href="#FangSong-35" x="1150"/>
     <use xlink:href="#FangSong-30" x="1200"/>
     <use xlink:href="#FangSong-2c" x="1250"/>
     <use xlink:href="#FangSong-20" x="1300"/>
     <use xlink:href="#FangSong-72" x="1350"/>
     <use xlink:href="#FangSong-65" x="1400"/>
     <use xlink:href="#FangSong-73" x="1450"/>
     <use xlink:href="#FangSong-6e" x="1500"/>
     <use xlink:href="#FangSong-65" x="1550"/>
     <use xlink:href="#FangSong-74" x="1600"/>
     <use xlink:href="#FangSong-35" x="1650"/>
     <use xlink:href="#FangSong-30" x="1700"/>
     <use xlink:href="#FangSong-3d" x="1750"/>
     <use xlink:href="#FangSong-31" x="1800"/>
     <use xlink:href="#FangSong-31" x="1850"/>
     <use xlink:href="#FangSong-32" x="1900"/>
     <use xlink:href="#FangSong-2c" x="1950"/>
     <use xlink:href="#FangSong-20" x="2000"/>
     <use xlink:href="#FangSong-73" x="2050"/>
     <use xlink:href="#FangSong-71" x="2100"/>
     <use xlink:href="#FangSong-75" x="2150"/>
     <use xlink:href="#FangSong-65" x="2200"/>
     <use xlink:href="#FangSong-65" x="2250"/>
     <use xlink:href="#FangSong-7a" x="2300"/>
     <use xlink:href="#FangSong-65" x="2350"/>
     <use xlink:href="#FangSong-6e" x="2400"/>
     <use xlink:href="#FangSong-65" x="2450"/>
     <use xlink:href="#FangSong-74" x="2500"/>
     <use xlink:href="#FangSong-76" x="2550"/>
     <use xlink:href="#FangSong-31" x="2600"/>
     <use xlink:href="#FangSong-3d" x="2650"/>
     <use xlink:href="#FangSong-31" x="2700"/>
     <use xlink:href="#FangSong-38" x="2750"/>
     <use xlink:href="#FangSong-37" x="2800"/>
     <use xlink:href="#FangSong-2c" x="2850"/>
     <use xlink:href="#FangSong-20" x="2900"/>
     <use xlink:href="#FangSong-76" x="2950"/>
     <use xlink:href="#FangSong-67" x="3000"/>
     <use xlink:href="#FangSong-67" x="3050"/>
     <use xlink:href="#FangSong-31" x="3100"/>
     <use xlink:href="#FangSong-39" x="3150"/>
     <use xlink:href="#FangSong-3d" x="3200"/>
     <use xlink:href="#FangSong-31" x="3250"/>
     <use xlink:href="#FangSong-31" x="3300"/>
     <use xlink:href="#FangSong-32" x="3350"/>
     <use xlink:href="#FangSong-2c" x="3400"/>
     <use xlink:href="#FangSong-20" x="3450"/>
     <use xlink:href="#FangSong-79" x="3500"/>
     <use xlink:href="#FangSong-6f" x="3550"/>
     <use xlink:href="#FangSong-6c" x="3600"/>
     <use xlink:href="#FangSong-6f" x="3650"/>
     <use xlink:href="#FangSong-76" x="3700"/>
     <use xlink:href="#FangSong-32" x="3750"/>
     <use xlink:href="#FangSong-3d" x="3800"/>
     <use xlink:href="#FangSong-31" x="3850"/>
     <use xlink:href="#FangSong-38" x="3900"/>
     <use xlink:href="#FangSong-37" x="3950"/>
    </g>
   </g>
   <g id="legend_1">
    <g id="patch_7">
     <path d="M 335.72 302.584 
L 407.72 302.584 
Q 409.72 302.584 409.72 300.584 
L 409.72 234.357437 
Q 409.72 232.357437 407.72 232.357437 
L 335.72 232.357437 
Q 333.72 232.357437 333.72 234.357437 
L 333.72 300.584 
Q 333.72 302.584 335.72 302.584 
z
" style="fill: #ffffff; opacity: 0.8; stroke: #cccccc; stroke-linejoin: miter"/>
    </g>
    <g id="line2d_20">
     <path d="M 337.72 239.857437 
L 347.72 239.857437 
L 357.72 239.857437 
" style="fill: none; stroke: #ff0000; stroke-linecap: square"/>
    </g>
    <g id="text_18">
     <!-- DLIR -->
     <g transform="translate(365.72 243.357437) scale(0.1 -0.1)">
      <defs>
       <path id="FangSong-44" d="M 2475 2175 
Q 2475 3250 2150 3687 
Q 1825 4125 1250 4125 
Q 1075 4125 987 4075 
Q 900 4025 900 3925 
L 900 350 
Q 900 250 975 200 
Q 1050 150 1175 150 
Q 1725 150 2100 562 
Q 2475 975 2475 2175 
z
M 500 3925 
Q 500 4025 450 4075 
Q 400 4125 275 4125 
L 125 4125 
L 125 4275 
L 1250 4275 
Q 2025 4275 2487 3775 
Q 2950 3275 2950 2225 
Q 2950 1075 2500 537 
Q 2050 0 1175 0 
L 100 0 
L 100 150 
L 275 150 
Q 400 150 450 200 
Q 500 250 500 350 
L 500 3925 
z
" transform="scale(0.015625)"/>
       <path id="FangSong-49" d="M 575 4125 
L 575 4275 
L 2575 4275 
L 2575 4125 
L 2000 4125 
Q 1900 4125 1837 4075 
Q 1775 4025 1775 3925 
L 1775 350 
Q 1775 250 1837 200 
Q 1900 150 2000 150 
L 2575 150 
L 2575 0 
L 575 0 
L 575 150 
L 1150 150 
Q 1275 150 1325 200 
Q 1375 250 1375 350 
L 1375 3925 
Q 1375 4025 1325 4075 
Q 1275 4125 1150 4125 
L 575 4125 
z
" transform="scale(0.015625)"/>
       <path id="FangSong-52" d="M 2800 3275 
Q 2800 2775 2525 2500 
Q 2250 2225 1900 2175 
L 2650 325 
Q 2700 225 2762 187 
Q 2825 150 2900 150 
L 3050 150 
L 3050 0 
L 2350 0 
L 1525 2150 
L 950 2150 
L 950 350 
Q 950 250 1012 200 
Q 1075 150 1175 150 
L 1325 150 
L 1325 0 
L 175 0 
L 175 150 
L 325 150 
Q 450 150 500 200 
Q 550 250 550 350 
L 550 3925 
Q 550 4025 500 4075 
Q 450 4125 325 4125 
L 175 4125 
L 175 4275 
L 1600 4275 
Q 2175 4275 2487 4025 
Q 2800 3775 2800 3275 
z
M 950 2300 
L 1500 2300 
Q 1875 2300 2125 2525 
Q 2375 2750 2375 3225 
Q 2375 3650 2150 3887 
Q 1925 4125 1450 4125 
L 1175 4125 
Q 1075 4125 1012 4075 
Q 950 4025 950 3925 
L 950 2300 
z
" transform="scale(0.015625)"/>
      </defs>
      <use xlink:href="#FangSong-44"/>
      <use xlink:href="#FangSong-4c" x="50"/>
      <use xlink:href="#FangSong-49" x="100"/>
      <use xlink:href="#FangSong-52" x="150"/>
     </g>
    </g>
    <g id="line2d_21">
     <path d="M 337.72 253.30275 
L 347.72 253.30275 
L 357.72 253.30275 
" style="fill: none; stroke-dasharray: 1.85,0.8; stroke-dashoffset: 0; stroke: #008000; stroke-width: 0.5"/>
    </g>
    <g id="text_19">
     <!-- BNST -->
     <g transform="translate(365.72 256.80275) scale(0.1 -0.1)">
      <defs>
       <path id="FangSong-42" d="M 75 0 
L 75 150 
L 275 150 
Q 400 150 450 200 
Q 500 250 500 350 
L 500 3925 
Q 500 4025 450 4075 
Q 400 4125 275 4125 
L 125 4125 
L 125 4275 
L 1575 4275 
Q 2175 4275 2462 4037 
Q 2750 3800 2750 3300 
Q 2750 2950 2600 2725 
Q 2450 2500 1975 2325 
Q 2550 2150 2750 1825 
Q 2950 1500 2950 1100 
Q 2950 600 2600 300 
Q 2250 0 1650 0 
L 75 0 
z
M 1575 150 
Q 2000 150 2237 412 
Q 2475 675 2475 1150 
Q 2475 1700 2225 1962 
Q 1975 2225 1475 2225 
L 900 2225 
L 900 350 
Q 900 250 962 200 
Q 1025 150 1125 150 
L 1575 150 
z
M 2325 3300 
Q 2325 3750 2075 3937 
Q 1825 4125 1425 4125 
L 1125 4125 
Q 1025 4125 962 4075 
Q 900 4025 900 3925 
L 900 2375 
L 1550 2375 
Q 1825 2375 2075 2600 
Q 2325 2825 2325 3300 
z
" transform="scale(0.015625)"/>
       <path id="FangSong-4e" d="M 2500 1000 
L 2550 1000 
L 2550 3925 
Q 2550 4025 2500 4075 
Q 2450 4125 2325 4125 
L 2125 4125 
L 2125 4275 
L 3125 4275 
L 3125 4125 
L 2925 4125 
Q 2825 4125 2762 4075 
Q 2700 4025 2700 3925 
L 2700 0 
L 2550 0 
L 650 3725 
L 600 3725 
L 600 350 
Q 600 250 662 200 
Q 725 150 825 150 
L 1025 150 
L 1025 0 
L 25 0 
L 25 150 
L 225 150 
Q 350 150 400 200 
Q 450 250 450 350 
L 450 3925 
Q 450 4025 400 4075 
Q 350 4125 225 4125 
L 75 4125 
L 75 4275 
L 800 4275 
L 2500 1000 
z
" transform="scale(0.015625)"/>
       <path id="FangSong-53" d="M 1475 2050 
Q 800 2350 550 2575 
Q 300 2800 300 3275 
Q 300 3650 612 3987 
Q 925 4325 1500 4325 
Q 1750 4325 1975 4237 
Q 2200 4150 2300 4150 
Q 2375 4150 2437 4187 
Q 2500 4225 2550 4325 
L 2650 3300 
L 2525 3250 
Q 2300 3775 2062 3962 
Q 1825 4150 1450 4150 
Q 975 4150 800 3887 
Q 625 3625 625 3325 
Q 625 3050 787 2887 
Q 950 2725 1675 2400 
Q 2275 2150 2537 1837 
Q 2800 1525 2800 1100 
Q 2800 650 2487 300 
Q 2175 -50 1575 -50 
Q 1325 -50 1112 37 
Q 900 125 775 125 
Q 700 125 625 75 
Q 550 25 450 -50 
L 250 1175 
L 400 1225 
Q 575 600 887 362 
Q 1200 125 1600 125 
Q 2025 125 2237 375 
Q 2450 625 2450 1100 
Q 2450 1350 2212 1587 
Q 1975 1825 1475 2050 
z
" transform="scale(0.015625)"/>
       <path id="FangSong-54" d="M 2200 0 
L 900 0 
L 900 150 
L 1125 150 
Q 1250 150 1300 200 
Q 1350 250 1350 350 
L 1350 3850 
Q 1350 4050 1325 4075 
Q 1300 4100 1125 4100 
Q 775 4100 637 3975 
Q 500 3850 300 3300 
L 150 3325 
L 375 4275 
L 2750 4275 
L 2950 3325 
L 2825 3300 
Q 2625 3825 2512 3962 
Q 2400 4100 2050 4100 
Q 1800 4100 1775 4075 
Q 1750 4050 1750 3825 
L 1750 350 
Q 1750 250 1812 200 
Q 1875 150 1975 150 
L 2200 150 
L 2200 0 
z
" transform="scale(0.015625)"/>
      </defs>
      <use xlink:href="#FangSong-42"/>
      <use xlink:href="#FangSong-4e" x="50"/>
      <use xlink:href="#FangSong-53" x="100"/>
      <use xlink:href="#FangSong-54" x="150"/>
     </g>
    </g>
    <g id="line2d_22">
     <path d="M 337.72 266.748062 
L 347.72 266.748062 
L 357.72 266.748062 
" style="fill: none; stroke-dasharray: 1.85,0.8; stroke-dashoffset: 0; stroke: #0000ff; stroke-width: 0.5"/>
    </g>
    <g id="text_20">
     <!-- FIFO -->
     <g transform="translate(365.72 270.248062) scale(0.1 -0.1)">
      <defs>
       <path id="FangSong-46" d="M 1325 150 
L 1325 0 
L 125 0 
L 125 150 
L 300 150 
Q 425 150 475 200 
Q 525 250 525 350 
L 525 3925 
Q 525 4025 475 4075 
Q 425 4125 300 4125 
L 150 4125 
L 150 4275 
L 2750 4275 
L 3050 3375 
L 2925 3325 
Q 2725 3725 2450 3925 
Q 2175 4125 1850 4125 
L 1150 4125 
Q 1050 4125 987 4075 
Q 925 4025 925 3925 
L 925 2325 
L 1750 2325 
Q 2000 2325 2112 2437 
Q 2225 2550 2225 2800 
L 2225 2925 
L 2375 2925 
L 2375 1475 
L 2225 1475 
L 2225 1575 
Q 2225 1875 2112 2025 
Q 2000 2175 1750 2175 
L 925 2175 
L 925 350 
Q 925 250 987 200 
Q 1050 150 1150 150 
L 1325 150 
z
" transform="scale(0.015625)"/>
       <path id="FangSong-4f" d="M 675 2150 
Q 675 1075 937 587 
Q 1200 100 1600 100 
Q 2025 100 2275 562 
Q 2525 1025 2525 2150 
Q 2525 3050 2312 3600 
Q 2100 4150 1600 4150 
Q 1175 4150 925 3650 
Q 675 3150 675 2150 
z
M 3000 2150 
Q 3000 1125 2600 537 
Q 2200 -50 1600 -50 
Q 1025 -50 612 550 
Q 200 1150 200 2150 
Q 200 3125 587 3725 
Q 975 4325 1600 4325 
Q 2250 4325 2625 3687 
Q 3000 3050 3000 2150 
z
" transform="scale(0.015625)"/>
      </defs>
      <use xlink:href="#FangSong-46"/>
      <use xlink:href="#FangSong-49" x="50"/>
      <use xlink:href="#FangSong-46" x="100"/>
      <use xlink:href="#FangSong-4f" x="150"/>
     </g>
    </g>
    <g id="line2d_23">
     <path d="M 337.72 280.193375 
L 347.72 280.193375 
L 357.72 280.193375 
" style="fill: none; stroke-dasharray: 1.85,0.8; stroke-dashoffset: 0; stroke: #bf00bf; stroke-width: 0.5"/>
    </g>
    <g id="text_21">
     <!-- OYST -->
     <g transform="translate(365.72 283.693375) scale(0.1 -0.1)">
      <defs>
       <path id="FangSong-59" d="M 2350 3825 
Q 2375 3975 2312 4050 
Q 2250 4125 2075 4125 
L 2025 4125 
L 2025 4275 
L 3000 4275 
L 3000 4125 
L 2925 4125 
Q 2800 4125 2700 4037 
Q 2600 3950 2525 3775 
L 1750 1800 
L 1750 350 
Q 1750 250 1812 200 
Q 1875 150 1975 150 
L 2200 150 
L 2200 0 
L 900 0 
L 900 150 
L 1125 150 
Q 1250 150 1300 200 
Q 1350 250 1350 350 
L 1350 1650 
L 500 3850 
Q 450 3975 375 4050 
Q 300 4125 175 4125 
L 125 4125 
L 125 4275 
L 1225 4275 
L 1225 4125 
L 1075 4125 
Q 925 4125 900 4050 
Q 875 3975 925 3825 
L 1600 1975 
L 1650 1975 
L 2350 3825 
z
" transform="scale(0.015625)"/>
      </defs>
      <use xlink:href="#FangSong-4f"/>
      <use xlink:href="#FangSong-59" x="50"/>
      <use xlink:href="#FangSong-53" x="100"/>
      <use xlink:href="#FangSong-54" x="150"/>
     </g>
    </g>
    <g id="line2d_24">
     <path d="M 337.72 293.638687 
L 347.72 293.638687 
L 357.72 293.638687 
" style="fill: none; stroke-dasharray: 1.85,0.8; stroke-dashoffset: 0; stroke: #bfbf00; stroke-width: 0.5"/>
    </g>
    <g id="text_22">
     <!-- PARALLEL -->
     <g transform="translate(365.72 297.138687) scale(0.1 -0.1)">
      <defs>
       <path id="FangSong-50" d="M 925 2000 
L 925 350 
Q 925 250 987 200 
Q 1050 150 1150 150 
L 1325 150 
L 1325 0 
L 125 0 
L 125 150 
L 300 150 
Q 425 150 475 200 
Q 525 250 525 350 
L 525 3925 
Q 525 4025 475 4075 
Q 425 4125 300 4125 
L 150 4125 
L 150 4275 
L 1625 4275 
Q 2250 4275 2587 3962 
Q 2925 3650 2925 3175 
Q 2925 2600 2562 2300 
Q 2200 2000 1700 2000 
L 925 2000 
z
M 1550 2150 
Q 1925 2150 2212 2375 
Q 2500 2600 2500 3150 
Q 2500 3650 2262 3887 
Q 2025 4125 1500 4125 
L 1150 4125 
Q 1050 4125 987 4075 
Q 925 4025 925 3925 
L 925 2150 
L 1550 2150 
z
" transform="scale(0.015625)"/>
       <path id="FangSong-41" d="M 2000 1600 
L 875 1600 
L 650 650 
Q 600 425 650 287 
Q 700 150 875 150 
L 950 150 
L 950 0 
L 25 0 
L 25 150 
L 100 150 
Q 200 150 275 212 
Q 350 275 375 425 
L 1350 4250 
L 1725 4375 
L 2675 425 
Q 2725 275 2800 212 
Q 2875 150 2975 150 
L 3050 150 
L 3050 0 
L 1975 0 
L 1975 150 
L 2075 150 
Q 2225 150 2262 237 
Q 2300 325 2250 500 
L 2000 1600 
z
M 1475 3825 
L 1450 3825 
L 925 1750 
L 1975 1750 
L 1475 3825 
z
" transform="scale(0.015625)"/>
       <path id="FangSong-45" d="M 175 4125 
L 175 4275 
L 2625 4275 
L 2900 3425 
L 2775 3375 
Q 2575 3750 2350 3937 
Q 2125 4125 1850 4125 
L 1150 4125 
Q 1050 4125 987 4075 
Q 925 4025 925 3925 
L 925 2375 
L 1650 2375 
Q 1900 2375 2012 2500 
Q 2125 2625 2125 2875 
L 2125 3025 
L 2275 3025 
L 2275 1550 
L 2125 1550 
L 2125 1650 
Q 2125 1925 2012 2075 
Q 1900 2225 1650 2225 
L 925 2225 
L 925 350 
Q 925 250 987 200 
Q 1050 150 1150 150 
L 1800 150 
Q 2175 150 2437 362 
Q 2700 575 2850 1025 
L 2975 975 
L 2700 0 
L 150 0 
L 150 150 
L 300 150 
Q 425 150 475 200 
Q 525 250 525 350 
L 525 3925 
Q 525 4025 475 4075 
Q 425 4125 300 4125 
L 175 4125 
z
" transform="scale(0.015625)"/>
      </defs>
      <use xlink:href="#FangSong-50"/>
      <use xlink:href="#FangSong-41" x="50"/>
      <use xlink:href="#FangSong-52" x="100"/>
      <use xlink:href="#FangSong-41" x="150"/>
      <use xlink:href="#FangSong-4c" x="200"/>
      <use xlink:href="#FangSong-4c" x="250"/>
      <use xlink:href="#FangSong-45" x="300"/>
      <use xlink:href="#FangSong-4c" x="350"/>
     </g>
    </g>
   </g>
  </g>
 </g>
 <defs>
  <clipPath id="p4bf8bc272f">
   <rect x="57.6" y="41.472" width="357.12" height="266.112"/>
  </clipPath>
 </defs>
</svg>
