<?xml version="1.0" encoding="utf-8" standalone="no"?>
<!DOCTYPE svg PUBLIC "-//W3C//DTD SVG 1.1//EN"
  "http://www.w3.org/Graphics/SVG/1.1/DTD/svg11.dtd">
<svg xmlns:xlink="http://www.w3.org/1999/xlink" width="460.8pt" height="345.6pt" viewBox="0 0 460.8 345.6" xmlns="http://www.w3.org/2000/svg" version="1.1">
 <metadata>
  <rdf:RDF xmlns:dc="http://purl.org/dc/elements/1.1/" xmlns:cc="http://creativecommons.org/ns#" xmlns:rdf="http://www.w3.org/1999/02/22-rdf-syntax-ns#">
   <cc:Work>
    <dc:type rdf:resource="http://purl.org/dc/dcmitype/StillImage"/>
    <dc:date>2023-01-19T17:24:46.514002</dc:date>
    <dc:format>image/svg+xml</dc:format>
    <dc:creator>
     <cc:Agent>
      <dc:title>Matplotlib v3.6.3, https://matplotlib.org/</dc:title>
     </cc:Agent>
    </dc:creator>
   </cc:Work>
  </rdf:RDF>
 </metadata>
 <defs>
  <style type="text/css">*{stroke-linejoin: round; stroke-linecap: butt}</style>
 </defs>
 <g id="figure_1">
  <g id="patch_1">
   <path d="M 0 345.6 
L 460.8 345.6 
L 460.8 0 
L 0 0 
z
" style="fill: #ffffff"/>
  </g>
  <g id="axes_1">
   <g id="patch_2">
    <path d="M 57.6 307.584 
L 414.72 307.584 
L 414.72 41.472 
L 57.6 41.472 
z
" style="fill: #ffffff"/>
   </g>
   <g id="matplotlib.axis_1">
    <g id="xtick_1">
     <g id="line2d_1">
      <defs>
       <path id="m413fd33088" d="M 0 0 
L 0 3.5 
" style="stroke: #000000; stroke-width: 0.8"/>
      </defs>
      <g>
       <use xlink:href="#m413fd33088" x="68.493014" y="307.584" style="stroke: #000000; stroke-width: 0.8"/>
      </g>
     </g>
     <g id="text_1">
      <!-- 0 -->
      <g transform="translate(65.993014 321.576187) scale(0.1 -0.1)">
       <defs>
        <path id="FangSong-30" d="M 1575 4125 
Q 1225 4125 987 3587 
Q 750 3050 750 2150 
Q 750 1200 987 675 
Q 1225 150 1575 150 
Q 1950 150 2162 675 
Q 2375 1200 2375 2150 
Q 2375 3050 2175 3587 
Q 1975 4125 1575 4125 
z
M 1575 -50 
Q 1025 -50 650 525 
Q 275 1100 275 2150 
Q 275 3125 637 3725 
Q 1000 4325 1575 4325 
Q 2125 4325 2487 3750 
Q 2850 3175 2850 2150 
Q 2850 1125 2487 537 
Q 2125 -50 1575 -50 
z
" transform="scale(0.015625)"/>
       </defs>
       <use xlink:href="#FangSong-30"/>
      </g>
     </g>
    </g>
    <g id="xtick_2">
     <g id="line2d_2">
      <g>
       <use xlink:href="#m413fd33088" x="121.890144" y="307.584" style="stroke: #000000; stroke-width: 0.8"/>
      </g>
     </g>
     <g id="text_2">
      <!-- 10 -->
      <g transform="translate(116.890144 321.576187) scale(0.1 -0.1)">
       <defs>
        <path id="FangSong-31" d="M 1800 4350 
L 1800 550 
Q 1800 350 1925 250 
Q 2050 150 2275 150 
L 2525 150 
L 2525 0 
L 700 0 
L 700 150 
L 925 150 
Q 1175 150 1287 250 
Q 1400 350 1400 550 
L 1400 3575 
Q 1400 3675 1337 3737 
Q 1275 3800 1150 3800 
L 700 3800 
L 700 3950 
L 925 3950 
Q 1225 3950 1412 4050 
Q 1600 4150 1700 4350 
L 1800 4350 
z
" transform="scale(0.015625)"/>
       </defs>
       <use xlink:href="#FangSong-31"/>
       <use xlink:href="#FangSong-30" x="50"/>
      </g>
     </g>
    </g>
    <g id="xtick_3">
     <g id="line2d_3">
      <g>
       <use xlink:href="#m413fd33088" x="175.287273" y="307.584" style="stroke: #000000; stroke-width: 0.8"/>
      </g>
     </g>
     <g id="text_3">
      <!-- 20 -->
      <g transform="translate(170.287273 321.576187) scale(0.1 -0.1)">
       <defs>
        <path id="FangSong-32" d="M 2300 3225 
Q 2300 3675 2100 3912 
Q 1900 4150 1500 4150 
Q 1200 4150 987 3987 
Q 775 3825 775 3575 
Q 775 3425 862 3325 
Q 950 3225 950 3125 
Q 950 3000 887 2937 
Q 825 2875 700 2875 
Q 550 2875 462 2962 
Q 375 3050 375 3250 
Q 375 3775 750 4050 
Q 1125 4325 1550 4325 
Q 2150 4325 2437 4025 
Q 2725 3725 2725 3275 
Q 2725 2975 2587 2675 
Q 2450 2375 2150 2100 
Q 1425 1400 1037 962 
Q 650 525 575 375 
L 2050 375 
Q 2275 375 2425 550 
Q 2575 725 2625 1075 
L 2775 1075 
L 2625 0 
L 300 0 
L 300 325 
Q 425 550 712 900 
Q 1000 1250 1475 1725 
Q 1900 2150 2100 2525 
Q 2300 2900 2300 3225 
z
" transform="scale(0.015625)"/>
       </defs>
       <use xlink:href="#FangSong-32"/>
       <use xlink:href="#FangSong-30" x="50"/>
      </g>
     </g>
    </g>
    <g id="xtick_4">
     <g id="line2d_4">
      <g>
       <use xlink:href="#m413fd33088" x="228.684402" y="307.584" style="stroke: #000000; stroke-width: 0.8"/>
      </g>
     </g>
     <g id="text_4">
      <!-- 30 -->
      <g transform="translate(223.684402 321.576187) scale(0.1 -0.1)">
       <defs>
        <path id="FangSong-33" d="M 2775 1150 
Q 2775 675 2425 312 
Q 2075 -50 1450 -50 
Q 1000 -50 675 200 
Q 350 450 350 775 
Q 350 925 450 1037 
Q 550 1150 650 1150 
Q 800 1150 862 1037 
Q 925 925 925 850 
Q 925 725 875 637 
Q 825 550 825 475 
Q 825 325 1012 225 
Q 1200 125 1425 125 
Q 1875 125 2100 387 
Q 2325 650 2325 1200 
Q 2325 1650 2087 1925 
Q 1850 2200 1200 2200 
L 1200 2375 
Q 1700 2375 1937 2612 
Q 2175 2850 2175 3275 
Q 2175 3625 1987 3887 
Q 1800 4150 1400 4150 
Q 1225 4150 1025 4062 
Q 825 3975 825 3775 
Q 825 3575 875 3525 
Q 925 3475 925 3400 
Q 925 3275 875 3200 
Q 825 3125 700 3125 
Q 600 3125 512 3200 
Q 425 3275 425 3475 
Q 425 3850 750 4087 
Q 1075 4325 1500 4325 
Q 2000 4325 2300 4012 
Q 2600 3700 2600 3350 
Q 2600 2975 2412 2712 
Q 2225 2450 1825 2325 
Q 2375 2125 2575 1800 
Q 2775 1475 2775 1150 
z
" transform="scale(0.015625)"/>
       </defs>
       <use xlink:href="#FangSong-33"/>
       <use xlink:href="#FangSong-30" x="50"/>
      </g>
     </g>
    </g>
    <g id="xtick_5">
     <g id="line2d_5">
      <g>
       <use xlink:href="#m413fd33088" x="282.081531" y="307.584" style="stroke: #000000; stroke-width: 0.8"/>
      </g>
     </g>
     <g id="text_5">
      <!-- 40 -->
      <g transform="translate(277.081531 321.576187) scale(0.1 -0.1)">
       <defs>
        <path id="FangSong-34" d="M 2275 475 
Q 2275 300 2375 225 
Q 2475 150 2650 150 
L 2875 150 
L 2875 0 
L 1225 0 
L 1225 150 
L 1500 150 
Q 1700 150 1787 225 
Q 1875 300 1875 475 
L 1875 1300 
L 200 1300 
L 200 1425 
L 2025 4325 
L 2275 4325 
L 2275 1450 
L 2950 1450 
L 2950 1300 
L 2275 1300 
L 2275 475 
z
M 1850 3700 
L 425 1450 
L 1875 1450 
L 1875 3700 
L 1850 3700 
z
" transform="scale(0.015625)"/>
       </defs>
       <use xlink:href="#FangSong-34"/>
       <use xlink:href="#FangSong-30" x="50"/>
      </g>
     </g>
    </g>
    <g id="xtick_6">
     <g id="line2d_6">
      <g>
       <use xlink:href="#m413fd33088" x="335.47866" y="307.584" style="stroke: #000000; stroke-width: 0.8"/>
      </g>
     </g>
     <g id="text_6">
      <!-- 50 -->
      <g transform="translate(330.47866 321.576187) scale(0.1 -0.1)">
       <defs>
        <path id="FangSong-35" d="M 1700 2750 
Q 2175 2750 2475 2387 
Q 2775 2025 2775 1425 
Q 2775 750 2462 350 
Q 2150 -50 1500 -50 
Q 1050 -50 700 212 
Q 350 475 350 850 
Q 350 1000 437 1112 
Q 525 1225 675 1225 
Q 825 1225 875 1125 
Q 925 1025 925 950 
Q 925 800 850 712 
Q 775 625 775 525 
Q 775 325 1012 225 
Q 1250 125 1525 125 
Q 1925 125 2137 450 
Q 2350 775 2350 1375 
Q 2350 1875 2162 2187 
Q 1975 2500 1600 2500 
Q 1325 2500 1125 2400 
Q 925 2300 750 1975 
L 525 2000 
L 650 4275 
L 2700 4275 
L 2625 3900 
L 825 3900 
L 725 2250 
Q 975 2600 1212 2675 
Q 1450 2750 1700 2750 
z
" transform="scale(0.015625)"/>
       </defs>
       <use xlink:href="#FangSong-35"/>
       <use xlink:href="#FangSong-30" x="50"/>
      </g>
     </g>
    </g>
    <g id="xtick_7">
     <g id="line2d_7">
      <g>
       <use xlink:href="#m413fd33088" x="388.875789" y="307.584" style="stroke: #000000; stroke-width: 0.8"/>
      </g>
     </g>
     <g id="text_7">
      <!-- 60 -->
      <g transform="translate(383.875789 321.576187) scale(0.1 -0.1)">
       <defs>
        <path id="FangSong-36" d="M 750 1700 
Q 750 950 1012 537 
Q 1275 125 1650 125 
Q 2025 125 2225 400 
Q 2425 675 2425 1425 
Q 2425 1925 2212 2200 
Q 2000 2475 1700 2475 
Q 1425 2475 1187 2312 
Q 950 2150 750 1700 
z
M 1725 2725 
Q 2325 2725 2587 2325 
Q 2850 1925 2850 1425 
Q 2850 675 2487 312 
Q 2125 -50 1650 -50 
Q 975 -50 625 462 
Q 275 975 275 1950 
Q 275 3100 700 3712 
Q 1125 4325 1850 4325 
Q 2200 4325 2412 4125 
Q 2625 3925 2625 3775 
Q 2625 3625 2562 3550 
Q 2500 3475 2350 3475 
Q 2225 3475 2162 3537 
Q 2100 3600 2100 3725 
Q 2100 3775 2112 3825 
Q 2125 3875 2125 3925 
Q 2125 4025 2050 4087 
Q 1975 4150 1775 4150 
Q 1350 4150 1050 3762 
Q 750 3375 750 2075 
Q 900 2400 1162 2562 
Q 1425 2725 1725 2725 
z
" transform="scale(0.015625)"/>
       </defs>
       <use xlink:href="#FangSong-36"/>
       <use xlink:href="#FangSong-30" x="50"/>
      </g>
     </g>
    </g>
    <g id="text_8">
     <!-- Latency -->
     <g transform="translate(218.66 333.974625) scale(0.1 -0.1)">
      <defs>
       <path id="FangSong-4c" d="M 975 350 
Q 975 250 1037 200 
Q 1100 150 1200 150 
L 1875 150 
Q 2225 150 2475 362 
Q 2725 575 2850 1025 
L 2975 975 
L 2750 0 
L 175 0 
L 175 150 
L 350 150 
Q 475 150 525 200 
Q 575 250 575 350 
L 575 3925 
Q 575 4025 525 4075 
Q 475 4125 350 4125 
L 200 4125 
L 200 4275 
L 1375 4275 
L 1375 4125 
L 1200 4125 
Q 1100 4125 1037 4075 
Q 975 4025 975 3925 
L 975 350 
z
" transform="scale(0.015625)"/>
       <path id="FangSong-61" d="M 1200 -25 
Q 750 -25 500 187 
Q 250 400 250 675 
Q 250 1125 637 1412 
Q 1025 1700 2175 1825 
L 2175 2125 
Q 2175 2375 2062 2537 
Q 1950 2700 1550 2700 
Q 1125 2700 950 2562 
Q 775 2425 825 2275 
Q 875 2175 825 2075 
Q 775 1975 625 1975 
Q 525 1975 462 2037 
Q 400 2100 400 2225 
Q 400 2450 725 2650 
Q 1050 2850 1525 2850 
Q 2025 2850 2275 2662 
Q 2525 2475 2525 2125 
L 2525 475 
Q 2525 275 2562 237 
Q 2600 200 2700 200 
Q 2825 200 2875 312 
Q 2925 425 2925 625 
L 3050 625 
Q 3050 275 2925 137 
Q 2800 0 2600 0 
Q 2425 0 2325 75 
Q 2225 150 2175 325 
Q 1925 150 1712 62 
Q 1500 -25 1200 -25 
z
M 675 750 
Q 675 525 812 337 
Q 950 150 1250 150 
Q 1475 150 1700 237 
Q 1925 325 2175 500 
L 2175 1675 
Q 1325 1575 1000 1337 
Q 675 1100 675 750 
z
" transform="scale(0.015625)"/>
       <path id="FangSong-74" d="M 1475 800 
Q 1475 450 1600 325 
Q 1725 200 1975 200 
Q 2225 200 2375 362 
Q 2525 525 2575 825 
L 2700 775 
Q 2650 425 2437 200 
Q 2225 -25 1875 -25 
Q 1500 -25 1312 200 
Q 1125 425 1125 900 
L 1125 2650 
L 375 2650 
L 375 2800 
L 575 2800 
Q 875 2800 1062 2987 
Q 1250 3175 1300 3575 
L 1325 3775 
L 1475 3775 
L 1475 2800 
L 2475 2800 
L 2475 2650 
L 1475 2650 
L 1475 800 
z
" transform="scale(0.015625)"/>
       <path id="FangSong-65" d="M 2375 1550 
Q 2400 2100 2187 2387 
Q 1975 2675 1625 2675 
Q 1250 2675 1012 2375 
Q 775 2075 775 1550 
L 2375 1550 
z
M 775 1400 
Q 775 725 1037 437 
Q 1300 150 1725 150 
Q 2050 150 2275 337 
Q 2500 525 2600 800 
L 2725 750 
Q 2650 475 2387 212 
Q 2125 -50 1675 -50 
Q 1100 -50 737 325 
Q 375 700 375 1400 
Q 375 2025 737 2437 
Q 1100 2850 1625 2850 
Q 2100 2850 2450 2525 
Q 2800 2200 2800 1400 
L 775 1400 
z
" transform="scale(0.015625)"/>
       <path id="FangSong-6e" d="M 175 0 
L 175 150 
L 300 150 
Q 425 150 475 200 
Q 525 250 525 350 
L 525 2500 
Q 525 2575 500 2612 
Q 475 2650 400 2650 
L 200 2650 
L 200 2800 
L 375 2800 
Q 500 2800 612 2825 
Q 725 2850 825 2925 
L 875 2925 
L 875 2350 
Q 1100 2600 1325 2725 
Q 1550 2850 1800 2850 
Q 2225 2850 2425 2625 
Q 2625 2400 2625 1950 
L 2625 350 
Q 2625 250 2687 200 
Q 2750 150 2850 150 
L 2975 150 
L 2975 0 
L 1925 0 
L 1925 150 
L 2050 150 
Q 2175 150 2225 200 
Q 2275 250 2275 350 
L 2275 2025 
Q 2275 2325 2150 2487 
Q 2025 2650 1775 2650 
Q 1550 2650 1312 2500 
Q 1075 2350 875 2075 
L 875 350 
Q 875 250 937 200 
Q 1000 150 1100 150 
L 1225 150 
L 1225 0 
L 175 0 
z
" transform="scale(0.015625)"/>
       <path id="FangSong-63" d="M 2125 2125 
Q 2125 2200 2137 2225 
Q 2150 2250 2175 2325 
Q 2200 2425 2075 2562 
Q 1950 2700 1650 2700 
Q 1275 2700 1012 2337 
Q 750 1975 750 1375 
Q 750 825 975 487 
Q 1200 150 1725 150 
Q 2075 150 2312 375 
Q 2550 600 2650 900 
L 2775 850 
Q 2675 475 2400 212 
Q 2125 -50 1650 -50 
Q 1050 -50 700 325 
Q 350 700 350 1400 
Q 350 2025 725 2437 
Q 1100 2850 1700 2850 
Q 2125 2850 2362 2625 
Q 2600 2400 2600 2175 
Q 2600 2025 2537 1962 
Q 2475 1900 2350 1900 
Q 2250 1900 2187 1962 
Q 2125 2025 2125 2125 
z
" transform="scale(0.015625)"/>
       <path id="FangSong-79" d="M 1625 700 
L 1675 700 
L 2225 2375 
Q 2275 2500 2212 2575 
Q 2150 2650 2050 2650 
L 1900 2650 
L 1900 2800 
L 2950 2800 
L 2950 2650 
L 2800 2650 
Q 2700 2650 2600 2575 
Q 2500 2500 2450 2375 
L 1600 -100 
Q 1475 -500 1287 -712 
Q 1100 -925 800 -950 
Q 650 -950 537 -875 
Q 425 -800 425 -675 
Q 425 -575 487 -500 
Q 550 -425 675 -425 
Q 775 -425 837 -525 
Q 900 -625 1050 -587 
Q 1200 -550 1250 -425 
Q 1300 -350 1375 -162 
Q 1450 25 1500 225 
L 650 2425 
Q 625 2525 537 2587 
Q 450 2650 350 2650 
L 250 2650 
L 250 2800 
L 1300 2800 
L 1300 2650 
L 1200 2650 
Q 1100 2650 1050 2587 
Q 1000 2525 1025 2400 
L 1625 700 
z
" transform="scale(0.015625)"/>
      </defs>
      <use xlink:href="#FangSong-4c"/>
      <use xlink:href="#FangSong-61" x="50"/>
      <use xlink:href="#FangSong-74" x="100"/>
      <use xlink:href="#FangSong-65" x="150"/>
      <use xlink:href="#FangSong-6e" x="200"/>
      <use xlink:href="#FangSong-63" x="250"/>
      <use xlink:href="#FangSong-79" x="300"/>
     </g>
    </g>
   </g>
   <g id="matplotlib.axis_2">
    <g id="ytick_1">
     <g id="line2d_8">
      <defs>
       <path id="ma502f6f55b" d="M 0 0 
L -3.5 0 
" style="stroke: #000000; stroke-width: 0.8"/>
      </defs>
      <g>
       <use xlink:href="#ma502f6f55b" x="57.6" y="295.488" style="stroke: #000000; stroke-width: 0.8"/>
      </g>
     </g>
     <g id="text_9">
      <!-- 0% -->
      <g transform="translate(40.6 298.984094) scale(0.1 -0.1)">
       <defs>
        <path id="FangSong-25" d="M 725 4150 
Q 575 4150 475 3950 
Q 375 3750 375 3200 
Q 375 2575 487 2387 
Q 600 2200 725 2200 
Q 900 2200 987 2425 
Q 1075 2650 1075 3200 
Q 1075 3650 1012 3900 
Q 950 4150 725 4150 
z
M 1400 3175 
Q 1400 2725 1250 2387 
Q 1100 2050 725 2050 
Q 425 2050 237 2350 
Q 50 2650 50 3175 
Q 50 3725 250 4025 
Q 450 4325 725 4325 
Q 1025 4325 1212 4012 
Q 1400 3700 1400 3175 
z
M 2700 1100 
Q 2700 1525 2625 1800 
Q 2550 2075 2350 2075 
Q 2200 2075 2100 1837 
Q 2000 1600 2000 1100 
Q 2000 475 2112 300 
Q 2225 125 2350 125 
Q 2525 125 2612 337 
Q 2700 550 2700 1100 
z
M 3025 1075 
Q 3025 575 2850 262 
Q 2675 -50 2350 -50 
Q 2075 -50 1875 262 
Q 1675 575 1675 1075 
Q 1675 1625 1875 1937 
Q 2075 2250 2350 2250 
Q 2650 2250 2837 1925 
Q 3025 1600 3025 1075 
z
M 2500 4250 
L 700 -50 
L 550 25 
L 2325 4325 
L 2500 4250 
z
" transform="scale(0.015625)"/>
       </defs>
       <use xlink:href="#FangSong-30"/>
       <use xlink:href="#FangSong-25" x="50"/>
      </g>
     </g>
    </g>
    <g id="ytick_2">
     <g id="line2d_9">
      <g>
       <use xlink:href="#ma502f6f55b" x="57.6" y="247.104" style="stroke: #000000; stroke-width: 0.8"/>
      </g>
     </g>
     <g id="text_10">
      <!-- 20% -->
      <g transform="translate(35.6 250.600094) scale(0.1 -0.1)">
       <use xlink:href="#FangSong-32"/>
       <use xlink:href="#FangSong-30" x="50"/>
       <use xlink:href="#FangSong-25" x="100"/>
      </g>
     </g>
    </g>
    <g id="ytick_3">
     <g id="line2d_10">
      <g>
       <use xlink:href="#ma502f6f55b" x="57.6" y="198.72" style="stroke: #000000; stroke-width: 0.8"/>
      </g>
     </g>
     <g id="text_11">
      <!-- 40% -->
      <g transform="translate(35.6 202.216094) scale(0.1 -0.1)">
       <use xlink:href="#FangSong-34"/>
       <use xlink:href="#FangSong-30" x="50"/>
       <use xlink:href="#FangSong-25" x="100"/>
      </g>
     </g>
    </g>
    <g id="ytick_4">
     <g id="line2d_11">
      <g>
       <use xlink:href="#ma502f6f55b" x="57.6" y="150.336" style="stroke: #000000; stroke-width: 0.8"/>
      </g>
     </g>
     <g id="text_12">
      <!-- 60% -->
      <g transform="translate(35.6 153.832094) scale(0.1 -0.1)">
       <use xlink:href="#FangSong-36"/>
       <use xlink:href="#FangSong-30" x="50"/>
       <use xlink:href="#FangSong-25" x="100"/>
      </g>
     </g>
    </g>
    <g id="ytick_5">
     <g id="line2d_12">
      <g>
       <use xlink:href="#ma502f6f55b" x="57.6" y="101.952" style="stroke: #000000; stroke-width: 0.8"/>
      </g>
     </g>
     <g id="text_13">
      <!-- 80% -->
      <g transform="translate(35.6 105.448094) scale(0.1 -0.1)">
       <defs>
        <path id="FangSong-38" d="M 600 1025 
Q 600 625 862 375 
Q 1125 125 1525 125 
Q 2000 125 2212 375 
Q 2425 625 2425 1000 
Q 2425 1325 2125 1625 
Q 1825 1925 1225 2175 
Q 925 1975 762 1675 
Q 600 1375 600 1025 
z
M 2800 1075 
Q 2800 600 2450 275 
Q 2100 -50 1525 -50 
Q 1000 -50 625 275 
Q 250 600 250 1025 
Q 250 1450 462 1750 
Q 675 2050 1075 2275 
Q 725 2450 537 2712 
Q 350 2975 350 3300 
Q 350 3725 675 4025 
Q 1000 4325 1575 4325 
Q 2100 4325 2425 4025 
Q 2750 3725 2750 3300 
Q 2750 3000 2562 2737 
Q 2375 2475 1975 2275 
Q 2400 2025 2600 1725 
Q 2800 1425 2800 1075 
z
M 2400 3275 
Q 2400 3625 2200 3887 
Q 2000 4150 1575 4150 
Q 1100 4150 900 3900 
Q 700 3650 700 3375 
Q 700 3100 987 2837 
Q 1275 2575 1800 2375 
Q 2100 2525 2250 2750 
Q 2400 2975 2400 3275 
z
" transform="scale(0.015625)"/>
       </defs>
       <use xlink:href="#FangSong-38"/>
       <use xlink:href="#FangSong-30" x="50"/>
       <use xlink:href="#FangSong-25" x="100"/>
      </g>
     </g>
    </g>
    <g id="ytick_6">
     <g id="line2d_13">
      <g>
       <use xlink:href="#ma502f6f55b" x="57.6" y="53.568" style="stroke: #000000; stroke-width: 0.8"/>
      </g>
     </g>
     <g id="text_14">
      <!-- 100% -->
      <g transform="translate(30.6 57.064094) scale(0.1 -0.1)">
       <use xlink:href="#FangSong-31"/>
       <use xlink:href="#FangSong-30" x="50"/>
       <use xlink:href="#FangSong-30" x="100"/>
       <use xlink:href="#FangSong-25" x="150"/>
      </g>
     </g>
    </g>
    <g id="text_15">
     <!-- 累计完成比例 -->
     <g transform="translate(25.154688 204.528) rotate(-90) scale(0.1 -0.1)">
      <defs>
       <path id="FangSong-7d2f" d="M 4525 4975 
L 4700 5225 
L 5000 4950 
L 4825 4775 
L 4625 3550 
L 4850 3300 
L 3175 3150 
L 3375 2975 
Q 3200 2925 2862 2725 
Q 2525 2525 2075 2275 
L 3475 2500 
Q 3750 2675 3900 2800 
Q 4050 2925 4100 3075 
L 4175 3100 
L 4325 2700 
Q 4200 2675 3500 2237 
Q 2800 1800 2275 1550 
L 4375 1825 
L 3900 2175 
L 4000 2275 
Q 4625 1900 4950 1725 
Q 4975 1475 4925 1225 
Q 4800 1375 4500 1675 
L 3250 1475 
L 3525 1300 
Q 3375 1200 3375 875 
L 3375 25 
Q 3375 -325 3225 -625 
Q 2975 -325 2400 150 
L 2450 250 
L 3050 -75 
Q 3150 -125 3150 0 
L 3150 925 
Q 3150 1300 3125 1450 
Q 1875 1275 1575 1175 
L 1325 1425 
L 1850 1550 
Q 2175 1700 3250 2300 
Q 2075 2100 1875 2000 
L 1575 2250 
L 1800 2300 
Q 2150 2475 3025 3125 
L 2000 3025 
Q 2000 2675 1950 2700 
Q 1900 2725 1650 3025 
Q 1725 3250 1725 3425 
L 1650 4400 
Q 1625 4675 1525 4950 
L 1625 5000 
L 1875 4675 
L 4525 4975 
z
M 3150 3375 
L 3150 3875 
Q 2525 3800 2400 3725 
L 2100 3975 
Q 2500 3975 3150 4075 
L 3150 4600 
L 1900 4450 
L 1975 3250 
L 3150 3375 
z
M 3375 4100 
Q 3950 4175 4025 4225 
L 4275 4000 
Q 3950 3975 3375 3900 
L 3375 3400 
L 4400 3500 
L 4575 4750 
L 3375 4600 
L 3375 4100 
z
M 5450 -75 
Q 4975 325 3875 1025 
L 3950 1125 
Q 4850 700 5350 500 
Q 5425 250 5450 -75 
z
M 800 -250 
Q 1350 75 1825 500 
Q 2300 925 2325 1125 
L 2400 1150 
L 2550 725 
Q 2425 700 2075 425 
Q 1725 150 875 -350 
L 800 -250 
z
" transform="scale(0.015625)"/>
       <path id="FangSong-8ba1" d="M 4075 4200 
Q 4100 4825 3900 5100 
L 3975 5150 
L 4450 4725 
Q 4275 4600 4300 4200 
L 4275 3000 
Q 5525 3200 5575 3250 
L 5950 2950 
Q 5725 2975 4275 2800 
L 4250 -425 
Q 4250 -700 4150 -575 
L 3875 -150 
Q 4050 50 4025 300 
L 4050 2750 
Q 2975 2625 2900 2575 
L 2525 2825 
Q 2850 2825 4050 2975 
L 4075 4200 
z
M 1775 3250 
L 2100 2950 
L 1900 2750 
L 1875 550 
L 2825 1250 
L 2875 1175 
Q 1875 250 1750 -25 
L 1525 275 
Q 1625 375 1650 625 
L 1675 2775 
Q 900 2625 750 2550 
L 425 2800 
Q 850 2825 1650 3000 
L 1775 3250 
z
M 2025 3800 
Q 1825 4300 1325 4950 
L 1375 5025 
Q 1925 4575 2175 4300 
Q 2125 4000 2025 3800 
z
" transform="scale(0.015625)"/>
       <path id="FangSong-5b8c" d="M 5375 2050 
Q 4925 2050 3550 1950 
L 3850 1750 
Q 3725 1600 3700 1375 
L 3675 275 
Q 3650 -125 4075 -175 
L 4925 -175 
Q 5300 -150 5312 62 
Q 5325 275 5325 1025 
L 5425 1025 
Q 5450 750 5475 337 
Q 5500 -75 5700 -275 
Q 5400 -375 5000 -400 
L 4075 -400 
Q 3425 -350 3425 150 
L 3475 1450 
Q 3475 1775 3425 1925 
L 2675 1850 
L 2875 1650 
Q 2750 1550 2600 1200 
Q 2450 850 2025 312 
Q 1600 -225 600 -675 
L 550 -575 
Q 1525 -100 1987 625 
Q 2450 1350 2525 1850 
Q 1550 1775 1500 1725 
L 1150 2025 
Q 1625 2025 3212 2150 
Q 4800 2275 5000 2350 
L 5375 2050 
z
M 1650 3650 
Q 1550 3125 1325 2875 
L 1150 3250 
Q 1450 3425 1575 4400 
L 1675 4400 
L 1675 3900 
L 5025 4150 
L 5175 4400 
L 5525 4075 
Q 5375 4050 4725 3250 
L 4650 3325 
L 4975 3900 
L 1650 3650 
z
M 4475 2975 
Q 4225 2975 3412 2875 
Q 2600 2775 2400 2725 
L 2050 2975 
Q 2575 2975 3200 3075 
Q 3825 3175 4150 3225 
L 4475 2975 
z
M 3550 4575 
Q 3475 4350 3300 4150 
Q 3225 4475 2900 5200 
L 2975 5250 
Q 3350 4825 3550 4575 
z
" transform="scale(0.015625)"/>
       <path id="FangSong-6210" d="M 5575 975 
Q 5600 -150 5750 -625 
Q 4650 -225 4000 1075 
Q 3625 650 2975 225 
L 2925 325 
Q 3525 825 3900 1300 
Q 3600 2275 3500 3300 
L 1875 3125 
Q 1875 2625 1825 2100 
L 2725 2250 
L 2875 2475 
L 3175 2225 
L 3000 2050 
Q 2850 475 2575 -125 
Q 2225 400 1825 775 
L 1875 850 
L 2475 400 
Q 2650 875 2750 2000 
L 1825 1850 
Q 1675 250 600 -650 
L 525 -600 
Q 1250 250 1425 987 
Q 1600 1725 1625 2612 
Q 1650 3500 1550 3800 
L 1625 3825 
L 1850 3350 
L 3450 3525 
Q 3400 4150 3375 4562 
Q 3350 4975 3225 5200 
L 3275 5225 
L 3725 4900 
Q 3625 4925 3637 4575 
Q 3650 4225 3675 3550 
Q 4900 3700 5050 3775 
L 5325 3475 
Q 4775 3475 3725 3325 
Q 3775 2425 4075 1525 
Q 4500 2025 4687 2325 
Q 4875 2625 4800 2850 
L 4875 2875 
L 5125 2325 
Q 5075 2400 4850 2125 
Q 4625 1850 4150 1275 
Q 4625 225 5425 -125 
L 5475 975 
L 5575 975 
z
M 4100 5000 
Q 4525 4700 4875 4450 
Q 4825 4250 4750 4025 
Q 4400 4525 4025 4950 
L 4100 5000 
z
" transform="scale(0.015625)"/>
       <path id="FangSong-6bd4" d="M 3500 2125 
Q 3925 2425 4487 2975 
Q 5050 3525 4950 3750 
L 5025 3775 
L 5250 3225 
Q 5175 3250 4875 3000 
Q 4575 2750 4287 2525 
Q 4000 2300 3500 1900 
L 3500 575 
Q 3475 -100 4150 -100 
L 4800 -100 
Q 5275 -100 5375 12 
Q 5475 125 5450 1350 
L 5575 1350 
Q 5600 825 5637 412 
Q 5675 0 5800 -175 
Q 5375 -325 4800 -325 
L 4150 -325 
Q 3225 -350 3275 550 
L 3275 4300 
Q 3275 4875 3150 5150 
L 3200 5200 
L 3625 4850 
Q 3475 4825 3500 4250 
L 3500 2125 
z
M 1500 2575 
Q 1900 2625 2337 2712 
Q 2775 2800 2800 2850 
L 3075 2600 
Q 2875 2575 2350 2475 
Q 1825 2375 1775 2325 
L 1500 2525 
L 1500 150 
L 2925 1075 
L 2975 1025 
Q 1550 -75 1375 -350 
L 1200 0 
Q 1275 75 1275 350 
L 1275 3925 
Q 1275 4475 1150 4750 
L 1200 4800 
L 1625 4400 
Q 1475 4375 1500 3925 
L 1500 2575 
z
" transform="scale(0.015625)"/>
       <path id="FangSong-4f8b" d="M 3050 2000 
Q 3025 1800 2975 1600 
Q 2775 1900 2525 2250 
Q 2300 1875 2025 1550 
L 1925 1625 
Q 2675 2725 2975 3975 
Q 2475 3925 2375 3875 
L 2050 4125 
Q 2375 4125 3162 4225 
Q 3950 4325 4100 4450 
L 4350 4125 
Q 4050 4150 3100 3975 
L 3300 3700 
Q 3200 3675 3125 3525 
Q 3050 3375 2925 3050 
L 3625 3150 
L 3775 3350 
L 4050 3075 
L 3875 2900 
Q 3300 825 1850 -225 
L 1800 -100 
Q 3100 975 3625 2900 
Q 3150 2825 3025 2775 
L 2875 2925 
Q 2775 2675 2575 2350 
Q 2900 2125 3050 2000 
z
M 1275 -150 
Q 1425 25 1400 225 
L 1450 3425 
Q 1025 2800 475 2225 
L 400 2325 
Q 875 2850 1450 3887 
Q 2025 4925 1925 5150 
L 2000 5175 
L 2250 4700 
Q 2200 4725 2062 4475 
Q 1925 4225 1675 3800 
L 1625 -325 
Q 1650 -675 1525 -600 
L 1275 -150 
z
M 5475 250 
Q 5475 -300 5300 -650 
Q 4900 -100 4300 375 
L 4350 475 
L 5200 -75 
Q 5250 250 5250 575 
L 5250 4350 
Q 5275 4950 5100 5150 
L 5175 5225 
L 5600 4850 
Q 5450 4775 5475 4325 
L 5475 250 
z
M 4300 1525 
Q 4400 1650 4400 1900 
L 4400 3075 
Q 4425 3525 4300 3750 
L 4350 3800 
L 4725 3450 
Q 4600 3350 4625 3025 
L 4625 1375 
Q 4625 1050 4550 1125 
L 4300 1525 
z
" transform="scale(0.015625)"/>
      </defs>
      <use xlink:href="#FangSong-7d2f"/>
      <use xlink:href="#FangSong-8ba1" x="100"/>
      <use xlink:href="#FangSong-5b8c" x="200"/>
      <use xlink:href="#FangSong-6210" x="300"/>
      <use xlink:href="#FangSong-6bd4" x="400"/>
      <use xlink:href="#FangSong-4f8b" x="500"/>
     </g>
    </g>
   </g>
   <g id="line2d_14">
    <path d="M 73.832727 295.488 
L 74.366699 180.576 
L 74.90067 180.576 
L 75.968612 180.09216 
L 76.502584 180.09216 
L 77.036555 179.85024 
L 79.17244 179.85024 
L 79.706411 179.60832 
L 80.240383 179.12448 
L 80.774354 178.88256 
L 81.308325 178.88256 
L 81.842297 178.39872 
L 82.910239 177.91488 
L 83.444211 177.18912 
L 83.978182 177.18912 
L 84.512153 176.46336 
L 85.046124 176.46336 
L 86.114067 175.97952 
L 86.648038 175.97952 
L 87.18201 175.7376 
L 88.249952 174.28608 
L 88.783923 174.04416 
L 89.317895 173.3184 
L 90.919809 172.59264 
L 92.521722 169.20576 
L 93.055694 168.72192 
L 93.589665 167.99616 
L 94.123636 167.75424 
L 95.191579 166.78656 
L 95.72555 165.81888 
L 96.259522 164.60928 
L 97.861435 163.15776 
L 98.395407 162.19008 
L 98.929378 161.70624 
L 99.463349 161.70624 
L 99.997321 161.2224 
L 100.531292 161.2224 
L 101.065263 160.49664 
L 101.599234 160.49664 
L 102.133206 159.28704 
L 102.667177 158.56128 
L 103.201148 157.5936 
L 103.73512 157.10976 
L 104.269091 156.86784 
L 104.803062 156.14208 
L 105.337033 155.90016 
L 105.871005 154.69056 
L 106.938947 153.72288 
L 107.472919 152.7552 
L 108.00689 151.5456 
L 108.540861 150.81984 
L 109.608804 150.336 
L 110.142775 149.85216 
L 110.676746 148.15872 
L 111.744689 147.19104 
L 112.27866 146.94912 
L 113.346603 145.4976 
L 113.880574 145.01376 
L 114.414545 145.01376 
L 114.948517 144.52992 
L 116.016459 144.04608 
L 116.550431 144.04608 
L 117.618373 143.0784 
L 118.152344 142.35264 
L 118.686316 142.35264 
L 119.220287 142.11072 
L 119.754258 142.11072 
L 120.822201 141.14304 
L 121.356172 140.41728 
L 121.890144 138.48192 
L 122.958086 137.51424 
L 123.492057 136.78848 
L 124.026029 136.78848 
L 124.56 135.8208 
L 125.093971 135.33696 
L 125.627943 134.36928 
L 126.161914 133.88544 
L 126.695885 133.15968 
L 127.229856 133.15968 
L 127.763828 132.91776 
L 128.297799 132.192 
L 129.365742 132.192 
L 130.433684 131.70816 
L 131.501627 131.70816 
L 132.569569 131.22432 
L 133.103541 131.22432 
L 134.705455 130.49856 
L 135.239426 130.49856 
L 135.773397 130.25664 
L 136.84134 129.28896 
L 137.375311 129.28896 
L 137.909282 128.80512 
L 138.443254 128.80512 
L 138.977225 128.5632 
L 139.511196 128.07936 
L 140.579139 127.59552 
L 141.647081 127.59552 
L 142.181053 127.11168 
L 143.782967 127.11168 
L 144.316938 126.86976 
L 144.850909 125.90208 
L 145.38488 125.90208 
L 146.986794 124.45056 
L 147.520766 124.45056 
L 148.054737 123.7248 
L 149.656651 123.7248 
L 150.190622 122.75712 
L 151.258565 121.78944 
L 151.792536 121.54752 
L 152.326507 121.54752 
L 153.39445 120.57984 
L 153.928421 120.57984 
L 154.462392 119.61216 
L 155.530335 119.61216 
L 156.064306 119.12832 
L 156.598278 119.12832 
L 157.132249 118.8864 
L 157.66622 118.8864 
L 158.734163 118.40256 
L 159.268134 118.40256 
L 159.802105 118.16064 
L 161.404019 118.16064 
L 161.93799 117.91872 
L 162.471962 117.43488 
L 163.005933 117.43488 
L 163.539904 117.19296 
L 165.141818 115.74144 
L 165.675789 115.49952 
L 166.209761 114.53184 
L 167.277703 113.56416 
L 167.811675 113.56416 
L 168.345646 113.08032 
L 168.879617 112.8384 
L 169.413589 112.11264 
L 169.94756 111.6288 
L 170.481531 111.6288 
L 171.015502 111.38688 
L 171.549474 109.93536 
L 172.617416 109.45152 
L 173.151388 108.48384 
L 174.21933 108 
L 174.753301 107.27424 
L 175.821244 106.7904 
L 176.355215 105.82272 
L 177.423158 104.85504 
L 178.4911 104.3712 
L 179.559043 103.40352 
L 180.093014 103.40352 
L 180.626986 103.1616 
L 181.160957 103.1616 
L 181.694928 102.91968 
L 183.296842 102.91968 
L 183.830813 102.67776 
L 185.432727 102.67776 
L 185.966699 102.43584 
L 186.50067 101.952 
L 188.636555 101.952 
L 190.238469 101.22624 
L 191.306411 100.25856 
L 192.374354 100.25856 
L 192.908325 100.01664 
L 193.442297 100.01664 
L 193.976268 99.29088 
L 194.510239 99.29088 
L 197.180096 98.08128 
L 198.248038 98.08128 
L 199.849952 97.35552 
L 200.383923 97.35552 
L 200.917895 97.1136 
L 201.451866 96.38784 
L 201.985837 96.38784 
L 202.519809 95.66208 
L 203.05378 95.17824 
L 203.587751 94.93632 
L 204.121722 94.45248 
L 205.189665 94.45248 
L 206.257608 93.4848 
L 206.791579 93.24288 
L 207.32555 92.75904 
L 208.393493 92.75904 
L 208.927464 92.51712 
L 209.461435 92.51712 
L 209.995407 92.2752 
L 211.063349 92.2752 
L 212.665263 91.54944 
L 213.199234 91.54944 
L 213.733206 91.0656 
L 214.801148 90.58176 
L 215.33512 90.58176 
L 216.403062 90.09792 
L 216.937033 90.09792 
L 217.471005 89.856 
L 218.004976 89.856 
L 218.538947 89.61408 
L 219.072919 89.61408 
L 220.674833 88.88832 
L 221.208804 88.40448 
L 222.276746 87.92064 
L 222.810718 87.92064 
L 223.87866 87.4368 
L 226.548517 87.4368 
L 227.082488 86.95296 
L 227.616459 86.71104 
L 228.150431 86.71104 
L 228.684402 86.46912 
L 229.218373 85.98528 
L 229.752344 85.74336 
L 231.354258 85.74336 
L 231.88823 85.50144 
L 232.422201 84.77568 
L 232.956172 84.29184 
L 233.490144 84.04992 
L 236.693971 84.04992 
L 238.295885 83.32416 
L 238.829856 83.32416 
L 239.363828 83.08224 
L 239.897799 83.08224 
L 240.43177 82.84032 
L 242.033684 82.84032 
L 242.567656 82.5984 
L 243.635598 81.63072 
L 244.169569 81.3888 
L 246.839426 81.3888 
L 247.373397 81.14688 
L 247.907368 81.14688 
L 248.44134 80.90496 
L 248.975311 80.90496 
L 249.509282 80.66304 
L 250.043254 80.66304 
L 252.179139 79.69536 
L 252.71311 79.69536 
L 253.247081 79.21152 
L 253.781053 78.9696 
L 254.315024 78.9696 
L 254.848995 78.72768 
L 255.916938 78.72768 
L 256.98488 78.24384 
L 257.518852 77.76 
L 258.586794 76.30848 
L 259.120766 75.82464 
L 260.722679 75.09888 
L 263.392536 75.09888 
L 264.99445 74.37312 
L 265.528421 74.37312 
L 266.062392 74.1312 
L 267.130335 74.1312 
L 267.664306 73.88928 
L 268.198278 73.40544 
L 268.732249 72.67968 
L 269.800191 72.67968 
L 270.868134 72.19584 
L 273.004019 72.19584 
L 273.53799 71.95392 
L 274.605933 71.95392 
L 275.139904 71.712 
L 279.411675 71.712 
L 279.945646 71.47008 
L 280.479617 71.47008 
L 282.615502 70.5024 
L 283.683445 70.5024 
L 284.217416 70.26048 
L 284.751388 69.77664 
L 285.285359 69.77664 
L 286.353301 69.2928 
L 286.887273 69.2928 
L 287.421244 69.05088 
L 288.489187 69.05088 
L 289.023158 68.56704 
L 289.557129 68.32512 
L 291.693014 68.32512 
L 292.226986 67.84128 
L 293.8289 67.84128 
L 294.362871 67.11552 
L 295.964785 66.38976 
L 296.498756 66.38976 
L 297.032727 65.90592 
L 297.566699 65.90592 
L 298.10067 65.18016 
L 298.634641 64.93824 
L 301.838469 62.0352 
L 302.906411 62.0352 
L 303.440383 61.55136 
L 303.974354 61.55136 
L 304.508325 61.30944 
L 305.042297 61.30944 
L 305.576268 61.06752 
L 308.246124 61.06752 
L 309.314067 60.58368 
L 309.848038 60.58368 
L 310.38201 60.34176 
L 314.119809 60.34176 
L 314.65378 60.09984 
L 317.857608 60.09984 
L 318.391579 59.85792 
L 321.595407 59.85792 
L 322.129378 59.37408 
L 322.663349 59.13216 
L 324.799234 59.13216 
L 325.333206 58.89024 
L 326.93512 58.89024 
L 327.469091 58.64832 
L 328.003062 58.64832 
L 329.071005 58.16448 
L 333.876746 58.16448 
L 334.410718 57.68064 
L 336.546603 57.68064 
L 337.080574 57.43872 
L 338.148517 57.43872 
L 339.216459 56.47104 
L 339.750431 56.47104 
L 340.284402 56.22912 
L 352.565742 56.22912 
L 353.099713 55.9872 
L 353.633684 55.9872 
L 354.167656 55.74528 
L 376.59445 55.74528 
L 377.128421 55.26144 
L 378.730335 55.26144 
L 379.264306 55.01952 
L 380.332249 55.01952 
L 380.86622 54.7776 
L 385.671962 54.7776 
L 386.205933 54.53568 
L 389.943732 54.53568 
L 391.011675 54.05184 
L 391.545646 54.05184 
L 392.079617 53.80992 
L 397.953301 53.80992 
L 398.487273 53.568 
L 398.487273 53.568 
" clip-path="url(#p21d3b1f378)" style="fill: none; stroke: #ff0000; stroke-linecap: square"/>
   </g>
   <g id="line2d_15">
    <path d="M 73.832727 295.488 
L 74.366699 214.848 
L 85.580096 214.848 
L 86.114067 213.607385 
L 87.715981 213.607385 
L 88.249952 212.366769 
L 88.783923 212.366769 
L 89.317895 209.885538 
L 89.851866 208.644923 
L 90.919809 208.644923 
L 91.45378 207.404308 
L 92.521722 202.441846 
L 93.055694 201.201231 
L 93.589665 201.201231 
L 95.191579 197.479385 
L 96.259522 192.516923 
L 99.463349 192.516923 
L 99.997321 191.276308 
L 100.531292 191.276308 
L 101.065263 190.035692 
L 101.599234 190.035692 
L 102.133206 188.795077 
L 103.201148 188.795077 
L 103.73512 187.554462 
L 105.337033 187.554462 
L 105.871005 185.073231 
L 106.404976 185.073231 
L 106.938947 183.832615 
L 107.472919 181.351385 
L 108.00689 177.629538 
L 108.540861 176.388923 
L 110.142775 176.388923 
L 110.676746 175.148308 
L 112.812632 175.148308 
L 113.880574 172.667077 
L 116.550431 172.667077 
L 117.084402 170.185846 
L 117.618373 170.185846 
L 118.152344 168.945231 
L 118.686316 168.945231 
L 119.220287 167.704615 
L 119.754258 167.704615 
L 120.822201 165.223385 
L 121.356172 165.223385 
L 122.424115 160.260923 
L 123.492057 157.779692 
L 124.026029 157.779692 
L 124.56 156.539077 
L 125.093971 156.539077 
L 126.695885 152.817231 
L 127.763828 152.817231 
L 128.297799 151.576615 
L 132.035598 151.576615 
L 132.569569 150.336 
L 137.375311 150.336 
L 137.909282 149.095385 
L 138.443254 149.095385 
L 138.977225 147.854769 
L 146.452823 147.854769 
L 146.986794 146.614154 
L 150.190622 146.614154 
L 150.724593 145.373538 
L 152.326507 145.373538 
L 152.860478 144.132923 
L 155.530335 144.132923 
L 156.064306 142.892308 
L 161.404019 142.892308 
L 162.471962 140.411077 
L 164.073876 140.411077 
L 164.607847 139.170462 
L 165.141818 136.689231 
L 165.675789 136.689231 
L 166.209761 135.448615 
L 167.277703 130.486154 
L 167.811675 130.486154 
L 168.345646 129.245538 
L 168.879617 129.245538 
L 169.413589 128.004923 
L 171.015502 128.004923 
L 171.549474 124.283077 
L 172.617416 124.283077 
L 173.151388 120.561231 
L 173.685359 119.320615 
L 174.753301 119.320615 
L 175.287273 118.08 
L 175.821244 118.08 
L 176.889187 115.598769 
L 179.025072 115.598769 
L 179.559043 114.358154 
L 180.093014 114.358154 
L 180.626986 113.117538 
L 183.296842 113.117538 
L 183.830813 111.876923 
L 185.966699 111.876923 
L 186.50067 110.636308 
L 188.636555 110.636308 
L 189.170526 109.395692 
L 190.238469 109.395692 
L 191.306411 106.914462 
L 193.442297 106.914462 
L 193.976268 104.433231 
L 194.510239 104.433231 
L 195.044211 103.192615 
L 195.578182 103.192615 
L 196.646124 100.711385 
L 200.917895 100.711385 
L 201.451866 99.470769 
L 201.985837 99.470769 
L 202.519809 98.230154 
L 205.189665 98.230154 
L 205.723636 96.989538 
L 206.257608 96.989538 
L 206.791579 95.748923 
L 208.393493 95.748923 
L 208.927464 94.508308 
L 213.733206 94.508308 
L 214.267177 93.267692 
L 215.869091 93.267692 
L 216.403062 92.027077 
L 216.937033 92.027077 
L 217.471005 90.786462 
L 223.344689 90.786462 
L 223.87866 89.545846 
L 228.684402 89.545846 
L 229.218373 88.305231 
L 231.354258 88.305231 
L 231.88823 87.064615 
L 242.033684 87.064615 
L 242.567656 85.824 
L 243.101627 83.342769 
L 243.635598 83.342769 
L 244.169569 82.102154 
L 255.916938 82.102154 
L 256.450909 80.861538 
L 257.518852 80.861538 
L 259.120766 77.139692 
L 260.188708 77.139692 
L 260.722679 75.899077 
L 267.664306 75.899077 
L 268.732249 73.417846 
L 280.479617 73.417846 
L 281.013589 72.177231 
L 284.217416 72.177231 
L 284.751388 70.936615 
L 285.81933 70.936615 
L 286.353301 69.696 
L 288.489187 69.696 
L 289.557129 67.214769 
L 291.693014 67.214769 
L 292.226986 65.974154 
L 293.8289 65.974154 
L 294.896842 63.492923 
L 295.430813 63.492923 
L 295.964785 62.252308 
L 296.498756 62.252308 
L 297.032727 61.011692 
L 298.634641 61.011692 
L 299.168612 59.771077 
L 300.770526 59.771077 
L 301.304498 58.530462 
L 302.906411 58.530462 
L 303.440383 57.289846 
L 322.129378 57.289846 
L 322.663349 56.049231 
L 336.546603 56.049231 
L 337.080574 54.808615 
L 339.750431 54.808615 
L 340.284402 53.568 
L 398.487273 53.568 
L 398.487273 53.568 
" clip-path="url(#p21d3b1f378)" style="fill: none; stroke-dasharray: 1.85,0.8; stroke-dashoffset: 0; stroke: #008000; stroke-width: 0.5"/>
   </g>
   <g id="line2d_16">
    <path d="M 73.832727 295.488 
L 74.366699 198.411822 
L 76.502584 198.411822 
L 77.036555 196.87093 
L 82.910239 196.87093 
L 83.444211 195.330038 
L 83.978182 195.330038 
L 84.512153 193.789146 
L 90.919809 193.789146 
L 91.45378 192.248255 
L 93.055694 192.248255 
L 93.589665 190.707363 
L 95.191579 190.707363 
L 96.259522 187.62558 
L 97.327464 187.62558 
L 98.929378 183.002904 
L 99.463349 183.002904 
L 99.997321 181.462013 
L 101.599234 181.462013 
L 102.667177 178.380229 
L 108.540861 178.380229 
L 109.074833 176.839338 
L 110.142775 176.839338 
L 110.676746 175.298446 
L 111.210718 175.298446 
L 111.744689 173.757554 
L 112.27866 173.757554 
L 112.812632 172.216662 
L 114.414545 172.216662 
L 115.482488 169.134879 
L 119.754258 169.134879 
L 120.822201 166.053096 
L 121.356172 166.053096 
L 121.890144 162.971312 
L 122.958086 162.971312 
L 123.492057 161.43042 
L 124.026029 161.43042 
L 124.56 158.348637 
L 126.161914 158.348637 
L 126.695885 156.807745 
L 127.229856 156.807745 
L 128.297799 153.725962 
L 134.171483 153.725962 
L 134.705455 152.18507 
L 135.773397 152.18507 
L 136.84134 149.103287 
L 143.782967 149.103287 
L 144.316938 147.562395 
L 145.38488 147.562395 
L 145.918852 146.021503 
L 147.520766 146.021503 
L 148.054737 144.480611 
L 150.190622 144.480611 
L 150.724593 142.93972 
L 152.326507 142.93972 
L 152.860478 141.398828 
L 153.928421 141.398828 
L 154.462392 139.857936 
L 163.005933 139.857936 
L 163.539904 138.317045 
L 168.879617 138.317045 
L 169.413589 136.776153 
L 172.617416 136.776153 
L 173.151388 135.235261 
L 174.21933 135.235261 
L 174.753301 133.694369 
L 177.957129 133.694369 
L 178.4911 132.153478 
L 185.432727 132.153478 
L 185.966699 130.612586 
L 190.77244 130.612586 
L 191.306411 129.071694 
L 192.374354 129.071694 
L 192.908325 127.530803 
L 198.78201 127.530803 
L 199.315981 125.989911 
L 200.383923 125.989911 
L 201.451866 122.908127 
L 201.985837 122.908127 
L 202.519809 121.367236 
L 203.05378 121.367236 
L 203.587751 119.826344 
L 205.189665 119.826344 
L 205.723636 118.285452 
L 211.597321 118.285452 
L 212.131292 116.744561 
L 215.33512 116.744561 
L 215.869091 115.203669 
L 219.072919 115.203669 
L 219.60689 113.662777 
L 228.150431 113.662777 
L 228.684402 112.121885 
L 231.88823 112.121885 
L 232.422201 110.580994 
L 232.956172 110.580994 
L 233.490144 109.040102 
L 237.227943 109.040102 
L 237.761914 107.49921 
L 243.101627 107.49921 
L 243.635598 105.958318 
L 248.975311 105.958318 
L 249.509282 104.417427 
L 250.577225 104.417427 
L 251.111196 102.876535 
L 252.71311 102.876535 
L 253.247081 101.335643 
L 258.052823 101.335643 
L 258.586794 99.794752 
L 259.654737 99.794752 
L 260.188708 98.25386 
L 265.528421 98.25386 
L 266.062392 96.712968 
L 267.130335 96.712968 
L 268.198278 93.631185 
L 269.800191 93.631185 
L 270.334163 92.090293 
L 273.004019 92.090293 
L 273.53799 90.549401 
L 281.013589 90.549401 
L 282.615502 85.926726 
L 286.887273 85.926726 
L 287.421244 84.385834 
L 288.489187 84.385834 
L 289.023158 82.844943 
L 293.8289 82.844943 
L 294.362871 81.304051 
L 297.566699 81.304051 
L 298.10067 79.763159 
L 298.634641 79.763159 
L 300.236555 75.140484 
L 300.770526 75.140484 
L 301.838469 72.058701 
L 309.848038 72.058701 
L 310.38201 70.517809 
L 321.595407 70.517809 
L 322.129378 68.976917 
L 324.799234 68.976917 
L 325.333206 67.436025 
L 328.003062 67.436025 
L 329.071005 64.354242 
L 333.876746 64.354242 
L 334.410718 61.272459 
L 352.565742 61.272459 
L 353.099713 59.731567 
L 389.943732 59.731567 
L 391.011675 56.649783 
L 391.545646 56.649783 
L 392.079617 55.108892 
L 397.953301 55.108892 
L 398.487273 53.568 
L 398.487273 53.568 
" clip-path="url(#p21d3b1f378)" style="fill: none; stroke-dasharray: 1.85,0.8; stroke-dashoffset: 0; stroke: #0000ff; stroke-width: 0.5"/>
   </g>
   <g id="line2d_17">
    <path d="M 73.832727 295.488 
L 74.366699 107.743135 
L 75.434641 107.743135 
L 75.968612 106.809081 
L 80.240383 106.809081 
L 80.774354 105.875027 
L 81.308325 105.875027 
L 82.376268 104.006919 
L 82.910239 104.006919 
L 83.444211 103.072865 
L 83.978182 103.072865 
L 84.512153 101.204757 
L 86.648038 101.204757 
L 87.715981 99.336649 
L 91.45378 99.336649 
L 91.987751 97.468541 
L 93.055694 97.468541 
L 93.589665 95.600432 
L 94.123636 95.600432 
L 94.657608 94.666378 
L 95.191579 94.666378 
L 96.793493 91.864216 
L 97.861435 91.864216 
L 98.395407 90.930162 
L 102.667177 90.930162 
L 103.201148 88.128 
L 104.269091 88.128 
L 106.404976 84.391784 
L 109.608804 84.391784 
L 110.142775 83.45773 
L 110.676746 81.589622 
L 111.210718 81.589622 
L 111.744689 80.655568 
L 112.812632 80.655568 
L 113.346603 78.787459 
L 120.822201 78.787459 
L 121.890144 76.919351 
L 125.093971 76.919351 
L 125.627943 75.985297 
L 129.899713 75.985297 
L 130.433684 75.051243 
L 133.637512 75.051243 
L 134.171483 74.117189 
L 135.773397 74.117189 
L 136.307368 73.183135 
L 138.977225 73.183135 
L 140.045167 71.315027 
L 144.316938 71.315027 
L 144.850909 70.380973 
L 150.724593 70.380973 
L 151.258565 69.446919 
L 153.928421 69.446919 
L 154.462392 68.512865 
L 155.530335 68.512865 
L 156.064306 67.578811 
L 157.66622 67.578811 
L 158.200191 66.644757 
L 163.539904 66.644757 
L 164.073876 65.710703 
L 165.675789 65.710703 
L 166.209761 64.776649 
L 167.811675 64.776649 
L 168.345646 63.842595 
L 168.879617 63.842595 
L 169.413589 62.908541 
L 171.549474 62.908541 
L 172.083445 61.974486 
L 177.423158 61.974486 
L 177.957129 61.040432 
L 193.442297 61.040432 
L 193.976268 60.106378 
L 195.044211 60.106378 
L 195.578182 59.172324 
L 203.587751 59.172324 
L 204.121722 58.23827 
L 212.131292 58.23827 
L 212.665263 57.304216 
L 222.810718 57.304216 
L 223.344689 56.370162 
L 237.761914 56.370162 
L 238.295885 55.436108 
L 243.101627 55.436108 
L 243.635598 54.502054 
L 257.518852 54.502054 
L 258.052823 53.568 
L 398.487273 53.568 
L 398.487273 53.568 
" clip-path="url(#p21d3b1f378)" style="fill: none; stroke-dasharray: 1.85,0.8; stroke-dashoffset: 0; stroke: #bf00bf; stroke-width: 0.5"/>
   </g>
   <g id="line2d_18">
    <path d="M 73.832727 295.488 
L 74.366699 211.938309 
L 74.90067 211.938309 
L 75.434641 210.691299 
L 79.17244 210.691299 
L 79.706411 209.444289 
L 80.240383 206.950268 
L 81.308325 206.950268 
L 81.842297 205.703258 
L 82.910239 205.703258 
L 83.444211 204.456247 
L 87.18201 204.456247 
L 88.249952 199.468206 
L 88.783923 198.221196 
L 90.385837 198.221196 
L 90.919809 196.974186 
L 91.45378 194.480165 
L 92.521722 194.480165 
L 93.055694 193.233155 
L 96.793493 193.233155 
L 97.327464 190.739134 
L 97.861435 189.492124 
L 101.599234 189.492124 
L 102.133206 185.751093 
L 103.201148 183.257072 
L 104.269091 183.257072 
L 104.803062 180.763052 
L 105.337033 180.763052 
L 106.404976 178.269031 
L 106.938947 178.269031 
L 108.540861 174.528 
L 110.676746 174.528 
L 111.210718 172.033979 
L 112.27866 172.033979 
L 112.812632 170.786969 
L 113.346603 170.786969 
L 113.880574 169.539959 
L 114.414545 169.539959 
L 114.948517 168.292948 
L 115.482488 168.292948 
L 116.016459 167.045938 
L 117.084402 167.045938 
L 117.618373 165.798928 
L 121.356172 165.798928 
L 121.890144 164.551918 
L 122.958086 164.551918 
L 123.492057 163.304907 
L 124.56 163.304907 
L 125.093971 162.057897 
L 125.627943 162.057897 
L 126.695885 159.563876 
L 129.365742 159.563876 
L 129.899713 158.316866 
L 133.103541 158.316866 
L 133.637512 157.069856 
L 135.239426 157.069856 
L 135.773397 155.822845 
L 137.375311 155.822845 
L 137.909282 154.575835 
L 140.045167 154.575835 
L 140.579139 153.328825 
L 144.316938 153.328825 
L 144.850909 150.834804 
L 145.38488 150.834804 
L 146.986794 147.093773 
L 147.520766 147.093773 
L 148.054737 145.846763 
L 149.656651 145.846763 
L 150.190622 142.105732 
L 152.860478 142.105732 
L 153.39445 139.611711 
L 153.928421 139.611711 
L 154.462392 138.364701 
L 159.268134 138.364701 
L 159.802105 137.117691 
L 165.141818 137.117691 
L 165.675789 135.87068 
L 168.345646 135.87068 
L 168.879617 134.62367 
L 170.481531 134.62367 
L 171.549474 132.129649 
L 172.083445 132.129649 
L 172.617416 130.882639 
L 176.889187 130.882639 
L 177.423158 128.388619 
L 178.4911 128.388619 
L 179.025072 127.141608 
L 181.160957 127.141608 
L 181.694928 125.894598 
L 185.966699 125.894598 
L 186.50067 124.647588 
L 189.170526 124.647588 
L 190.77244 120.906557 
L 196.646124 120.906557 
L 197.180096 119.659546 
L 198.248038 119.659546 
L 198.78201 118.412536 
L 201.985837 118.412536 
L 203.05378 115.918515 
L 203.587751 115.918515 
L 204.121722 114.671505 
L 205.723636 114.671505 
L 206.257608 112.177485 
L 209.461435 112.177485 
L 209.995407 110.930474 
L 213.199234 110.930474 
L 213.733206 109.683464 
L 220.140861 109.683464 
L 220.674833 108.436454 
L 221.742775 108.436454 
L 222.276746 107.189443 
L 226.548517 107.189443 
L 227.082488 104.695423 
L 228.684402 104.695423 
L 229.752344 102.201402 
L 236.693971 102.201402 
L 237.227943 100.954392 
L 238.829856 100.954392 
L 239.363828 99.707381 
L 247.907368 99.707381 
L 248.44134 98.460371 
L 250.043254 98.460371 
L 250.577225 97.213361 
L 251.645167 97.213361 
L 252.179139 95.966351 
L 252.71311 95.966351 
L 253.781053 93.47233 
L 254.315024 93.47233 
L 254.848995 92.22532 
L 256.98488 92.22532 
L 257.518852 89.731299 
L 263.926507 89.731299 
L 264.99445 87.237278 
L 270.334163 87.237278 
L 270.868134 85.990268 
L 279.411675 85.990268 
L 279.945646 84.743258 
L 283.683445 84.743258 
L 284.751388 82.249237 
L 285.285359 82.249237 
L 285.81933 81.002227 
L 293.8289 81.002227 
L 294.362871 79.755216 
L 294.896842 79.755216 
L 295.430813 78.508206 
L 296.498756 78.508206 
L 297.032727 77.261196 
L 297.566699 77.261196 
L 298.634641 74.767175 
L 300.236555 74.767175 
L 300.770526 73.520165 
L 303.974354 73.520165 
L 304.508325 72.273155 
L 308.246124 72.273155 
L 308.780096 71.026144 
L 314.119809 71.026144 
L 314.65378 69.779134 
L 317.857608 69.779134 
L 318.391579 68.532124 
L 321.595407 68.532124 
L 322.129378 67.285113 
L 326.93512 67.285113 
L 327.469091 66.038103 
L 338.148517 66.038103 
L 339.216459 61.050062 
L 353.633684 61.050062 
L 354.167656 59.803052 
L 376.59445 59.803052 
L 377.128421 57.309031 
L 378.730335 57.309031 
L 379.264306 56.062021 
L 380.332249 56.062021 
L 380.86622 54.81501 
L 385.671962 54.81501 
L 386.205933 53.568 
L 398.487273 53.568 
L 398.487273 53.568 
" clip-path="url(#p21d3b1f378)" style="fill: none; stroke-dasharray: 1.85,0.8; stroke-dashoffset: 0; stroke: #bfbf00; stroke-width: 0.5"/>
   </g>
   <g id="line2d_19">
    <path d="M 73.832727 295.488 
L 74.366699 197.479385 
L 82.376268 197.479385 
L 82.910239 196.238769 
L 85.046124 196.238769 
L 85.580096 194.998154 
L 88.783923 194.998154 
L 89.317895 193.757538 
L 89.851866 193.757538 
L 90.385837 192.516923 
L 90.919809 192.516923 
L 91.987751 190.035692 
L 92.521722 187.554462 
L 94.657608 187.554462 
L 95.191579 186.313846 
L 95.72555 186.313846 
L 96.793493 183.832615 
L 97.861435 183.832615 
L 98.395407 181.351385 
L 98.929378 180.110769 
L 100.531292 180.110769 
L 101.065263 177.629538 
L 102.133206 177.629538 
L 102.667177 176.388923 
L 103.201148 176.388923 
L 104.269091 173.907692 
L 105.337033 173.907692 
L 105.871005 172.667077 
L 106.404976 172.667077 
L 108.540861 167.704615 
L 109.074833 167.704615 
L 110.142775 165.223385 
L 110.676746 161.501538 
L 111.744689 161.501538 
L 112.812632 159.020308 
L 117.084402 159.020308 
L 117.618373 157.779692 
L 118.152344 155.298462 
L 120.822201 155.298462 
L 121.890144 150.336 
L 122.424115 150.336 
L 122.958086 149.095385 
L 124.026029 149.095385 
L 125.093971 146.614154 
L 125.627943 144.132923 
L 127.763828 144.132923 
L 128.297799 142.892308 
L 131.501627 142.892308 
L 132.035598 141.651692 
L 136.307368 141.651692 
L 136.84134 140.411077 
L 138.977225 140.411077 
L 139.511196 139.170462 
L 141.647081 139.170462 
L 142.181053 136.689231 
L 144.316938 136.689231 
L 144.850909 135.448615 
L 145.918852 135.448615 
L 146.452823 134.208 
L 147.520766 134.208 
L 148.054737 132.967385 
L 149.656651 132.967385 
L 150.190622 131.726769 
L 150.724593 131.726769 
L 151.792536 129.245538 
L 153.928421 129.245538 
L 154.462392 128.004923 
L 156.598278 128.004923 
L 157.132249 126.764308 
L 158.200191 126.764308 
L 158.734163 125.523692 
L 161.93799 125.523692 
L 162.471962 124.283077 
L 163.539904 124.283077 
L 164.607847 121.801846 
L 165.675789 121.801846 
L 166.209761 119.320615 
L 169.413589 119.320615 
L 169.94756 116.839385 
L 171.015502 116.839385 
L 171.549474 114.358154 
L 173.685359 114.358154 
L 174.21933 113.117538 
L 174.753301 110.636308 
L 175.287273 110.636308 
L 175.821244 109.395692 
L 176.355215 105.673846 
L 176.889187 104.433231 
L 178.4911 104.433231 
L 179.559043 101.952 
L 199.315981 101.952 
L 199.849952 100.711385 
L 200.917895 100.711385 
L 201.451866 99.470769 
L 202.519809 99.470769 
L 203.05378 98.230154 
L 206.791579 98.230154 
L 207.32555 95.748923 
L 211.063349 95.748923 
L 211.597321 94.508308 
L 213.199234 94.508308 
L 213.733206 93.267692 
L 214.267177 93.267692 
L 214.801148 92.027077 
L 218.004976 92.027077 
L 218.538947 90.786462 
L 219.60689 90.786462 
L 220.140861 89.545846 
L 220.674833 89.545846 
L 221.208804 87.064615 
L 221.742775 85.824 
L 227.082488 85.824 
L 227.616459 84.583385 
L 231.88823 84.583385 
L 232.956172 79.620923 
L 239.897799 79.620923 
L 240.43177 78.380308 
L 246.839426 78.380308 
L 247.373397 77.139692 
L 251.111196 77.139692 
L 251.645167 75.899077 
L 256.450909 75.899077 
L 256.98488 74.658462 
L 257.518852 74.658462 
L 259.654737 69.696 
L 263.392536 69.696 
L 263.926507 68.455385 
L 268.198278 68.455385 
L 268.732249 65.974154 
L 274.605933 65.974154 
L 275.139904 64.733538 
L 291.693014 64.733538 
L 292.226986 63.492923 
L 297.566699 63.492923 
L 298.10067 62.252308 
L 299.168612 62.252308 
L 300.770526 58.530462 
L 301.304498 58.530462 
L 301.838469 57.289846 
L 302.906411 57.289846 
L 303.440383 56.049231 
L 305.042297 56.049231 
L 305.576268 54.808615 
L 308.780096 54.808615 
L 309.314067 53.568 
L 398.487273 53.568 
L 398.487273 53.568 
" clip-path="url(#p21d3b1f378)" style="fill: none; stroke-dasharray: 1.85,0.8; stroke-dashoffset: 0; stroke: #000000; stroke-width: 0.5"/>
   </g>
   <g id="patch_3">
    <path d="M 57.6 307.584 
L 57.6 41.472 
" style="fill: none; stroke: #000000; stroke-width: 0.8; stroke-linejoin: miter; stroke-linecap: square"/>
   </g>
   <g id="patch_4">
    <path d="M 414.72 307.584 
L 414.72 41.472 
" style="fill: none; stroke: #000000; stroke-width: 0.8; stroke-linejoin: miter; stroke-linecap: square"/>
   </g>
   <g id="patch_5">
    <path d="M 57.6 307.584 
L 414.72 307.584 
" style="fill: none; stroke: #000000; stroke-width: 0.8; stroke-linejoin: miter; stroke-linecap: square"/>
   </g>
   <g id="patch_6">
    <path d="M 57.6 41.472 
L 414.72 41.472 
" style="fill: none; stroke: #000000; stroke-width: 0.8; stroke-linejoin: miter; stroke-linecap: square"/>
   </g>
   <g id="text_16">
    <!-- count=1000, googlenet=150, resnet50=187, squeezenetv1=150, vgg19=112, yolov2=150 -->
    <g transform="translate(-3.84 35.472) scale(0.12 -0.12)">
     <defs>
      <path id="FangSong-6f" d="M 2875 1400 
Q 2875 775 2500 362 
Q 2125 -50 1575 -50 
Q 1000 -50 637 375 
Q 275 800 275 1400 
Q 275 1950 637 2400 
Q 1000 2850 1575 2850 
Q 2175 2850 2525 2400 
Q 2875 1950 2875 1400 
z
M 675 1375 
Q 675 725 937 412 
Q 1200 100 1575 100 
Q 2000 100 2237 437 
Q 2475 775 2475 1375 
Q 2475 2025 2212 2362 
Q 1950 2700 1575 2700 
Q 1225 2700 950 2362 
Q 675 2025 675 1375 
z
" transform="scale(0.015625)"/>
      <path id="FangSong-75" d="M 1425 225 
Q 1725 225 1937 375 
Q 2150 525 2250 850 
L 2250 2425 
Q 2250 2525 2200 2587 
Q 2150 2650 2025 2650 
L 1875 2650 
L 1875 2800 
L 2025 2800 
Q 2175 2800 2300 2825 
Q 2425 2850 2550 2950 
L 2600 2950 
L 2600 500 
Q 2600 400 2662 350 
Q 2725 300 2825 300 
L 2975 300 
L 2975 150 
L 2825 150 
Q 2700 150 2575 112 
Q 2450 75 2300 0 
L 2250 0 
L 2250 525 
Q 2125 250 1875 112 
Q 1625 -25 1300 -25 
Q 900 -25 700 200 
Q 500 425 500 925 
L 500 2425 
Q 500 2525 450 2587 
Q 400 2650 275 2650 
L 125 2650 
L 125 2800 
L 275 2800 
Q 425 2800 550 2825 
Q 675 2850 800 2950 
L 850 2950 
L 850 875 
Q 850 525 1000 375 
Q 1150 225 1425 225 
z
" transform="scale(0.015625)"/>
      <path id="FangSong-3d" d="M 175 2725 
L 175 2950 
L 2950 2950 
L 2950 2725 
L 175 2725 
z
M 175 1450 
L 175 1675 
L 2950 1675 
L 2950 1450 
L 175 1450 
z
" transform="scale(0.015625)"/>
      <path id="FangSong-2c" d="M 1325 75 
Q 1200 25 1100 75 
Q 1000 125 962 237 
Q 925 350 925 437 
Q 925 525 987 612 
Q 1050 700 1150 737 
Q 1250 775 1425 725 
Q 1600 675 1650 500 
Q 1700 325 1662 150 
Q 1625 -25 1525 -200 
Q 1425 -375 1312 -475 
Q 1200 -575 1025 -675 
L 950 -575 
Q 1100 -450 1187 -312 
Q 1275 -175 1325 75 
z
" transform="scale(0.015625)"/>
      <path id="FangSong-20" transform="scale(0.015625)"/>
      <path id="FangSong-67" d="M 850 1875 
Q 850 1575 1025 1362 
Q 1200 1150 1500 1150 
Q 1825 1150 1987 1337 
Q 2150 1525 2150 1875 
Q 2150 2300 1962 2487 
Q 1775 2675 1500 2675 
Q 1225 2675 1037 2487 
Q 850 2300 850 1875 
z
M 2075 525 
Q 2450 475 2625 312 
Q 2800 150 2800 -125 
Q 2800 -500 2487 -725 
Q 2175 -950 1500 -950 
Q 975 -950 650 -737 
Q 325 -525 325 -250 
Q 325 -75 450 100 
Q 575 275 850 375 
Q 700 450 612 537 
Q 525 625 525 750 
Q 525 900 625 1012 
Q 725 1125 875 1200 
Q 725 1325 612 1500 
Q 500 1675 500 1875 
Q 500 2250 762 2537 
Q 1025 2825 1500 2825 
Q 1700 2825 1887 2775 
Q 2075 2725 2200 2600 
Q 2375 2725 2512 2787 
Q 2650 2850 2750 2850 
Q 2875 2850 2925 2762 
Q 2975 2675 2975 2600 
Q 2975 2500 2937 2437 
Q 2900 2375 2800 2375 
Q 2725 2375 2675 2412 
Q 2625 2450 2600 2525 
Q 2575 2600 2487 2587 
Q 2400 2575 2300 2500 
Q 2400 2400 2450 2225 
Q 2500 2050 2500 1875 
Q 2500 1575 2262 1287 
Q 2025 1000 1500 1000 
Q 1350 1000 1225 1037 
Q 1100 1075 1025 1125 
Q 925 1075 875 1000 
Q 825 925 825 875 
Q 825 775 875 725 
Q 925 675 1025 675 
Q 1350 625 1612 587 
Q 1875 550 2075 525 
z
M 1050 325 
Q 825 225 737 87 
Q 650 -50 650 -250 
Q 650 -450 875 -625 
Q 1100 -800 1550 -800 
Q 1975 -800 2225 -662 
Q 2475 -525 2475 -250 
Q 2475 -75 2412 25 
Q 2350 125 2225 150 
Q 1975 200 1675 237 
Q 1375 275 1050 325 
z
" transform="scale(0.015625)"/>
      <path id="FangSong-6c" d="M 900 4275 
Q 1125 4275 1325 4325 
Q 1525 4375 1700 4475 
L 1750 4475 
L 1750 350 
Q 1750 250 1812 200 
Q 1875 150 1975 150 
L 2550 150 
L 2550 0 
L 600 0 
L 600 150 
L 1175 150 
Q 1300 150 1350 200 
Q 1400 250 1400 350 
L 1400 3925 
Q 1400 4025 1350 4075 
Q 1300 4125 1175 4125 
L 625 4125 
L 625 4275 
L 900 4275 
z
" transform="scale(0.015625)"/>
      <path id="FangSong-72" d="M 1250 2025 
Q 1500 2425 1787 2637 
Q 2075 2850 2375 2850 
Q 2625 2850 2762 2737 
Q 2900 2625 2900 2475 
Q 2900 2350 2837 2275 
Q 2775 2200 2650 2200 
Q 2525 2200 2462 2275 
Q 2400 2350 2425 2475 
Q 2425 2550 2400 2600 
Q 2375 2650 2250 2650 
Q 2050 2650 1762 2400 
Q 1475 2150 1250 1700 
L 1250 350 
Q 1250 250 1312 200 
Q 1375 150 1475 150 
L 2025 150 
L 2025 0 
L 175 0 
L 175 150 
L 675 150 
Q 800 150 850 200 
Q 900 250 900 350 
L 900 2425 
Q 900 2525 850 2587 
Q 800 2650 675 2650 
L 200 2650 
L 200 2800 
L 400 2800 
Q 575 2800 812 2837 
Q 1050 2875 1175 2925 
L 1250 2925 
L 1250 2025 
z
" transform="scale(0.015625)"/>
      <path id="FangSong-73" d="M 600 2075 
Q 600 2450 887 2650 
Q 1175 2850 1575 2850 
Q 1800 2850 2000 2787 
Q 2200 2725 2275 2725 
Q 2350 2725 2400 2750 
Q 2450 2775 2525 2850 
L 2625 2025 
L 2475 2000 
Q 2375 2325 2137 2512 
Q 1900 2700 1600 2700 
Q 1275 2700 1087 2575 
Q 900 2450 900 2225 
Q 900 2025 987 1912 
Q 1075 1800 1300 1750 
Q 1475 1675 1737 1587 
Q 2000 1500 2225 1400 
Q 2425 1300 2562 1137 
Q 2700 975 2700 775 
Q 2700 400 2437 187 
Q 2175 -25 1675 -25 
Q 1350 -25 1187 37 
Q 1025 100 925 100 
Q 850 100 762 62 
Q 675 25 575 -25 
L 500 900 
L 650 925 
Q 725 525 975 325 
Q 1225 125 1675 125 
Q 2025 125 2212 250 
Q 2400 375 2400 625 
Q 2400 800 2300 912 
Q 2200 1025 2100 1075 
Q 1850 1175 1550 1287 
Q 1250 1400 1025 1500 
Q 800 1600 700 1750 
Q 600 1900 600 2075 
z
" transform="scale(0.015625)"/>
      <path id="FangSong-37" d="M 2800 4100 
Q 2275 3250 1962 2437 
Q 1650 1625 1650 1025 
Q 1650 925 1662 737 
Q 1675 550 1675 300 
Q 1675 100 1612 25 
Q 1550 -50 1400 -50 
Q 1275 -50 1187 37 
Q 1100 125 1100 350 
Q 1100 825 1312 1525 
Q 1525 2225 2450 3900 
L 1200 3900 
Q 925 3900 762 3725 
Q 600 3550 525 3200 
L 375 3225 
L 550 4275 
L 2800 4275 
L 2800 4100 
z
" transform="scale(0.015625)"/>
      <path id="FangSong-71" d="M 2250 2150 
Q 2150 2375 1975 2512 
Q 1800 2650 1550 2650 
Q 1200 2650 950 2350 
Q 700 2050 700 1325 
Q 700 700 912 437 
Q 1125 175 1450 175 
Q 1725 175 1937 300 
Q 2150 425 2250 725 
L 2250 2150 
z
M 2600 -550 
Q 2600 -675 2662 -725 
Q 2725 -775 2825 -775 
L 2975 -775 
L 2975 -925 
L 1825 -925 
L 1825 -775 
L 2025 -775 
Q 2150 -775 2200 -725 
Q 2250 -675 2250 -550 
L 2250 375 
Q 2100 175 1887 75 
Q 1675 -25 1375 -25 
Q 950 -25 625 337 
Q 300 700 300 1400 
Q 300 2075 675 2450 
Q 1050 2825 1475 2825 
Q 1750 2825 1937 2725 
Q 2125 2625 2275 2475 
L 2500 2800 
L 2600 2800 
L 2600 -550 
z
" transform="scale(0.015625)"/>
      <path id="FangSong-7a" d="M 2725 975 
L 2550 0 
L 400 0 
L 400 125 
L 2125 2650 
L 1200 2650 
Q 975 2650 825 2487 
Q 675 2325 575 1925 
L 425 1950 
L 525 2800 
L 2575 2800 
L 2575 2725 
L 825 150 
L 1775 150 
Q 2100 150 2287 350 
Q 2475 550 2575 1000 
L 2725 975 
z
" transform="scale(0.015625)"/>
      <path id="FangSong-76" d="M 1600 -25 
L 1450 -25 
L 600 2425 
Q 575 2525 500 2587 
Q 425 2650 325 2650 
L 200 2650 
L 200 2800 
L 1275 2800 
L 1275 2650 
L 1175 2650 
Q 1025 2650 987 2575 
Q 950 2500 1000 2325 
L 1600 575 
L 1650 575 
L 2250 2300 
Q 2325 2475 2262 2562 
Q 2200 2650 2050 2650 
L 2000 2650 
L 2000 2800 
L 2900 2800 
L 2900 2650 
L 2850 2650 
Q 2700 2650 2612 2562 
Q 2525 2475 2450 2300 
L 1600 -25 
z
" transform="scale(0.015625)"/>
      <path id="FangSong-39" d="M 675 2950 
Q 675 2400 887 2112 
Q 1100 1825 1425 1825 
Q 1800 1825 2075 2175 
Q 2350 2525 2350 2825 
Q 2350 3425 2150 3787 
Q 1950 4150 1500 4150 
Q 1075 4150 875 3812 
Q 675 3475 675 2950 
z
M 1350 1600 
Q 850 1600 550 1912 
Q 250 2225 250 2925 
Q 250 3525 575 3925 
Q 900 4325 1500 4325 
Q 2125 4325 2475 3825 
Q 2825 3325 2825 2375 
Q 2825 1325 2412 637 
Q 2000 -50 1275 -50 
Q 950 -50 712 100 
Q 475 250 475 500 
Q 475 600 537 700 
Q 600 800 750 800 
Q 900 800 950 687 
Q 1000 575 1000 425 
Q 1000 325 1025 262 
Q 1050 200 1075 175 
Q 1100 150 1162 137 
Q 1225 125 1300 125 
Q 1750 125 2025 625 
Q 2300 1125 2350 2300 
Q 2225 2000 1975 1800 
Q 1725 1600 1350 1600 
z
" transform="scale(0.015625)"/>
     </defs>
     <use xlink:href="#FangSong-63"/>
     <use xlink:href="#FangSong-6f" x="50"/>
     <use xlink:href="#FangSong-75" x="100"/>
     <use xlink:href="#FangSong-6e" x="150"/>
     <use xlink:href="#FangSong-74" x="200"/>
     <use xlink:href="#FangSong-3d" x="250"/>
     <use xlink:href="#FangSong-31" x="300"/>
     <use xlink:href="#FangSong-30" x="350"/>
     <use xlink:href="#FangSong-30" x="400"/>
     <use xlink:href="#FangSong-30" x="450"/>
     <use xlink:href="#FangSong-2c" x="500"/>
     <use xlink:href="#FangSong-20" x="550"/>
     <use xlink:href="#FangSong-67" x="600"/>
     <use xlink:href="#FangSong-6f" x="650"/>
     <use xlink:href="#FangSong-6f" x="700"/>
     <use xlink:href="#FangSong-67" x="750"/>
     <use xlink:href="#FangSong-6c" x="800"/>
     <use xlink:href="#FangSong-65" x="850"/>
     <use xlink:href="#FangSong-6e" x="900"/>
     <use xlink:href="#FangSong-65" x="950"/>
     <use xlink:href="#FangSong-74" x="1000"/>
     <use xlink:href="#FangSong-3d" x="1050"/>
     <use xlink:href="#FangSong-31" x="1100"/>
     <use xlink:href="#FangSong-35" x="1150"/>
     <use xlink:href="#FangSong-30" x="1200"/>
     <use xlink:href="#FangSong-2c" x="1250"/>
     <use xlink:href="#FangSong-20" x="1300"/>
     <use xlink:href="#FangSong-72" x="1350"/>
     <use xlink:href="#FangSong-65" x="1400"/>
     <use xlink:href="#FangSong-73" x="1450"/>
     <use xlink:href="#FangSong-6e" x="1500"/>
     <use xlink:href="#FangSong-65" x="1550"/>
     <use xlink:href="#FangSong-74" x="1600"/>
     <use xlink:href="#FangSong-35" x="1650"/>
     <use xlink:href="#FangSong-30" x="1700"/>
     <use xlink:href="#FangSong-3d" x="1750"/>
     <use xlink:href="#FangSong-31" x="1800"/>
     <use xlink:href="#FangSong-38" x="1850"/>
     <use xlink:href="#FangSong-37" x="1900"/>
     <use xlink:href="#FangSong-2c" x="1950"/>
     <use xlink:href="#FangSong-20" x="2000"/>
     <use xlink:href="#FangSong-73" x="2050"/>
     <use xlink:href="#FangSong-71" x="2100"/>
     <use xlink:href="#FangSong-75" x="2150"/>
     <use xlink:href="#FangSong-65" x="2200"/>
     <use xlink:href="#FangSong-65" x="2250"/>
     <use xlink:href="#FangSong-7a" x="2300"/>
     <use xlink:href="#FangSong-65" x="2350"/>
     <use xlink:href="#FangSong-6e" x="2400"/>
     <use xlink:href="#FangSong-65" x="2450"/>
     <use xlink:href="#FangSong-74" x="2500"/>
     <use xlink:href="#FangSong-76" x="2550"/>
     <use xlink:href="#FangSong-31" x="2600"/>
     <use xlink:href="#FangSong-3d" x="2650"/>
     <use xlink:href="#FangSong-31" x="2700"/>
     <use xlink:href="#FangSong-35" x="2750"/>
     <use xlink:href="#FangSong-30" x="2800"/>
     <use xlink:href="#FangSong-2c" x="2850"/>
     <use xlink:href="#FangSong-20" x="2900"/>
     <use xlink:href="#FangSong-76" x="2950"/>
     <use xlink:href="#FangSong-67" x="3000"/>
     <use xlink:href="#FangSong-67" x="3050"/>
     <use xlink:href="#FangSong-31" x="3100"/>
     <use xlink:href="#FangSong-39" x="3150"/>
     <use xlink:href="#FangSong-3d" x="3200"/>
     <use xlink:href="#FangSong-31" x="3250"/>
     <use xlink:href="#FangSong-31" x="3300"/>
     <use xlink:href="#FangSong-32" x="3350"/>
     <use xlink:href="#FangSong-2c" x="3400"/>
     <use xlink:href="#FangSong-20" x="3450"/>
     <use xlink:href="#FangSong-79" x="3500"/>
     <use xlink:href="#FangSong-6f" x="3550"/>
     <use xlink:href="#FangSong-6c" x="3600"/>
     <use xlink:href="#FangSong-6f" x="3650"/>
     <use xlink:href="#FangSong-76" x="3700"/>
     <use xlink:href="#FangSong-32" x="3750"/>
     <use xlink:href="#FangSong-3d" x="3800"/>
     <use xlink:href="#FangSong-31" x="3850"/>
     <use xlink:href="#FangSong-35" x="3900"/>
     <use xlink:href="#FangSong-30" x="3950"/>
    </g>
   </g>
   <g id="legend_1">
    <g id="patch_7">
     <path d="M 315.72 302.584 
L 407.72 302.584 
Q 409.72 302.584 409.72 300.584 
L 409.72 220.794937 
Q 409.72 218.794937 407.72 218.794937 
L 315.72 218.794937 
Q 313.72 218.794937 313.72 220.794937 
L 313.72 300.584 
Q 313.72 302.584 315.72 302.584 
z
" style="fill: #ffffff; opacity: 0.8; stroke: #cccccc; stroke-linejoin: miter"/>
    </g>
    <g id="line2d_20">
     <path d="M 317.72 226.294937 
L 327.72 226.294937 
L 337.72 226.294937 
" style="fill: none; stroke: #ff0000; stroke-linecap: square"/>
    </g>
    <g id="text_17">
     <!-- total -->
     <g transform="translate(345.72 229.794937) scale(0.1 -0.1)">
      <use xlink:href="#FangSong-74"/>
      <use xlink:href="#FangSong-6f" x="50"/>
      <use xlink:href="#FangSong-74" x="100"/>
      <use xlink:href="#FangSong-61" x="150"/>
      <use xlink:href="#FangSong-6c" x="200"/>
     </g>
    </g>
    <g id="line2d_21">
     <path d="M 317.72 239.74025 
L 327.72 239.74025 
L 337.72 239.74025 
" style="fill: none; stroke-dasharray: 1.85,0.8; stroke-dashoffset: 0; stroke: #008000; stroke-width: 0.5"/>
    </g>
    <g id="text_18">
     <!-- squeezenetv1 -->
     <g transform="translate(345.72 243.24025) scale(0.1 -0.1)">
      <use xlink:href="#FangSong-73"/>
      <use xlink:href="#FangSong-71" x="50"/>
      <use xlink:href="#FangSong-75" x="100"/>
      <use xlink:href="#FangSong-65" x="150"/>
      <use xlink:href="#FangSong-65" x="200"/>
      <use xlink:href="#FangSong-7a" x="250"/>
      <use xlink:href="#FangSong-65" x="300"/>
      <use xlink:href="#FangSong-6e" x="350"/>
      <use xlink:href="#FangSong-65" x="400"/>
      <use xlink:href="#FangSong-74" x="450"/>
      <use xlink:href="#FangSong-76" x="500"/>
      <use xlink:href="#FangSong-31" x="550"/>
     </g>
    </g>
    <g id="line2d_22">
     <path d="M 317.72 253.185562 
L 327.72 253.185562 
L 337.72 253.185562 
" style="fill: none; stroke-dasharray: 1.85,0.8; stroke-dashoffset: 0; stroke: #0000ff; stroke-width: 0.5"/>
    </g>
    <g id="text_19">
     <!-- resnet50 -->
     <g transform="translate(345.72 256.685562) scale(0.1 -0.1)">
      <use xlink:href="#FangSong-72"/>
      <use xlink:href="#FangSong-65" x="50"/>
      <use xlink:href="#FangSong-73" x="100"/>
      <use xlink:href="#FangSong-6e" x="150"/>
      <use xlink:href="#FangSong-65" x="200"/>
      <use xlink:href="#FangSong-74" x="250"/>
      <use xlink:href="#FangSong-35" x="300"/>
      <use xlink:href="#FangSong-30" x="350"/>
     </g>
    </g>
    <g id="line2d_23">
     <path d="M 317.72 266.630875 
L 327.72 266.630875 
L 337.72 266.630875 
" style="fill: none; stroke-dasharray: 1.85,0.8; stroke-dashoffset: 0; stroke: #bf00bf; stroke-width: 0.5"/>
    </g>
    <g id="text_20">
     <!-- vgg19 -->
     <g transform="translate(345.72 270.130875) scale(0.1 -0.1)">
      <use xlink:href="#FangSong-76"/>
      <use xlink:href="#FangSong-67" x="50"/>
      <use xlink:href="#FangSong-67" x="100"/>
      <use xlink:href="#FangSong-31" x="150"/>
      <use xlink:href="#FangSong-39" x="200"/>
     </g>
    </g>
    <g id="line2d_24">
     <path d="M 317.72 280.11525 
L 327.72 280.11525 
L 337.72 280.11525 
" style="fill: none; stroke-dasharray: 1.85,0.8; stroke-dashoffset: 0; stroke: #bfbf00; stroke-width: 0.5"/>
    </g>
    <g id="text_21">
     <!-- googlenet -->
     <g transform="translate(345.72 283.61525) scale(0.1 -0.1)">
      <use xlink:href="#FangSong-67"/>
      <use xlink:href="#FangSong-6f" x="50"/>
      <use xlink:href="#FangSong-6f" x="100"/>
      <use xlink:href="#FangSong-67" x="150"/>
      <use xlink:href="#FangSong-6c" x="200"/>
      <use xlink:href="#FangSong-65" x="250"/>
      <use xlink:href="#FangSong-6e" x="300"/>
      <use xlink:href="#FangSong-65" x="350"/>
      <use xlink:href="#FangSong-74" x="400"/>
     </g>
    </g>
    <g id="line2d_25">
     <path d="M 317.72 293.599625 
L 327.72 293.599625 
L 337.72 293.599625 
" style="fill: none; stroke-dasharray: 1.85,0.8; stroke-dashoffset: 0; stroke: #000000; stroke-width: 0.5"/>
    </g>
    <g id="text_22">
     <!-- yolov2 -->
     <g transform="translate(345.72 297.099625) scale(0.1 -0.1)">
      <use xlink:href="#FangSong-79"/>
      <use xlink:href="#FangSong-6f" x="50"/>
      <use xlink:href="#FangSong-6c" x="100"/>
      <use xlink:href="#FangSong-6f" x="150"/>
      <use xlink:href="#FangSong-76" x="200"/>
      <use xlink:href="#FangSong-32" x="250"/>
     </g>
    </g>
   </g>
  </g>
 </g>
 <defs>
  <clipPath id="p21d3b1f378">
   <rect x="57.6" y="41.472" width="357.12" height="266.112"/>
  </clipPath>
 </defs>
</svg>
