<?xml version="1.0" encoding="utf-8" standalone="no"?>
<!DOCTYPE svg PUBLIC "-//W3C//DTD SVG 1.1//EN"
  "http://www.w3.org/Graphics/SVG/1.1/DTD/svg11.dtd">
<svg xmlns:xlink="http://www.w3.org/1999/xlink" width="460.8pt" height="345.6pt" viewBox="0 0 460.8 345.6" xmlns="http://www.w3.org/2000/svg" version="1.1">
 <metadata>
  <rdf:RDF xmlns:dc="http://purl.org/dc/elements/1.1/" xmlns:cc="http://creativecommons.org/ns#" xmlns:rdf="http://www.w3.org/1999/02/22-rdf-syntax-ns#">
   <cc:Work>
    <dc:type rdf:resource="http://purl.org/dc/dcmitype/StillImage"/>
    <dc:date>2023-01-19T17:24:47.494668</dc:date>
    <dc:format>image/svg+xml</dc:format>
    <dc:creator>
     <cc:Agent>
      <dc:title>Matplotlib v3.6.3, https://matplotlib.org/</dc:title>
     </cc:Agent>
    </dc:creator>
   </cc:Work>
  </rdf:RDF>
 </metadata>
 <defs>
  <style type="text/css">*{stroke-linejoin: round; stroke-linecap: butt}</style>
 </defs>
 <g id="figure_1">
  <g id="patch_1">
   <path d="M 0 345.6 
L 460.8 345.6 
L 460.8 0 
L 0 0 
z
" style="fill: #ffffff"/>
  </g>
  <g id="axes_1">
   <g id="patch_2">
    <path d="M 57.6 307.584 
L 414.72 307.584 
L 414.72 41.472 
L 57.6 41.472 
z
" style="fill: #ffffff"/>
   </g>
   <g id="matplotlib.axis_1">
    <g id="xtick_1">
     <g id="line2d_1">
      <defs>
       <path id="m6a78e88d86" d="M 0 0 
L 0 3.5 
" style="stroke: #000000; stroke-width: 0.8"/>
      </defs>
      <g>
       <use xlink:href="#m6a78e88d86" x="67.44189" y="307.584" style="stroke: #000000; stroke-width: 0.8"/>
      </g>
     </g>
     <g id="text_1">
      <!-- 0 -->
      <g transform="translate(64.94189 321.576187) scale(0.1 -0.1)">
       <defs>
        <path id="FangSong-30" d="M 1575 4125 
Q 1225 4125 987 3587 
Q 750 3050 750 2150 
Q 750 1200 987 675 
Q 1225 150 1575 150 
Q 1950 150 2162 675 
Q 2375 1200 2375 2150 
Q 2375 3050 2175 3587 
Q 1975 4125 1575 4125 
z
M 1575 -50 
Q 1025 -50 650 525 
Q 275 1100 275 2150 
Q 275 3125 637 3725 
Q 1000 4325 1575 4325 
Q 2125 4325 2487 3750 
Q 2850 3175 2850 2150 
Q 2850 1125 2487 537 
Q 2125 -50 1575 -50 
z
" transform="scale(0.015625)"/>
       </defs>
       <use xlink:href="#FangSong-30"/>
      </g>
     </g>
    </g>
    <g id="xtick_2">
     <g id="line2d_2">
      <g>
       <use xlink:href="#m6a78e88d86" x="131.350265" y="307.584" style="stroke: #000000; stroke-width: 0.8"/>
      </g>
     </g>
     <g id="text_2">
      <!-- 10 -->
      <g transform="translate(126.350265 321.576187) scale(0.1 -0.1)">
       <defs>
        <path id="FangSong-31" d="M 1800 4350 
L 1800 550 
Q 1800 350 1925 250 
Q 2050 150 2275 150 
L 2525 150 
L 2525 0 
L 700 0 
L 700 150 
L 925 150 
Q 1175 150 1287 250 
Q 1400 350 1400 550 
L 1400 3575 
Q 1400 3675 1337 3737 
Q 1275 3800 1150 3800 
L 700 3800 
L 700 3950 
L 925 3950 
Q 1225 3950 1412 4050 
Q 1600 4150 1700 4350 
L 1800 4350 
z
" transform="scale(0.015625)"/>
       </defs>
       <use xlink:href="#FangSong-31"/>
       <use xlink:href="#FangSong-30" x="50"/>
      </g>
     </g>
    </g>
    <g id="xtick_3">
     <g id="line2d_3">
      <g>
       <use xlink:href="#m6a78e88d86" x="195.25864" y="307.584" style="stroke: #000000; stroke-width: 0.8"/>
      </g>
     </g>
     <g id="text_3">
      <!-- 20 -->
      <g transform="translate(190.25864 321.576187) scale(0.1 -0.1)">
       <defs>
        <path id="FangSong-32" d="M 2300 3225 
Q 2300 3675 2100 3912 
Q 1900 4150 1500 4150 
Q 1200 4150 987 3987 
Q 775 3825 775 3575 
Q 775 3425 862 3325 
Q 950 3225 950 3125 
Q 950 3000 887 2937 
Q 825 2875 700 2875 
Q 550 2875 462 2962 
Q 375 3050 375 3250 
Q 375 3775 750 4050 
Q 1125 4325 1550 4325 
Q 2150 4325 2437 4025 
Q 2725 3725 2725 3275 
Q 2725 2975 2587 2675 
Q 2450 2375 2150 2100 
Q 1425 1400 1037 962 
Q 650 525 575 375 
L 2050 375 
Q 2275 375 2425 550 
Q 2575 725 2625 1075 
L 2775 1075 
L 2625 0 
L 300 0 
L 300 325 
Q 425 550 712 900 
Q 1000 1250 1475 1725 
Q 1900 2150 2100 2525 
Q 2300 2900 2300 3225 
z
" transform="scale(0.015625)"/>
       </defs>
       <use xlink:href="#FangSong-32"/>
       <use xlink:href="#FangSong-30" x="50"/>
      </g>
     </g>
    </g>
    <g id="xtick_4">
     <g id="line2d_4">
      <g>
       <use xlink:href="#m6a78e88d86" x="259.167015" y="307.584" style="stroke: #000000; stroke-width: 0.8"/>
      </g>
     </g>
     <g id="text_4">
      <!-- 30 -->
      <g transform="translate(254.167015 321.576187) scale(0.1 -0.1)">
       <defs>
        <path id="FangSong-33" d="M 2775 1150 
Q 2775 675 2425 312 
Q 2075 -50 1450 -50 
Q 1000 -50 675 200 
Q 350 450 350 775 
Q 350 925 450 1037 
Q 550 1150 650 1150 
Q 800 1150 862 1037 
Q 925 925 925 850 
Q 925 725 875 637 
Q 825 550 825 475 
Q 825 325 1012 225 
Q 1200 125 1425 125 
Q 1875 125 2100 387 
Q 2325 650 2325 1200 
Q 2325 1650 2087 1925 
Q 1850 2200 1200 2200 
L 1200 2375 
Q 1700 2375 1937 2612 
Q 2175 2850 2175 3275 
Q 2175 3625 1987 3887 
Q 1800 4150 1400 4150 
Q 1225 4150 1025 4062 
Q 825 3975 825 3775 
Q 825 3575 875 3525 
Q 925 3475 925 3400 
Q 925 3275 875 3200 
Q 825 3125 700 3125 
Q 600 3125 512 3200 
Q 425 3275 425 3475 
Q 425 3850 750 4087 
Q 1075 4325 1500 4325 
Q 2000 4325 2300 4012 
Q 2600 3700 2600 3350 
Q 2600 2975 2412 2712 
Q 2225 2450 1825 2325 
Q 2375 2125 2575 1800 
Q 2775 1475 2775 1150 
z
" transform="scale(0.015625)"/>
       </defs>
       <use xlink:href="#FangSong-33"/>
       <use xlink:href="#FangSong-30" x="50"/>
      </g>
     </g>
    </g>
    <g id="xtick_5">
     <g id="line2d_5">
      <g>
       <use xlink:href="#m6a78e88d86" x="323.07539" y="307.584" style="stroke: #000000; stroke-width: 0.8"/>
      </g>
     </g>
     <g id="text_5">
      <!-- 40 -->
      <g transform="translate(318.07539 321.576187) scale(0.1 -0.1)">
       <defs>
        <path id="FangSong-34" d="M 2275 475 
Q 2275 300 2375 225 
Q 2475 150 2650 150 
L 2875 150 
L 2875 0 
L 1225 0 
L 1225 150 
L 1500 150 
Q 1700 150 1787 225 
Q 1875 300 1875 475 
L 1875 1300 
L 200 1300 
L 200 1425 
L 2025 4325 
L 2275 4325 
L 2275 1450 
L 2950 1450 
L 2950 1300 
L 2275 1300 
L 2275 475 
z
M 1850 3700 
L 425 1450 
L 1875 1450 
L 1875 3700 
L 1850 3700 
z
" transform="scale(0.015625)"/>
       </defs>
       <use xlink:href="#FangSong-34"/>
       <use xlink:href="#FangSong-30" x="50"/>
      </g>
     </g>
    </g>
    <g id="xtick_6">
     <g id="line2d_6">
      <g>
       <use xlink:href="#m6a78e88d86" x="386.983765" y="307.584" style="stroke: #000000; stroke-width: 0.8"/>
      </g>
     </g>
     <g id="text_6">
      <!-- 50 -->
      <g transform="translate(381.983765 321.576187) scale(0.1 -0.1)">
       <defs>
        <path id="FangSong-35" d="M 1700 2750 
Q 2175 2750 2475 2387 
Q 2775 2025 2775 1425 
Q 2775 750 2462 350 
Q 2150 -50 1500 -50 
Q 1050 -50 700 212 
Q 350 475 350 850 
Q 350 1000 437 1112 
Q 525 1225 675 1225 
Q 825 1225 875 1125 
Q 925 1025 925 950 
Q 925 800 850 712 
Q 775 625 775 525 
Q 775 325 1012 225 
Q 1250 125 1525 125 
Q 1925 125 2137 450 
Q 2350 775 2350 1375 
Q 2350 1875 2162 2187 
Q 1975 2500 1600 2500 
Q 1325 2500 1125 2400 
Q 925 2300 750 1975 
L 525 2000 
L 650 4275 
L 2700 4275 
L 2625 3900 
L 825 3900 
L 725 2250 
Q 975 2600 1212 2675 
Q 1450 2750 1700 2750 
z
" transform="scale(0.015625)"/>
       </defs>
       <use xlink:href="#FangSong-35"/>
       <use xlink:href="#FangSong-30" x="50"/>
      </g>
     </g>
    </g>
    <g id="text_7">
     <!-- Latency -->
     <g transform="translate(218.66 333.974625) scale(0.1 -0.1)">
      <defs>
       <path id="FangSong-4c" d="M 975 350 
Q 975 250 1037 200 
Q 1100 150 1200 150 
L 1875 150 
Q 2225 150 2475 362 
Q 2725 575 2850 1025 
L 2975 975 
L 2750 0 
L 175 0 
L 175 150 
L 350 150 
Q 475 150 525 200 
Q 575 250 575 350 
L 575 3925 
Q 575 4025 525 4075 
Q 475 4125 350 4125 
L 200 4125 
L 200 4275 
L 1375 4275 
L 1375 4125 
L 1200 4125 
Q 1100 4125 1037 4075 
Q 975 4025 975 3925 
L 975 350 
z
" transform="scale(0.015625)"/>
       <path id="FangSong-61" d="M 1200 -25 
Q 750 -25 500 187 
Q 250 400 250 675 
Q 250 1125 637 1412 
Q 1025 1700 2175 1825 
L 2175 2125 
Q 2175 2375 2062 2537 
Q 1950 2700 1550 2700 
Q 1125 2700 950 2562 
Q 775 2425 825 2275 
Q 875 2175 825 2075 
Q 775 1975 625 1975 
Q 525 1975 462 2037 
Q 400 2100 400 2225 
Q 400 2450 725 2650 
Q 1050 2850 1525 2850 
Q 2025 2850 2275 2662 
Q 2525 2475 2525 2125 
L 2525 475 
Q 2525 275 2562 237 
Q 2600 200 2700 200 
Q 2825 200 2875 312 
Q 2925 425 2925 625 
L 3050 625 
Q 3050 275 2925 137 
Q 2800 0 2600 0 
Q 2425 0 2325 75 
Q 2225 150 2175 325 
Q 1925 150 1712 62 
Q 1500 -25 1200 -25 
z
M 675 750 
Q 675 525 812 337 
Q 950 150 1250 150 
Q 1475 150 1700 237 
Q 1925 325 2175 500 
L 2175 1675 
Q 1325 1575 1000 1337 
Q 675 1100 675 750 
z
" transform="scale(0.015625)"/>
       <path id="FangSong-74" d="M 1475 800 
Q 1475 450 1600 325 
Q 1725 200 1975 200 
Q 2225 200 2375 362 
Q 2525 525 2575 825 
L 2700 775 
Q 2650 425 2437 200 
Q 2225 -25 1875 -25 
Q 1500 -25 1312 200 
Q 1125 425 1125 900 
L 1125 2650 
L 375 2650 
L 375 2800 
L 575 2800 
Q 875 2800 1062 2987 
Q 1250 3175 1300 3575 
L 1325 3775 
L 1475 3775 
L 1475 2800 
L 2475 2800 
L 2475 2650 
L 1475 2650 
L 1475 800 
z
" transform="scale(0.015625)"/>
       <path id="FangSong-65" d="M 2375 1550 
Q 2400 2100 2187 2387 
Q 1975 2675 1625 2675 
Q 1250 2675 1012 2375 
Q 775 2075 775 1550 
L 2375 1550 
z
M 775 1400 
Q 775 725 1037 437 
Q 1300 150 1725 150 
Q 2050 150 2275 337 
Q 2500 525 2600 800 
L 2725 750 
Q 2650 475 2387 212 
Q 2125 -50 1675 -50 
Q 1100 -50 737 325 
Q 375 700 375 1400 
Q 375 2025 737 2437 
Q 1100 2850 1625 2850 
Q 2100 2850 2450 2525 
Q 2800 2200 2800 1400 
L 775 1400 
z
" transform="scale(0.015625)"/>
       <path id="FangSong-6e" d="M 175 0 
L 175 150 
L 300 150 
Q 425 150 475 200 
Q 525 250 525 350 
L 525 2500 
Q 525 2575 500 2612 
Q 475 2650 400 2650 
L 200 2650 
L 200 2800 
L 375 2800 
Q 500 2800 612 2825 
Q 725 2850 825 2925 
L 875 2925 
L 875 2350 
Q 1100 2600 1325 2725 
Q 1550 2850 1800 2850 
Q 2225 2850 2425 2625 
Q 2625 2400 2625 1950 
L 2625 350 
Q 2625 250 2687 200 
Q 2750 150 2850 150 
L 2975 150 
L 2975 0 
L 1925 0 
L 1925 150 
L 2050 150 
Q 2175 150 2225 200 
Q 2275 250 2275 350 
L 2275 2025 
Q 2275 2325 2150 2487 
Q 2025 2650 1775 2650 
Q 1550 2650 1312 2500 
Q 1075 2350 875 2075 
L 875 350 
Q 875 250 937 200 
Q 1000 150 1100 150 
L 1225 150 
L 1225 0 
L 175 0 
z
" transform="scale(0.015625)"/>
       <path id="FangSong-63" d="M 2125 2125 
Q 2125 2200 2137 2225 
Q 2150 2250 2175 2325 
Q 2200 2425 2075 2562 
Q 1950 2700 1650 2700 
Q 1275 2700 1012 2337 
Q 750 1975 750 1375 
Q 750 825 975 487 
Q 1200 150 1725 150 
Q 2075 150 2312 375 
Q 2550 600 2650 900 
L 2775 850 
Q 2675 475 2400 212 
Q 2125 -50 1650 -50 
Q 1050 -50 700 325 
Q 350 700 350 1400 
Q 350 2025 725 2437 
Q 1100 2850 1700 2850 
Q 2125 2850 2362 2625 
Q 2600 2400 2600 2175 
Q 2600 2025 2537 1962 
Q 2475 1900 2350 1900 
Q 2250 1900 2187 1962 
Q 2125 2025 2125 2125 
z
" transform="scale(0.015625)"/>
       <path id="FangSong-79" d="M 1625 700 
L 1675 700 
L 2225 2375 
Q 2275 2500 2212 2575 
Q 2150 2650 2050 2650 
L 1900 2650 
L 1900 2800 
L 2950 2800 
L 2950 2650 
L 2800 2650 
Q 2700 2650 2600 2575 
Q 2500 2500 2450 2375 
L 1600 -100 
Q 1475 -500 1287 -712 
Q 1100 -925 800 -950 
Q 650 -950 537 -875 
Q 425 -800 425 -675 
Q 425 -575 487 -500 
Q 550 -425 675 -425 
Q 775 -425 837 -525 
Q 900 -625 1050 -587 
Q 1200 -550 1250 -425 
Q 1300 -350 1375 -162 
Q 1450 25 1500 225 
L 650 2425 
Q 625 2525 537 2587 
Q 450 2650 350 2650 
L 250 2650 
L 250 2800 
L 1300 2800 
L 1300 2650 
L 1200 2650 
Q 1100 2650 1050 2587 
Q 1000 2525 1025 2400 
L 1625 700 
z
" transform="scale(0.015625)"/>
      </defs>
      <use xlink:href="#FangSong-4c"/>
      <use xlink:href="#FangSong-61" x="50"/>
      <use xlink:href="#FangSong-74" x="100"/>
      <use xlink:href="#FangSong-65" x="150"/>
      <use xlink:href="#FangSong-6e" x="200"/>
      <use xlink:href="#FangSong-63" x="250"/>
      <use xlink:href="#FangSong-79" x="300"/>
     </g>
    </g>
   </g>
   <g id="matplotlib.axis_2">
    <g id="ytick_1">
     <g id="line2d_7">
      <defs>
       <path id="m47b9919bda" d="M 0 0 
L -3.5 0 
" style="stroke: #000000; stroke-width: 0.8"/>
      </defs>
      <g>
       <use xlink:href="#m47b9919bda" x="57.6" y="295.488" style="stroke: #000000; stroke-width: 0.8"/>
      </g>
     </g>
     <g id="text_8">
      <!-- 0% -->
      <g transform="translate(40.6 298.984094) scale(0.1 -0.1)">
       <defs>
        <path id="FangSong-25" d="M 725 4150 
Q 575 4150 475 3950 
Q 375 3750 375 3200 
Q 375 2575 487 2387 
Q 600 2200 725 2200 
Q 900 2200 987 2425 
Q 1075 2650 1075 3200 
Q 1075 3650 1012 3900 
Q 950 4150 725 4150 
z
M 1400 3175 
Q 1400 2725 1250 2387 
Q 1100 2050 725 2050 
Q 425 2050 237 2350 
Q 50 2650 50 3175 
Q 50 3725 250 4025 
Q 450 4325 725 4325 
Q 1025 4325 1212 4012 
Q 1400 3700 1400 3175 
z
M 2700 1100 
Q 2700 1525 2625 1800 
Q 2550 2075 2350 2075 
Q 2200 2075 2100 1837 
Q 2000 1600 2000 1100 
Q 2000 475 2112 300 
Q 2225 125 2350 125 
Q 2525 125 2612 337 
Q 2700 550 2700 1100 
z
M 3025 1075 
Q 3025 575 2850 262 
Q 2675 -50 2350 -50 
Q 2075 -50 1875 262 
Q 1675 575 1675 1075 
Q 1675 1625 1875 1937 
Q 2075 2250 2350 2250 
Q 2650 2250 2837 1925 
Q 3025 1600 3025 1075 
z
M 2500 4250 
L 700 -50 
L 550 25 
L 2325 4325 
L 2500 4250 
z
" transform="scale(0.015625)"/>
       </defs>
       <use xlink:href="#FangSong-30"/>
       <use xlink:href="#FangSong-25" x="50"/>
      </g>
     </g>
    </g>
    <g id="ytick_2">
     <g id="line2d_8">
      <g>
       <use xlink:href="#m47b9919bda" x="57.6" y="247.104" style="stroke: #000000; stroke-width: 0.8"/>
      </g>
     </g>
     <g id="text_9">
      <!-- 20% -->
      <g transform="translate(35.6 250.600094) scale(0.1 -0.1)">
       <use xlink:href="#FangSong-32"/>
       <use xlink:href="#FangSong-30" x="50"/>
       <use xlink:href="#FangSong-25" x="100"/>
      </g>
     </g>
    </g>
    <g id="ytick_3">
     <g id="line2d_9">
      <g>
       <use xlink:href="#m47b9919bda" x="57.6" y="198.72" style="stroke: #000000; stroke-width: 0.8"/>
      </g>
     </g>
     <g id="text_10">
      <!-- 40% -->
      <g transform="translate(35.6 202.216094) scale(0.1 -0.1)">
       <use xlink:href="#FangSong-34"/>
       <use xlink:href="#FangSong-30" x="50"/>
       <use xlink:href="#FangSong-25" x="100"/>
      </g>
     </g>
    </g>
    <g id="ytick_4">
     <g id="line2d_10">
      <g>
       <use xlink:href="#m47b9919bda" x="57.6" y="150.336" style="stroke: #000000; stroke-width: 0.8"/>
      </g>
     </g>
     <g id="text_11">
      <!-- 60% -->
      <g transform="translate(35.6 153.832094) scale(0.1 -0.1)">
       <defs>
        <path id="FangSong-36" d="M 750 1700 
Q 750 950 1012 537 
Q 1275 125 1650 125 
Q 2025 125 2225 400 
Q 2425 675 2425 1425 
Q 2425 1925 2212 2200 
Q 2000 2475 1700 2475 
Q 1425 2475 1187 2312 
Q 950 2150 750 1700 
z
M 1725 2725 
Q 2325 2725 2587 2325 
Q 2850 1925 2850 1425 
Q 2850 675 2487 312 
Q 2125 -50 1650 -50 
Q 975 -50 625 462 
Q 275 975 275 1950 
Q 275 3100 700 3712 
Q 1125 4325 1850 4325 
Q 2200 4325 2412 4125 
Q 2625 3925 2625 3775 
Q 2625 3625 2562 3550 
Q 2500 3475 2350 3475 
Q 2225 3475 2162 3537 
Q 2100 3600 2100 3725 
Q 2100 3775 2112 3825 
Q 2125 3875 2125 3925 
Q 2125 4025 2050 4087 
Q 1975 4150 1775 4150 
Q 1350 4150 1050 3762 
Q 750 3375 750 2075 
Q 900 2400 1162 2562 
Q 1425 2725 1725 2725 
z
" transform="scale(0.015625)"/>
       </defs>
       <use xlink:href="#FangSong-36"/>
       <use xlink:href="#FangSong-30" x="50"/>
       <use xlink:href="#FangSong-25" x="100"/>
      </g>
     </g>
    </g>
    <g id="ytick_5">
     <g id="line2d_11">
      <g>
       <use xlink:href="#m47b9919bda" x="57.6" y="101.952" style="stroke: #000000; stroke-width: 0.8"/>
      </g>
     </g>
     <g id="text_12">
      <!-- 80% -->
      <g transform="translate(35.6 105.448094) scale(0.1 -0.1)">
       <defs>
        <path id="FangSong-38" d="M 600 1025 
Q 600 625 862 375 
Q 1125 125 1525 125 
Q 2000 125 2212 375 
Q 2425 625 2425 1000 
Q 2425 1325 2125 1625 
Q 1825 1925 1225 2175 
Q 925 1975 762 1675 
Q 600 1375 600 1025 
z
M 2800 1075 
Q 2800 600 2450 275 
Q 2100 -50 1525 -50 
Q 1000 -50 625 275 
Q 250 600 250 1025 
Q 250 1450 462 1750 
Q 675 2050 1075 2275 
Q 725 2450 537 2712 
Q 350 2975 350 3300 
Q 350 3725 675 4025 
Q 1000 4325 1575 4325 
Q 2100 4325 2425 4025 
Q 2750 3725 2750 3300 
Q 2750 3000 2562 2737 
Q 2375 2475 1975 2275 
Q 2400 2025 2600 1725 
Q 2800 1425 2800 1075 
z
M 2400 3275 
Q 2400 3625 2200 3887 
Q 2000 4150 1575 4150 
Q 1100 4150 900 3900 
Q 700 3650 700 3375 
Q 700 3100 987 2837 
Q 1275 2575 1800 2375 
Q 2100 2525 2250 2750 
Q 2400 2975 2400 3275 
z
" transform="scale(0.015625)"/>
       </defs>
       <use xlink:href="#FangSong-38"/>
       <use xlink:href="#FangSong-30" x="50"/>
       <use xlink:href="#FangSong-25" x="100"/>
      </g>
     </g>
    </g>
    <g id="ytick_6">
     <g id="line2d_12">
      <g>
       <use xlink:href="#m47b9919bda" x="57.6" y="53.568" style="stroke: #000000; stroke-width: 0.8"/>
      </g>
     </g>
     <g id="text_13">
      <!-- 100% -->
      <g transform="translate(30.6 57.064094) scale(0.1 -0.1)">
       <use xlink:href="#FangSong-31"/>
       <use xlink:href="#FangSong-30" x="50"/>
       <use xlink:href="#FangSong-30" x="100"/>
       <use xlink:href="#FangSong-25" x="150"/>
      </g>
     </g>
    </g>
    <g id="text_14">
     <!-- 累计完成比例 -->
     <g transform="translate(25.154688 204.528) rotate(-90) scale(0.1 -0.1)">
      <defs>
       <path id="FangSong-7d2f" d="M 4525 4975 
L 4700 5225 
L 5000 4950 
L 4825 4775 
L 4625 3550 
L 4850 3300 
L 3175 3150 
L 3375 2975 
Q 3200 2925 2862 2725 
Q 2525 2525 2075 2275 
L 3475 2500 
Q 3750 2675 3900 2800 
Q 4050 2925 4100 3075 
L 4175 3100 
L 4325 2700 
Q 4200 2675 3500 2237 
Q 2800 1800 2275 1550 
L 4375 1825 
L 3900 2175 
L 4000 2275 
Q 4625 1900 4950 1725 
Q 4975 1475 4925 1225 
Q 4800 1375 4500 1675 
L 3250 1475 
L 3525 1300 
Q 3375 1200 3375 875 
L 3375 25 
Q 3375 -325 3225 -625 
Q 2975 -325 2400 150 
L 2450 250 
L 3050 -75 
Q 3150 -125 3150 0 
L 3150 925 
Q 3150 1300 3125 1450 
Q 1875 1275 1575 1175 
L 1325 1425 
L 1850 1550 
Q 2175 1700 3250 2300 
Q 2075 2100 1875 2000 
L 1575 2250 
L 1800 2300 
Q 2150 2475 3025 3125 
L 2000 3025 
Q 2000 2675 1950 2700 
Q 1900 2725 1650 3025 
Q 1725 3250 1725 3425 
L 1650 4400 
Q 1625 4675 1525 4950 
L 1625 5000 
L 1875 4675 
L 4525 4975 
z
M 3150 3375 
L 3150 3875 
Q 2525 3800 2400 3725 
L 2100 3975 
Q 2500 3975 3150 4075 
L 3150 4600 
L 1900 4450 
L 1975 3250 
L 3150 3375 
z
M 3375 4100 
Q 3950 4175 4025 4225 
L 4275 4000 
Q 3950 3975 3375 3900 
L 3375 3400 
L 4400 3500 
L 4575 4750 
L 3375 4600 
L 3375 4100 
z
M 5450 -75 
Q 4975 325 3875 1025 
L 3950 1125 
Q 4850 700 5350 500 
Q 5425 250 5450 -75 
z
M 800 -250 
Q 1350 75 1825 500 
Q 2300 925 2325 1125 
L 2400 1150 
L 2550 725 
Q 2425 700 2075 425 
Q 1725 150 875 -350 
L 800 -250 
z
" transform="scale(0.015625)"/>
       <path id="FangSong-8ba1" d="M 4075 4200 
Q 4100 4825 3900 5100 
L 3975 5150 
L 4450 4725 
Q 4275 4600 4300 4200 
L 4275 3000 
Q 5525 3200 5575 3250 
L 5950 2950 
Q 5725 2975 4275 2800 
L 4250 -425 
Q 4250 -700 4150 -575 
L 3875 -150 
Q 4050 50 4025 300 
L 4050 2750 
Q 2975 2625 2900 2575 
L 2525 2825 
Q 2850 2825 4050 2975 
L 4075 4200 
z
M 1775 3250 
L 2100 2950 
L 1900 2750 
L 1875 550 
L 2825 1250 
L 2875 1175 
Q 1875 250 1750 -25 
L 1525 275 
Q 1625 375 1650 625 
L 1675 2775 
Q 900 2625 750 2550 
L 425 2800 
Q 850 2825 1650 3000 
L 1775 3250 
z
M 2025 3800 
Q 1825 4300 1325 4950 
L 1375 5025 
Q 1925 4575 2175 4300 
Q 2125 4000 2025 3800 
z
" transform="scale(0.015625)"/>
       <path id="FangSong-5b8c" d="M 5375 2050 
Q 4925 2050 3550 1950 
L 3850 1750 
Q 3725 1600 3700 1375 
L 3675 275 
Q 3650 -125 4075 -175 
L 4925 -175 
Q 5300 -150 5312 62 
Q 5325 275 5325 1025 
L 5425 1025 
Q 5450 750 5475 337 
Q 5500 -75 5700 -275 
Q 5400 -375 5000 -400 
L 4075 -400 
Q 3425 -350 3425 150 
L 3475 1450 
Q 3475 1775 3425 1925 
L 2675 1850 
L 2875 1650 
Q 2750 1550 2600 1200 
Q 2450 850 2025 312 
Q 1600 -225 600 -675 
L 550 -575 
Q 1525 -100 1987 625 
Q 2450 1350 2525 1850 
Q 1550 1775 1500 1725 
L 1150 2025 
Q 1625 2025 3212 2150 
Q 4800 2275 5000 2350 
L 5375 2050 
z
M 1650 3650 
Q 1550 3125 1325 2875 
L 1150 3250 
Q 1450 3425 1575 4400 
L 1675 4400 
L 1675 3900 
L 5025 4150 
L 5175 4400 
L 5525 4075 
Q 5375 4050 4725 3250 
L 4650 3325 
L 4975 3900 
L 1650 3650 
z
M 4475 2975 
Q 4225 2975 3412 2875 
Q 2600 2775 2400 2725 
L 2050 2975 
Q 2575 2975 3200 3075 
Q 3825 3175 4150 3225 
L 4475 2975 
z
M 3550 4575 
Q 3475 4350 3300 4150 
Q 3225 4475 2900 5200 
L 2975 5250 
Q 3350 4825 3550 4575 
z
" transform="scale(0.015625)"/>
       <path id="FangSong-6210" d="M 5575 975 
Q 5600 -150 5750 -625 
Q 4650 -225 4000 1075 
Q 3625 650 2975 225 
L 2925 325 
Q 3525 825 3900 1300 
Q 3600 2275 3500 3300 
L 1875 3125 
Q 1875 2625 1825 2100 
L 2725 2250 
L 2875 2475 
L 3175 2225 
L 3000 2050 
Q 2850 475 2575 -125 
Q 2225 400 1825 775 
L 1875 850 
L 2475 400 
Q 2650 875 2750 2000 
L 1825 1850 
Q 1675 250 600 -650 
L 525 -600 
Q 1250 250 1425 987 
Q 1600 1725 1625 2612 
Q 1650 3500 1550 3800 
L 1625 3825 
L 1850 3350 
L 3450 3525 
Q 3400 4150 3375 4562 
Q 3350 4975 3225 5200 
L 3275 5225 
L 3725 4900 
Q 3625 4925 3637 4575 
Q 3650 4225 3675 3550 
Q 4900 3700 5050 3775 
L 5325 3475 
Q 4775 3475 3725 3325 
Q 3775 2425 4075 1525 
Q 4500 2025 4687 2325 
Q 4875 2625 4800 2850 
L 4875 2875 
L 5125 2325 
Q 5075 2400 4850 2125 
Q 4625 1850 4150 1275 
Q 4625 225 5425 -125 
L 5475 975 
L 5575 975 
z
M 4100 5000 
Q 4525 4700 4875 4450 
Q 4825 4250 4750 4025 
Q 4400 4525 4025 4950 
L 4100 5000 
z
" transform="scale(0.015625)"/>
       <path id="FangSong-6bd4" d="M 3500 2125 
Q 3925 2425 4487 2975 
Q 5050 3525 4950 3750 
L 5025 3775 
L 5250 3225 
Q 5175 3250 4875 3000 
Q 4575 2750 4287 2525 
Q 4000 2300 3500 1900 
L 3500 575 
Q 3475 -100 4150 -100 
L 4800 -100 
Q 5275 -100 5375 12 
Q 5475 125 5450 1350 
L 5575 1350 
Q 5600 825 5637 412 
Q 5675 0 5800 -175 
Q 5375 -325 4800 -325 
L 4150 -325 
Q 3225 -350 3275 550 
L 3275 4300 
Q 3275 4875 3150 5150 
L 3200 5200 
L 3625 4850 
Q 3475 4825 3500 4250 
L 3500 2125 
z
M 1500 2575 
Q 1900 2625 2337 2712 
Q 2775 2800 2800 2850 
L 3075 2600 
Q 2875 2575 2350 2475 
Q 1825 2375 1775 2325 
L 1500 2525 
L 1500 150 
L 2925 1075 
L 2975 1025 
Q 1550 -75 1375 -350 
L 1200 0 
Q 1275 75 1275 350 
L 1275 3925 
Q 1275 4475 1150 4750 
L 1200 4800 
L 1625 4400 
Q 1475 4375 1500 3925 
L 1500 2575 
z
" transform="scale(0.015625)"/>
       <path id="FangSong-4f8b" d="M 3050 2000 
Q 3025 1800 2975 1600 
Q 2775 1900 2525 2250 
Q 2300 1875 2025 1550 
L 1925 1625 
Q 2675 2725 2975 3975 
Q 2475 3925 2375 3875 
L 2050 4125 
Q 2375 4125 3162 4225 
Q 3950 4325 4100 4450 
L 4350 4125 
Q 4050 4150 3100 3975 
L 3300 3700 
Q 3200 3675 3125 3525 
Q 3050 3375 2925 3050 
L 3625 3150 
L 3775 3350 
L 4050 3075 
L 3875 2900 
Q 3300 825 1850 -225 
L 1800 -100 
Q 3100 975 3625 2900 
Q 3150 2825 3025 2775 
L 2875 2925 
Q 2775 2675 2575 2350 
Q 2900 2125 3050 2000 
z
M 1275 -150 
Q 1425 25 1400 225 
L 1450 3425 
Q 1025 2800 475 2225 
L 400 2325 
Q 875 2850 1450 3887 
Q 2025 4925 1925 5150 
L 2000 5175 
L 2250 4700 
Q 2200 4725 2062 4475 
Q 1925 4225 1675 3800 
L 1625 -325 
Q 1650 -675 1525 -600 
L 1275 -150 
z
M 5475 250 
Q 5475 -300 5300 -650 
Q 4900 -100 4300 375 
L 4350 475 
L 5200 -75 
Q 5250 250 5250 575 
L 5250 4350 
Q 5275 4950 5100 5150 
L 5175 5225 
L 5600 4850 
Q 5450 4775 5475 4325 
L 5475 250 
z
M 4300 1525 
Q 4400 1650 4400 1900 
L 4400 3075 
Q 4425 3525 4300 3750 
L 4350 3800 
L 4725 3450 
Q 4600 3350 4625 3025 
L 4625 1375 
Q 4625 1050 4550 1125 
L 4300 1525 
z
" transform="scale(0.015625)"/>
      </defs>
      <use xlink:href="#FangSong-7d2f"/>
      <use xlink:href="#FangSong-8ba1" x="100"/>
      <use xlink:href="#FangSong-5b8c" x="200"/>
      <use xlink:href="#FangSong-6210" x="300"/>
      <use xlink:href="#FangSong-6bd4" x="400"/>
      <use xlink:href="#FangSong-4f8b" x="500"/>
     </g>
    </g>
   </g>
   <g id="line2d_13">
    <path d="M 73.832727 295.488 
L 74.471811 217.34784 
L 75.110895 217.10592 
L 75.749979 217.10592 
L 76.389062 216.38016 
L 77.028146 215.89632 
L 77.66723 215.89632 
L 78.306314 215.41248 
L 80.223565 215.41248 
L 80.862649 214.68672 
L 81.501732 214.4448 
L 82.7799 214.4448 
L 83.418984 213.96096 
L 84.058067 213.2352 
L 85.336235 212.75136 
L 85.975319 212.0256 
L 86.614402 211.78368 
L 87.253486 211.29984 
L 87.89257 210.57408 
L 89.170737 210.09024 
L 89.809821 210.09024 
L 90.448905 209.84832 
L 91.087989 208.88064 
L 91.727072 208.88064 
L 93.00524 207.42912 
L 93.644324 206.94528 
L 94.283407 205.9776 
L 94.922491 205.25184 
L 95.561575 204.768 
L 96.839742 202.10688 
L 97.478826 201.38112 
L 98.11791 200.17152 
L 100.035161 197.26848 
L 100.674245 195.33312 
L 101.313329 194.60736 
L 101.952412 194.36544 
L 102.591496 193.39776 
L 104.508747 189.28512 
L 105.147831 188.55936 
L 105.786915 188.07552 
L 106.425999 187.34976 
L 107.065082 187.34976 
L 107.704166 185.89824 
L 108.34325 185.17248 
L 108.982334 184.93056 
L 109.621417 184.93056 
L 110.899585 183.96288 
L 111.538669 183.23712 
L 112.177752 182.9952 
L 112.816836 182.26944 
L 113.45592 181.7856 
L 114.734087 177.91488 
L 115.373171 176.70528 
L 116.012255 175.97952 
L 116.651339 175.01184 
L 117.290422 173.07648 
L 117.929506 170.65728 
L 119.846757 165.09312 
L 120.485841 164.60928 
L 121.124925 161.70624 
L 122.403092 158.8032 
L 123.042176 158.31936 
L 124.320344 156.86784 
L 124.959427 155.65824 
L 125.598511 155.1744 
L 126.237595 154.20672 
L 127.515762 152.7552 
L 128.154846 151.78752 
L 129.433014 149.36832 
L 130.072097 149.36832 
L 131.989349 145.25568 
L 132.628432 144.04608 
L 133.267516 143.0784 
L 133.9066 140.90112 
L 134.545684 140.17536 
L 135.184767 139.93344 
L 135.823851 139.20768 
L 136.462935 138.96576 
L 137.102019 138.24 
L 137.741102 137.99808 
L 138.380186 137.51424 
L 139.01927 137.27232 
L 139.658354 136.78848 
L 140.297437 136.78848 
L 141.575605 136.30464 
L 142.214689 135.33696 
L 142.853772 134.6112 
L 143.492856 134.12736 
L 144.771024 132.67584 
L 145.410107 132.67584 
L 146.688275 132.192 
L 147.327359 131.70816 
L 149.24461 129.53088 
L 151.161861 128.80512 
L 151.800945 128.32128 
L 153.079112 126.86976 
L 153.718196 126.38592 
L 154.35728 125.66016 
L 154.996364 125.41824 
L 156.913615 123.96672 
L 157.552699 122.99904 
L 158.191782 122.5152 
L 158.830866 121.78944 
L 159.46995 120.57984 
L 160.109034 120.57984 
L 160.748117 118.8864 
L 161.387201 118.16064 
L 162.026285 117.6768 
L 162.665369 116.4672 
L 163.943536 115.01568 
L 164.58262 113.80608 
L 165.860787 112.35456 
L 166.499871 112.11264 
L 167.138955 110.90304 
L 167.778039 110.17728 
L 168.417122 109.2096 
L 169.056206 108.48384 
L 169.69529 108 
L 170.334374 106.54848 
L 170.973457 106.30656 
L 171.612541 105.09696 
L 172.890709 105.09696 
L 173.529792 104.85504 
L 174.80796 103.88736 
L 175.447044 103.64544 
L 176.086127 102.91968 
L 176.725211 102.91968 
L 177.364295 102.43584 
L 178.003379 101.46816 
L 178.642462 99.5328 
L 179.281546 99.04896 
L 179.92063 97.59744 
L 180.559714 97.1136 
L 181.198797 96.38784 
L 181.837881 96.38784 
L 182.476965 96.14592 
L 183.116049 95.42016 
L 184.394216 94.93632 
L 186.950551 93.00096 
L 187.589635 92.75904 
L 190.14597 90.82368 
L 190.785054 90.82368 
L 191.424137 90.33984 
L 192.702305 88.88832 
L 193.341389 88.40448 
L 194.619556 87.92064 
L 195.25864 87.92064 
L 195.897724 87.67872 
L 197.814975 87.67872 
L 198.454059 87.4368 
L 199.093142 87.4368 
L 199.732226 86.95296 
L 200.37131 86.71104 
L 205.48398 86.71104 
L 206.123064 86.2272 
L 206.762147 85.98528 
L 207.401231 85.98528 
L 208.040315 85.25952 
L 209.957566 85.25952 
L 211.235734 84.77568 
L 211.874817 84.77568 
L 212.513901 84.04992 
L 215.70932 82.84032 
L 216.987487 82.84032 
L 217.626571 82.5984 
L 218.265655 82.11456 
L 218.904739 81.87264 
L 220.182906 81.87264 
L 220.82199 81.63072 
L 221.461074 80.90496 
L 222.739241 80.90496 
L 223.378325 80.42112 
L 224.017409 80.42112 
L 224.656492 79.45344 
L 225.295576 79.45344 
L 225.93466 79.21152 
L 226.573744 78.48576 
L 227.212827 78.00192 
L 229.769162 77.03424 
L 231.686414 77.03424 
L 232.325497 76.5504 
L 232.964581 76.5504 
L 233.603665 76.06656 
L 234.242749 76.06656 
L 235.520916 75.58272 
L 236.16 75.58272 
L 236.799084 75.3408 
L 237.438168 74.37312 
L 238.716335 73.88928 
L 239.994503 73.88928 
L 242.550838 72.9216 
L 243.829005 72.9216 
L 244.468089 72.67968 
L 245.746256 72.67968 
L 246.38534 72.43776 
L 248.941675 72.43776 
L 249.580759 72.19584 
L 250.858926 72.19584 
L 252.776178 71.47008 
L 253.415261 71.47008 
L 254.054345 71.22816 
L 254.693429 71.22816 
L 255.332513 70.74432 
L 255.971596 70.5024 
L 258.527931 70.5024 
L 259.167015 70.26048 
L 261.72335 70.26048 
L 262.362434 70.01856 
L 266.83602 70.01856 
L 267.475104 69.2928 
L 268.753271 69.2928 
L 269.392355 69.05088 
L 270.031439 69.05088 
L 270.670523 68.80896 
L 272.587774 68.80896 
L 273.226858 68.56704 
L 273.865941 68.0832 
L 275.144109 68.0832 
L 275.783193 67.35744 
L 276.422276 67.35744 
L 277.700444 66.8736 
L 278.339528 66.8736 
L 279.617695 66.38976 
L 280.256779 65.90592 
L 282.813114 65.90592 
L 284.091281 65.42208 
L 286.008533 65.42208 
L 286.647616 65.18016 
L 287.2867 65.18016 
L 287.925784 64.93824 
L 288.564868 64.93824 
L 289.843035 64.4544 
L 291.121203 64.4544 
L 291.760286 64.21248 
L 293.038454 64.21248 
L 293.677538 63.97056 
L 294.955705 63.97056 
L 295.594789 63.72864 
L 296.233873 63.72864 
L 296.872956 63.48672 
L 300.707459 63.48672 
L 301.985626 63.00288 
L 302.62471 63.00288 
L 303.263794 62.76096 
L 305.181045 62.76096 
L 305.820129 62.51904 
L 309.015548 62.51904 
L 309.654631 62.27712 
L 314.767301 62.27712 
L 315.406385 61.79328 
L 319.879971 61.79328 
L 320.519055 61.55136 
L 321.158139 61.55136 
L 321.797223 61.06752 
L 331.383479 61.06752 
L 332.661646 60.58368 
L 333.30073 60.09984 
L 334.578898 59.616 
L 337.774316 59.616 
L 338.4134 59.37408 
L 339.691568 59.37408 
L 340.969735 58.89024 
L 342.886986 58.89024 
L 343.52607 58.64832 
L 344.165154 57.68064 
L 347.360573 57.68064 
L 347.999656 57.1968 
L 364.615834 57.1968 
L 365.254918 56.95488 
L 379.31476 56.95488 
L 379.953844 56.71296 
L 382.510179 56.71296 
L 383.149263 56.22912 
L 384.42743 55.74528 
L 387.622849 55.74528 
L 388.261933 55.50336 
L 389.5401 55.50336 
L 390.179184 55.26144 
L 390.818268 55.26144 
L 392.096435 54.7776 
L 394.65277 54.7776 
L 395.291854 54.53568 
L 395.930938 54.05184 
L 396.570021 54.05184 
L 397.209105 53.80992 
L 397.848189 53.80992 
L 398.487273 53.568 
L 398.487273 53.568 
" clip-path="url(#p06e74d7cd4)" style="fill: none; stroke: #ff0000; stroke-linecap: square"/>
   </g>
   <g id="line2d_14">
    <path d="M 73.832727 295.488 
L 74.471811 208.644923 
L 75.749979 208.644923 
L 76.389062 207.404308 
L 80.223565 207.404308 
L 81.501732 204.923077 
L 85.336235 204.923077 
L 85.975319 203.682462 
L 86.614402 203.682462 
L 87.253486 202.441846 
L 87.89257 198.72 
L 88.531654 198.72 
L 89.170737 197.479385 
L 90.448905 197.479385 
L 91.087989 194.998154 
L 91.727072 194.998154 
L 93.00524 192.516923 
L 93.644324 192.516923 
L 94.283407 191.276308 
L 94.922491 188.795077 
L 95.561575 188.795077 
L 96.200659 187.554462 
L 96.839742 185.073231 
L 97.478826 181.351385 
L 98.11791 178.870154 
L 98.756994 177.629538 
L 99.396077 175.148308 
L 100.035161 175.148308 
L 100.674245 173.907692 
L 101.952412 173.907692 
L 102.591496 172.667077 
L 103.869664 167.704615 
L 104.508747 166.464 
L 105.786915 166.464 
L 106.425999 163.982769 
L 107.065082 163.982769 
L 107.704166 161.501538 
L 110.260501 161.501538 
L 111.538669 159.020308 
L 112.177752 159.020308 
L 112.816836 157.779692 
L 113.45592 157.779692 
L 114.095004 155.298462 
L 114.734087 155.298462 
L 115.373171 152.817231 
L 116.012255 152.817231 
L 117.290422 150.336 
L 117.929506 150.336 
L 118.56859 149.095385 
L 119.207674 149.095385 
L 119.846757 147.854769 
L 120.485841 147.854769 
L 121.124925 144.132923 
L 121.764009 142.892308 
L 122.403092 139.170462 
L 123.68126 136.689231 
L 124.959427 131.726769 
L 126.237595 131.726769 
L 126.876679 129.245538 
L 128.79393 129.245538 
L 129.433014 126.764308 
L 130.072097 126.764308 
L 130.711181 124.283077 
L 131.989349 121.801846 
L 133.267516 121.801846 
L 133.9066 119.320615 
L 134.545684 118.08 
L 137.102019 118.08 
L 138.380186 115.598769 
L 139.01927 115.598769 
L 139.658354 114.358154 
L 140.936521 114.358154 
L 142.214689 111.876923 
L 142.853772 109.395692 
L 144.13194 106.914462 
L 144.771024 104.433231 
L 146.688275 104.433231 
L 147.327359 103.192615 
L 151.800945 103.192615 
L 152.440029 101.952 
L 153.079112 101.952 
L 153.718196 99.470769 
L 154.35728 98.230154 
L 154.996364 98.230154 
L 155.635447 96.989538 
L 156.913615 96.989538 
L 157.552699 95.748923 
L 158.191782 95.748923 
L 158.830866 93.267692 
L 159.46995 92.027077 
L 160.109034 92.027077 
L 161.387201 87.064615 
L 162.026285 87.064615 
L 162.665369 84.583385 
L 163.943536 84.583385 
L 164.58262 83.342769 
L 165.221704 80.861538 
L 166.499871 80.861538 
L 167.138955 78.380308 
L 167.778039 78.380308 
L 168.417122 77.139692 
L 169.056206 77.139692 
L 170.334374 74.658462 
L 170.973457 74.658462 
L 171.612541 72.177231 
L 174.168876 72.177231 
L 174.80796 70.936615 
L 178.003379 70.936615 
L 178.642462 68.455385 
L 179.92063 65.974154 
L 186.311467 65.974154 
L 186.950551 64.733538 
L 187.589635 64.733538 
L 188.228719 63.492923 
L 188.867802 63.492923 
L 189.506886 62.252308 
L 191.424137 62.252308 
L 192.063221 59.771077 
L 192.702305 59.771077 
L 193.980472 57.289846 
L 197.814975 57.289846 
L 198.454059 56.049231 
L 210.59665 56.049231 
L 211.235734 54.808615 
L 252.137094 54.808615 
L 252.776178 53.568 
L 398.487273 53.568 
L 398.487273 53.568 
" clip-path="url(#p06e74d7cd4)" style="fill: none; stroke-dasharray: 1.85,0.8; stroke-dashoffset: 0; stroke: #008000; stroke-width: 0.5"/>
   </g>
   <g id="line2d_15">
    <path d="M 73.832727 295.488 
L 74.471811 215.67934 
L 75.110895 214.43233 
L 77.66723 214.43233 
L 78.306314 213.18532 
L 80.223565 213.18532 
L 80.862649 210.691299 
L 82.7799 210.691299 
L 83.418984 209.444289 
L 84.058067 209.444289 
L 84.697151 208.197278 
L 85.336235 208.197278 
L 85.975319 205.703258 
L 87.89257 205.703258 
L 88.531654 204.456247 
L 89.809821 204.456247 
L 90.448905 203.209237 
L 91.727072 203.209237 
L 93.644324 199.468206 
L 94.283407 199.468206 
L 94.922491 198.221196 
L 96.200659 193.233155 
L 98.11791 193.233155 
L 98.756994 191.986144 
L 99.396077 191.986144 
L 100.035161 190.739134 
L 100.674245 190.739134 
L 101.313329 188.245113 
L 101.952412 188.245113 
L 102.591496 185.751093 
L 103.869664 183.257072 
L 104.508747 183.257072 
L 105.147831 182.010062 
L 107.065082 182.010062 
L 108.982334 178.269031 
L 112.177752 178.269031 
L 112.816836 177.022021 
L 113.45592 174.528 
L 114.095004 174.528 
L 114.734087 169.539959 
L 116.012255 169.539959 
L 117.290422 167.045938 
L 117.929506 163.304907 
L 118.56859 162.057897 
L 119.207674 159.563876 
L 120.485841 157.069856 
L 121.124925 157.069856 
L 122.403092 154.575835 
L 123.042176 154.575835 
L 123.68126 152.081814 
L 124.320344 152.081814 
L 125.598511 147.093773 
L 126.237595 145.846763 
L 126.876679 145.846763 
L 128.79393 142.105732 
L 130.072097 142.105732 
L 130.711181 140.858722 
L 132.628432 140.858722 
L 133.267516 139.611711 
L 135.184767 139.611711 
L 135.823851 137.117691 
L 136.462935 137.117691 
L 137.102019 135.87068 
L 141.575605 135.87068 
L 142.214689 133.37666 
L 142.853772 132.129649 
L 146.049191 132.129649 
L 147.327359 129.635629 
L 147.966442 127.141608 
L 148.605526 125.894598 
L 149.24461 123.400577 
L 152.440029 123.400577 
L 153.079112 122.153567 
L 153.718196 122.153567 
L 154.35728 119.659546 
L 154.996364 118.412536 
L 155.635447 118.412536 
L 156.274531 115.918515 
L 158.191782 112.177485 
L 158.830866 112.177485 
L 159.46995 108.436454 
L 160.109034 108.436454 
L 160.748117 105.942433 
L 161.387201 105.942433 
L 164.58262 99.707381 
L 165.221704 99.707381 
L 165.860787 98.460371 
L 166.499871 98.460371 
L 167.138955 97.213361 
L 167.778039 97.213361 
L 168.417122 94.71934 
L 169.69529 94.71934 
L 170.334374 92.22532 
L 173.529792 92.22532 
L 176.086127 87.237278 
L 177.364295 87.237278 
L 178.003379 83.496247 
L 179.281546 83.496247 
L 179.92063 82.249237 
L 181.837881 82.249237 
L 182.476965 81.002227 
L 183.116049 81.002227 
L 183.755132 79.755216 
L 185.672384 79.755216 
L 186.311467 78.508206 
L 190.785054 78.508206 
L 191.424137 77.261196 
L 192.063221 77.261196 
L 192.702305 74.767175 
L 193.341389 73.520165 
L 207.401231 73.520165 
L 208.040315 72.273155 
L 211.874817 72.273155 
L 213.152985 69.779134 
L 216.987487 69.779134 
L 217.626571 68.532124 
L 220.182906 68.532124 
L 220.82199 67.285113 
L 222.739241 67.285113 
L 223.378325 66.038103 
L 224.017409 66.038103 
L 224.656492 64.791093 
L 225.295576 64.791093 
L 225.93466 63.544082 
L 231.686414 63.544082 
L 232.325497 62.297072 
L 236.799084 62.297072 
L 237.438168 61.050062 
L 248.941675 61.050062 
L 249.580759 59.803052 
L 250.858926 59.803052 
L 252.137094 57.309031 
L 254.693429 57.309031 
L 255.332513 54.81501 
L 305.181045 54.81501 
L 305.820129 53.568 
L 398.487273 53.568 
L 398.487273 53.568 
" clip-path="url(#p06e74d7cd4)" style="fill: none; stroke-dasharray: 1.85,0.8; stroke-dashoffset: 0; stroke: #0000ff; stroke-width: 0.5"/>
   </g>
   <g id="line2d_16">
    <path d="M 73.832727 295.488 
L 74.471811 206.163692 
L 75.749979 206.163692 
L 77.028146 203.682462 
L 83.418984 203.682462 
L 84.058067 202.441846 
L 84.697151 202.441846 
L 85.336235 201.201231 
L 85.975319 201.201231 
L 87.253486 198.72 
L 90.448905 198.72 
L 91.087989 197.479385 
L 91.727072 197.479385 
L 92.366156 196.238769 
L 93.644324 196.238769 
L 94.283407 194.998154 
L 95.561575 194.998154 
L 96.200659 192.516923 
L 97.478826 192.516923 
L 99.396077 185.073231 
L 100.674245 177.629538 
L 101.952412 177.629538 
L 102.591496 176.388923 
L 103.23058 173.907692 
L 103.869664 172.667077 
L 104.508747 168.945231 
L 105.147831 167.704615 
L 107.065082 167.704615 
L 107.704166 163.982769 
L 108.34325 162.742154 
L 109.621417 162.742154 
L 110.260501 160.260923 
L 110.899585 160.260923 
L 111.538669 157.779692 
L 112.177752 157.779692 
L 112.816836 156.539077 
L 113.45592 156.539077 
L 114.095004 151.576615 
L 114.734087 150.336 
L 115.373171 150.336 
L 116.012255 147.854769 
L 116.651339 147.854769 
L 117.290422 145.373538 
L 117.929506 144.132923 
L 118.56859 140.411077 
L 119.207674 140.411077 
L 119.846757 137.929846 
L 120.485841 137.929846 
L 121.124925 132.967385 
L 124.320344 132.967385 
L 124.959427 131.726769 
L 125.598511 131.726769 
L 126.876679 129.245538 
L 127.515762 126.764308 
L 128.154846 125.523692 
L 128.79393 123.042462 
L 129.433014 119.320615 
L 130.072097 119.320615 
L 131.989349 111.876923 
L 132.628432 108.155077 
L 133.267516 106.914462 
L 133.9066 103.192615 
L 134.545684 100.711385 
L 137.741102 100.711385 
L 138.380186 99.470769 
L 141.575605 99.470769 
L 142.214689 98.230154 
L 143.492856 98.230154 
L 144.13194 95.748923 
L 145.410107 95.748923 
L 146.049191 94.508308 
L 147.966442 94.508308 
L 148.605526 92.027077 
L 149.24461 92.027077 
L 149.883694 90.786462 
L 154.996364 90.786462 
L 155.635447 89.545846 
L 156.274531 89.545846 
L 156.913615 88.305231 
L 158.830866 88.305231 
L 159.46995 87.064615 
L 160.109034 87.064615 
L 160.748117 85.824 
L 162.665369 85.824 
L 163.304452 83.342769 
L 165.221704 79.620923 
L 165.860787 77.139692 
L 167.138955 77.139692 
L 167.778039 74.658462 
L 168.417122 73.417846 
L 175.447044 73.417846 
L 176.086127 70.936615 
L 176.725211 70.936615 
L 177.364295 69.696 
L 178.003379 69.696 
L 178.642462 65.974154 
L 179.281546 65.974154 
L 179.92063 64.733538 
L 184.394216 64.733538 
L 185.0333 63.492923 
L 187.589635 63.492923 
L 188.228719 62.252308 
L 188.867802 59.771077 
L 190.14597 57.289846 
L 192.063221 57.289846 
L 192.702305 56.049231 
L 199.093142 56.049231 
L 199.732226 53.568 
L 398.487273 53.568 
L 398.487273 53.568 
" clip-path="url(#p06e74d7cd4)" style="fill: none; stroke-dasharray: 1.85,0.8; stroke-dashoffset: 0; stroke: #bf00bf; stroke-width: 0.5"/>
   </g>
   <g id="line2d_17">
    <path d="M 73.832727 295.488 
L 74.471811 212.06731 
L 75.749979 212.06731 
L 76.389062 211.140414 
L 77.66723 211.140414 
L 78.306314 210.213517 
L 82.7799 210.213517 
L 84.058067 208.359724 
L 90.448905 208.359724 
L 91.087989 207.432828 
L 92.366156 207.432828 
L 93.644324 205.579034 
L 94.283407 203.725241 
L 95.561575 203.725241 
L 96.200659 202.798345 
L 96.839742 200.017655 
L 97.478826 200.017655 
L 98.11791 199.090759 
L 100.035161 199.090759 
L 100.674245 195.383172 
L 101.952412 193.529379 
L 102.591496 193.529379 
L 103.23058 192.602483 
L 103.869664 190.74869 
L 105.786915 187.968 
L 107.704166 187.968 
L 108.34325 187.041103 
L 110.260501 187.041103 
L 110.899585 186.114207 
L 111.538669 186.114207 
L 112.177752 185.18731 
L 113.45592 185.18731 
L 114.734087 181.479724 
L 115.373171 178.699034 
L 116.012255 177.772138 
L 116.651339 175.918345 
L 117.290422 172.210759 
L 117.929506 167.576276 
L 118.56859 166.649379 
L 119.207674 162.014897 
L 119.846757 160.161103 
L 120.485841 159.234207 
L 121.124925 155.526621 
L 121.764009 152.745931 
L 122.403092 150.892138 
L 127.515762 150.892138 
L 128.79393 149.038345 
L 130.072097 149.038345 
L 130.711181 148.111448 
L 133.267516 140.696276 
L 133.9066 137.915586 
L 134.545684 137.915586 
L 137.102019 134.208 
L 138.380186 134.208 
L 139.658354 132.354207 
L 140.297437 132.354207 
L 140.936521 131.42731 
L 142.853772 131.42731 
L 143.492856 130.500414 
L 144.13194 130.500414 
L 144.771024 129.573517 
L 147.327359 129.573517 
L 147.966442 128.646621 
L 149.883694 128.646621 
L 151.800945 125.865931 
L 153.079112 122.158345 
L 156.913615 122.158345 
L 157.552699 120.304552 
L 158.191782 120.304552 
L 158.830866 119.377655 
L 160.109034 119.377655 
L 160.748117 117.523862 
L 162.026285 115.670069 
L 162.665369 113.816276 
L 163.304452 113.816276 
L 163.943536 112.889379 
L 164.58262 111.035586 
L 165.860787 111.035586 
L 166.499871 110.10869 
L 167.138955 108.254897 
L 168.417122 108.254897 
L 169.056206 106.401103 
L 169.69529 105.474207 
L 170.334374 103.620414 
L 170.973457 103.620414 
L 171.612541 101.766621 
L 176.725211 101.766621 
L 178.003379 99.912828 
L 178.642462 97.132138 
L 179.92063 95.278345 
L 181.198797 91.570759 
L 182.476965 91.570759 
L 183.116049 89.716966 
L 183.755132 89.716966 
L 185.0333 87.863172 
L 186.311467 87.863172 
L 187.589635 86.009379 
L 189.506886 86.009379 
L 190.14597 85.082483 
L 191.424137 85.082483 
L 192.063221 84.155586 
L 195.25864 84.155586 
L 195.897724 83.22869 
L 199.732226 83.22869 
L 200.37131 82.301793 
L 205.48398 82.301793 
L 206.762147 80.448 
L 207.401231 80.448 
L 208.040315 79.521103 
L 209.957566 79.521103 
L 210.59665 78.594207 
L 211.874817 78.594207 
L 212.513901 77.66731 
L 224.017409 77.66731 
L 224.656492 76.740414 
L 225.93466 76.740414 
L 227.851911 73.959724 
L 228.490995 73.959724 
L 229.769162 72.105931 
L 231.686414 72.105931 
L 232.325497 71.179034 
L 232.964581 71.179034 
L 233.603665 70.252138 
L 234.242749 70.252138 
L 234.881832 69.325241 
L 236.799084 69.325241 
L 237.438168 67.471448 
L 239.994503 67.471448 
L 241.27267 65.617655 
L 245.746256 65.617655 
L 246.38534 64.690759 
L 255.332513 64.690759 
L 255.971596 63.763862 
L 258.527931 63.763862 
L 259.167015 62.836966 
L 266.83602 62.836966 
L 267.475104 61.910069 
L 270.031439 61.910069 
L 270.670523 60.983172 
L 287.2867 60.983172 
L 287.925784 60.056276 
L 288.564868 60.056276 
L 289.203951 59.129379 
L 296.233873 59.129379 
L 296.872956 58.202483 
L 300.707459 58.202483 
L 301.985626 56.34869 
L 314.767301 56.34869 
L 315.406385 55.421793 
L 319.879971 55.421793 
L 320.519055 54.494897 
L 347.360573 54.494897 
L 347.999656 53.568 
L 398.487273 53.568 
L 398.487273 53.568 
" clip-path="url(#p06e74d7cd4)" style="fill: none; stroke-dasharray: 1.85,0.8; stroke-dashoffset: 0; stroke: #bfbf00; stroke-width: 0.5"/>
   </g>
   <g id="line2d_18">
    <path d="M 73.832727 295.488 
L 74.471811 253.347097 
L 76.389062 253.347097 
L 77.028146 251.786323 
L 83.418984 251.786323 
L 84.058067 250.225548 
L 105.147831 250.225548 
L 106.425999 247.104 
L 114.095004 247.104 
L 114.734087 245.543226 
L 117.290422 245.543226 
L 117.929506 243.982452 
L 118.56859 240.860903 
L 119.846757 237.739355 
L 120.485841 237.739355 
L 121.764009 234.617806 
L 122.403092 234.617806 
L 123.042176 233.057032 
L 123.68126 233.057032 
L 124.320344 231.496258 
L 125.598511 231.496258 
L 126.237595 228.37471 
L 127.515762 228.37471 
L 128.79393 225.253161 
L 131.350265 225.253161 
L 131.989349 223.692387 
L 133.267516 223.692387 
L 133.9066 222.131613 
L 136.462935 222.131613 
L 137.102019 220.570839 
L 148.605526 220.570839 
L 149.24461 219.010065 
L 151.161861 219.010065 
L 151.800945 217.44929 
L 157.552699 217.44929 
L 158.191782 215.888516 
L 167.138955 215.888516 
L 167.778039 214.327742 
L 168.417122 214.327742 
L 169.056206 212.766968 
L 169.69529 212.766968 
L 171.612541 208.084645 
L 172.890709 208.084645 
L 174.168876 204.963097 
L 179.281546 204.963097 
L 179.92063 201.841548 
L 180.559714 201.841548 
L 181.198797 200.280774 
L 182.476965 200.280774 
L 183.116049 198.72 
L 185.0333 198.72 
L 185.672384 195.598452 
L 186.311467 194.037677 
L 190.785054 194.037677 
L 191.424137 192.476903 
L 193.980472 192.476903 
L 194.619556 190.916129 
L 205.48398 190.916129 
L 206.123064 189.355355 
L 207.401231 189.355355 
L 208.040315 187.794581 
L 211.874817 187.794581 
L 212.513901 186.233806 
L 213.152985 186.233806 
L 215.70932 179.99071 
L 217.626571 179.99071 
L 218.265655 176.869161 
L 218.904739 175.308387 
L 220.82199 175.308387 
L 221.461074 170.626065 
L 222.739241 170.626065 
L 223.378325 169.06529 
L 224.017409 169.06529 
L 224.656492 165.943742 
L 225.93466 165.943742 
L 226.573744 162.822194 
L 227.212827 161.261419 
L 227.851911 161.261419 
L 228.490995 159.700645 
L 232.964581 159.700645 
L 233.603665 158.139871 
L 234.881832 158.139871 
L 235.520916 156.579097 
L 236.16 156.579097 
L 238.716335 150.336 
L 241.27267 150.336 
L 242.550838 147.214452 
L 243.829005 147.214452 
L 244.468089 145.653677 
L 253.415261 145.653677 
L 254.054345 144.092903 
L 261.72335 144.092903 
L 262.362434 142.532129 
L 266.83602 142.532129 
L 267.475104 139.410581 
L 268.753271 139.410581 
L 269.392355 137.849806 
L 272.587774 137.849806 
L 273.226858 136.289032 
L 273.865941 133.167484 
L 275.144109 133.167484 
L 275.783193 128.485161 
L 276.422276 128.485161 
L 277.700444 125.363613 
L 278.339528 125.363613 
L 279.617695 122.242065 
L 280.256779 119.120516 
L 282.813114 119.120516 
L 284.091281 115.998968 
L 286.008533 115.998968 
L 286.647616 114.438194 
L 289.203951 114.438194 
L 289.843035 112.877419 
L 291.121203 112.877419 
L 291.760286 111.316645 
L 293.038454 111.316645 
L 293.677538 109.755871 
L 294.955705 109.755871 
L 295.594789 108.195097 
L 302.62471 108.195097 
L 303.263794 106.634323 
L 309.015548 106.634323 
L 309.654631 105.073548 
L 314.767301 105.073548 
L 315.406385 103.512774 
L 321.158139 103.512774 
L 321.797223 100.391226 
L 331.383479 100.391226 
L 332.661646 97.269677 
L 333.30073 94.148129 
L 334.578898 91.026581 
L 337.774316 91.026581 
L 338.4134 89.465806 
L 339.691568 89.465806 
L 340.969735 86.344258 
L 342.886986 86.344258 
L 343.52607 84.783484 
L 344.165154 78.540387 
L 347.360573 78.540387 
L 347.999656 76.979613 
L 364.615834 76.979613 
L 365.254918 75.418839 
L 379.31476 75.418839 
L 379.953844 73.858065 
L 382.510179 73.858065 
L 383.149263 70.736516 
L 384.42743 67.614968 
L 387.622849 67.614968 
L 388.261933 66.054194 
L 389.5401 66.054194 
L 390.179184 64.493419 
L 390.818268 64.493419 
L 392.096435 61.371871 
L 394.65277 61.371871 
L 395.291854 59.811097 
L 395.930938 56.689548 
L 396.570021 56.689548 
L 397.209105 55.128774 
L 397.848189 55.128774 
L 398.487273 53.568 
L 398.487273 53.568 
" clip-path="url(#p06e74d7cd4)" style="fill: none; stroke-dasharray: 1.85,0.8; stroke-dashoffset: 0; stroke: #000000; stroke-width: 0.5"/>
   </g>
   <g id="patch_3">
    <path d="M 57.6 307.584 
L 57.6 41.472 
" style="fill: none; stroke: #000000; stroke-width: 0.8; stroke-linejoin: miter; stroke-linecap: square"/>
   </g>
   <g id="patch_4">
    <path d="M 414.72 307.584 
L 414.72 41.472 
" style="fill: none; stroke: #000000; stroke-width: 0.8; stroke-linejoin: miter; stroke-linecap: square"/>
   </g>
   <g id="patch_5">
    <path d="M 57.6 307.584 
L 414.72 307.584 
" style="fill: none; stroke: #000000; stroke-width: 0.8; stroke-linejoin: miter; stroke-linecap: square"/>
   </g>
   <g id="patch_6">
    <path d="M 57.6 41.472 
L 414.72 41.472 
" style="fill: none; stroke: #000000; stroke-width: 0.8; stroke-linejoin: miter; stroke-linecap: square"/>
   </g>
   <g id="text_15">
    <!-- count=1000, googlenet=150, resnet50=112, squeezenetv1=150, vgg19=187, yolov2=150 -->
    <g transform="translate(-3.84 35.472) scale(0.12 -0.12)">
     <defs>
      <path id="FangSong-6f" d="M 2875 1400 
Q 2875 775 2500 362 
Q 2125 -50 1575 -50 
Q 1000 -50 637 375 
Q 275 800 275 1400 
Q 275 1950 637 2400 
Q 1000 2850 1575 2850 
Q 2175 2850 2525 2400 
Q 2875 1950 2875 1400 
z
M 675 1375 
Q 675 725 937 412 
Q 1200 100 1575 100 
Q 2000 100 2237 437 
Q 2475 775 2475 1375 
Q 2475 2025 2212 2362 
Q 1950 2700 1575 2700 
Q 1225 2700 950 2362 
Q 675 2025 675 1375 
z
" transform="scale(0.015625)"/>
      <path id="FangSong-75" d="M 1425 225 
Q 1725 225 1937 375 
Q 2150 525 2250 850 
L 2250 2425 
Q 2250 2525 2200 2587 
Q 2150 2650 2025 2650 
L 1875 2650 
L 1875 2800 
L 2025 2800 
Q 2175 2800 2300 2825 
Q 2425 2850 2550 2950 
L 2600 2950 
L 2600 500 
Q 2600 400 2662 350 
Q 2725 300 2825 300 
L 2975 300 
L 2975 150 
L 2825 150 
Q 2700 150 2575 112 
Q 2450 75 2300 0 
L 2250 0 
L 2250 525 
Q 2125 250 1875 112 
Q 1625 -25 1300 -25 
Q 900 -25 700 200 
Q 500 425 500 925 
L 500 2425 
Q 500 2525 450 2587 
Q 400 2650 275 2650 
L 125 2650 
L 125 2800 
L 275 2800 
Q 425 2800 550 2825 
Q 675 2850 800 2950 
L 850 2950 
L 850 875 
Q 850 525 1000 375 
Q 1150 225 1425 225 
z
" transform="scale(0.015625)"/>
      <path id="FangSong-3d" d="M 175 2725 
L 175 2950 
L 2950 2950 
L 2950 2725 
L 175 2725 
z
M 175 1450 
L 175 1675 
L 2950 1675 
L 2950 1450 
L 175 1450 
z
" transform="scale(0.015625)"/>
      <path id="FangSong-2c" d="M 1325 75 
Q 1200 25 1100 75 
Q 1000 125 962 237 
Q 925 350 925 437 
Q 925 525 987 612 
Q 1050 700 1150 737 
Q 1250 775 1425 725 
Q 1600 675 1650 500 
Q 1700 325 1662 150 
Q 1625 -25 1525 -200 
Q 1425 -375 1312 -475 
Q 1200 -575 1025 -675 
L 950 -575 
Q 1100 -450 1187 -312 
Q 1275 -175 1325 75 
z
" transform="scale(0.015625)"/>
      <path id="FangSong-20" transform="scale(0.015625)"/>
      <path id="FangSong-67" d="M 850 1875 
Q 850 1575 1025 1362 
Q 1200 1150 1500 1150 
Q 1825 1150 1987 1337 
Q 2150 1525 2150 1875 
Q 2150 2300 1962 2487 
Q 1775 2675 1500 2675 
Q 1225 2675 1037 2487 
Q 850 2300 850 1875 
z
M 2075 525 
Q 2450 475 2625 312 
Q 2800 150 2800 -125 
Q 2800 -500 2487 -725 
Q 2175 -950 1500 -950 
Q 975 -950 650 -737 
Q 325 -525 325 -250 
Q 325 -75 450 100 
Q 575 275 850 375 
Q 700 450 612 537 
Q 525 625 525 750 
Q 525 900 625 1012 
Q 725 1125 875 1200 
Q 725 1325 612 1500 
Q 500 1675 500 1875 
Q 500 2250 762 2537 
Q 1025 2825 1500 2825 
Q 1700 2825 1887 2775 
Q 2075 2725 2200 2600 
Q 2375 2725 2512 2787 
Q 2650 2850 2750 2850 
Q 2875 2850 2925 2762 
Q 2975 2675 2975 2600 
Q 2975 2500 2937 2437 
Q 2900 2375 2800 2375 
Q 2725 2375 2675 2412 
Q 2625 2450 2600 2525 
Q 2575 2600 2487 2587 
Q 2400 2575 2300 2500 
Q 2400 2400 2450 2225 
Q 2500 2050 2500 1875 
Q 2500 1575 2262 1287 
Q 2025 1000 1500 1000 
Q 1350 1000 1225 1037 
Q 1100 1075 1025 1125 
Q 925 1075 875 1000 
Q 825 925 825 875 
Q 825 775 875 725 
Q 925 675 1025 675 
Q 1350 625 1612 587 
Q 1875 550 2075 525 
z
M 1050 325 
Q 825 225 737 87 
Q 650 -50 650 -250 
Q 650 -450 875 -625 
Q 1100 -800 1550 -800 
Q 1975 -800 2225 -662 
Q 2475 -525 2475 -250 
Q 2475 -75 2412 25 
Q 2350 125 2225 150 
Q 1975 200 1675 237 
Q 1375 275 1050 325 
z
" transform="scale(0.015625)"/>
      <path id="FangSong-6c" d="M 900 4275 
Q 1125 4275 1325 4325 
Q 1525 4375 1700 4475 
L 1750 4475 
L 1750 350 
Q 1750 250 1812 200 
Q 1875 150 1975 150 
L 2550 150 
L 2550 0 
L 600 0 
L 600 150 
L 1175 150 
Q 1300 150 1350 200 
Q 1400 250 1400 350 
L 1400 3925 
Q 1400 4025 1350 4075 
Q 1300 4125 1175 4125 
L 625 4125 
L 625 4275 
L 900 4275 
z
" transform="scale(0.015625)"/>
      <path id="FangSong-72" d="M 1250 2025 
Q 1500 2425 1787 2637 
Q 2075 2850 2375 2850 
Q 2625 2850 2762 2737 
Q 2900 2625 2900 2475 
Q 2900 2350 2837 2275 
Q 2775 2200 2650 2200 
Q 2525 2200 2462 2275 
Q 2400 2350 2425 2475 
Q 2425 2550 2400 2600 
Q 2375 2650 2250 2650 
Q 2050 2650 1762 2400 
Q 1475 2150 1250 1700 
L 1250 350 
Q 1250 250 1312 200 
Q 1375 150 1475 150 
L 2025 150 
L 2025 0 
L 175 0 
L 175 150 
L 675 150 
Q 800 150 850 200 
Q 900 250 900 350 
L 900 2425 
Q 900 2525 850 2587 
Q 800 2650 675 2650 
L 200 2650 
L 200 2800 
L 400 2800 
Q 575 2800 812 2837 
Q 1050 2875 1175 2925 
L 1250 2925 
L 1250 2025 
z
" transform="scale(0.015625)"/>
      <path id="FangSong-73" d="M 600 2075 
Q 600 2450 887 2650 
Q 1175 2850 1575 2850 
Q 1800 2850 2000 2787 
Q 2200 2725 2275 2725 
Q 2350 2725 2400 2750 
Q 2450 2775 2525 2850 
L 2625 2025 
L 2475 2000 
Q 2375 2325 2137 2512 
Q 1900 2700 1600 2700 
Q 1275 2700 1087 2575 
Q 900 2450 900 2225 
Q 900 2025 987 1912 
Q 1075 1800 1300 1750 
Q 1475 1675 1737 1587 
Q 2000 1500 2225 1400 
Q 2425 1300 2562 1137 
Q 2700 975 2700 775 
Q 2700 400 2437 187 
Q 2175 -25 1675 -25 
Q 1350 -25 1187 37 
Q 1025 100 925 100 
Q 850 100 762 62 
Q 675 25 575 -25 
L 500 900 
L 650 925 
Q 725 525 975 325 
Q 1225 125 1675 125 
Q 2025 125 2212 250 
Q 2400 375 2400 625 
Q 2400 800 2300 912 
Q 2200 1025 2100 1075 
Q 1850 1175 1550 1287 
Q 1250 1400 1025 1500 
Q 800 1600 700 1750 
Q 600 1900 600 2075 
z
" transform="scale(0.015625)"/>
      <path id="FangSong-71" d="M 2250 2150 
Q 2150 2375 1975 2512 
Q 1800 2650 1550 2650 
Q 1200 2650 950 2350 
Q 700 2050 700 1325 
Q 700 700 912 437 
Q 1125 175 1450 175 
Q 1725 175 1937 300 
Q 2150 425 2250 725 
L 2250 2150 
z
M 2600 -550 
Q 2600 -675 2662 -725 
Q 2725 -775 2825 -775 
L 2975 -775 
L 2975 -925 
L 1825 -925 
L 1825 -775 
L 2025 -775 
Q 2150 -775 2200 -725 
Q 2250 -675 2250 -550 
L 2250 375 
Q 2100 175 1887 75 
Q 1675 -25 1375 -25 
Q 950 -25 625 337 
Q 300 700 300 1400 
Q 300 2075 675 2450 
Q 1050 2825 1475 2825 
Q 1750 2825 1937 2725 
Q 2125 2625 2275 2475 
L 2500 2800 
L 2600 2800 
L 2600 -550 
z
" transform="scale(0.015625)"/>
      <path id="FangSong-7a" d="M 2725 975 
L 2550 0 
L 400 0 
L 400 125 
L 2125 2650 
L 1200 2650 
Q 975 2650 825 2487 
Q 675 2325 575 1925 
L 425 1950 
L 525 2800 
L 2575 2800 
L 2575 2725 
L 825 150 
L 1775 150 
Q 2100 150 2287 350 
Q 2475 550 2575 1000 
L 2725 975 
z
" transform="scale(0.015625)"/>
      <path id="FangSong-76" d="M 1600 -25 
L 1450 -25 
L 600 2425 
Q 575 2525 500 2587 
Q 425 2650 325 2650 
L 200 2650 
L 200 2800 
L 1275 2800 
L 1275 2650 
L 1175 2650 
Q 1025 2650 987 2575 
Q 950 2500 1000 2325 
L 1600 575 
L 1650 575 
L 2250 2300 
Q 2325 2475 2262 2562 
Q 2200 2650 2050 2650 
L 2000 2650 
L 2000 2800 
L 2900 2800 
L 2900 2650 
L 2850 2650 
Q 2700 2650 2612 2562 
Q 2525 2475 2450 2300 
L 1600 -25 
z
" transform="scale(0.015625)"/>
      <path id="FangSong-39" d="M 675 2950 
Q 675 2400 887 2112 
Q 1100 1825 1425 1825 
Q 1800 1825 2075 2175 
Q 2350 2525 2350 2825 
Q 2350 3425 2150 3787 
Q 1950 4150 1500 4150 
Q 1075 4150 875 3812 
Q 675 3475 675 2950 
z
M 1350 1600 
Q 850 1600 550 1912 
Q 250 2225 250 2925 
Q 250 3525 575 3925 
Q 900 4325 1500 4325 
Q 2125 4325 2475 3825 
Q 2825 3325 2825 2375 
Q 2825 1325 2412 637 
Q 2000 -50 1275 -50 
Q 950 -50 712 100 
Q 475 250 475 500 
Q 475 600 537 700 
Q 600 800 750 800 
Q 900 800 950 687 
Q 1000 575 1000 425 
Q 1000 325 1025 262 
Q 1050 200 1075 175 
Q 1100 150 1162 137 
Q 1225 125 1300 125 
Q 1750 125 2025 625 
Q 2300 1125 2350 2300 
Q 2225 2000 1975 1800 
Q 1725 1600 1350 1600 
z
" transform="scale(0.015625)"/>
      <path id="FangSong-37" d="M 2800 4100 
Q 2275 3250 1962 2437 
Q 1650 1625 1650 1025 
Q 1650 925 1662 737 
Q 1675 550 1675 300 
Q 1675 100 1612 25 
Q 1550 -50 1400 -50 
Q 1275 -50 1187 37 
Q 1100 125 1100 350 
Q 1100 825 1312 1525 
Q 1525 2225 2450 3900 
L 1200 3900 
Q 925 3900 762 3725 
Q 600 3550 525 3200 
L 375 3225 
L 550 4275 
L 2800 4275 
L 2800 4100 
z
" transform="scale(0.015625)"/>
     </defs>
     <use xlink:href="#FangSong-63"/>
     <use xlink:href="#FangSong-6f" x="50"/>
     <use xlink:href="#FangSong-75" x="100"/>
     <use xlink:href="#FangSong-6e" x="150"/>
     <use xlink:href="#FangSong-74" x="200"/>
     <use xlink:href="#FangSong-3d" x="250"/>
     <use xlink:href="#FangSong-31" x="300"/>
     <use xlink:href="#FangSong-30" x="350"/>
     <use xlink:href="#FangSong-30" x="400"/>
     <use xlink:href="#FangSong-30" x="450"/>
     <use xlink:href="#FangSong-2c" x="500"/>
     <use xlink:href="#FangSong-20" x="550"/>
     <use xlink:href="#FangSong-67" x="600"/>
     <use xlink:href="#FangSong-6f" x="650"/>
     <use xlink:href="#FangSong-6f" x="700"/>
     <use xlink:href="#FangSong-67" x="750"/>
     <use xlink:href="#FangSong-6c" x="800"/>
     <use xlink:href="#FangSong-65" x="850"/>
     <use xlink:href="#FangSong-6e" x="900"/>
     <use xlink:href="#FangSong-65" x="950"/>
     <use xlink:href="#FangSong-74" x="1000"/>
     <use xlink:href="#FangSong-3d" x="1050"/>
     <use xlink:href="#FangSong-31" x="1100"/>
     <use xlink:href="#FangSong-35" x="1150"/>
     <use xlink:href="#FangSong-30" x="1200"/>
     <use xlink:href="#FangSong-2c" x="1250"/>
     <use xlink:href="#FangSong-20" x="1300"/>
     <use xlink:href="#FangSong-72" x="1350"/>
     <use xlink:href="#FangSong-65" x="1400"/>
     <use xlink:href="#FangSong-73" x="1450"/>
     <use xlink:href="#FangSong-6e" x="1500"/>
     <use xlink:href="#FangSong-65" x="1550"/>
     <use xlink:href="#FangSong-74" x="1600"/>
     <use xlink:href="#FangSong-35" x="1650"/>
     <use xlink:href="#FangSong-30" x="1700"/>
     <use xlink:href="#FangSong-3d" x="1750"/>
     <use xlink:href="#FangSong-31" x="1800"/>
     <use xlink:href="#FangSong-31" x="1850"/>
     <use xlink:href="#FangSong-32" x="1900"/>
     <use xlink:href="#FangSong-2c" x="1950"/>
     <use xlink:href="#FangSong-20" x="2000"/>
     <use xlink:href="#FangSong-73" x="2050"/>
     <use xlink:href="#FangSong-71" x="2100"/>
     <use xlink:href="#FangSong-75" x="2150"/>
     <use xlink:href="#FangSong-65" x="2200"/>
     <use xlink:href="#FangSong-65" x="2250"/>
     <use xlink:href="#FangSong-7a" x="2300"/>
     <use xlink:href="#FangSong-65" x="2350"/>
     <use xlink:href="#FangSong-6e" x="2400"/>
     <use xlink:href="#FangSong-65" x="2450"/>
     <use xlink:href="#FangSong-74" x="2500"/>
     <use xlink:href="#FangSong-76" x="2550"/>
     <use xlink:href="#FangSong-31" x="2600"/>
     <use xlink:href="#FangSong-3d" x="2650"/>
     <use xlink:href="#FangSong-31" x="2700"/>
     <use xlink:href="#FangSong-35" x="2750"/>
     <use xlink:href="#FangSong-30" x="2800"/>
     <use xlink:href="#FangSong-2c" x="2850"/>
     <use xlink:href="#FangSong-20" x="2900"/>
     <use xlink:href="#FangSong-76" x="2950"/>
     <use xlink:href="#FangSong-67" x="3000"/>
     <use xlink:href="#FangSong-67" x="3050"/>
     <use xlink:href="#FangSong-31" x="3100"/>
     <use xlink:href="#FangSong-39" x="3150"/>
     <use xlink:href="#FangSong-3d" x="3200"/>
     <use xlink:href="#FangSong-31" x="3250"/>
     <use xlink:href="#FangSong-38" x="3300"/>
     <use xlink:href="#FangSong-37" x="3350"/>
     <use xlink:href="#FangSong-2c" x="3400"/>
     <use xlink:href="#FangSong-20" x="3450"/>
     <use xlink:href="#FangSong-79" x="3500"/>
     <use xlink:href="#FangSong-6f" x="3550"/>
     <use xlink:href="#FangSong-6c" x="3600"/>
     <use xlink:href="#FangSong-6f" x="3650"/>
     <use xlink:href="#FangSong-76" x="3700"/>
     <use xlink:href="#FangSong-32" x="3750"/>
     <use xlink:href="#FangSong-3d" x="3800"/>
     <use xlink:href="#FangSong-31" x="3850"/>
     <use xlink:href="#FangSong-35" x="3900"/>
     <use xlink:href="#FangSong-30" x="3950"/>
    </g>
   </g>
   <g id="legend_1">
    <g id="patch_7">
     <path d="M 315.72 302.584 
L 407.72 302.584 
Q 409.72 302.584 409.72 300.584 
L 409.72 220.794937 
Q 409.72 218.794937 407.72 218.794937 
L 315.72 218.794937 
Q 313.72 218.794937 313.72 220.794937 
L 313.72 300.584 
Q 313.72 302.584 315.72 302.584 
z
" style="fill: #ffffff; opacity: 0.8; stroke: #cccccc; stroke-linejoin: miter"/>
    </g>
    <g id="line2d_19">
     <path d="M 317.72 226.294937 
L 327.72 226.294937 
L 337.72 226.294937 
" style="fill: none; stroke: #ff0000; stroke-linecap: square"/>
    </g>
    <g id="text_16">
     <!-- total -->
     <g transform="translate(345.72 229.794937) scale(0.1 -0.1)">
      <use xlink:href="#FangSong-74"/>
      <use xlink:href="#FangSong-6f" x="50"/>
      <use xlink:href="#FangSong-74" x="100"/>
      <use xlink:href="#FangSong-61" x="150"/>
      <use xlink:href="#FangSong-6c" x="200"/>
     </g>
    </g>
    <g id="line2d_20">
     <path d="M 317.72 239.74025 
L 327.72 239.74025 
L 337.72 239.74025 
" style="fill: none; stroke-dasharray: 1.85,0.8; stroke-dashoffset: 0; stroke: #008000; stroke-width: 0.5"/>
    </g>
    <g id="text_17">
     <!-- squeezenetv1 -->
     <g transform="translate(345.72 243.24025) scale(0.1 -0.1)">
      <use xlink:href="#FangSong-73"/>
      <use xlink:href="#FangSong-71" x="50"/>
      <use xlink:href="#FangSong-75" x="100"/>
      <use xlink:href="#FangSong-65" x="150"/>
      <use xlink:href="#FangSong-65" x="200"/>
      <use xlink:href="#FangSong-7a" x="250"/>
      <use xlink:href="#FangSong-65" x="300"/>
      <use xlink:href="#FangSong-6e" x="350"/>
      <use xlink:href="#FangSong-65" x="400"/>
      <use xlink:href="#FangSong-74" x="450"/>
      <use xlink:href="#FangSong-76" x="500"/>
      <use xlink:href="#FangSong-31" x="550"/>
     </g>
    </g>
    <g id="line2d_21">
     <path d="M 317.72 253.185562 
L 327.72 253.185562 
L 337.72 253.185562 
" style="fill: none; stroke-dasharray: 1.85,0.8; stroke-dashoffset: 0; stroke: #0000ff; stroke-width: 0.5"/>
    </g>
    <g id="text_18">
     <!-- googlenet -->
     <g transform="translate(345.72 256.685562) scale(0.1 -0.1)">
      <use xlink:href="#FangSong-67"/>
      <use xlink:href="#FangSong-6f" x="50"/>
      <use xlink:href="#FangSong-6f" x="100"/>
      <use xlink:href="#FangSong-67" x="150"/>
      <use xlink:href="#FangSong-6c" x="200"/>
      <use xlink:href="#FangSong-65" x="250"/>
      <use xlink:href="#FangSong-6e" x="300"/>
      <use xlink:href="#FangSong-65" x="350"/>
      <use xlink:href="#FangSong-74" x="400"/>
     </g>
    </g>
    <g id="line2d_22">
     <path d="M 317.72 266.669937 
L 327.72 266.669937 
L 337.72 266.669937 
" style="fill: none; stroke-dasharray: 1.85,0.8; stroke-dashoffset: 0; stroke: #bf00bf; stroke-width: 0.5"/>
    </g>
    <g id="text_19">
     <!-- yolov2 -->
     <g transform="translate(345.72 270.169937) scale(0.1 -0.1)">
      <use xlink:href="#FangSong-79"/>
      <use xlink:href="#FangSong-6f" x="50"/>
      <use xlink:href="#FangSong-6c" x="100"/>
      <use xlink:href="#FangSong-6f" x="150"/>
      <use xlink:href="#FangSong-76" x="200"/>
      <use xlink:href="#FangSong-32" x="250"/>
     </g>
    </g>
    <g id="line2d_23">
     <path d="M 317.72 280.154312 
L 327.72 280.154312 
L 337.72 280.154312 
" style="fill: none; stroke-dasharray: 1.85,0.8; stroke-dashoffset: 0; stroke: #bfbf00; stroke-width: 0.5"/>
    </g>
    <g id="text_20">
     <!-- resnet50 -->
     <g transform="translate(345.72 283.654312) scale(0.1 -0.1)">
      <use xlink:href="#FangSong-72"/>
      <use xlink:href="#FangSong-65" x="50"/>
      <use xlink:href="#FangSong-73" x="100"/>
      <use xlink:href="#FangSong-6e" x="150"/>
      <use xlink:href="#FangSong-65" x="200"/>
      <use xlink:href="#FangSong-74" x="250"/>
      <use xlink:href="#FangSong-35" x="300"/>
      <use xlink:href="#FangSong-30" x="350"/>
     </g>
    </g>
    <g id="line2d_24">
     <path d="M 317.72 293.599625 
L 327.72 293.599625 
L 337.72 293.599625 
" style="fill: none; stroke-dasharray: 1.85,0.8; stroke-dashoffset: 0; stroke: #000000; stroke-width: 0.5"/>
    </g>
    <g id="text_21">
     <!-- vgg19 -->
     <g transform="translate(345.72 297.099625) scale(0.1 -0.1)">
      <use xlink:href="#FangSong-76"/>
      <use xlink:href="#FangSong-67" x="50"/>
      <use xlink:href="#FangSong-67" x="100"/>
      <use xlink:href="#FangSong-31" x="150"/>
      <use xlink:href="#FangSong-39" x="200"/>
     </g>
    </g>
   </g>
  </g>
 </g>
 <defs>
  <clipPath id="p06e74d7cd4">
   <rect x="57.6" y="41.472" width="357.12" height="266.112"/>
  </clipPath>
 </defs>
</svg>
