<?xml version="1.0" encoding="utf-8" standalone="no"?>
<!DOCTYPE svg PUBLIC "-//W3C//DTD SVG 1.1//EN"
  "http://www.w3.org/Graphics/SVG/1.1/DTD/svg11.dtd">
<svg xmlns:xlink="http://www.w3.org/1999/xlink" width="460.8pt" height="345.6pt" viewBox="0 0 460.8 345.6" xmlns="http://www.w3.org/2000/svg" version="1.1">
 <metadata>
  <rdf:RDF xmlns:dc="http://purl.org/dc/elements/1.1/" xmlns:cc="http://creativecommons.org/ns#" xmlns:rdf="http://www.w3.org/1999/02/22-rdf-syntax-ns#">
   <cc:Work>
    <dc:type rdf:resource="http://purl.org/dc/dcmitype/StillImage"/>
    <dc:date>2023-01-19T17:24:46.390301</dc:date>
    <dc:format>image/svg+xml</dc:format>
    <dc:creator>
     <cc:Agent>
      <dc:title>Matplotlib v3.6.3, https://matplotlib.org/</dc:title>
     </cc:Agent>
    </dc:creator>
   </cc:Work>
  </rdf:RDF>
 </metadata>
 <defs>
  <style type="text/css">*{stroke-linejoin: round; stroke-linecap: butt}</style>
 </defs>
 <g id="figure_1">
  <g id="patch_1">
   <path d="M 0 345.6 
L 460.8 345.6 
L 460.8 0 
L 0 0 
z
" style="fill: #ffffff"/>
  </g>
  <g id="axes_1">
   <g id="patch_2">
    <path d="M 57.6 307.584 
L 414.72 307.584 
L 414.72 41.472 
L 57.6 41.472 
z
" style="fill: #ffffff"/>
   </g>
   <g id="matplotlib.axis_1">
    <g id="xtick_1">
     <g id="line2d_1">
      <defs>
       <path id="m6931b7a3e8" d="M 0 0 
L 0 3.5 
" style="stroke: #000000; stroke-width: 0.8"/>
      </defs>
      <g>
       <use xlink:href="#m6931b7a3e8" x="67.553142" y="307.584" style="stroke: #000000; stroke-width: 0.8"/>
      </g>
     </g>
     <g id="text_1">
      <!-- 0 -->
      <g transform="translate(65.053142 321.576187) scale(0.1 -0.1)">
       <defs>
        <path id="FangSong-30" d="M 1575 4125 
Q 1225 4125 987 3587 
Q 750 3050 750 2150 
Q 750 1200 987 675 
Q 1225 150 1575 150 
Q 1950 150 2162 675 
Q 2375 1200 2375 2150 
Q 2375 3050 2175 3587 
Q 1975 4125 1575 4125 
z
M 1575 -50 
Q 1025 -50 650 525 
Q 275 1100 275 2150 
Q 275 3125 637 3725 
Q 1000 4325 1575 4325 
Q 2125 4325 2487 3750 
Q 2850 3175 2850 2150 
Q 2850 1125 2487 537 
Q 2125 -50 1575 -50 
z
" transform="scale(0.015625)"/>
       </defs>
       <use xlink:href="#FangSong-30"/>
      </g>
     </g>
    </g>
    <g id="xtick_2">
     <g id="line2d_2">
      <g>
       <use xlink:href="#m6931b7a3e8" x="130.348992" y="307.584" style="stroke: #000000; stroke-width: 0.8"/>
      </g>
     </g>
     <g id="text_2">
      <!-- 10 -->
      <g transform="translate(125.348992 321.576187) scale(0.1 -0.1)">
       <defs>
        <path id="FangSong-31" d="M 1800 4350 
L 1800 550 
Q 1800 350 1925 250 
Q 2050 150 2275 150 
L 2525 150 
L 2525 0 
L 700 0 
L 700 150 
L 925 150 
Q 1175 150 1287 250 
Q 1400 350 1400 550 
L 1400 3575 
Q 1400 3675 1337 3737 
Q 1275 3800 1150 3800 
L 700 3800 
L 700 3950 
L 925 3950 
Q 1225 3950 1412 4050 
Q 1600 4150 1700 4350 
L 1800 4350 
z
" transform="scale(0.015625)"/>
       </defs>
       <use xlink:href="#FangSong-31"/>
       <use xlink:href="#FangSong-30" x="50"/>
      </g>
     </g>
    </g>
    <g id="xtick_3">
     <g id="line2d_3">
      <g>
       <use xlink:href="#m6931b7a3e8" x="193.144843" y="307.584" style="stroke: #000000; stroke-width: 0.8"/>
      </g>
     </g>
     <g id="text_3">
      <!-- 20 -->
      <g transform="translate(188.144843 321.576187) scale(0.1 -0.1)">
       <defs>
        <path id="FangSong-32" d="M 2300 3225 
Q 2300 3675 2100 3912 
Q 1900 4150 1500 4150 
Q 1200 4150 987 3987 
Q 775 3825 775 3575 
Q 775 3425 862 3325 
Q 950 3225 950 3125 
Q 950 3000 887 2937 
Q 825 2875 700 2875 
Q 550 2875 462 2962 
Q 375 3050 375 3250 
Q 375 3775 750 4050 
Q 1125 4325 1550 4325 
Q 2150 4325 2437 4025 
Q 2725 3725 2725 3275 
Q 2725 2975 2587 2675 
Q 2450 2375 2150 2100 
Q 1425 1400 1037 962 
Q 650 525 575 375 
L 2050 375 
Q 2275 375 2425 550 
Q 2575 725 2625 1075 
L 2775 1075 
L 2625 0 
L 300 0 
L 300 325 
Q 425 550 712 900 
Q 1000 1250 1475 1725 
Q 1900 2150 2100 2525 
Q 2300 2900 2300 3225 
z
" transform="scale(0.015625)"/>
       </defs>
       <use xlink:href="#FangSong-32"/>
       <use xlink:href="#FangSong-30" x="50"/>
      </g>
     </g>
    </g>
    <g id="xtick_4">
     <g id="line2d_4">
      <g>
       <use xlink:href="#m6931b7a3e8" x="255.940693" y="307.584" style="stroke: #000000; stroke-width: 0.8"/>
      </g>
     </g>
     <g id="text_4">
      <!-- 30 -->
      <g transform="translate(250.940693 321.576187) scale(0.1 -0.1)">
       <defs>
        <path id="FangSong-33" d="M 2775 1150 
Q 2775 675 2425 312 
Q 2075 -50 1450 -50 
Q 1000 -50 675 200 
Q 350 450 350 775 
Q 350 925 450 1037 
Q 550 1150 650 1150 
Q 800 1150 862 1037 
Q 925 925 925 850 
Q 925 725 875 637 
Q 825 550 825 475 
Q 825 325 1012 225 
Q 1200 125 1425 125 
Q 1875 125 2100 387 
Q 2325 650 2325 1200 
Q 2325 1650 2087 1925 
Q 1850 2200 1200 2200 
L 1200 2375 
Q 1700 2375 1937 2612 
Q 2175 2850 2175 3275 
Q 2175 3625 1987 3887 
Q 1800 4150 1400 4150 
Q 1225 4150 1025 4062 
Q 825 3975 825 3775 
Q 825 3575 875 3525 
Q 925 3475 925 3400 
Q 925 3275 875 3200 
Q 825 3125 700 3125 
Q 600 3125 512 3200 
Q 425 3275 425 3475 
Q 425 3850 750 4087 
Q 1075 4325 1500 4325 
Q 2000 4325 2300 4012 
Q 2600 3700 2600 3350 
Q 2600 2975 2412 2712 
Q 2225 2450 1825 2325 
Q 2375 2125 2575 1800 
Q 2775 1475 2775 1150 
z
" transform="scale(0.015625)"/>
       </defs>
       <use xlink:href="#FangSong-33"/>
       <use xlink:href="#FangSong-30" x="50"/>
      </g>
     </g>
    </g>
    <g id="xtick_5">
     <g id="line2d_5">
      <g>
       <use xlink:href="#m6931b7a3e8" x="318.736543" y="307.584" style="stroke: #000000; stroke-width: 0.8"/>
      </g>
     </g>
     <g id="text_5">
      <!-- 40 -->
      <g transform="translate(313.736543 321.576187) scale(0.1 -0.1)">
       <defs>
        <path id="FangSong-34" d="M 2275 475 
Q 2275 300 2375 225 
Q 2475 150 2650 150 
L 2875 150 
L 2875 0 
L 1225 0 
L 1225 150 
L 1500 150 
Q 1700 150 1787 225 
Q 1875 300 1875 475 
L 1875 1300 
L 200 1300 
L 200 1425 
L 2025 4325 
L 2275 4325 
L 2275 1450 
L 2950 1450 
L 2950 1300 
L 2275 1300 
L 2275 475 
z
M 1850 3700 
L 425 1450 
L 1875 1450 
L 1875 3700 
L 1850 3700 
z
" transform="scale(0.015625)"/>
       </defs>
       <use xlink:href="#FangSong-34"/>
       <use xlink:href="#FangSong-30" x="50"/>
      </g>
     </g>
    </g>
    <g id="xtick_6">
     <g id="line2d_6">
      <g>
       <use xlink:href="#m6931b7a3e8" x="381.532393" y="307.584" style="stroke: #000000; stroke-width: 0.8"/>
      </g>
     </g>
     <g id="text_6">
      <!-- 50 -->
      <g transform="translate(376.532393 321.576187) scale(0.1 -0.1)">
       <defs>
        <path id="FangSong-35" d="M 1700 2750 
Q 2175 2750 2475 2387 
Q 2775 2025 2775 1425 
Q 2775 750 2462 350 
Q 2150 -50 1500 -50 
Q 1050 -50 700 212 
Q 350 475 350 850 
Q 350 1000 437 1112 
Q 525 1225 675 1225 
Q 825 1225 875 1125 
Q 925 1025 925 950 
Q 925 800 850 712 
Q 775 625 775 525 
Q 775 325 1012 225 
Q 1250 125 1525 125 
Q 1925 125 2137 450 
Q 2350 775 2350 1375 
Q 2350 1875 2162 2187 
Q 1975 2500 1600 2500 
Q 1325 2500 1125 2400 
Q 925 2300 750 1975 
L 525 2000 
L 650 4275 
L 2700 4275 
L 2625 3900 
L 825 3900 
L 725 2250 
Q 975 2600 1212 2675 
Q 1450 2750 1700 2750 
z
" transform="scale(0.015625)"/>
       </defs>
       <use xlink:href="#FangSong-35"/>
       <use xlink:href="#FangSong-30" x="50"/>
      </g>
     </g>
    </g>
    <g id="text_7">
     <!-- Latency -->
     <g transform="translate(218.66 333.974625) scale(0.1 -0.1)">
      <defs>
       <path id="FangSong-4c" d="M 975 350 
Q 975 250 1037 200 
Q 1100 150 1200 150 
L 1875 150 
Q 2225 150 2475 362 
Q 2725 575 2850 1025 
L 2975 975 
L 2750 0 
L 175 0 
L 175 150 
L 350 150 
Q 475 150 525 200 
Q 575 250 575 350 
L 575 3925 
Q 575 4025 525 4075 
Q 475 4125 350 4125 
L 200 4125 
L 200 4275 
L 1375 4275 
L 1375 4125 
L 1200 4125 
Q 1100 4125 1037 4075 
Q 975 4025 975 3925 
L 975 350 
z
" transform="scale(0.015625)"/>
       <path id="FangSong-61" d="M 1200 -25 
Q 750 -25 500 187 
Q 250 400 250 675 
Q 250 1125 637 1412 
Q 1025 1700 2175 1825 
L 2175 2125 
Q 2175 2375 2062 2537 
Q 1950 2700 1550 2700 
Q 1125 2700 950 2562 
Q 775 2425 825 2275 
Q 875 2175 825 2075 
Q 775 1975 625 1975 
Q 525 1975 462 2037 
Q 400 2100 400 2225 
Q 400 2450 725 2650 
Q 1050 2850 1525 2850 
Q 2025 2850 2275 2662 
Q 2525 2475 2525 2125 
L 2525 475 
Q 2525 275 2562 237 
Q 2600 200 2700 200 
Q 2825 200 2875 312 
Q 2925 425 2925 625 
L 3050 625 
Q 3050 275 2925 137 
Q 2800 0 2600 0 
Q 2425 0 2325 75 
Q 2225 150 2175 325 
Q 1925 150 1712 62 
Q 1500 -25 1200 -25 
z
M 675 750 
Q 675 525 812 337 
Q 950 150 1250 150 
Q 1475 150 1700 237 
Q 1925 325 2175 500 
L 2175 1675 
Q 1325 1575 1000 1337 
Q 675 1100 675 750 
z
" transform="scale(0.015625)"/>
       <path id="FangSong-74" d="M 1475 800 
Q 1475 450 1600 325 
Q 1725 200 1975 200 
Q 2225 200 2375 362 
Q 2525 525 2575 825 
L 2700 775 
Q 2650 425 2437 200 
Q 2225 -25 1875 -25 
Q 1500 -25 1312 200 
Q 1125 425 1125 900 
L 1125 2650 
L 375 2650 
L 375 2800 
L 575 2800 
Q 875 2800 1062 2987 
Q 1250 3175 1300 3575 
L 1325 3775 
L 1475 3775 
L 1475 2800 
L 2475 2800 
L 2475 2650 
L 1475 2650 
L 1475 800 
z
" transform="scale(0.015625)"/>
       <path id="FangSong-65" d="M 2375 1550 
Q 2400 2100 2187 2387 
Q 1975 2675 1625 2675 
Q 1250 2675 1012 2375 
Q 775 2075 775 1550 
L 2375 1550 
z
M 775 1400 
Q 775 725 1037 437 
Q 1300 150 1725 150 
Q 2050 150 2275 337 
Q 2500 525 2600 800 
L 2725 750 
Q 2650 475 2387 212 
Q 2125 -50 1675 -50 
Q 1100 -50 737 325 
Q 375 700 375 1400 
Q 375 2025 737 2437 
Q 1100 2850 1625 2850 
Q 2100 2850 2450 2525 
Q 2800 2200 2800 1400 
L 775 1400 
z
" transform="scale(0.015625)"/>
       <path id="FangSong-6e" d="M 175 0 
L 175 150 
L 300 150 
Q 425 150 475 200 
Q 525 250 525 350 
L 525 2500 
Q 525 2575 500 2612 
Q 475 2650 400 2650 
L 200 2650 
L 200 2800 
L 375 2800 
Q 500 2800 612 2825 
Q 725 2850 825 2925 
L 875 2925 
L 875 2350 
Q 1100 2600 1325 2725 
Q 1550 2850 1800 2850 
Q 2225 2850 2425 2625 
Q 2625 2400 2625 1950 
L 2625 350 
Q 2625 250 2687 200 
Q 2750 150 2850 150 
L 2975 150 
L 2975 0 
L 1925 0 
L 1925 150 
L 2050 150 
Q 2175 150 2225 200 
Q 2275 250 2275 350 
L 2275 2025 
Q 2275 2325 2150 2487 
Q 2025 2650 1775 2650 
Q 1550 2650 1312 2500 
Q 1075 2350 875 2075 
L 875 350 
Q 875 250 937 200 
Q 1000 150 1100 150 
L 1225 150 
L 1225 0 
L 175 0 
z
" transform="scale(0.015625)"/>
       <path id="FangSong-63" d="M 2125 2125 
Q 2125 2200 2137 2225 
Q 2150 2250 2175 2325 
Q 2200 2425 2075 2562 
Q 1950 2700 1650 2700 
Q 1275 2700 1012 2337 
Q 750 1975 750 1375 
Q 750 825 975 487 
Q 1200 150 1725 150 
Q 2075 150 2312 375 
Q 2550 600 2650 900 
L 2775 850 
Q 2675 475 2400 212 
Q 2125 -50 1650 -50 
Q 1050 -50 700 325 
Q 350 700 350 1400 
Q 350 2025 725 2437 
Q 1100 2850 1700 2850 
Q 2125 2850 2362 2625 
Q 2600 2400 2600 2175 
Q 2600 2025 2537 1962 
Q 2475 1900 2350 1900 
Q 2250 1900 2187 1962 
Q 2125 2025 2125 2125 
z
" transform="scale(0.015625)"/>
       <path id="FangSong-79" d="M 1625 700 
L 1675 700 
L 2225 2375 
Q 2275 2500 2212 2575 
Q 2150 2650 2050 2650 
L 1900 2650 
L 1900 2800 
L 2950 2800 
L 2950 2650 
L 2800 2650 
Q 2700 2650 2600 2575 
Q 2500 2500 2450 2375 
L 1600 -100 
Q 1475 -500 1287 -712 
Q 1100 -925 800 -950 
Q 650 -950 537 -875 
Q 425 -800 425 -675 
Q 425 -575 487 -500 
Q 550 -425 675 -425 
Q 775 -425 837 -525 
Q 900 -625 1050 -587 
Q 1200 -550 1250 -425 
Q 1300 -350 1375 -162 
Q 1450 25 1500 225 
L 650 2425 
Q 625 2525 537 2587 
Q 450 2650 350 2650 
L 250 2650 
L 250 2800 
L 1300 2800 
L 1300 2650 
L 1200 2650 
Q 1100 2650 1050 2587 
Q 1000 2525 1025 2400 
L 1625 700 
z
" transform="scale(0.015625)"/>
      </defs>
      <use xlink:href="#FangSong-4c"/>
      <use xlink:href="#FangSong-61" x="50"/>
      <use xlink:href="#FangSong-74" x="100"/>
      <use xlink:href="#FangSong-65" x="150"/>
      <use xlink:href="#FangSong-6e" x="200"/>
      <use xlink:href="#FangSong-63" x="250"/>
      <use xlink:href="#FangSong-79" x="300"/>
     </g>
    </g>
   </g>
   <g id="matplotlib.axis_2">
    <g id="ytick_1">
     <g id="line2d_7">
      <defs>
       <path id="m101cdf9666" d="M 0 0 
L -3.5 0 
" style="stroke: #000000; stroke-width: 0.8"/>
      </defs>
      <g>
       <use xlink:href="#m101cdf9666" x="57.6" y="295.488" style="stroke: #000000; stroke-width: 0.8"/>
      </g>
     </g>
     <g id="text_8">
      <!-- 0% -->
      <g transform="translate(40.6 298.984094) scale(0.1 -0.1)">
       <defs>
        <path id="FangSong-25" d="M 725 4150 
Q 575 4150 475 3950 
Q 375 3750 375 3200 
Q 375 2575 487 2387 
Q 600 2200 725 2200 
Q 900 2200 987 2425 
Q 1075 2650 1075 3200 
Q 1075 3650 1012 3900 
Q 950 4150 725 4150 
z
M 1400 3175 
Q 1400 2725 1250 2387 
Q 1100 2050 725 2050 
Q 425 2050 237 2350 
Q 50 2650 50 3175 
Q 50 3725 250 4025 
Q 450 4325 725 4325 
Q 1025 4325 1212 4012 
Q 1400 3700 1400 3175 
z
M 2700 1100 
Q 2700 1525 2625 1800 
Q 2550 2075 2350 2075 
Q 2200 2075 2100 1837 
Q 2000 1600 2000 1100 
Q 2000 475 2112 300 
Q 2225 125 2350 125 
Q 2525 125 2612 337 
Q 2700 550 2700 1100 
z
M 3025 1075 
Q 3025 575 2850 262 
Q 2675 -50 2350 -50 
Q 2075 -50 1875 262 
Q 1675 575 1675 1075 
Q 1675 1625 1875 1937 
Q 2075 2250 2350 2250 
Q 2650 2250 2837 1925 
Q 3025 1600 3025 1075 
z
M 2500 4250 
L 700 -50 
L 550 25 
L 2325 4325 
L 2500 4250 
z
" transform="scale(0.015625)"/>
       </defs>
       <use xlink:href="#FangSong-30"/>
       <use xlink:href="#FangSong-25" x="50"/>
      </g>
     </g>
    </g>
    <g id="ytick_2">
     <g id="line2d_8">
      <g>
       <use xlink:href="#m101cdf9666" x="57.6" y="247.104" style="stroke: #000000; stroke-width: 0.8"/>
      </g>
     </g>
     <g id="text_9">
      <!-- 20% -->
      <g transform="translate(35.6 250.600094) scale(0.1 -0.1)">
       <use xlink:href="#FangSong-32"/>
       <use xlink:href="#FangSong-30" x="50"/>
       <use xlink:href="#FangSong-25" x="100"/>
      </g>
     </g>
    </g>
    <g id="ytick_3">
     <g id="line2d_9">
      <g>
       <use xlink:href="#m101cdf9666" x="57.6" y="198.72" style="stroke: #000000; stroke-width: 0.8"/>
      </g>
     </g>
     <g id="text_10">
      <!-- 40% -->
      <g transform="translate(35.6 202.216094) scale(0.1 -0.1)">
       <use xlink:href="#FangSong-34"/>
       <use xlink:href="#FangSong-30" x="50"/>
       <use xlink:href="#FangSong-25" x="100"/>
      </g>
     </g>
    </g>
    <g id="ytick_4">
     <g id="line2d_10">
      <g>
       <use xlink:href="#m101cdf9666" x="57.6" y="150.336" style="stroke: #000000; stroke-width: 0.8"/>
      </g>
     </g>
     <g id="text_11">
      <!-- 60% -->
      <g transform="translate(35.6 153.832094) scale(0.1 -0.1)">
       <defs>
        <path id="FangSong-36" d="M 750 1700 
Q 750 950 1012 537 
Q 1275 125 1650 125 
Q 2025 125 2225 400 
Q 2425 675 2425 1425 
Q 2425 1925 2212 2200 
Q 2000 2475 1700 2475 
Q 1425 2475 1187 2312 
Q 950 2150 750 1700 
z
M 1725 2725 
Q 2325 2725 2587 2325 
Q 2850 1925 2850 1425 
Q 2850 675 2487 312 
Q 2125 -50 1650 -50 
Q 975 -50 625 462 
Q 275 975 275 1950 
Q 275 3100 700 3712 
Q 1125 4325 1850 4325 
Q 2200 4325 2412 4125 
Q 2625 3925 2625 3775 
Q 2625 3625 2562 3550 
Q 2500 3475 2350 3475 
Q 2225 3475 2162 3537 
Q 2100 3600 2100 3725 
Q 2100 3775 2112 3825 
Q 2125 3875 2125 3925 
Q 2125 4025 2050 4087 
Q 1975 4150 1775 4150 
Q 1350 4150 1050 3762 
Q 750 3375 750 2075 
Q 900 2400 1162 2562 
Q 1425 2725 1725 2725 
z
" transform="scale(0.015625)"/>
       </defs>
       <use xlink:href="#FangSong-36"/>
       <use xlink:href="#FangSong-30" x="50"/>
       <use xlink:href="#FangSong-25" x="100"/>
      </g>
     </g>
    </g>
    <g id="ytick_5">
     <g id="line2d_11">
      <g>
       <use xlink:href="#m101cdf9666" x="57.6" y="101.952" style="stroke: #000000; stroke-width: 0.8"/>
      </g>
     </g>
     <g id="text_12">
      <!-- 80% -->
      <g transform="translate(35.6 105.448094) scale(0.1 -0.1)">
       <defs>
        <path id="FangSong-38" d="M 600 1025 
Q 600 625 862 375 
Q 1125 125 1525 125 
Q 2000 125 2212 375 
Q 2425 625 2425 1000 
Q 2425 1325 2125 1625 
Q 1825 1925 1225 2175 
Q 925 1975 762 1675 
Q 600 1375 600 1025 
z
M 2800 1075 
Q 2800 600 2450 275 
Q 2100 -50 1525 -50 
Q 1000 -50 625 275 
Q 250 600 250 1025 
Q 250 1450 462 1750 
Q 675 2050 1075 2275 
Q 725 2450 537 2712 
Q 350 2975 350 3300 
Q 350 3725 675 4025 
Q 1000 4325 1575 4325 
Q 2100 4325 2425 4025 
Q 2750 3725 2750 3300 
Q 2750 3000 2562 2737 
Q 2375 2475 1975 2275 
Q 2400 2025 2600 1725 
Q 2800 1425 2800 1075 
z
M 2400 3275 
Q 2400 3625 2200 3887 
Q 2000 4150 1575 4150 
Q 1100 4150 900 3900 
Q 700 3650 700 3375 
Q 700 3100 987 2837 
Q 1275 2575 1800 2375 
Q 2100 2525 2250 2750 
Q 2400 2975 2400 3275 
z
" transform="scale(0.015625)"/>
       </defs>
       <use xlink:href="#FangSong-38"/>
       <use xlink:href="#FangSong-30" x="50"/>
       <use xlink:href="#FangSong-25" x="100"/>
      </g>
     </g>
    </g>
    <g id="ytick_6">
     <g id="line2d_12">
      <g>
       <use xlink:href="#m101cdf9666" x="57.6" y="53.568" style="stroke: #000000; stroke-width: 0.8"/>
      </g>
     </g>
     <g id="text_13">
      <!-- 100% -->
      <g transform="translate(30.6 57.064094) scale(0.1 -0.1)">
       <use xlink:href="#FangSong-31"/>
       <use xlink:href="#FangSong-30" x="50"/>
       <use xlink:href="#FangSong-30" x="100"/>
       <use xlink:href="#FangSong-25" x="150"/>
      </g>
     </g>
    </g>
    <g id="text_14">
     <!-- 累计完成比例 -->
     <g transform="translate(25.154688 204.528) rotate(-90) scale(0.1 -0.1)">
      <defs>
       <path id="FangSong-7d2f" d="M 4525 4975 
L 4700 5225 
L 5000 4950 
L 4825 4775 
L 4625 3550 
L 4850 3300 
L 3175 3150 
L 3375 2975 
Q 3200 2925 2862 2725 
Q 2525 2525 2075 2275 
L 3475 2500 
Q 3750 2675 3900 2800 
Q 4050 2925 4100 3075 
L 4175 3100 
L 4325 2700 
Q 4200 2675 3500 2237 
Q 2800 1800 2275 1550 
L 4375 1825 
L 3900 2175 
L 4000 2275 
Q 4625 1900 4950 1725 
Q 4975 1475 4925 1225 
Q 4800 1375 4500 1675 
L 3250 1475 
L 3525 1300 
Q 3375 1200 3375 875 
L 3375 25 
Q 3375 -325 3225 -625 
Q 2975 -325 2400 150 
L 2450 250 
L 3050 -75 
Q 3150 -125 3150 0 
L 3150 925 
Q 3150 1300 3125 1450 
Q 1875 1275 1575 1175 
L 1325 1425 
L 1850 1550 
Q 2175 1700 3250 2300 
Q 2075 2100 1875 2000 
L 1575 2250 
L 1800 2300 
Q 2150 2475 3025 3125 
L 2000 3025 
Q 2000 2675 1950 2700 
Q 1900 2725 1650 3025 
Q 1725 3250 1725 3425 
L 1650 4400 
Q 1625 4675 1525 4950 
L 1625 5000 
L 1875 4675 
L 4525 4975 
z
M 3150 3375 
L 3150 3875 
Q 2525 3800 2400 3725 
L 2100 3975 
Q 2500 3975 3150 4075 
L 3150 4600 
L 1900 4450 
L 1975 3250 
L 3150 3375 
z
M 3375 4100 
Q 3950 4175 4025 4225 
L 4275 4000 
Q 3950 3975 3375 3900 
L 3375 3400 
L 4400 3500 
L 4575 4750 
L 3375 4600 
L 3375 4100 
z
M 5450 -75 
Q 4975 325 3875 1025 
L 3950 1125 
Q 4850 700 5350 500 
Q 5425 250 5450 -75 
z
M 800 -250 
Q 1350 75 1825 500 
Q 2300 925 2325 1125 
L 2400 1150 
L 2550 725 
Q 2425 700 2075 425 
Q 1725 150 875 -350 
L 800 -250 
z
" transform="scale(0.015625)"/>
       <path id="FangSong-8ba1" d="M 4075 4200 
Q 4100 4825 3900 5100 
L 3975 5150 
L 4450 4725 
Q 4275 4600 4300 4200 
L 4275 3000 
Q 5525 3200 5575 3250 
L 5950 2950 
Q 5725 2975 4275 2800 
L 4250 -425 
Q 4250 -700 4150 -575 
L 3875 -150 
Q 4050 50 4025 300 
L 4050 2750 
Q 2975 2625 2900 2575 
L 2525 2825 
Q 2850 2825 4050 2975 
L 4075 4200 
z
M 1775 3250 
L 2100 2950 
L 1900 2750 
L 1875 550 
L 2825 1250 
L 2875 1175 
Q 1875 250 1750 -25 
L 1525 275 
Q 1625 375 1650 625 
L 1675 2775 
Q 900 2625 750 2550 
L 425 2800 
Q 850 2825 1650 3000 
L 1775 3250 
z
M 2025 3800 
Q 1825 4300 1325 4950 
L 1375 5025 
Q 1925 4575 2175 4300 
Q 2125 4000 2025 3800 
z
" transform="scale(0.015625)"/>
       <path id="FangSong-5b8c" d="M 5375 2050 
Q 4925 2050 3550 1950 
L 3850 1750 
Q 3725 1600 3700 1375 
L 3675 275 
Q 3650 -125 4075 -175 
L 4925 -175 
Q 5300 -150 5312 62 
Q 5325 275 5325 1025 
L 5425 1025 
Q 5450 750 5475 337 
Q 5500 -75 5700 -275 
Q 5400 -375 5000 -400 
L 4075 -400 
Q 3425 -350 3425 150 
L 3475 1450 
Q 3475 1775 3425 1925 
L 2675 1850 
L 2875 1650 
Q 2750 1550 2600 1200 
Q 2450 850 2025 312 
Q 1600 -225 600 -675 
L 550 -575 
Q 1525 -100 1987 625 
Q 2450 1350 2525 1850 
Q 1550 1775 1500 1725 
L 1150 2025 
Q 1625 2025 3212 2150 
Q 4800 2275 5000 2350 
L 5375 2050 
z
M 1650 3650 
Q 1550 3125 1325 2875 
L 1150 3250 
Q 1450 3425 1575 4400 
L 1675 4400 
L 1675 3900 
L 5025 4150 
L 5175 4400 
L 5525 4075 
Q 5375 4050 4725 3250 
L 4650 3325 
L 4975 3900 
L 1650 3650 
z
M 4475 2975 
Q 4225 2975 3412 2875 
Q 2600 2775 2400 2725 
L 2050 2975 
Q 2575 2975 3200 3075 
Q 3825 3175 4150 3225 
L 4475 2975 
z
M 3550 4575 
Q 3475 4350 3300 4150 
Q 3225 4475 2900 5200 
L 2975 5250 
Q 3350 4825 3550 4575 
z
" transform="scale(0.015625)"/>
       <path id="FangSong-6210" d="M 5575 975 
Q 5600 -150 5750 -625 
Q 4650 -225 4000 1075 
Q 3625 650 2975 225 
L 2925 325 
Q 3525 825 3900 1300 
Q 3600 2275 3500 3300 
L 1875 3125 
Q 1875 2625 1825 2100 
L 2725 2250 
L 2875 2475 
L 3175 2225 
L 3000 2050 
Q 2850 475 2575 -125 
Q 2225 400 1825 775 
L 1875 850 
L 2475 400 
Q 2650 875 2750 2000 
L 1825 1850 
Q 1675 250 600 -650 
L 525 -600 
Q 1250 250 1425 987 
Q 1600 1725 1625 2612 
Q 1650 3500 1550 3800 
L 1625 3825 
L 1850 3350 
L 3450 3525 
Q 3400 4150 3375 4562 
Q 3350 4975 3225 5200 
L 3275 5225 
L 3725 4900 
Q 3625 4925 3637 4575 
Q 3650 4225 3675 3550 
Q 4900 3700 5050 3775 
L 5325 3475 
Q 4775 3475 3725 3325 
Q 3775 2425 4075 1525 
Q 4500 2025 4687 2325 
Q 4875 2625 4800 2850 
L 4875 2875 
L 5125 2325 
Q 5075 2400 4850 2125 
Q 4625 1850 4150 1275 
Q 4625 225 5425 -125 
L 5475 975 
L 5575 975 
z
M 4100 5000 
Q 4525 4700 4875 4450 
Q 4825 4250 4750 4025 
Q 4400 4525 4025 4950 
L 4100 5000 
z
" transform="scale(0.015625)"/>
       <path id="FangSong-6bd4" d="M 3500 2125 
Q 3925 2425 4487 2975 
Q 5050 3525 4950 3750 
L 5025 3775 
L 5250 3225 
Q 5175 3250 4875 3000 
Q 4575 2750 4287 2525 
Q 4000 2300 3500 1900 
L 3500 575 
Q 3475 -100 4150 -100 
L 4800 -100 
Q 5275 -100 5375 12 
Q 5475 125 5450 1350 
L 5575 1350 
Q 5600 825 5637 412 
Q 5675 0 5800 -175 
Q 5375 -325 4800 -325 
L 4150 -325 
Q 3225 -350 3275 550 
L 3275 4300 
Q 3275 4875 3150 5150 
L 3200 5200 
L 3625 4850 
Q 3475 4825 3500 4250 
L 3500 2125 
z
M 1500 2575 
Q 1900 2625 2337 2712 
Q 2775 2800 2800 2850 
L 3075 2600 
Q 2875 2575 2350 2475 
Q 1825 2375 1775 2325 
L 1500 2525 
L 1500 150 
L 2925 1075 
L 2975 1025 
Q 1550 -75 1375 -350 
L 1200 0 
Q 1275 75 1275 350 
L 1275 3925 
Q 1275 4475 1150 4750 
L 1200 4800 
L 1625 4400 
Q 1475 4375 1500 3925 
L 1500 2575 
z
" transform="scale(0.015625)"/>
       <path id="FangSong-4f8b" d="M 3050 2000 
Q 3025 1800 2975 1600 
Q 2775 1900 2525 2250 
Q 2300 1875 2025 1550 
L 1925 1625 
Q 2675 2725 2975 3975 
Q 2475 3925 2375 3875 
L 2050 4125 
Q 2375 4125 3162 4225 
Q 3950 4325 4100 4450 
L 4350 4125 
Q 4050 4150 3100 3975 
L 3300 3700 
Q 3200 3675 3125 3525 
Q 3050 3375 2925 3050 
L 3625 3150 
L 3775 3350 
L 4050 3075 
L 3875 2900 
Q 3300 825 1850 -225 
L 1800 -100 
Q 3100 975 3625 2900 
Q 3150 2825 3025 2775 
L 2875 2925 
Q 2775 2675 2575 2350 
Q 2900 2125 3050 2000 
z
M 1275 -150 
Q 1425 25 1400 225 
L 1450 3425 
Q 1025 2800 475 2225 
L 400 2325 
Q 875 2850 1450 3887 
Q 2025 4925 1925 5150 
L 2000 5175 
L 2250 4700 
Q 2200 4725 2062 4475 
Q 1925 4225 1675 3800 
L 1625 -325 
Q 1650 -675 1525 -600 
L 1275 -150 
z
M 5475 250 
Q 5475 -300 5300 -650 
Q 4900 -100 4300 375 
L 4350 475 
L 5200 -75 
Q 5250 250 5250 575 
L 5250 4350 
Q 5275 4950 5100 5150 
L 5175 5225 
L 5600 4850 
Q 5450 4775 5475 4325 
L 5475 250 
z
M 4300 1525 
Q 4400 1650 4400 1900 
L 4400 3075 
Q 4425 3525 4300 3750 
L 4350 3800 
L 4725 3450 
Q 4600 3350 4625 3025 
L 4625 1375 
Q 4625 1050 4550 1125 
L 4300 1525 
z
" transform="scale(0.015625)"/>
      </defs>
      <use xlink:href="#FangSong-7d2f"/>
      <use xlink:href="#FangSong-8ba1" x="100"/>
      <use xlink:href="#FangSong-5b8c" x="200"/>
      <use xlink:href="#FangSong-6210" x="300"/>
      <use xlink:href="#FangSong-6bd4" x="400"/>
      <use xlink:href="#FangSong-4f8b" x="500"/>
     </g>
    </g>
   </g>
   <g id="line2d_13">
    <path d="M 73.832727 295.488 
L 74.460686 244.92672 
L 75.088644 244.92672 
L 75.716603 244.20096 
L 76.344561 243.95904 
L 76.97252 243.95904 
L 81.368229 242.2656 
L 81.996188 241.78176 
L 82.624146 241.78176 
L 83.252105 241.056 
L 83.880063 240.08832 
L 84.508022 239.36256 
L 85.763939 238.39488 
L 86.391897 238.15296 
L 87.019856 238.15296 
L 87.647814 237.66912 
L 88.275773 237.4272 
L 88.903731 236.94336 
L 89.53169 236.2176 
L 91.415565 234.76608 
L 92.043524 234.04032 
L 92.671482 233.7984 
L 93.299441 232.34688 
L 93.927399 231.86304 
L 94.555358 231.13728 
L 95.183316 231.13728 
L 96.439233 228.71808 
L 97.067192 227.7504 
L 98.951067 224.1216 
L 99.579026 223.39584 
L 100.206984 222.42816 
L 100.834943 221.21856 
L 102.718818 218.31552 
L 103.346777 217.83168 
L 103.974735 216.864 
L 105.230652 213.71904 
L 105.858611 212.50944 
L 106.486569 212.50944 
L 107.114528 211.54176 
L 108.370445 210.57408 
L 108.998403 210.33216 
L 109.626362 209.6064 
L 110.25432 208.3968 
L 110.882279 207.42912 
L 112.138196 205.9776 
L 112.766154 205.00992 
L 113.394113 203.80032 
L 114.022071 202.83264 
L 114.65003 201.62304 
L 116.533905 197.02656 
L 117.161864 195.33312 
L 117.789822 194.36544 
L 118.417781 193.63968 
L 119.045739 191.22048 
L 120.929615 186.86592 
L 122.185532 182.9952 
L 122.81349 182.75328 
L 123.441449 182.26944 
L 125.325324 177.18912 
L 125.953283 176.70528 
L 126.581241 175.7376 
L 127.837158 174.76992 
L 128.465117 174.04416 
L 129.721034 170.8992 
L 130.348992 170.41536 
L 130.976951 168.23808 
L 132.232868 165.33504 
L 132.860826 164.8512 
L 133.488785 164.60928 
L 134.116743 163.6416 
L 134.744702 162.432 
L 135.37266 162.19008 
L 136.000619 160.98048 
L 136.628577 160.25472 
L 137.256536 160.25472 
L 138.512453 158.8032 
L 139.140411 158.56128 
L 140.396328 157.5936 
L 141.024287 156.384 
L 141.652245 155.90016 
L 143.536121 152.99712 
L 144.164079 151.78752 
L 144.792038 151.78752 
L 145.419996 150.57792 
L 146.047955 150.09408 
L 146.675913 148.88448 
L 147.303872 148.15872 
L 147.93183 147.9168 
L 148.559789 146.94912 
L 149.187747 145.73952 
L 149.815706 145.01376 
L 150.443664 144.04608 
L 151.071623 143.80416 
L 151.699582 142.11072 
L 152.32754 141.8688 
L 152.955499 141.38496 
L 153.583457 141.38496 
L 154.839374 139.93344 
L 155.467333 139.4496 
L 156.095291 139.20768 
L 157.351208 139.20768 
L 157.979167 138.24 
L 158.607125 136.78848 
L 159.235084 136.30464 
L 159.863042 135.57888 
L 160.491001 135.09504 
L 161.118959 133.88544 
L 161.746918 133.64352 
L 162.374876 133.64352 
L 163.002835 133.15968 
L 163.630793 132.43392 
L 164.258752 131.95008 
L 164.88671 131.22432 
L 165.514669 130.25664 
L 166.142627 129.53088 
L 166.770586 129.28896 
L 167.398544 128.5632 
L 168.026503 128.07936 
L 168.654461 126.86976 
L 169.28242 126.38592 
L 171.166295 125.66016 
L 171.794254 124.9344 
L 172.422212 123.7248 
L 173.050171 123.7248 
L 173.678129 123.48288 
L 174.306088 121.78944 
L 174.934046 120.57984 
L 175.562005 119.12832 
L 176.189963 118.16064 
L 176.817922 117.43488 
L 177.44588 117.19296 
L 178.073839 116.70912 
L 178.701797 115.49952 
L 179.329756 114.77376 
L 179.957714 113.80608 
L 180.585673 110.66112 
L 183.097507 103.88736 
L 184.353424 102.91968 
L 185.609341 100.98432 
L 186.237299 100.25856 
L 186.865258 100.25856 
L 187.493216 99.5328 
L 188.121175 98.3232 
L 188.749133 97.83936 
L 189.377092 97.83936 
L 190.00505 97.35552 
L 190.633009 97.35552 
L 193.144843 95.42016 
L 193.772801 94.6944 
L 195.656677 93.24288 
L 196.284635 93.24288 
L 197.540552 92.75904 
L 198.168511 92.03328 
L 198.796469 91.79136 
L 200.052386 90.82368 
L 201.308303 90.33984 
L 203.192179 90.33984 
L 203.820137 90.09792 
L 204.448096 89.61408 
L 205.076054 89.61408 
L 205.704013 89.37216 
L 206.95993 89.37216 
L 208.215847 88.88832 
L 209.471764 88.88832 
L 210.727681 87.4368 
L 211.355639 87.19488 
L 211.983598 87.19488 
L 212.611556 86.2272 
L 214.495432 85.50144 
L 215.751349 84.53376 
L 216.379307 84.29184 
L 217.007266 83.808 
L 217.635224 83.808 
L 218.263183 83.32416 
L 218.891141 83.32416 
L 219.5191 83.08224 
L 220.775017 83.08224 
L 224.542768 81.63072 
L 226.426643 81.63072 
L 227.054602 81.3888 
L 227.68256 81.3888 
L 228.310519 80.90496 
L 228.938477 80.90496 
L 229.566436 80.66304 
L 230.194394 80.66304 
L 231.450311 80.1792 
L 232.07827 79.69536 
L 233.962145 78.9696 
L 234.590104 78.9696 
L 235.218062 78.00192 
L 236.473979 77.03424 
L 237.101938 76.79232 
L 237.729896 76.06656 
L 238.357855 74.85696 
L 239.613772 74.85696 
L 240.24173 74.61504 
L 242.753564 74.61504 
L 243.381523 74.37312 
L 245.265398 74.37312 
L 245.893357 74.1312 
L 246.521315 74.1312 
L 247.149274 73.88928 
L 250.917025 73.88928 
L 251.544983 73.64736 
L 257.19661 73.64736 
L 257.824568 73.40544 
L 259.080485 73.40544 
L 259.708444 73.16352 
L 260.336402 73.16352 
L 260.964361 72.9216 
L 264.732112 72.9216 
L 265.36007 72.67968 
L 265.988029 72.67968 
L 266.615987 72.43776 
L 269.75578 72.43776 
L 270.383738 72.19584 
L 272.267614 72.19584 
L 272.895572 71.712 
L 273.523531 71.712 
L 274.151489 71.47008 
L 274.779448 71.47008 
L 275.407406 71.22816 
L 276.035365 71.22816 
L 276.663323 70.98624 
L 277.291282 70.26048 
L 277.91924 70.26048 
L 278.547199 69.77664 
L 279.175157 69.05088 
L 279.803116 68.80896 
L 280.431074 68.80896 
L 281.059033 68.56704 
L 281.686991 68.0832 
L 284.198825 68.0832 
L 284.826784 67.84128 
L 285.454742 67.84128 
L 286.082701 67.59936 
L 287.966576 67.59936 
L 288.594535 67.35744 
L 290.47841 67.35744 
L 291.106369 67.11552 
L 291.734327 66.63168 
L 292.362286 66.38976 
L 293.618203 66.38976 
L 294.246161 66.14784 
L 296.757995 66.14784 
L 298.013912 65.664 
L 298.641871 65.18016 
L 299.897788 65.18016 
L 300.525746 64.93824 
L 304.921456 64.93824 
L 305.549414 64.69632 
L 311.201041 64.69632 
L 312.456958 64.21248 
L 313.712875 64.21248 
L 314.340833 63.72864 
L 316.852667 63.72864 
L 317.480626 63.48672 
L 318.108584 63.48672 
L 318.736543 63.2448 
L 319.364501 63.2448 
L 320.620418 62.76096 
L 321.876336 62.76096 
L 322.504294 62.51904 
L 323.760211 62.51904 
L 324.38817 62.27712 
L 326.900004 62.27712 
L 327.527962 62.0352 
L 328.155921 62.0352 
L 329.411838 61.55136 
L 330.039796 61.06752 
L 331.295713 60.58368 
L 332.55163 60.58368 
L 333.807547 60.09984 
L 335.063464 60.09984 
L 336.319381 59.616 
L 336.94734 59.616 
L 337.575298 59.13216 
L 338.203257 59.13216 
L 338.831215 58.89024 
L 339.459174 58.89024 
L 340.087132 58.64832 
L 341.343049 58.64832 
L 341.971008 58.16448 
L 345.738759 58.16448 
L 346.366717 57.92256 
L 348.878551 57.92256 
L 349.50651 57.68064 
L 355.786095 57.68064 
L 356.414053 57.43872 
L 372.113016 57.43872 
L 372.740974 57.1968 
L 380.276476 57.1968 
L 380.904435 56.95488 
L 384.044227 56.95488 
L 385.300144 56.47104 
L 385.928103 55.9872 
L 387.18402 55.50336 
L 387.811978 55.50336 
L 388.439937 55.26144 
L 393.463605 55.26144 
L 394.091563 54.7776 
L 396.603397 53.80992 
L 397.859314 53.80992 
L 398.487273 53.568 
L 398.487273 53.568 
" clip-path="url(#pa442449153)" style="fill: none; stroke: #ff0000; stroke-linecap: square"/>
   </g>
   <g id="line2d_14">
    <path d="M 73.832727 295.488 
L 74.460686 241.866557 
L 75.088644 241.866557 
L 75.716603 239.372536 
L 78.228437 239.372536 
L 78.856395 238.125526 
L 80.112312 238.125526 
L 80.740271 236.878515 
L 81.368229 236.878515 
L 81.996188 235.631505 
L 83.252105 235.631505 
L 83.880063 231.890474 
L 84.508022 229.396454 
L 85.13598 229.396454 
L 85.763939 228.149443 
L 88.275773 228.149443 
L 88.903731 225.655423 
L 90.159648 223.161402 
L 91.415565 223.161402 
L 92.043524 220.667381 
L 92.671482 220.667381 
L 93.927399 218.173361 
L 94.555358 215.67934 
L 95.183316 215.67934 
L 95.811275 210.691299 
L 96.439233 208.197278 
L 97.067192 208.197278 
L 97.69515 206.950268 
L 98.323109 206.950268 
L 100.834943 201.962227 
L 104.602694 201.962227 
L 105.858611 199.468206 
L 106.486569 199.468206 
L 107.114528 196.974186 
L 108.370445 196.974186 
L 108.998403 195.727175 
L 109.626362 195.727175 
L 110.25432 194.480165 
L 110.882279 194.480165 
L 111.510237 193.233155 
L 112.138196 190.739134 
L 114.65003 185.751093 
L 115.277988 185.751093 
L 115.905947 183.257072 
L 117.161864 183.257072 
L 117.789822 182.010062 
L 118.417781 182.010062 
L 119.045739 177.022021 
L 119.673698 174.528 
L 120.929615 174.528 
L 122.81349 170.786969 
L 123.441449 170.786969 
L 124.069407 167.045938 
L 124.697366 164.551918 
L 125.325324 163.304907 
L 125.953283 163.304907 
L 127.2092 160.810887 
L 129.093075 160.810887 
L 129.721034 159.563876 
L 130.348992 159.563876 
L 130.976951 157.069856 
L 132.232868 157.069856 
L 132.860826 154.575835 
L 134.116743 154.575835 
L 134.744702 153.328825 
L 135.37266 153.328825 
L 136.000619 149.587794 
L 136.628577 147.093773 
L 137.256536 147.093773 
L 137.884494 144.599753 
L 140.396328 144.599753 
L 141.024287 142.105732 
L 141.652245 142.105732 
L 142.280204 139.611711 
L 142.908162 139.611711 
L 143.536121 138.364701 
L 144.792038 138.364701 
L 146.047955 135.87068 
L 147.303872 135.87068 
L 148.559789 133.37666 
L 149.187747 133.37666 
L 150.443664 130.882639 
L 151.071623 130.882639 
L 151.699582 127.141608 
L 152.32754 125.894598 
L 152.955499 123.400577 
L 154.211416 123.400577 
L 155.467333 120.906557 
L 157.351208 120.906557 
L 157.979167 119.659546 
L 158.607125 117.165526 
L 159.235084 117.165526 
L 160.491001 114.671505 
L 161.118959 112.177485 
L 162.374876 112.177485 
L 163.630793 109.683464 
L 165.514669 109.683464 
L 166.142627 108.436454 
L 168.026503 108.436454 
L 168.654461 105.942433 
L 171.794254 105.942433 
L 172.422212 104.695423 
L 173.678129 104.695423 
L 174.306088 103.448412 
L 174.934046 100.954392 
L 176.189963 98.460371 
L 178.073839 98.460371 
L 178.701797 94.71934 
L 179.957714 92.22532 
L 180.585673 88.484289 
L 183.097507 83.496247 
L 183.725465 83.496247 
L 184.353424 82.249237 
L 192.516884 82.249237 
L 193.144843 81.002227 
L 193.772801 78.508206 
L 194.40076 77.261196 
L 196.284635 77.261196 
L 196.912594 76.014186 
L 197.540552 76.014186 
L 198.168511 74.767175 
L 198.796469 74.767175 
L 200.052386 72.273155 
L 200.680345 72.273155 
L 201.308303 71.026144 
L 203.820137 71.026144 
L 204.448096 69.779134 
L 209.471764 69.779134 
L 210.727681 67.285113 
L 211.983598 67.285113 
L 212.611556 66.038103 
L 213.867473 66.038103 
L 215.751349 62.297072 
L 217.635224 62.297072 
L 218.263183 59.803052 
L 234.590104 59.803052 
L 235.218062 58.556041 
L 235.846021 58.556041 
L 236.473979 56.062021 
L 237.729896 56.062021 
L 238.357855 54.81501 
L 298.013912 54.81501 
L 298.641871 53.568 
L 398.487273 53.568 
L 398.487273 53.568 
" clip-path="url(#pa442449153)" style="fill: none; stroke-dasharray: 1.85,0.8; stroke-dashoffset: 0; stroke: #008000; stroke-width: 0.5"/>
   </g>
   <g id="line2d_15">
    <path d="M 73.832727 295.488 
L 74.460686 243.382154 
L 75.088644 243.382154 
L 75.716603 242.141538 
L 76.97252 242.141538 
L 77.600478 240.900923 
L 78.856395 240.900923 
L 80.112312 238.419692 
L 80.740271 238.419692 
L 81.368229 237.179077 
L 82.624146 237.179077 
L 83.252105 233.457231 
L 84.508022 233.457231 
L 85.13598 230.976 
L 88.903731 230.976 
L 89.53169 228.494769 
L 90.159648 227.254154 
L 90.787607 224.772923 
L 92.043524 222.291692 
L 92.671482 222.291692 
L 93.927399 219.810462 
L 95.811275 219.810462 
L 96.439233 217.329231 
L 98.323109 213.607385 
L 99.579026 213.607385 
L 100.206984 211.126154 
L 100.834943 211.126154 
L 102.09086 208.644923 
L 102.718818 206.163692 
L 103.346777 206.163692 
L 104.602694 201.201231 
L 105.230652 199.960615 
L 106.486569 199.960615 
L 107.114528 198.72 
L 107.742486 198.72 
L 108.370445 197.479385 
L 108.998403 197.479385 
L 109.626362 194.998154 
L 110.882279 194.998154 
L 111.510237 193.757538 
L 112.138196 193.757538 
L 113.394113 186.313846 
L 114.65003 181.351385 
L 115.277988 180.110769 
L 116.533905 180.110769 
L 117.161864 177.629538 
L 117.789822 177.629538 
L 118.417781 176.388923 
L 119.045739 172.667077 
L 119.673698 172.667077 
L 120.929615 170.185846 
L 121.557573 167.704615 
L 123.441449 167.704615 
L 124.697366 165.223385 
L 125.325324 162.742154 
L 125.953283 161.501538 
L 127.837158 161.501538 
L 129.093075 159.020308 
L 129.721034 156.539077 
L 130.348992 156.539077 
L 130.976951 155.298462 
L 134.116743 155.298462 
L 134.744702 154.057846 
L 136.000619 154.057846 
L 136.628577 152.817231 
L 137.884494 152.817231 
L 138.512453 150.336 
L 139.140411 150.336 
L 139.76837 149.095385 
L 141.024287 144.132923 
L 142.280204 144.132923 
L 142.908162 140.411077 
L 143.536121 139.170462 
L 144.792038 139.170462 
L 145.419996 137.929846 
L 146.047955 137.929846 
L 147.303872 132.967385 
L 147.93183 132.967385 
L 149.815706 125.523692 
L 151.699582 121.801846 
L 153.583457 121.801846 
L 154.839374 119.320615 
L 157.351208 119.320615 
L 159.235084 115.598769 
L 159.863042 115.598769 
L 161.118959 113.117538 
L 162.374876 113.117538 
L 163.002835 111.876923 
L 163.630793 111.876923 
L 164.258752 110.636308 
L 164.88671 110.636308 
L 166.770586 106.914462 
L 168.026503 106.914462 
L 168.654461 105.673846 
L 171.794254 105.673846 
L 172.422212 103.192615 
L 173.678129 103.192615 
L 174.306088 100.711385 
L 174.934046 100.711385 
L 175.562005 96.989538 
L 176.817922 94.508308 
L 177.44588 94.508308 
L 178.701797 92.027077 
L 179.329756 92.027077 
L 179.957714 89.545846 
L 180.585673 85.824 
L 181.213631 83.342769 
L 181.84159 83.342769 
L 182.469548 82.102154 
L 183.097507 79.620923 
L 183.725465 78.380308 
L 184.353424 78.380308 
L 185.609341 75.899077 
L 186.237299 72.177231 
L 186.865258 72.177231 
L 188.121175 69.696 
L 189.377092 69.696 
L 190.00505 68.455385 
L 190.633009 68.455385 
L 191.888926 65.974154 
L 193.144843 65.974154 
L 193.772801 64.733538 
L 194.40076 64.733538 
L 195.656677 62.252308 
L 207.587888 62.252308 
L 208.215847 61.011692 
L 210.099722 61.011692 
L 210.727681 59.771077 
L 216.379307 59.771077 
L 217.007266 58.530462 
L 222.030934 58.530462 
L 222.658892 57.289846 
L 227.68256 57.289846 
L 228.310519 56.049231 
L 230.194394 56.049231 
L 230.822353 54.808615 
L 237.729896 54.808615 
L 238.357855 53.568 
L 398.487273 53.568 
L 398.487273 53.568 
" clip-path="url(#pa442449153)" style="fill: none; stroke-dasharray: 1.85,0.8; stroke-dashoffset: 0; stroke: #0000ff; stroke-width: 0.5"/>
   </g>
   <g id="line2d_16">
    <path d="M 73.832727 295.488 
L 74.460686 241.55679 
L 87.019856 241.55679 
L 88.275773 238.475006 
L 92.043524 238.475006 
L 92.671482 236.934115 
L 93.299441 232.311439 
L 95.183316 232.311439 
L 95.811275 230.770548 
L 97.067192 230.770548 
L 97.69515 227.688764 
L 98.951067 227.688764 
L 99.579026 226.147873 
L 100.206984 226.147873 
L 100.834943 224.606981 
L 101.462901 221.525197 
L 102.09086 221.525197 
L 103.974735 216.902522 
L 104.602694 216.902522 
L 105.858611 213.820739 
L 107.114528 213.820739 
L 107.742486 212.279847 
L 109.626362 212.279847 
L 110.25432 210.738955 
L 110.882279 207.657172 
L 112.138196 204.575389 
L 115.277988 204.575389 
L 115.905947 203.034497 
L 119.045739 203.034497 
L 119.673698 201.493605 
L 120.301656 201.493605 
L 120.929615 199.952713 
L 121.557573 199.952713 
L 122.185532 192.248255 
L 123.441449 192.248255 
L 124.069407 190.707363 
L 126.581241 190.707363 
L 129.093075 184.543796 
L 129.721034 179.921121 
L 130.348992 179.921121 
L 130.976951 176.839338 
L 131.604909 175.298446 
L 133.488785 175.298446 
L 134.116743 173.757554 
L 142.908162 173.757554 
L 144.164079 170.675771 
L 144.792038 170.675771 
L 146.047955 167.593987 
L 146.675913 164.512204 
L 147.303872 162.971312 
L 147.93183 162.971312 
L 149.187747 159.889529 
L 157.351208 159.889529 
L 157.979167 158.348637 
L 158.607125 153.725962 
L 161.118959 153.725962 
L 161.746918 152.18507 
L 163.002835 152.18507 
L 163.630793 150.644178 
L 165.514669 150.644178 
L 166.142627 149.103287 
L 166.770586 149.103287 
L 167.398544 146.021503 
L 168.654461 142.93972 
L 169.28242 142.93972 
L 169.910378 141.398828 
L 171.166295 141.398828 
L 171.794254 138.317045 
L 172.422212 136.776153 
L 173.678129 136.776153 
L 174.306088 133.694369 
L 174.934046 132.153478 
L 175.562005 132.153478 
L 177.44588 127.530803 
L 178.073839 127.530803 
L 178.701797 125.989911 
L 179.329756 122.908127 
L 179.957714 122.908127 
L 180.585673 121.367236 
L 181.213631 118.285452 
L 181.84159 116.744561 
L 182.469548 113.662777 
L 183.097507 113.662777 
L 183.725465 112.121885 
L 184.353424 112.121885 
L 184.981382 110.580994 
L 188.121175 110.580994 
L 188.749133 107.49921 
L 191.260967 107.49921 
L 191.888926 105.958318 
L 193.772801 105.958318 
L 194.40076 104.417427 
L 198.168511 104.417427 
L 198.796469 102.876535 
L 200.052386 102.876535 
L 200.680345 101.335643 
L 203.192179 101.335643 
L 204.448096 98.25386 
L 205.076054 98.25386 
L 205.704013 96.712968 
L 210.099722 96.712968 
L 210.727681 95.172076 
L 211.983598 95.172076 
L 212.611556 93.631185 
L 215.751349 93.631185 
L 216.379307 92.090293 
L 220.775017 92.090293 
L 222.030934 89.00851 
L 227.68256 89.00851 
L 228.310519 87.467618 
L 228.938477 87.467618 
L 229.566436 85.926726 
L 230.822353 85.926726 
L 231.450311 84.385834 
L 232.07827 84.385834 
L 232.706228 82.844943 
L 235.218062 82.844943 
L 235.846021 79.763159 
L 237.101938 79.763159 
L 237.729896 75.140484 
L 238.357855 72.058701 
L 245.265398 72.058701 
L 245.893357 70.517809 
L 250.917025 70.517809 
L 251.544983 68.976917 
L 260.336402 68.976917 
L 260.964361 67.436025 
L 276.663323 67.436025 
L 277.291282 65.895134 
L 278.547199 65.895134 
L 279.175157 64.354242 
L 281.059033 64.354242 
L 281.686991 62.81335 
L 293.618203 62.81335 
L 294.246161 61.272459 
L 296.757995 61.272459 
L 297.385954 59.731567 
L 298.013912 59.731567 
L 298.641871 58.190675 
L 299.897788 58.190675 
L 300.525746 56.649783 
L 311.828999 56.649783 
L 312.456958 55.108892 
L 329.411838 55.108892 
L 330.039796 53.568 
L 398.487273 53.568 
L 398.487273 53.568 
" clip-path="url(#pa442449153)" style="fill: none; stroke-dasharray: 1.85,0.8; stroke-dashoffset: 0; stroke: #bf00bf; stroke-width: 0.5"/>
   </g>
   <g id="line2d_17">
    <path d="M 73.832727 295.488 
L 74.460686 241.866557 
L 75.716603 241.866557 
L 76.344561 240.619546 
L 77.600478 240.619546 
L 78.228437 239.372536 
L 81.368229 239.372536 
L 81.996188 238.125526 
L 83.252105 238.125526 
L 84.508022 235.631505 
L 85.13598 235.631505 
L 86.391897 233.137485 
L 87.019856 233.137485 
L 87.647814 231.890474 
L 90.787607 231.890474 
L 91.415565 230.643464 
L 93.927399 230.643464 
L 94.555358 229.396454 
L 95.811275 229.396454 
L 96.439233 228.149443 
L 97.067192 225.655423 
L 97.69515 224.408412 
L 98.323109 219.420371 
L 98.951067 216.926351 
L 101.462901 211.938309 
L 102.09086 208.197278 
L 103.974735 204.456247 
L 105.230652 199.468206 
L 105.858611 195.727175 
L 107.114528 195.727175 
L 108.370445 193.233155 
L 108.998403 193.233155 
L 109.626362 191.986144 
L 110.25432 189.492124 
L 110.882279 188.245113 
L 112.766154 188.245113 
L 114.65003 184.504082 
L 115.277988 182.010062 
L 115.905947 180.763052 
L 117.161864 175.77501 
L 117.789822 175.77501 
L 118.417781 174.528 
L 119.045739 170.786969 
L 119.673698 168.292948 
L 120.301656 164.551918 
L 121.557573 164.551918 
L 122.185532 163.304907 
L 123.441449 163.304907 
L 124.069407 162.057897 
L 124.697366 159.563876 
L 125.325324 154.575835 
L 125.953283 153.328825 
L 126.581241 149.587794 
L 127.837158 149.587794 
L 129.093075 147.093773 
L 130.348992 147.093773 
L 131.604909 142.105732 
L 132.860826 142.105732 
L 133.488785 140.858722 
L 134.116743 140.858722 
L 134.744702 137.117691 
L 135.37266 135.87068 
L 136.000619 133.37666 
L 137.256536 133.37666 
L 139.76837 128.388619 
L 140.396328 128.388619 
L 142.908162 123.400577 
L 143.536121 123.400577 
L 144.164079 118.412536 
L 144.792038 118.412536 
L 145.419996 117.165526 
L 148.559789 117.165526 
L 149.187747 114.671505 
L 149.815706 114.671505 
L 150.443664 113.424495 
L 151.071623 113.424495 
L 151.699582 110.930474 
L 153.583457 110.930474 
L 154.211416 108.436454 
L 154.839374 107.189443 
L 155.467333 107.189443 
L 156.095291 105.942433 
L 158.607125 105.942433 
L 159.235084 104.695423 
L 159.863042 102.201402 
L 160.491001 102.201402 
L 161.118959 99.707381 
L 163.002835 99.707381 
L 164.258752 97.213361 
L 165.514669 92.22532 
L 166.770586 92.22532 
L 167.398544 90.978309 
L 168.026503 90.978309 
L 168.654461 89.731299 
L 171.166295 89.731299 
L 171.794254 88.484289 
L 173.678129 88.484289 
L 175.562005 84.743258 
L 176.189963 84.743258 
L 176.817922 83.496247 
L 179.329756 83.496247 
L 179.957714 82.249237 
L 180.585673 78.508206 
L 181.213631 78.508206 
L 181.84159 76.014186 
L 182.469548 76.014186 
L 183.097507 73.520165 
L 183.725465 73.520165 
L 184.353424 72.273155 
L 184.981382 72.273155 
L 185.609341 71.026144 
L 186.865258 71.026144 
L 187.493216 68.532124 
L 188.121175 63.544082 
L 191.888926 63.544082 
L 192.516884 61.050062 
L 193.144843 59.803052 
L 194.40076 59.803052 
L 195.028718 58.556041 
L 196.912594 58.556041 
L 198.168511 56.062021 
L 198.796469 56.062021 
L 200.052386 53.568 
L 398.487273 53.568 
L 398.487273 53.568 
" clip-path="url(#pa442449153)" style="fill: none; stroke-dasharray: 1.85,0.8; stroke-dashoffset: 0; stroke: #bfbf00; stroke-width: 0.5"/>
   </g>
   <g id="line2d_18">
    <path d="M 73.832727 295.488 
L 74.460686 252.686769 
L 92.671482 252.686769 
L 93.299441 251.756308 
L 96.439233 251.756308 
L 97.067192 250.825846 
L 98.323109 250.825846 
L 98.951067 248.964923 
L 100.206984 248.964923 
L 100.834943 247.104 
L 103.974735 247.104 
L 104.602694 244.312615 
L 105.230652 243.382154 
L 106.486569 243.382154 
L 107.114528 242.451692 
L 109.626362 242.451692 
L 110.882279 240.590769 
L 114.022071 240.590769 
L 114.65003 239.660308 
L 115.905947 234.077538 
L 116.533905 230.355692 
L 117.789822 224.772923 
L 118.417781 223.842462 
L 119.045739 223.842462 
L 119.673698 222.912 
L 120.301656 221.051077 
L 120.929615 217.329231 
L 121.557573 212.676923 
L 122.185532 211.746462 
L 122.81349 211.746462 
L 123.441449 209.885538 
L 124.069407 208.955077 
L 124.697366 207.094154 
L 127.2092 207.094154 
L 127.837158 206.163692 
L 128.465117 206.163692 
L 129.093075 203.372308 
L 129.721034 202.441846 
L 130.976951 198.72 
L 131.604909 195.928615 
L 132.232868 190.345846 
L 133.488785 190.345846 
L 134.116743 187.554462 
L 141.024287 187.554462 
L 142.280204 185.693538 
L 142.908162 185.693538 
L 143.536121 184.763077 
L 144.792038 184.763077 
L 145.419996 183.832615 
L 146.047955 183.832615 
L 146.675913 182.902154 
L 149.815706 182.902154 
L 150.443664 181.971692 
L 151.071623 181.971692 
L 151.699582 181.041231 
L 154.839374 181.041231 
L 155.467333 180.110769 
L 157.351208 180.110769 
L 157.979167 179.180308 
L 164.258752 179.180308 
L 165.514669 177.319385 
L 167.398544 177.319385 
L 168.026503 176.388923 
L 168.654461 176.388923 
L 169.28242 174.528 
L 169.910378 174.528 
L 171.166295 172.667077 
L 171.794254 172.667077 
L 172.422212 171.736615 
L 173.050171 171.736615 
L 176.189963 167.084308 
L 177.44588 167.084308 
L 178.073839 166.153846 
L 179.957714 166.153846 
L 180.585673 163.362462 
L 181.213631 161.501538 
L 181.84159 157.779692 
L 182.469548 156.849231 
L 183.097507 154.057846 
L 184.353424 154.057846 
L 185.609341 150.336 
L 189.377092 150.336 
L 190.00505 149.405538 
L 190.633009 149.405538 
L 191.260967 148.475077 
L 195.028718 148.475077 
L 195.656677 147.544615 
L 197.540552 147.544615 
L 198.168511 146.614154 
L 206.95993 146.614154 
L 207.587888 145.683692 
L 209.471764 145.683692 
L 210.099722 143.822769 
L 210.727681 143.822769 
L 211.355639 142.892308 
L 211.983598 142.892308 
L 212.611556 141.031385 
L 213.867473 139.170462 
L 214.495432 139.170462 
L 215.751349 137.309538 
L 216.379307 137.309538 
L 217.007266 136.379077 
L 218.891141 136.379077 
L 219.5191 135.448615 
L 222.658892 135.448615 
L 224.542768 132.657231 
L 226.426643 132.657231 
L 227.054602 131.726769 
L 231.450311 131.726769 
L 232.07827 129.865846 
L 232.706228 129.865846 
L 233.962145 128.004923 
L 234.590104 128.004923 
L 235.218062 125.213538 
L 236.473979 125.213538 
L 237.101938 124.283077 
L 237.729896 124.283077 
L 238.357855 123.352615 
L 239.613772 123.352615 
L 240.24173 122.422154 
L 242.753564 122.422154 
L 243.381523 121.491692 
L 246.521315 121.491692 
L 247.149274 120.561231 
L 257.19661 120.561231 
L 257.824568 119.630769 
L 259.080485 119.630769 
L 259.708444 118.700308 
L 264.732112 118.700308 
L 265.36007 117.769846 
L 265.988029 117.769846 
L 266.615987 116.839385 
L 269.75578 116.839385 
L 270.383738 115.908923 
L 272.267614 115.908923 
L 272.895572 114.048 
L 273.523531 114.048 
L 274.151489 113.117538 
L 274.779448 113.117538 
L 275.407406 112.187077 
L 276.035365 112.187077 
L 276.663323 111.256615 
L 277.291282 109.395692 
L 277.91924 109.395692 
L 279.175157 105.673846 
L 279.803116 104.743385 
L 280.431074 104.743385 
L 281.686991 102.882462 
L 284.198825 102.882462 
L 284.826784 101.952 
L 285.454742 101.952 
L 286.082701 101.021538 
L 287.966576 101.021538 
L 288.594535 100.091077 
L 290.47841 100.091077 
L 291.106369 99.160615 
L 291.734327 97.299692 
L 292.362286 96.369231 
L 297.385954 96.369231 
L 298.013912 95.438769 
L 304.921456 95.438769 
L 305.549414 94.508308 
L 311.201041 94.508308 
L 311.828999 93.577846 
L 313.712875 93.577846 
L 314.340833 91.716923 
L 316.852667 91.716923 
L 317.480626 90.786462 
L 318.108584 90.786462 
L 318.736543 89.856 
L 319.364501 89.856 
L 320.620418 87.995077 
L 321.876336 87.995077 
L 322.504294 87.064615 
L 323.760211 87.064615 
L 324.38817 86.134154 
L 326.900004 86.134154 
L 327.527962 85.203692 
L 328.155921 85.203692 
L 331.295713 80.551385 
L 332.55163 80.551385 
L 333.807547 78.690462 
L 335.063464 78.690462 
L 336.319381 76.829538 
L 336.94734 76.829538 
L 337.575298 74.968615 
L 338.203257 74.968615 
L 338.831215 74.038154 
L 339.459174 74.038154 
L 340.087132 73.107692 
L 341.343049 73.107692 
L 341.971008 71.246769 
L 345.738759 71.246769 
L 346.366717 70.316308 
L 348.878551 70.316308 
L 349.50651 69.385846 
L 355.786095 69.385846 
L 356.414053 68.455385 
L 372.113016 68.455385 
L 372.740974 67.524923 
L 380.276476 67.524923 
L 380.904435 66.594462 
L 384.044227 66.594462 
L 385.300144 64.733538 
L 385.928103 62.872615 
L 387.18402 61.011692 
L 387.811978 61.011692 
L 388.439937 60.081231 
L 393.463605 60.081231 
L 394.091563 58.220308 
L 396.603397 54.498462 
L 397.859314 54.498462 
L 398.487273 53.568 
L 398.487273 53.568 
" clip-path="url(#pa442449153)" style="fill: none; stroke-dasharray: 1.85,0.8; stroke-dashoffset: 0; stroke: #000000; stroke-width: 0.5"/>
   </g>
   <g id="patch_3">
    <path d="M 57.6 307.584 
L 57.6 41.472 
" style="fill: none; stroke: #000000; stroke-width: 0.8; stroke-linejoin: miter; stroke-linecap: square"/>
   </g>
   <g id="patch_4">
    <path d="M 414.72 307.584 
L 414.72 41.472 
" style="fill: none; stroke: #000000; stroke-width: 0.8; stroke-linejoin: miter; stroke-linecap: square"/>
   </g>
   <g id="patch_5">
    <path d="M 57.6 307.584 
L 414.72 307.584 
" style="fill: none; stroke: #000000; stroke-width: 0.8; stroke-linejoin: miter; stroke-linecap: square"/>
   </g>
   <g id="patch_6">
    <path d="M 57.6 41.472 
L 414.72 41.472 
" style="fill: none; stroke: #000000; stroke-width: 0.8; stroke-linejoin: miter; stroke-linecap: square"/>
   </g>
   <g id="text_15">
    <!-- count=1000, googlenet=150, resnet50=187, squeezenetv1=150, vgg19=112, yolov2=150 -->
    <g transform="translate(-3.84 35.472) scale(0.12 -0.12)">
     <defs>
      <path id="FangSong-6f" d="M 2875 1400 
Q 2875 775 2500 362 
Q 2125 -50 1575 -50 
Q 1000 -50 637 375 
Q 275 800 275 1400 
Q 275 1950 637 2400 
Q 1000 2850 1575 2850 
Q 2175 2850 2525 2400 
Q 2875 1950 2875 1400 
z
M 675 1375 
Q 675 725 937 412 
Q 1200 100 1575 100 
Q 2000 100 2237 437 
Q 2475 775 2475 1375 
Q 2475 2025 2212 2362 
Q 1950 2700 1575 2700 
Q 1225 2700 950 2362 
Q 675 2025 675 1375 
z
" transform="scale(0.015625)"/>
      <path id="FangSong-75" d="M 1425 225 
Q 1725 225 1937 375 
Q 2150 525 2250 850 
L 2250 2425 
Q 2250 2525 2200 2587 
Q 2150 2650 2025 2650 
L 1875 2650 
L 1875 2800 
L 2025 2800 
Q 2175 2800 2300 2825 
Q 2425 2850 2550 2950 
L 2600 2950 
L 2600 500 
Q 2600 400 2662 350 
Q 2725 300 2825 300 
L 2975 300 
L 2975 150 
L 2825 150 
Q 2700 150 2575 112 
Q 2450 75 2300 0 
L 2250 0 
L 2250 525 
Q 2125 250 1875 112 
Q 1625 -25 1300 -25 
Q 900 -25 700 200 
Q 500 425 500 925 
L 500 2425 
Q 500 2525 450 2587 
Q 400 2650 275 2650 
L 125 2650 
L 125 2800 
L 275 2800 
Q 425 2800 550 2825 
Q 675 2850 800 2950 
L 850 2950 
L 850 875 
Q 850 525 1000 375 
Q 1150 225 1425 225 
z
" transform="scale(0.015625)"/>
      <path id="FangSong-3d" d="M 175 2725 
L 175 2950 
L 2950 2950 
L 2950 2725 
L 175 2725 
z
M 175 1450 
L 175 1675 
L 2950 1675 
L 2950 1450 
L 175 1450 
z
" transform="scale(0.015625)"/>
      <path id="FangSong-2c" d="M 1325 75 
Q 1200 25 1100 75 
Q 1000 125 962 237 
Q 925 350 925 437 
Q 925 525 987 612 
Q 1050 700 1150 737 
Q 1250 775 1425 725 
Q 1600 675 1650 500 
Q 1700 325 1662 150 
Q 1625 -25 1525 -200 
Q 1425 -375 1312 -475 
Q 1200 -575 1025 -675 
L 950 -575 
Q 1100 -450 1187 -312 
Q 1275 -175 1325 75 
z
" transform="scale(0.015625)"/>
      <path id="FangSong-20" transform="scale(0.015625)"/>
      <path id="FangSong-67" d="M 850 1875 
Q 850 1575 1025 1362 
Q 1200 1150 1500 1150 
Q 1825 1150 1987 1337 
Q 2150 1525 2150 1875 
Q 2150 2300 1962 2487 
Q 1775 2675 1500 2675 
Q 1225 2675 1037 2487 
Q 850 2300 850 1875 
z
M 2075 525 
Q 2450 475 2625 312 
Q 2800 150 2800 -125 
Q 2800 -500 2487 -725 
Q 2175 -950 1500 -950 
Q 975 -950 650 -737 
Q 325 -525 325 -250 
Q 325 -75 450 100 
Q 575 275 850 375 
Q 700 450 612 537 
Q 525 625 525 750 
Q 525 900 625 1012 
Q 725 1125 875 1200 
Q 725 1325 612 1500 
Q 500 1675 500 1875 
Q 500 2250 762 2537 
Q 1025 2825 1500 2825 
Q 1700 2825 1887 2775 
Q 2075 2725 2200 2600 
Q 2375 2725 2512 2787 
Q 2650 2850 2750 2850 
Q 2875 2850 2925 2762 
Q 2975 2675 2975 2600 
Q 2975 2500 2937 2437 
Q 2900 2375 2800 2375 
Q 2725 2375 2675 2412 
Q 2625 2450 2600 2525 
Q 2575 2600 2487 2587 
Q 2400 2575 2300 2500 
Q 2400 2400 2450 2225 
Q 2500 2050 2500 1875 
Q 2500 1575 2262 1287 
Q 2025 1000 1500 1000 
Q 1350 1000 1225 1037 
Q 1100 1075 1025 1125 
Q 925 1075 875 1000 
Q 825 925 825 875 
Q 825 775 875 725 
Q 925 675 1025 675 
Q 1350 625 1612 587 
Q 1875 550 2075 525 
z
M 1050 325 
Q 825 225 737 87 
Q 650 -50 650 -250 
Q 650 -450 875 -625 
Q 1100 -800 1550 -800 
Q 1975 -800 2225 -662 
Q 2475 -525 2475 -250 
Q 2475 -75 2412 25 
Q 2350 125 2225 150 
Q 1975 200 1675 237 
Q 1375 275 1050 325 
z
" transform="scale(0.015625)"/>
      <path id="FangSong-6c" d="M 900 4275 
Q 1125 4275 1325 4325 
Q 1525 4375 1700 4475 
L 1750 4475 
L 1750 350 
Q 1750 250 1812 200 
Q 1875 150 1975 150 
L 2550 150 
L 2550 0 
L 600 0 
L 600 150 
L 1175 150 
Q 1300 150 1350 200 
Q 1400 250 1400 350 
L 1400 3925 
Q 1400 4025 1350 4075 
Q 1300 4125 1175 4125 
L 625 4125 
L 625 4275 
L 900 4275 
z
" transform="scale(0.015625)"/>
      <path id="FangSong-72" d="M 1250 2025 
Q 1500 2425 1787 2637 
Q 2075 2850 2375 2850 
Q 2625 2850 2762 2737 
Q 2900 2625 2900 2475 
Q 2900 2350 2837 2275 
Q 2775 2200 2650 2200 
Q 2525 2200 2462 2275 
Q 2400 2350 2425 2475 
Q 2425 2550 2400 2600 
Q 2375 2650 2250 2650 
Q 2050 2650 1762 2400 
Q 1475 2150 1250 1700 
L 1250 350 
Q 1250 250 1312 200 
Q 1375 150 1475 150 
L 2025 150 
L 2025 0 
L 175 0 
L 175 150 
L 675 150 
Q 800 150 850 200 
Q 900 250 900 350 
L 900 2425 
Q 900 2525 850 2587 
Q 800 2650 675 2650 
L 200 2650 
L 200 2800 
L 400 2800 
Q 575 2800 812 2837 
Q 1050 2875 1175 2925 
L 1250 2925 
L 1250 2025 
z
" transform="scale(0.015625)"/>
      <path id="FangSong-73" d="M 600 2075 
Q 600 2450 887 2650 
Q 1175 2850 1575 2850 
Q 1800 2850 2000 2787 
Q 2200 2725 2275 2725 
Q 2350 2725 2400 2750 
Q 2450 2775 2525 2850 
L 2625 2025 
L 2475 2000 
Q 2375 2325 2137 2512 
Q 1900 2700 1600 2700 
Q 1275 2700 1087 2575 
Q 900 2450 900 2225 
Q 900 2025 987 1912 
Q 1075 1800 1300 1750 
Q 1475 1675 1737 1587 
Q 2000 1500 2225 1400 
Q 2425 1300 2562 1137 
Q 2700 975 2700 775 
Q 2700 400 2437 187 
Q 2175 -25 1675 -25 
Q 1350 -25 1187 37 
Q 1025 100 925 100 
Q 850 100 762 62 
Q 675 25 575 -25 
L 500 900 
L 650 925 
Q 725 525 975 325 
Q 1225 125 1675 125 
Q 2025 125 2212 250 
Q 2400 375 2400 625 
Q 2400 800 2300 912 
Q 2200 1025 2100 1075 
Q 1850 1175 1550 1287 
Q 1250 1400 1025 1500 
Q 800 1600 700 1750 
Q 600 1900 600 2075 
z
" transform="scale(0.015625)"/>
      <path id="FangSong-37" d="M 2800 4100 
Q 2275 3250 1962 2437 
Q 1650 1625 1650 1025 
Q 1650 925 1662 737 
Q 1675 550 1675 300 
Q 1675 100 1612 25 
Q 1550 -50 1400 -50 
Q 1275 -50 1187 37 
Q 1100 125 1100 350 
Q 1100 825 1312 1525 
Q 1525 2225 2450 3900 
L 1200 3900 
Q 925 3900 762 3725 
Q 600 3550 525 3200 
L 375 3225 
L 550 4275 
L 2800 4275 
L 2800 4100 
z
" transform="scale(0.015625)"/>
      <path id="FangSong-71" d="M 2250 2150 
Q 2150 2375 1975 2512 
Q 1800 2650 1550 2650 
Q 1200 2650 950 2350 
Q 700 2050 700 1325 
Q 700 700 912 437 
Q 1125 175 1450 175 
Q 1725 175 1937 300 
Q 2150 425 2250 725 
L 2250 2150 
z
M 2600 -550 
Q 2600 -675 2662 -725 
Q 2725 -775 2825 -775 
L 2975 -775 
L 2975 -925 
L 1825 -925 
L 1825 -775 
L 2025 -775 
Q 2150 -775 2200 -725 
Q 2250 -675 2250 -550 
L 2250 375 
Q 2100 175 1887 75 
Q 1675 -25 1375 -25 
Q 950 -25 625 337 
Q 300 700 300 1400 
Q 300 2075 675 2450 
Q 1050 2825 1475 2825 
Q 1750 2825 1937 2725 
Q 2125 2625 2275 2475 
L 2500 2800 
L 2600 2800 
L 2600 -550 
z
" transform="scale(0.015625)"/>
      <path id="FangSong-7a" d="M 2725 975 
L 2550 0 
L 400 0 
L 400 125 
L 2125 2650 
L 1200 2650 
Q 975 2650 825 2487 
Q 675 2325 575 1925 
L 425 1950 
L 525 2800 
L 2575 2800 
L 2575 2725 
L 825 150 
L 1775 150 
Q 2100 150 2287 350 
Q 2475 550 2575 1000 
L 2725 975 
z
" transform="scale(0.015625)"/>
      <path id="FangSong-76" d="M 1600 -25 
L 1450 -25 
L 600 2425 
Q 575 2525 500 2587 
Q 425 2650 325 2650 
L 200 2650 
L 200 2800 
L 1275 2800 
L 1275 2650 
L 1175 2650 
Q 1025 2650 987 2575 
Q 950 2500 1000 2325 
L 1600 575 
L 1650 575 
L 2250 2300 
Q 2325 2475 2262 2562 
Q 2200 2650 2050 2650 
L 2000 2650 
L 2000 2800 
L 2900 2800 
L 2900 2650 
L 2850 2650 
Q 2700 2650 2612 2562 
Q 2525 2475 2450 2300 
L 1600 -25 
z
" transform="scale(0.015625)"/>
      <path id="FangSong-39" d="M 675 2950 
Q 675 2400 887 2112 
Q 1100 1825 1425 1825 
Q 1800 1825 2075 2175 
Q 2350 2525 2350 2825 
Q 2350 3425 2150 3787 
Q 1950 4150 1500 4150 
Q 1075 4150 875 3812 
Q 675 3475 675 2950 
z
M 1350 1600 
Q 850 1600 550 1912 
Q 250 2225 250 2925 
Q 250 3525 575 3925 
Q 900 4325 1500 4325 
Q 2125 4325 2475 3825 
Q 2825 3325 2825 2375 
Q 2825 1325 2412 637 
Q 2000 -50 1275 -50 
Q 950 -50 712 100 
Q 475 250 475 500 
Q 475 600 537 700 
Q 600 800 750 800 
Q 900 800 950 687 
Q 1000 575 1000 425 
Q 1000 325 1025 262 
Q 1050 200 1075 175 
Q 1100 150 1162 137 
Q 1225 125 1300 125 
Q 1750 125 2025 625 
Q 2300 1125 2350 2300 
Q 2225 2000 1975 1800 
Q 1725 1600 1350 1600 
z
" transform="scale(0.015625)"/>
     </defs>
     <use xlink:href="#FangSong-63"/>
     <use xlink:href="#FangSong-6f" x="50"/>
     <use xlink:href="#FangSong-75" x="100"/>
     <use xlink:href="#FangSong-6e" x="150"/>
     <use xlink:href="#FangSong-74" x="200"/>
     <use xlink:href="#FangSong-3d" x="250"/>
     <use xlink:href="#FangSong-31" x="300"/>
     <use xlink:href="#FangSong-30" x="350"/>
     <use xlink:href="#FangSong-30" x="400"/>
     <use xlink:href="#FangSong-30" x="450"/>
     <use xlink:href="#FangSong-2c" x="500"/>
     <use xlink:href="#FangSong-20" x="550"/>
     <use xlink:href="#FangSong-67" x="600"/>
     <use xlink:href="#FangSong-6f" x="650"/>
     <use xlink:href="#FangSong-6f" x="700"/>
     <use xlink:href="#FangSong-67" x="750"/>
     <use xlink:href="#FangSong-6c" x="800"/>
     <use xlink:href="#FangSong-65" x="850"/>
     <use xlink:href="#FangSong-6e" x="900"/>
     <use xlink:href="#FangSong-65" x="950"/>
     <use xlink:href="#FangSong-74" x="1000"/>
     <use xlink:href="#FangSong-3d" x="1050"/>
     <use xlink:href="#FangSong-31" x="1100"/>
     <use xlink:href="#FangSong-35" x="1150"/>
     <use xlink:href="#FangSong-30" x="1200"/>
     <use xlink:href="#FangSong-2c" x="1250"/>
     <use xlink:href="#FangSong-20" x="1300"/>
     <use xlink:href="#FangSong-72" x="1350"/>
     <use xlink:href="#FangSong-65" x="1400"/>
     <use xlink:href="#FangSong-73" x="1450"/>
     <use xlink:href="#FangSong-6e" x="1500"/>
     <use xlink:href="#FangSong-65" x="1550"/>
     <use xlink:href="#FangSong-74" x="1600"/>
     <use xlink:href="#FangSong-35" x="1650"/>
     <use xlink:href="#FangSong-30" x="1700"/>
     <use xlink:href="#FangSong-3d" x="1750"/>
     <use xlink:href="#FangSong-31" x="1800"/>
     <use xlink:href="#FangSong-38" x="1850"/>
     <use xlink:href="#FangSong-37" x="1900"/>
     <use xlink:href="#FangSong-2c" x="1950"/>
     <use xlink:href="#FangSong-20" x="2000"/>
     <use xlink:href="#FangSong-73" x="2050"/>
     <use xlink:href="#FangSong-71" x="2100"/>
     <use xlink:href="#FangSong-75" x="2150"/>
     <use xlink:href="#FangSong-65" x="2200"/>
     <use xlink:href="#FangSong-65" x="2250"/>
     <use xlink:href="#FangSong-7a" x="2300"/>
     <use xlink:href="#FangSong-65" x="2350"/>
     <use xlink:href="#FangSong-6e" x="2400"/>
     <use xlink:href="#FangSong-65" x="2450"/>
     <use xlink:href="#FangSong-74" x="2500"/>
     <use xlink:href="#FangSong-76" x="2550"/>
     <use xlink:href="#FangSong-31" x="2600"/>
     <use xlink:href="#FangSong-3d" x="2650"/>
     <use xlink:href="#FangSong-31" x="2700"/>
     <use xlink:href="#FangSong-35" x="2750"/>
     <use xlink:href="#FangSong-30" x="2800"/>
     <use xlink:href="#FangSong-2c" x="2850"/>
     <use xlink:href="#FangSong-20" x="2900"/>
     <use xlink:href="#FangSong-76" x="2950"/>
     <use xlink:href="#FangSong-67" x="3000"/>
     <use xlink:href="#FangSong-67" x="3050"/>
     <use xlink:href="#FangSong-31" x="3100"/>
     <use xlink:href="#FangSong-39" x="3150"/>
     <use xlink:href="#FangSong-3d" x="3200"/>
     <use xlink:href="#FangSong-31" x="3250"/>
     <use xlink:href="#FangSong-31" x="3300"/>
     <use xlink:href="#FangSong-32" x="3350"/>
     <use xlink:href="#FangSong-2c" x="3400"/>
     <use xlink:href="#FangSong-20" x="3450"/>
     <use xlink:href="#FangSong-79" x="3500"/>
     <use xlink:href="#FangSong-6f" x="3550"/>
     <use xlink:href="#FangSong-6c" x="3600"/>
     <use xlink:href="#FangSong-6f" x="3650"/>
     <use xlink:href="#FangSong-76" x="3700"/>
     <use xlink:href="#FangSong-32" x="3750"/>
     <use xlink:href="#FangSong-3d" x="3800"/>
     <use xlink:href="#FangSong-31" x="3850"/>
     <use xlink:href="#FangSong-35" x="3900"/>
     <use xlink:href="#FangSong-30" x="3950"/>
    </g>
   </g>
   <g id="legend_1">
    <g id="patch_7">
     <path d="M 315.72 302.584 
L 407.72 302.584 
Q 409.72 302.584 409.72 300.584 
L 409.72 220.794937 
Q 409.72 218.794937 407.72 218.794937 
L 315.72 218.794937 
Q 313.72 218.794937 313.72 220.794937 
L 313.72 300.584 
Q 313.72 302.584 315.72 302.584 
z
" style="fill: #ffffff; opacity: 0.8; stroke: #cccccc; stroke-linejoin: miter"/>
    </g>
    <g id="line2d_19">
     <path d="M 317.72 226.294937 
L 327.72 226.294937 
L 337.72 226.294937 
" style="fill: none; stroke: #ff0000; stroke-linecap: square"/>
    </g>
    <g id="text_16">
     <!-- total -->
     <g transform="translate(345.72 229.794937) scale(0.1 -0.1)">
      <use xlink:href="#FangSong-74"/>
      <use xlink:href="#FangSong-6f" x="50"/>
      <use xlink:href="#FangSong-74" x="100"/>
      <use xlink:href="#FangSong-61" x="150"/>
      <use xlink:href="#FangSong-6c" x="200"/>
     </g>
    </g>
    <g id="line2d_20">
     <path d="M 317.72 239.74025 
L 327.72 239.74025 
L 337.72 239.74025 
" style="fill: none; stroke-dasharray: 1.85,0.8; stroke-dashoffset: 0; stroke: #008000; stroke-width: 0.5"/>
    </g>
    <g id="text_17">
     <!-- googlenet -->
     <g transform="translate(345.72 243.24025) scale(0.1 -0.1)">
      <use xlink:href="#FangSong-67"/>
      <use xlink:href="#FangSong-6f" x="50"/>
      <use xlink:href="#FangSong-6f" x="100"/>
      <use xlink:href="#FangSong-67" x="150"/>
      <use xlink:href="#FangSong-6c" x="200"/>
      <use xlink:href="#FangSong-65" x="250"/>
      <use xlink:href="#FangSong-6e" x="300"/>
      <use xlink:href="#FangSong-65" x="350"/>
      <use xlink:href="#FangSong-74" x="400"/>
     </g>
    </g>
    <g id="line2d_21">
     <path d="M 317.72 253.224625 
L 327.72 253.224625 
L 337.72 253.224625 
" style="fill: none; stroke-dasharray: 1.85,0.8; stroke-dashoffset: 0; stroke: #0000ff; stroke-width: 0.5"/>
    </g>
    <g id="text_18">
     <!-- squeezenetv1 -->
     <g transform="translate(345.72 256.724625) scale(0.1 -0.1)">
      <use xlink:href="#FangSong-73"/>
      <use xlink:href="#FangSong-71" x="50"/>
      <use xlink:href="#FangSong-75" x="100"/>
      <use xlink:href="#FangSong-65" x="150"/>
      <use xlink:href="#FangSong-65" x="200"/>
      <use xlink:href="#FangSong-7a" x="250"/>
      <use xlink:href="#FangSong-65" x="300"/>
      <use xlink:href="#FangSong-6e" x="350"/>
      <use xlink:href="#FangSong-65" x="400"/>
      <use xlink:href="#FangSong-74" x="450"/>
      <use xlink:href="#FangSong-76" x="500"/>
      <use xlink:href="#FangSong-31" x="550"/>
     </g>
    </g>
    <g id="line2d_22">
     <path d="M 317.72 266.669937 
L 327.72 266.669937 
L 337.72 266.669937 
" style="fill: none; stroke-dasharray: 1.85,0.8; stroke-dashoffset: 0; stroke: #bf00bf; stroke-width: 0.5"/>
    </g>
    <g id="text_19">
     <!-- resnet50 -->
     <g transform="translate(345.72 270.169937) scale(0.1 -0.1)">
      <use xlink:href="#FangSong-72"/>
      <use xlink:href="#FangSong-65" x="50"/>
      <use xlink:href="#FangSong-73" x="100"/>
      <use xlink:href="#FangSong-6e" x="150"/>
      <use xlink:href="#FangSong-65" x="200"/>
      <use xlink:href="#FangSong-74" x="250"/>
      <use xlink:href="#FangSong-35" x="300"/>
      <use xlink:href="#FangSong-30" x="350"/>
     </g>
    </g>
    <g id="line2d_23">
     <path d="M 317.72 280.11525 
L 327.72 280.11525 
L 337.72 280.11525 
" style="fill: none; stroke-dasharray: 1.85,0.8; stroke-dashoffset: 0; stroke: #bfbf00; stroke-width: 0.5"/>
    </g>
    <g id="text_20">
     <!-- yolov2 -->
     <g transform="translate(345.72 283.61525) scale(0.1 -0.1)">
      <use xlink:href="#FangSong-79"/>
      <use xlink:href="#FangSong-6f" x="50"/>
      <use xlink:href="#FangSong-6c" x="100"/>
      <use xlink:href="#FangSong-6f" x="150"/>
      <use xlink:href="#FangSong-76" x="200"/>
      <use xlink:href="#FangSong-32" x="250"/>
     </g>
    </g>
    <g id="line2d_24">
     <path d="M 317.72 293.599625 
L 327.72 293.599625 
L 337.72 293.599625 
" style="fill: none; stroke-dasharray: 1.85,0.8; stroke-dashoffset: 0; stroke: #000000; stroke-width: 0.5"/>
    </g>
    <g id="text_21">
     <!-- vgg19 -->
     <g transform="translate(345.72 297.099625) scale(0.1 -0.1)">
      <use xlink:href="#FangSong-76"/>
      <use xlink:href="#FangSong-67" x="50"/>
      <use xlink:href="#FangSong-67" x="100"/>
      <use xlink:href="#FangSong-31" x="150"/>
      <use xlink:href="#FangSong-39" x="200"/>
     </g>
    </g>
   </g>
  </g>
 </g>
 <defs>
  <clipPath id="pa442449153">
   <rect x="57.6" y="41.472" width="357.12" height="266.112"/>
  </clipPath>
 </defs>
</svg>
