<?xml version="1.0" encoding="utf-8" standalone="no"?>
<!DOCTYPE svg PUBLIC "-//W3C//DTD SVG 1.1//EN"
  "http://www.w3.org/Graphics/SVG/1.1/DTD/svg11.dtd">
<svg xmlns:xlink="http://www.w3.org/1999/xlink" width="460.8pt" height="345.6pt" viewBox="0 0 460.8 345.6" xmlns="http://www.w3.org/2000/svg" version="1.1">
 <metadata>
  <rdf:RDF xmlns:dc="http://purl.org/dc/elements/1.1/" xmlns:cc="http://creativecommons.org/ns#" xmlns:rdf="http://www.w3.org/1999/02/22-rdf-syntax-ns#">
   <cc:Work>
    <dc:type rdf:resource="http://purl.org/dc/dcmitype/StillImage"/>
    <dc:date>2023-01-19T17:24:47.002949</dc:date>
    <dc:format>image/svg+xml</dc:format>
    <dc:creator>
     <cc:Agent>
      <dc:title>Matplotlib v3.6.3, https://matplotlib.org/</dc:title>
     </cc:Agent>
    </dc:creator>
   </cc:Work>
  </rdf:RDF>
 </metadata>
 <defs>
  <style type="text/css">*{stroke-linejoin: round; stroke-linecap: butt}</style>
 </defs>
 <g id="figure_1">
  <g id="patch_1">
   <path d="M 0 345.6 
L 460.8 345.6 
L 460.8 0 
L 0 0 
z
" style="fill: #ffffff"/>
  </g>
  <g id="axes_1">
   <g id="patch_2">
    <path d="M 57.6 307.584 
L 414.72 307.584 
L 414.72 41.472 
L 57.6 41.472 
z
" style="fill: #ffffff"/>
   </g>
   <g id="matplotlib.axis_1">
    <g id="xtick_1">
     <g id="line2d_1">
      <defs>
       <path id="ma7c324e0c4" d="M 0 0 
L 0 3.5 
" style="stroke: #000000; stroke-width: 0.8"/>
      </defs>
      <g>
       <use xlink:href="#ma7c324e0c4" x="68.519232" y="307.584" style="stroke: #000000; stroke-width: 0.8"/>
      </g>
     </g>
     <g id="text_1">
      <!-- 0 -->
      <g transform="translate(66.019232 321.576187) scale(0.1 -0.1)">
       <defs>
        <path id="FangSong-30" d="M 1575 4125 
Q 1225 4125 987 3587 
Q 750 3050 750 2150 
Q 750 1200 987 675 
Q 1225 150 1575 150 
Q 1950 150 2162 675 
Q 2375 1200 2375 2150 
Q 2375 3050 2175 3587 
Q 1975 4125 1575 4125 
z
M 1575 -50 
Q 1025 -50 650 525 
Q 275 1100 275 2150 
Q 275 3125 637 3725 
Q 1000 4325 1575 4325 
Q 2125 4325 2487 3750 
Q 2850 3175 2850 2150 
Q 2850 1125 2487 537 
Q 2125 -50 1575 -50 
z
" transform="scale(0.015625)"/>
       </defs>
       <use xlink:href="#FangSong-30"/>
      </g>
     </g>
    </g>
    <g id="xtick_2">
     <g id="line2d_2">
      <g>
       <use xlink:href="#ma7c324e0c4" x="121.654182" y="307.584" style="stroke: #000000; stroke-width: 0.8"/>
      </g>
     </g>
     <g id="text_2">
      <!-- 10 -->
      <g transform="translate(116.654182 321.576187) scale(0.1 -0.1)">
       <defs>
        <path id="FangSong-31" d="M 1800 4350 
L 1800 550 
Q 1800 350 1925 250 
Q 2050 150 2275 150 
L 2525 150 
L 2525 0 
L 700 0 
L 700 150 
L 925 150 
Q 1175 150 1287 250 
Q 1400 350 1400 550 
L 1400 3575 
Q 1400 3675 1337 3737 
Q 1275 3800 1150 3800 
L 700 3800 
L 700 3950 
L 925 3950 
Q 1225 3950 1412 4050 
Q 1600 4150 1700 4350 
L 1800 4350 
z
" transform="scale(0.015625)"/>
       </defs>
       <use xlink:href="#FangSong-31"/>
       <use xlink:href="#FangSong-30" x="50"/>
      </g>
     </g>
    </g>
    <g id="xtick_3">
     <g id="line2d_3">
      <g>
       <use xlink:href="#ma7c324e0c4" x="174.789133" y="307.584" style="stroke: #000000; stroke-width: 0.8"/>
      </g>
     </g>
     <g id="text_3">
      <!-- 20 -->
      <g transform="translate(169.789133 321.576187) scale(0.1 -0.1)">
       <defs>
        <path id="FangSong-32" d="M 2300 3225 
Q 2300 3675 2100 3912 
Q 1900 4150 1500 4150 
Q 1200 4150 987 3987 
Q 775 3825 775 3575 
Q 775 3425 862 3325 
Q 950 3225 950 3125 
Q 950 3000 887 2937 
Q 825 2875 700 2875 
Q 550 2875 462 2962 
Q 375 3050 375 3250 
Q 375 3775 750 4050 
Q 1125 4325 1550 4325 
Q 2150 4325 2437 4025 
Q 2725 3725 2725 3275 
Q 2725 2975 2587 2675 
Q 2450 2375 2150 2100 
Q 1425 1400 1037 962 
Q 650 525 575 375 
L 2050 375 
Q 2275 375 2425 550 
Q 2575 725 2625 1075 
L 2775 1075 
L 2625 0 
L 300 0 
L 300 325 
Q 425 550 712 900 
Q 1000 1250 1475 1725 
Q 1900 2150 2100 2525 
Q 2300 2900 2300 3225 
z
" transform="scale(0.015625)"/>
       </defs>
       <use xlink:href="#FangSong-32"/>
       <use xlink:href="#FangSong-30" x="50"/>
      </g>
     </g>
    </g>
    <g id="xtick_4">
     <g id="line2d_4">
      <g>
       <use xlink:href="#ma7c324e0c4" x="227.924083" y="307.584" style="stroke: #000000; stroke-width: 0.8"/>
      </g>
     </g>
     <g id="text_4">
      <!-- 30 -->
      <g transform="translate(222.924083 321.576187) scale(0.1 -0.1)">
       <defs>
        <path id="FangSong-33" d="M 2775 1150 
Q 2775 675 2425 312 
Q 2075 -50 1450 -50 
Q 1000 -50 675 200 
Q 350 450 350 775 
Q 350 925 450 1037 
Q 550 1150 650 1150 
Q 800 1150 862 1037 
Q 925 925 925 850 
Q 925 725 875 637 
Q 825 550 825 475 
Q 825 325 1012 225 
Q 1200 125 1425 125 
Q 1875 125 2100 387 
Q 2325 650 2325 1200 
Q 2325 1650 2087 1925 
Q 1850 2200 1200 2200 
L 1200 2375 
Q 1700 2375 1937 2612 
Q 2175 2850 2175 3275 
Q 2175 3625 1987 3887 
Q 1800 4150 1400 4150 
Q 1225 4150 1025 4062 
Q 825 3975 825 3775 
Q 825 3575 875 3525 
Q 925 3475 925 3400 
Q 925 3275 875 3200 
Q 825 3125 700 3125 
Q 600 3125 512 3200 
Q 425 3275 425 3475 
Q 425 3850 750 4087 
Q 1075 4325 1500 4325 
Q 2000 4325 2300 4012 
Q 2600 3700 2600 3350 
Q 2600 2975 2412 2712 
Q 2225 2450 1825 2325 
Q 2375 2125 2575 1800 
Q 2775 1475 2775 1150 
z
" transform="scale(0.015625)"/>
       </defs>
       <use xlink:href="#FangSong-33"/>
       <use xlink:href="#FangSong-30" x="50"/>
      </g>
     </g>
    </g>
    <g id="xtick_5">
     <g id="line2d_5">
      <g>
       <use xlink:href="#ma7c324e0c4" x="281.059033" y="307.584" style="stroke: #000000; stroke-width: 0.8"/>
      </g>
     </g>
     <g id="text_5">
      <!-- 40 -->
      <g transform="translate(276.059033 321.576187) scale(0.1 -0.1)">
       <defs>
        <path id="FangSong-34" d="M 2275 475 
Q 2275 300 2375 225 
Q 2475 150 2650 150 
L 2875 150 
L 2875 0 
L 1225 0 
L 1225 150 
L 1500 150 
Q 1700 150 1787 225 
Q 1875 300 1875 475 
L 1875 1300 
L 200 1300 
L 200 1425 
L 2025 4325 
L 2275 4325 
L 2275 1450 
L 2950 1450 
L 2950 1300 
L 2275 1300 
L 2275 475 
z
M 1850 3700 
L 425 1450 
L 1875 1450 
L 1875 3700 
L 1850 3700 
z
" transform="scale(0.015625)"/>
       </defs>
       <use xlink:href="#FangSong-34"/>
       <use xlink:href="#FangSong-30" x="50"/>
      </g>
     </g>
    </g>
    <g id="xtick_6">
     <g id="line2d_6">
      <g>
       <use xlink:href="#ma7c324e0c4" x="334.193983" y="307.584" style="stroke: #000000; stroke-width: 0.8"/>
      </g>
     </g>
     <g id="text_6">
      <!-- 50 -->
      <g transform="translate(329.193983 321.576187) scale(0.1 -0.1)">
       <defs>
        <path id="FangSong-35" d="M 1700 2750 
Q 2175 2750 2475 2387 
Q 2775 2025 2775 1425 
Q 2775 750 2462 350 
Q 2150 -50 1500 -50 
Q 1050 -50 700 212 
Q 350 475 350 850 
Q 350 1000 437 1112 
Q 525 1225 675 1225 
Q 825 1225 875 1125 
Q 925 1025 925 950 
Q 925 800 850 712 
Q 775 625 775 525 
Q 775 325 1012 225 
Q 1250 125 1525 125 
Q 1925 125 2137 450 
Q 2350 775 2350 1375 
Q 2350 1875 2162 2187 
Q 1975 2500 1600 2500 
Q 1325 2500 1125 2400 
Q 925 2300 750 1975 
L 525 2000 
L 650 4275 
L 2700 4275 
L 2625 3900 
L 825 3900 
L 725 2250 
Q 975 2600 1212 2675 
Q 1450 2750 1700 2750 
z
" transform="scale(0.015625)"/>
       </defs>
       <use xlink:href="#FangSong-35"/>
       <use xlink:href="#FangSong-30" x="50"/>
      </g>
     </g>
    </g>
    <g id="xtick_7">
     <g id="line2d_7">
      <g>
       <use xlink:href="#ma7c324e0c4" x="387.328933" y="307.584" style="stroke: #000000; stroke-width: 0.8"/>
      </g>
     </g>
     <g id="text_7">
      <!-- 60 -->
      <g transform="translate(382.328933 321.576187) scale(0.1 -0.1)">
       <defs>
        <path id="FangSong-36" d="M 750 1700 
Q 750 950 1012 537 
Q 1275 125 1650 125 
Q 2025 125 2225 400 
Q 2425 675 2425 1425 
Q 2425 1925 2212 2200 
Q 2000 2475 1700 2475 
Q 1425 2475 1187 2312 
Q 950 2150 750 1700 
z
M 1725 2725 
Q 2325 2725 2587 2325 
Q 2850 1925 2850 1425 
Q 2850 675 2487 312 
Q 2125 -50 1650 -50 
Q 975 -50 625 462 
Q 275 975 275 1950 
Q 275 3100 700 3712 
Q 1125 4325 1850 4325 
Q 2200 4325 2412 4125 
Q 2625 3925 2625 3775 
Q 2625 3625 2562 3550 
Q 2500 3475 2350 3475 
Q 2225 3475 2162 3537 
Q 2100 3600 2100 3725 
Q 2100 3775 2112 3825 
Q 2125 3875 2125 3925 
Q 2125 4025 2050 4087 
Q 1975 4150 1775 4150 
Q 1350 4150 1050 3762 
Q 750 3375 750 2075 
Q 900 2400 1162 2562 
Q 1425 2725 1725 2725 
z
" transform="scale(0.015625)"/>
       </defs>
       <use xlink:href="#FangSong-36"/>
       <use xlink:href="#FangSong-30" x="50"/>
      </g>
     </g>
    </g>
    <g id="text_8">
     <!-- Latency -->
     <g transform="translate(218.66 333.974625) scale(0.1 -0.1)">
      <defs>
       <path id="FangSong-4c" d="M 975 350 
Q 975 250 1037 200 
Q 1100 150 1200 150 
L 1875 150 
Q 2225 150 2475 362 
Q 2725 575 2850 1025 
L 2975 975 
L 2750 0 
L 175 0 
L 175 150 
L 350 150 
Q 475 150 525 200 
Q 575 250 575 350 
L 575 3925 
Q 575 4025 525 4075 
Q 475 4125 350 4125 
L 200 4125 
L 200 4275 
L 1375 4275 
L 1375 4125 
L 1200 4125 
Q 1100 4125 1037 4075 
Q 975 4025 975 3925 
L 975 350 
z
" transform="scale(0.015625)"/>
       <path id="FangSong-61" d="M 1200 -25 
Q 750 -25 500 187 
Q 250 400 250 675 
Q 250 1125 637 1412 
Q 1025 1700 2175 1825 
L 2175 2125 
Q 2175 2375 2062 2537 
Q 1950 2700 1550 2700 
Q 1125 2700 950 2562 
Q 775 2425 825 2275 
Q 875 2175 825 2075 
Q 775 1975 625 1975 
Q 525 1975 462 2037 
Q 400 2100 400 2225 
Q 400 2450 725 2650 
Q 1050 2850 1525 2850 
Q 2025 2850 2275 2662 
Q 2525 2475 2525 2125 
L 2525 475 
Q 2525 275 2562 237 
Q 2600 200 2700 200 
Q 2825 200 2875 312 
Q 2925 425 2925 625 
L 3050 625 
Q 3050 275 2925 137 
Q 2800 0 2600 0 
Q 2425 0 2325 75 
Q 2225 150 2175 325 
Q 1925 150 1712 62 
Q 1500 -25 1200 -25 
z
M 675 750 
Q 675 525 812 337 
Q 950 150 1250 150 
Q 1475 150 1700 237 
Q 1925 325 2175 500 
L 2175 1675 
Q 1325 1575 1000 1337 
Q 675 1100 675 750 
z
" transform="scale(0.015625)"/>
       <path id="FangSong-74" d="M 1475 800 
Q 1475 450 1600 325 
Q 1725 200 1975 200 
Q 2225 200 2375 362 
Q 2525 525 2575 825 
L 2700 775 
Q 2650 425 2437 200 
Q 2225 -25 1875 -25 
Q 1500 -25 1312 200 
Q 1125 425 1125 900 
L 1125 2650 
L 375 2650 
L 375 2800 
L 575 2800 
Q 875 2800 1062 2987 
Q 1250 3175 1300 3575 
L 1325 3775 
L 1475 3775 
L 1475 2800 
L 2475 2800 
L 2475 2650 
L 1475 2650 
L 1475 800 
z
" transform="scale(0.015625)"/>
       <path id="FangSong-65" d="M 2375 1550 
Q 2400 2100 2187 2387 
Q 1975 2675 1625 2675 
Q 1250 2675 1012 2375 
Q 775 2075 775 1550 
L 2375 1550 
z
M 775 1400 
Q 775 725 1037 437 
Q 1300 150 1725 150 
Q 2050 150 2275 337 
Q 2500 525 2600 800 
L 2725 750 
Q 2650 475 2387 212 
Q 2125 -50 1675 -50 
Q 1100 -50 737 325 
Q 375 700 375 1400 
Q 375 2025 737 2437 
Q 1100 2850 1625 2850 
Q 2100 2850 2450 2525 
Q 2800 2200 2800 1400 
L 775 1400 
z
" transform="scale(0.015625)"/>
       <path id="FangSong-6e" d="M 175 0 
L 175 150 
L 300 150 
Q 425 150 475 200 
Q 525 250 525 350 
L 525 2500 
Q 525 2575 500 2612 
Q 475 2650 400 2650 
L 200 2650 
L 200 2800 
L 375 2800 
Q 500 2800 612 2825 
Q 725 2850 825 2925 
L 875 2925 
L 875 2350 
Q 1100 2600 1325 2725 
Q 1550 2850 1800 2850 
Q 2225 2850 2425 2625 
Q 2625 2400 2625 1950 
L 2625 350 
Q 2625 250 2687 200 
Q 2750 150 2850 150 
L 2975 150 
L 2975 0 
L 1925 0 
L 1925 150 
L 2050 150 
Q 2175 150 2225 200 
Q 2275 250 2275 350 
L 2275 2025 
Q 2275 2325 2150 2487 
Q 2025 2650 1775 2650 
Q 1550 2650 1312 2500 
Q 1075 2350 875 2075 
L 875 350 
Q 875 250 937 200 
Q 1000 150 1100 150 
L 1225 150 
L 1225 0 
L 175 0 
z
" transform="scale(0.015625)"/>
       <path id="FangSong-63" d="M 2125 2125 
Q 2125 2200 2137 2225 
Q 2150 2250 2175 2325 
Q 2200 2425 2075 2562 
Q 1950 2700 1650 2700 
Q 1275 2700 1012 2337 
Q 750 1975 750 1375 
Q 750 825 975 487 
Q 1200 150 1725 150 
Q 2075 150 2312 375 
Q 2550 600 2650 900 
L 2775 850 
Q 2675 475 2400 212 
Q 2125 -50 1650 -50 
Q 1050 -50 700 325 
Q 350 700 350 1400 
Q 350 2025 725 2437 
Q 1100 2850 1700 2850 
Q 2125 2850 2362 2625 
Q 2600 2400 2600 2175 
Q 2600 2025 2537 1962 
Q 2475 1900 2350 1900 
Q 2250 1900 2187 1962 
Q 2125 2025 2125 2125 
z
" transform="scale(0.015625)"/>
       <path id="FangSong-79" d="M 1625 700 
L 1675 700 
L 2225 2375 
Q 2275 2500 2212 2575 
Q 2150 2650 2050 2650 
L 1900 2650 
L 1900 2800 
L 2950 2800 
L 2950 2650 
L 2800 2650 
Q 2700 2650 2600 2575 
Q 2500 2500 2450 2375 
L 1600 -100 
Q 1475 -500 1287 -712 
Q 1100 -925 800 -950 
Q 650 -950 537 -875 
Q 425 -800 425 -675 
Q 425 -575 487 -500 
Q 550 -425 675 -425 
Q 775 -425 837 -525 
Q 900 -625 1050 -587 
Q 1200 -550 1250 -425 
Q 1300 -350 1375 -162 
Q 1450 25 1500 225 
L 650 2425 
Q 625 2525 537 2587 
Q 450 2650 350 2650 
L 250 2650 
L 250 2800 
L 1300 2800 
L 1300 2650 
L 1200 2650 
Q 1100 2650 1050 2587 
Q 1000 2525 1025 2400 
L 1625 700 
z
" transform="scale(0.015625)"/>
      </defs>
      <use xlink:href="#FangSong-4c"/>
      <use xlink:href="#FangSong-61" x="50"/>
      <use xlink:href="#FangSong-74" x="100"/>
      <use xlink:href="#FangSong-65" x="150"/>
      <use xlink:href="#FangSong-6e" x="200"/>
      <use xlink:href="#FangSong-63" x="250"/>
      <use xlink:href="#FangSong-79" x="300"/>
     </g>
    </g>
   </g>
   <g id="matplotlib.axis_2">
    <g id="ytick_1">
     <g id="line2d_8">
      <defs>
       <path id="m74961b771b" d="M 0 0 
L -3.5 0 
" style="stroke: #000000; stroke-width: 0.8"/>
      </defs>
      <g>
       <use xlink:href="#m74961b771b" x="57.6" y="295.488" style="stroke: #000000; stroke-width: 0.8"/>
      </g>
     </g>
     <g id="text_9">
      <!-- 0% -->
      <g transform="translate(40.6 298.984094) scale(0.1 -0.1)">
       <defs>
        <path id="FangSong-25" d="M 725 4150 
Q 575 4150 475 3950 
Q 375 3750 375 3200 
Q 375 2575 487 2387 
Q 600 2200 725 2200 
Q 900 2200 987 2425 
Q 1075 2650 1075 3200 
Q 1075 3650 1012 3900 
Q 950 4150 725 4150 
z
M 1400 3175 
Q 1400 2725 1250 2387 
Q 1100 2050 725 2050 
Q 425 2050 237 2350 
Q 50 2650 50 3175 
Q 50 3725 250 4025 
Q 450 4325 725 4325 
Q 1025 4325 1212 4012 
Q 1400 3700 1400 3175 
z
M 2700 1100 
Q 2700 1525 2625 1800 
Q 2550 2075 2350 2075 
Q 2200 2075 2100 1837 
Q 2000 1600 2000 1100 
Q 2000 475 2112 300 
Q 2225 125 2350 125 
Q 2525 125 2612 337 
Q 2700 550 2700 1100 
z
M 3025 1075 
Q 3025 575 2850 262 
Q 2675 -50 2350 -50 
Q 2075 -50 1875 262 
Q 1675 575 1675 1075 
Q 1675 1625 1875 1937 
Q 2075 2250 2350 2250 
Q 2650 2250 2837 1925 
Q 3025 1600 3025 1075 
z
M 2500 4250 
L 700 -50 
L 550 25 
L 2325 4325 
L 2500 4250 
z
" transform="scale(0.015625)"/>
       </defs>
       <use xlink:href="#FangSong-30"/>
       <use xlink:href="#FangSong-25" x="50"/>
      </g>
     </g>
    </g>
    <g id="ytick_2">
     <g id="line2d_9">
      <g>
       <use xlink:href="#m74961b771b" x="57.6" y="247.104" style="stroke: #000000; stroke-width: 0.8"/>
      </g>
     </g>
     <g id="text_10">
      <!-- 20% -->
      <g transform="translate(35.6 250.600094) scale(0.1 -0.1)">
       <use xlink:href="#FangSong-32"/>
       <use xlink:href="#FangSong-30" x="50"/>
       <use xlink:href="#FangSong-25" x="100"/>
      </g>
     </g>
    </g>
    <g id="ytick_3">
     <g id="line2d_10">
      <g>
       <use xlink:href="#m74961b771b" x="57.6" y="198.72" style="stroke: #000000; stroke-width: 0.8"/>
      </g>
     </g>
     <g id="text_11">
      <!-- 40% -->
      <g transform="translate(35.6 202.216094) scale(0.1 -0.1)">
       <use xlink:href="#FangSong-34"/>
       <use xlink:href="#FangSong-30" x="50"/>
       <use xlink:href="#FangSong-25" x="100"/>
      </g>
     </g>
    </g>
    <g id="ytick_4">
     <g id="line2d_11">
      <g>
       <use xlink:href="#m74961b771b" x="57.6" y="150.336" style="stroke: #000000; stroke-width: 0.8"/>
      </g>
     </g>
     <g id="text_12">
      <!-- 60% -->
      <g transform="translate(35.6 153.832094) scale(0.1 -0.1)">
       <use xlink:href="#FangSong-36"/>
       <use xlink:href="#FangSong-30" x="50"/>
       <use xlink:href="#FangSong-25" x="100"/>
      </g>
     </g>
    </g>
    <g id="ytick_5">
     <g id="line2d_12">
      <g>
       <use xlink:href="#m74961b771b" x="57.6" y="101.952" style="stroke: #000000; stroke-width: 0.8"/>
      </g>
     </g>
     <g id="text_13">
      <!-- 80% -->
      <g transform="translate(35.6 105.448094) scale(0.1 -0.1)">
       <defs>
        <path id="FangSong-38" d="M 600 1025 
Q 600 625 862 375 
Q 1125 125 1525 125 
Q 2000 125 2212 375 
Q 2425 625 2425 1000 
Q 2425 1325 2125 1625 
Q 1825 1925 1225 2175 
Q 925 1975 762 1675 
Q 600 1375 600 1025 
z
M 2800 1075 
Q 2800 600 2450 275 
Q 2100 -50 1525 -50 
Q 1000 -50 625 275 
Q 250 600 250 1025 
Q 250 1450 462 1750 
Q 675 2050 1075 2275 
Q 725 2450 537 2712 
Q 350 2975 350 3300 
Q 350 3725 675 4025 
Q 1000 4325 1575 4325 
Q 2100 4325 2425 4025 
Q 2750 3725 2750 3300 
Q 2750 3000 2562 2737 
Q 2375 2475 1975 2275 
Q 2400 2025 2600 1725 
Q 2800 1425 2800 1075 
z
M 2400 3275 
Q 2400 3625 2200 3887 
Q 2000 4150 1575 4150 
Q 1100 4150 900 3900 
Q 700 3650 700 3375 
Q 700 3100 987 2837 
Q 1275 2575 1800 2375 
Q 2100 2525 2250 2750 
Q 2400 2975 2400 3275 
z
" transform="scale(0.015625)"/>
       </defs>
       <use xlink:href="#FangSong-38"/>
       <use xlink:href="#FangSong-30" x="50"/>
       <use xlink:href="#FangSong-25" x="100"/>
      </g>
     </g>
    </g>
    <g id="ytick_6">
     <g id="line2d_13">
      <g>
       <use xlink:href="#m74961b771b" x="57.6" y="53.568" style="stroke: #000000; stroke-width: 0.8"/>
      </g>
     </g>
     <g id="text_14">
      <!-- 100% -->
      <g transform="translate(30.6 57.064094) scale(0.1 -0.1)">
       <use xlink:href="#FangSong-31"/>
       <use xlink:href="#FangSong-30" x="50"/>
       <use xlink:href="#FangSong-30" x="100"/>
       <use xlink:href="#FangSong-25" x="150"/>
      </g>
     </g>
    </g>
    <g id="text_15">
     <!-- 累计完成比例 -->
     <g transform="translate(25.154688 204.528) rotate(-90) scale(0.1 -0.1)">
      <defs>
       <path id="FangSong-7d2f" d="M 4525 4975 
L 4700 5225 
L 5000 4950 
L 4825 4775 
L 4625 3550 
L 4850 3300 
L 3175 3150 
L 3375 2975 
Q 3200 2925 2862 2725 
Q 2525 2525 2075 2275 
L 3475 2500 
Q 3750 2675 3900 2800 
Q 4050 2925 4100 3075 
L 4175 3100 
L 4325 2700 
Q 4200 2675 3500 2237 
Q 2800 1800 2275 1550 
L 4375 1825 
L 3900 2175 
L 4000 2275 
Q 4625 1900 4950 1725 
Q 4975 1475 4925 1225 
Q 4800 1375 4500 1675 
L 3250 1475 
L 3525 1300 
Q 3375 1200 3375 875 
L 3375 25 
Q 3375 -325 3225 -625 
Q 2975 -325 2400 150 
L 2450 250 
L 3050 -75 
Q 3150 -125 3150 0 
L 3150 925 
Q 3150 1300 3125 1450 
Q 1875 1275 1575 1175 
L 1325 1425 
L 1850 1550 
Q 2175 1700 3250 2300 
Q 2075 2100 1875 2000 
L 1575 2250 
L 1800 2300 
Q 2150 2475 3025 3125 
L 2000 3025 
Q 2000 2675 1950 2700 
Q 1900 2725 1650 3025 
Q 1725 3250 1725 3425 
L 1650 4400 
Q 1625 4675 1525 4950 
L 1625 5000 
L 1875 4675 
L 4525 4975 
z
M 3150 3375 
L 3150 3875 
Q 2525 3800 2400 3725 
L 2100 3975 
Q 2500 3975 3150 4075 
L 3150 4600 
L 1900 4450 
L 1975 3250 
L 3150 3375 
z
M 3375 4100 
Q 3950 4175 4025 4225 
L 4275 4000 
Q 3950 3975 3375 3900 
L 3375 3400 
L 4400 3500 
L 4575 4750 
L 3375 4600 
L 3375 4100 
z
M 5450 -75 
Q 4975 325 3875 1025 
L 3950 1125 
Q 4850 700 5350 500 
Q 5425 250 5450 -75 
z
M 800 -250 
Q 1350 75 1825 500 
Q 2300 925 2325 1125 
L 2400 1150 
L 2550 725 
Q 2425 700 2075 425 
Q 1725 150 875 -350 
L 800 -250 
z
" transform="scale(0.015625)"/>
       <path id="FangSong-8ba1" d="M 4075 4200 
Q 4100 4825 3900 5100 
L 3975 5150 
L 4450 4725 
Q 4275 4600 4300 4200 
L 4275 3000 
Q 5525 3200 5575 3250 
L 5950 2950 
Q 5725 2975 4275 2800 
L 4250 -425 
Q 4250 -700 4150 -575 
L 3875 -150 
Q 4050 50 4025 300 
L 4050 2750 
Q 2975 2625 2900 2575 
L 2525 2825 
Q 2850 2825 4050 2975 
L 4075 4200 
z
M 1775 3250 
L 2100 2950 
L 1900 2750 
L 1875 550 
L 2825 1250 
L 2875 1175 
Q 1875 250 1750 -25 
L 1525 275 
Q 1625 375 1650 625 
L 1675 2775 
Q 900 2625 750 2550 
L 425 2800 
Q 850 2825 1650 3000 
L 1775 3250 
z
M 2025 3800 
Q 1825 4300 1325 4950 
L 1375 5025 
Q 1925 4575 2175 4300 
Q 2125 4000 2025 3800 
z
" transform="scale(0.015625)"/>
       <path id="FangSong-5b8c" d="M 5375 2050 
Q 4925 2050 3550 1950 
L 3850 1750 
Q 3725 1600 3700 1375 
L 3675 275 
Q 3650 -125 4075 -175 
L 4925 -175 
Q 5300 -150 5312 62 
Q 5325 275 5325 1025 
L 5425 1025 
Q 5450 750 5475 337 
Q 5500 -75 5700 -275 
Q 5400 -375 5000 -400 
L 4075 -400 
Q 3425 -350 3425 150 
L 3475 1450 
Q 3475 1775 3425 1925 
L 2675 1850 
L 2875 1650 
Q 2750 1550 2600 1200 
Q 2450 850 2025 312 
Q 1600 -225 600 -675 
L 550 -575 
Q 1525 -100 1987 625 
Q 2450 1350 2525 1850 
Q 1550 1775 1500 1725 
L 1150 2025 
Q 1625 2025 3212 2150 
Q 4800 2275 5000 2350 
L 5375 2050 
z
M 1650 3650 
Q 1550 3125 1325 2875 
L 1150 3250 
Q 1450 3425 1575 4400 
L 1675 4400 
L 1675 3900 
L 5025 4150 
L 5175 4400 
L 5525 4075 
Q 5375 4050 4725 3250 
L 4650 3325 
L 4975 3900 
L 1650 3650 
z
M 4475 2975 
Q 4225 2975 3412 2875 
Q 2600 2775 2400 2725 
L 2050 2975 
Q 2575 2975 3200 3075 
Q 3825 3175 4150 3225 
L 4475 2975 
z
M 3550 4575 
Q 3475 4350 3300 4150 
Q 3225 4475 2900 5200 
L 2975 5250 
Q 3350 4825 3550 4575 
z
" transform="scale(0.015625)"/>
       <path id="FangSong-6210" d="M 5575 975 
Q 5600 -150 5750 -625 
Q 4650 -225 4000 1075 
Q 3625 650 2975 225 
L 2925 325 
Q 3525 825 3900 1300 
Q 3600 2275 3500 3300 
L 1875 3125 
Q 1875 2625 1825 2100 
L 2725 2250 
L 2875 2475 
L 3175 2225 
L 3000 2050 
Q 2850 475 2575 -125 
Q 2225 400 1825 775 
L 1875 850 
L 2475 400 
Q 2650 875 2750 2000 
L 1825 1850 
Q 1675 250 600 -650 
L 525 -600 
Q 1250 250 1425 987 
Q 1600 1725 1625 2612 
Q 1650 3500 1550 3800 
L 1625 3825 
L 1850 3350 
L 3450 3525 
Q 3400 4150 3375 4562 
Q 3350 4975 3225 5200 
L 3275 5225 
L 3725 4900 
Q 3625 4925 3637 4575 
Q 3650 4225 3675 3550 
Q 4900 3700 5050 3775 
L 5325 3475 
Q 4775 3475 3725 3325 
Q 3775 2425 4075 1525 
Q 4500 2025 4687 2325 
Q 4875 2625 4800 2850 
L 4875 2875 
L 5125 2325 
Q 5075 2400 4850 2125 
Q 4625 1850 4150 1275 
Q 4625 225 5425 -125 
L 5475 975 
L 5575 975 
z
M 4100 5000 
Q 4525 4700 4875 4450 
Q 4825 4250 4750 4025 
Q 4400 4525 4025 4950 
L 4100 5000 
z
" transform="scale(0.015625)"/>
       <path id="FangSong-6bd4" d="M 3500 2125 
Q 3925 2425 4487 2975 
Q 5050 3525 4950 3750 
L 5025 3775 
L 5250 3225 
Q 5175 3250 4875 3000 
Q 4575 2750 4287 2525 
Q 4000 2300 3500 1900 
L 3500 575 
Q 3475 -100 4150 -100 
L 4800 -100 
Q 5275 -100 5375 12 
Q 5475 125 5450 1350 
L 5575 1350 
Q 5600 825 5637 412 
Q 5675 0 5800 -175 
Q 5375 -325 4800 -325 
L 4150 -325 
Q 3225 -350 3275 550 
L 3275 4300 
Q 3275 4875 3150 5150 
L 3200 5200 
L 3625 4850 
Q 3475 4825 3500 4250 
L 3500 2125 
z
M 1500 2575 
Q 1900 2625 2337 2712 
Q 2775 2800 2800 2850 
L 3075 2600 
Q 2875 2575 2350 2475 
Q 1825 2375 1775 2325 
L 1500 2525 
L 1500 150 
L 2925 1075 
L 2975 1025 
Q 1550 -75 1375 -350 
L 1200 0 
Q 1275 75 1275 350 
L 1275 3925 
Q 1275 4475 1150 4750 
L 1200 4800 
L 1625 4400 
Q 1475 4375 1500 3925 
L 1500 2575 
z
" transform="scale(0.015625)"/>
       <path id="FangSong-4f8b" d="M 3050 2000 
Q 3025 1800 2975 1600 
Q 2775 1900 2525 2250 
Q 2300 1875 2025 1550 
L 1925 1625 
Q 2675 2725 2975 3975 
Q 2475 3925 2375 3875 
L 2050 4125 
Q 2375 4125 3162 4225 
Q 3950 4325 4100 4450 
L 4350 4125 
Q 4050 4150 3100 3975 
L 3300 3700 
Q 3200 3675 3125 3525 
Q 3050 3375 2925 3050 
L 3625 3150 
L 3775 3350 
L 4050 3075 
L 3875 2900 
Q 3300 825 1850 -225 
L 1800 -100 
Q 3100 975 3625 2900 
Q 3150 2825 3025 2775 
L 2875 2925 
Q 2775 2675 2575 2350 
Q 2900 2125 3050 2000 
z
M 1275 -150 
Q 1425 25 1400 225 
L 1450 3425 
Q 1025 2800 475 2225 
L 400 2325 
Q 875 2850 1450 3887 
Q 2025 4925 1925 5150 
L 2000 5175 
L 2250 4700 
Q 2200 4725 2062 4475 
Q 1925 4225 1675 3800 
L 1625 -325 
Q 1650 -675 1525 -600 
L 1275 -150 
z
M 5475 250 
Q 5475 -300 5300 -650 
Q 4900 -100 4300 375 
L 4350 475 
L 5200 -75 
Q 5250 250 5250 575 
L 5250 4350 
Q 5275 4950 5100 5150 
L 5175 5225 
L 5600 4850 
Q 5450 4775 5475 4325 
L 5475 250 
z
M 4300 1525 
Q 4400 1650 4400 1900 
L 4400 3075 
Q 4425 3525 4300 3750 
L 4350 3800 
L 4725 3450 
Q 4600 3350 4625 3025 
L 4625 1375 
Q 4625 1050 4550 1125 
L 4300 1525 
z
" transform="scale(0.015625)"/>
      </defs>
      <use xlink:href="#FangSong-7d2f"/>
      <use xlink:href="#FangSong-8ba1" x="100"/>
      <use xlink:href="#FangSong-5b8c" x="200"/>
      <use xlink:href="#FangSong-6210" x="300"/>
      <use xlink:href="#FangSong-6bd4" x="400"/>
      <use xlink:href="#FangSong-4f8b" x="500"/>
     </g>
    </g>
   </g>
   <g id="line2d_14">
    <path d="M 73.832727 295.488 
L 74.364077 244.92672 
L 74.895426 244.92672 
L 75.426776 244.20096 
L 75.958125 243.95904 
L 76.489475 243.95904 
L 80.208921 242.2656 
L 80.740271 241.78176 
L 81.27162 241.78176 
L 81.80297 241.056 
L 82.334319 240.08832 
L 82.865669 239.36256 
L 83.928368 238.39488 
L 84.459717 238.15296 
L 84.991067 238.15296 
L 85.522416 237.66912 
L 86.053766 237.4272 
L 86.585115 236.94336 
L 87.116465 236.2176 
L 88.710513 234.76608 
L 89.241863 234.04032 
L 89.773212 233.7984 
L 90.304562 232.34688 
L 90.835911 231.86304 
L 91.367261 231.13728 
L 91.89861 231.13728 
L 95.086707 224.1216 
L 95.618057 223.39584 
L 96.149406 222.42816 
L 97.212105 220.25088 
L 98.274804 218.31552 
L 98.806154 217.83168 
L 99.337503 216.864 
L 100.400202 213.71904 
L 100.931552 212.50944 
L 101.462901 212.50944 
L 101.994251 211.54176 
L 103.05695 210.57408 
L 103.588299 210.33216 
L 104.119649 209.6064 
L 105.182348 207.42912 
L 106.245047 205.9776 
L 106.776396 205.00992 
L 108.901794 200.17152 
L 110.495843 195.33312 
L 111.027192 194.36544 
L 111.558542 193.63968 
L 112.089891 191.22048 
L 113.68394 186.86592 
L 114.746639 182.9952 
L 115.277988 182.75328 
L 115.809338 182.26944 
L 117.403386 177.18912 
L 117.934736 176.70528 
L 118.466085 175.7376 
L 119.528784 174.76992 
L 120.060134 174.04416 
L 121.122833 170.8992 
L 121.654182 170.41536 
L 122.185532 168.23808 
L 123.248231 165.33504 
L 123.77958 164.8512 
L 124.31093 164.60928 
L 124.842279 163.6416 
L 125.373629 162.432 
L 125.904978 162.19008 
L 126.436328 160.98048 
L 126.967677 160.25472 
L 127.499027 160.25472 
L 128.561726 158.8032 
L 129.093075 158.56128 
L 130.155774 157.5936 
L 130.687124 156.384 
L 131.218473 155.90016 
L 132.812522 152.99712 
L 133.343871 151.78752 
L 133.875221 151.78752 
L 134.40657 150.57792 
L 134.93792 150.09408 
L 135.469269 148.88448 
L 136.000619 148.15872 
L 136.531968 147.9168 
L 137.063318 146.94912 
L 137.594667 145.73952 
L 138.126017 145.01376 
L 138.657366 144.04608 
L 139.188716 143.80416 
L 139.720065 142.11072 
L 140.251415 141.8688 
L 140.782764 141.38496 
L 141.314114 141.38496 
L 142.376813 139.93344 
L 142.908162 139.4496 
L 143.439512 139.20768 
L 144.502211 139.20768 
L 145.03356 138.24 
L 145.56491 136.78848 
L 146.096259 136.30464 
L 146.627609 135.57888 
L 147.158958 135.09504 
L 147.690308 133.88544 
L 148.221657 133.64352 
L 148.753007 133.64352 
L 149.284356 133.15968 
L 149.815706 132.43392 
L 150.347055 131.95008 
L 150.878405 131.22432 
L 151.409755 130.25664 
L 151.941104 129.53088 
L 152.472454 129.28896 
L 153.003803 128.5632 
L 153.535153 128.07936 
L 154.066502 126.86976 
L 154.597852 126.38592 
L 156.1919 125.66016 
L 156.72325 124.9344 
L 157.254599 123.7248 
L 157.785949 123.7248 
L 158.317298 123.48288 
L 158.848648 121.78944 
L 160.442696 118.16064 
L 160.974046 117.43488 
L 161.505395 117.19296 
L 162.036745 116.70912 
L 162.568094 115.49952 
L 163.099444 114.77376 
L 163.630793 113.80608 
L 164.162143 110.66112 
L 166.287541 103.88736 
L 167.35024 102.91968 
L 168.412939 100.98432 
L 168.944288 100.25856 
L 169.475638 100.25856 
L 170.006987 99.5328 
L 170.538337 98.3232 
L 171.069686 97.83936 
L 171.601036 97.83936 
L 172.132385 97.35552 
L 172.663735 97.35552 
L 174.789133 95.42016 
L 175.320482 94.6944 
L 176.914531 93.24288 
L 177.44588 93.24288 
L 178.508579 92.75904 
L 179.039929 92.03328 
L 179.571278 91.79136 
L 180.633977 90.82368 
L 181.696676 90.33984 
L 183.290725 90.33984 
L 183.822074 90.09792 
L 184.353424 89.61408 
L 184.884773 89.61408 
L 185.416123 89.37216 
L 186.478822 89.37216 
L 187.541521 88.88832 
L 188.60422 88.88832 
L 189.666919 87.4368 
L 190.198268 87.19488 
L 190.729618 87.19488 
L 191.260967 86.2272 
L 192.855016 85.50144 
L 193.917715 84.53376 
L 194.449064 84.29184 
L 194.980414 83.808 
L 195.511763 83.808 
L 196.043113 83.32416 
L 196.574462 83.32416 
L 197.105812 83.08224 
L 198.168511 83.08224 
L 201.356608 81.63072 
L 202.950656 81.63072 
L 203.482006 81.3888 
L 204.013355 81.3888 
L 204.544705 80.90496 
L 205.076054 80.90496 
L 205.607404 80.66304 
L 206.138753 80.66304 
L 207.201452 80.1792 
L 207.732802 79.69536 
L 209.32685 78.9696 
L 209.8582 78.9696 
L 210.389549 78.00192 
L 211.452248 77.03424 
L 211.983598 76.79232 
L 212.514947 76.06656 
L 213.046297 74.85696 
L 214.108996 74.85696 
L 214.640345 74.61504 
L 216.765743 74.61504 
L 217.297093 74.37312 
L 218.891141 74.37312 
L 219.422491 74.1312 
L 219.95384 74.1312 
L 220.48519 73.88928 
L 223.673287 73.88928 
L 224.204636 73.64736 
L 228.986782 73.64736 
L 229.518131 73.40544 
L 230.58083 73.40544 
L 231.11218 73.16352 
L 231.643529 73.16352 
L 232.174879 72.9216 
L 235.362976 72.9216 
L 235.894325 72.67968 
L 236.425675 72.67968 
L 236.957024 72.43776 
L 239.613772 72.43776 
L 240.145121 72.19584 
L 241.73917 72.19584 
L 242.270519 71.712 
L 242.801869 71.712 
L 243.333218 71.47008 
L 243.864568 71.47008 
L 244.395917 71.22816 
L 244.927267 71.22816 
L 245.458616 70.98624 
L 245.989966 70.26048 
L 246.521315 70.26048 
L 247.052665 69.77664 
L 247.584014 69.05088 
L 248.115364 68.80896 
L 248.646713 68.80896 
L 249.178063 68.56704 
L 249.709412 68.0832 
L 251.83481 68.0832 
L 252.36616 67.84128 
L 252.897509 67.84128 
L 253.428859 67.59936 
L 255.022907 67.59936 
L 255.554257 67.35744 
L 257.148305 67.35744 
L 257.679655 67.11552 
L 258.211004 66.63168 
L 258.742354 66.38976 
L 259.805053 66.38976 
L 260.336402 66.14784 
L 262.4618 66.14784 
L 263.524499 65.664 
L 264.055849 65.18016 
L 265.118548 65.18016 
L 265.649897 64.93824 
L 269.369344 64.93824 
L 269.900693 64.69632 
L 274.682839 64.69632 
L 275.745538 64.21248 
L 276.808237 64.21248 
L 277.339586 63.72864 
L 279.464984 63.72864 
L 279.996334 63.48672 
L 280.527683 63.48672 
L 281.059033 63.2448 
L 281.590382 63.2448 
L 282.653081 62.76096 
L 283.71578 62.76096 
L 284.24713 62.51904 
L 285.309829 62.51904 
L 285.841178 62.27712 
L 287.966576 62.27712 
L 288.497926 62.0352 
L 289.029275 62.0352 
L 290.091974 61.55136 
L 290.623324 61.06752 
L 291.686023 60.58368 
L 292.748722 60.58368 
L 293.811421 60.09984 
L 294.87412 60.09984 
L 295.936819 59.616 
L 296.468168 59.616 
L 296.999518 59.13216 
L 297.530867 59.13216 
L 298.062217 58.89024 
L 298.593566 58.89024 
L 299.124916 58.64832 
L 300.187615 58.64832 
L 300.718964 58.16448 
L 303.907061 58.16448 
L 304.438411 57.92256 
L 306.563809 57.92256 
L 307.095158 57.68064 
L 312.408653 57.68064 
L 312.940003 57.43872 
L 326.223741 57.43872 
L 326.75509 57.1968 
L 333.131284 57.1968 
L 333.662634 56.95488 
L 336.319381 56.95488 
L 337.38208 56.47104 
L 337.91343 55.9872 
L 338.976129 55.50336 
L 339.507478 55.50336 
L 340.038828 55.26144 
L 344.289624 55.26144 
L 344.820973 54.7776 
L 346.946371 53.80992 
L 348.00907 53.80992 
L 348.54042 53.568 
L 398.487273 53.568 
L 398.487273 53.568 
" clip-path="url(#p3c343b7512)" style="fill: none; stroke: #ff0000; stroke-linecap: square"/>
   </g>
   <g id="line2d_15">
    <path d="M 73.832727 295.488 
L 74.364077 180.576 
L 74.895426 180.576 
L 75.958125 180.09216 
L 76.489475 180.09216 
L 77.020824 179.85024 
L 79.146222 179.85024 
L 79.677572 179.60832 
L 80.208921 179.12448 
L 80.740271 178.88256 
L 81.27162 178.88256 
L 81.80297 178.39872 
L 82.865669 177.91488 
L 83.397018 177.18912 
L 83.928368 177.18912 
L 84.459717 176.46336 
L 84.991067 176.46336 
L 86.053766 175.97952 
L 86.585115 175.97952 
L 87.116465 175.7376 
L 88.179164 174.28608 
L 88.710513 174.04416 
L 89.241863 173.3184 
L 90.835911 172.59264 
L 92.42996 169.20576 
L 92.961309 168.72192 
L 93.492659 167.99616 
L 94.024008 167.75424 
L 95.086707 166.78656 
L 95.618057 165.81888 
L 96.149406 164.60928 
L 97.743455 163.15776 
L 98.274804 162.19008 
L 98.806154 161.70624 
L 99.337503 161.70624 
L 99.868853 161.2224 
L 100.400202 161.2224 
L 100.931552 160.49664 
L 101.462901 160.49664 
L 101.994251 159.28704 
L 102.5256 158.56128 
L 103.05695 157.5936 
L 103.588299 157.10976 
L 104.119649 156.86784 
L 104.650998 156.14208 
L 105.182348 155.90016 
L 105.713697 154.69056 
L 106.776396 153.72288 
L 107.307746 152.7552 
L 107.839095 151.5456 
L 108.370445 150.81984 
L 109.433144 150.336 
L 109.964493 149.85216 
L 110.495843 148.15872 
L 111.558542 147.19104 
L 112.089891 146.94912 
L 113.15259 145.4976 
L 113.68394 145.01376 
L 114.215289 145.01376 
L 114.746639 144.52992 
L 115.809338 144.04608 
L 116.340687 144.04608 
L 117.403386 143.0784 
L 117.934736 142.35264 
L 118.466085 142.35264 
L 118.997435 142.11072 
L 119.528784 142.11072 
L 120.591483 141.14304 
L 121.122833 140.41728 
L 121.654182 138.48192 
L 122.716881 137.51424 
L 123.248231 136.78848 
L 123.77958 136.78848 
L 124.31093 135.8208 
L 124.842279 135.33696 
L 125.373629 134.36928 
L 125.904978 133.88544 
L 126.436328 133.15968 
L 126.967677 133.15968 
L 127.499027 132.91776 
L 128.030376 132.192 
L 129.093075 132.192 
L 130.155774 131.70816 
L 131.218473 131.70816 
L 132.281172 131.22432 
L 132.812522 131.22432 
L 134.40657 130.49856 
L 134.93792 130.49856 
L 135.469269 130.25664 
L 136.531968 129.28896 
L 137.063318 129.28896 
L 137.594667 128.80512 
L 138.126017 128.80512 
L 138.657366 128.5632 
L 139.188716 128.07936 
L 140.251415 127.59552 
L 141.314114 127.59552 
L 141.845463 127.11168 
L 143.439512 127.11168 
L 143.970861 126.86976 
L 144.502211 125.90208 
L 145.03356 125.90208 
L 146.627609 124.45056 
L 147.158958 124.45056 
L 147.690308 123.7248 
L 149.284356 123.7248 
L 149.815706 122.75712 
L 150.878405 121.78944 
L 151.409755 121.54752 
L 151.941104 121.54752 
L 153.003803 120.57984 
L 153.535153 120.57984 
L 154.066502 119.61216 
L 155.129201 119.61216 
L 155.660551 119.12832 
L 156.1919 119.12832 
L 156.72325 118.8864 
L 157.254599 118.8864 
L 158.317298 118.40256 
L 158.848648 118.40256 
L 159.379997 118.16064 
L 160.974046 118.16064 
L 161.505395 117.91872 
L 162.036745 117.43488 
L 162.568094 117.43488 
L 163.099444 117.19296 
L 164.693492 115.74144 
L 165.224842 115.49952 
L 165.756191 114.53184 
L 166.81889 113.56416 
L 167.35024 113.56416 
L 167.881589 113.08032 
L 168.412939 112.8384 
L 168.944288 112.11264 
L 169.475638 111.6288 
L 170.006987 111.6288 
L 170.538337 111.38688 
L 171.069686 109.93536 
L 172.132385 109.45152 
L 172.663735 108.48384 
L 173.726434 108 
L 174.257783 107.27424 
L 175.320482 106.7904 
L 175.851832 105.82272 
L 176.914531 104.85504 
L 177.97723 104.3712 
L 179.039929 103.40352 
L 179.571278 103.40352 
L 180.102628 103.1616 
L 180.633977 103.1616 
L 181.165327 102.91968 
L 182.759375 102.91968 
L 183.290725 102.67776 
L 184.884773 102.67776 
L 185.416123 102.43584 
L 185.947472 101.952 
L 188.07287 101.952 
L 189.666919 101.22624 
L 190.729618 100.25856 
L 191.792317 100.25856 
L 192.323666 100.01664 
L 192.855016 100.01664 
L 193.386365 99.29088 
L 193.917715 99.29088 
L 196.574462 98.08128 
L 197.637161 98.08128 
L 199.23121 97.35552 
L 199.762559 97.35552 
L 200.293909 97.1136 
L 200.825258 96.38784 
L 201.356608 96.38784 
L 201.887957 95.66208 
L 202.419307 95.17824 
L 202.950656 94.93632 
L 203.482006 94.45248 
L 204.544705 94.45248 
L 205.607404 93.4848 
L 206.138753 93.24288 
L 206.670103 92.75904 
L 207.732802 92.75904 
L 208.264151 92.51712 
L 208.795501 92.51712 
L 209.32685 92.2752 
L 210.389549 92.2752 
L 211.983598 91.54944 
L 212.514947 91.54944 
L 213.046297 91.0656 
L 214.108996 90.58176 
L 214.640345 90.58176 
L 215.703044 90.09792 
L 216.234394 90.09792 
L 216.765743 89.856 
L 217.297093 89.856 
L 217.828442 89.61408 
L 218.359792 89.61408 
L 219.95384 88.88832 
L 220.48519 88.40448 
L 221.547889 87.92064 
L 222.079238 87.92064 
L 223.141937 87.4368 
L 225.798685 87.4368 
L 226.330034 86.95296 
L 226.861384 86.71104 
L 227.392733 86.71104 
L 227.924083 86.46912 
L 228.455432 85.98528 
L 228.986782 85.74336 
L 230.58083 85.74336 
L 231.11218 85.50144 
L 231.643529 84.77568 
L 232.174879 84.29184 
L 232.706228 84.04992 
L 235.894325 84.04992 
L 237.488374 83.32416 
L 238.019723 83.32416 
L 238.551073 83.08224 
L 239.082422 83.08224 
L 239.613772 82.84032 
L 241.20782 82.84032 
L 241.73917 82.5984 
L 242.801869 81.63072 
L 243.333218 81.3888 
L 245.989966 81.3888 
L 246.521315 81.14688 
L 247.052665 81.14688 
L 247.584014 80.90496 
L 248.115364 80.90496 
L 248.646713 80.66304 
L 249.178063 80.66304 
L 251.303461 79.69536 
L 251.83481 79.69536 
L 252.36616 79.21152 
L 252.897509 78.9696 
L 253.428859 78.9696 
L 253.960208 78.72768 
L 255.022907 78.72768 
L 256.085606 78.24384 
L 256.616956 77.76 
L 257.679655 76.30848 
L 258.211004 75.82464 
L 259.805053 75.09888 
L 262.4618 75.09888 
L 264.055849 74.37312 
L 264.587198 74.37312 
L 265.118548 74.1312 
L 266.181247 74.1312 
L 266.712596 73.88928 
L 267.243946 73.40544 
L 267.775295 72.67968 
L 268.837994 72.67968 
L 269.900693 72.19584 
L 272.026091 72.19584 
L 272.557441 71.95392 
L 273.62014 71.95392 
L 274.151489 71.712 
L 278.402285 71.712 
L 278.933635 71.47008 
L 279.464984 71.47008 
L 281.590382 70.5024 
L 282.653081 70.5024 
L 283.184431 70.26048 
L 283.71578 69.77664 
L 284.24713 69.77664 
L 285.309829 69.2928 
L 285.841178 69.2928 
L 286.372528 69.05088 
L 287.435227 69.05088 
L 287.966576 68.56704 
L 288.497926 68.32512 
L 290.623324 68.32512 
L 291.154673 67.84128 
L 292.748722 67.84128 
L 293.280071 67.11552 
L 294.87412 66.38976 
L 295.405469 66.38976 
L 295.936819 65.90592 
L 296.468168 65.90592 
L 296.999518 65.18016 
L 297.530867 64.93824 
L 300.718964 62.0352 
L 301.781663 62.0352 
L 302.313013 61.55136 
L 302.844362 61.55136 
L 303.375712 61.30944 
L 303.907061 61.30944 
L 304.438411 61.06752 
L 307.095158 61.06752 
L 308.157857 60.58368 
L 308.689207 60.58368 
L 309.220556 60.34176 
L 312.940003 60.34176 
L 313.471352 60.09984 
L 316.659449 60.09984 
L 317.190799 59.85792 
L 320.378896 59.85792 
L 320.910245 59.37408 
L 321.441595 59.13216 
L 323.566993 59.13216 
L 324.098343 58.89024 
L 325.692391 58.89024 
L 326.223741 58.64832 
L 326.75509 58.64832 
L 327.817789 58.16448 
L 332.599935 58.16448 
L 333.131284 57.68064 
L 335.256682 57.68064 
L 335.788032 57.43872 
L 336.850731 57.43872 
L 337.91343 56.47104 
L 338.444779 56.47104 
L 338.976129 56.22912 
L 351.197167 56.22912 
L 351.728517 55.9872 
L 352.259866 55.9872 
L 352.791216 55.74528 
L 375.107895 55.74528 
L 375.639244 55.26144 
L 377.233293 55.26144 
L 377.764642 55.01952 
L 378.827341 55.01952 
L 379.358691 54.7776 
L 384.140836 54.7776 
L 384.672186 54.53568 
L 388.391632 54.53568 
L 389.454331 54.05184 
L 389.985681 54.05184 
L 390.51703 53.80992 
L 396.361875 53.80992 
L 396.893224 53.568 
L 398.487273 53.568 
L 398.487273 53.568 
" clip-path="url(#p3c343b7512)" style="fill: none; stroke-dasharray: 1.85,0.8; stroke-dashoffset: 0; stroke: #008000; stroke-width: 0.5"/>
   </g>
   <g id="line2d_16">
    <path d="M 73.832727 295.488 
L 74.364077 182.9952 
L 74.895426 182.75328 
L 76.489475 182.75328 
L 77.020824 182.51136 
L 77.552174 182.51136 
L 82.334319 180.33408 
L 82.865669 180.33408 
L 84.459717 179.60832 
L 84.991067 178.88256 
L 85.522416 178.88256 
L 86.053766 178.64064 
L 86.585115 178.64064 
L 87.116465 178.39872 
L 87.647814 177.67296 
L 88.710513 177.18912 
L 89.241863 177.18912 
L 90.304562 176.22144 
L 90.835911 175.49568 
L 91.367261 174.528 
L 91.89861 174.04416 
L 92.42996 173.80224 
L 92.961309 173.07648 
L 93.492659 173.07648 
L 94.024008 172.83456 
L 94.555358 171.86688 
L 95.086707 171.14112 
L 96.149406 170.17344 
L 96.680756 169.44768 
L 97.212105 169.44768 
L 97.743455 167.99616 
L 98.274804 167.75424 
L 98.806154 167.02848 
L 99.337503 166.54464 
L 99.868853 165.81888 
L 100.400202 165.33504 
L 101.994251 164.60928 
L 102.5256 163.6416 
L 103.05695 163.15776 
L 103.588299 162.432 
L 104.119649 162.19008 
L 104.650998 160.98048 
L 105.182348 160.73856 
L 105.713697 160.25472 
L 106.245047 159.52896 
L 106.776396 159.28704 
L 107.839095 157.83552 
L 108.370445 157.83552 
L 108.901794 157.5936 
L 109.433144 157.5936 
L 110.495843 156.14208 
L 111.027192 155.90016 
L 111.558542 155.41632 
L 112.089891 155.1744 
L 112.621241 154.44864 
L 114.215289 153.72288 
L 114.746639 152.99712 
L 115.277988 152.51328 
L 115.809338 152.27136 
L 116.340687 152.27136 
L 116.872037 151.78752 
L 117.403386 150.81984 
L 117.934736 150.336 
L 118.466085 150.09408 
L 118.997435 149.61024 
L 119.528784 149.61024 
L 120.591483 148.15872 
L 121.122833 148.15872 
L 121.654182 147.67488 
L 122.716881 146.22336 
L 123.248231 145.73952 
L 123.77958 145.4976 
L 124.842279 144.52992 
L 125.373629 144.52992 
L 125.904978 143.80416 
L 126.436328 143.32032 
L 126.967677 143.32032 
L 127.499027 142.83648 
L 128.030376 142.83648 
L 128.561726 142.59456 
L 129.093075 142.11072 
L 129.624425 141.8688 
L 130.687124 141.8688 
L 131.749823 141.38496 
L 132.281172 141.38496 
L 132.812522 141.14304 
L 134.40657 141.14304 
L 136.000619 139.69152 
L 136.531968 139.69152 
L 138.126017 138.96576 
L 138.657366 137.75616 
L 139.188716 137.0304 
L 139.720065 137.0304 
L 140.782764 136.54656 
L 141.314114 135.8208 
L 141.845463 135.8208 
L 142.908162 135.33696 
L 143.439512 135.33696 
L 143.970861 134.85312 
L 144.502211 134.6112 
L 146.096259 133.15968 
L 147.158958 132.67584 
L 147.690308 132.192 
L 149.284356 132.192 
L 149.815706 131.95008 
L 150.347055 131.95008 
L 150.878405 131.46624 
L 151.409755 131.46624 
L 151.941104 130.9824 
L 152.472454 130.74048 
L 153.003803 130.25664 
L 153.535153 130.01472 
L 154.066502 130.01472 
L 154.597852 129.28896 
L 155.129201 128.32128 
L 155.660551 128.07936 
L 156.1919 128.07936 
L 156.72325 127.83744 
L 157.785949 126.86976 
L 158.317298 126.86976 
L 158.848648 126.62784 
L 159.379997 126.144 
L 160.442696 126.144 
L 160.974046 125.66016 
L 162.568094 125.66016 
L 163.099444 124.9344 
L 163.630793 124.69248 
L 164.693492 123.7248 
L 165.224842 123.48288 
L 165.756191 122.99904 
L 166.81889 122.99904 
L 167.35024 122.27328 
L 168.412939 122.27328 
L 168.944288 121.78944 
L 169.475638 121.78944 
L 171.069686 121.06368 
L 171.601036 120.57984 
L 172.132385 120.57984 
L 172.663735 120.096 
L 173.195084 120.096 
L 174.257783 119.12832 
L 175.320482 119.12832 
L 175.851832 118.8864 
L 176.383181 118.8864 
L 176.914531 118.64448 
L 177.44588 118.64448 
L 177.97723 118.40256 
L 178.508579 117.91872 
L 179.039929 117.91872 
L 180.102628 117.43488 
L 181.165327 117.43488 
L 181.696676 117.19296 
L 182.228026 117.19296 
L 182.759375 116.4672 
L 183.290725 116.4672 
L 184.353424 115.49952 
L 184.884773 115.49952 
L 185.416123 115.01568 
L 186.478822 115.01568 
L 187.541521 114.53184 
L 188.07287 113.80608 
L 189.135569 113.32224 
L 190.729618 113.32224 
L 191.260967 113.08032 
L 192.323666 113.08032 
L 192.855016 112.59648 
L 193.386365 111.87072 
L 193.917715 111.87072 
L 194.980414 111.38688 
L 196.043113 111.38688 
L 196.574462 111.14496 
L 197.105812 111.14496 
L 197.637161 110.90304 
L 198.69986 110.90304 
L 199.23121 110.4192 
L 199.762559 110.4192 
L 200.293909 109.93536 
L 200.825258 109.69344 
L 201.356608 109.2096 
L 202.419307 109.2096 
L 202.950656 108.96768 
L 203.482006 108.96768 
L 204.013355 107.75808 
L 204.544705 107.75808 
L 205.607404 106.7904 
L 206.138753 106.7904 
L 206.670103 106.30656 
L 207.201452 105.5808 
L 208.795501 104.85504 
L 209.32685 104.85504 
L 209.8582 104.61312 
L 210.389549 104.61312 
L 211.452248 104.12928 
L 212.514947 103.1616 
L 213.046297 102.91968 
L 214.108996 101.46816 
L 214.640345 100.98432 
L 215.703044 100.50048 
L 216.765743 100.50048 
L 217.828442 100.01664 
L 218.359792 99.5328 
L 218.891141 98.80704 
L 219.422491 98.56512 
L 221.016539 98.56512 
L 221.547889 97.83936 
L 222.610588 97.35552 
L 223.141937 96.87168 
L 224.204636 96.38784 
L 225.798685 94.93632 
L 226.330034 94.93632 
L 227.924083 94.21056 
L 228.986782 93.24288 
L 230.049481 93.24288 
L 230.58083 93.00096 
L 231.11218 93.00096 
L 232.174879 92.51712 
L 232.706228 92.51712 
L 233.768927 91.54944 
L 234.831626 91.54944 
L 235.894325 91.0656 
L 236.425675 90.58176 
L 239.082422 90.58176 
L 240.145121 90.09792 
L 240.676471 89.61408 
L 243.333218 89.61408 
L 243.864568 89.37216 
L 247.052665 89.37216 
L 247.584014 89.13024 
L 248.115364 88.6464 
L 249.709412 87.92064 
L 250.240762 87.92064 
L 250.772111 87.67872 
L 251.83481 86.71104 
L 252.36616 86.46912 
L 253.428859 86.46912 
L 253.960208 86.2272 
L 254.491558 85.74336 
L 255.022907 85.50144 
L 255.554257 85.0176 
L 256.085606 85.0176 
L 256.616956 84.77568 
L 257.148305 84.77568 
L 257.679655 84.29184 
L 258.211004 84.29184 
L 259.273703 83.808 
L 259.805053 83.808 
L 261.930451 82.84032 
L 262.4618 82.11456 
L 262.99315 82.11456 
L 263.524499 81.3888 
L 264.587198 81.3888 
L 266.181247 80.66304 
L 267.243946 80.66304 
L 268.837994 79.93728 
L 269.369344 79.21152 
L 269.900693 79.21152 
L 270.432043 78.72768 
L 270.963392 78.48576 
L 271.494742 78.00192 
L 272.026091 77.27616 
L 273.62014 76.5504 
L 274.151489 76.5504 
L 274.682839 76.06656 
L 275.214188 76.06656 
L 275.745538 75.82464 
L 277.339586 75.82464 
L 277.870936 75.09888 
L 278.933635 74.61504 
L 279.464984 74.61504 
L 279.996334 74.37312 
L 280.527683 74.37312 
L 281.590382 73.88928 
L 282.121732 73.16352 
L 282.653081 73.16352 
L 283.184431 72.9216 
L 284.778479 72.9216 
L 285.841178 71.95392 
L 287.435227 71.95392 
L 287.966576 70.98624 
L 288.497926 70.26048 
L 289.029275 70.26048 
L 290.091974 69.77664 
L 290.623324 68.80896 
L 291.154673 68.80896 
L 291.686023 68.56704 
L 292.217372 68.56704 
L 292.748722 68.0832 
L 293.280071 67.84128 
L 293.811421 67.84128 
L 295.936819 66.8736 
L 296.468168 66.38976 
L 297.530867 65.90592 
L 298.062217 65.90592 
L 298.593566 65.664 
L 299.656265 65.664 
L 300.187615 64.93824 
L 300.718964 64.69632 
L 301.781663 63.72864 
L 302.313013 63.48672 
L 302.844362 62.0352 
L 303.375712 62.0352 
L 304.438411 61.55136 
L 304.96976 61.55136 
L 305.50111 61.30944 
L 306.032459 61.30944 
L 306.563809 60.8256 
L 308.689207 59.85792 
L 309.220556 59.85792 
L 309.751906 59.616 
L 310.283255 59.13216 
L 311.345954 59.13216 
L 311.877304 58.89024 
L 313.471352 58.89024 
L 314.002702 58.4064 
L 314.534051 58.16448 
L 316.659449 58.16448 
L 317.190799 57.92256 
L 319.316197 57.92256 
L 319.847546 57.68064 
L 321.441595 57.68064 
L 321.972945 57.1968 
L 322.504294 56.95488 
L 331.005886 56.95488 
L 331.537236 56.71296 
L 335.256682 56.71296 
L 336.319381 56.22912 
L 338.976129 56.22912 
L 339.507478 55.9872 
L 344.820973 55.9872 
L 345.352323 55.50336 
L 345.883672 55.26144 
L 350.665818 55.26144 
L 351.197167 55.01952 
L 351.728517 55.01952 
L 352.259866 54.53568 
L 353.322565 54.53568 
L 353.853915 54.29376 
L 363.418206 54.29376 
L 363.949555 54.05184 
L 366.074953 54.05184 
L 366.606303 53.80992 
L 397.955923 53.80992 
L 398.487273 53.568 
L 398.487273 53.568 
" clip-path="url(#p3c343b7512)" style="fill: none; stroke-dasharray: 1.85,0.8; stroke-dashoffset: 0; stroke: #0000ff; stroke-width: 0.5"/>
   </g>
   <g id="line2d_17">
    <path d="M 73.832727 295.488 
L 74.364077 243.23328 
L 76.489475 243.23328 
L 77.020824 242.50752 
L 77.552174 242.02368 
L 78.083523 241.29792 
L 78.614873 241.29792 
L 79.146222 240.81408 
L 79.677572 240.57216 
L 80.208921 239.60448 
L 81.80297 238.87872 
L 82.865669 237.4272 
L 83.397018 236.94336 
L 84.991067 236.2176 
L 85.522416 235.49184 
L 86.053766 235.24992 
L 86.585115 234.28224 
L 87.116465 233.7984 
L 88.179164 232.34688 
L 88.710513 231.13728 
L 89.241863 230.89536 
L 89.773212 230.1696 
L 90.304562 229.92768 
L 90.835911 228.96 
L 91.367261 228.47616 
L 91.89861 227.02464 
L 92.42996 226.78272 
L 92.961309 225.57312 
L 93.492659 224.84736 
L 94.024008 224.36352 
L 94.555358 222.18624 
L 95.086707 221.46048 
L 95.618057 221.21856 
L 96.149406 220.25088 
L 96.680756 218.79936 
L 97.212105 218.31552 
L 97.743455 217.10592 
L 98.274804 216.864 
L 99.337503 214.4448 
L 99.868853 214.20288 
L 100.400202 213.47712 
L 100.931552 212.26752 
L 101.462901 211.78368 
L 101.994251 210.57408 
L 102.5256 209.84832 
L 103.05695 209.36448 
L 103.588299 208.63872 
L 104.650998 206.70336 
L 105.713697 205.73568 
L 106.245047 204.52608 
L 106.776396 202.83264 
L 107.307746 202.3488 
L 107.839095 200.89728 
L 108.370445 198.96192 
L 109.433144 196.05888 
L 109.964493 192.672 
L 111.027192 190.01088 
L 111.558542 187.8336 
L 112.621241 184.68864 
L 113.68394 183.23712 
L 114.215289 181.54368 
L 114.746639 180.576 
L 115.809338 178.39872 
L 116.340687 177.67296 
L 116.872037 177.18912 
L 117.403386 176.9472 
L 117.934736 176.22144 
L 118.466085 175.7376 
L 118.997435 174.76992 
L 119.528784 174.04416 
L 120.060134 173.56032 
L 120.591483 172.83456 
L 121.122833 171.86688 
L 122.185532 167.51232 
L 122.716881 164.8512 
L 123.77958 161.2224 
L 124.31093 160.25472 
L 124.842279 158.8032 
L 125.373629 157.83552 
L 125.904978 157.35168 
L 126.436328 156.62592 
L 127.499027 156.14208 
L 128.561726 154.69056 
L 129.093075 154.69056 
L 129.624425 154.20672 
L 130.155774 153.9648 
L 130.687124 153.9648 
L 131.218473 153.23904 
L 131.749823 153.23904 
L 133.875221 152.27136 
L 134.93792 150.81984 
L 135.469269 149.61024 
L 136.000619 149.1264 
L 136.531968 148.15872 
L 137.063318 147.43296 
L 137.594667 146.94912 
L 138.126017 145.98144 
L 139.188716 145.4976 
L 140.251415 144.04608 
L 140.782764 143.56224 
L 141.314114 142.83648 
L 141.845463 141.8688 
L 142.376813 141.8688 
L 142.908162 141.62688 
L 143.439512 140.90112 
L 143.970861 140.6592 
L 145.03356 139.69152 
L 145.56491 138.96576 
L 146.096259 137.75616 
L 146.627609 137.0304 
L 147.158958 136.54656 
L 147.690308 135.8208 
L 148.221657 135.33696 
L 148.753007 134.6112 
L 149.284356 134.12736 
L 149.815706 133.88544 
L 150.347055 131.95008 
L 151.409755 130.49856 
L 151.941104 128.5632 
L 153.535153 127.11168 
L 154.066502 125.41824 
L 154.597852 124.9344 
L 155.660551 121.78944 
L 156.72325 120.82176 
L 157.254599 120.096 
L 158.317298 119.61216 
L 158.848648 119.61216 
L 159.379997 118.64448 
L 159.911347 118.40256 
L 160.442696 117.43488 
L 160.974046 116.22528 
L 161.505395 115.74144 
L 162.036745 115.74144 
L 163.630793 112.35456 
L 164.162143 110.4192 
L 165.756191 107.51616 
L 166.287541 106.06464 
L 167.35024 105.09696 
L 167.881589 104.3712 
L 168.412939 104.12928 
L 168.944288 102.91968 
L 169.475638 102.43584 
L 170.006987 102.19392 
L 170.538337 101.46816 
L 171.069686 100.25856 
L 172.132385 99.77472 
L 172.663735 99.29088 
L 173.195084 98.56512 
L 173.726434 98.08128 
L 174.257783 96.87168 
L 174.789133 96.38784 
L 175.320482 96.14592 
L 176.914531 93.96864 
L 177.44588 93.72672 
L 177.97723 92.75904 
L 178.508579 92.51712 
L 179.039929 91.54944 
L 179.571278 91.30752 
L 180.633977 91.30752 
L 181.165327 91.0656 
L 181.696676 89.856 
L 183.822074 89.856 
L 185.416123 89.13024 
L 185.947472 89.13024 
L 187.541521 88.40448 
L 188.07287 88.40448 
L 188.60422 88.16256 
L 189.135569 87.4368 
L 189.666919 87.19488 
L 190.198268 87.19488 
L 190.729618 86.71104 
L 191.260967 86.71104 
L 192.323666 86.2272 
L 192.855016 86.2272 
L 193.386365 85.98528 
L 194.449064 85.0176 
L 194.980414 85.0176 
L 196.043113 84.53376 
L 196.574462 84.53376 
L 197.105812 84.29184 
L 197.637161 84.29184 
L 198.69986 83.32416 
L 199.23121 83.32416 
L 201.356608 81.3888 
L 201.887957 80.66304 
L 202.419307 80.1792 
L 202.950656 79.45344 
L 203.482006 78.48576 
L 204.013355 78.48576 
L 204.544705 78.00192 
L 206.670103 78.00192 
L 207.732802 77.03424 
L 208.264151 76.30848 
L 208.795501 76.30848 
L 209.32685 76.06656 
L 209.8582 75.3408 
L 210.389549 75.09888 
L 210.920899 74.61504 
L 211.983598 74.61504 
L 213.046297 74.1312 
L 213.577646 74.1312 
L 214.108996 73.40544 
L 215.703044 73.40544 
L 216.234394 72.9216 
L 217.828442 72.9216 
L 218.359792 72.67968 
L 219.422491 72.67968 
L 219.95384 72.43776 
L 221.016539 72.43776 
L 222.079238 71.95392 
L 225.267335 71.95392 
L 225.798685 71.712 
L 226.330034 71.712 
L 226.861384 71.47008 
L 228.986782 71.47008 
L 229.518131 71.22816 
L 230.049481 71.22816 
L 230.58083 70.98624 
L 232.174879 70.98624 
L 232.706228 70.74432 
L 233.237578 70.01856 
L 234.300277 69.05088 
L 234.831626 69.05088 
L 235.894325 68.56704 
L 236.425675 68.0832 
L 238.019723 68.0832 
L 238.551073 67.59936 
L 239.082422 67.35744 
L 240.676471 67.35744 
L 241.73917 66.8736 
L 242.270519 66.8736 
L 242.801869 66.63168 
L 244.395917 66.63168 
L 244.927267 66.38976 
L 246.521315 66.38976 
L 247.052665 66.14784 
L 247.584014 65.664 
L 248.646713 65.664 
L 249.178063 65.42208 
L 253.428859 65.42208 
L 253.960208 65.18016 
L 257.148305 65.18016 
L 257.679655 64.93824 
L 259.805053 64.93824 
L 260.336402 64.69632 
L 269.900693 64.69632 
L 270.432043 64.4544 
L 273.62014 64.4544 
L 274.151489 64.21248 
L 276.808237 64.21248 
L 277.339586 63.97056 
L 277.870936 63.97056 
L 278.402285 63.72864 
L 279.464984 63.72864 
L 279.996334 63.48672 
L 281.590382 63.48672 
L 282.121732 63.2448 
L 283.184431 63.2448 
L 283.71578 63.00288 
L 284.24713 62.51904 
L 284.778479 62.27712 
L 285.309829 62.27712 
L 285.841178 62.0352 
L 286.372528 62.0352 
L 287.435227 61.55136 
L 287.966576 61.06752 
L 288.497926 60.8256 
L 289.029275 60.8256 
L 289.560625 60.09984 
L 290.623324 60.09984 
L 292.217372 59.37408 
L 294.34277 59.37408 
L 294.87412 59.13216 
L 295.405469 59.13216 
L 296.468168 58.64832 
L 296.999518 58.64832 
L 297.530867 58.4064 
L 299.656265 58.4064 
L 300.187615 58.16448 
L 302.844362 58.16448 
L 303.375712 57.92256 
L 315.59675 57.92256 
L 316.1281 57.43872 
L 328.880488 57.43872 
L 329.411838 57.1968 
L 330.474537 57.1968 
L 331.005886 56.71296 
L 332.068585 56.71296 
L 332.599935 56.47104 
L 333.131284 56.47104 
L 333.662634 56.22912 
L 334.193983 56.22912 
L 334.725333 55.9872 
L 335.256682 55.9872 
L 335.788032 55.74528 
L 337.38208 55.74528 
L 337.91343 55.50336 
L 338.444779 55.50336 
L 338.976129 55.01952 
L 339.507478 55.01952 
L 340.570177 54.53568 
L 341.101527 54.05184 
L 342.164226 53.568 
L 398.487273 53.568 
L 398.487273 53.568 
" clip-path="url(#p3c343b7512)" style="fill: none; stroke-dasharray: 1.85,0.8; stroke-dashoffset: 0; stroke: #bf00bf; stroke-width: 0.5"/>
   </g>
   <g id="line2d_18">
    <path d="M 73.832727 295.488 
L 74.364077 55.26144 
L 75.958125 55.26144 
L 76.489475 55.01952 
L 86.053766 55.01952 
L 86.585115 54.7776 
L 89.773212 54.7776 
L 90.304562 54.05184 
L 90.835911 53.568 
L 398.487273 53.568 
L 398.487273 53.568 
" clip-path="url(#p3c343b7512)" style="fill: none; stroke-dasharray: 1.85,0.8; stroke-dashoffset: 0; stroke: #bfbf00; stroke-width: 0.5"/>
   </g>
   <g id="patch_3">
    <path d="M 57.6 307.584 
L 57.6 41.472 
" style="fill: none; stroke: #000000; stroke-width: 0.8; stroke-linejoin: miter; stroke-linecap: square"/>
   </g>
   <g id="patch_4">
    <path d="M 414.72 307.584 
L 414.72 41.472 
" style="fill: none; stroke: #000000; stroke-width: 0.8; stroke-linejoin: miter; stroke-linecap: square"/>
   </g>
   <g id="patch_5">
    <path d="M 57.6 307.584 
L 414.72 307.584 
" style="fill: none; stroke: #000000; stroke-width: 0.8; stroke-linejoin: miter; stroke-linecap: square"/>
   </g>
   <g id="patch_6">
    <path d="M 57.6 41.472 
L 414.72 41.472 
" style="fill: none; stroke: #000000; stroke-width: 0.8; stroke-linejoin: miter; stroke-linecap: square"/>
   </g>
   <g id="text_16">
    <!-- count=1000, googlenet=150, resnet50=187, squeezenetv1=150, vgg19=112, yolov2=150 -->
    <g transform="translate(-3.84 35.472) scale(0.12 -0.12)">
     <defs>
      <path id="FangSong-6f" d="M 2875 1400 
Q 2875 775 2500 362 
Q 2125 -50 1575 -50 
Q 1000 -50 637 375 
Q 275 800 275 1400 
Q 275 1950 637 2400 
Q 1000 2850 1575 2850 
Q 2175 2850 2525 2400 
Q 2875 1950 2875 1400 
z
M 675 1375 
Q 675 725 937 412 
Q 1200 100 1575 100 
Q 2000 100 2237 437 
Q 2475 775 2475 1375 
Q 2475 2025 2212 2362 
Q 1950 2700 1575 2700 
Q 1225 2700 950 2362 
Q 675 2025 675 1375 
z
" transform="scale(0.015625)"/>
      <path id="FangSong-75" d="M 1425 225 
Q 1725 225 1937 375 
Q 2150 525 2250 850 
L 2250 2425 
Q 2250 2525 2200 2587 
Q 2150 2650 2025 2650 
L 1875 2650 
L 1875 2800 
L 2025 2800 
Q 2175 2800 2300 2825 
Q 2425 2850 2550 2950 
L 2600 2950 
L 2600 500 
Q 2600 400 2662 350 
Q 2725 300 2825 300 
L 2975 300 
L 2975 150 
L 2825 150 
Q 2700 150 2575 112 
Q 2450 75 2300 0 
L 2250 0 
L 2250 525 
Q 2125 250 1875 112 
Q 1625 -25 1300 -25 
Q 900 -25 700 200 
Q 500 425 500 925 
L 500 2425 
Q 500 2525 450 2587 
Q 400 2650 275 2650 
L 125 2650 
L 125 2800 
L 275 2800 
Q 425 2800 550 2825 
Q 675 2850 800 2950 
L 850 2950 
L 850 875 
Q 850 525 1000 375 
Q 1150 225 1425 225 
z
" transform="scale(0.015625)"/>
      <path id="FangSong-3d" d="M 175 2725 
L 175 2950 
L 2950 2950 
L 2950 2725 
L 175 2725 
z
M 175 1450 
L 175 1675 
L 2950 1675 
L 2950 1450 
L 175 1450 
z
" transform="scale(0.015625)"/>
      <path id="FangSong-2c" d="M 1325 75 
Q 1200 25 1100 75 
Q 1000 125 962 237 
Q 925 350 925 437 
Q 925 525 987 612 
Q 1050 700 1150 737 
Q 1250 775 1425 725 
Q 1600 675 1650 500 
Q 1700 325 1662 150 
Q 1625 -25 1525 -200 
Q 1425 -375 1312 -475 
Q 1200 -575 1025 -675 
L 950 -575 
Q 1100 -450 1187 -312 
Q 1275 -175 1325 75 
z
" transform="scale(0.015625)"/>
      <path id="FangSong-20" transform="scale(0.015625)"/>
      <path id="FangSong-67" d="M 850 1875 
Q 850 1575 1025 1362 
Q 1200 1150 1500 1150 
Q 1825 1150 1987 1337 
Q 2150 1525 2150 1875 
Q 2150 2300 1962 2487 
Q 1775 2675 1500 2675 
Q 1225 2675 1037 2487 
Q 850 2300 850 1875 
z
M 2075 525 
Q 2450 475 2625 312 
Q 2800 150 2800 -125 
Q 2800 -500 2487 -725 
Q 2175 -950 1500 -950 
Q 975 -950 650 -737 
Q 325 -525 325 -250 
Q 325 -75 450 100 
Q 575 275 850 375 
Q 700 450 612 537 
Q 525 625 525 750 
Q 525 900 625 1012 
Q 725 1125 875 1200 
Q 725 1325 612 1500 
Q 500 1675 500 1875 
Q 500 2250 762 2537 
Q 1025 2825 1500 2825 
Q 1700 2825 1887 2775 
Q 2075 2725 2200 2600 
Q 2375 2725 2512 2787 
Q 2650 2850 2750 2850 
Q 2875 2850 2925 2762 
Q 2975 2675 2975 2600 
Q 2975 2500 2937 2437 
Q 2900 2375 2800 2375 
Q 2725 2375 2675 2412 
Q 2625 2450 2600 2525 
Q 2575 2600 2487 2587 
Q 2400 2575 2300 2500 
Q 2400 2400 2450 2225 
Q 2500 2050 2500 1875 
Q 2500 1575 2262 1287 
Q 2025 1000 1500 1000 
Q 1350 1000 1225 1037 
Q 1100 1075 1025 1125 
Q 925 1075 875 1000 
Q 825 925 825 875 
Q 825 775 875 725 
Q 925 675 1025 675 
Q 1350 625 1612 587 
Q 1875 550 2075 525 
z
M 1050 325 
Q 825 225 737 87 
Q 650 -50 650 -250 
Q 650 -450 875 -625 
Q 1100 -800 1550 -800 
Q 1975 -800 2225 -662 
Q 2475 -525 2475 -250 
Q 2475 -75 2412 25 
Q 2350 125 2225 150 
Q 1975 200 1675 237 
Q 1375 275 1050 325 
z
" transform="scale(0.015625)"/>
      <path id="FangSong-6c" d="M 900 4275 
Q 1125 4275 1325 4325 
Q 1525 4375 1700 4475 
L 1750 4475 
L 1750 350 
Q 1750 250 1812 200 
Q 1875 150 1975 150 
L 2550 150 
L 2550 0 
L 600 0 
L 600 150 
L 1175 150 
Q 1300 150 1350 200 
Q 1400 250 1400 350 
L 1400 3925 
Q 1400 4025 1350 4075 
Q 1300 4125 1175 4125 
L 625 4125 
L 625 4275 
L 900 4275 
z
" transform="scale(0.015625)"/>
      <path id="FangSong-72" d="M 1250 2025 
Q 1500 2425 1787 2637 
Q 2075 2850 2375 2850 
Q 2625 2850 2762 2737 
Q 2900 2625 2900 2475 
Q 2900 2350 2837 2275 
Q 2775 2200 2650 2200 
Q 2525 2200 2462 2275 
Q 2400 2350 2425 2475 
Q 2425 2550 2400 2600 
Q 2375 2650 2250 2650 
Q 2050 2650 1762 2400 
Q 1475 2150 1250 1700 
L 1250 350 
Q 1250 250 1312 200 
Q 1375 150 1475 150 
L 2025 150 
L 2025 0 
L 175 0 
L 175 150 
L 675 150 
Q 800 150 850 200 
Q 900 250 900 350 
L 900 2425 
Q 900 2525 850 2587 
Q 800 2650 675 2650 
L 200 2650 
L 200 2800 
L 400 2800 
Q 575 2800 812 2837 
Q 1050 2875 1175 2925 
L 1250 2925 
L 1250 2025 
z
" transform="scale(0.015625)"/>
      <path id="FangSong-73" d="M 600 2075 
Q 600 2450 887 2650 
Q 1175 2850 1575 2850 
Q 1800 2850 2000 2787 
Q 2200 2725 2275 2725 
Q 2350 2725 2400 2750 
Q 2450 2775 2525 2850 
L 2625 2025 
L 2475 2000 
Q 2375 2325 2137 2512 
Q 1900 2700 1600 2700 
Q 1275 2700 1087 2575 
Q 900 2450 900 2225 
Q 900 2025 987 1912 
Q 1075 1800 1300 1750 
Q 1475 1675 1737 1587 
Q 2000 1500 2225 1400 
Q 2425 1300 2562 1137 
Q 2700 975 2700 775 
Q 2700 400 2437 187 
Q 2175 -25 1675 -25 
Q 1350 -25 1187 37 
Q 1025 100 925 100 
Q 850 100 762 62 
Q 675 25 575 -25 
L 500 900 
L 650 925 
Q 725 525 975 325 
Q 1225 125 1675 125 
Q 2025 125 2212 250 
Q 2400 375 2400 625 
Q 2400 800 2300 912 
Q 2200 1025 2100 1075 
Q 1850 1175 1550 1287 
Q 1250 1400 1025 1500 
Q 800 1600 700 1750 
Q 600 1900 600 2075 
z
" transform="scale(0.015625)"/>
      <path id="FangSong-37" d="M 2800 4100 
Q 2275 3250 1962 2437 
Q 1650 1625 1650 1025 
Q 1650 925 1662 737 
Q 1675 550 1675 300 
Q 1675 100 1612 25 
Q 1550 -50 1400 -50 
Q 1275 -50 1187 37 
Q 1100 125 1100 350 
Q 1100 825 1312 1525 
Q 1525 2225 2450 3900 
L 1200 3900 
Q 925 3900 762 3725 
Q 600 3550 525 3200 
L 375 3225 
L 550 4275 
L 2800 4275 
L 2800 4100 
z
" transform="scale(0.015625)"/>
      <path id="FangSong-71" d="M 2250 2150 
Q 2150 2375 1975 2512 
Q 1800 2650 1550 2650 
Q 1200 2650 950 2350 
Q 700 2050 700 1325 
Q 700 700 912 437 
Q 1125 175 1450 175 
Q 1725 175 1937 300 
Q 2150 425 2250 725 
L 2250 2150 
z
M 2600 -550 
Q 2600 -675 2662 -725 
Q 2725 -775 2825 -775 
L 2975 -775 
L 2975 -925 
L 1825 -925 
L 1825 -775 
L 2025 -775 
Q 2150 -775 2200 -725 
Q 2250 -675 2250 -550 
L 2250 375 
Q 2100 175 1887 75 
Q 1675 -25 1375 -25 
Q 950 -25 625 337 
Q 300 700 300 1400 
Q 300 2075 675 2450 
Q 1050 2825 1475 2825 
Q 1750 2825 1937 2725 
Q 2125 2625 2275 2475 
L 2500 2800 
L 2600 2800 
L 2600 -550 
z
" transform="scale(0.015625)"/>
      <path id="FangSong-7a" d="M 2725 975 
L 2550 0 
L 400 0 
L 400 125 
L 2125 2650 
L 1200 2650 
Q 975 2650 825 2487 
Q 675 2325 575 1925 
L 425 1950 
L 525 2800 
L 2575 2800 
L 2575 2725 
L 825 150 
L 1775 150 
Q 2100 150 2287 350 
Q 2475 550 2575 1000 
L 2725 975 
z
" transform="scale(0.015625)"/>
      <path id="FangSong-76" d="M 1600 -25 
L 1450 -25 
L 600 2425 
Q 575 2525 500 2587 
Q 425 2650 325 2650 
L 200 2650 
L 200 2800 
L 1275 2800 
L 1275 2650 
L 1175 2650 
Q 1025 2650 987 2575 
Q 950 2500 1000 2325 
L 1600 575 
L 1650 575 
L 2250 2300 
Q 2325 2475 2262 2562 
Q 2200 2650 2050 2650 
L 2000 2650 
L 2000 2800 
L 2900 2800 
L 2900 2650 
L 2850 2650 
Q 2700 2650 2612 2562 
Q 2525 2475 2450 2300 
L 1600 -25 
z
" transform="scale(0.015625)"/>
      <path id="FangSong-39" d="M 675 2950 
Q 675 2400 887 2112 
Q 1100 1825 1425 1825 
Q 1800 1825 2075 2175 
Q 2350 2525 2350 2825 
Q 2350 3425 2150 3787 
Q 1950 4150 1500 4150 
Q 1075 4150 875 3812 
Q 675 3475 675 2950 
z
M 1350 1600 
Q 850 1600 550 1912 
Q 250 2225 250 2925 
Q 250 3525 575 3925 
Q 900 4325 1500 4325 
Q 2125 4325 2475 3825 
Q 2825 3325 2825 2375 
Q 2825 1325 2412 637 
Q 2000 -50 1275 -50 
Q 950 -50 712 100 
Q 475 250 475 500 
Q 475 600 537 700 
Q 600 800 750 800 
Q 900 800 950 687 
Q 1000 575 1000 425 
Q 1000 325 1025 262 
Q 1050 200 1075 175 
Q 1100 150 1162 137 
Q 1225 125 1300 125 
Q 1750 125 2025 625 
Q 2300 1125 2350 2300 
Q 2225 2000 1975 1800 
Q 1725 1600 1350 1600 
z
" transform="scale(0.015625)"/>
     </defs>
     <use xlink:href="#FangSong-63"/>
     <use xlink:href="#FangSong-6f" x="50"/>
     <use xlink:href="#FangSong-75" x="100"/>
     <use xlink:href="#FangSong-6e" x="150"/>
     <use xlink:href="#FangSong-74" x="200"/>
     <use xlink:href="#FangSong-3d" x="250"/>
     <use xlink:href="#FangSong-31" x="300"/>
     <use xlink:href="#FangSong-30" x="350"/>
     <use xlink:href="#FangSong-30" x="400"/>
     <use xlink:href="#FangSong-30" x="450"/>
     <use xlink:href="#FangSong-2c" x="500"/>
     <use xlink:href="#FangSong-20" x="550"/>
     <use xlink:href="#FangSong-67" x="600"/>
     <use xlink:href="#FangSong-6f" x="650"/>
     <use xlink:href="#FangSong-6f" x="700"/>
     <use xlink:href="#FangSong-67" x="750"/>
     <use xlink:href="#FangSong-6c" x="800"/>
     <use xlink:href="#FangSong-65" x="850"/>
     <use xlink:href="#FangSong-6e" x="900"/>
     <use xlink:href="#FangSong-65" x="950"/>
     <use xlink:href="#FangSong-74" x="1000"/>
     <use xlink:href="#FangSong-3d" x="1050"/>
     <use xlink:href="#FangSong-31" x="1100"/>
     <use xlink:href="#FangSong-35" x="1150"/>
     <use xlink:href="#FangSong-30" x="1200"/>
     <use xlink:href="#FangSong-2c" x="1250"/>
     <use xlink:href="#FangSong-20" x="1300"/>
     <use xlink:href="#FangSong-72" x="1350"/>
     <use xlink:href="#FangSong-65" x="1400"/>
     <use xlink:href="#FangSong-73" x="1450"/>
     <use xlink:href="#FangSong-6e" x="1500"/>
     <use xlink:href="#FangSong-65" x="1550"/>
     <use xlink:href="#FangSong-74" x="1600"/>
     <use xlink:href="#FangSong-35" x="1650"/>
     <use xlink:href="#FangSong-30" x="1700"/>
     <use xlink:href="#FangSong-3d" x="1750"/>
     <use xlink:href="#FangSong-31" x="1800"/>
     <use xlink:href="#FangSong-38" x="1850"/>
     <use xlink:href="#FangSong-37" x="1900"/>
     <use xlink:href="#FangSong-2c" x="1950"/>
     <use xlink:href="#FangSong-20" x="2000"/>
     <use xlink:href="#FangSong-73" x="2050"/>
     <use xlink:href="#FangSong-71" x="2100"/>
     <use xlink:href="#FangSong-75" x="2150"/>
     <use xlink:href="#FangSong-65" x="2200"/>
     <use xlink:href="#FangSong-65" x="2250"/>
     <use xlink:href="#FangSong-7a" x="2300"/>
     <use xlink:href="#FangSong-65" x="2350"/>
     <use xlink:href="#FangSong-6e" x="2400"/>
     <use xlink:href="#FangSong-65" x="2450"/>
     <use xlink:href="#FangSong-74" x="2500"/>
     <use xlink:href="#FangSong-76" x="2550"/>
     <use xlink:href="#FangSong-31" x="2600"/>
     <use xlink:href="#FangSong-3d" x="2650"/>
     <use xlink:href="#FangSong-31" x="2700"/>
     <use xlink:href="#FangSong-35" x="2750"/>
     <use xlink:href="#FangSong-30" x="2800"/>
     <use xlink:href="#FangSong-2c" x="2850"/>
     <use xlink:href="#FangSong-20" x="2900"/>
     <use xlink:href="#FangSong-76" x="2950"/>
     <use xlink:href="#FangSong-67" x="3000"/>
     <use xlink:href="#FangSong-67" x="3050"/>
     <use xlink:href="#FangSong-31" x="3100"/>
     <use xlink:href="#FangSong-39" x="3150"/>
     <use xlink:href="#FangSong-3d" x="3200"/>
     <use xlink:href="#FangSong-31" x="3250"/>
     <use xlink:href="#FangSong-31" x="3300"/>
     <use xlink:href="#FangSong-32" x="3350"/>
     <use xlink:href="#FangSong-2c" x="3400"/>
     <use xlink:href="#FangSong-20" x="3450"/>
     <use xlink:href="#FangSong-79" x="3500"/>
     <use xlink:href="#FangSong-6f" x="3550"/>
     <use xlink:href="#FangSong-6c" x="3600"/>
     <use xlink:href="#FangSong-6f" x="3650"/>
     <use xlink:href="#FangSong-76" x="3700"/>
     <use xlink:href="#FangSong-32" x="3750"/>
     <use xlink:href="#FangSong-3d" x="3800"/>
     <use xlink:href="#FangSong-31" x="3850"/>
     <use xlink:href="#FangSong-35" x="3900"/>
     <use xlink:href="#FangSong-30" x="3950"/>
    </g>
   </g>
   <g id="legend_1">
    <g id="patch_7">
     <path d="M 335.72 302.584 
L 407.72 302.584 
Q 409.72 302.584 409.72 300.584 
L 409.72 234.357437 
Q 409.72 232.357437 407.72 232.357437 
L 335.72 232.357437 
Q 333.72 232.357437 333.72 234.357437 
L 333.72 300.584 
Q 333.72 302.584 335.72 302.584 
z
" style="fill: #ffffff; opacity: 0.8; stroke: #cccccc; stroke-linejoin: miter"/>
    </g>
    <g id="line2d_19">
     <path d="M 337.72 239.857437 
L 347.72 239.857437 
L 357.72 239.857437 
" style="fill: none; stroke: #ff0000; stroke-linecap: square"/>
    </g>
    <g id="text_17">
     <!-- DLIR -->
     <g transform="translate(365.72 243.357437) scale(0.1 -0.1)">
      <defs>
       <path id="FangSong-44" d="M 2475 2175 
Q 2475 3250 2150 3687 
Q 1825 4125 1250 4125 
Q 1075 4125 987 4075 
Q 900 4025 900 3925 
L 900 350 
Q 900 250 975 200 
Q 1050 150 1175 150 
Q 1725 150 2100 562 
Q 2475 975 2475 2175 
z
M 500 3925 
Q 500 4025 450 4075 
Q 400 4125 275 4125 
L 125 4125 
L 125 4275 
L 1250 4275 
Q 2025 4275 2487 3775 
Q 2950 3275 2950 2225 
Q 2950 1075 2500 537 
Q 2050 0 1175 0 
L 100 0 
L 100 150 
L 275 150 
Q 400 150 450 200 
Q 500 250 500 350 
L 500 3925 
z
" transform="scale(0.015625)"/>
       <path id="FangSong-49" d="M 575 4125 
L 575 4275 
L 2575 4275 
L 2575 4125 
L 2000 4125 
Q 1900 4125 1837 4075 
Q 1775 4025 1775 3925 
L 1775 350 
Q 1775 250 1837 200 
Q 1900 150 2000 150 
L 2575 150 
L 2575 0 
L 575 0 
L 575 150 
L 1150 150 
Q 1275 150 1325 200 
Q 1375 250 1375 350 
L 1375 3925 
Q 1375 4025 1325 4075 
Q 1275 4125 1150 4125 
L 575 4125 
z
" transform="scale(0.015625)"/>
       <path id="FangSong-52" d="M 2800 3275 
Q 2800 2775 2525 2500 
Q 2250 2225 1900 2175 
L 2650 325 
Q 2700 225 2762 187 
Q 2825 150 2900 150 
L 3050 150 
L 3050 0 
L 2350 0 
L 1525 2150 
L 950 2150 
L 950 350 
Q 950 250 1012 200 
Q 1075 150 1175 150 
L 1325 150 
L 1325 0 
L 175 0 
L 175 150 
L 325 150 
Q 450 150 500 200 
Q 550 250 550 350 
L 550 3925 
Q 550 4025 500 4075 
Q 450 4125 325 4125 
L 175 4125 
L 175 4275 
L 1600 4275 
Q 2175 4275 2487 4025 
Q 2800 3775 2800 3275 
z
M 950 2300 
L 1500 2300 
Q 1875 2300 2125 2525 
Q 2375 2750 2375 3225 
Q 2375 3650 2150 3887 
Q 1925 4125 1450 4125 
L 1175 4125 
Q 1075 4125 1012 4075 
Q 950 4025 950 3925 
L 950 2300 
z
" transform="scale(0.015625)"/>
      </defs>
      <use xlink:href="#FangSong-44"/>
      <use xlink:href="#FangSong-4c" x="50"/>
      <use xlink:href="#FangSong-49" x="100"/>
      <use xlink:href="#FangSong-52" x="150"/>
     </g>
    </g>
    <g id="line2d_20">
     <path d="M 337.72 253.30275 
L 347.72 253.30275 
L 357.72 253.30275 
" style="fill: none; stroke-dasharray: 1.85,0.8; stroke-dashoffset: 0; stroke: #008000; stroke-width: 0.5"/>
    </g>
    <g id="text_18">
     <!-- BNST -->
     <g transform="translate(365.72 256.80275) scale(0.1 -0.1)">
      <defs>
       <path id="FangSong-42" d="M 75 0 
L 75 150 
L 275 150 
Q 400 150 450 200 
Q 500 250 500 350 
L 500 3925 
Q 500 4025 450 4075 
Q 400 4125 275 4125 
L 125 4125 
L 125 4275 
L 1575 4275 
Q 2175 4275 2462 4037 
Q 2750 3800 2750 3300 
Q 2750 2950 2600 2725 
Q 2450 2500 1975 2325 
Q 2550 2150 2750 1825 
Q 2950 1500 2950 1100 
Q 2950 600 2600 300 
Q 2250 0 1650 0 
L 75 0 
z
M 1575 150 
Q 2000 150 2237 412 
Q 2475 675 2475 1150 
Q 2475 1700 2225 1962 
Q 1975 2225 1475 2225 
L 900 2225 
L 900 350 
Q 900 250 962 200 
Q 1025 150 1125 150 
L 1575 150 
z
M 2325 3300 
Q 2325 3750 2075 3937 
Q 1825 4125 1425 4125 
L 1125 4125 
Q 1025 4125 962 4075 
Q 900 4025 900 3925 
L 900 2375 
L 1550 2375 
Q 1825 2375 2075 2600 
Q 2325 2825 2325 3300 
z
" transform="scale(0.015625)"/>
       <path id="FangSong-4e" d="M 2500 1000 
L 2550 1000 
L 2550 3925 
Q 2550 4025 2500 4075 
Q 2450 4125 2325 4125 
L 2125 4125 
L 2125 4275 
L 3125 4275 
L 3125 4125 
L 2925 4125 
Q 2825 4125 2762 4075 
Q 2700 4025 2700 3925 
L 2700 0 
L 2550 0 
L 650 3725 
L 600 3725 
L 600 350 
Q 600 250 662 200 
Q 725 150 825 150 
L 1025 150 
L 1025 0 
L 25 0 
L 25 150 
L 225 150 
Q 350 150 400 200 
Q 450 250 450 350 
L 450 3925 
Q 450 4025 400 4075 
Q 350 4125 225 4125 
L 75 4125 
L 75 4275 
L 800 4275 
L 2500 1000 
z
" transform="scale(0.015625)"/>
       <path id="FangSong-53" d="M 1475 2050 
Q 800 2350 550 2575 
Q 300 2800 300 3275 
Q 300 3650 612 3987 
Q 925 4325 1500 4325 
Q 1750 4325 1975 4237 
Q 2200 4150 2300 4150 
Q 2375 4150 2437 4187 
Q 2500 4225 2550 4325 
L 2650 3300 
L 2525 3250 
Q 2300 3775 2062 3962 
Q 1825 4150 1450 4150 
Q 975 4150 800 3887 
Q 625 3625 625 3325 
Q 625 3050 787 2887 
Q 950 2725 1675 2400 
Q 2275 2150 2537 1837 
Q 2800 1525 2800 1100 
Q 2800 650 2487 300 
Q 2175 -50 1575 -50 
Q 1325 -50 1112 37 
Q 900 125 775 125 
Q 700 125 625 75 
Q 550 25 450 -50 
L 250 1175 
L 400 1225 
Q 575 600 887 362 
Q 1200 125 1600 125 
Q 2025 125 2237 375 
Q 2450 625 2450 1100 
Q 2450 1350 2212 1587 
Q 1975 1825 1475 2050 
z
" transform="scale(0.015625)"/>
       <path id="FangSong-54" d="M 2200 0 
L 900 0 
L 900 150 
L 1125 150 
Q 1250 150 1300 200 
Q 1350 250 1350 350 
L 1350 3850 
Q 1350 4050 1325 4075 
Q 1300 4100 1125 4100 
Q 775 4100 637 3975 
Q 500 3850 300 3300 
L 150 3325 
L 375 4275 
L 2750 4275 
L 2950 3325 
L 2825 3300 
Q 2625 3825 2512 3962 
Q 2400 4100 2050 4100 
Q 1800 4100 1775 4075 
Q 1750 4050 1750 3825 
L 1750 350 
Q 1750 250 1812 200 
Q 1875 150 1975 150 
L 2200 150 
L 2200 0 
z
" transform="scale(0.015625)"/>
      </defs>
      <use xlink:href="#FangSong-42"/>
      <use xlink:href="#FangSong-4e" x="50"/>
      <use xlink:href="#FangSong-53" x="100"/>
      <use xlink:href="#FangSong-54" x="150"/>
     </g>
    </g>
    <g id="line2d_21">
     <path d="M 337.72 266.748062 
L 347.72 266.748062 
L 357.72 266.748062 
" style="fill: none; stroke-dasharray: 1.85,0.8; stroke-dashoffset: 0; stroke: #0000ff; stroke-width: 0.5"/>
    </g>
    <g id="text_19">
     <!-- FIFO -->
     <g transform="translate(365.72 270.248062) scale(0.1 -0.1)">
      <defs>
       <path id="FangSong-46" d="M 1325 150 
L 1325 0 
L 125 0 
L 125 150 
L 300 150 
Q 425 150 475 200 
Q 525 250 525 350 
L 525 3925 
Q 525 4025 475 4075 
Q 425 4125 300 4125 
L 150 4125 
L 150 4275 
L 2750 4275 
L 3050 3375 
L 2925 3325 
Q 2725 3725 2450 3925 
Q 2175 4125 1850 4125 
L 1150 4125 
Q 1050 4125 987 4075 
Q 925 4025 925 3925 
L 925 2325 
L 1750 2325 
Q 2000 2325 2112 2437 
Q 2225 2550 2225 2800 
L 2225 2925 
L 2375 2925 
L 2375 1475 
L 2225 1475 
L 2225 1575 
Q 2225 1875 2112 2025 
Q 2000 2175 1750 2175 
L 925 2175 
L 925 350 
Q 925 250 987 200 
Q 1050 150 1150 150 
L 1325 150 
z
" transform="scale(0.015625)"/>
       <path id="FangSong-4f" d="M 675 2150 
Q 675 1075 937 587 
Q 1200 100 1600 100 
Q 2025 100 2275 562 
Q 2525 1025 2525 2150 
Q 2525 3050 2312 3600 
Q 2100 4150 1600 4150 
Q 1175 4150 925 3650 
Q 675 3150 675 2150 
z
M 3000 2150 
Q 3000 1125 2600 537 
Q 2200 -50 1600 -50 
Q 1025 -50 612 550 
Q 200 1150 200 2150 
Q 200 3125 587 3725 
Q 975 4325 1600 4325 
Q 2250 4325 2625 3687 
Q 3000 3050 3000 2150 
z
" transform="scale(0.015625)"/>
      </defs>
      <use xlink:href="#FangSong-46"/>
      <use xlink:href="#FangSong-49" x="50"/>
      <use xlink:href="#FangSong-46" x="100"/>
      <use xlink:href="#FangSong-4f" x="150"/>
     </g>
    </g>
    <g id="line2d_22">
     <path d="M 337.72 280.193375 
L 347.72 280.193375 
L 357.72 280.193375 
" style="fill: none; stroke-dasharray: 1.85,0.8; stroke-dashoffset: 0; stroke: #bf00bf; stroke-width: 0.5"/>
    </g>
    <g id="text_20">
     <!-- OYST -->
     <g transform="translate(365.72 283.693375) scale(0.1 -0.1)">
      <defs>
       <path id="FangSong-59" d="M 2350 3825 
Q 2375 3975 2312 4050 
Q 2250 4125 2075 4125 
L 2025 4125 
L 2025 4275 
L 3000 4275 
L 3000 4125 
L 2925 4125 
Q 2800 4125 2700 4037 
Q 2600 3950 2525 3775 
L 1750 1800 
L 1750 350 
Q 1750 250 1812 200 
Q 1875 150 1975 150 
L 2200 150 
L 2200 0 
L 900 0 
L 900 150 
L 1125 150 
Q 1250 150 1300 200 
Q 1350 250 1350 350 
L 1350 1650 
L 500 3850 
Q 450 3975 375 4050 
Q 300 4125 175 4125 
L 125 4125 
L 125 4275 
L 1225 4275 
L 1225 4125 
L 1075 4125 
Q 925 4125 900 4050 
Q 875 3975 925 3825 
L 1600 1975 
L 1650 1975 
L 2350 3825 
z
" transform="scale(0.015625)"/>
      </defs>
      <use xlink:href="#FangSong-4f"/>
      <use xlink:href="#FangSong-59" x="50"/>
      <use xlink:href="#FangSong-53" x="100"/>
      <use xlink:href="#FangSong-54" x="150"/>
     </g>
    </g>
    <g id="line2d_23">
     <path d="M 337.72 293.638687 
L 347.72 293.638687 
L 357.72 293.638687 
" style="fill: none; stroke-dasharray: 1.85,0.8; stroke-dashoffset: 0; stroke: #bfbf00; stroke-width: 0.5"/>
    </g>
    <g id="text_21">
     <!-- PARALLEL -->
     <g transform="translate(365.72 297.138687) scale(0.1 -0.1)">
      <defs>
       <path id="FangSong-50" d="M 925 2000 
L 925 350 
Q 925 250 987 200 
Q 1050 150 1150 150 
L 1325 150 
L 1325 0 
L 125 0 
L 125 150 
L 300 150 
Q 425 150 475 200 
Q 525 250 525 350 
L 525 3925 
Q 525 4025 475 4075 
Q 425 4125 300 4125 
L 150 4125 
L 150 4275 
L 1625 4275 
Q 2250 4275 2587 3962 
Q 2925 3650 2925 3175 
Q 2925 2600 2562 2300 
Q 2200 2000 1700 2000 
L 925 2000 
z
M 1550 2150 
Q 1925 2150 2212 2375 
Q 2500 2600 2500 3150 
Q 2500 3650 2262 3887 
Q 2025 4125 1500 4125 
L 1150 4125 
Q 1050 4125 987 4075 
Q 925 4025 925 3925 
L 925 2150 
L 1550 2150 
z
" transform="scale(0.015625)"/>
       <path id="FangSong-41" d="M 2000 1600 
L 875 1600 
L 650 650 
Q 600 425 650 287 
Q 700 150 875 150 
L 950 150 
L 950 0 
L 25 0 
L 25 150 
L 100 150 
Q 200 150 275 212 
Q 350 275 375 425 
L 1350 4250 
L 1725 4375 
L 2675 425 
Q 2725 275 2800 212 
Q 2875 150 2975 150 
L 3050 150 
L 3050 0 
L 1975 0 
L 1975 150 
L 2075 150 
Q 2225 150 2262 237 
Q 2300 325 2250 500 
L 2000 1600 
z
M 1475 3825 
L 1450 3825 
L 925 1750 
L 1975 1750 
L 1475 3825 
z
" transform="scale(0.015625)"/>
       <path id="FangSong-45" d="M 175 4125 
L 175 4275 
L 2625 4275 
L 2900 3425 
L 2775 3375 
Q 2575 3750 2350 3937 
Q 2125 4125 1850 4125 
L 1150 4125 
Q 1050 4125 987 4075 
Q 925 4025 925 3925 
L 925 2375 
L 1650 2375 
Q 1900 2375 2012 2500 
Q 2125 2625 2125 2875 
L 2125 3025 
L 2275 3025 
L 2275 1550 
L 2125 1550 
L 2125 1650 
Q 2125 1925 2012 2075 
Q 1900 2225 1650 2225 
L 925 2225 
L 925 350 
Q 925 250 987 200 
Q 1050 150 1150 150 
L 1800 150 
Q 2175 150 2437 362 
Q 2700 575 2850 1025 
L 2975 975 
L 2700 0 
L 150 0 
L 150 150 
L 300 150 
Q 425 150 475 200 
Q 525 250 525 350 
L 525 3925 
Q 525 4025 475 4075 
Q 425 4125 300 4125 
L 175 4125 
z
" transform="scale(0.015625)"/>
      </defs>
      <use xlink:href="#FangSong-50"/>
      <use xlink:href="#FangSong-41" x="50"/>
      <use xlink:href="#FangSong-52" x="100"/>
      <use xlink:href="#FangSong-41" x="150"/>
      <use xlink:href="#FangSong-4c" x="200"/>
      <use xlink:href="#FangSong-4c" x="250"/>
      <use xlink:href="#FangSong-45" x="300"/>
      <use xlink:href="#FangSong-4c" x="350"/>
     </g>
    </g>
   </g>
  </g>
 </g>
 <defs>
  <clipPath id="p3c343b7512">
   <rect x="57.6" y="41.472" width="357.12" height="266.112"/>
  </clipPath>
 </defs>
</svg>
