<?xml version="1.0" encoding="utf-8" standalone="no"?>
<!DOCTYPE svg PUBLIC "-//W3C//DTD SVG 1.1//EN"
  "http://www.w3.org/Graphics/SVG/1.1/DTD/svg11.dtd">
<svg xmlns:xlink="http://www.w3.org/1999/xlink" width="460.8pt" height="345.6pt" viewBox="0 0 460.8 345.6" xmlns="http://www.w3.org/2000/svg" version="1.1">
 <metadata>
  <rdf:RDF xmlns:dc="http://purl.org/dc/elements/1.1/" xmlns:cc="http://creativecommons.org/ns#" xmlns:rdf="http://www.w3.org/1999/02/22-rdf-syntax-ns#">
   <cc:Work>
    <dc:type rdf:resource="http://purl.org/dc/dcmitype/StillImage"/>
    <dc:date>2023-01-19T17:24:43.582352</dc:date>
    <dc:format>image/svg+xml</dc:format>
    <dc:creator>
     <cc:Agent>
      <dc:title>Matplotlib v3.6.3, https://matplotlib.org/</dc:title>
     </cc:Agent>
    </dc:creator>
   </cc:Work>
  </rdf:RDF>
 </metadata>
 <defs>
  <style type="text/css">*{stroke-linejoin: round; stroke-linecap: butt}</style>
 </defs>
 <g id="figure_1">
  <g id="patch_1">
   <path d="M 0 345.6 
L 460.8 345.6 
L 460.8 0 
L 0 0 
z
" style="fill: #ffffff"/>
  </g>
  <g id="axes_1">
   <g id="patch_2">
    <path d="M 57.6 307.584 
L 414.72 307.584 
L 414.72 41.472 
L 57.6 41.472 
z
" style="fill: #ffffff"/>
   </g>
   <g id="matplotlib.axis_1">
    <g id="xtick_1">
     <g id="line2d_1">
      <defs>
       <path id="m5d08366897" d="M 0 0 
L 0 3.5 
" style="stroke: #000000; stroke-width: 0.8"/>
      </defs>
      <g>
       <use xlink:href="#m5d08366897" x="68.921161" y="307.584" style="stroke: #000000; stroke-width: 0.8"/>
      </g>
     </g>
     <g id="text_1">
      <!-- 0 -->
      <g transform="translate(66.421161 321.576187) scale(0.1 -0.1)">
       <defs>
        <path id="FangSong-30" d="M 1575 4125 
Q 1225 4125 987 3587 
Q 750 3050 750 2150 
Q 750 1200 987 675 
Q 1225 150 1575 150 
Q 1950 150 2162 675 
Q 2375 1200 2375 2150 
Q 2375 3050 2175 3587 
Q 1975 4125 1575 4125 
z
M 1575 -50 
Q 1025 -50 650 525 
Q 275 1100 275 2150 
Q 275 3125 637 3725 
Q 1000 4325 1575 4325 
Q 2125 4325 2487 3750 
Q 2850 3175 2850 2150 
Q 2850 1125 2487 537 
Q 2125 -50 1575 -50 
z
" transform="scale(0.015625)"/>
       </defs>
       <use xlink:href="#FangSong-30"/>
      </g>
     </g>
    </g>
    <g id="xtick_2">
     <g id="line2d_2">
      <g>
       <use xlink:href="#m5d08366897" x="118.036826" y="307.584" style="stroke: #000000; stroke-width: 0.8"/>
      </g>
     </g>
     <g id="text_2">
      <!-- 10 -->
      <g transform="translate(113.036826 321.576187) scale(0.1 -0.1)">
       <defs>
        <path id="FangSong-31" d="M 1800 4350 
L 1800 550 
Q 1800 350 1925 250 
Q 2050 150 2275 150 
L 2525 150 
L 2525 0 
L 700 0 
L 700 150 
L 925 150 
Q 1175 150 1287 250 
Q 1400 350 1400 550 
L 1400 3575 
Q 1400 3675 1337 3737 
Q 1275 3800 1150 3800 
L 700 3800 
L 700 3950 
L 925 3950 
Q 1225 3950 1412 4050 
Q 1600 4150 1700 4350 
L 1800 4350 
z
" transform="scale(0.015625)"/>
       </defs>
       <use xlink:href="#FangSong-31"/>
       <use xlink:href="#FangSong-30" x="50"/>
      </g>
     </g>
    </g>
    <g id="xtick_3">
     <g id="line2d_3">
      <g>
       <use xlink:href="#m5d08366897" x="167.152491" y="307.584" style="stroke: #000000; stroke-width: 0.8"/>
      </g>
     </g>
     <g id="text_3">
      <!-- 20 -->
      <g transform="translate(162.152491 321.576187) scale(0.1 -0.1)">
       <defs>
        <path id="FangSong-32" d="M 2300 3225 
Q 2300 3675 2100 3912 
Q 1900 4150 1500 4150 
Q 1200 4150 987 3987 
Q 775 3825 775 3575 
Q 775 3425 862 3325 
Q 950 3225 950 3125 
Q 950 3000 887 2937 
Q 825 2875 700 2875 
Q 550 2875 462 2962 
Q 375 3050 375 3250 
Q 375 3775 750 4050 
Q 1125 4325 1550 4325 
Q 2150 4325 2437 4025 
Q 2725 3725 2725 3275 
Q 2725 2975 2587 2675 
Q 2450 2375 2150 2100 
Q 1425 1400 1037 962 
Q 650 525 575 375 
L 2050 375 
Q 2275 375 2425 550 
Q 2575 725 2625 1075 
L 2775 1075 
L 2625 0 
L 300 0 
L 300 325 
Q 425 550 712 900 
Q 1000 1250 1475 1725 
Q 1900 2150 2100 2525 
Q 2300 2900 2300 3225 
z
" transform="scale(0.015625)"/>
       </defs>
       <use xlink:href="#FangSong-32"/>
       <use xlink:href="#FangSong-30" x="50"/>
      </g>
     </g>
    </g>
    <g id="xtick_4">
     <g id="line2d_4">
      <g>
       <use xlink:href="#m5d08366897" x="216.268156" y="307.584" style="stroke: #000000; stroke-width: 0.8"/>
      </g>
     </g>
     <g id="text_4">
      <!-- 30 -->
      <g transform="translate(211.268156 321.576187) scale(0.1 -0.1)">
       <defs>
        <path id="FangSong-33" d="M 2775 1150 
Q 2775 675 2425 312 
Q 2075 -50 1450 -50 
Q 1000 -50 675 200 
Q 350 450 350 775 
Q 350 925 450 1037 
Q 550 1150 650 1150 
Q 800 1150 862 1037 
Q 925 925 925 850 
Q 925 725 875 637 
Q 825 550 825 475 
Q 825 325 1012 225 
Q 1200 125 1425 125 
Q 1875 125 2100 387 
Q 2325 650 2325 1200 
Q 2325 1650 2087 1925 
Q 1850 2200 1200 2200 
L 1200 2375 
Q 1700 2375 1937 2612 
Q 2175 2850 2175 3275 
Q 2175 3625 1987 3887 
Q 1800 4150 1400 4150 
Q 1225 4150 1025 4062 
Q 825 3975 825 3775 
Q 825 3575 875 3525 
Q 925 3475 925 3400 
Q 925 3275 875 3200 
Q 825 3125 700 3125 
Q 600 3125 512 3200 
Q 425 3275 425 3475 
Q 425 3850 750 4087 
Q 1075 4325 1500 4325 
Q 2000 4325 2300 4012 
Q 2600 3700 2600 3350 
Q 2600 2975 2412 2712 
Q 2225 2450 1825 2325 
Q 2375 2125 2575 1800 
Q 2775 1475 2775 1150 
z
" transform="scale(0.015625)"/>
       </defs>
       <use xlink:href="#FangSong-33"/>
       <use xlink:href="#FangSong-30" x="50"/>
      </g>
     </g>
    </g>
    <g id="xtick_5">
     <g id="line2d_5">
      <g>
       <use xlink:href="#m5d08366897" x="265.383821" y="307.584" style="stroke: #000000; stroke-width: 0.8"/>
      </g>
     </g>
     <g id="text_5">
      <!-- 40 -->
      <g transform="translate(260.383821 321.576187) scale(0.1 -0.1)">
       <defs>
        <path id="FangSong-34" d="M 2275 475 
Q 2275 300 2375 225 
Q 2475 150 2650 150 
L 2875 150 
L 2875 0 
L 1225 0 
L 1225 150 
L 1500 150 
Q 1700 150 1787 225 
Q 1875 300 1875 475 
L 1875 1300 
L 200 1300 
L 200 1425 
L 2025 4325 
L 2275 4325 
L 2275 1450 
L 2950 1450 
L 2950 1300 
L 2275 1300 
L 2275 475 
z
M 1850 3700 
L 425 1450 
L 1875 1450 
L 1875 3700 
L 1850 3700 
z
" transform="scale(0.015625)"/>
       </defs>
       <use xlink:href="#FangSong-34"/>
       <use xlink:href="#FangSong-30" x="50"/>
      </g>
     </g>
    </g>
    <g id="xtick_6">
     <g id="line2d_6">
      <g>
       <use xlink:href="#m5d08366897" x="314.499486" y="307.584" style="stroke: #000000; stroke-width: 0.8"/>
      </g>
     </g>
     <g id="text_6">
      <!-- 50 -->
      <g transform="translate(309.499486 321.576187) scale(0.1 -0.1)">
       <defs>
        <path id="FangSong-35" d="M 1700 2750 
Q 2175 2750 2475 2387 
Q 2775 2025 2775 1425 
Q 2775 750 2462 350 
Q 2150 -50 1500 -50 
Q 1050 -50 700 212 
Q 350 475 350 850 
Q 350 1000 437 1112 
Q 525 1225 675 1225 
Q 825 1225 875 1125 
Q 925 1025 925 950 
Q 925 800 850 712 
Q 775 625 775 525 
Q 775 325 1012 225 
Q 1250 125 1525 125 
Q 1925 125 2137 450 
Q 2350 775 2350 1375 
Q 2350 1875 2162 2187 
Q 1975 2500 1600 2500 
Q 1325 2500 1125 2400 
Q 925 2300 750 1975 
L 525 2000 
L 650 4275 
L 2700 4275 
L 2625 3900 
L 825 3900 
L 725 2250 
Q 975 2600 1212 2675 
Q 1450 2750 1700 2750 
z
" transform="scale(0.015625)"/>
       </defs>
       <use xlink:href="#FangSong-35"/>
       <use xlink:href="#FangSong-30" x="50"/>
      </g>
     </g>
    </g>
    <g id="xtick_7">
     <g id="line2d_7">
      <g>
       <use xlink:href="#m5d08366897" x="363.615151" y="307.584" style="stroke: #000000; stroke-width: 0.8"/>
      </g>
     </g>
     <g id="text_7">
      <!-- 60 -->
      <g transform="translate(358.615151 321.576187) scale(0.1 -0.1)">
       <defs>
        <path id="FangSong-36" d="M 750 1700 
Q 750 950 1012 537 
Q 1275 125 1650 125 
Q 2025 125 2225 400 
Q 2425 675 2425 1425 
Q 2425 1925 2212 2200 
Q 2000 2475 1700 2475 
Q 1425 2475 1187 2312 
Q 950 2150 750 1700 
z
M 1725 2725 
Q 2325 2725 2587 2325 
Q 2850 1925 2850 1425 
Q 2850 675 2487 312 
Q 2125 -50 1650 -50 
Q 975 -50 625 462 
Q 275 975 275 1950 
Q 275 3100 700 3712 
Q 1125 4325 1850 4325 
Q 2200 4325 2412 4125 
Q 2625 3925 2625 3775 
Q 2625 3625 2562 3550 
Q 2500 3475 2350 3475 
Q 2225 3475 2162 3537 
Q 2100 3600 2100 3725 
Q 2100 3775 2112 3825 
Q 2125 3875 2125 3925 
Q 2125 4025 2050 4087 
Q 1975 4150 1775 4150 
Q 1350 4150 1050 3762 
Q 750 3375 750 2075 
Q 900 2400 1162 2562 
Q 1425 2725 1725 2725 
z
" transform="scale(0.015625)"/>
       </defs>
       <use xlink:href="#FangSong-36"/>
       <use xlink:href="#FangSong-30" x="50"/>
      </g>
     </g>
    </g>
    <g id="xtick_8">
     <g id="line2d_8">
      <g>
       <use xlink:href="#m5d08366897" x="412.730816" y="307.584" style="stroke: #000000; stroke-width: 0.8"/>
      </g>
     </g>
     <g id="text_8">
      <!-- 70 -->
      <g transform="translate(407.730816 321.576187) scale(0.1 -0.1)">
       <defs>
        <path id="FangSong-37" d="M 2800 4100 
Q 2275 3250 1962 2437 
Q 1650 1625 1650 1025 
Q 1650 925 1662 737 
Q 1675 550 1675 300 
Q 1675 100 1612 25 
Q 1550 -50 1400 -50 
Q 1275 -50 1187 37 
Q 1100 125 1100 350 
Q 1100 825 1312 1525 
Q 1525 2225 2450 3900 
L 1200 3900 
Q 925 3900 762 3725 
Q 600 3550 525 3200 
L 375 3225 
L 550 4275 
L 2800 4275 
L 2800 4100 
z
" transform="scale(0.015625)"/>
       </defs>
       <use xlink:href="#FangSong-37"/>
       <use xlink:href="#FangSong-30" x="50"/>
      </g>
     </g>
    </g>
    <g id="text_9">
     <!-- Latency -->
     <g transform="translate(218.66 333.974625) scale(0.1 -0.1)">
      <defs>
       <path id="FangSong-4c" d="M 975 350 
Q 975 250 1037 200 
Q 1100 150 1200 150 
L 1875 150 
Q 2225 150 2475 362 
Q 2725 575 2850 1025 
L 2975 975 
L 2750 0 
L 175 0 
L 175 150 
L 350 150 
Q 475 150 525 200 
Q 575 250 575 350 
L 575 3925 
Q 575 4025 525 4075 
Q 475 4125 350 4125 
L 200 4125 
L 200 4275 
L 1375 4275 
L 1375 4125 
L 1200 4125 
Q 1100 4125 1037 4075 
Q 975 4025 975 3925 
L 975 350 
z
" transform="scale(0.015625)"/>
       <path id="FangSong-61" d="M 1200 -25 
Q 750 -25 500 187 
Q 250 400 250 675 
Q 250 1125 637 1412 
Q 1025 1700 2175 1825 
L 2175 2125 
Q 2175 2375 2062 2537 
Q 1950 2700 1550 2700 
Q 1125 2700 950 2562 
Q 775 2425 825 2275 
Q 875 2175 825 2075 
Q 775 1975 625 1975 
Q 525 1975 462 2037 
Q 400 2100 400 2225 
Q 400 2450 725 2650 
Q 1050 2850 1525 2850 
Q 2025 2850 2275 2662 
Q 2525 2475 2525 2125 
L 2525 475 
Q 2525 275 2562 237 
Q 2600 200 2700 200 
Q 2825 200 2875 312 
Q 2925 425 2925 625 
L 3050 625 
Q 3050 275 2925 137 
Q 2800 0 2600 0 
Q 2425 0 2325 75 
Q 2225 150 2175 325 
Q 1925 150 1712 62 
Q 1500 -25 1200 -25 
z
M 675 750 
Q 675 525 812 337 
Q 950 150 1250 150 
Q 1475 150 1700 237 
Q 1925 325 2175 500 
L 2175 1675 
Q 1325 1575 1000 1337 
Q 675 1100 675 750 
z
" transform="scale(0.015625)"/>
       <path id="FangSong-74" d="M 1475 800 
Q 1475 450 1600 325 
Q 1725 200 1975 200 
Q 2225 200 2375 362 
Q 2525 525 2575 825 
L 2700 775 
Q 2650 425 2437 200 
Q 2225 -25 1875 -25 
Q 1500 -25 1312 200 
Q 1125 425 1125 900 
L 1125 2650 
L 375 2650 
L 375 2800 
L 575 2800 
Q 875 2800 1062 2987 
Q 1250 3175 1300 3575 
L 1325 3775 
L 1475 3775 
L 1475 2800 
L 2475 2800 
L 2475 2650 
L 1475 2650 
L 1475 800 
z
" transform="scale(0.015625)"/>
       <path id="FangSong-65" d="M 2375 1550 
Q 2400 2100 2187 2387 
Q 1975 2675 1625 2675 
Q 1250 2675 1012 2375 
Q 775 2075 775 1550 
L 2375 1550 
z
M 775 1400 
Q 775 725 1037 437 
Q 1300 150 1725 150 
Q 2050 150 2275 337 
Q 2500 525 2600 800 
L 2725 750 
Q 2650 475 2387 212 
Q 2125 -50 1675 -50 
Q 1100 -50 737 325 
Q 375 700 375 1400 
Q 375 2025 737 2437 
Q 1100 2850 1625 2850 
Q 2100 2850 2450 2525 
Q 2800 2200 2800 1400 
L 775 1400 
z
" transform="scale(0.015625)"/>
       <path id="FangSong-6e" d="M 175 0 
L 175 150 
L 300 150 
Q 425 150 475 200 
Q 525 250 525 350 
L 525 2500 
Q 525 2575 500 2612 
Q 475 2650 400 2650 
L 200 2650 
L 200 2800 
L 375 2800 
Q 500 2800 612 2825 
Q 725 2850 825 2925 
L 875 2925 
L 875 2350 
Q 1100 2600 1325 2725 
Q 1550 2850 1800 2850 
Q 2225 2850 2425 2625 
Q 2625 2400 2625 1950 
L 2625 350 
Q 2625 250 2687 200 
Q 2750 150 2850 150 
L 2975 150 
L 2975 0 
L 1925 0 
L 1925 150 
L 2050 150 
Q 2175 150 2225 200 
Q 2275 250 2275 350 
L 2275 2025 
Q 2275 2325 2150 2487 
Q 2025 2650 1775 2650 
Q 1550 2650 1312 2500 
Q 1075 2350 875 2075 
L 875 350 
Q 875 250 937 200 
Q 1000 150 1100 150 
L 1225 150 
L 1225 0 
L 175 0 
z
" transform="scale(0.015625)"/>
       <path id="FangSong-63" d="M 2125 2125 
Q 2125 2200 2137 2225 
Q 2150 2250 2175 2325 
Q 2200 2425 2075 2562 
Q 1950 2700 1650 2700 
Q 1275 2700 1012 2337 
Q 750 1975 750 1375 
Q 750 825 975 487 
Q 1200 150 1725 150 
Q 2075 150 2312 375 
Q 2550 600 2650 900 
L 2775 850 
Q 2675 475 2400 212 
Q 2125 -50 1650 -50 
Q 1050 -50 700 325 
Q 350 700 350 1400 
Q 350 2025 725 2437 
Q 1100 2850 1700 2850 
Q 2125 2850 2362 2625 
Q 2600 2400 2600 2175 
Q 2600 2025 2537 1962 
Q 2475 1900 2350 1900 
Q 2250 1900 2187 1962 
Q 2125 2025 2125 2125 
z
" transform="scale(0.015625)"/>
       <path id="FangSong-79" d="M 1625 700 
L 1675 700 
L 2225 2375 
Q 2275 2500 2212 2575 
Q 2150 2650 2050 2650 
L 1900 2650 
L 1900 2800 
L 2950 2800 
L 2950 2650 
L 2800 2650 
Q 2700 2650 2600 2575 
Q 2500 2500 2450 2375 
L 1600 -100 
Q 1475 -500 1287 -712 
Q 1100 -925 800 -950 
Q 650 -950 537 -875 
Q 425 -800 425 -675 
Q 425 -575 487 -500 
Q 550 -425 675 -425 
Q 775 -425 837 -525 
Q 900 -625 1050 -587 
Q 1200 -550 1250 -425 
Q 1300 -350 1375 -162 
Q 1450 25 1500 225 
L 650 2425 
Q 625 2525 537 2587 
Q 450 2650 350 2650 
L 250 2650 
L 250 2800 
L 1300 2800 
L 1300 2650 
L 1200 2650 
Q 1100 2650 1050 2587 
Q 1000 2525 1025 2400 
L 1625 700 
z
" transform="scale(0.015625)"/>
      </defs>
      <use xlink:href="#FangSong-4c"/>
      <use xlink:href="#FangSong-61" x="50"/>
      <use xlink:href="#FangSong-74" x="100"/>
      <use xlink:href="#FangSong-65" x="150"/>
      <use xlink:href="#FangSong-6e" x="200"/>
      <use xlink:href="#FangSong-63" x="250"/>
      <use xlink:href="#FangSong-79" x="300"/>
     </g>
    </g>
   </g>
   <g id="matplotlib.axis_2">
    <g id="ytick_1">
     <g id="line2d_9">
      <defs>
       <path id="m968edb784d" d="M 0 0 
L -3.5 0 
" style="stroke: #000000; stroke-width: 0.8"/>
      </defs>
      <g>
       <use xlink:href="#m968edb784d" x="57.6" y="295.488" style="stroke: #000000; stroke-width: 0.8"/>
      </g>
     </g>
     <g id="text_10">
      <!-- 0% -->
      <g transform="translate(40.6 298.984094) scale(0.1 -0.1)">
       <defs>
        <path id="FangSong-25" d="M 725 4150 
Q 575 4150 475 3950 
Q 375 3750 375 3200 
Q 375 2575 487 2387 
Q 600 2200 725 2200 
Q 900 2200 987 2425 
Q 1075 2650 1075 3200 
Q 1075 3650 1012 3900 
Q 950 4150 725 4150 
z
M 1400 3175 
Q 1400 2725 1250 2387 
Q 1100 2050 725 2050 
Q 425 2050 237 2350 
Q 50 2650 50 3175 
Q 50 3725 250 4025 
Q 450 4325 725 4325 
Q 1025 4325 1212 4012 
Q 1400 3700 1400 3175 
z
M 2700 1100 
Q 2700 1525 2625 1800 
Q 2550 2075 2350 2075 
Q 2200 2075 2100 1837 
Q 2000 1600 2000 1100 
Q 2000 475 2112 300 
Q 2225 125 2350 125 
Q 2525 125 2612 337 
Q 2700 550 2700 1100 
z
M 3025 1075 
Q 3025 575 2850 262 
Q 2675 -50 2350 -50 
Q 2075 -50 1875 262 
Q 1675 575 1675 1075 
Q 1675 1625 1875 1937 
Q 2075 2250 2350 2250 
Q 2650 2250 2837 1925 
Q 3025 1600 3025 1075 
z
M 2500 4250 
L 700 -50 
L 550 25 
L 2325 4325 
L 2500 4250 
z
" transform="scale(0.015625)"/>
       </defs>
       <use xlink:href="#FangSong-30"/>
       <use xlink:href="#FangSong-25" x="50"/>
      </g>
     </g>
    </g>
    <g id="ytick_2">
     <g id="line2d_10">
      <g>
       <use xlink:href="#m968edb784d" x="57.6" y="247.104" style="stroke: #000000; stroke-width: 0.8"/>
      </g>
     </g>
     <g id="text_11">
      <!-- 20% -->
      <g transform="translate(35.6 250.600094) scale(0.1 -0.1)">
       <use xlink:href="#FangSong-32"/>
       <use xlink:href="#FangSong-30" x="50"/>
       <use xlink:href="#FangSong-25" x="100"/>
      </g>
     </g>
    </g>
    <g id="ytick_3">
     <g id="line2d_11">
      <g>
       <use xlink:href="#m968edb784d" x="57.6" y="198.72" style="stroke: #000000; stroke-width: 0.8"/>
      </g>
     </g>
     <g id="text_12">
      <!-- 40% -->
      <g transform="translate(35.6 202.216094) scale(0.1 -0.1)">
       <use xlink:href="#FangSong-34"/>
       <use xlink:href="#FangSong-30" x="50"/>
       <use xlink:href="#FangSong-25" x="100"/>
      </g>
     </g>
    </g>
    <g id="ytick_4">
     <g id="line2d_12">
      <g>
       <use xlink:href="#m968edb784d" x="57.6" y="150.336" style="stroke: #000000; stroke-width: 0.8"/>
      </g>
     </g>
     <g id="text_13">
      <!-- 60% -->
      <g transform="translate(35.6 153.832094) scale(0.1 -0.1)">
       <use xlink:href="#FangSong-36"/>
       <use xlink:href="#FangSong-30" x="50"/>
       <use xlink:href="#FangSong-25" x="100"/>
      </g>
     </g>
    </g>
    <g id="ytick_5">
     <g id="line2d_13">
      <g>
       <use xlink:href="#m968edb784d" x="57.6" y="101.952" style="stroke: #000000; stroke-width: 0.8"/>
      </g>
     </g>
     <g id="text_14">
      <!-- 80% -->
      <g transform="translate(35.6 105.448094) scale(0.1 -0.1)">
       <defs>
        <path id="FangSong-38" d="M 600 1025 
Q 600 625 862 375 
Q 1125 125 1525 125 
Q 2000 125 2212 375 
Q 2425 625 2425 1000 
Q 2425 1325 2125 1625 
Q 1825 1925 1225 2175 
Q 925 1975 762 1675 
Q 600 1375 600 1025 
z
M 2800 1075 
Q 2800 600 2450 275 
Q 2100 -50 1525 -50 
Q 1000 -50 625 275 
Q 250 600 250 1025 
Q 250 1450 462 1750 
Q 675 2050 1075 2275 
Q 725 2450 537 2712 
Q 350 2975 350 3300 
Q 350 3725 675 4025 
Q 1000 4325 1575 4325 
Q 2100 4325 2425 4025 
Q 2750 3725 2750 3300 
Q 2750 3000 2562 2737 
Q 2375 2475 1975 2275 
Q 2400 2025 2600 1725 
Q 2800 1425 2800 1075 
z
M 2400 3275 
Q 2400 3625 2200 3887 
Q 2000 4150 1575 4150 
Q 1100 4150 900 3900 
Q 700 3650 700 3375 
Q 700 3100 987 2837 
Q 1275 2575 1800 2375 
Q 2100 2525 2250 2750 
Q 2400 2975 2400 3275 
z
" transform="scale(0.015625)"/>
       </defs>
       <use xlink:href="#FangSong-38"/>
       <use xlink:href="#FangSong-30" x="50"/>
       <use xlink:href="#FangSong-25" x="100"/>
      </g>
     </g>
    </g>
    <g id="ytick_6">
     <g id="line2d_14">
      <g>
       <use xlink:href="#m968edb784d" x="57.6" y="53.568" style="stroke: #000000; stroke-width: 0.8"/>
      </g>
     </g>
     <g id="text_15">
      <!-- 100% -->
      <g transform="translate(30.6 57.064094) scale(0.1 -0.1)">
       <use xlink:href="#FangSong-31"/>
       <use xlink:href="#FangSong-30" x="50"/>
       <use xlink:href="#FangSong-30" x="100"/>
       <use xlink:href="#FangSong-25" x="150"/>
      </g>
     </g>
    </g>
    <g id="text_16">
     <!-- 累计完成比例 -->
     <g transform="translate(25.154688 204.528) rotate(-90) scale(0.1 -0.1)">
      <defs>
       <path id="FangSong-7d2f" d="M 4525 4975 
L 4700 5225 
L 5000 4950 
L 4825 4775 
L 4625 3550 
L 4850 3300 
L 3175 3150 
L 3375 2975 
Q 3200 2925 2862 2725 
Q 2525 2525 2075 2275 
L 3475 2500 
Q 3750 2675 3900 2800 
Q 4050 2925 4100 3075 
L 4175 3100 
L 4325 2700 
Q 4200 2675 3500 2237 
Q 2800 1800 2275 1550 
L 4375 1825 
L 3900 2175 
L 4000 2275 
Q 4625 1900 4950 1725 
Q 4975 1475 4925 1225 
Q 4800 1375 4500 1675 
L 3250 1475 
L 3525 1300 
Q 3375 1200 3375 875 
L 3375 25 
Q 3375 -325 3225 -625 
Q 2975 -325 2400 150 
L 2450 250 
L 3050 -75 
Q 3150 -125 3150 0 
L 3150 925 
Q 3150 1300 3125 1450 
Q 1875 1275 1575 1175 
L 1325 1425 
L 1850 1550 
Q 2175 1700 3250 2300 
Q 2075 2100 1875 2000 
L 1575 2250 
L 1800 2300 
Q 2150 2475 3025 3125 
L 2000 3025 
Q 2000 2675 1950 2700 
Q 1900 2725 1650 3025 
Q 1725 3250 1725 3425 
L 1650 4400 
Q 1625 4675 1525 4950 
L 1625 5000 
L 1875 4675 
L 4525 4975 
z
M 3150 3375 
L 3150 3875 
Q 2525 3800 2400 3725 
L 2100 3975 
Q 2500 3975 3150 4075 
L 3150 4600 
L 1900 4450 
L 1975 3250 
L 3150 3375 
z
M 3375 4100 
Q 3950 4175 4025 4225 
L 4275 4000 
Q 3950 3975 3375 3900 
L 3375 3400 
L 4400 3500 
L 4575 4750 
L 3375 4600 
L 3375 4100 
z
M 5450 -75 
Q 4975 325 3875 1025 
L 3950 1125 
Q 4850 700 5350 500 
Q 5425 250 5450 -75 
z
M 800 -250 
Q 1350 75 1825 500 
Q 2300 925 2325 1125 
L 2400 1150 
L 2550 725 
Q 2425 700 2075 425 
Q 1725 150 875 -350 
L 800 -250 
z
" transform="scale(0.015625)"/>
       <path id="FangSong-8ba1" d="M 4075 4200 
Q 4100 4825 3900 5100 
L 3975 5150 
L 4450 4725 
Q 4275 4600 4300 4200 
L 4275 3000 
Q 5525 3200 5575 3250 
L 5950 2950 
Q 5725 2975 4275 2800 
L 4250 -425 
Q 4250 -700 4150 -575 
L 3875 -150 
Q 4050 50 4025 300 
L 4050 2750 
Q 2975 2625 2900 2575 
L 2525 2825 
Q 2850 2825 4050 2975 
L 4075 4200 
z
M 1775 3250 
L 2100 2950 
L 1900 2750 
L 1875 550 
L 2825 1250 
L 2875 1175 
Q 1875 250 1750 -25 
L 1525 275 
Q 1625 375 1650 625 
L 1675 2775 
Q 900 2625 750 2550 
L 425 2800 
Q 850 2825 1650 3000 
L 1775 3250 
z
M 2025 3800 
Q 1825 4300 1325 4950 
L 1375 5025 
Q 1925 4575 2175 4300 
Q 2125 4000 2025 3800 
z
" transform="scale(0.015625)"/>
       <path id="FangSong-5b8c" d="M 5375 2050 
Q 4925 2050 3550 1950 
L 3850 1750 
Q 3725 1600 3700 1375 
L 3675 275 
Q 3650 -125 4075 -175 
L 4925 -175 
Q 5300 -150 5312 62 
Q 5325 275 5325 1025 
L 5425 1025 
Q 5450 750 5475 337 
Q 5500 -75 5700 -275 
Q 5400 -375 5000 -400 
L 4075 -400 
Q 3425 -350 3425 150 
L 3475 1450 
Q 3475 1775 3425 1925 
L 2675 1850 
L 2875 1650 
Q 2750 1550 2600 1200 
Q 2450 850 2025 312 
Q 1600 -225 600 -675 
L 550 -575 
Q 1525 -100 1987 625 
Q 2450 1350 2525 1850 
Q 1550 1775 1500 1725 
L 1150 2025 
Q 1625 2025 3212 2150 
Q 4800 2275 5000 2350 
L 5375 2050 
z
M 1650 3650 
Q 1550 3125 1325 2875 
L 1150 3250 
Q 1450 3425 1575 4400 
L 1675 4400 
L 1675 3900 
L 5025 4150 
L 5175 4400 
L 5525 4075 
Q 5375 4050 4725 3250 
L 4650 3325 
L 4975 3900 
L 1650 3650 
z
M 4475 2975 
Q 4225 2975 3412 2875 
Q 2600 2775 2400 2725 
L 2050 2975 
Q 2575 2975 3200 3075 
Q 3825 3175 4150 3225 
L 4475 2975 
z
M 3550 4575 
Q 3475 4350 3300 4150 
Q 3225 4475 2900 5200 
L 2975 5250 
Q 3350 4825 3550 4575 
z
" transform="scale(0.015625)"/>
       <path id="FangSong-6210" d="M 5575 975 
Q 5600 -150 5750 -625 
Q 4650 -225 4000 1075 
Q 3625 650 2975 225 
L 2925 325 
Q 3525 825 3900 1300 
Q 3600 2275 3500 3300 
L 1875 3125 
Q 1875 2625 1825 2100 
L 2725 2250 
L 2875 2475 
L 3175 2225 
L 3000 2050 
Q 2850 475 2575 -125 
Q 2225 400 1825 775 
L 1875 850 
L 2475 400 
Q 2650 875 2750 2000 
L 1825 1850 
Q 1675 250 600 -650 
L 525 -600 
Q 1250 250 1425 987 
Q 1600 1725 1625 2612 
Q 1650 3500 1550 3800 
L 1625 3825 
L 1850 3350 
L 3450 3525 
Q 3400 4150 3375 4562 
Q 3350 4975 3225 5200 
L 3275 5225 
L 3725 4900 
Q 3625 4925 3637 4575 
Q 3650 4225 3675 3550 
Q 4900 3700 5050 3775 
L 5325 3475 
Q 4775 3475 3725 3325 
Q 3775 2425 4075 1525 
Q 4500 2025 4687 2325 
Q 4875 2625 4800 2850 
L 4875 2875 
L 5125 2325 
Q 5075 2400 4850 2125 
Q 4625 1850 4150 1275 
Q 4625 225 5425 -125 
L 5475 975 
L 5575 975 
z
M 4100 5000 
Q 4525 4700 4875 4450 
Q 4825 4250 4750 4025 
Q 4400 4525 4025 4950 
L 4100 5000 
z
" transform="scale(0.015625)"/>
       <path id="FangSong-6bd4" d="M 3500 2125 
Q 3925 2425 4487 2975 
Q 5050 3525 4950 3750 
L 5025 3775 
L 5250 3225 
Q 5175 3250 4875 3000 
Q 4575 2750 4287 2525 
Q 4000 2300 3500 1900 
L 3500 575 
Q 3475 -100 4150 -100 
L 4800 -100 
Q 5275 -100 5375 12 
Q 5475 125 5450 1350 
L 5575 1350 
Q 5600 825 5637 412 
Q 5675 0 5800 -175 
Q 5375 -325 4800 -325 
L 4150 -325 
Q 3225 -350 3275 550 
L 3275 4300 
Q 3275 4875 3150 5150 
L 3200 5200 
L 3625 4850 
Q 3475 4825 3500 4250 
L 3500 2125 
z
M 1500 2575 
Q 1900 2625 2337 2712 
Q 2775 2800 2800 2850 
L 3075 2600 
Q 2875 2575 2350 2475 
Q 1825 2375 1775 2325 
L 1500 2525 
L 1500 150 
L 2925 1075 
L 2975 1025 
Q 1550 -75 1375 -350 
L 1200 0 
Q 1275 75 1275 350 
L 1275 3925 
Q 1275 4475 1150 4750 
L 1200 4800 
L 1625 4400 
Q 1475 4375 1500 3925 
L 1500 2575 
z
" transform="scale(0.015625)"/>
       <path id="FangSong-4f8b" d="M 3050 2000 
Q 3025 1800 2975 1600 
Q 2775 1900 2525 2250 
Q 2300 1875 2025 1550 
L 1925 1625 
Q 2675 2725 2975 3975 
Q 2475 3925 2375 3875 
L 2050 4125 
Q 2375 4125 3162 4225 
Q 3950 4325 4100 4450 
L 4350 4125 
Q 4050 4150 3100 3975 
L 3300 3700 
Q 3200 3675 3125 3525 
Q 3050 3375 2925 3050 
L 3625 3150 
L 3775 3350 
L 4050 3075 
L 3875 2900 
Q 3300 825 1850 -225 
L 1800 -100 
Q 3100 975 3625 2900 
Q 3150 2825 3025 2775 
L 2875 2925 
Q 2775 2675 2575 2350 
Q 2900 2125 3050 2000 
z
M 1275 -150 
Q 1425 25 1400 225 
L 1450 3425 
Q 1025 2800 475 2225 
L 400 2325 
Q 875 2850 1450 3887 
Q 2025 4925 1925 5150 
L 2000 5175 
L 2250 4700 
Q 2200 4725 2062 4475 
Q 1925 4225 1675 3800 
L 1625 -325 
Q 1650 -675 1525 -600 
L 1275 -150 
z
M 5475 250 
Q 5475 -300 5300 -650 
Q 4900 -100 4300 375 
L 4350 475 
L 5200 -75 
Q 5250 250 5250 575 
L 5250 4350 
Q 5275 4950 5100 5150 
L 5175 5225 
L 5600 4850 
Q 5450 4775 5475 4325 
L 5475 250 
z
M 4300 1525 
Q 4400 1650 4400 1900 
L 4400 3075 
Q 4425 3525 4300 3750 
L 4350 3800 
L 4725 3450 
Q 4600 3350 4625 3025 
L 4625 1375 
Q 4625 1050 4550 1125 
L 4300 1525 
z
" transform="scale(0.015625)"/>
      </defs>
      <use xlink:href="#FangSong-7d2f"/>
      <use xlink:href="#FangSong-8ba1" x="100"/>
      <use xlink:href="#FangSong-5b8c" x="200"/>
      <use xlink:href="#FangSong-6210" x="300"/>
      <use xlink:href="#FangSong-6bd4" x="400"/>
      <use xlink:href="#FangSong-4f8b" x="500"/>
     </g>
    </g>
   </g>
   <g id="line2d_15">
    <path d="M 73.832727 295.488 
L 74.323884 171.38304 
L 74.815041 171.38304 
L 75.797354 170.8992 
L 77.270824 170.8992 
L 77.76198 170.17344 
L 78.253137 169.93152 
L 78.744294 169.44768 
L 79.23545 169.44768 
L 79.726607 168.96384 
L 80.70892 168.48 
L 81.691234 167.51232 
L 83.164704 166.78656 
L 84.147017 165.81888 
L 84.638174 165.57696 
L 85.12933 165.57696 
L 85.620487 165.33504 
L 86.111644 164.8512 
L 87.585113 161.94816 
L 88.567427 160.98048 
L 89.54974 159.52896 
L 90.040897 159.28704 
L 90.532053 158.56128 
L 91.02321 158.56128 
L 91.514367 158.07744 
L 92.005523 157.35168 
L 92.49668 156.86784 
L 92.987837 156.86784 
L 93.478993 156.62592 
L 93.97015 155.90016 
L 95.44362 155.1744 
L 95.934777 154.44864 
L 96.425933 154.20672 
L 96.91709 152.99712 
L 97.408246 152.27136 
L 99.86403 149.85216 
L 100.355186 149.85216 
L 101.3375 147.67488 
L 101.828656 146.94912 
L 102.319813 145.73952 
L 103.302126 144.288 
L 104.28444 142.59456 
L 104.775596 141.8688 
L 105.75791 141.38496 
L 106.249066 141.38496 
L 108.213693 140.41728 
L 109.196006 138.48192 
L 110.178319 137.99808 
L 110.669476 137.51424 
L 111.160633 137.27232 
L 111.651789 135.57888 
L 112.142946 135.09504 
L 113.125259 134.6112 
L 113.616416 133.88544 
L 114.107573 133.4016 
L 114.598729 133.4016 
L 115.581042 132.91776 
L 116.563356 132.91776 
L 117.054512 132.192 
L 117.545669 131.70816 
L 118.036826 131.46624 
L 118.527982 130.74048 
L 119.019139 130.74048 
L 120.001452 129.04704 
L 120.492609 128.5632 
L 120.983766 128.5632 
L 122.948392 127.59552 
L 123.439549 127.59552 
L 124.421862 126.62784 
L 124.913019 126.38592 
L 125.404175 126.38592 
L 126.386489 125.90208 
L 126.877645 125.90208 
L 127.368802 125.41824 
L 127.859959 124.69248 
L 128.351115 124.45056 
L 129.824585 124.45056 
L 130.315742 124.20864 
L 131.298055 123.24096 
L 133.262682 122.27328 
L 133.753839 121.78944 
L 134.244995 121.78944 
L 134.736152 121.54752 
L 135.227308 121.06368 
L 136.209622 121.06368 
L 136.700778 120.57984 
L 137.191935 120.57984 
L 138.174248 120.096 
L 138.665405 119.61216 
L 139.647718 119.12832 
L 140.630032 118.16064 
L 141.121188 117.91872 
L 141.612345 116.22528 
L 142.103502 115.98336 
L 142.594658 115.49952 
L 144.559285 114.53184 
L 145.050441 114.048 
L 145.541598 113.32224 
L 146.032755 112.8384 
L 146.523911 112.8384 
L 147.506225 112.35456 
L 147.997381 112.35456 
L 148.979695 111.38688 
L 149.470851 111.38688 
L 149.962008 110.90304 
L 150.453165 110.66112 
L 150.944321 110.66112 
L 151.435478 110.17728 
L 151.926635 109.93536 
L 152.417791 108.72576 
L 152.908948 108.48384 
L 153.891261 108.48384 
L 154.873574 108 
L 155.364731 107.51616 
L 155.855888 107.51616 
L 156.347044 107.03232 
L 158.311671 106.06464 
L 158.802828 106.06464 
L 159.293984 105.5808 
L 159.785141 105.33888 
L 160.767454 104.3712 
L 161.258611 104.3712 
L 161.749768 103.40352 
L 162.240924 102.91968 
L 162.732081 102.67776 
L 163.223238 101.952 
L 163.714394 100.98432 
L 164.205551 100.50048 
L 164.696707 99.77472 
L 165.679021 99.29088 
L 166.661334 99.29088 
L 167.152491 99.04896 
L 167.643647 99.04896 
L 168.134804 98.56512 
L 168.625961 97.83936 
L 169.608274 97.35552 
L 170.099431 97.35552 
L 170.590587 97.1136 
L 171.081744 96.62976 
L 172.064057 96.62976 
L 172.555214 96.38784 
L 173.046371 96.38784 
L 173.537527 96.14592 
L 174.028684 96.14592 
L 174.51984 95.66208 
L 175.010997 95.42016 
L 175.502154 95.42016 
L 175.99331 95.17824 
L 176.484467 95.17824 
L 176.975624 94.93632 
L 177.46678 94.93632 
L 177.957937 94.6944 
L 178.449094 94.21056 
L 179.922564 94.21056 
L 180.904877 93.72672 
L 181.396034 93.72672 
L 182.869504 93.00096 
L 183.36066 93.00096 
L 183.851817 92.75904 
L 184.342973 92.75904 
L 184.83413 92.2752 
L 185.816443 92.2752 
L 186.3076 91.79136 
L 189.25454 91.79136 
L 189.745697 91.54944 
L 190.236853 91.54944 
L 190.72801 91.30752 
L 191.710323 91.30752 
L 192.20148 90.82368 
L 192.692637 90.58176 
L 193.183793 90.09792 
L 194.166106 90.09792 
L 195.14842 89.61408 
L 196.130733 89.61408 
L 196.62189 89.37216 
L 197.113046 88.88832 
L 199.56883 88.88832 
L 200.059986 88.6464 
L 200.551143 88.16256 
L 201.0423 88.16256 
L 202.024613 87.67872 
L 202.515769 87.67872 
L 203.006926 87.4368 
L 203.498083 86.95296 
L 203.989239 86.71104 
L 204.480396 86.71104 
L 204.971553 86.46912 
L 205.462709 86.46912 
L 205.953866 86.2272 
L 206.936179 86.2272 
L 207.427336 85.98528 
L 207.918493 85.98528 
L 208.900806 85.50144 
L 209.391963 85.50144 
L 209.883119 85.25952 
L 210.374276 85.25952 
L 210.865433 85.0176 
L 211.847746 85.0176 
L 214.794686 83.56608 
L 219.215096 83.56608 
L 219.706252 83.32416 
L 220.197409 83.32416 
L 220.688566 83.08224 
L 221.179722 83.08224 
L 222.162035 82.11456 
L 223.635505 82.11456 
L 224.126662 81.87264 
L 224.617819 81.87264 
L 225.108975 81.63072 
L 225.600132 81.63072 
L 226.582445 81.14688 
L 227.564759 81.14688 
L 228.055915 80.90496 
L 228.547072 80.42112 
L 230.020542 79.69536 
L 232.967482 79.69536 
L 233.458638 79.45344 
L 234.440952 79.45344 
L 234.932108 79.21152 
L 235.914422 79.21152 
L 236.896735 78.72768 
L 237.387892 78.72768 
L 237.879048 78.48576 
L 238.370205 78.00192 
L 238.861362 78.00192 
L 239.352518 77.76 
L 239.843675 77.76 
L 240.334832 77.51808 
L 241.808301 77.51808 
L 242.299458 77.27616 
L 243.281771 77.27616 
L 243.772928 76.79232 
L 244.264085 76.79232 
L 244.755241 76.30848 
L 246.228711 76.30848 
L 248.684495 75.09888 
L 249.175651 75.09888 
L 249.666808 74.85696 
L 250.157965 74.37312 
L 255.069531 74.37312 
L 256.051844 73.88928 
L 256.543001 73.40544 
L 257.034158 73.16352 
L 257.525314 73.16352 
L 258.507628 72.67968 
L 259.489941 72.67968 
L 260.963411 71.95392 
L 261.454567 71.47008 
L 262.928037 70.74432 
L 263.419194 70.74432 
L 263.910351 70.5024 
L 264.892664 70.5024 
L 265.383821 70.26048 
L 267.839604 70.26048 
L 268.330761 69.77664 
L 269.313074 69.2928 
L 270.295387 69.2928 
L 271.768857 68.56704 
L 272.260014 68.56704 
L 273.242327 68.0832 
L 273.733484 67.59936 
L 274.22464 67.59936 
L 274.715797 67.11552 
L 275.206954 67.11552 
L 275.69811 66.8736 
L 278.64505 66.8736 
L 279.627363 66.38976 
L 280.609677 66.38976 
L 281.59199 65.90592 
L 282.574303 64.93824 
L 284.047773 64.93824 
L 284.53893 64.69632 
L 285.030087 64.21248 
L 285.521243 63.48672 
L 286.503557 63.00288 
L 286.994713 63.00288 
L 287.48587 62.76096 
L 288.468183 61.79328 
L 288.95934 61.55136 
L 289.450496 61.06752 
L 290.43281 60.58368 
L 290.923966 60.58368 
L 291.415123 60.09984 
L 291.90628 60.09984 
L 292.397436 59.85792 
L 296.32669 59.85792 
L 296.817846 59.616 
L 297.309003 59.13216 
L 297.80016 59.13216 
L 298.291316 58.89024 
L 298.782473 58.16448 
L 301.729413 58.16448 
L 302.220569 57.92256 
L 302.711726 57.92256 
L 303.202883 57.68064 
L 303.694039 57.68064 
L 304.185196 57.43872 
L 307.623293 57.43872 
L 308.114449 57.1968 
L 311.061389 57.1968 
L 311.552546 56.95488 
L 312.534859 56.95488 
L 313.026016 56.71296 
L 321.375679 56.71296 
L 321.866835 56.47104 
L 323.831462 56.47104 
L 324.813775 55.9872 
L 326.778402 55.9872 
L 327.269559 55.74528 
L 329.725342 55.74528 
L 330.216498 55.50336 
L 334.145752 55.50336 
L 334.636908 55.26144 
L 341.513101 55.26144 
L 342.004258 55.01952 
L 342.986571 55.01952 
L 343.477728 54.7776 
L 344.460041 54.7776 
L 344.951198 54.53568 
L 350.353921 54.53568 
L 350.845078 54.05184 
L 372.45597 54.05184 
L 372.947127 53.80992 
L 397.996116 53.80992 
L 398.487273 53.568 
L 398.487273 53.568 
" clip-path="url(#p5717f4789b)" style="fill: none; stroke: #ff0000; stroke-linecap: square"/>
   </g>
   <g id="line2d_16">
    <path d="M 73.832727 295.488 
L 74.323884 179.008 
L 81.200077 179.008 
L 81.691234 177.728 
L 86.6028 177.728 
L 87.093957 176.448 
L 87.585113 172.608 
L 90.040897 172.608 
L 90.532053 171.328 
L 91.02321 171.328 
L 91.514367 170.048 
L 96.91709 170.048 
L 97.899403 167.488 
L 99.372873 167.488 
L 99.86403 166.208 
L 100.846343 166.208 
L 101.3375 164.928 
L 101.828656 164.928 
L 102.319813 163.648 
L 102.81097 161.088 
L 103.793283 161.088 
L 105.266753 157.248 
L 107.722536 157.248 
L 108.213693 155.968 
L 108.704849 155.968 
L 109.196006 154.688 
L 111.160633 154.688 
L 111.651789 150.848 
L 113.616416 150.848 
L 114.107573 148.288 
L 119.510296 148.288 
L 120.001452 147.008 
L 130.806899 147.008 
L 131.298055 145.728 
L 134.244995 145.728 
L 134.736152 144.448 
L 137.683092 144.448 
L 138.665405 141.888 
L 139.156562 141.888 
L 139.647718 140.608 
L 141.121188 140.608 
L 141.612345 138.048 
L 142.103502 136.768 
L 143.576972 136.768 
L 144.559285 134.208 
L 146.523911 134.208 
L 147.015068 132.928 
L 147.997381 132.928 
L 148.979695 130.368 
L 151.926635 130.368 
L 152.417791 126.528 
L 154.873574 126.528 
L 155.364731 125.248 
L 155.855888 125.248 
L 156.347044 122.688 
L 159.785141 122.688 
L 160.767454 120.128 
L 161.258611 120.128 
L 161.749768 116.288 
L 164.205551 116.288 
L 164.696707 115.008 
L 167.643647 115.008 
L 169.117117 111.168 
L 174.028684 111.168 
L 174.51984 109.888 
L 175.502154 109.888 
L 175.99331 108.608 
L 177.46678 108.608 
L 177.957937 107.328 
L 189.25454 107.328 
L 189.745697 106.048 
L 191.710323 106.048 
L 193.183793 102.208 
L 194.166106 102.208 
L 194.657263 100.928 
L 201.0423 100.928 
L 201.533456 99.648 
L 203.006926 99.648 
L 203.989239 97.088 
L 208.409649 97.088 
L 208.900806 95.808 
L 212.830059 95.808 
L 213.812372 93.248 
L 214.303529 93.248 
L 214.794686 91.968 
L 225.600132 91.968 
L 226.091289 90.688 
L 228.055915 90.688 
L 229.038229 88.128 
L 229.529385 88.128 
L 230.020542 86.848 
L 237.879048 86.848 
L 238.370205 85.568 
L 239.843675 85.568 
L 240.334832 84.288 
L 241.808301 84.288 
L 242.299458 83.008 
L 243.281771 83.008 
L 243.772928 81.728 
L 244.264085 81.728 
L 244.755241 80.448 
L 246.228711 80.448 
L 246.719868 79.168 
L 247.702181 79.168 
L 248.193338 77.888 
L 256.051844 77.888 
L 257.034158 75.328 
L 259.489941 75.328 
L 259.981098 74.048 
L 261.454567 74.048 
L 261.945724 72.768 
L 264.892664 72.768 
L 265.383821 71.488 
L 267.839604 71.488 
L 268.330761 70.208 
L 270.786544 70.208 
L 271.768857 67.648 
L 275.206954 67.648 
L 275.69811 66.368 
L 281.59199 66.368 
L 282.083147 65.088 
L 284.53893 65.088 
L 285.030087 63.808 
L 286.994713 63.808 
L 287.977027 61.248 
L 290.923966 61.248 
L 291.415123 59.968 
L 307.623293 59.968 
L 308.114449 58.688 
L 312.534859 58.688 
L 313.026016 57.408 
L 324.322619 57.408 
L 324.813775 56.128 
L 326.778402 56.128 
L 327.269559 54.848 
L 372.45597 54.848 
L 372.947127 53.568 
L 398.487273 53.568 
L 398.487273 53.568 
" clip-path="url(#p5717f4789b)" style="fill: none; stroke-dasharray: 1.85,0.8; stroke-dashoffset: 0; stroke: #008000; stroke-width: 0.5"/>
   </g>
   <g id="line2d_17">
    <path d="M 73.832727 295.488 
L 74.323884 187.436775 
L 75.306197 187.436775 
L 75.797354 186.480569 
L 77.270824 186.480569 
L 77.76198 185.524364 
L 80.70892 185.524364 
L 81.200077 184.568158 
L 82.673547 184.568158 
L 84.147017 181.699542 
L 86.111644 181.699542 
L 86.6028 177.874719 
L 87.585113 177.874719 
L 90.040897 173.093692 
L 91.514367 173.093692 
L 92.005523 171.181281 
L 92.49668 170.225075 
L 93.478993 170.225075 
L 93.97015 169.26887 
L 96.425933 169.26887 
L 96.91709 168.312664 
L 99.372873 168.312664 
L 99.86403 167.356458 
L 100.355186 167.356458 
L 100.846343 166.400253 
L 102.81097 166.400253 
L 103.793283 164.487842 
L 108.213693 164.487842 
L 109.196006 162.575431 
L 110.669476 162.575431 
L 111.160633 161.619225 
L 111.651789 161.619225 
L 112.142946 159.706814 
L 113.125259 159.706814 
L 113.616416 157.794403 
L 115.089886 157.794403 
L 115.581042 156.838198 
L 119.510296 156.838198 
L 120.001452 155.881992 
L 120.983766 155.881992 
L 121.474922 154.925787 
L 122.457236 154.925787 
L 122.948392 153.969581 
L 125.404175 153.969581 
L 125.895332 153.013375 
L 126.877645 153.013375 
L 127.368802 152.05717 
L 127.859959 150.144759 
L 129.824585 150.144759 
L 130.806899 148.232348 
L 131.789212 148.232348 
L 132.771525 146.319937 
L 134.736152 146.319937 
L 135.227308 144.407526 
L 136.209622 144.407526 
L 136.700778 143.45132 
L 139.647718 143.45132 
L 140.138875 142.495115 
L 140.630032 140.582704 
L 141.121188 140.582704 
L 141.612345 137.714087 
L 142.103502 137.714087 
L 142.594658 136.757881 
L 143.085815 136.757881 
L 143.576972 135.801676 
L 144.559285 135.801676 
L 145.541598 131.976854 
L 146.032755 131.020648 
L 147.015068 131.020648 
L 147.506225 130.064443 
L 148.488538 130.064443 
L 148.979695 129.108237 
L 149.470851 129.108237 
L 149.962008 127.195826 
L 150.453165 126.239621 
L 150.944321 126.239621 
L 151.926635 124.327209 
L 153.891261 124.327209 
L 155.364731 121.458593 
L 156.347044 121.458593 
L 156.838201 120.502387 
L 157.820514 120.502387 
L 158.311671 119.546182 
L 158.802828 119.546182 
L 159.293984 117.633771 
L 160.276298 117.633771 
L 160.767454 116.677565 
L 161.258611 116.677565 
L 161.749768 115.72136 
L 162.732081 115.72136 
L 164.205551 112.852743 
L 164.696707 110.940332 
L 165.679021 109.027921 
L 166.661334 109.027921 
L 167.152491 108.071715 
L 169.117117 108.071715 
L 169.608274 107.11551 
L 170.590587 107.11551 
L 171.081744 106.159304 
L 172.064057 106.159304 
L 172.555214 105.203099 
L 174.028684 105.203099 
L 175.010997 103.290688 
L 176.484467 103.290688 
L 176.975624 102.334482 
L 177.957937 102.334482 
L 178.449094 101.378277 
L 181.396034 101.378277 
L 182.378347 99.465866 
L 184.342973 99.465866 
L 184.83413 98.50966 
L 196.62189 98.50966 
L 197.113046 97.553455 
L 200.059986 97.553455 
L 200.551143 96.597249 
L 202.515769 96.597249 
L 203.498083 94.684838 
L 206.936179 94.684838 
L 207.427336 93.728632 
L 209.391963 93.728632 
L 209.883119 92.772427 
L 210.374276 92.772427 
L 210.865433 91.816221 
L 211.847746 91.816221 
L 212.830059 89.90381 
L 221.179722 89.90381 
L 221.670879 88.947605 
L 226.091289 88.947605 
L 226.582445 87.991399 
L 234.440952 87.991399 
L 234.932108 87.035194 
L 243.281771 87.035194 
L 243.772928 86.078988 
L 246.719868 86.078988 
L 247.702181 84.166577 
L 248.193338 84.166577 
L 248.684495 83.210372 
L 249.666808 83.210372 
L 250.157965 81.29796 
L 255.069531 81.29796 
L 256.051844 79.385549 
L 257.525314 79.385549 
L 258.016471 78.429344 
L 260.472254 78.429344 
L 260.963411 77.473138 
L 263.419194 77.473138 
L 263.910351 76.516933 
L 270.295387 76.516933 
L 270.786544 75.560727 
L 272.260014 75.560727 
L 272.75117 74.604522 
L 278.64505 74.604522 
L 279.136207 73.648316 
L 281.100833 73.648316 
L 281.59199 72.692111 
L 284.047773 72.692111 
L 285.030087 70.7797 
L 285.521243 67.911083 
L 286.0124 67.911083 
L 286.503557 66.954877 
L 288.95934 66.954877 
L 289.450496 65.998672 
L 291.90628 65.998672 
L 292.397436 65.042466 
L 296.32669 65.042466 
L 297.309003 63.130055 
L 297.80016 63.130055 
L 298.782473 61.217644 
L 302.711726 61.217644 
L 303.202883 60.261439 
L 303.694039 60.261439 
L 304.185196 59.305233 
L 321.375679 59.305233 
L 321.866835 58.349028 
L 323.831462 58.349028 
L 324.322619 57.392822 
L 342.986571 57.392822 
L 343.477728 56.436617 
L 344.460041 56.436617 
L 344.951198 55.480411 
L 350.353921 55.480411 
L 350.845078 54.524206 
L 397.996116 54.524206 
L 398.487273 53.568 
L 398.487273 53.568 
" clip-path="url(#p5717f4789b)" style="fill: none; stroke-dasharray: 1.85,0.8; stroke-dashoffset: 0; stroke: #0000ff; stroke-width: 0.5"/>
   </g>
   <g id="line2d_18">
    <path d="M 73.832727 295.488 
L 74.323884 162.669176 
L 77.270824 162.669176 
L 77.76198 161.720471 
L 79.23545 161.720471 
L 79.726607 159.823059 
L 81.200077 159.823059 
L 81.691234 158.874353 
L 84.147017 158.874353 
L 84.638174 157.925647 
L 85.620487 157.925647 
L 86.111644 156.976941 
L 88.567427 156.976941 
L 89.058583 156.028235 
L 89.54974 154.130824 
L 90.040897 154.130824 
L 90.532053 153.182118 
L 91.514367 153.182118 
L 92.49668 151.284706 
L 92.987837 151.284706 
L 94.461307 148.438588 
L 95.44362 148.438588 
L 95.934777 146.541176 
L 96.425933 146.541176 
L 96.91709 144.643765 
L 97.408246 143.695059 
L 97.899403 143.695059 
L 98.39056 141.797647 
L 99.372873 139.900235 
L 100.355186 139.900235 
L 100.846343 137.054118 
L 101.3375 137.054118 
L 101.828656 136.105412 
L 102.319813 136.105412 
L 102.81097 135.156706 
L 103.302126 135.156706 
L 104.775596 132.310588 
L 105.266753 132.310588 
L 105.75791 131.361882 
L 106.740223 131.361882 
L 107.231379 130.413176 
L 108.213693 130.413176 
L 108.704849 128.515765 
L 109.687163 128.515765 
L 110.669476 126.618353 
L 111.160633 126.618353 
L 111.651789 124.720941 
L 114.598729 124.720941 
L 115.089886 123.772235 
L 117.054512 123.772235 
L 117.545669 122.823529 
L 118.036826 122.823529 
L 118.527982 120.926118 
L 119.019139 120.926118 
L 120.001452 119.028706 
L 120.492609 117.131294 
L 121.966079 117.131294 
L 122.457236 116.182588 
L 123.439549 116.182588 
L 124.913019 113.336471 
L 125.895332 113.336471 
L 126.386489 112.387765 
L 127.368802 112.387765 
L 128.351115 110.490353 
L 130.315742 110.490353 
L 130.806899 109.541647 
L 131.298055 109.541647 
L 131.789212 108.592941 
L 136.209622 108.592941 
L 136.700778 107.644235 
L 141.121188 107.644235 
L 141.612345 106.695529 
L 145.541598 106.695529 
L 146.032755 105.746824 
L 147.997381 105.746824 
L 148.488538 104.798118 
L 150.944321 104.798118 
L 151.435478 103.849412 
L 151.926635 103.849412 
L 152.417791 102.900706 
L 156.838201 102.900706 
L 157.329358 101.952 
L 159.293984 101.952 
L 159.785141 101.003294 
L 161.749768 101.003294 
L 162.240924 100.054588 
L 163.223238 100.054588 
L 163.714394 99.105882 
L 182.378347 99.105882 
L 182.869504 98.157176 
L 183.36066 98.157176 
L 183.851817 97.208471 
L 185.816443 97.208471 
L 186.3076 95.311059 
L 190.236853 95.311059 
L 190.72801 94.362353 
L 191.710323 94.362353 
L 192.20148 93.413647 
L 192.692637 93.413647 
L 193.183793 92.464941 
L 196.62189 92.464941 
L 197.113046 91.516235 
L 200.059986 91.516235 
L 200.551143 90.567529 
L 204.480396 90.567529 
L 204.971553 89.618824 
L 205.462709 89.618824 
L 205.953866 88.670118 
L 213.812372 88.670118 
L 214.303529 87.721412 
L 219.215096 87.721412 
L 219.706252 86.772706 
L 220.197409 86.772706 
L 220.688566 85.824 
L 221.670879 85.824 
L 222.162035 83.926588 
L 223.635505 83.926588 
L 224.126662 82.977882 
L 227.564759 82.977882 
L 228.055915 82.029176 
L 229.038229 82.029176 
L 229.529385 81.080471 
L 232.967482 81.080471 
L 233.458638 80.131765 
L 236.405578 80.131765 
L 236.896735 79.183059 
L 237.387892 79.183059 
L 238.370205 77.285647 
L 238.861362 77.285647 
L 239.352518 76.336941 
L 244.264085 76.336941 
L 244.755241 75.388235 
L 256.051844 75.388235 
L 256.543001 74.439529 
L 260.963411 74.439529 
L 261.454567 72.542118 
L 267.839604 72.542118 
L 268.330761 71.593412 
L 268.821917 71.593412 
L 269.313074 70.644706 
L 273.242327 70.644706 
L 273.733484 68.747294 
L 274.22464 68.747294 
L 274.715797 67.798588 
L 279.136207 67.798588 
L 279.627363 66.849882 
L 280.609677 66.849882 
L 281.100833 65.901176 
L 281.59199 65.901176 
L 282.574303 64.003765 
L 285.521243 64.003765 
L 286.0124 63.055059 
L 287.48587 63.055059 
L 287.977027 62.106353 
L 288.468183 60.208941 
L 288.95934 59.260235 
L 289.450496 59.260235 
L 290.43281 57.362824 
L 296.817846 57.362824 
L 297.309003 56.414118 
L 298.291316 56.414118 
L 298.782473 54.516706 
L 301.729413 54.516706 
L 302.220569 53.568 
L 398.487273 53.568 
L 398.487273 53.568 
" clip-path="url(#p5717f4789b)" style="fill: none; stroke-dasharray: 1.85,0.8; stroke-dashoffset: 0; stroke: #bf00bf; stroke-width: 0.5"/>
   </g>
   <g id="line2d_19">
    <path d="M 73.832727 295.488 
L 74.323884 149.695152 
L 74.815041 149.695152 
L 75.306197 148.093033 
L 77.270824 148.093033 
L 78.253137 144.888795 
L 79.726607 144.888795 
L 81.200077 140.082437 
L 81.691234 140.082437 
L 82.18239 138.480318 
L 83.164704 138.480318 
L 83.65586 136.878199 
L 85.620487 136.878199 
L 86.111644 135.276079 
L 86.6028 135.276079 
L 87.093957 132.071841 
L 89.058583 125.663364 
L 90.040897 125.663364 
L 90.532053 124.061245 
L 91.02321 124.061245 
L 91.514367 122.459126 
L 94.952463 122.459126 
L 95.934777 119.254887 
L 96.91709 119.254887 
L 97.899403 116.050649 
L 98.881716 116.050649 
L 99.372873 114.44853 
L 100.355186 114.44853 
L 101.828656 109.642172 
L 102.81097 109.642172 
L 103.793283 103.233695 
L 104.28444 101.631576 
L 107.231379 101.631576 
L 107.722536 100.029457 
L 108.704849 100.029457 
L 109.687163 96.825219 
L 110.178319 96.825219 
L 110.669476 95.223099 
L 111.160633 95.223099 
L 111.651789 92.018861 
L 112.142946 92.018861 
L 112.634103 90.416742 
L 113.125259 90.416742 
L 113.616416 88.814623 
L 117.054512 88.814623 
L 118.036826 85.610384 
L 119.019139 85.610384 
L 119.510296 84.008265 
L 121.474922 84.008265 
L 121.966079 82.406146 
L 123.930706 82.406146 
L 124.421862 80.804026 
L 130.806899 80.804026 
L 131.298055 79.201907 
L 138.174248 79.201907 
L 138.665405 77.599788 
L 139.647718 77.599788 
L 140.138875 75.997669 
L 140.630032 75.997669 
L 141.121188 74.39555 
L 142.103502 74.39555 
L 142.594658 72.79343 
L 145.050441 72.79343 
L 145.541598 71.191311 
L 151.926635 71.191311 
L 152.908948 67.987073 
L 161.749768 67.987073 
L 163.223238 63.180715 
L 163.714394 59.976477 
L 179.922564 59.976477 
L 180.41372 58.374358 
L 196.130733 58.374358 
L 196.62189 56.772238 
L 199.56883 56.772238 
L 200.059986 55.170119 
L 207.918493 55.170119 
L 208.409649 53.568 
L 398.487273 53.568 
L 398.487273 53.568 
" clip-path="url(#p5717f4789b)" style="fill: none; stroke-dasharray: 1.85,0.8; stroke-dashoffset: 0; stroke: #bfbf00; stroke-width: 0.5"/>
   </g>
   <g id="line2d_20">
    <path d="M 73.832727 295.488 
L 74.323884 171.344842 
L 78.253137 171.344842 
L 78.744294 168.161684 
L 82.18239 168.161684 
L 82.673547 166.570105 
L 83.65586 166.570105 
L 84.147017 164.978526 
L 85.12933 164.978526 
L 85.620487 163.386947 
L 87.093957 163.386947 
L 87.585113 161.795368 
L 93.478993 161.795368 
L 93.97015 160.203789 
L 94.461307 160.203789 
L 94.952463 158.612211 
L 95.934777 158.612211 
L 96.425933 157.020632 
L 96.91709 153.837474 
L 98.39056 153.837474 
L 98.881716 152.245895 
L 100.846343 152.245895 
L 101.3375 149.062737 
L 101.828656 147.471158 
L 102.319813 141.104842 
L 104.28444 141.104842 
L 104.775596 139.513263 
L 106.249066 139.513263 
L 106.740223 137.921684 
L 108.213693 137.921684 
L 109.196006 134.738526 
L 112.634103 134.738526 
L 113.125259 133.146947 
L 116.563356 133.146947 
L 117.054512 128.372211 
L 118.036826 128.372211 
L 118.527982 126.780632 
L 119.019139 126.780632 
L 119.510296 123.597474 
L 123.439549 123.597474 
L 123.930706 122.005895 
L 126.877645 122.005895 
L 127.368802 120.414316 
L 132.771525 120.414316 
L 133.262682 118.822737 
L 133.753839 115.639579 
L 137.191935 115.639579 
L 137.683092 114.048 
L 138.665405 114.048 
L 139.156562 112.456421 
L 141.121188 112.456421 
L 141.612345 110.864842 
L 142.594658 110.864842 
L 143.085815 109.273263 
L 157.329358 109.273263 
L 157.820514 107.681684 
L 159.785141 107.681684 
L 160.276298 106.090105 
L 162.732081 106.090105 
L 163.223238 104.498526 
L 163.714394 104.498526 
L 164.205551 102.906947 
L 167.643647 102.906947 
L 168.134804 101.315368 
L 168.625961 98.132211 
L 170.099431 98.132211 
L 171.081744 94.949053 
L 173.046371 94.949053 
L 173.537527 93.357474 
L 177.957937 93.357474 
L 178.449094 91.765895 
L 180.41372 91.765895 
L 180.904877 90.174316 
L 184.342973 90.174316 
L 184.83413 88.582737 
L 194.657263 88.582737 
L 195.14842 86.991158 
L 201.533456 86.991158 
L 202.024613 85.399579 
L 221.179722 85.399579 
L 221.670879 83.808 
L 224.617819 83.808 
L 225.108975 82.216421 
L 228.055915 82.216421 
L 228.547072 80.624842 
L 235.914422 80.624842 
L 236.405578 79.033263 
L 249.175651 79.033263 
L 249.666808 77.441684 
L 258.016471 77.441684 
L 258.507628 75.850105 
L 259.981098 75.850105 
L 260.472254 74.258526 
L 261.945724 74.258526 
L 262.928037 71.075368 
L 268.330761 71.075368 
L 268.821917 69.483789 
L 272.75117 69.483789 
L 273.242327 67.892211 
L 274.22464 67.892211 
L 274.715797 66.300632 
L 282.083147 66.300632 
L 282.574303 64.709053 
L 288.95934 64.709053 
L 289.450496 63.117474 
L 290.923966 63.117474 
L 291.415123 61.525895 
L 311.061389 61.525895 
L 311.552546 59.934316 
L 329.725342 59.934316 
L 330.216498 58.342737 
L 334.145752 58.342737 
L 334.636908 56.751158 
L 341.513101 56.751158 
L 342.004258 55.159579 
L 350.353921 55.159579 
L 350.845078 53.568 
L 398.487273 53.568 
L 398.487273 53.568 
" clip-path="url(#p5717f4789b)" style="fill: none; stroke-dasharray: 1.85,0.8; stroke-dashoffset: 0; stroke: #000000; stroke-width: 0.5"/>
   </g>
   <g id="patch_3">
    <path d="M 57.6 307.584 
L 57.6 41.472 
" style="fill: none; stroke: #000000; stroke-width: 0.8; stroke-linejoin: miter; stroke-linecap: square"/>
   </g>
   <g id="patch_4">
    <path d="M 414.72 307.584 
L 414.72 41.472 
" style="fill: none; stroke: #000000; stroke-width: 0.8; stroke-linejoin: miter; stroke-linecap: square"/>
   </g>
   <g id="patch_5">
    <path d="M 57.6 307.584 
L 414.72 307.584 
" style="fill: none; stroke: #000000; stroke-width: 0.8; stroke-linejoin: miter; stroke-linecap: square"/>
   </g>
   <g id="patch_6">
    <path d="M 57.6 41.472 
L 414.72 41.472 
" style="fill: none; stroke: #000000; stroke-width: 0.8; stroke-linejoin: miter; stroke-linecap: square"/>
   </g>
   <g id="text_17">
    <!-- count=1000, googlenet=150, resnet50=112, squeezenetv1=187, vgg19=187, yolov2=112 -->
    <g transform="translate(-3.84 35.472) scale(0.12 -0.12)">
     <defs>
      <path id="FangSong-6f" d="M 2875 1400 
Q 2875 775 2500 362 
Q 2125 -50 1575 -50 
Q 1000 -50 637 375 
Q 275 800 275 1400 
Q 275 1950 637 2400 
Q 1000 2850 1575 2850 
Q 2175 2850 2525 2400 
Q 2875 1950 2875 1400 
z
M 675 1375 
Q 675 725 937 412 
Q 1200 100 1575 100 
Q 2000 100 2237 437 
Q 2475 775 2475 1375 
Q 2475 2025 2212 2362 
Q 1950 2700 1575 2700 
Q 1225 2700 950 2362 
Q 675 2025 675 1375 
z
" transform="scale(0.015625)"/>
      <path id="FangSong-75" d="M 1425 225 
Q 1725 225 1937 375 
Q 2150 525 2250 850 
L 2250 2425 
Q 2250 2525 2200 2587 
Q 2150 2650 2025 2650 
L 1875 2650 
L 1875 2800 
L 2025 2800 
Q 2175 2800 2300 2825 
Q 2425 2850 2550 2950 
L 2600 2950 
L 2600 500 
Q 2600 400 2662 350 
Q 2725 300 2825 300 
L 2975 300 
L 2975 150 
L 2825 150 
Q 2700 150 2575 112 
Q 2450 75 2300 0 
L 2250 0 
L 2250 525 
Q 2125 250 1875 112 
Q 1625 -25 1300 -25 
Q 900 -25 700 200 
Q 500 425 500 925 
L 500 2425 
Q 500 2525 450 2587 
Q 400 2650 275 2650 
L 125 2650 
L 125 2800 
L 275 2800 
Q 425 2800 550 2825 
Q 675 2850 800 2950 
L 850 2950 
L 850 875 
Q 850 525 1000 375 
Q 1150 225 1425 225 
z
" transform="scale(0.015625)"/>
      <path id="FangSong-3d" d="M 175 2725 
L 175 2950 
L 2950 2950 
L 2950 2725 
L 175 2725 
z
M 175 1450 
L 175 1675 
L 2950 1675 
L 2950 1450 
L 175 1450 
z
" transform="scale(0.015625)"/>
      <path id="FangSong-2c" d="M 1325 75 
Q 1200 25 1100 75 
Q 1000 125 962 237 
Q 925 350 925 437 
Q 925 525 987 612 
Q 1050 700 1150 737 
Q 1250 775 1425 725 
Q 1600 675 1650 500 
Q 1700 325 1662 150 
Q 1625 -25 1525 -200 
Q 1425 -375 1312 -475 
Q 1200 -575 1025 -675 
L 950 -575 
Q 1100 -450 1187 -312 
Q 1275 -175 1325 75 
z
" transform="scale(0.015625)"/>
      <path id="FangSong-20" transform="scale(0.015625)"/>
      <path id="FangSong-67" d="M 850 1875 
Q 850 1575 1025 1362 
Q 1200 1150 1500 1150 
Q 1825 1150 1987 1337 
Q 2150 1525 2150 1875 
Q 2150 2300 1962 2487 
Q 1775 2675 1500 2675 
Q 1225 2675 1037 2487 
Q 850 2300 850 1875 
z
M 2075 525 
Q 2450 475 2625 312 
Q 2800 150 2800 -125 
Q 2800 -500 2487 -725 
Q 2175 -950 1500 -950 
Q 975 -950 650 -737 
Q 325 -525 325 -250 
Q 325 -75 450 100 
Q 575 275 850 375 
Q 700 450 612 537 
Q 525 625 525 750 
Q 525 900 625 1012 
Q 725 1125 875 1200 
Q 725 1325 612 1500 
Q 500 1675 500 1875 
Q 500 2250 762 2537 
Q 1025 2825 1500 2825 
Q 1700 2825 1887 2775 
Q 2075 2725 2200 2600 
Q 2375 2725 2512 2787 
Q 2650 2850 2750 2850 
Q 2875 2850 2925 2762 
Q 2975 2675 2975 2600 
Q 2975 2500 2937 2437 
Q 2900 2375 2800 2375 
Q 2725 2375 2675 2412 
Q 2625 2450 2600 2525 
Q 2575 2600 2487 2587 
Q 2400 2575 2300 2500 
Q 2400 2400 2450 2225 
Q 2500 2050 2500 1875 
Q 2500 1575 2262 1287 
Q 2025 1000 1500 1000 
Q 1350 1000 1225 1037 
Q 1100 1075 1025 1125 
Q 925 1075 875 1000 
Q 825 925 825 875 
Q 825 775 875 725 
Q 925 675 1025 675 
Q 1350 625 1612 587 
Q 1875 550 2075 525 
z
M 1050 325 
Q 825 225 737 87 
Q 650 -50 650 -250 
Q 650 -450 875 -625 
Q 1100 -800 1550 -800 
Q 1975 -800 2225 -662 
Q 2475 -525 2475 -250 
Q 2475 -75 2412 25 
Q 2350 125 2225 150 
Q 1975 200 1675 237 
Q 1375 275 1050 325 
z
" transform="scale(0.015625)"/>
      <path id="FangSong-6c" d="M 900 4275 
Q 1125 4275 1325 4325 
Q 1525 4375 1700 4475 
L 1750 4475 
L 1750 350 
Q 1750 250 1812 200 
Q 1875 150 1975 150 
L 2550 150 
L 2550 0 
L 600 0 
L 600 150 
L 1175 150 
Q 1300 150 1350 200 
Q 1400 250 1400 350 
L 1400 3925 
Q 1400 4025 1350 4075 
Q 1300 4125 1175 4125 
L 625 4125 
L 625 4275 
L 900 4275 
z
" transform="scale(0.015625)"/>
      <path id="FangSong-72" d="M 1250 2025 
Q 1500 2425 1787 2637 
Q 2075 2850 2375 2850 
Q 2625 2850 2762 2737 
Q 2900 2625 2900 2475 
Q 2900 2350 2837 2275 
Q 2775 2200 2650 2200 
Q 2525 2200 2462 2275 
Q 2400 2350 2425 2475 
Q 2425 2550 2400 2600 
Q 2375 2650 2250 2650 
Q 2050 2650 1762 2400 
Q 1475 2150 1250 1700 
L 1250 350 
Q 1250 250 1312 200 
Q 1375 150 1475 150 
L 2025 150 
L 2025 0 
L 175 0 
L 175 150 
L 675 150 
Q 800 150 850 200 
Q 900 250 900 350 
L 900 2425 
Q 900 2525 850 2587 
Q 800 2650 675 2650 
L 200 2650 
L 200 2800 
L 400 2800 
Q 575 2800 812 2837 
Q 1050 2875 1175 2925 
L 1250 2925 
L 1250 2025 
z
" transform="scale(0.015625)"/>
      <path id="FangSong-73" d="M 600 2075 
Q 600 2450 887 2650 
Q 1175 2850 1575 2850 
Q 1800 2850 2000 2787 
Q 2200 2725 2275 2725 
Q 2350 2725 2400 2750 
Q 2450 2775 2525 2850 
L 2625 2025 
L 2475 2000 
Q 2375 2325 2137 2512 
Q 1900 2700 1600 2700 
Q 1275 2700 1087 2575 
Q 900 2450 900 2225 
Q 900 2025 987 1912 
Q 1075 1800 1300 1750 
Q 1475 1675 1737 1587 
Q 2000 1500 2225 1400 
Q 2425 1300 2562 1137 
Q 2700 975 2700 775 
Q 2700 400 2437 187 
Q 2175 -25 1675 -25 
Q 1350 -25 1187 37 
Q 1025 100 925 100 
Q 850 100 762 62 
Q 675 25 575 -25 
L 500 900 
L 650 925 
Q 725 525 975 325 
Q 1225 125 1675 125 
Q 2025 125 2212 250 
Q 2400 375 2400 625 
Q 2400 800 2300 912 
Q 2200 1025 2100 1075 
Q 1850 1175 1550 1287 
Q 1250 1400 1025 1500 
Q 800 1600 700 1750 
Q 600 1900 600 2075 
z
" transform="scale(0.015625)"/>
      <path id="FangSong-71" d="M 2250 2150 
Q 2150 2375 1975 2512 
Q 1800 2650 1550 2650 
Q 1200 2650 950 2350 
Q 700 2050 700 1325 
Q 700 700 912 437 
Q 1125 175 1450 175 
Q 1725 175 1937 300 
Q 2150 425 2250 725 
L 2250 2150 
z
M 2600 -550 
Q 2600 -675 2662 -725 
Q 2725 -775 2825 -775 
L 2975 -775 
L 2975 -925 
L 1825 -925 
L 1825 -775 
L 2025 -775 
Q 2150 -775 2200 -725 
Q 2250 -675 2250 -550 
L 2250 375 
Q 2100 175 1887 75 
Q 1675 -25 1375 -25 
Q 950 -25 625 337 
Q 300 700 300 1400 
Q 300 2075 675 2450 
Q 1050 2825 1475 2825 
Q 1750 2825 1937 2725 
Q 2125 2625 2275 2475 
L 2500 2800 
L 2600 2800 
L 2600 -550 
z
" transform="scale(0.015625)"/>
      <path id="FangSong-7a" d="M 2725 975 
L 2550 0 
L 400 0 
L 400 125 
L 2125 2650 
L 1200 2650 
Q 975 2650 825 2487 
Q 675 2325 575 1925 
L 425 1950 
L 525 2800 
L 2575 2800 
L 2575 2725 
L 825 150 
L 1775 150 
Q 2100 150 2287 350 
Q 2475 550 2575 1000 
L 2725 975 
z
" transform="scale(0.015625)"/>
      <path id="FangSong-76" d="M 1600 -25 
L 1450 -25 
L 600 2425 
Q 575 2525 500 2587 
Q 425 2650 325 2650 
L 200 2650 
L 200 2800 
L 1275 2800 
L 1275 2650 
L 1175 2650 
Q 1025 2650 987 2575 
Q 950 2500 1000 2325 
L 1600 575 
L 1650 575 
L 2250 2300 
Q 2325 2475 2262 2562 
Q 2200 2650 2050 2650 
L 2000 2650 
L 2000 2800 
L 2900 2800 
L 2900 2650 
L 2850 2650 
Q 2700 2650 2612 2562 
Q 2525 2475 2450 2300 
L 1600 -25 
z
" transform="scale(0.015625)"/>
      <path id="FangSong-39" d="M 675 2950 
Q 675 2400 887 2112 
Q 1100 1825 1425 1825 
Q 1800 1825 2075 2175 
Q 2350 2525 2350 2825 
Q 2350 3425 2150 3787 
Q 1950 4150 1500 4150 
Q 1075 4150 875 3812 
Q 675 3475 675 2950 
z
M 1350 1600 
Q 850 1600 550 1912 
Q 250 2225 250 2925 
Q 250 3525 575 3925 
Q 900 4325 1500 4325 
Q 2125 4325 2475 3825 
Q 2825 3325 2825 2375 
Q 2825 1325 2412 637 
Q 2000 -50 1275 -50 
Q 950 -50 712 100 
Q 475 250 475 500 
Q 475 600 537 700 
Q 600 800 750 800 
Q 900 800 950 687 
Q 1000 575 1000 425 
Q 1000 325 1025 262 
Q 1050 200 1075 175 
Q 1100 150 1162 137 
Q 1225 125 1300 125 
Q 1750 125 2025 625 
Q 2300 1125 2350 2300 
Q 2225 2000 1975 1800 
Q 1725 1600 1350 1600 
z
" transform="scale(0.015625)"/>
     </defs>
     <use xlink:href="#FangSong-63"/>
     <use xlink:href="#FangSong-6f" x="50"/>
     <use xlink:href="#FangSong-75" x="100"/>
     <use xlink:href="#FangSong-6e" x="150"/>
     <use xlink:href="#FangSong-74" x="200"/>
     <use xlink:href="#FangSong-3d" x="250"/>
     <use xlink:href="#FangSong-31" x="300"/>
     <use xlink:href="#FangSong-30" x="350"/>
     <use xlink:href="#FangSong-30" x="400"/>
     <use xlink:href="#FangSong-30" x="450"/>
     <use xlink:href="#FangSong-2c" x="500"/>
     <use xlink:href="#FangSong-20" x="550"/>
     <use xlink:href="#FangSong-67" x="600"/>
     <use xlink:href="#FangSong-6f" x="650"/>
     <use xlink:href="#FangSong-6f" x="700"/>
     <use xlink:href="#FangSong-67" x="750"/>
     <use xlink:href="#FangSong-6c" x="800"/>
     <use xlink:href="#FangSong-65" x="850"/>
     <use xlink:href="#FangSong-6e" x="900"/>
     <use xlink:href="#FangSong-65" x="950"/>
     <use xlink:href="#FangSong-74" x="1000"/>
     <use xlink:href="#FangSong-3d" x="1050"/>
     <use xlink:href="#FangSong-31" x="1100"/>
     <use xlink:href="#FangSong-35" x="1150"/>
     <use xlink:href="#FangSong-30" x="1200"/>
     <use xlink:href="#FangSong-2c" x="1250"/>
     <use xlink:href="#FangSong-20" x="1300"/>
     <use xlink:href="#FangSong-72" x="1350"/>
     <use xlink:href="#FangSong-65" x="1400"/>
     <use xlink:href="#FangSong-73" x="1450"/>
     <use xlink:href="#FangSong-6e" x="1500"/>
     <use xlink:href="#FangSong-65" x="1550"/>
     <use xlink:href="#FangSong-74" x="1600"/>
     <use xlink:href="#FangSong-35" x="1650"/>
     <use xlink:href="#FangSong-30" x="1700"/>
     <use xlink:href="#FangSong-3d" x="1750"/>
     <use xlink:href="#FangSong-31" x="1800"/>
     <use xlink:href="#FangSong-31" x="1850"/>
     <use xlink:href="#FangSong-32" x="1900"/>
     <use xlink:href="#FangSong-2c" x="1950"/>
     <use xlink:href="#FangSong-20" x="2000"/>
     <use xlink:href="#FangSong-73" x="2050"/>
     <use xlink:href="#FangSong-71" x="2100"/>
     <use xlink:href="#FangSong-75" x="2150"/>
     <use xlink:href="#FangSong-65" x="2200"/>
     <use xlink:href="#FangSong-65" x="2250"/>
     <use xlink:href="#FangSong-7a" x="2300"/>
     <use xlink:href="#FangSong-65" x="2350"/>
     <use xlink:href="#FangSong-6e" x="2400"/>
     <use xlink:href="#FangSong-65" x="2450"/>
     <use xlink:href="#FangSong-74" x="2500"/>
     <use xlink:href="#FangSong-76" x="2550"/>
     <use xlink:href="#FangSong-31" x="2600"/>
     <use xlink:href="#FangSong-3d" x="2650"/>
     <use xlink:href="#FangSong-31" x="2700"/>
     <use xlink:href="#FangSong-38" x="2750"/>
     <use xlink:href="#FangSong-37" x="2800"/>
     <use xlink:href="#FangSong-2c" x="2850"/>
     <use xlink:href="#FangSong-20" x="2900"/>
     <use xlink:href="#FangSong-76" x="2950"/>
     <use xlink:href="#FangSong-67" x="3000"/>
     <use xlink:href="#FangSong-67" x="3050"/>
     <use xlink:href="#FangSong-31" x="3100"/>
     <use xlink:href="#FangSong-39" x="3150"/>
     <use xlink:href="#FangSong-3d" x="3200"/>
     <use xlink:href="#FangSong-31" x="3250"/>
     <use xlink:href="#FangSong-38" x="3300"/>
     <use xlink:href="#FangSong-37" x="3350"/>
     <use xlink:href="#FangSong-2c" x="3400"/>
     <use xlink:href="#FangSong-20" x="3450"/>
     <use xlink:href="#FangSong-79" x="3500"/>
     <use xlink:href="#FangSong-6f" x="3550"/>
     <use xlink:href="#FangSong-6c" x="3600"/>
     <use xlink:href="#FangSong-6f" x="3650"/>
     <use xlink:href="#FangSong-76" x="3700"/>
     <use xlink:href="#FangSong-32" x="3750"/>
     <use xlink:href="#FangSong-3d" x="3800"/>
     <use xlink:href="#FangSong-31" x="3850"/>
     <use xlink:href="#FangSong-31" x="3900"/>
     <use xlink:href="#FangSong-32" x="3950"/>
    </g>
   </g>
   <g id="legend_1">
    <g id="patch_7">
     <path d="M 315.72 302.584 
L 407.72 302.584 
Q 409.72 302.584 409.72 300.584 
L 409.72 220.794937 
Q 409.72 218.794937 407.72 218.794937 
L 315.72 218.794937 
Q 313.72 218.794937 313.72 220.794937 
L 313.72 300.584 
Q 313.72 302.584 315.72 302.584 
z
" style="fill: #ffffff; opacity: 0.8; stroke: #cccccc; stroke-linejoin: miter"/>
    </g>
    <g id="line2d_21">
     <path d="M 317.72 226.294937 
L 327.72 226.294937 
L 337.72 226.294937 
" style="fill: none; stroke: #ff0000; stroke-linecap: square"/>
    </g>
    <g id="text_18">
     <!-- total -->
     <g transform="translate(345.72 229.794937) scale(0.1 -0.1)">
      <use xlink:href="#FangSong-74"/>
      <use xlink:href="#FangSong-6f" x="50"/>
      <use xlink:href="#FangSong-74" x="100"/>
      <use xlink:href="#FangSong-61" x="150"/>
      <use xlink:href="#FangSong-6c" x="200"/>
     </g>
    </g>
    <g id="line2d_22">
     <path d="M 317.72 239.74025 
L 327.72 239.74025 
L 337.72 239.74025 
" style="fill: none; stroke-dasharray: 1.85,0.8; stroke-dashoffset: 0; stroke: #008000; stroke-width: 0.5"/>
    </g>
    <g id="text_19">
     <!-- googlenet -->
     <g transform="translate(345.72 243.24025) scale(0.1 -0.1)">
      <use xlink:href="#FangSong-67"/>
      <use xlink:href="#FangSong-6f" x="50"/>
      <use xlink:href="#FangSong-6f" x="100"/>
      <use xlink:href="#FangSong-67" x="150"/>
      <use xlink:href="#FangSong-6c" x="200"/>
      <use xlink:href="#FangSong-65" x="250"/>
      <use xlink:href="#FangSong-6e" x="300"/>
      <use xlink:href="#FangSong-65" x="350"/>
      <use xlink:href="#FangSong-74" x="400"/>
     </g>
    </g>
    <g id="line2d_23">
     <path d="M 317.72 253.224625 
L 327.72 253.224625 
L 337.72 253.224625 
" style="fill: none; stroke-dasharray: 1.85,0.8; stroke-dashoffset: 0; stroke: #0000ff; stroke-width: 0.5"/>
    </g>
    <g id="text_20">
     <!-- yolov2 -->
     <g transform="translate(345.72 256.724625) scale(0.1 -0.1)">
      <use xlink:href="#FangSong-79"/>
      <use xlink:href="#FangSong-6f" x="50"/>
      <use xlink:href="#FangSong-6c" x="100"/>
      <use xlink:href="#FangSong-6f" x="150"/>
      <use xlink:href="#FangSong-76" x="200"/>
      <use xlink:href="#FangSong-32" x="250"/>
     </g>
    </g>
    <g id="line2d_24">
     <path d="M 317.72 266.709 
L 327.72 266.709 
L 337.72 266.709 
" style="fill: none; stroke-dasharray: 1.85,0.8; stroke-dashoffset: 0; stroke: #bf00bf; stroke-width: 0.5"/>
    </g>
    <g id="text_21">
     <!-- resnet50 -->
     <g transform="translate(345.72 270.209) scale(0.1 -0.1)">
      <use xlink:href="#FangSong-72"/>
      <use xlink:href="#FangSong-65" x="50"/>
      <use xlink:href="#FangSong-73" x="100"/>
      <use xlink:href="#FangSong-6e" x="150"/>
      <use xlink:href="#FangSong-65" x="200"/>
      <use xlink:href="#FangSong-74" x="250"/>
      <use xlink:href="#FangSong-35" x="300"/>
      <use xlink:href="#FangSong-30" x="350"/>
     </g>
    </g>
    <g id="line2d_25">
     <path d="M 317.72 280.154312 
L 327.72 280.154312 
L 337.72 280.154312 
" style="fill: none; stroke-dasharray: 1.85,0.8; stroke-dashoffset: 0; stroke: #bfbf00; stroke-width: 0.5"/>
    </g>
    <g id="text_22">
     <!-- vgg19 -->
     <g transform="translate(345.72 283.654312) scale(0.1 -0.1)">
      <use xlink:href="#FangSong-76"/>
      <use xlink:href="#FangSong-67" x="50"/>
      <use xlink:href="#FangSong-67" x="100"/>
      <use xlink:href="#FangSong-31" x="150"/>
      <use xlink:href="#FangSong-39" x="200"/>
     </g>
    </g>
    <g id="line2d_26">
     <path d="M 317.72 293.638687 
L 327.72 293.638687 
L 337.72 293.638687 
" style="fill: none; stroke-dasharray: 1.85,0.8; stroke-dashoffset: 0; stroke: #000000; stroke-width: 0.5"/>
    </g>
    <g id="text_23">
     <!-- squeezenetv1 -->
     <g transform="translate(345.72 297.138687) scale(0.1 -0.1)">
      <use xlink:href="#FangSong-73"/>
      <use xlink:href="#FangSong-71" x="50"/>
      <use xlink:href="#FangSong-75" x="100"/>
      <use xlink:href="#FangSong-65" x="150"/>
      <use xlink:href="#FangSong-65" x="200"/>
      <use xlink:href="#FangSong-7a" x="250"/>
      <use xlink:href="#FangSong-65" x="300"/>
      <use xlink:href="#FangSong-6e" x="350"/>
      <use xlink:href="#FangSong-65" x="400"/>
      <use xlink:href="#FangSong-74" x="450"/>
      <use xlink:href="#FangSong-76" x="500"/>
      <use xlink:href="#FangSong-31" x="550"/>
     </g>
    </g>
   </g>
  </g>
 </g>
 <defs>
  <clipPath id="p5717f4789b">
   <rect x="57.6" y="41.472" width="357.12" height="266.112"/>
  </clipPath>
 </defs>
</svg>
