<?xml version="1.0" encoding="utf-8" standalone="no"?>
<!DOCTYPE svg PUBLIC "-//W3C//DTD SVG 1.1//EN"
  "http://www.w3.org/Graphics/SVG/1.1/DTD/svg11.dtd">
<svg xmlns:xlink="http://www.w3.org/1999/xlink" width="460.8pt" height="345.6pt" viewBox="0 0 460.8 345.6" xmlns="http://www.w3.org/2000/svg" version="1.1">
 <metadata>
  <rdf:RDF xmlns:dc="http://purl.org/dc/elements/1.1/" xmlns:cc="http://creativecommons.org/ns#" xmlns:rdf="http://www.w3.org/1999/02/22-rdf-syntax-ns#">
   <cc:Work>
    <dc:type rdf:resource="http://purl.org/dc/dcmitype/StillImage"/>
    <dc:date>2023-01-19T17:24:42.832065</dc:date>
    <dc:format>image/svg+xml</dc:format>
    <dc:creator>
     <cc:Agent>
      <dc:title>Matplotlib v3.6.3, https://matplotlib.org/</dc:title>
     </cc:Agent>
    </dc:creator>
   </cc:Work>
  </rdf:RDF>
 </metadata>
 <defs>
  <style type="text/css">*{stroke-linejoin: round; stroke-linecap: butt}</style>
 </defs>
 <g id="figure_1">
  <g id="patch_1">
   <path d="M 0 345.6 
L 460.8 345.6 
L 460.8 0 
L 0 0 
z
" style="fill: #ffffff"/>
  </g>
  <g id="axes_1">
   <g id="patch_2">
    <path d="M 57.6 307.584 
L 414.72 307.584 
L 414.72 41.472 
L 57.6 41.472 
z
" style="fill: #ffffff"/>
   </g>
   <g id="matplotlib.axis_1">
    <g id="xtick_1">
     <g id="line2d_1">
      <defs>
       <path id="m509c600c8b" d="M 0 0 
L 0 3.5 
" style="stroke: #000000; stroke-width: 0.8"/>
      </defs>
      <g>
       <use xlink:href="#m509c600c8b" x="68.979894" y="307.584" style="stroke: #000000; stroke-width: 0.8"/>
      </g>
     </g>
     <g id="text_1">
      <!-- 0 -->
      <g transform="translate(66.479894 321.576187) scale(0.1 -0.1)">
       <defs>
        <path id="FangSong-30" d="M 1575 4125 
Q 1225 4125 987 3587 
Q 750 3050 750 2150 
Q 750 1200 987 675 
Q 1225 150 1575 150 
Q 1950 150 2162 675 
Q 2375 1200 2375 2150 
Q 2375 3050 2175 3587 
Q 1975 4125 1575 4125 
z
M 1575 -50 
Q 1025 -50 650 525 
Q 275 1100 275 2150 
Q 275 3125 637 3725 
Q 1000 4325 1575 4325 
Q 2125 4325 2487 3750 
Q 2850 3175 2850 2150 
Q 2850 1125 2487 537 
Q 2125 -50 1575 -50 
z
" transform="scale(0.015625)"/>
       </defs>
       <use xlink:href="#FangSong-30"/>
      </g>
     </g>
    </g>
    <g id="xtick_2">
     <g id="line2d_2">
      <g>
       <use xlink:href="#m509c600c8b" x="117.508227" y="307.584" style="stroke: #000000; stroke-width: 0.8"/>
      </g>
     </g>
     <g id="text_2">
      <!-- 10 -->
      <g transform="translate(112.508227 321.576187) scale(0.1 -0.1)">
       <defs>
        <path id="FangSong-31" d="M 1800 4350 
L 1800 550 
Q 1800 350 1925 250 
Q 2050 150 2275 150 
L 2525 150 
L 2525 0 
L 700 0 
L 700 150 
L 925 150 
Q 1175 150 1287 250 
Q 1400 350 1400 550 
L 1400 3575 
Q 1400 3675 1337 3737 
Q 1275 3800 1150 3800 
L 700 3800 
L 700 3950 
L 925 3950 
Q 1225 3950 1412 4050 
Q 1600 4150 1700 4350 
L 1800 4350 
z
" transform="scale(0.015625)"/>
       </defs>
       <use xlink:href="#FangSong-31"/>
       <use xlink:href="#FangSong-30" x="50"/>
      </g>
     </g>
    </g>
    <g id="xtick_3">
     <g id="line2d_3">
      <g>
       <use xlink:href="#m509c600c8b" x="166.036559" y="307.584" style="stroke: #000000; stroke-width: 0.8"/>
      </g>
     </g>
     <g id="text_3">
      <!-- 20 -->
      <g transform="translate(161.036559 321.576187) scale(0.1 -0.1)">
       <defs>
        <path id="FangSong-32" d="M 2300 3225 
Q 2300 3675 2100 3912 
Q 1900 4150 1500 4150 
Q 1200 4150 987 3987 
Q 775 3825 775 3575 
Q 775 3425 862 3325 
Q 950 3225 950 3125 
Q 950 3000 887 2937 
Q 825 2875 700 2875 
Q 550 2875 462 2962 
Q 375 3050 375 3250 
Q 375 3775 750 4050 
Q 1125 4325 1550 4325 
Q 2150 4325 2437 4025 
Q 2725 3725 2725 3275 
Q 2725 2975 2587 2675 
Q 2450 2375 2150 2100 
Q 1425 1400 1037 962 
Q 650 525 575 375 
L 2050 375 
Q 2275 375 2425 550 
Q 2575 725 2625 1075 
L 2775 1075 
L 2625 0 
L 300 0 
L 300 325 
Q 425 550 712 900 
Q 1000 1250 1475 1725 
Q 1900 2150 2100 2525 
Q 2300 2900 2300 3225 
z
" transform="scale(0.015625)"/>
       </defs>
       <use xlink:href="#FangSong-32"/>
       <use xlink:href="#FangSong-30" x="50"/>
      </g>
     </g>
    </g>
    <g id="xtick_4">
     <g id="line2d_4">
      <g>
       <use xlink:href="#m509c600c8b" x="214.564892" y="307.584" style="stroke: #000000; stroke-width: 0.8"/>
      </g>
     </g>
     <g id="text_4">
      <!-- 30 -->
      <g transform="translate(209.564892 321.576187) scale(0.1 -0.1)">
       <defs>
        <path id="FangSong-33" d="M 2775 1150 
Q 2775 675 2425 312 
Q 2075 -50 1450 -50 
Q 1000 -50 675 200 
Q 350 450 350 775 
Q 350 925 450 1037 
Q 550 1150 650 1150 
Q 800 1150 862 1037 
Q 925 925 925 850 
Q 925 725 875 637 
Q 825 550 825 475 
Q 825 325 1012 225 
Q 1200 125 1425 125 
Q 1875 125 2100 387 
Q 2325 650 2325 1200 
Q 2325 1650 2087 1925 
Q 1850 2200 1200 2200 
L 1200 2375 
Q 1700 2375 1937 2612 
Q 2175 2850 2175 3275 
Q 2175 3625 1987 3887 
Q 1800 4150 1400 4150 
Q 1225 4150 1025 4062 
Q 825 3975 825 3775 
Q 825 3575 875 3525 
Q 925 3475 925 3400 
Q 925 3275 875 3200 
Q 825 3125 700 3125 
Q 600 3125 512 3200 
Q 425 3275 425 3475 
Q 425 3850 750 4087 
Q 1075 4325 1500 4325 
Q 2000 4325 2300 4012 
Q 2600 3700 2600 3350 
Q 2600 2975 2412 2712 
Q 2225 2450 1825 2325 
Q 2375 2125 2575 1800 
Q 2775 1475 2775 1150 
z
" transform="scale(0.015625)"/>
       </defs>
       <use xlink:href="#FangSong-33"/>
       <use xlink:href="#FangSong-30" x="50"/>
      </g>
     </g>
    </g>
    <g id="xtick_5">
     <g id="line2d_5">
      <g>
       <use xlink:href="#m509c600c8b" x="263.093225" y="307.584" style="stroke: #000000; stroke-width: 0.8"/>
      </g>
     </g>
     <g id="text_5">
      <!-- 40 -->
      <g transform="translate(258.093225 321.576187) scale(0.1 -0.1)">
       <defs>
        <path id="FangSong-34" d="M 2275 475 
Q 2275 300 2375 225 
Q 2475 150 2650 150 
L 2875 150 
L 2875 0 
L 1225 0 
L 1225 150 
L 1500 150 
Q 1700 150 1787 225 
Q 1875 300 1875 475 
L 1875 1300 
L 200 1300 
L 200 1425 
L 2025 4325 
L 2275 4325 
L 2275 1450 
L 2950 1450 
L 2950 1300 
L 2275 1300 
L 2275 475 
z
M 1850 3700 
L 425 1450 
L 1875 1450 
L 1875 3700 
L 1850 3700 
z
" transform="scale(0.015625)"/>
       </defs>
       <use xlink:href="#FangSong-34"/>
       <use xlink:href="#FangSong-30" x="50"/>
      </g>
     </g>
    </g>
    <g id="xtick_6">
     <g id="line2d_6">
      <g>
       <use xlink:href="#m509c600c8b" x="311.621557" y="307.584" style="stroke: #000000; stroke-width: 0.8"/>
      </g>
     </g>
     <g id="text_6">
      <!-- 50 -->
      <g transform="translate(306.621557 321.576187) scale(0.1 -0.1)">
       <defs>
        <path id="FangSong-35" d="M 1700 2750 
Q 2175 2750 2475 2387 
Q 2775 2025 2775 1425 
Q 2775 750 2462 350 
Q 2150 -50 1500 -50 
Q 1050 -50 700 212 
Q 350 475 350 850 
Q 350 1000 437 1112 
Q 525 1225 675 1225 
Q 825 1225 875 1125 
Q 925 1025 925 950 
Q 925 800 850 712 
Q 775 625 775 525 
Q 775 325 1012 225 
Q 1250 125 1525 125 
Q 1925 125 2137 450 
Q 2350 775 2350 1375 
Q 2350 1875 2162 2187 
Q 1975 2500 1600 2500 
Q 1325 2500 1125 2400 
Q 925 2300 750 1975 
L 525 2000 
L 650 4275 
L 2700 4275 
L 2625 3900 
L 825 3900 
L 725 2250 
Q 975 2600 1212 2675 
Q 1450 2750 1700 2750 
z
" transform="scale(0.015625)"/>
       </defs>
       <use xlink:href="#FangSong-35"/>
       <use xlink:href="#FangSong-30" x="50"/>
      </g>
     </g>
    </g>
    <g id="xtick_7">
     <g id="line2d_7">
      <g>
       <use xlink:href="#m509c600c8b" x="360.14989" y="307.584" style="stroke: #000000; stroke-width: 0.8"/>
      </g>
     </g>
     <g id="text_7">
      <!-- 60 -->
      <g transform="translate(355.14989 321.576187) scale(0.1 -0.1)">
       <defs>
        <path id="FangSong-36" d="M 750 1700 
Q 750 950 1012 537 
Q 1275 125 1650 125 
Q 2025 125 2225 400 
Q 2425 675 2425 1425 
Q 2425 1925 2212 2200 
Q 2000 2475 1700 2475 
Q 1425 2475 1187 2312 
Q 950 2150 750 1700 
z
M 1725 2725 
Q 2325 2725 2587 2325 
Q 2850 1925 2850 1425 
Q 2850 675 2487 312 
Q 2125 -50 1650 -50 
Q 975 -50 625 462 
Q 275 975 275 1950 
Q 275 3100 700 3712 
Q 1125 4325 1850 4325 
Q 2200 4325 2412 4125 
Q 2625 3925 2625 3775 
Q 2625 3625 2562 3550 
Q 2500 3475 2350 3475 
Q 2225 3475 2162 3537 
Q 2100 3600 2100 3725 
Q 2100 3775 2112 3825 
Q 2125 3875 2125 3925 
Q 2125 4025 2050 4087 
Q 1975 4150 1775 4150 
Q 1350 4150 1050 3762 
Q 750 3375 750 2075 
Q 900 2400 1162 2562 
Q 1425 2725 1725 2725 
z
" transform="scale(0.015625)"/>
       </defs>
       <use xlink:href="#FangSong-36"/>
       <use xlink:href="#FangSong-30" x="50"/>
      </g>
     </g>
    </g>
    <g id="xtick_8">
     <g id="line2d_8">
      <g>
       <use xlink:href="#m509c600c8b" x="408.678223" y="307.584" style="stroke: #000000; stroke-width: 0.8"/>
      </g>
     </g>
     <g id="text_8">
      <!-- 70 -->
      <g transform="translate(403.678223 321.576187) scale(0.1 -0.1)">
       <defs>
        <path id="FangSong-37" d="M 2800 4100 
Q 2275 3250 1962 2437 
Q 1650 1625 1650 1025 
Q 1650 925 1662 737 
Q 1675 550 1675 300 
Q 1675 100 1612 25 
Q 1550 -50 1400 -50 
Q 1275 -50 1187 37 
Q 1100 125 1100 350 
Q 1100 825 1312 1525 
Q 1525 2225 2450 3900 
L 1200 3900 
Q 925 3900 762 3725 
Q 600 3550 525 3200 
L 375 3225 
L 550 4275 
L 2800 4275 
L 2800 4100 
z
" transform="scale(0.015625)"/>
       </defs>
       <use xlink:href="#FangSong-37"/>
       <use xlink:href="#FangSong-30" x="50"/>
      </g>
     </g>
    </g>
    <g id="text_9">
     <!-- Latency -->
     <g transform="translate(218.66 333.974625) scale(0.1 -0.1)">
      <defs>
       <path id="FangSong-4c" d="M 975 350 
Q 975 250 1037 200 
Q 1100 150 1200 150 
L 1875 150 
Q 2225 150 2475 362 
Q 2725 575 2850 1025 
L 2975 975 
L 2750 0 
L 175 0 
L 175 150 
L 350 150 
Q 475 150 525 200 
Q 575 250 575 350 
L 575 3925 
Q 575 4025 525 4075 
Q 475 4125 350 4125 
L 200 4125 
L 200 4275 
L 1375 4275 
L 1375 4125 
L 1200 4125 
Q 1100 4125 1037 4075 
Q 975 4025 975 3925 
L 975 350 
z
" transform="scale(0.015625)"/>
       <path id="FangSong-61" d="M 1200 -25 
Q 750 -25 500 187 
Q 250 400 250 675 
Q 250 1125 637 1412 
Q 1025 1700 2175 1825 
L 2175 2125 
Q 2175 2375 2062 2537 
Q 1950 2700 1550 2700 
Q 1125 2700 950 2562 
Q 775 2425 825 2275 
Q 875 2175 825 2075 
Q 775 1975 625 1975 
Q 525 1975 462 2037 
Q 400 2100 400 2225 
Q 400 2450 725 2650 
Q 1050 2850 1525 2850 
Q 2025 2850 2275 2662 
Q 2525 2475 2525 2125 
L 2525 475 
Q 2525 275 2562 237 
Q 2600 200 2700 200 
Q 2825 200 2875 312 
Q 2925 425 2925 625 
L 3050 625 
Q 3050 275 2925 137 
Q 2800 0 2600 0 
Q 2425 0 2325 75 
Q 2225 150 2175 325 
Q 1925 150 1712 62 
Q 1500 -25 1200 -25 
z
M 675 750 
Q 675 525 812 337 
Q 950 150 1250 150 
Q 1475 150 1700 237 
Q 1925 325 2175 500 
L 2175 1675 
Q 1325 1575 1000 1337 
Q 675 1100 675 750 
z
" transform="scale(0.015625)"/>
       <path id="FangSong-74" d="M 1475 800 
Q 1475 450 1600 325 
Q 1725 200 1975 200 
Q 2225 200 2375 362 
Q 2525 525 2575 825 
L 2700 775 
Q 2650 425 2437 200 
Q 2225 -25 1875 -25 
Q 1500 -25 1312 200 
Q 1125 425 1125 900 
L 1125 2650 
L 375 2650 
L 375 2800 
L 575 2800 
Q 875 2800 1062 2987 
Q 1250 3175 1300 3575 
L 1325 3775 
L 1475 3775 
L 1475 2800 
L 2475 2800 
L 2475 2650 
L 1475 2650 
L 1475 800 
z
" transform="scale(0.015625)"/>
       <path id="FangSong-65" d="M 2375 1550 
Q 2400 2100 2187 2387 
Q 1975 2675 1625 2675 
Q 1250 2675 1012 2375 
Q 775 2075 775 1550 
L 2375 1550 
z
M 775 1400 
Q 775 725 1037 437 
Q 1300 150 1725 150 
Q 2050 150 2275 337 
Q 2500 525 2600 800 
L 2725 750 
Q 2650 475 2387 212 
Q 2125 -50 1675 -50 
Q 1100 -50 737 325 
Q 375 700 375 1400 
Q 375 2025 737 2437 
Q 1100 2850 1625 2850 
Q 2100 2850 2450 2525 
Q 2800 2200 2800 1400 
L 775 1400 
z
" transform="scale(0.015625)"/>
       <path id="FangSong-6e" d="M 175 0 
L 175 150 
L 300 150 
Q 425 150 475 200 
Q 525 250 525 350 
L 525 2500 
Q 525 2575 500 2612 
Q 475 2650 400 2650 
L 200 2650 
L 200 2800 
L 375 2800 
Q 500 2800 612 2825 
Q 725 2850 825 2925 
L 875 2925 
L 875 2350 
Q 1100 2600 1325 2725 
Q 1550 2850 1800 2850 
Q 2225 2850 2425 2625 
Q 2625 2400 2625 1950 
L 2625 350 
Q 2625 250 2687 200 
Q 2750 150 2850 150 
L 2975 150 
L 2975 0 
L 1925 0 
L 1925 150 
L 2050 150 
Q 2175 150 2225 200 
Q 2275 250 2275 350 
L 2275 2025 
Q 2275 2325 2150 2487 
Q 2025 2650 1775 2650 
Q 1550 2650 1312 2500 
Q 1075 2350 875 2075 
L 875 350 
Q 875 250 937 200 
Q 1000 150 1100 150 
L 1225 150 
L 1225 0 
L 175 0 
z
" transform="scale(0.015625)"/>
       <path id="FangSong-63" d="M 2125 2125 
Q 2125 2200 2137 2225 
Q 2150 2250 2175 2325 
Q 2200 2425 2075 2562 
Q 1950 2700 1650 2700 
Q 1275 2700 1012 2337 
Q 750 1975 750 1375 
Q 750 825 975 487 
Q 1200 150 1725 150 
Q 2075 150 2312 375 
Q 2550 600 2650 900 
L 2775 850 
Q 2675 475 2400 212 
Q 2125 -50 1650 -50 
Q 1050 -50 700 325 
Q 350 700 350 1400 
Q 350 2025 725 2437 
Q 1100 2850 1700 2850 
Q 2125 2850 2362 2625 
Q 2600 2400 2600 2175 
Q 2600 2025 2537 1962 
Q 2475 1900 2350 1900 
Q 2250 1900 2187 1962 
Q 2125 2025 2125 2125 
z
" transform="scale(0.015625)"/>
       <path id="FangSong-79" d="M 1625 700 
L 1675 700 
L 2225 2375 
Q 2275 2500 2212 2575 
Q 2150 2650 2050 2650 
L 1900 2650 
L 1900 2800 
L 2950 2800 
L 2950 2650 
L 2800 2650 
Q 2700 2650 2600 2575 
Q 2500 2500 2450 2375 
L 1600 -100 
Q 1475 -500 1287 -712 
Q 1100 -925 800 -950 
Q 650 -950 537 -875 
Q 425 -800 425 -675 
Q 425 -575 487 -500 
Q 550 -425 675 -425 
Q 775 -425 837 -525 
Q 900 -625 1050 -587 
Q 1200 -550 1250 -425 
Q 1300 -350 1375 -162 
Q 1450 25 1500 225 
L 650 2425 
Q 625 2525 537 2587 
Q 450 2650 350 2650 
L 250 2650 
L 250 2800 
L 1300 2800 
L 1300 2650 
L 1200 2650 
Q 1100 2650 1050 2587 
Q 1000 2525 1025 2400 
L 1625 700 
z
" transform="scale(0.015625)"/>
      </defs>
      <use xlink:href="#FangSong-4c"/>
      <use xlink:href="#FangSong-61" x="50"/>
      <use xlink:href="#FangSong-74" x="100"/>
      <use xlink:href="#FangSong-65" x="150"/>
      <use xlink:href="#FangSong-6e" x="200"/>
      <use xlink:href="#FangSong-63" x="250"/>
      <use xlink:href="#FangSong-79" x="300"/>
     </g>
    </g>
   </g>
   <g id="matplotlib.axis_2">
    <g id="ytick_1">
     <g id="line2d_9">
      <defs>
       <path id="m95c383b80a" d="M 0 0 
L -3.5 0 
" style="stroke: #000000; stroke-width: 0.8"/>
      </defs>
      <g>
       <use xlink:href="#m95c383b80a" x="57.6" y="295.488" style="stroke: #000000; stroke-width: 0.8"/>
      </g>
     </g>
     <g id="text_10">
      <!-- 0% -->
      <g transform="translate(40.6 298.984094) scale(0.1 -0.1)">
       <defs>
        <path id="FangSong-25" d="M 725 4150 
Q 575 4150 475 3950 
Q 375 3750 375 3200 
Q 375 2575 487 2387 
Q 600 2200 725 2200 
Q 900 2200 987 2425 
Q 1075 2650 1075 3200 
Q 1075 3650 1012 3900 
Q 950 4150 725 4150 
z
M 1400 3175 
Q 1400 2725 1250 2387 
Q 1100 2050 725 2050 
Q 425 2050 237 2350 
Q 50 2650 50 3175 
Q 50 3725 250 4025 
Q 450 4325 725 4325 
Q 1025 4325 1212 4012 
Q 1400 3700 1400 3175 
z
M 2700 1100 
Q 2700 1525 2625 1800 
Q 2550 2075 2350 2075 
Q 2200 2075 2100 1837 
Q 2000 1600 2000 1100 
Q 2000 475 2112 300 
Q 2225 125 2350 125 
Q 2525 125 2612 337 
Q 2700 550 2700 1100 
z
M 3025 1075 
Q 3025 575 2850 262 
Q 2675 -50 2350 -50 
Q 2075 -50 1875 262 
Q 1675 575 1675 1075 
Q 1675 1625 1875 1937 
Q 2075 2250 2350 2250 
Q 2650 2250 2837 1925 
Q 3025 1600 3025 1075 
z
M 2500 4250 
L 700 -50 
L 550 25 
L 2325 4325 
L 2500 4250 
z
" transform="scale(0.015625)"/>
       </defs>
       <use xlink:href="#FangSong-30"/>
       <use xlink:href="#FangSong-25" x="50"/>
      </g>
     </g>
    </g>
    <g id="ytick_2">
     <g id="line2d_10">
      <g>
       <use xlink:href="#m95c383b80a" x="57.6" y="247.104" style="stroke: #000000; stroke-width: 0.8"/>
      </g>
     </g>
     <g id="text_11">
      <!-- 20% -->
      <g transform="translate(35.6 250.600094) scale(0.1 -0.1)">
       <use xlink:href="#FangSong-32"/>
       <use xlink:href="#FangSong-30" x="50"/>
       <use xlink:href="#FangSong-25" x="100"/>
      </g>
     </g>
    </g>
    <g id="ytick_3">
     <g id="line2d_11">
      <g>
       <use xlink:href="#m95c383b80a" x="57.6" y="198.72" style="stroke: #000000; stroke-width: 0.8"/>
      </g>
     </g>
     <g id="text_12">
      <!-- 40% -->
      <g transform="translate(35.6 202.216094) scale(0.1 -0.1)">
       <use xlink:href="#FangSong-34"/>
       <use xlink:href="#FangSong-30" x="50"/>
       <use xlink:href="#FangSong-25" x="100"/>
      </g>
     </g>
    </g>
    <g id="ytick_4">
     <g id="line2d_12">
      <g>
       <use xlink:href="#m95c383b80a" x="57.6" y="150.336" style="stroke: #000000; stroke-width: 0.8"/>
      </g>
     </g>
     <g id="text_13">
      <!-- 60% -->
      <g transform="translate(35.6 153.832094) scale(0.1 -0.1)">
       <use xlink:href="#FangSong-36"/>
       <use xlink:href="#FangSong-30" x="50"/>
       <use xlink:href="#FangSong-25" x="100"/>
      </g>
     </g>
    </g>
    <g id="ytick_5">
     <g id="line2d_13">
      <g>
       <use xlink:href="#m95c383b80a" x="57.6" y="101.952" style="stroke: #000000; stroke-width: 0.8"/>
      </g>
     </g>
     <g id="text_14">
      <!-- 80% -->
      <g transform="translate(35.6 105.448094) scale(0.1 -0.1)">
       <defs>
        <path id="FangSong-38" d="M 600 1025 
Q 600 625 862 375 
Q 1125 125 1525 125 
Q 2000 125 2212 375 
Q 2425 625 2425 1000 
Q 2425 1325 2125 1625 
Q 1825 1925 1225 2175 
Q 925 1975 762 1675 
Q 600 1375 600 1025 
z
M 2800 1075 
Q 2800 600 2450 275 
Q 2100 -50 1525 -50 
Q 1000 -50 625 275 
Q 250 600 250 1025 
Q 250 1450 462 1750 
Q 675 2050 1075 2275 
Q 725 2450 537 2712 
Q 350 2975 350 3300 
Q 350 3725 675 4025 
Q 1000 4325 1575 4325 
Q 2100 4325 2425 4025 
Q 2750 3725 2750 3300 
Q 2750 3000 2562 2737 
Q 2375 2475 1975 2275 
Q 2400 2025 2600 1725 
Q 2800 1425 2800 1075 
z
M 2400 3275 
Q 2400 3625 2200 3887 
Q 2000 4150 1575 4150 
Q 1100 4150 900 3900 
Q 700 3650 700 3375 
Q 700 3100 987 2837 
Q 1275 2575 1800 2375 
Q 2100 2525 2250 2750 
Q 2400 2975 2400 3275 
z
" transform="scale(0.015625)"/>
       </defs>
       <use xlink:href="#FangSong-38"/>
       <use xlink:href="#FangSong-30" x="50"/>
       <use xlink:href="#FangSong-25" x="100"/>
      </g>
     </g>
    </g>
    <g id="ytick_6">
     <g id="line2d_14">
      <g>
       <use xlink:href="#m95c383b80a" x="57.6" y="53.568" style="stroke: #000000; stroke-width: 0.8"/>
      </g>
     </g>
     <g id="text_15">
      <!-- 100% -->
      <g transform="translate(30.6 57.064094) scale(0.1 -0.1)">
       <use xlink:href="#FangSong-31"/>
       <use xlink:href="#FangSong-30" x="50"/>
       <use xlink:href="#FangSong-30" x="100"/>
       <use xlink:href="#FangSong-25" x="150"/>
      </g>
     </g>
    </g>
    <g id="text_16">
     <!-- 累计完成比例 -->
     <g transform="translate(25.154688 204.528) rotate(-90) scale(0.1 -0.1)">
      <defs>
       <path id="FangSong-7d2f" d="M 4525 4975 
L 4700 5225 
L 5000 4950 
L 4825 4775 
L 4625 3550 
L 4850 3300 
L 3175 3150 
L 3375 2975 
Q 3200 2925 2862 2725 
Q 2525 2525 2075 2275 
L 3475 2500 
Q 3750 2675 3900 2800 
Q 4050 2925 4100 3075 
L 4175 3100 
L 4325 2700 
Q 4200 2675 3500 2237 
Q 2800 1800 2275 1550 
L 4375 1825 
L 3900 2175 
L 4000 2275 
Q 4625 1900 4950 1725 
Q 4975 1475 4925 1225 
Q 4800 1375 4500 1675 
L 3250 1475 
L 3525 1300 
Q 3375 1200 3375 875 
L 3375 25 
Q 3375 -325 3225 -625 
Q 2975 -325 2400 150 
L 2450 250 
L 3050 -75 
Q 3150 -125 3150 0 
L 3150 925 
Q 3150 1300 3125 1450 
Q 1875 1275 1575 1175 
L 1325 1425 
L 1850 1550 
Q 2175 1700 3250 2300 
Q 2075 2100 1875 2000 
L 1575 2250 
L 1800 2300 
Q 2150 2475 3025 3125 
L 2000 3025 
Q 2000 2675 1950 2700 
Q 1900 2725 1650 3025 
Q 1725 3250 1725 3425 
L 1650 4400 
Q 1625 4675 1525 4950 
L 1625 5000 
L 1875 4675 
L 4525 4975 
z
M 3150 3375 
L 3150 3875 
Q 2525 3800 2400 3725 
L 2100 3975 
Q 2500 3975 3150 4075 
L 3150 4600 
L 1900 4450 
L 1975 3250 
L 3150 3375 
z
M 3375 4100 
Q 3950 4175 4025 4225 
L 4275 4000 
Q 3950 3975 3375 3900 
L 3375 3400 
L 4400 3500 
L 4575 4750 
L 3375 4600 
L 3375 4100 
z
M 5450 -75 
Q 4975 325 3875 1025 
L 3950 1125 
Q 4850 700 5350 500 
Q 5425 250 5450 -75 
z
M 800 -250 
Q 1350 75 1825 500 
Q 2300 925 2325 1125 
L 2400 1150 
L 2550 725 
Q 2425 700 2075 425 
Q 1725 150 875 -350 
L 800 -250 
z
" transform="scale(0.015625)"/>
       <path id="FangSong-8ba1" d="M 4075 4200 
Q 4100 4825 3900 5100 
L 3975 5150 
L 4450 4725 
Q 4275 4600 4300 4200 
L 4275 3000 
Q 5525 3200 5575 3250 
L 5950 2950 
Q 5725 2975 4275 2800 
L 4250 -425 
Q 4250 -700 4150 -575 
L 3875 -150 
Q 4050 50 4025 300 
L 4050 2750 
Q 2975 2625 2900 2575 
L 2525 2825 
Q 2850 2825 4050 2975 
L 4075 4200 
z
M 1775 3250 
L 2100 2950 
L 1900 2750 
L 1875 550 
L 2825 1250 
L 2875 1175 
Q 1875 250 1750 -25 
L 1525 275 
Q 1625 375 1650 625 
L 1675 2775 
Q 900 2625 750 2550 
L 425 2800 
Q 850 2825 1650 3000 
L 1775 3250 
z
M 2025 3800 
Q 1825 4300 1325 4950 
L 1375 5025 
Q 1925 4575 2175 4300 
Q 2125 4000 2025 3800 
z
" transform="scale(0.015625)"/>
       <path id="FangSong-5b8c" d="M 5375 2050 
Q 4925 2050 3550 1950 
L 3850 1750 
Q 3725 1600 3700 1375 
L 3675 275 
Q 3650 -125 4075 -175 
L 4925 -175 
Q 5300 -150 5312 62 
Q 5325 275 5325 1025 
L 5425 1025 
Q 5450 750 5475 337 
Q 5500 -75 5700 -275 
Q 5400 -375 5000 -400 
L 4075 -400 
Q 3425 -350 3425 150 
L 3475 1450 
Q 3475 1775 3425 1925 
L 2675 1850 
L 2875 1650 
Q 2750 1550 2600 1200 
Q 2450 850 2025 312 
Q 1600 -225 600 -675 
L 550 -575 
Q 1525 -100 1987 625 
Q 2450 1350 2525 1850 
Q 1550 1775 1500 1725 
L 1150 2025 
Q 1625 2025 3212 2150 
Q 4800 2275 5000 2350 
L 5375 2050 
z
M 1650 3650 
Q 1550 3125 1325 2875 
L 1150 3250 
Q 1450 3425 1575 4400 
L 1675 4400 
L 1675 3900 
L 5025 4150 
L 5175 4400 
L 5525 4075 
Q 5375 4050 4725 3250 
L 4650 3325 
L 4975 3900 
L 1650 3650 
z
M 4475 2975 
Q 4225 2975 3412 2875 
Q 2600 2775 2400 2725 
L 2050 2975 
Q 2575 2975 3200 3075 
Q 3825 3175 4150 3225 
L 4475 2975 
z
M 3550 4575 
Q 3475 4350 3300 4150 
Q 3225 4475 2900 5200 
L 2975 5250 
Q 3350 4825 3550 4575 
z
" transform="scale(0.015625)"/>
       <path id="FangSong-6210" d="M 5575 975 
Q 5600 -150 5750 -625 
Q 4650 -225 4000 1075 
Q 3625 650 2975 225 
L 2925 325 
Q 3525 825 3900 1300 
Q 3600 2275 3500 3300 
L 1875 3125 
Q 1875 2625 1825 2100 
L 2725 2250 
L 2875 2475 
L 3175 2225 
L 3000 2050 
Q 2850 475 2575 -125 
Q 2225 400 1825 775 
L 1875 850 
L 2475 400 
Q 2650 875 2750 2000 
L 1825 1850 
Q 1675 250 600 -650 
L 525 -600 
Q 1250 250 1425 987 
Q 1600 1725 1625 2612 
Q 1650 3500 1550 3800 
L 1625 3825 
L 1850 3350 
L 3450 3525 
Q 3400 4150 3375 4562 
Q 3350 4975 3225 5200 
L 3275 5225 
L 3725 4900 
Q 3625 4925 3637 4575 
Q 3650 4225 3675 3550 
Q 4900 3700 5050 3775 
L 5325 3475 
Q 4775 3475 3725 3325 
Q 3775 2425 4075 1525 
Q 4500 2025 4687 2325 
Q 4875 2625 4800 2850 
L 4875 2875 
L 5125 2325 
Q 5075 2400 4850 2125 
Q 4625 1850 4150 1275 
Q 4625 225 5425 -125 
L 5475 975 
L 5575 975 
z
M 4100 5000 
Q 4525 4700 4875 4450 
Q 4825 4250 4750 4025 
Q 4400 4525 4025 4950 
L 4100 5000 
z
" transform="scale(0.015625)"/>
       <path id="FangSong-6bd4" d="M 3500 2125 
Q 3925 2425 4487 2975 
Q 5050 3525 4950 3750 
L 5025 3775 
L 5250 3225 
Q 5175 3250 4875 3000 
Q 4575 2750 4287 2525 
Q 4000 2300 3500 1900 
L 3500 575 
Q 3475 -100 4150 -100 
L 4800 -100 
Q 5275 -100 5375 12 
Q 5475 125 5450 1350 
L 5575 1350 
Q 5600 825 5637 412 
Q 5675 0 5800 -175 
Q 5375 -325 4800 -325 
L 4150 -325 
Q 3225 -350 3275 550 
L 3275 4300 
Q 3275 4875 3150 5150 
L 3200 5200 
L 3625 4850 
Q 3475 4825 3500 4250 
L 3500 2125 
z
M 1500 2575 
Q 1900 2625 2337 2712 
Q 2775 2800 2800 2850 
L 3075 2600 
Q 2875 2575 2350 2475 
Q 1825 2375 1775 2325 
L 1500 2525 
L 1500 150 
L 2925 1075 
L 2975 1025 
Q 1550 -75 1375 -350 
L 1200 0 
Q 1275 75 1275 350 
L 1275 3925 
Q 1275 4475 1150 4750 
L 1200 4800 
L 1625 4400 
Q 1475 4375 1500 3925 
L 1500 2575 
z
" transform="scale(0.015625)"/>
       <path id="FangSong-4f8b" d="M 3050 2000 
Q 3025 1800 2975 1600 
Q 2775 1900 2525 2250 
Q 2300 1875 2025 1550 
L 1925 1625 
Q 2675 2725 2975 3975 
Q 2475 3925 2375 3875 
L 2050 4125 
Q 2375 4125 3162 4225 
Q 3950 4325 4100 4450 
L 4350 4125 
Q 4050 4150 3100 3975 
L 3300 3700 
Q 3200 3675 3125 3525 
Q 3050 3375 2925 3050 
L 3625 3150 
L 3775 3350 
L 4050 3075 
L 3875 2900 
Q 3300 825 1850 -225 
L 1800 -100 
Q 3100 975 3625 2900 
Q 3150 2825 3025 2775 
L 2875 2925 
Q 2775 2675 2575 2350 
Q 2900 2125 3050 2000 
z
M 1275 -150 
Q 1425 25 1400 225 
L 1450 3425 
Q 1025 2800 475 2225 
L 400 2325 
Q 875 2850 1450 3887 
Q 2025 4925 1925 5150 
L 2000 5175 
L 2250 4700 
Q 2200 4725 2062 4475 
Q 1925 4225 1675 3800 
L 1625 -325 
Q 1650 -675 1525 -600 
L 1275 -150 
z
M 5475 250 
Q 5475 -300 5300 -650 
Q 4900 -100 4300 375 
L 4350 475 
L 5200 -75 
Q 5250 250 5250 575 
L 5250 4350 
Q 5275 4950 5100 5150 
L 5175 5225 
L 5600 4850 
Q 5450 4775 5475 4325 
L 5475 250 
z
M 4300 1525 
Q 4400 1650 4400 1900 
L 4400 3075 
Q 4425 3525 4300 3750 
L 4350 3800 
L 4725 3450 
Q 4600 3350 4625 3025 
L 4625 1375 
Q 4625 1050 4550 1125 
L 4300 1525 
z
" transform="scale(0.015625)"/>
      </defs>
      <use xlink:href="#FangSong-7d2f"/>
      <use xlink:href="#FangSong-8ba1" x="100"/>
      <use xlink:href="#FangSong-5b8c" x="200"/>
      <use xlink:href="#FangSong-6210" x="300"/>
      <use xlink:href="#FangSong-6bd4" x="400"/>
      <use xlink:href="#FangSong-4f8b" x="500"/>
     </g>
    </g>
   </g>
   <g id="line2d_15">
    <path d="M 73.832727 295.488 
L 74.318011 186.14016 
L 74.803294 186.14016 
L 75.288577 185.65632 
L 75.773861 185.65632 
L 77.229711 184.93056 
L 78.200277 183.96288 
L 78.685561 183.96288 
L 79.170844 183.47904 
L 80.141411 183.47904 
L 80.626694 183.23712 
L 81.59726 183.23712 
L 82.082544 182.02752 
L 83.05311 181.54368 
L 83.538394 181.05984 
L 84.023677 180.81792 
L 84.50896 180.81792 
L 84.994244 180.33408 
L 85.479527 180.09216 
L 85.96481 180.09216 
L 86.450094 179.85024 
L 87.42066 178.88256 
L 87.905944 178.64064 
L 88.391227 178.64064 
L 88.87651 177.91488 
L 89.847077 176.9472 
L 90.33236 176.9472 
L 90.817644 175.97952 
L 91.302927 175.49568 
L 91.78821 175.25376 
L 92.273494 174.528 
L 92.758777 174.28608 
L 93.729344 174.28608 
L 95.185194 173.56032 
L 95.670477 172.83456 
L 96.15576 172.35072 
L 96.641044 171.38304 
L 97.126327 170.8992 
L 97.61161 170.8992 
L 98.096894 170.65728 
L 98.582177 169.93152 
L 99.06746 169.44768 
L 99.552744 168.72192 
L 100.038027 168.23808 
L 100.52331 167.99616 
L 102.464444 164.36736 
L 103.43501 162.91584 
L 103.920294 162.432 
L 104.405577 162.19008 
L 104.89086 161.70624 
L 105.376143 160.73856 
L 105.861427 160.49664 
L 106.831993 160.49664 
L 107.317277 160.0128 
L 107.80256 158.8032 
L 108.287843 158.56128 
L 108.773127 158.07744 
L 109.25841 157.35168 
L 109.743693 156.86784 
L 110.71426 155.1744 
L 111.199543 154.44864 
L 111.684827 153.9648 
L 112.17011 153.23904 
L 112.655393 153.23904 
L 113.140677 152.7552 
L 113.62596 152.51328 
L 114.111243 152.02944 
L 114.596527 151.30368 
L 115.08181 151.06176 
L 116.53766 149.61024 
L 117.022943 149.36832 
L 117.508227 148.88448 
L 117.99351 148.64256 
L 118.478793 148.15872 
L 118.964077 147.9168 
L 119.44936 147.19104 
L 119.934643 146.7072 
L 120.419927 146.46528 
L 120.90521 146.46528 
L 121.390493 146.22336 
L 121.875777 145.25568 
L 122.36106 145.01376 
L 122.846343 144.52992 
L 123.81691 144.04608 
L 124.302193 142.83648 
L 124.787477 142.83648 
L 125.27276 142.59456 
L 125.758043 142.59456 
L 126.72861 142.11072 
L 128.18446 142.11072 
L 129.155026 141.62688 
L 130.610876 141.62688 
L 131.09616 141.38496 
L 132.066726 141.38496 
L 133.522576 140.6592 
L 134.00786 139.93344 
L 134.493143 139.93344 
L 134.978426 139.20768 
L 135.948993 139.20768 
L 136.434276 138.96576 
L 136.91956 138.48192 
L 137.404843 138.48192 
L 137.890126 137.99808 
L 138.860693 137.51424 
L 139.345976 137.51424 
L 140.316543 136.54656 
L 140.801826 136.30464 
L 141.28711 136.30464 
L 141.772393 135.8208 
L 142.257676 135.8208 
L 142.74296 135.57888 
L 143.228243 135.57888 
L 143.713526 135.33696 
L 144.19881 134.6112 
L 145.169376 134.12736 
L 145.65466 134.12736 
L 146.139943 133.88544 
L 147.595793 131.70816 
L 148.56636 130.74048 
L 149.051643 130.49856 
L 150.02221 129.53088 
L 150.992776 129.04704 
L 151.47806 128.32128 
L 151.963343 127.83744 
L 152.933909 127.83744 
L 153.904476 127.3536 
L 154.875043 126.38592 
L 155.845609 125.90208 
L 156.330893 125.41824 
L 156.816176 125.17632 
L 158.272026 125.17632 
L 158.757309 124.69248 
L 159.727876 124.20864 
L 162.154293 124.20864 
L 162.639576 123.96672 
L 163.610143 122.5152 
L 164.095426 122.03136 
L 164.580709 121.78944 
L 165.065993 121.06368 
L 165.551276 120.82176 
L 167.007126 119.37024 
L 167.492409 119.12832 
L 167.977693 119.12832 
L 168.948259 118.64448 
L 169.918826 117.6768 
L 170.404109 117.43488 
L 170.889393 117.43488 
L 171.859959 116.4672 
L 172.345243 116.4672 
L 173.315809 115.98336 
L 173.801093 115.49952 
L 174.286376 115.49952 
L 174.771659 115.2576 
L 175.256943 115.2576 
L 176.227509 114.77376 
L 177.198076 114.77376 
L 177.683359 114.53184 
L 178.168642 114.048 
L 178.653926 113.80608 
L 179.139209 113.80608 
L 180.109776 113.32224 
L 180.595059 112.8384 
L 181.080342 112.11264 
L 181.565626 112.11264 
L 182.050909 111.6288 
L 183.021476 111.14496 
L 183.506759 110.66112 
L 184.477326 110.66112 
L 185.447892 110.17728 
L 185.933176 109.69344 
L 186.418459 109.69344 
L 186.903742 109.2096 
L 187.874309 109.2096 
L 188.359592 108.96768 
L 188.844876 108.96768 
L 189.330159 108.24192 
L 190.300726 108.24192 
L 191.756576 106.7904 
L 192.241859 106.7904 
L 192.727142 106.54848 
L 193.212426 106.06464 
L 194.182992 106.06464 
L 194.668276 105.82272 
L 195.638842 105.82272 
L 196.124126 105.5808 
L 196.609409 105.5808 
L 197.579976 105.09696 
L 198.065259 105.09696 
L 198.550542 104.61312 
L 199.521109 104.61312 
L 200.491675 103.64544 
L 201.462242 103.64544 
L 202.918092 102.91968 
L 203.403375 102.91968 
L 203.888659 102.67776 
L 204.373942 102.67776 
L 204.859225 102.43584 
L 205.344509 102.43584 
L 206.315075 101.46816 
L 207.285642 100.98432 
L 207.770925 100.98432 
L 208.256209 100.7424 
L 208.741492 100.7424 
L 209.226775 100.50048 
L 209.712059 100.01664 
L 210.197342 100.01664 
L 211.167909 99.5328 
L 211.653192 99.04896 
L 212.623759 99.04896 
L 214.079609 98.3232 
L 215.535459 98.3232 
L 216.506025 97.35552 
L 220.388292 97.35552 
L 220.873575 97.1136 
L 222.329425 97.1136 
L 223.299992 96.62976 
L 223.785275 96.62976 
L 224.270558 96.14592 
L 224.755842 95.904 
L 225.726408 95.904 
L 226.211692 95.66208 
L 227.182258 95.66208 
L 227.667542 95.17824 
L 228.152825 94.93632 
L 228.638108 94.45248 
L 229.123392 94.21056 
L 229.608675 94.21056 
L 230.093958 93.72672 
L 230.579242 93.4848 
L 231.064525 93.4848 
L 232.520375 92.75904 
L 233.490942 92.75904 
L 234.461508 92.2752 
L 234.946792 92.2752 
L 235.917358 91.30752 
L 236.402642 90.58176 
L 236.887925 90.58176 
L 237.373208 90.09792 
L 237.858492 89.856 
L 238.343775 89.856 
L 238.829058 89.61408 
L 239.799625 89.61408 
L 240.284908 89.37216 
L 240.770192 88.88832 
L 241.740758 88.40448 
L 242.226042 87.92064 
L 242.711325 87.92064 
L 244.652458 86.95296 
L 245.137742 86.95296 
L 245.623025 86.46912 
L 246.593592 85.98528 
L 247.078875 85.25952 
L 248.049442 84.77568 
L 248.534725 84.77568 
L 249.020008 84.29184 
L 249.505291 84.29184 
L 250.961141 83.56608 
L 251.446425 83.08224 
L 252.416991 83.08224 
L 252.902275 82.84032 
L 254.843408 82.84032 
L 255.328691 82.5984 
L 255.813975 82.5984 
L 256.299258 82.11456 
L 256.784541 82.11456 
L 257.269825 81.63072 
L 258.240391 81.14688 
L 259.210958 81.14688 
L 259.696241 80.66304 
L 261.152091 80.66304 
L 261.637375 80.42112 
L 262.122658 79.93728 
L 263.578508 79.93728 
L 266.490208 78.48576 
L 267.460775 78.48576 
L 267.946058 78.24384 
L 268.431341 77.76 
L 268.916625 77.76 
L 269.401908 77.51808 
L 269.887191 77.51808 
L 270.372475 77.03424 
L 271.343041 76.5504 
L 271.828325 76.06656 
L 272.313608 75.82464 
L 275.225308 75.82464 
L 275.710591 75.3408 
L 276.195874 75.3408 
L 276.681158 74.85696 
L 277.651724 74.85696 
L 278.622291 74.37312 
L 279.107574 74.37312 
L 280.078141 73.88928 
L 280.563424 73.88928 
L 281.048708 73.64736 
L 281.533991 72.9216 
L 282.504558 72.43776 
L 282.989841 71.712 
L 283.475124 71.712 
L 284.445691 71.22816 
L 284.930974 70.74432 
L 285.416258 70.5024 
L 285.901541 70.01856 
L 286.386824 69.05088 
L 287.357391 69.05088 
L 287.842674 68.32512 
L 288.327958 68.32512 
L 288.813241 67.59936 
L 289.298524 67.35744 
L 289.783808 67.35744 
L 290.754374 66.8736 
L 291.239658 66.8736 
L 291.724941 66.63168 
L 292.210224 66.63168 
L 292.695508 66.14784 
L 293.180791 65.90592 
L 293.666074 65.42208 
L 294.151358 65.42208 
L 294.636641 64.69632 
L 297.548341 64.69632 
L 298.033624 64.4544 
L 298.518907 64.4544 
L 299.004191 64.21248 
L 300.945324 64.21248 
L 301.430607 63.97056 
L 302.401174 63.97056 
L 302.886457 63.72864 
L 304.342307 63.72864 
L 304.827591 63.00288 
L 305.798157 62.51904 
L 307.254007 62.51904 
L 307.739291 62.27712 
L 309.195141 62.27712 
L 309.680424 62.0352 
L 311.621557 62.0352 
L 312.592124 61.55136 
L 313.562691 61.55136 
L 314.047974 61.30944 
L 315.018541 61.30944 
L 315.503824 60.8256 
L 315.989107 60.58368 
L 316.474391 60.58368 
L 316.959674 60.34176 
L 318.415524 60.34176 
L 319.871374 59.616 
L 321.812507 59.616 
L 322.29779 59.37408 
L 323.268357 58.4064 
L 326.180057 58.4064 
L 326.66534 58.16448 
L 327.150624 58.16448 
L 327.635907 57.92256 
L 328.12119 57.92256 
L 328.606474 57.68064 
L 329.091757 57.68064 
L 329.57704 57.1968 
L 332.974024 57.1968 
L 333.459307 56.95488 
L 338.31214 56.95488 
L 338.797424 56.71296 
L 344.13554 56.71296 
L 344.620823 56.47104 
L 352.385357 56.47104 
L 352.87064 56.22912 
L 355.78234 56.22912 
L 356.267623 55.9872 
L 357.23819 55.9872 
L 357.723473 55.74528 
L 359.179323 55.74528 
L 359.664607 55.50336 
L 360.635173 55.50336 
L 361.120457 55.26144 
L 364.032157 55.26144 
L 364.51744 55.01952 
L 368.399706 55.01952 
L 368.88499 54.7776 
L 374.223106 54.7776 
L 374.70839 54.53568 
L 381.017073 54.53568 
L 381.502356 54.29376 
L 383.928773 54.29376 
L 384.414056 54.05184 
L 393.634439 54.05184 
L 394.119723 53.80992 
L 398.001989 53.80992 
L 398.487273 53.568 
L 398.487273 53.568 
" clip-path="url(#p02957a7102)" style="fill: none; stroke: #ff0000; stroke-linecap: square"/>
   </g>
   <g id="line2d_16">
    <path d="M 73.832727 295.488 
L 74.318011 221.790517 
L 77.229711 221.790517 
L 77.714994 220.188397 
L 78.685561 220.188397 
L 79.170844 218.586278 
L 81.59726 218.586278 
L 82.567827 215.38204 
L 83.05311 215.38204 
L 83.538394 213.779921 
L 84.994244 213.779921 
L 85.479527 212.177801 
L 88.87651 212.177801 
L 89.361794 208.973563 
L 90.33236 208.973563 
L 90.817644 205.769325 
L 91.78821 202.565086 
L 92.273494 199.360848 
L 98.096894 199.360848 
L 99.06746 196.156609 
L 99.552744 196.156609 
L 100.038027 194.55449 
L 104.89086 194.55449 
L 105.376143 192.952371 
L 107.317277 192.952371 
L 108.287843 189.748132 
L 109.743693 189.748132 
L 110.228977 188.146013 
L 111.199543 188.146013 
L 111.684827 186.543894 
L 114.111243 186.543894 
L 114.596527 184.941775 
L 115.567093 184.941775 
L 116.052377 183.339656 
L 119.934643 183.339656 
L 120.419927 181.737536 
L 120.90521 181.737536 
L 121.875777 178.533298 
L 123.81691 178.533298 
L 124.302193 176.931179 
L 125.758043 176.931179 
L 126.243327 175.32906 
L 137.404843 175.32906 
L 137.890126 173.72694 
L 138.37541 173.72694 
L 138.860693 172.124821 
L 143.228243 172.124821 
L 143.713526 170.522702 
L 144.19881 170.522702 
L 145.169376 167.318464 
L 146.625226 167.318464 
L 147.11051 164.114225 
L 150.02221 164.114225 
L 151.47806 159.307868 
L 152.933909 159.307868 
L 153.904476 156.103629 
L 155.360326 156.103629 
L 155.845609 154.50151 
L 156.330893 154.50151 
L 156.816176 152.899391 
L 162.639576 152.899391 
L 163.124859 151.297272 
L 163.610143 151.297272 
L 165.065993 146.490914 
L 166.036559 146.490914 
L 166.521843 144.888795 
L 167.007126 141.684556 
L 169.433543 141.684556 
L 169.918826 140.082437 
L 172.345243 140.082437 
L 172.830526 138.480318 
L 174.286376 138.480318 
L 174.771659 136.878199 
L 175.742226 136.878199 
L 176.227509 135.276079 
L 192.727142 135.276079 
L 193.212426 133.67396 
L 196.609409 133.67396 
L 197.094692 132.071841 
L 198.065259 132.071841 
L 198.550542 130.469722 
L 201.947525 130.469722 
L 202.432809 128.867603 
L 205.829792 128.867603 
L 206.315075 127.265483 
L 210.682625 127.265483 
L 211.653192 124.061245 
L 223.785275 124.061245 
L 224.270558 122.459126 
L 227.667542 122.459126 
L 228.152825 120.857007 
L 231.549808 120.857007 
L 232.035092 119.254887 
L 234.946792 119.254887 
L 235.917358 116.050649 
L 239.799625 116.050649 
L 240.770192 112.846411 
L 241.255475 112.846411 
L 242.226042 109.642172 
L 247.564158 109.642172 
L 248.049442 108.040053 
L 248.534725 108.040053 
L 249.020008 106.437934 
L 250.475858 106.437934 
L 250.961141 104.835815 
L 257.755108 104.835815 
L 258.240391 103.233695 
L 261.152091 103.233695 
L 261.637375 101.631576 
L 264.063791 101.631576 
L 265.034358 98.427338 
L 267.460775 98.427338 
L 268.431341 95.223099 
L 271.343041 95.223099 
L 272.313608 92.018861 
L 278.137008 92.018861 
L 278.622291 90.416742 
L 280.563424 90.416742 
L 281.533991 87.212503 
L 282.504558 87.212503 
L 282.989841 85.610384 
L 284.445691 85.610384 
L 284.930974 84.008265 
L 285.901541 84.008265 
L 286.386824 82.406146 
L 287.357391 82.406146 
L 287.842674 79.201907 
L 288.327958 79.201907 
L 288.813241 77.599788 
L 294.151358 77.599788 
L 294.636641 75.997669 
L 298.518907 75.997669 
L 299.004191 74.39555 
L 304.342307 74.39555 
L 305.798157 69.589192 
L 307.254007 69.589192 
L 307.739291 67.987073 
L 311.621557 67.987073 
L 312.106841 66.384954 
L 313.562691 66.384954 
L 314.047974 64.782834 
L 322.29779 64.782834 
L 322.783074 63.180715 
L 327.150624 63.180715 
L 327.635907 61.578596 
L 338.31214 61.578596 
L 338.797424 59.976477 
L 359.179323 59.976477 
L 359.664607 58.374358 
L 368.399706 58.374358 
L 368.88499 56.772238 
L 383.928773 56.772238 
L 384.414056 55.170119 
L 398.001989 55.170119 
L 398.487273 53.568 
L 398.487273 53.568 
" clip-path="url(#p02957a7102)" style="fill: none; stroke-dasharray: 1.85,0.8; stroke-dashoffset: 0; stroke: #008000; stroke-width: 0.5"/>
   </g>
   <g id="line2d_17">
    <path d="M 73.832727 295.488 
L 74.318011 205.00611 
L 74.803294 205.00611 
L 75.288577 204.053669 
L 80.141411 204.053669 
L 80.626694 203.101228 
L 81.59726 203.101228 
L 82.082544 200.243906 
L 83.05311 200.243906 
L 84.023677 198.339024 
L 84.50896 198.339024 
L 84.994244 196.434142 
L 87.42066 196.434142 
L 87.905944 195.481701 
L 88.391227 195.481701 
L 88.87651 194.52926 
L 89.361794 194.52926 
L 89.847077 193.576819 
L 90.33236 193.576819 
L 90.817644 192.624378 
L 91.78821 192.624378 
L 92.758777 190.719496 
L 94.214627 190.719496 
L 95.185194 188.814614 
L 96.15576 188.814614 
L 96.641044 187.862173 
L 98.096894 187.862173 
L 98.582177 186.909732 
L 100.52331 186.909732 
L 101.008594 185.957291 
L 102.464444 185.957291 
L 103.43501 184.052409 
L 104.89086 184.052409 
L 105.861427 182.147528 
L 106.831993 182.147528 
L 107.80256 180.242646 
L 108.287843 180.242646 
L 108.773127 179.290205 
L 109.743693 179.290205 
L 110.228977 178.337764 
L 110.71426 178.337764 
L 111.199543 177.385323 
L 114.111243 177.385323 
L 115.567093 174.528 
L 116.052377 174.528 
L 116.53766 173.575559 
L 117.022943 173.575559 
L 117.508227 172.623118 
L 118.964077 172.623118 
L 119.44936 170.718236 
L 119.934643 169.765795 
L 121.390493 169.765795 
L 121.875777 168.813354 
L 123.81691 168.813354 
L 124.302193 167.860913 
L 126.243327 167.860913 
L 126.72861 166.908472 
L 128.669743 166.908472 
L 129.155026 165.956031 
L 130.610876 165.956031 
L 131.09616 165.003591 
L 132.066726 165.003591 
L 132.55201 164.05115 
L 133.522576 164.05115 
L 134.00786 163.098709 
L 134.493143 163.098709 
L 134.978426 162.146268 
L 135.948993 162.146268 
L 136.434276 161.193827 
L 140.316543 161.193827 
L 140.801826 160.241386 
L 141.28711 160.241386 
L 141.772393 159.288945 
L 143.713526 159.288945 
L 144.19881 157.384063 
L 146.139943 157.384063 
L 148.56636 152.621858 
L 149.051643 152.621858 
L 150.02221 150.716976 
L 150.992776 150.716976 
L 151.963343 148.812094 
L 154.389759 148.812094 
L 154.875043 147.859654 
L 155.845609 147.859654 
L 156.330893 145.954772 
L 158.757309 145.954772 
L 159.727876 144.04989 
L 162.639576 144.04989 
L 163.124859 142.145008 
L 165.065993 142.145008 
L 165.551276 141.192567 
L 166.036559 141.192567 
L 166.521843 140.240126 
L 167.007126 140.240126 
L 167.492409 139.287685 
L 167.977693 139.287685 
L 168.462976 138.335244 
L 168.948259 138.335244 
L 169.433543 137.382803 
L 169.918826 137.382803 
L 170.404109 136.430362 
L 171.374676 136.430362 
L 171.859959 135.477921 
L 172.830526 135.477921 
L 173.801093 133.573039 
L 175.256943 133.573039 
L 175.742226 132.620598 
L 177.683359 132.620598 
L 178.168642 130.715717 
L 179.139209 130.715717 
L 179.624492 129.763276 
L 180.109776 129.763276 
L 180.595059 128.810835 
L 181.080342 126.905953 
L 181.565626 126.905953 
L 182.536192 125.001071 
L 183.021476 125.001071 
L 183.506759 124.04863 
L 184.962609 124.04863 
L 185.447892 123.096189 
L 185.933176 121.191307 
L 187.874309 121.191307 
L 188.359592 120.238866 
L 188.844876 120.238866 
L 189.330159 118.333984 
L 190.300726 118.333984 
L 190.786009 117.381543 
L 191.271292 115.476661 
L 195.638842 115.476661 
L 196.124126 114.52422 
L 198.065259 114.52422 
L 198.550542 113.57178 
L 201.462242 113.57178 
L 201.947525 112.619339 
L 202.432809 112.619339 
L 202.918092 111.666898 
L 204.373942 111.666898 
L 204.859225 110.714457 
L 205.829792 110.714457 
L 206.315075 109.762016 
L 206.800359 109.762016 
L 207.285642 108.809575 
L 210.197342 108.809575 
L 210.682625 107.857134 
L 216.020742 107.857134 
L 216.506025 106.904693 
L 222.329425 106.904693 
L 223.299992 104.999811 
L 227.182258 104.999811 
L 227.667542 104.04737 
L 228.638108 104.04737 
L 229.123392 103.094929 
L 229.608675 103.094929 
L 230.579242 101.190047 
L 233.976225 101.190047 
L 234.461508 100.237606 
L 235.917358 100.237606 
L 236.402642 98.332724 
L 240.284908 98.332724 
L 240.770192 97.380283 
L 241.740758 97.380283 
L 242.226042 96.427843 
L 242.711325 96.427843 
L 243.196608 95.475402 
L 245.623025 95.475402 
L 246.108308 94.522961 
L 246.593592 94.522961 
L 247.078875 92.618079 
L 247.564158 91.665638 
L 249.505291 91.665638 
L 250.475858 89.760756 
L 257.269825 89.760756 
L 257.755108 88.808315 
L 259.210958 88.808315 
L 259.696241 87.855874 
L 261.637375 87.855874 
L 262.122658 85.950992 
L 266.004925 85.950992 
L 266.490208 84.998551 
L 267.946058 84.998551 
L 268.431341 84.04611 
L 269.887191 84.04611 
L 271.343041 81.188787 
L 275.225308 81.188787 
L 275.710591 80.236346 
L 276.195874 80.236346 
L 276.681158 79.283906 
L 281.533991 79.283906 
L 282.019274 78.331465 
L 284.930974 78.331465 
L 286.386824 75.474142 
L 288.813241 75.474142 
L 289.298524 74.521701 
L 289.783808 74.521701 
L 290.754374 72.616819 
L 292.210224 72.616819 
L 292.695508 71.664378 
L 293.180791 71.664378 
L 293.666074 70.711937 
L 294.151358 70.711937 
L 294.636641 68.807055 
L 297.548341 68.807055 
L 298.033624 67.854614 
L 312.106841 67.854614 
L 312.592124 66.902173 
L 315.018541 66.902173 
L 315.503824 65.949732 
L 316.474391 65.949732 
L 316.959674 64.997291 
L 318.900807 64.997291 
L 319.386091 64.04485 
L 322.29779 64.04485 
L 323.268357 62.139969 
L 326.180057 62.139969 
L 326.66534 61.187528 
L 332.974024 61.187528 
L 333.459307 60.235087 
L 344.13554 60.235087 
L 344.620823 59.282646 
L 352.385357 59.282646 
L 352.87064 58.330205 
L 355.78234 58.330205 
L 356.267623 57.377764 
L 357.23819 57.377764 
L 357.723473 56.425323 
L 360.635173 56.425323 
L 361.120457 55.472882 
L 381.017073 55.472882 
L 381.502356 54.520441 
L 393.634439 54.520441 
L 394.119723 53.568 
L 398.487273 53.568 
L 398.487273 53.568 
" clip-path="url(#p02957a7102)" style="fill: none; stroke-dasharray: 1.85,0.8; stroke-dashoffset: 0; stroke: #0000ff; stroke-width: 0.5"/>
   </g>
   <g id="line2d_18">
    <path d="M 73.832727 295.488 
L 74.318011 111.896538 
L 74.803294 111.896538 
L 75.288577 110.940332 
L 75.773861 110.940332 
L 76.259144 109.984126 
L 76.744427 109.984126 
L 78.200277 107.11551 
L 78.685561 107.11551 
L 79.170844 106.159304 
L 85.96481 106.159304 
L 87.42066 103.290688 
L 90.33236 103.290688 
L 90.817644 102.334482 
L 96.15576 102.334482 
L 96.641044 101.378277 
L 98.096894 101.378277 
L 99.06746 99.465866 
L 99.552744 97.553455 
L 100.038027 97.553455 
L 100.52331 96.597249 
L 101.008594 96.597249 
L 101.493877 94.684838 
L 101.97916 91.816221 
L 103.43501 88.947605 
L 107.317277 88.947605 
L 107.80256 87.035194 
L 109.25841 87.035194 
L 110.228977 83.210372 
L 110.71426 80.341755 
L 111.199543 79.385549 
L 111.684827 79.385549 
L 112.17011 78.429344 
L 113.62596 78.429344 
L 114.111243 76.516933 
L 116.53766 76.516933 
L 117.508227 74.604522 
L 117.99351 74.604522 
L 118.478793 72.692111 
L 118.964077 72.692111 
L 119.934643 70.7797 
L 121.390493 70.7797 
L 121.875777 69.823494 
L 122.36106 69.823494 
L 123.331627 67.911083 
L 134.493143 67.911083 
L 134.978426 66.954877 
L 136.434276 66.954877 
L 136.91956 65.042466 
L 137.404843 65.042466 
L 137.890126 64.086261 
L 148.081076 64.086261 
L 149.051643 62.17385 
L 149.536926 62.17385 
L 150.02221 61.217644 
L 163.124859 61.217644 
L 164.095426 59.305233 
L 164.580709 59.305233 
L 165.065993 58.349028 
L 173.315809 58.349028 
L 173.801093 57.392822 
L 181.565626 57.392822 
L 182.050909 56.436617 
L 186.418459 56.436617 
L 186.903742 55.480411 
L 200.006392 55.480411 
L 200.491675 54.524206 
L 229.608675 54.524206 
L 230.093958 53.568 
L 398.487273 53.568 
L 398.487273 53.568 
" clip-path="url(#p02957a7102)" style="fill: none; stroke-dasharray: 1.85,0.8; stroke-dashoffset: 0; stroke: #bf00bf; stroke-width: 0.5"/>
   </g>
   <g id="line2d_19">
    <path d="M 73.832727 295.488 
L 74.318011 210.179368 
L 77.714994 210.179368 
L 78.200277 208.906105 
L 81.59726 208.906105 
L 82.082544 207.632842 
L 82.567827 207.632842 
L 83.05311 206.359579 
L 88.391227 206.359579 
L 88.87651 205.086316 
L 89.361794 205.086316 
L 89.847077 203.813053 
L 93.729344 203.813053 
L 94.214627 202.539789 
L 95.185194 202.539789 
L 95.670477 201.266526 
L 96.15576 201.266526 
L 97.126327 198.72 
L 99.06746 198.72 
L 99.552744 197.446737 
L 100.52331 197.446737 
L 101.008594 194.900211 
L 102.949727 194.900211 
L 103.920294 192.353684 
L 104.405577 192.353684 
L 105.376143 189.807158 
L 106.831993 189.807158 
L 107.317277 188.533895 
L 108.287843 188.533895 
L 108.773127 187.260632 
L 109.25841 184.714105 
L 110.71426 184.714105 
L 111.199543 183.440842 
L 112.655393 183.440842 
L 113.140677 182.167579 
L 115.08181 182.167579 
L 116.052377 179.621053 
L 117.508227 179.621053 
L 117.99351 178.347789 
L 118.478793 178.347789 
L 118.964077 177.074526 
L 121.875777 177.074526 
L 122.846343 174.528 
L 124.787477 174.528 
L 125.27276 173.254737 
L 128.18446 173.254737 
L 128.669743 171.981474 
L 133.037293 171.981474 
L 133.522576 170.708211 
L 134.00786 168.161684 
L 134.493143 168.161684 
L 134.978426 166.888421 
L 139.345976 166.888421 
L 140.316543 164.341895 
L 142.257676 164.341895 
L 142.74296 163.068632 
L 143.713526 163.068632 
L 144.19881 161.795368 
L 145.65466 161.795368 
L 146.139943 160.522105 
L 146.625226 157.975579 
L 147.11051 157.975579 
L 147.595793 155.429053 
L 148.081076 154.155789 
L 149.051643 154.155789 
L 149.536926 152.882526 
L 150.992776 152.882526 
L 151.963343 150.336 
L 153.904476 150.336 
L 154.875043 147.789474 
L 158.272026 147.789474 
L 158.757309 145.242947 
L 163.124859 145.242947 
L 163.610143 143.969684 
L 164.580709 143.969684 
L 165.065993 142.696421 
L 165.551276 142.696421 
L 166.036559 141.423158 
L 168.462976 141.423158 
L 169.918826 137.603368 
L 170.889393 137.603368 
L 171.374676 135.056842 
L 171.859959 133.783579 
L 177.198076 133.783579 
L 177.683359 132.510316 
L 178.168642 132.510316 
L 178.653926 131.237053 
L 179.624492 131.237053 
L 180.595059 128.690526 
L 182.536192 128.690526 
L 183.506759 126.144 
L 188.844876 126.144 
L 189.330159 124.870737 
L 190.300726 124.870737 
L 190.786009 123.597474 
L 192.241859 123.597474 
L 193.212426 121.050947 
L 194.182992 121.050947 
L 194.668276 119.777684 
L 197.094692 119.777684 
L 197.579976 118.504421 
L 203.403375 118.504421 
L 203.888659 117.231158 
L 205.344509 117.231158 
L 205.829792 115.957895 
L 211.167909 115.957895 
L 211.653192 114.684632 
L 212.623759 114.684632 
L 213.594325 112.138105 
L 215.535459 112.138105 
L 216.020742 110.864842 
L 223.785275 110.864842 
L 224.270558 109.591579 
L 227.182258 109.591579 
L 227.667542 108.318316 
L 231.064525 108.318316 
L 231.549808 107.045053 
L 232.035092 107.045053 
L 232.520375 105.771789 
L 233.490942 105.771789 
L 233.976225 104.498526 
L 234.946792 104.498526 
L 236.402642 100.678737 
L 236.887925 100.678737 
L 237.858492 98.132211 
L 243.196608 98.132211 
L 243.681892 96.858947 
L 245.137742 96.858947 
L 245.623025 95.585684 
L 246.108308 95.585684 
L 247.078875 93.039158 
L 250.961141 93.039158 
L 251.446425 90.492632 
L 252.416991 90.492632 
L 252.902275 89.219368 
L 254.843408 89.219368 
L 255.328691 87.946105 
L 256.784541 87.946105 
L 257.269825 86.672842 
L 259.210958 86.672842 
L 259.696241 85.399579 
L 265.519641 85.399579 
L 266.004925 84.126316 
L 271.343041 84.126316 
L 271.828325 82.853053 
L 275.225308 82.853053 
L 275.710591 81.579789 
L 276.195874 81.579789 
L 276.681158 80.306526 
L 279.107574 80.306526 
L 280.078141 77.76 
L 281.048708 77.76 
L 281.533991 76.486737 
L 283.960408 76.486737 
L 284.445691 75.213474 
L 285.416258 75.213474 
L 285.901541 73.940211 
L 286.386824 71.393684 
L 287.357391 71.393684 
L 287.842674 70.120421 
L 288.327958 70.120421 
L 288.813241 68.847158 
L 292.695508 68.847158 
L 293.666074 66.300632 
L 302.401174 66.300632 
L 302.886457 65.027368 
L 304.342307 65.027368 
L 304.827591 63.754105 
L 309.195141 63.754105 
L 309.680424 62.480842 
L 318.415524 62.480842 
L 318.900807 61.207579 
L 321.812507 61.207579 
L 322.29779 59.934316 
L 322.783074 59.934316 
L 323.268357 58.661053 
L 329.091757 58.661053 
L 329.57704 56.114526 
L 364.032157 56.114526 
L 364.51744 54.841263 
L 374.223106 54.841263 
L 374.70839 53.568 
L 398.487273 53.568 
L 398.487273 53.568 
" clip-path="url(#p02957a7102)" style="fill: none; stroke-dasharray: 1.85,0.8; stroke-dashoffset: 0; stroke: #bfbf00; stroke-width: 0.5"/>
   </g>
   <g id="line2d_20">
    <path d="M 73.832727 295.488 
L 74.318011 212.725895 
L 76.259144 212.725895 
L 76.744427 211.134316 
L 86.450094 211.134316 
L 87.42066 207.951158 
L 88.391227 207.951158 
L 88.87651 206.359579 
L 90.817644 206.359579 
L 91.302927 204.768 
L 95.185194 204.768 
L 96.15576 198.401684 
L 97.126327 195.218526 
L 97.61161 195.218526 
L 98.096894 193.626947 
L 99.552744 193.626947 
L 100.038027 192.035368 
L 100.52331 192.035368 
L 101.493877 188.852211 
L 102.464444 182.485895 
L 102.949727 180.894316 
L 103.43501 180.894316 
L 105.376143 174.528 
L 107.317277 174.528 
L 107.80256 172.936421 
L 108.773127 172.936421 
L 109.25841 171.344842 
L 111.199543 171.344842 
L 111.684827 169.753263 
L 112.17011 166.570105 
L 112.655393 166.570105 
L 113.62596 163.386947 
L 114.111243 163.386947 
L 114.596527 161.795368 
L 116.052377 161.795368 
L 116.53766 160.203789 
L 121.390493 160.203789 
L 121.875777 158.612211 
L 123.331627 158.612211 
L 123.81691 157.020632 
L 124.302193 152.245895 
L 132.55201 152.245895 
L 133.037293 150.654316 
L 137.890126 150.654316 
L 138.37541 149.062737 
L 139.345976 149.062737 
L 140.316543 145.879579 
L 141.28711 145.879579 
L 141.772393 144.288 
L 153.904476 144.288 
L 154.389759 142.696421 
L 154.875043 142.696421 
L 155.360326 141.104842 
L 162.154293 141.104842 
L 162.639576 139.513263 
L 163.124859 139.513263 
L 163.610143 137.921684 
L 165.551276 137.921684 
L 166.036559 136.330105 
L 180.595059 136.330105 
L 181.080342 134.738526 
L 184.477326 134.738526 
L 184.962609 133.146947 
L 186.418459 133.146947 
L 186.903742 131.555368 
L 191.271292 131.555368 
L 191.756576 128.372211 
L 199.521109 128.372211 
L 200.006392 125.189053 
L 200.491675 123.597474 
L 205.344509 123.597474 
L 205.829792 122.005895 
L 206.315075 122.005895 
L 206.800359 120.414316 
L 207.770925 120.414316 
L 208.256209 118.822737 
L 208.741492 118.822737 
L 209.226775 117.231158 
L 209.712059 114.048 
L 213.594325 114.048 
L 214.079609 112.456421 
L 215.535459 112.456421 
L 216.506025 109.273263 
L 220.388292 109.273263 
L 220.873575 107.681684 
L 224.270558 107.681684 
L 224.755842 106.090105 
L 225.726408 106.090105 
L 226.211692 104.498526 
L 228.152825 104.498526 
L 228.638108 101.315368 
L 236.887925 101.315368 
L 237.373208 99.723789 
L 238.343775 99.723789 
L 238.829058 98.132211 
L 240.770192 98.132211 
L 241.255475 96.540632 
L 243.681892 96.540632 
L 244.652458 93.357474 
L 245.137742 93.357474 
L 245.623025 91.765895 
L 248.534725 91.765895 
L 249.020008 90.174316 
L 255.813975 90.174316 
L 256.299258 86.991158 
L 256.784541 86.991158 
L 257.269825 85.399579 
L 263.578508 85.399579 
L 264.063791 83.808 
L 265.034358 83.808 
L 265.519641 82.216421 
L 268.916625 82.216421 
L 269.401908 80.624842 
L 269.887191 80.624842 
L 270.372475 79.033263 
L 277.651724 79.033263 
L 278.137008 77.441684 
L 281.048708 77.441684 
L 281.533991 75.850105 
L 282.019274 75.850105 
L 282.504558 74.258526 
L 282.989841 71.075368 
L 283.475124 71.075368 
L 283.960408 69.483789 
L 284.445691 69.483789 
L 284.930974 67.892211 
L 288.327958 67.892211 
L 288.813241 66.300632 
L 291.239658 66.300632 
L 291.724941 64.709053 
L 292.210224 64.709053 
L 292.695508 63.117474 
L 300.945324 63.117474 
L 301.430607 61.525895 
L 304.342307 61.525895 
L 304.827591 59.934316 
L 315.018541 59.934316 
L 315.989107 56.751158 
L 319.386091 56.751158 
L 319.871374 55.159579 
L 328.12119 55.159579 
L 328.606474 53.568 
L 398.487273 53.568 
L 398.487273 53.568 
" clip-path="url(#p02957a7102)" style="fill: none; stroke-dasharray: 1.85,0.8; stroke-dashoffset: 0; stroke: #000000; stroke-width: 0.5"/>
   </g>
   <g id="patch_3">
    <path d="M 57.6 307.584 
L 57.6 41.472 
" style="fill: none; stroke: #000000; stroke-width: 0.8; stroke-linejoin: miter; stroke-linecap: square"/>
   </g>
   <g id="patch_4">
    <path d="M 414.72 307.584 
L 414.72 41.472 
" style="fill: none; stroke: #000000; stroke-width: 0.8; stroke-linejoin: miter; stroke-linecap: square"/>
   </g>
   <g id="patch_5">
    <path d="M 57.6 307.584 
L 414.72 307.584 
" style="fill: none; stroke: #000000; stroke-width: 0.8; stroke-linejoin: miter; stroke-linecap: square"/>
   </g>
   <g id="patch_6">
    <path d="M 57.6 41.472 
L 414.72 41.472 
" style="fill: none; stroke: #000000; stroke-width: 0.8; stroke-linejoin: miter; stroke-linecap: square"/>
   </g>
   <g id="text_17">
    <!-- count=1000, googlenet=150, resnet50=187, squeezenetv1=112, vgg19=112, yolov2=187 -->
    <g transform="translate(-3.84 35.472) scale(0.12 -0.12)">
     <defs>
      <path id="FangSong-6f" d="M 2875 1400 
Q 2875 775 2500 362 
Q 2125 -50 1575 -50 
Q 1000 -50 637 375 
Q 275 800 275 1400 
Q 275 1950 637 2400 
Q 1000 2850 1575 2850 
Q 2175 2850 2525 2400 
Q 2875 1950 2875 1400 
z
M 675 1375 
Q 675 725 937 412 
Q 1200 100 1575 100 
Q 2000 100 2237 437 
Q 2475 775 2475 1375 
Q 2475 2025 2212 2362 
Q 1950 2700 1575 2700 
Q 1225 2700 950 2362 
Q 675 2025 675 1375 
z
" transform="scale(0.015625)"/>
      <path id="FangSong-75" d="M 1425 225 
Q 1725 225 1937 375 
Q 2150 525 2250 850 
L 2250 2425 
Q 2250 2525 2200 2587 
Q 2150 2650 2025 2650 
L 1875 2650 
L 1875 2800 
L 2025 2800 
Q 2175 2800 2300 2825 
Q 2425 2850 2550 2950 
L 2600 2950 
L 2600 500 
Q 2600 400 2662 350 
Q 2725 300 2825 300 
L 2975 300 
L 2975 150 
L 2825 150 
Q 2700 150 2575 112 
Q 2450 75 2300 0 
L 2250 0 
L 2250 525 
Q 2125 250 1875 112 
Q 1625 -25 1300 -25 
Q 900 -25 700 200 
Q 500 425 500 925 
L 500 2425 
Q 500 2525 450 2587 
Q 400 2650 275 2650 
L 125 2650 
L 125 2800 
L 275 2800 
Q 425 2800 550 2825 
Q 675 2850 800 2950 
L 850 2950 
L 850 875 
Q 850 525 1000 375 
Q 1150 225 1425 225 
z
" transform="scale(0.015625)"/>
      <path id="FangSong-3d" d="M 175 2725 
L 175 2950 
L 2950 2950 
L 2950 2725 
L 175 2725 
z
M 175 1450 
L 175 1675 
L 2950 1675 
L 2950 1450 
L 175 1450 
z
" transform="scale(0.015625)"/>
      <path id="FangSong-2c" d="M 1325 75 
Q 1200 25 1100 75 
Q 1000 125 962 237 
Q 925 350 925 437 
Q 925 525 987 612 
Q 1050 700 1150 737 
Q 1250 775 1425 725 
Q 1600 675 1650 500 
Q 1700 325 1662 150 
Q 1625 -25 1525 -200 
Q 1425 -375 1312 -475 
Q 1200 -575 1025 -675 
L 950 -575 
Q 1100 -450 1187 -312 
Q 1275 -175 1325 75 
z
" transform="scale(0.015625)"/>
      <path id="FangSong-20" transform="scale(0.015625)"/>
      <path id="FangSong-67" d="M 850 1875 
Q 850 1575 1025 1362 
Q 1200 1150 1500 1150 
Q 1825 1150 1987 1337 
Q 2150 1525 2150 1875 
Q 2150 2300 1962 2487 
Q 1775 2675 1500 2675 
Q 1225 2675 1037 2487 
Q 850 2300 850 1875 
z
M 2075 525 
Q 2450 475 2625 312 
Q 2800 150 2800 -125 
Q 2800 -500 2487 -725 
Q 2175 -950 1500 -950 
Q 975 -950 650 -737 
Q 325 -525 325 -250 
Q 325 -75 450 100 
Q 575 275 850 375 
Q 700 450 612 537 
Q 525 625 525 750 
Q 525 900 625 1012 
Q 725 1125 875 1200 
Q 725 1325 612 1500 
Q 500 1675 500 1875 
Q 500 2250 762 2537 
Q 1025 2825 1500 2825 
Q 1700 2825 1887 2775 
Q 2075 2725 2200 2600 
Q 2375 2725 2512 2787 
Q 2650 2850 2750 2850 
Q 2875 2850 2925 2762 
Q 2975 2675 2975 2600 
Q 2975 2500 2937 2437 
Q 2900 2375 2800 2375 
Q 2725 2375 2675 2412 
Q 2625 2450 2600 2525 
Q 2575 2600 2487 2587 
Q 2400 2575 2300 2500 
Q 2400 2400 2450 2225 
Q 2500 2050 2500 1875 
Q 2500 1575 2262 1287 
Q 2025 1000 1500 1000 
Q 1350 1000 1225 1037 
Q 1100 1075 1025 1125 
Q 925 1075 875 1000 
Q 825 925 825 875 
Q 825 775 875 725 
Q 925 675 1025 675 
Q 1350 625 1612 587 
Q 1875 550 2075 525 
z
M 1050 325 
Q 825 225 737 87 
Q 650 -50 650 -250 
Q 650 -450 875 -625 
Q 1100 -800 1550 -800 
Q 1975 -800 2225 -662 
Q 2475 -525 2475 -250 
Q 2475 -75 2412 25 
Q 2350 125 2225 150 
Q 1975 200 1675 237 
Q 1375 275 1050 325 
z
" transform="scale(0.015625)"/>
      <path id="FangSong-6c" d="M 900 4275 
Q 1125 4275 1325 4325 
Q 1525 4375 1700 4475 
L 1750 4475 
L 1750 350 
Q 1750 250 1812 200 
Q 1875 150 1975 150 
L 2550 150 
L 2550 0 
L 600 0 
L 600 150 
L 1175 150 
Q 1300 150 1350 200 
Q 1400 250 1400 350 
L 1400 3925 
Q 1400 4025 1350 4075 
Q 1300 4125 1175 4125 
L 625 4125 
L 625 4275 
L 900 4275 
z
" transform="scale(0.015625)"/>
      <path id="FangSong-72" d="M 1250 2025 
Q 1500 2425 1787 2637 
Q 2075 2850 2375 2850 
Q 2625 2850 2762 2737 
Q 2900 2625 2900 2475 
Q 2900 2350 2837 2275 
Q 2775 2200 2650 2200 
Q 2525 2200 2462 2275 
Q 2400 2350 2425 2475 
Q 2425 2550 2400 2600 
Q 2375 2650 2250 2650 
Q 2050 2650 1762 2400 
Q 1475 2150 1250 1700 
L 1250 350 
Q 1250 250 1312 200 
Q 1375 150 1475 150 
L 2025 150 
L 2025 0 
L 175 0 
L 175 150 
L 675 150 
Q 800 150 850 200 
Q 900 250 900 350 
L 900 2425 
Q 900 2525 850 2587 
Q 800 2650 675 2650 
L 200 2650 
L 200 2800 
L 400 2800 
Q 575 2800 812 2837 
Q 1050 2875 1175 2925 
L 1250 2925 
L 1250 2025 
z
" transform="scale(0.015625)"/>
      <path id="FangSong-73" d="M 600 2075 
Q 600 2450 887 2650 
Q 1175 2850 1575 2850 
Q 1800 2850 2000 2787 
Q 2200 2725 2275 2725 
Q 2350 2725 2400 2750 
Q 2450 2775 2525 2850 
L 2625 2025 
L 2475 2000 
Q 2375 2325 2137 2512 
Q 1900 2700 1600 2700 
Q 1275 2700 1087 2575 
Q 900 2450 900 2225 
Q 900 2025 987 1912 
Q 1075 1800 1300 1750 
Q 1475 1675 1737 1587 
Q 2000 1500 2225 1400 
Q 2425 1300 2562 1137 
Q 2700 975 2700 775 
Q 2700 400 2437 187 
Q 2175 -25 1675 -25 
Q 1350 -25 1187 37 
Q 1025 100 925 100 
Q 850 100 762 62 
Q 675 25 575 -25 
L 500 900 
L 650 925 
Q 725 525 975 325 
Q 1225 125 1675 125 
Q 2025 125 2212 250 
Q 2400 375 2400 625 
Q 2400 800 2300 912 
Q 2200 1025 2100 1075 
Q 1850 1175 1550 1287 
Q 1250 1400 1025 1500 
Q 800 1600 700 1750 
Q 600 1900 600 2075 
z
" transform="scale(0.015625)"/>
      <path id="FangSong-71" d="M 2250 2150 
Q 2150 2375 1975 2512 
Q 1800 2650 1550 2650 
Q 1200 2650 950 2350 
Q 700 2050 700 1325 
Q 700 700 912 437 
Q 1125 175 1450 175 
Q 1725 175 1937 300 
Q 2150 425 2250 725 
L 2250 2150 
z
M 2600 -550 
Q 2600 -675 2662 -725 
Q 2725 -775 2825 -775 
L 2975 -775 
L 2975 -925 
L 1825 -925 
L 1825 -775 
L 2025 -775 
Q 2150 -775 2200 -725 
Q 2250 -675 2250 -550 
L 2250 375 
Q 2100 175 1887 75 
Q 1675 -25 1375 -25 
Q 950 -25 625 337 
Q 300 700 300 1400 
Q 300 2075 675 2450 
Q 1050 2825 1475 2825 
Q 1750 2825 1937 2725 
Q 2125 2625 2275 2475 
L 2500 2800 
L 2600 2800 
L 2600 -550 
z
" transform="scale(0.015625)"/>
      <path id="FangSong-7a" d="M 2725 975 
L 2550 0 
L 400 0 
L 400 125 
L 2125 2650 
L 1200 2650 
Q 975 2650 825 2487 
Q 675 2325 575 1925 
L 425 1950 
L 525 2800 
L 2575 2800 
L 2575 2725 
L 825 150 
L 1775 150 
Q 2100 150 2287 350 
Q 2475 550 2575 1000 
L 2725 975 
z
" transform="scale(0.015625)"/>
      <path id="FangSong-76" d="M 1600 -25 
L 1450 -25 
L 600 2425 
Q 575 2525 500 2587 
Q 425 2650 325 2650 
L 200 2650 
L 200 2800 
L 1275 2800 
L 1275 2650 
L 1175 2650 
Q 1025 2650 987 2575 
Q 950 2500 1000 2325 
L 1600 575 
L 1650 575 
L 2250 2300 
Q 2325 2475 2262 2562 
Q 2200 2650 2050 2650 
L 2000 2650 
L 2000 2800 
L 2900 2800 
L 2900 2650 
L 2850 2650 
Q 2700 2650 2612 2562 
Q 2525 2475 2450 2300 
L 1600 -25 
z
" transform="scale(0.015625)"/>
      <path id="FangSong-39" d="M 675 2950 
Q 675 2400 887 2112 
Q 1100 1825 1425 1825 
Q 1800 1825 2075 2175 
Q 2350 2525 2350 2825 
Q 2350 3425 2150 3787 
Q 1950 4150 1500 4150 
Q 1075 4150 875 3812 
Q 675 3475 675 2950 
z
M 1350 1600 
Q 850 1600 550 1912 
Q 250 2225 250 2925 
Q 250 3525 575 3925 
Q 900 4325 1500 4325 
Q 2125 4325 2475 3825 
Q 2825 3325 2825 2375 
Q 2825 1325 2412 637 
Q 2000 -50 1275 -50 
Q 950 -50 712 100 
Q 475 250 475 500 
Q 475 600 537 700 
Q 600 800 750 800 
Q 900 800 950 687 
Q 1000 575 1000 425 
Q 1000 325 1025 262 
Q 1050 200 1075 175 
Q 1100 150 1162 137 
Q 1225 125 1300 125 
Q 1750 125 2025 625 
Q 2300 1125 2350 2300 
Q 2225 2000 1975 1800 
Q 1725 1600 1350 1600 
z
" transform="scale(0.015625)"/>
     </defs>
     <use xlink:href="#FangSong-63"/>
     <use xlink:href="#FangSong-6f" x="50"/>
     <use xlink:href="#FangSong-75" x="100"/>
     <use xlink:href="#FangSong-6e" x="150"/>
     <use xlink:href="#FangSong-74" x="200"/>
     <use xlink:href="#FangSong-3d" x="250"/>
     <use xlink:href="#FangSong-31" x="300"/>
     <use xlink:href="#FangSong-30" x="350"/>
     <use xlink:href="#FangSong-30" x="400"/>
     <use xlink:href="#FangSong-30" x="450"/>
     <use xlink:href="#FangSong-2c" x="500"/>
     <use xlink:href="#FangSong-20" x="550"/>
     <use xlink:href="#FangSong-67" x="600"/>
     <use xlink:href="#FangSong-6f" x="650"/>
     <use xlink:href="#FangSong-6f" x="700"/>
     <use xlink:href="#FangSong-67" x="750"/>
     <use xlink:href="#FangSong-6c" x="800"/>
     <use xlink:href="#FangSong-65" x="850"/>
     <use xlink:href="#FangSong-6e" x="900"/>
     <use xlink:href="#FangSong-65" x="950"/>
     <use xlink:href="#FangSong-74" x="1000"/>
     <use xlink:href="#FangSong-3d" x="1050"/>
     <use xlink:href="#FangSong-31" x="1100"/>
     <use xlink:href="#FangSong-35" x="1150"/>
     <use xlink:href="#FangSong-30" x="1200"/>
     <use xlink:href="#FangSong-2c" x="1250"/>
     <use xlink:href="#FangSong-20" x="1300"/>
     <use xlink:href="#FangSong-72" x="1350"/>
     <use xlink:href="#FangSong-65" x="1400"/>
     <use xlink:href="#FangSong-73" x="1450"/>
     <use xlink:href="#FangSong-6e" x="1500"/>
     <use xlink:href="#FangSong-65" x="1550"/>
     <use xlink:href="#FangSong-74" x="1600"/>
     <use xlink:href="#FangSong-35" x="1650"/>
     <use xlink:href="#FangSong-30" x="1700"/>
     <use xlink:href="#FangSong-3d" x="1750"/>
     <use xlink:href="#FangSong-31" x="1800"/>
     <use xlink:href="#FangSong-38" x="1850"/>
     <use xlink:href="#FangSong-37" x="1900"/>
     <use xlink:href="#FangSong-2c" x="1950"/>
     <use xlink:href="#FangSong-20" x="2000"/>
     <use xlink:href="#FangSong-73" x="2050"/>
     <use xlink:href="#FangSong-71" x="2100"/>
     <use xlink:href="#FangSong-75" x="2150"/>
     <use xlink:href="#FangSong-65" x="2200"/>
     <use xlink:href="#FangSong-65" x="2250"/>
     <use xlink:href="#FangSong-7a" x="2300"/>
     <use xlink:href="#FangSong-65" x="2350"/>
     <use xlink:href="#FangSong-6e" x="2400"/>
     <use xlink:href="#FangSong-65" x="2450"/>
     <use xlink:href="#FangSong-74" x="2500"/>
     <use xlink:href="#FangSong-76" x="2550"/>
     <use xlink:href="#FangSong-31" x="2600"/>
     <use xlink:href="#FangSong-3d" x="2650"/>
     <use xlink:href="#FangSong-31" x="2700"/>
     <use xlink:href="#FangSong-31" x="2750"/>
     <use xlink:href="#FangSong-32" x="2800"/>
     <use xlink:href="#FangSong-2c" x="2850"/>
     <use xlink:href="#FangSong-20" x="2900"/>
     <use xlink:href="#FangSong-76" x="2950"/>
     <use xlink:href="#FangSong-67" x="3000"/>
     <use xlink:href="#FangSong-67" x="3050"/>
     <use xlink:href="#FangSong-31" x="3100"/>
     <use xlink:href="#FangSong-39" x="3150"/>
     <use xlink:href="#FangSong-3d" x="3200"/>
     <use xlink:href="#FangSong-31" x="3250"/>
     <use xlink:href="#FangSong-31" x="3300"/>
     <use xlink:href="#FangSong-32" x="3350"/>
     <use xlink:href="#FangSong-2c" x="3400"/>
     <use xlink:href="#FangSong-20" x="3450"/>
     <use xlink:href="#FangSong-79" x="3500"/>
     <use xlink:href="#FangSong-6f" x="3550"/>
     <use xlink:href="#FangSong-6c" x="3600"/>
     <use xlink:href="#FangSong-6f" x="3650"/>
     <use xlink:href="#FangSong-76" x="3700"/>
     <use xlink:href="#FangSong-32" x="3750"/>
     <use xlink:href="#FangSong-3d" x="3800"/>
     <use xlink:href="#FangSong-31" x="3850"/>
     <use xlink:href="#FangSong-38" x="3900"/>
     <use xlink:href="#FangSong-37" x="3950"/>
    </g>
   </g>
   <g id="legend_1">
    <g id="patch_7">
     <path d="M 315.72 302.584 
L 407.72 302.584 
Q 409.72 302.584 409.72 300.584 
L 409.72 220.794937 
Q 409.72 218.794937 407.72 218.794937 
L 315.72 218.794937 
Q 313.72 218.794937 313.72 220.794937 
L 313.72 300.584 
Q 313.72 302.584 315.72 302.584 
z
" style="fill: #ffffff; opacity: 0.8; stroke: #cccccc; stroke-linejoin: miter"/>
    </g>
    <g id="line2d_21">
     <path d="M 317.72 226.294937 
L 327.72 226.294937 
L 337.72 226.294937 
" style="fill: none; stroke: #ff0000; stroke-linecap: square"/>
    </g>
    <g id="text_18">
     <!-- total -->
     <g transform="translate(345.72 229.794937) scale(0.1 -0.1)">
      <use xlink:href="#FangSong-74"/>
      <use xlink:href="#FangSong-6f" x="50"/>
      <use xlink:href="#FangSong-74" x="100"/>
      <use xlink:href="#FangSong-61" x="150"/>
      <use xlink:href="#FangSong-6c" x="200"/>
     </g>
    </g>
    <g id="line2d_22">
     <path d="M 317.72 239.74025 
L 327.72 239.74025 
L 337.72 239.74025 
" style="fill: none; stroke-dasharray: 1.85,0.8; stroke-dashoffset: 0; stroke: #008000; stroke-width: 0.5"/>
    </g>
    <g id="text_19">
     <!-- yolov2 -->
     <g transform="translate(345.72 243.24025) scale(0.1 -0.1)">
      <use xlink:href="#FangSong-79"/>
      <use xlink:href="#FangSong-6f" x="50"/>
      <use xlink:href="#FangSong-6c" x="100"/>
      <use xlink:href="#FangSong-6f" x="150"/>
      <use xlink:href="#FangSong-76" x="200"/>
      <use xlink:href="#FangSong-32" x="250"/>
     </g>
    </g>
    <g id="line2d_23">
     <path d="M 317.72 253.224625 
L 327.72 253.224625 
L 337.72 253.224625 
" style="fill: none; stroke-dasharray: 1.85,0.8; stroke-dashoffset: 0; stroke: #0000ff; stroke-width: 0.5"/>
    </g>
    <g id="text_20">
     <!-- squeezenetv1 -->
     <g transform="translate(345.72 256.724625) scale(0.1 -0.1)">
      <use xlink:href="#FangSong-73"/>
      <use xlink:href="#FangSong-71" x="50"/>
      <use xlink:href="#FangSong-75" x="100"/>
      <use xlink:href="#FangSong-65" x="150"/>
      <use xlink:href="#FangSong-65" x="200"/>
      <use xlink:href="#FangSong-7a" x="250"/>
      <use xlink:href="#FangSong-65" x="300"/>
      <use xlink:href="#FangSong-6e" x="350"/>
      <use xlink:href="#FangSong-65" x="400"/>
      <use xlink:href="#FangSong-74" x="450"/>
      <use xlink:href="#FangSong-76" x="500"/>
      <use xlink:href="#FangSong-31" x="550"/>
     </g>
    </g>
    <g id="line2d_24">
     <path d="M 317.72 266.669937 
L 327.72 266.669937 
L 337.72 266.669937 
" style="fill: none; stroke-dasharray: 1.85,0.8; stroke-dashoffset: 0; stroke: #bf00bf; stroke-width: 0.5"/>
    </g>
    <g id="text_21">
     <!-- vgg19 -->
     <g transform="translate(345.72 270.169937) scale(0.1 -0.1)">
      <use xlink:href="#FangSong-76"/>
      <use xlink:href="#FangSong-67" x="50"/>
      <use xlink:href="#FangSong-67" x="100"/>
      <use xlink:href="#FangSong-31" x="150"/>
      <use xlink:href="#FangSong-39" x="200"/>
     </g>
    </g>
    <g id="line2d_25">
     <path d="M 317.72 280.154312 
L 327.72 280.154312 
L 337.72 280.154312 
" style="fill: none; stroke-dasharray: 1.85,0.8; stroke-dashoffset: 0; stroke: #bfbf00; stroke-width: 0.5"/>
    </g>
    <g id="text_22">
     <!-- googlenet -->
     <g transform="translate(345.72 283.654312) scale(0.1 -0.1)">
      <use xlink:href="#FangSong-67"/>
      <use xlink:href="#FangSong-6f" x="50"/>
      <use xlink:href="#FangSong-6f" x="100"/>
      <use xlink:href="#FangSong-67" x="150"/>
      <use xlink:href="#FangSong-6c" x="200"/>
      <use xlink:href="#FangSong-65" x="250"/>
      <use xlink:href="#FangSong-6e" x="300"/>
      <use xlink:href="#FangSong-65" x="350"/>
      <use xlink:href="#FangSong-74" x="400"/>
     </g>
    </g>
    <g id="line2d_26">
     <path d="M 317.72 293.638687 
L 327.72 293.638687 
L 337.72 293.638687 
" style="fill: none; stroke-dasharray: 1.85,0.8; stroke-dashoffset: 0; stroke: #000000; stroke-width: 0.5"/>
    </g>
    <g id="text_23">
     <!-- resnet50 -->
     <g transform="translate(345.72 297.138687) scale(0.1 -0.1)">
      <use xlink:href="#FangSong-72"/>
      <use xlink:href="#FangSong-65" x="50"/>
      <use xlink:href="#FangSong-73" x="100"/>
      <use xlink:href="#FangSong-6e" x="150"/>
      <use xlink:href="#FangSong-65" x="200"/>
      <use xlink:href="#FangSong-74" x="250"/>
      <use xlink:href="#FangSong-35" x="300"/>
      <use xlink:href="#FangSong-30" x="350"/>
     </g>
    </g>
   </g>
  </g>
 </g>
 <defs>
  <clipPath id="p02957a7102">
   <rect x="57.6" y="41.472" width="357.12" height="266.112"/>
  </clipPath>
 </defs>
</svg>
