<?xml version="1.0" encoding="utf-8" standalone="no"?>
<!DOCTYPE svg PUBLIC "-//W3C//DTD SVG 1.1//EN"
  "http://www.w3.org/Graphics/SVG/1.1/DTD/svg11.dtd">
<svg xmlns:xlink="http://www.w3.org/1999/xlink" width="460.8pt" height="345.6pt" viewBox="0 0 460.8 345.6" xmlns="http://www.w3.org/2000/svg" version="1.1">
 <metadata>
  <rdf:RDF xmlns:dc="http://purl.org/dc/elements/1.1/" xmlns:cc="http://creativecommons.org/ns#" xmlns:rdf="http://www.w3.org/1999/02/22-rdf-syntax-ns#">
   <cc:Work>
    <dc:type rdf:resource="http://purl.org/dc/dcmitype/StillImage"/>
    <dc:date>2023-01-19T17:24:42.565810</dc:date>
    <dc:format>image/svg+xml</dc:format>
    <dc:creator>
     <cc:Agent>
      <dc:title>Matplotlib v3.6.3, https://matplotlib.org/</dc:title>
     </cc:Agent>
    </dc:creator>
   </cc:Work>
  </rdf:RDF>
 </metadata>
 <defs>
  <style type="text/css">*{stroke-linejoin: round; stroke-linecap: butt}</style>
 </defs>
 <g id="figure_1">
  <g id="patch_1">
   <path d="M 0 345.6 
L 460.8 345.6 
L 460.8 0 
L 0 0 
z
" style="fill: #ffffff"/>
  </g>
  <g id="axes_1">
   <g id="patch_2">
    <path d="M 57.6 307.584 
L 414.72 307.584 
L 414.72 41.472 
L 57.6 41.472 
z
" style="fill: #ffffff"/>
   </g>
   <g id="matplotlib.axis_1">
    <g id="xtick_1">
     <g id="line2d_1">
      <defs>
       <path id="m742ca4e57c" d="M 0 0 
L 0 3.5 
" style="stroke: #000000; stroke-width: 0.8"/>
      </defs>
      <g>
       <use xlink:href="#m742ca4e57c" x="70.533392" y="307.584" style="stroke: #000000; stroke-width: 0.8"/>
      </g>
     </g>
     <g id="text_1">
      <!-- 0 -->
      <g transform="translate(68.033392 321.576187) scale(0.1 -0.1)">
       <defs>
        <path id="FangSong-30" d="M 1575 4125 
Q 1225 4125 987 3587 
Q 750 3050 750 2150 
Q 750 1200 987 675 
Q 1225 150 1575 150 
Q 1950 150 2162 675 
Q 2375 1200 2375 2150 
Q 2375 3050 2175 3587 
Q 1975 4125 1575 4125 
z
M 1575 -50 
Q 1025 -50 650 525 
Q 275 1100 275 2150 
Q 275 3125 637 3725 
Q 1000 4325 1575 4325 
Q 2125 4325 2487 3750 
Q 2850 3175 2850 2150 
Q 2850 1125 2487 537 
Q 2125 -50 1575 -50 
z
" transform="scale(0.015625)"/>
       </defs>
       <use xlink:href="#FangSong-30"/>
      </g>
     </g>
    </g>
    <g id="xtick_2">
     <g id="line2d_2">
      <g>
       <use xlink:href="#m742ca4e57c" x="136.520089" y="307.584" style="stroke: #000000; stroke-width: 0.8"/>
      </g>
     </g>
     <g id="text_2">
      <!-- 20 -->
      <g transform="translate(131.520089 321.576187) scale(0.1 -0.1)">
       <defs>
        <path id="FangSong-32" d="M 2300 3225 
Q 2300 3675 2100 3912 
Q 1900 4150 1500 4150 
Q 1200 4150 987 3987 
Q 775 3825 775 3575 
Q 775 3425 862 3325 
Q 950 3225 950 3125 
Q 950 3000 887 2937 
Q 825 2875 700 2875 
Q 550 2875 462 2962 
Q 375 3050 375 3250 
Q 375 3775 750 4050 
Q 1125 4325 1550 4325 
Q 2150 4325 2437 4025 
Q 2725 3725 2725 3275 
Q 2725 2975 2587 2675 
Q 2450 2375 2150 2100 
Q 1425 1400 1037 962 
Q 650 525 575 375 
L 2050 375 
Q 2275 375 2425 550 
Q 2575 725 2625 1075 
L 2775 1075 
L 2625 0 
L 300 0 
L 300 325 
Q 425 550 712 900 
Q 1000 1250 1475 1725 
Q 1900 2150 2100 2525 
Q 2300 2900 2300 3225 
z
" transform="scale(0.015625)"/>
       </defs>
       <use xlink:href="#FangSong-32"/>
       <use xlink:href="#FangSong-30" x="50"/>
      </g>
     </g>
    </g>
    <g id="xtick_3">
     <g id="line2d_3">
      <g>
       <use xlink:href="#m742ca4e57c" x="202.506785" y="307.584" style="stroke: #000000; stroke-width: 0.8"/>
      </g>
     </g>
     <g id="text_3">
      <!-- 40 -->
      <g transform="translate(197.506785 321.576187) scale(0.1 -0.1)">
       <defs>
        <path id="FangSong-34" d="M 2275 475 
Q 2275 300 2375 225 
Q 2475 150 2650 150 
L 2875 150 
L 2875 0 
L 1225 0 
L 1225 150 
L 1500 150 
Q 1700 150 1787 225 
Q 1875 300 1875 475 
L 1875 1300 
L 200 1300 
L 200 1425 
L 2025 4325 
L 2275 4325 
L 2275 1450 
L 2950 1450 
L 2950 1300 
L 2275 1300 
L 2275 475 
z
M 1850 3700 
L 425 1450 
L 1875 1450 
L 1875 3700 
L 1850 3700 
z
" transform="scale(0.015625)"/>
       </defs>
       <use xlink:href="#FangSong-34"/>
       <use xlink:href="#FangSong-30" x="50"/>
      </g>
     </g>
    </g>
    <g id="xtick_4">
     <g id="line2d_4">
      <g>
       <use xlink:href="#m742ca4e57c" x="268.493481" y="307.584" style="stroke: #000000; stroke-width: 0.8"/>
      </g>
     </g>
     <g id="text_4">
      <!-- 60 -->
      <g transform="translate(263.493481 321.576187) scale(0.1 -0.1)">
       <defs>
        <path id="FangSong-36" d="M 750 1700 
Q 750 950 1012 537 
Q 1275 125 1650 125 
Q 2025 125 2225 400 
Q 2425 675 2425 1425 
Q 2425 1925 2212 2200 
Q 2000 2475 1700 2475 
Q 1425 2475 1187 2312 
Q 950 2150 750 1700 
z
M 1725 2725 
Q 2325 2725 2587 2325 
Q 2850 1925 2850 1425 
Q 2850 675 2487 312 
Q 2125 -50 1650 -50 
Q 975 -50 625 462 
Q 275 975 275 1950 
Q 275 3100 700 3712 
Q 1125 4325 1850 4325 
Q 2200 4325 2412 4125 
Q 2625 3925 2625 3775 
Q 2625 3625 2562 3550 
Q 2500 3475 2350 3475 
Q 2225 3475 2162 3537 
Q 2100 3600 2100 3725 
Q 2100 3775 2112 3825 
Q 2125 3875 2125 3925 
Q 2125 4025 2050 4087 
Q 1975 4150 1775 4150 
Q 1350 4150 1050 3762 
Q 750 3375 750 2075 
Q 900 2400 1162 2562 
Q 1425 2725 1725 2725 
z
" transform="scale(0.015625)"/>
       </defs>
       <use xlink:href="#FangSong-36"/>
       <use xlink:href="#FangSong-30" x="50"/>
      </g>
     </g>
    </g>
    <g id="xtick_5">
     <g id="line2d_5">
      <g>
       <use xlink:href="#m742ca4e57c" x="334.480177" y="307.584" style="stroke: #000000; stroke-width: 0.8"/>
      </g>
     </g>
     <g id="text_5">
      <!-- 80 -->
      <g transform="translate(329.480177 321.576187) scale(0.1 -0.1)">
       <defs>
        <path id="FangSong-38" d="M 600 1025 
Q 600 625 862 375 
Q 1125 125 1525 125 
Q 2000 125 2212 375 
Q 2425 625 2425 1000 
Q 2425 1325 2125 1625 
Q 1825 1925 1225 2175 
Q 925 1975 762 1675 
Q 600 1375 600 1025 
z
M 2800 1075 
Q 2800 600 2450 275 
Q 2100 -50 1525 -50 
Q 1000 -50 625 275 
Q 250 600 250 1025 
Q 250 1450 462 1750 
Q 675 2050 1075 2275 
Q 725 2450 537 2712 
Q 350 2975 350 3300 
Q 350 3725 675 4025 
Q 1000 4325 1575 4325 
Q 2100 4325 2425 4025 
Q 2750 3725 2750 3300 
Q 2750 3000 2562 2737 
Q 2375 2475 1975 2275 
Q 2400 2025 2600 1725 
Q 2800 1425 2800 1075 
z
M 2400 3275 
Q 2400 3625 2200 3887 
Q 2000 4150 1575 4150 
Q 1100 4150 900 3900 
Q 700 3650 700 3375 
Q 700 3100 987 2837 
Q 1275 2575 1800 2375 
Q 2100 2525 2250 2750 
Q 2400 2975 2400 3275 
z
" transform="scale(0.015625)"/>
       </defs>
       <use xlink:href="#FangSong-38"/>
       <use xlink:href="#FangSong-30" x="50"/>
      </g>
     </g>
    </g>
    <g id="xtick_6">
     <g id="line2d_6">
      <g>
       <use xlink:href="#m742ca4e57c" x="400.466874" y="307.584" style="stroke: #000000; stroke-width: 0.8"/>
      </g>
     </g>
     <g id="text_6">
      <!-- 100 -->
      <g transform="translate(392.966874 321.576187) scale(0.1 -0.1)">
       <defs>
        <path id="FangSong-31" d="M 1800 4350 
L 1800 550 
Q 1800 350 1925 250 
Q 2050 150 2275 150 
L 2525 150 
L 2525 0 
L 700 0 
L 700 150 
L 925 150 
Q 1175 150 1287 250 
Q 1400 350 1400 550 
L 1400 3575 
Q 1400 3675 1337 3737 
Q 1275 3800 1150 3800 
L 700 3800 
L 700 3950 
L 925 3950 
Q 1225 3950 1412 4050 
Q 1600 4150 1700 4350 
L 1800 4350 
z
" transform="scale(0.015625)"/>
       </defs>
       <use xlink:href="#FangSong-31"/>
       <use xlink:href="#FangSong-30" x="50"/>
       <use xlink:href="#FangSong-30" x="100"/>
      </g>
     </g>
    </g>
    <g id="text_7">
     <!-- Latency -->
     <g transform="translate(218.66 333.974625) scale(0.1 -0.1)">
      <defs>
       <path id="FangSong-4c" d="M 975 350 
Q 975 250 1037 200 
Q 1100 150 1200 150 
L 1875 150 
Q 2225 150 2475 362 
Q 2725 575 2850 1025 
L 2975 975 
L 2750 0 
L 175 0 
L 175 150 
L 350 150 
Q 475 150 525 200 
Q 575 250 575 350 
L 575 3925 
Q 575 4025 525 4075 
Q 475 4125 350 4125 
L 200 4125 
L 200 4275 
L 1375 4275 
L 1375 4125 
L 1200 4125 
Q 1100 4125 1037 4075 
Q 975 4025 975 3925 
L 975 350 
z
" transform="scale(0.015625)"/>
       <path id="FangSong-61" d="M 1200 -25 
Q 750 -25 500 187 
Q 250 400 250 675 
Q 250 1125 637 1412 
Q 1025 1700 2175 1825 
L 2175 2125 
Q 2175 2375 2062 2537 
Q 1950 2700 1550 2700 
Q 1125 2700 950 2562 
Q 775 2425 825 2275 
Q 875 2175 825 2075 
Q 775 1975 625 1975 
Q 525 1975 462 2037 
Q 400 2100 400 2225 
Q 400 2450 725 2650 
Q 1050 2850 1525 2850 
Q 2025 2850 2275 2662 
Q 2525 2475 2525 2125 
L 2525 475 
Q 2525 275 2562 237 
Q 2600 200 2700 200 
Q 2825 200 2875 312 
Q 2925 425 2925 625 
L 3050 625 
Q 3050 275 2925 137 
Q 2800 0 2600 0 
Q 2425 0 2325 75 
Q 2225 150 2175 325 
Q 1925 150 1712 62 
Q 1500 -25 1200 -25 
z
M 675 750 
Q 675 525 812 337 
Q 950 150 1250 150 
Q 1475 150 1700 237 
Q 1925 325 2175 500 
L 2175 1675 
Q 1325 1575 1000 1337 
Q 675 1100 675 750 
z
" transform="scale(0.015625)"/>
       <path id="FangSong-74" d="M 1475 800 
Q 1475 450 1600 325 
Q 1725 200 1975 200 
Q 2225 200 2375 362 
Q 2525 525 2575 825 
L 2700 775 
Q 2650 425 2437 200 
Q 2225 -25 1875 -25 
Q 1500 -25 1312 200 
Q 1125 425 1125 900 
L 1125 2650 
L 375 2650 
L 375 2800 
L 575 2800 
Q 875 2800 1062 2987 
Q 1250 3175 1300 3575 
L 1325 3775 
L 1475 3775 
L 1475 2800 
L 2475 2800 
L 2475 2650 
L 1475 2650 
L 1475 800 
z
" transform="scale(0.015625)"/>
       <path id="FangSong-65" d="M 2375 1550 
Q 2400 2100 2187 2387 
Q 1975 2675 1625 2675 
Q 1250 2675 1012 2375 
Q 775 2075 775 1550 
L 2375 1550 
z
M 775 1400 
Q 775 725 1037 437 
Q 1300 150 1725 150 
Q 2050 150 2275 337 
Q 2500 525 2600 800 
L 2725 750 
Q 2650 475 2387 212 
Q 2125 -50 1675 -50 
Q 1100 -50 737 325 
Q 375 700 375 1400 
Q 375 2025 737 2437 
Q 1100 2850 1625 2850 
Q 2100 2850 2450 2525 
Q 2800 2200 2800 1400 
L 775 1400 
z
" transform="scale(0.015625)"/>
       <path id="FangSong-6e" d="M 175 0 
L 175 150 
L 300 150 
Q 425 150 475 200 
Q 525 250 525 350 
L 525 2500 
Q 525 2575 500 2612 
Q 475 2650 400 2650 
L 200 2650 
L 200 2800 
L 375 2800 
Q 500 2800 612 2825 
Q 725 2850 825 2925 
L 875 2925 
L 875 2350 
Q 1100 2600 1325 2725 
Q 1550 2850 1800 2850 
Q 2225 2850 2425 2625 
Q 2625 2400 2625 1950 
L 2625 350 
Q 2625 250 2687 200 
Q 2750 150 2850 150 
L 2975 150 
L 2975 0 
L 1925 0 
L 1925 150 
L 2050 150 
Q 2175 150 2225 200 
Q 2275 250 2275 350 
L 2275 2025 
Q 2275 2325 2150 2487 
Q 2025 2650 1775 2650 
Q 1550 2650 1312 2500 
Q 1075 2350 875 2075 
L 875 350 
Q 875 250 937 200 
Q 1000 150 1100 150 
L 1225 150 
L 1225 0 
L 175 0 
z
" transform="scale(0.015625)"/>
       <path id="FangSong-63" d="M 2125 2125 
Q 2125 2200 2137 2225 
Q 2150 2250 2175 2325 
Q 2200 2425 2075 2562 
Q 1950 2700 1650 2700 
Q 1275 2700 1012 2337 
Q 750 1975 750 1375 
Q 750 825 975 487 
Q 1200 150 1725 150 
Q 2075 150 2312 375 
Q 2550 600 2650 900 
L 2775 850 
Q 2675 475 2400 212 
Q 2125 -50 1650 -50 
Q 1050 -50 700 325 
Q 350 700 350 1400 
Q 350 2025 725 2437 
Q 1100 2850 1700 2850 
Q 2125 2850 2362 2625 
Q 2600 2400 2600 2175 
Q 2600 2025 2537 1962 
Q 2475 1900 2350 1900 
Q 2250 1900 2187 1962 
Q 2125 2025 2125 2125 
z
" transform="scale(0.015625)"/>
       <path id="FangSong-79" d="M 1625 700 
L 1675 700 
L 2225 2375 
Q 2275 2500 2212 2575 
Q 2150 2650 2050 2650 
L 1900 2650 
L 1900 2800 
L 2950 2800 
L 2950 2650 
L 2800 2650 
Q 2700 2650 2600 2575 
Q 2500 2500 2450 2375 
L 1600 -100 
Q 1475 -500 1287 -712 
Q 1100 -925 800 -950 
Q 650 -950 537 -875 
Q 425 -800 425 -675 
Q 425 -575 487 -500 
Q 550 -425 675 -425 
Q 775 -425 837 -525 
Q 900 -625 1050 -587 
Q 1200 -550 1250 -425 
Q 1300 -350 1375 -162 
Q 1450 25 1500 225 
L 650 2425 
Q 625 2525 537 2587 
Q 450 2650 350 2650 
L 250 2650 
L 250 2800 
L 1300 2800 
L 1300 2650 
L 1200 2650 
Q 1100 2650 1050 2587 
Q 1000 2525 1025 2400 
L 1625 700 
z
" transform="scale(0.015625)"/>
      </defs>
      <use xlink:href="#FangSong-4c"/>
      <use xlink:href="#FangSong-61" x="50"/>
      <use xlink:href="#FangSong-74" x="100"/>
      <use xlink:href="#FangSong-65" x="150"/>
      <use xlink:href="#FangSong-6e" x="200"/>
      <use xlink:href="#FangSong-63" x="250"/>
      <use xlink:href="#FangSong-79" x="300"/>
     </g>
    </g>
   </g>
   <g id="matplotlib.axis_2">
    <g id="ytick_1">
     <g id="line2d_7">
      <defs>
       <path id="m126b2b4973" d="M 0 0 
L -3.5 0 
" style="stroke: #000000; stroke-width: 0.8"/>
      </defs>
      <g>
       <use xlink:href="#m126b2b4973" x="57.6" y="295.488" style="stroke: #000000; stroke-width: 0.8"/>
      </g>
     </g>
     <g id="text_8">
      <!-- 0% -->
      <g transform="translate(40.6 298.984094) scale(0.1 -0.1)">
       <defs>
        <path id="FangSong-25" d="M 725 4150 
Q 575 4150 475 3950 
Q 375 3750 375 3200 
Q 375 2575 487 2387 
Q 600 2200 725 2200 
Q 900 2200 987 2425 
Q 1075 2650 1075 3200 
Q 1075 3650 1012 3900 
Q 950 4150 725 4150 
z
M 1400 3175 
Q 1400 2725 1250 2387 
Q 1100 2050 725 2050 
Q 425 2050 237 2350 
Q 50 2650 50 3175 
Q 50 3725 250 4025 
Q 450 4325 725 4325 
Q 1025 4325 1212 4012 
Q 1400 3700 1400 3175 
z
M 2700 1100 
Q 2700 1525 2625 1800 
Q 2550 2075 2350 2075 
Q 2200 2075 2100 1837 
Q 2000 1600 2000 1100 
Q 2000 475 2112 300 
Q 2225 125 2350 125 
Q 2525 125 2612 337 
Q 2700 550 2700 1100 
z
M 3025 1075 
Q 3025 575 2850 262 
Q 2675 -50 2350 -50 
Q 2075 -50 1875 262 
Q 1675 575 1675 1075 
Q 1675 1625 1875 1937 
Q 2075 2250 2350 2250 
Q 2650 2250 2837 1925 
Q 3025 1600 3025 1075 
z
M 2500 4250 
L 700 -50 
L 550 25 
L 2325 4325 
L 2500 4250 
z
" transform="scale(0.015625)"/>
       </defs>
       <use xlink:href="#FangSong-30"/>
       <use xlink:href="#FangSong-25" x="50"/>
      </g>
     </g>
    </g>
    <g id="ytick_2">
     <g id="line2d_8">
      <g>
       <use xlink:href="#m126b2b4973" x="57.6" y="247.104" style="stroke: #000000; stroke-width: 0.8"/>
      </g>
     </g>
     <g id="text_9">
      <!-- 20% -->
      <g transform="translate(35.6 250.600094) scale(0.1 -0.1)">
       <use xlink:href="#FangSong-32"/>
       <use xlink:href="#FangSong-30" x="50"/>
       <use xlink:href="#FangSong-25" x="100"/>
      </g>
     </g>
    </g>
    <g id="ytick_3">
     <g id="line2d_9">
      <g>
       <use xlink:href="#m126b2b4973" x="57.6" y="198.72" style="stroke: #000000; stroke-width: 0.8"/>
      </g>
     </g>
     <g id="text_10">
      <!-- 40% -->
      <g transform="translate(35.6 202.216094) scale(0.1 -0.1)">
       <use xlink:href="#FangSong-34"/>
       <use xlink:href="#FangSong-30" x="50"/>
       <use xlink:href="#FangSong-25" x="100"/>
      </g>
     </g>
    </g>
    <g id="ytick_4">
     <g id="line2d_10">
      <g>
       <use xlink:href="#m126b2b4973" x="57.6" y="150.336" style="stroke: #000000; stroke-width: 0.8"/>
      </g>
     </g>
     <g id="text_11">
      <!-- 60% -->
      <g transform="translate(35.6 153.832094) scale(0.1 -0.1)">
       <use xlink:href="#FangSong-36"/>
       <use xlink:href="#FangSong-30" x="50"/>
       <use xlink:href="#FangSong-25" x="100"/>
      </g>
     </g>
    </g>
    <g id="ytick_5">
     <g id="line2d_11">
      <g>
       <use xlink:href="#m126b2b4973" x="57.6" y="101.952" style="stroke: #000000; stroke-width: 0.8"/>
      </g>
     </g>
     <g id="text_12">
      <!-- 80% -->
      <g transform="translate(35.6 105.448094) scale(0.1 -0.1)">
       <use xlink:href="#FangSong-38"/>
       <use xlink:href="#FangSong-30" x="50"/>
       <use xlink:href="#FangSong-25" x="100"/>
      </g>
     </g>
    </g>
    <g id="ytick_6">
     <g id="line2d_12">
      <g>
       <use xlink:href="#m126b2b4973" x="57.6" y="53.568" style="stroke: #000000; stroke-width: 0.8"/>
      </g>
     </g>
     <g id="text_13">
      <!-- 100% -->
      <g transform="translate(30.6 57.064094) scale(0.1 -0.1)">
       <use xlink:href="#FangSong-31"/>
       <use xlink:href="#FangSong-30" x="50"/>
       <use xlink:href="#FangSong-30" x="100"/>
       <use xlink:href="#FangSong-25" x="150"/>
      </g>
     </g>
    </g>
    <g id="text_14">
     <!-- 累计完成比例 -->
     <g transform="translate(25.154688 204.528) rotate(-90) scale(0.1 -0.1)">
      <defs>
       <path id="FangSong-7d2f" d="M 4525 4975 
L 4700 5225 
L 5000 4950 
L 4825 4775 
L 4625 3550 
L 4850 3300 
L 3175 3150 
L 3375 2975 
Q 3200 2925 2862 2725 
Q 2525 2525 2075 2275 
L 3475 2500 
Q 3750 2675 3900 2800 
Q 4050 2925 4100 3075 
L 4175 3100 
L 4325 2700 
Q 4200 2675 3500 2237 
Q 2800 1800 2275 1550 
L 4375 1825 
L 3900 2175 
L 4000 2275 
Q 4625 1900 4950 1725 
Q 4975 1475 4925 1225 
Q 4800 1375 4500 1675 
L 3250 1475 
L 3525 1300 
Q 3375 1200 3375 875 
L 3375 25 
Q 3375 -325 3225 -625 
Q 2975 -325 2400 150 
L 2450 250 
L 3050 -75 
Q 3150 -125 3150 0 
L 3150 925 
Q 3150 1300 3125 1450 
Q 1875 1275 1575 1175 
L 1325 1425 
L 1850 1550 
Q 2175 1700 3250 2300 
Q 2075 2100 1875 2000 
L 1575 2250 
L 1800 2300 
Q 2150 2475 3025 3125 
L 2000 3025 
Q 2000 2675 1950 2700 
Q 1900 2725 1650 3025 
Q 1725 3250 1725 3425 
L 1650 4400 
Q 1625 4675 1525 4950 
L 1625 5000 
L 1875 4675 
L 4525 4975 
z
M 3150 3375 
L 3150 3875 
Q 2525 3800 2400 3725 
L 2100 3975 
Q 2500 3975 3150 4075 
L 3150 4600 
L 1900 4450 
L 1975 3250 
L 3150 3375 
z
M 3375 4100 
Q 3950 4175 4025 4225 
L 4275 4000 
Q 3950 3975 3375 3900 
L 3375 3400 
L 4400 3500 
L 4575 4750 
L 3375 4600 
L 3375 4100 
z
M 5450 -75 
Q 4975 325 3875 1025 
L 3950 1125 
Q 4850 700 5350 500 
Q 5425 250 5450 -75 
z
M 800 -250 
Q 1350 75 1825 500 
Q 2300 925 2325 1125 
L 2400 1150 
L 2550 725 
Q 2425 700 2075 425 
Q 1725 150 875 -350 
L 800 -250 
z
" transform="scale(0.015625)"/>
       <path id="FangSong-8ba1" d="M 4075 4200 
Q 4100 4825 3900 5100 
L 3975 5150 
L 4450 4725 
Q 4275 4600 4300 4200 
L 4275 3000 
Q 5525 3200 5575 3250 
L 5950 2950 
Q 5725 2975 4275 2800 
L 4250 -425 
Q 4250 -700 4150 -575 
L 3875 -150 
Q 4050 50 4025 300 
L 4050 2750 
Q 2975 2625 2900 2575 
L 2525 2825 
Q 2850 2825 4050 2975 
L 4075 4200 
z
M 1775 3250 
L 2100 2950 
L 1900 2750 
L 1875 550 
L 2825 1250 
L 2875 1175 
Q 1875 250 1750 -25 
L 1525 275 
Q 1625 375 1650 625 
L 1675 2775 
Q 900 2625 750 2550 
L 425 2800 
Q 850 2825 1650 3000 
L 1775 3250 
z
M 2025 3800 
Q 1825 4300 1325 4950 
L 1375 5025 
Q 1925 4575 2175 4300 
Q 2125 4000 2025 3800 
z
" transform="scale(0.015625)"/>
       <path id="FangSong-5b8c" d="M 5375 2050 
Q 4925 2050 3550 1950 
L 3850 1750 
Q 3725 1600 3700 1375 
L 3675 275 
Q 3650 -125 4075 -175 
L 4925 -175 
Q 5300 -150 5312 62 
Q 5325 275 5325 1025 
L 5425 1025 
Q 5450 750 5475 337 
Q 5500 -75 5700 -275 
Q 5400 -375 5000 -400 
L 4075 -400 
Q 3425 -350 3425 150 
L 3475 1450 
Q 3475 1775 3425 1925 
L 2675 1850 
L 2875 1650 
Q 2750 1550 2600 1200 
Q 2450 850 2025 312 
Q 1600 -225 600 -675 
L 550 -575 
Q 1525 -100 1987 625 
Q 2450 1350 2525 1850 
Q 1550 1775 1500 1725 
L 1150 2025 
Q 1625 2025 3212 2150 
Q 4800 2275 5000 2350 
L 5375 2050 
z
M 1650 3650 
Q 1550 3125 1325 2875 
L 1150 3250 
Q 1450 3425 1575 4400 
L 1675 4400 
L 1675 3900 
L 5025 4150 
L 5175 4400 
L 5525 4075 
Q 5375 4050 4725 3250 
L 4650 3325 
L 4975 3900 
L 1650 3650 
z
M 4475 2975 
Q 4225 2975 3412 2875 
Q 2600 2775 2400 2725 
L 2050 2975 
Q 2575 2975 3200 3075 
Q 3825 3175 4150 3225 
L 4475 2975 
z
M 3550 4575 
Q 3475 4350 3300 4150 
Q 3225 4475 2900 5200 
L 2975 5250 
Q 3350 4825 3550 4575 
z
" transform="scale(0.015625)"/>
       <path id="FangSong-6210" d="M 5575 975 
Q 5600 -150 5750 -625 
Q 4650 -225 4000 1075 
Q 3625 650 2975 225 
L 2925 325 
Q 3525 825 3900 1300 
Q 3600 2275 3500 3300 
L 1875 3125 
Q 1875 2625 1825 2100 
L 2725 2250 
L 2875 2475 
L 3175 2225 
L 3000 2050 
Q 2850 475 2575 -125 
Q 2225 400 1825 775 
L 1875 850 
L 2475 400 
Q 2650 875 2750 2000 
L 1825 1850 
Q 1675 250 600 -650 
L 525 -600 
Q 1250 250 1425 987 
Q 1600 1725 1625 2612 
Q 1650 3500 1550 3800 
L 1625 3825 
L 1850 3350 
L 3450 3525 
Q 3400 4150 3375 4562 
Q 3350 4975 3225 5200 
L 3275 5225 
L 3725 4900 
Q 3625 4925 3637 4575 
Q 3650 4225 3675 3550 
Q 4900 3700 5050 3775 
L 5325 3475 
Q 4775 3475 3725 3325 
Q 3775 2425 4075 1525 
Q 4500 2025 4687 2325 
Q 4875 2625 4800 2850 
L 4875 2875 
L 5125 2325 
Q 5075 2400 4850 2125 
Q 4625 1850 4150 1275 
Q 4625 225 5425 -125 
L 5475 975 
L 5575 975 
z
M 4100 5000 
Q 4525 4700 4875 4450 
Q 4825 4250 4750 4025 
Q 4400 4525 4025 4950 
L 4100 5000 
z
" transform="scale(0.015625)"/>
       <path id="FangSong-6bd4" d="M 3500 2125 
Q 3925 2425 4487 2975 
Q 5050 3525 4950 3750 
L 5025 3775 
L 5250 3225 
Q 5175 3250 4875 3000 
Q 4575 2750 4287 2525 
Q 4000 2300 3500 1900 
L 3500 575 
Q 3475 -100 4150 -100 
L 4800 -100 
Q 5275 -100 5375 12 
Q 5475 125 5450 1350 
L 5575 1350 
Q 5600 825 5637 412 
Q 5675 0 5800 -175 
Q 5375 -325 4800 -325 
L 4150 -325 
Q 3225 -350 3275 550 
L 3275 4300 
Q 3275 4875 3150 5150 
L 3200 5200 
L 3625 4850 
Q 3475 4825 3500 4250 
L 3500 2125 
z
M 1500 2575 
Q 1900 2625 2337 2712 
Q 2775 2800 2800 2850 
L 3075 2600 
Q 2875 2575 2350 2475 
Q 1825 2375 1775 2325 
L 1500 2525 
L 1500 150 
L 2925 1075 
L 2975 1025 
Q 1550 -75 1375 -350 
L 1200 0 
Q 1275 75 1275 350 
L 1275 3925 
Q 1275 4475 1150 4750 
L 1200 4800 
L 1625 4400 
Q 1475 4375 1500 3925 
L 1500 2575 
z
" transform="scale(0.015625)"/>
       <path id="FangSong-4f8b" d="M 3050 2000 
Q 3025 1800 2975 1600 
Q 2775 1900 2525 2250 
Q 2300 1875 2025 1550 
L 1925 1625 
Q 2675 2725 2975 3975 
Q 2475 3925 2375 3875 
L 2050 4125 
Q 2375 4125 3162 4225 
Q 3950 4325 4100 4450 
L 4350 4125 
Q 4050 4150 3100 3975 
L 3300 3700 
Q 3200 3675 3125 3525 
Q 3050 3375 2925 3050 
L 3625 3150 
L 3775 3350 
L 4050 3075 
L 3875 2900 
Q 3300 825 1850 -225 
L 1800 -100 
Q 3100 975 3625 2900 
Q 3150 2825 3025 2775 
L 2875 2925 
Q 2775 2675 2575 2350 
Q 2900 2125 3050 2000 
z
M 1275 -150 
Q 1425 25 1400 225 
L 1450 3425 
Q 1025 2800 475 2225 
L 400 2325 
Q 875 2850 1450 3887 
Q 2025 4925 1925 5150 
L 2000 5175 
L 2250 4700 
Q 2200 4725 2062 4475 
Q 1925 4225 1675 3800 
L 1625 -325 
Q 1650 -675 1525 -600 
L 1275 -150 
z
M 5475 250 
Q 5475 -300 5300 -650 
Q 4900 -100 4300 375 
L 4350 475 
L 5200 -75 
Q 5250 250 5250 575 
L 5250 4350 
Q 5275 4950 5100 5150 
L 5175 5225 
L 5600 4850 
Q 5450 4775 5475 4325 
L 5475 250 
z
M 4300 1525 
Q 4400 1650 4400 1900 
L 4400 3075 
Q 4425 3525 4300 3750 
L 4350 3800 
L 4725 3450 
Q 4600 3350 4625 3025 
L 4625 1375 
Q 4625 1050 4550 1125 
L 4300 1525 
z
" transform="scale(0.015625)"/>
      </defs>
      <use xlink:href="#FangSong-7d2f"/>
      <use xlink:href="#FangSong-8ba1" x="100"/>
      <use xlink:href="#FangSong-5b8c" x="200"/>
      <use xlink:href="#FangSong-6210" x="300"/>
      <use xlink:href="#FangSong-6bd4" x="400"/>
      <use xlink:href="#FangSong-4f8b" x="500"/>
     </g>
    </g>
   </g>
   <g id="line2d_13">
    <path d="M 73.832727 295.488 
L 74.162661 244.20096 
L 74.492594 243.71712 
L 75.152461 243.23328 
L 75.482395 242.50752 
L 76.472195 241.78176 
L 76.802129 241.29792 
L 77.132062 241.056 
L 78.451796 238.15296 
L 78.781729 238.15296 
L 79.111663 237.91104 
L 80.101463 236.45952 
L 80.76133 234.76608 
L 81.421197 233.7984 
L 81.751131 232.34688 
L 82.410998 230.89536 
L 82.740931 230.65344 
L 83.070865 229.68576 
L 83.730732 226.05696 
L 84.060665 225.81504 
L 84.390599 223.87968 
L 84.720532 222.912 
L 85.050466 222.42816 
L 85.380399 221.7024 
L 85.710333 220.25088 
L 86.040266 219.76704 
L 86.700133 217.58976 
L 87.030067 217.34784 
L 87.689933 215.89632 
L 88.019867 215.6544 
L 88.3498 215.17056 
L 88.679734 214.4448 
L 89.009667 214.20288 
L 89.339601 212.50944 
L 89.999468 211.54176 
L 90.659335 208.3968 
L 90.989268 207.91296 
L 91.319202 207.91296 
L 92.309002 205.25184 
L 92.638936 204.768 
L 93.628736 201.86496 
L 93.95867 200.41344 
L 94.288603 199.68768 
L 94.618537 199.68768 
L 94.94847 197.99424 
L 95.608337 196.3008 
L 95.938271 195.0912 
L 97.587938 185.89824 
L 97.917871 184.2048 
L 98.247805 184.2048 
L 98.577738 181.54368 
L 99.237605 179.12448 
L 99.567539 176.46336 
L 99.897472 175.97952 
L 101.217206 173.07648 
L 101.54714 171.86688 
L 102.53694 169.6896 
L 103.526741 166.30272 
L 103.856674 166.0608 
L 104.846475 162.432 
L 105.506341 160.98048 
L 105.836275 158.8032 
L 106.496142 157.10976 
L 107.156009 156.62592 
L 107.815876 154.93248 
L 108.145809 154.44864 
L 108.475743 153.23904 
L 108.805676 152.7552 
L 109.13561 151.78752 
L 109.465543 151.30368 
L 109.795477 151.30368 
L 111.115211 149.36832 
L 111.445144 149.1264 
L 114.084612 143.0784 
L 114.414545 142.11072 
L 114.744479 142.11072 
L 115.734279 140.6592 
L 116.064213 140.6592 
L 116.394146 140.41728 
L 116.72408 139.20768 
L 117.054013 138.72384 
L 117.383947 138.48192 
L 118.043814 136.30464 
L 118.373747 136.06272 
L 120.023415 133.64352 
L 120.683282 132.43392 
L 121.013215 132.192 
L 121.343149 131.22432 
L 121.673082 130.74048 
L 122.003016 130.74048 
L 122.992816 130.01472 
L 123.322749 128.07936 
L 123.982616 126.144 
L 124.972417 124.69248 
L 125.30235 123.7248 
L 125.632284 123.48288 
L 125.962217 122.75712 
L 126.292151 122.5152 
L 126.622084 121.54752 
L 126.952018 121.06368 
L 127.281951 120.82176 
L 127.611885 120.33792 
L 129.261552 116.95104 
L 129.591486 115.49952 
L 129.921419 114.77376 
L 130.251353 113.08032 
L 132.560887 108 
L 132.89082 106.7904 
L 133.220754 106.30656 
L 134.210554 103.1616 
L 134.540488 102.91968 
L 134.870421 102.19392 
L 135.200355 101.952 
L 135.860222 100.25856 
L 136.190155 100.25856 
L 136.850022 98.3232 
L 137.179956 98.3232 
L 137.509889 98.08128 
L 137.839823 97.59744 
L 138.169756 97.35552 
L 138.829623 95.66208 
L 139.159557 95.42016 
L 139.48949 94.6944 
L 139.819424 94.6944 
L 140.47929 94.21056 
L 141.139157 93.24288 
L 141.469091 93.00096 
L 141.799024 92.51712 
L 142.128958 92.2752 
L 142.458891 92.2752 
L 142.788825 91.79136 
L 143.118758 91.54944 
L 143.778625 90.58176 
L 144.438492 90.09792 
L 144.768426 90.09792 
L 145.098359 89.856 
L 145.758226 89.856 
L 146.418093 89.37216 
L 147.407894 89.37216 
L 147.737827 88.88832 
L 148.067761 88.88832 
L 148.397694 88.6464 
L 148.727627 88.16256 
L 149.057561 87.92064 
L 149.387494 87.4368 
L 149.717428 87.19488 
L 150.377295 86.2272 
L 151.367095 85.50144 
L 151.697029 85.50144 
L 152.356896 84.53376 
L 152.686829 84.53376 
L 153.016763 84.29184 
L 153.346696 83.56608 
L 153.67663 83.32416 
L 154.006563 82.84032 
L 154.66643 82.84032 
L 155.326297 82.35648 
L 155.656231 82.35648 
L 155.986164 82.11456 
L 156.975965 82.11456 
L 157.305898 81.87264 
L 157.965765 80.90496 
L 159.285499 79.93728 
L 159.615432 79.45344 
L 159.945366 79.45344 
L 160.275299 79.21152 
L 160.605233 78.72768 
L 160.935166 78.00192 
L 161.2651 78.00192 
L 161.595033 77.51808 
L 161.924967 77.27616 
L 162.584834 77.27616 
L 162.914767 77.03424 
L 163.244701 77.03424 
L 164.234501 76.30848 
L 165.554235 76.30848 
L 165.884169 75.82464 
L 166.544035 74.61504 
L 167.203902 74.61504 
L 167.533836 74.1312 
L 167.863769 73.88928 
L 168.193703 73.88928 
L 168.523636 73.64736 
L 169.84337 73.64736 
L 170.173304 73.40544 
L 170.833171 73.40544 
L 171.163104 73.16352 
L 172.482838 73.16352 
L 172.812772 72.9216 
L 173.142705 72.9216 
L 173.472639 72.67968 
L 173.802572 72.67968 
L 174.132506 72.19584 
L 174.462439 71.47008 
L 174.792373 71.47008 
L 175.122306 71.22816 
L 175.452239 71.22816 
L 175.782173 70.74432 
L 176.112106 70.5024 
L 176.44204 70.5024 
L 177.101907 70.01856 
L 177.43184 70.01856 
L 177.761774 69.77664 
L 178.091707 69.77664 
L 179.081508 69.05088 
L 180.071308 69.05088 
L 180.401242 68.80896 
L 182.050909 68.80896 
L 182.380843 68.56704 
L 183.04071 68.56704 
L 183.370643 68.32512 
L 184.03051 68.32512 
L 184.360443 68.0832 
L 184.690377 68.0832 
L 185.02031 67.59936 
L 185.680177 67.59936 
L 186.010111 67.35744 
L 186.999911 67.35744 
L 187.659778 66.8736 
L 187.989712 66.8736 
L 188.319645 66.63168 
L 190.62918 66.63168 
L 190.959113 66.38976 
L 191.289047 65.90592 
L 191.61898 65.664 
L 192.60878 65.664 
L 192.938714 65.42208 
L 197.227849 65.42208 
L 197.557783 64.93824 
L 199.20745 64.93824 
L 199.867317 64.4544 
L 201.516984 64.4544 
L 201.846918 64.21248 
L 202.176851 64.21248 
L 202.506785 63.97056 
L 205.476186 63.97056 
L 205.80612 63.72864 
L 206.136053 63.2448 
L 206.465987 63.2448 
L 206.79592 62.51904 
L 207.785721 62.51904 
L 208.115654 62.27712 
L 208.445588 62.27712 
L 208.775521 62.0352 
L 209.435388 62.0352 
L 209.765322 61.30944 
L 210.095255 61.30944 
L 210.755122 60.8256 
L 212.404789 60.8256 
L 212.734723 60.58368 
L 213.064656 60.58368 
L 213.39459 60.34176 
L 213.724523 60.34176 
L 214.054457 59.85792 
L 214.38439 59.85792 
L 214.714324 59.616 
L 218.343592 59.616 
L 218.673525 59.37408 
L 219.663326 59.37408 
L 219.993259 59.13216 
L 224.282395 59.13216 
L 224.612328 58.89024 
L 225.932062 58.89024 
L 226.261996 58.64832 
L 227.251796 58.64832 
L 227.581729 58.4064 
L 232.860665 58.4064 
L 233.190599 57.92256 
L 233.520532 57.92256 
L 233.850466 57.68064 
L 234.180399 57.68064 
L 234.840266 57.1968 
L 235.830067 57.1968 
L 236.16 56.95488 
L 237.479734 56.95488 
L 237.809667 56.47104 
L 238.139601 56.47104 
L 238.469534 56.22912 
L 238.799468 56.22912 
L 239.129401 55.74528 
L 239.459335 55.50336 
L 241.109002 55.50336 
L 241.438936 55.26144 
L 242.428736 55.26144 
L 242.75867 55.01952 
L 244.408337 55.01952 
L 245.398137 54.29376 
L 273.11255 54.29376 
L 273.442483 54.05184 
L 325.901907 54.05184 
L 326.23184 53.80992 
L 398.157339 53.80992 
L 398.487273 53.568 
L 398.487273 53.568 
" clip-path="url(#paeba450eda)" style="fill: none; stroke: #ff0000; stroke-linecap: square"/>
   </g>
   <g id="line2d_14">
    <path d="M 73.832727 295.488 
L 74.162661 245.00863 
L 74.822528 243.103748 
L 76.472195 243.103748 
L 76.802129 242.151307 
L 77.132062 242.151307 
L 77.461996 240.246425 
L 78.121863 238.341543 
L 78.781729 238.341543 
L 79.77153 235.48422 
L 80.101463 235.48422 
L 80.76133 231.674457 
L 81.091264 230.722016 
L 81.421197 230.722016 
L 81.751131 229.769575 
L 82.081064 227.864693 
L 82.740931 225.959811 
L 83.730732 220.245165 
L 84.390599 220.245165 
L 85.050466 216.435402 
L 85.380399 216.435402 
L 85.710333 212.625638 
L 86.040266 212.625638 
L 86.3702 211.673197 
L 86.700133 207.863433 
L 87.030067 206.910992 
L 87.36 205.00611 
L 87.689933 204.053669 
L 88.019867 204.053669 
L 88.679734 202.148787 
L 89.009667 202.148787 
L 89.339601 200.243906 
L 89.669534 200.243906 
L 89.999468 199.291465 
L 90.659335 192.624378 
L 90.989268 191.671937 
L 91.649135 191.671937 
L 92.309002 187.862173 
L 92.638936 186.909732 
L 92.968869 185.00485 
L 93.298803 184.052409 
L 93.628736 184.052409 
L 93.95867 180.242646 
L 94.288603 179.290205 
L 94.618537 179.290205 
L 94.94847 178.337764 
L 95.608337 174.528 
L 96.268204 169.765795 
L 96.598137 168.813354 
L 96.928071 168.813354 
L 97.587938 165.003591 
L 98.247805 165.003591 
L 98.577738 162.146268 
L 99.897472 158.336504 
L 100.227406 158.336504 
L 100.557339 157.384063 
L 100.887273 155.479181 
L 101.217206 155.479181 
L 102.53694 151.669417 
L 102.866874 149.764535 
L 103.196807 146.907213 
L 103.526741 146.907213 
L 103.856674 145.954772 
L 104.186608 144.04989 
L 104.516541 141.192567 
L 104.846475 140.240126 
L 105.176408 140.240126 
L 105.506341 139.287685 
L 105.836275 137.382803 
L 106.166208 136.430362 
L 106.496142 136.430362 
L 107.815876 132.620598 
L 108.145809 132.620598 
L 108.475743 128.810835 
L 108.805676 127.858394 
L 109.13561 125.953512 
L 109.795477 125.953512 
L 110.12541 125.001071 
L 110.455344 125.001071 
L 110.785277 123.096189 
L 111.445144 123.096189 
L 112.105011 121.191307 
L 112.434945 121.191307 
L 112.764878 120.238866 
L 113.094812 118.333984 
L 113.754678 116.429102 
L 114.414545 112.619339 
L 114.744479 112.619339 
L 115.404346 110.714457 
L 116.394146 110.714457 
L 116.72408 108.809575 
L 117.383947 106.904693 
L 118.043814 102.142488 
L 118.373747 101.190047 
L 119.033614 101.190047 
L 119.363548 100.237606 
L 120.023415 100.237606 
L 121.343149 96.427843 
L 123.322749 96.427843 
L 124.31255 93.57052 
L 124.642483 93.57052 
L 124.972417 91.665638 
L 125.30235 88.808315 
L 125.632284 88.808315 
L 125.962217 87.855874 
L 126.292151 87.855874 
L 126.622084 86.903433 
L 126.952018 86.903433 
L 127.281951 85.950992 
L 127.611885 85.950992 
L 128.271752 84.04611 
L 128.601685 82.141228 
L 129.261552 82.141228 
L 129.921419 80.236346 
L 130.251353 77.379024 
L 130.581286 76.426583 
L 130.91122 74.521701 
L 131.571086 74.521701 
L 131.90102 73.56926 
L 133.550687 73.56926 
L 133.880621 71.664378 
L 134.210554 70.711937 
L 134.540488 70.711937 
L 134.870421 69.759496 
L 135.200355 69.759496 
L 135.860222 65.949732 
L 137.509889 65.949732 
L 138.169756 64.04485 
L 138.829623 59.282646 
L 139.48949 57.377764 
L 139.819424 57.377764 
L 140.149357 56.425323 
L 147.407894 56.425323 
L 147.737827 55.472882 
L 149.717428 55.472882 
L 150.047361 54.520441 
L 157.305898 54.520441 
L 157.635831 53.568 
L 398.487273 53.568 
L 398.487273 53.568 
" clip-path="url(#paeba450eda)" style="fill: none; stroke-dasharray: 1.85,0.8; stroke-dashoffset: 0; stroke: #008000; stroke-width: 0.5"/>
   </g>
   <g id="line2d_15">
    <path d="M 73.832727 295.488 
L 74.162661 235.644632 
L 75.482395 235.644632 
L 75.812328 234.371368 
L 77.132062 234.371368 
L 77.461996 233.098105 
L 78.121863 228.005053 
L 78.451796 226.731789 
L 79.441596 226.731789 
L 80.431397 222.912 
L 81.421197 222.912 
L 81.751131 219.092211 
L 82.081064 219.092211 
L 82.410998 217.818947 
L 82.740931 217.818947 
L 83.070865 216.545684 
L 83.730732 211.452632 
L 84.390599 208.906105 
L 85.380399 208.906105 
L 86.3702 205.086316 
L 87.36 205.086316 
L 88.3498 201.266526 
L 88.679734 201.266526 
L 89.009667 199.993263 
L 89.339601 196.173474 
L 89.999468 196.173474 
L 90.329401 193.626947 
L 90.989268 191.080421 
L 91.319202 191.080421 
L 91.649135 188.533895 
L 92.968869 188.533895 
L 93.628736 183.440842 
L 94.618537 183.440842 
L 94.94847 180.894316 
L 95.278404 179.621053 
L 95.608337 179.621053 
L 95.938271 178.347789 
L 96.268204 178.347789 
L 96.598137 175.801263 
L 96.928071 174.528 
L 97.587938 174.528 
L 97.917871 173.254737 
L 98.247805 173.254737 
L 98.577738 169.434947 
L 98.907672 168.161684 
L 100.557339 168.161684 
L 101.54714 164.341895 
L 101.877073 161.795368 
L 102.53694 161.795368 
L 102.866874 160.522105 
L 103.196807 160.522105 
L 103.526741 159.248842 
L 104.516541 159.248842 
L 105.176408 156.702316 
L 106.166208 156.702316 
L 106.496142 154.155789 
L 107.156009 154.155789 
L 107.485942 152.882526 
L 107.815876 152.882526 
L 108.805676 149.062737 
L 109.795477 149.062737 
L 110.455344 146.516211 
L 111.445144 146.516211 
L 112.434945 142.696421 
L 112.764878 142.696421 
L 113.094812 140.149895 
L 113.754678 140.149895 
L 114.084612 137.603368 
L 115.404346 137.603368 
L 115.734279 136.330105 
L 116.394146 136.330105 
L 116.72408 133.783579 
L 117.054013 132.510316 
L 117.383947 132.510316 
L 117.71388 129.963789 
L 118.043814 128.690526 
L 118.373747 128.690526 
L 120.353348 121.050947 
L 121.013215 121.050947 
L 121.673082 118.504421 
L 122.332949 118.504421 
L 122.992816 115.957895 
L 123.322749 112.138105 
L 123.652683 110.864842 
L 125.962217 110.864842 
L 126.292151 109.591579 
L 126.622084 109.591579 
L 126.952018 108.318316 
L 127.941818 108.318316 
L 128.271752 107.045053 
L 128.601685 107.045053 
L 128.931619 105.771789 
L 129.261552 105.771789 
L 129.591486 101.952 
L 129.921419 101.952 
L 130.251353 100.678737 
L 130.91122 100.678737 
L 131.571086 98.132211 
L 131.90102 98.132211 
L 132.230953 96.858947 
L 133.220754 96.858947 
L 133.880621 94.312421 
L 134.210554 91.765895 
L 134.540488 91.765895 
L 134.870421 90.492632 
L 135.530288 90.492632 
L 135.860222 87.946105 
L 136.190155 87.946105 
L 136.850022 85.399579 
L 138.49969 85.399579 
L 138.829623 84.126316 
L 139.159557 84.126316 
L 139.48949 82.853053 
L 140.149357 82.853053 
L 141.139157 79.033263 
L 142.458891 79.033263 
L 142.788825 77.76 
L 143.448692 77.76 
L 143.778625 75.213474 
L 144.108559 75.213474 
L 144.438492 73.940211 
L 144.768426 73.940211 
L 145.098359 72.666947 
L 148.727627 72.666947 
L 149.057561 71.393684 
L 149.717428 71.393684 
L 150.047361 70.120421 
L 153.67663 70.120421 
L 154.006563 68.847158 
L 154.66643 68.847158 
L 154.996364 67.573895 
L 157.635831 67.573895 
L 157.965765 66.300632 
L 159.285499 66.300632 
L 159.615432 65.027368 
L 161.2651 65.027368 
L 161.924967 62.480842 
L 163.574634 62.480842 
L 163.904568 61.207579 
L 165.554235 61.207579 
L 166.544035 57.387789 
L 167.533836 57.387789 
L 167.863769 56.114526 
L 169.84337 56.114526 
L 170.173304 54.841263 
L 185.680177 54.841263 
L 186.010111 53.568 
L 398.487273 53.568 
L 398.487273 53.568 
" clip-path="url(#paeba450eda)" style="fill: none; stroke-dasharray: 1.85,0.8; stroke-dashoffset: 0; stroke: #0000ff; stroke-width: 0.5"/>
   </g>
   <g id="line2d_16">
    <path d="M 73.832727 295.488 
L 74.162661 238.191158 
L 75.152461 238.191158 
L 75.482395 233.416421 
L 75.812328 233.416421 
L 76.142262 231.824842 
L 76.472195 231.824842 
L 77.132062 228.641684 
L 77.791929 228.641684 
L 78.451796 225.458526 
L 79.111663 225.458526 
L 79.441596 223.866947 
L 80.101463 223.866947 
L 80.431397 222.275368 
L 81.091264 222.275368 
L 81.421197 220.683789 
L 83.070865 220.683789 
L 83.400798 217.500632 
L 83.730732 212.725895 
L 84.060665 212.725895 
L 84.390599 206.359579 
L 84.720532 203.176421 
L 85.050466 203.176421 
L 85.380399 199.993263 
L 85.710333 199.993263 
L 86.3702 196.810105 
L 87.030067 196.810105 
L 87.36 195.218526 
L 88.3498 195.218526 
L 88.679734 193.626947 
L 89.669534 193.626947 
L 89.999468 192.035368 
L 90.329401 192.035368 
L 90.659335 190.443789 
L 91.319202 190.443789 
L 91.979069 184.077474 
L 92.309002 184.077474 
L 92.968869 180.894316 
L 93.298803 180.894316 
L 93.628736 179.302737 
L 93.95867 176.119579 
L 94.618537 176.119579 
L 94.94847 171.344842 
L 95.278404 171.344842 
L 95.608337 169.753263 
L 95.938271 169.753263 
L 96.598137 163.386947 
L 97.258004 155.429053 
L 97.917871 152.245895 
L 98.247805 152.245895 
L 98.577738 149.062737 
L 98.907672 149.062737 
L 99.237605 147.471158 
L 99.567539 142.696421 
L 99.897472 141.104842 
L 100.557339 134.738526 
L 101.217206 131.555368 
L 101.54714 128.372211 
L 102.53694 128.372211 
L 102.866874 125.189053 
L 103.196807 125.189053 
L 103.526741 123.597474 
L 103.856674 123.597474 
L 104.186608 122.005895 
L 104.516541 122.005895 
L 104.846475 120.414316 
L 105.176408 120.414316 
L 106.496142 114.048 
L 107.156009 114.048 
L 107.815876 110.864842 
L 108.805676 110.864842 
L 109.465543 104.498526 
L 110.12541 104.498526 
L 110.455344 102.906947 
L 111.115211 102.906947 
L 111.445144 101.315368 
L 112.434945 101.315368 
L 112.764878 99.723789 
L 113.424745 99.723789 
L 113.754678 96.540632 
L 114.084612 96.540632 
L 114.414545 94.949053 
L 114.744479 94.949053 
L 115.074412 93.357474 
L 116.064213 93.357474 
L 116.72408 90.174316 
L 117.71388 90.174316 
L 118.043814 88.582737 
L 119.693481 88.582737 
L 120.683282 83.808 
L 121.013215 83.808 
L 121.343149 82.216421 
L 122.003016 82.216421 
L 122.332949 80.624842 
L 125.632284 80.624842 
L 125.962217 77.441684 
L 126.292151 77.441684 
L 126.622084 75.850105 
L 127.281951 75.850105 
L 128.601685 69.483789 
L 128.931619 69.483789 
L 129.261552 67.892211 
L 129.591486 67.892211 
L 130.251353 64.709053 
L 131.241153 64.709053 
L 131.571086 61.525895 
L 132.230953 58.342737 
L 132.89082 58.342737 
L 133.220754 56.751158 
L 137.179956 56.751158 
L 137.509889 55.159579 
L 139.159557 55.159579 
L 139.48949 53.568 
L 398.487273 53.568 
L 398.487273 53.568 
" clip-path="url(#paeba450eda)" style="fill: none; stroke-dasharray: 1.85,0.8; stroke-dashoffset: 0; stroke: #bf00bf; stroke-width: 0.5"/>
   </g>
   <g id="line2d_17">
    <path d="M 73.832727 295.488 
L 74.162661 249.332211 
L 74.492594 247.740632 
L 76.142262 247.740632 
L 76.472195 246.149053 
L 80.431397 246.149053 
L 81.091264 242.965895 
L 81.751131 242.965895 
L 82.081064 241.374316 
L 82.740931 241.374316 
L 83.070865 239.782737 
L 85.050466 239.782737 
L 85.710333 236.599579 
L 86.040266 236.599579 
L 86.700133 233.416421 
L 90.329401 233.416421 
L 90.659335 231.824842 
L 91.649135 231.824842 
L 91.979069 230.233263 
L 92.638936 230.233263 
L 92.968869 228.641684 
L 93.298803 225.458526 
L 93.95867 225.458526 
L 94.288603 223.866947 
L 95.278404 223.866947 
L 95.608337 222.275368 
L 96.268204 222.275368 
L 96.598137 219.092211 
L 96.928071 217.500632 
L 97.587938 211.134316 
L 97.917871 209.542737 
L 98.247805 209.542737 
L 98.907672 206.359579 
L 102.207007 206.359579 
L 102.53694 204.768 
L 103.196807 204.768 
L 103.526741 201.584842 
L 103.856674 201.584842 
L 104.516541 198.401684 
L 104.846475 198.401684 
L 105.176408 196.810105 
L 105.506341 196.810105 
L 105.836275 193.626947 
L 106.166208 192.035368 
L 107.156009 192.035368 
L 108.145809 187.260632 
L 110.785277 187.260632 
L 111.115211 184.077474 
L 111.775078 184.077474 
L 112.105011 180.894316 
L 112.764878 177.711158 
L 113.754678 177.711158 
L 114.084612 176.119579 
L 119.363548 176.119579 
L 119.693481 174.528 
L 121.013215 174.528 
L 121.343149 172.936421 
L 122.992816 172.936421 
L 123.322749 166.570105 
L 123.652683 164.978526 
L 123.982616 161.795368 
L 125.30235 161.795368 
L 125.632284 160.203789 
L 126.292151 160.203789 
L 126.622084 157.020632 
L 126.952018 155.429053 
L 128.601685 155.429053 
L 128.931619 153.837474 
L 129.921419 153.837474 
L 130.251353 152.245895 
L 131.241153 152.245895 
L 131.90102 149.062737 
L 132.560887 149.062737 
L 133.220754 145.879579 
L 133.550687 145.879579 
L 133.880621 144.288 
L 135.200355 144.288 
L 135.530288 142.696421 
L 136.190155 142.696421 
L 136.850022 134.738526 
L 137.509889 134.738526 
L 137.839823 133.146947 
L 138.169756 133.146947 
L 138.49969 131.555368 
L 140.47929 131.555368 
L 141.469091 126.780632 
L 141.799024 123.597474 
L 142.128958 122.005895 
L 143.118758 122.005895 
L 143.448692 118.822737 
L 143.778625 118.822737 
L 144.108559 117.231158 
L 148.067761 117.231158 
L 148.727627 114.048 
L 149.057561 114.048 
L 149.387494 110.864842 
L 149.717428 109.273263 
L 150.047361 109.273263 
L 151.037162 104.498526 
L 151.697029 104.498526 
L 152.026962 101.315368 
L 152.356896 99.723789 
L 153.016763 99.723789 
L 153.346696 96.540632 
L 153.67663 94.949053 
L 154.996364 94.949053 
L 155.326297 93.357474 
L 155.656231 93.357474 
L 155.986164 91.765895 
L 157.305898 91.765895 
L 159.615432 80.624842 
L 159.945366 80.624842 
L 160.275299 79.033263 
L 160.605233 79.033263 
L 160.935166 77.441684 
L 162.584834 77.441684 
L 162.914767 75.850105 
L 163.244701 75.850105 
L 163.574634 74.258526 
L 163.904568 74.258526 
L 164.234501 72.666947 
L 165.884169 72.666947 
L 166.544035 69.483789 
L 167.203902 69.483789 
L 167.533836 67.892211 
L 168.193703 67.892211 
L 168.523636 66.300632 
L 170.833171 66.300632 
L 171.163104 64.709053 
L 172.482838 64.709053 
L 172.812772 63.117474 
L 173.142705 63.117474 
L 173.472639 61.525895 
L 175.452239 61.525895 
L 175.782173 59.934316 
L 190.959113 59.934316 
L 191.289047 58.342737 
L 192.60878 58.342737 
L 192.938714 56.751158 
L 205.476186 56.751158 
L 205.80612 55.159579 
L 219.663326 55.159579 
L 219.993259 53.568 
L 398.487273 53.568 
L 398.487273 53.568 
" clip-path="url(#paeba450eda)" style="fill: none; stroke-dasharray: 1.85,0.8; stroke-dashoffset: 0; stroke: #bfbf00; stroke-width: 0.5"/>
   </g>
   <g id="line2d_18">
    <path d="M 73.832727 295.488 
L 74.162661 250.368 
L 74.822528 250.368 
L 75.152461 249.408 
L 79.77153 249.408 
L 80.101463 248.448 
L 81.091264 248.448 
L 81.421197 247.488 
L 81.751131 245.568 
L 82.081064 245.568 
L 82.410998 244.608 
L 83.070865 244.608 
L 83.400798 242.688 
L 84.060665 242.688 
L 84.390599 239.808 
L 87.36 239.808 
L 87.689933 238.848 
L 88.3498 238.848 
L 88.679734 237.888 
L 89.009667 237.888 
L 89.669534 234.048 
L 90.329401 234.048 
L 90.659335 233.088 
L 93.95867 233.088 
L 94.288603 232.128 
L 94.618537 232.128 
L 94.94847 231.168 
L 95.608337 231.168 
L 95.938271 230.208 
L 96.268204 226.368 
L 96.598137 224.448 
L 96.928071 224.448 
L 97.258004 220.608 
L 97.587938 219.648 
L 97.917871 215.808 
L 98.247805 215.808 
L 98.577738 213.888 
L 99.237605 209.088 
L 99.567539 202.368 
L 99.897472 202.368 
L 100.227406 201.408 
L 101.217206 201.408 
L 101.54714 200.448 
L 101.877073 200.448 
L 102.207007 198.528 
L 102.53694 197.568 
L 102.866874 197.568 
L 103.196807 195.648 
L 103.856674 195.648 
L 104.516541 193.728 
L 104.846475 191.808 
L 105.506341 189.888 
L 105.836275 186.048 
L 106.166208 185.088 
L 111.445144 185.088 
L 111.775078 184.128 
L 114.084612 184.128 
L 114.414545 183.168 
L 115.074412 183.168 
L 115.734279 181.248 
L 118.373747 181.248 
L 119.033614 179.328 
L 121.343149 179.328 
L 121.673082 178.368 
L 122.992816 178.368 
L 124.31255 174.528 
L 124.642483 172.608 
L 124.972417 172.608 
L 125.30235 171.648 
L 127.281951 171.648 
L 127.941818 169.728 
L 128.931619 169.728 
L 129.591486 165.888 
L 130.251353 163.968 
L 130.581286 162.048 
L 130.91122 162.048 
L 131.241153 160.128 
L 131.90102 160.128 
L 132.230953 159.168 
L 132.89082 152.448 
L 133.220754 152.448 
L 133.550687 149.568 
L 133.880621 149.568 
L 134.210554 147.648 
L 135.200355 144.768 
L 136.520089 144.768 
L 136.850022 143.808 
L 142.458891 143.808 
L 143.118758 141.888 
L 145.758226 141.888 
L 146.418093 139.968 
L 147.407894 139.968 
L 147.737827 139.008 
L 148.397694 139.008 
L 148.727627 138.048 
L 150.047361 138.048 
L 150.377295 137.088 
L 151.037162 137.088 
L 151.367095 136.128 
L 152.026962 136.128 
L 152.356896 135.168 
L 152.686829 135.168 
L 153.346696 133.248 
L 153.67663 133.248 
L 154.006563 132.288 
L 156.975965 132.288 
L 157.305898 131.328 
L 160.275299 131.328 
L 160.935166 127.488 
L 161.2651 127.488 
L 161.595033 126.528 
L 165.554235 126.528 
L 166.214102 124.608 
L 167.203902 124.608 
L 167.533836 123.648 
L 173.802572 123.648 
L 174.132506 121.728 
L 174.462439 118.848 
L 174.792373 118.848 
L 175.122306 117.888 
L 175.452239 117.888 
L 176.112106 115.968 
L 176.44204 115.968 
L 177.101907 114.048 
L 177.43184 114.048 
L 177.761774 113.088 
L 178.091707 113.088 
L 179.081508 110.208 
L 180.071308 110.208 
L 180.401242 109.248 
L 182.050909 109.248 
L 182.380843 108.288 
L 183.04071 108.288 
L 183.370643 107.328 
L 184.03051 107.328 
L 184.360443 106.368 
L 184.690377 106.368 
L 185.02031 104.448 
L 186.999911 104.448 
L 187.659778 102.528 
L 187.989712 102.528 
L 188.319645 101.568 
L 190.62918 101.568 
L 191.61898 98.688 
L 197.227849 98.688 
L 197.557783 96.768 
L 199.20745 96.768 
L 199.867317 94.848 
L 201.516984 94.848 
L 201.846918 93.888 
L 202.176851 93.888 
L 202.506785 92.928 
L 205.80612 92.928 
L 206.136053 91.008 
L 206.465987 91.008 
L 206.79592 88.128 
L 207.785721 88.128 
L 208.115654 87.168 
L 208.445588 87.168 
L 208.775521 86.208 
L 209.435388 86.208 
L 209.765322 83.328 
L 210.095255 83.328 
L 210.755122 81.408 
L 212.404789 81.408 
L 212.734723 80.448 
L 213.064656 80.448 
L 213.39459 79.488 
L 213.724523 79.488 
L 214.054457 77.568 
L 214.38439 77.568 
L 214.714324 76.608 
L 218.343592 76.608 
L 218.673525 75.648 
L 224.282395 75.648 
L 224.612328 74.688 
L 225.932062 74.688 
L 226.261996 73.728 
L 227.251796 73.728 
L 227.581729 72.768 
L 232.860665 72.768 
L 233.190599 70.848 
L 233.520532 70.848 
L 233.850466 69.888 
L 234.180399 69.888 
L 234.840266 67.968 
L 235.830067 67.968 
L 236.16 67.008 
L 237.479734 67.008 
L 237.809667 65.088 
L 238.139601 65.088 
L 238.469534 64.128 
L 238.799468 64.128 
L 239.129401 62.208 
L 239.459335 61.248 
L 241.109002 61.248 
L 241.438936 60.288 
L 242.428736 60.288 
L 242.75867 59.328 
L 244.408337 59.328 
L 245.398137 56.448 
L 273.11255 56.448 
L 273.442483 55.488 
L 325.901907 55.488 
L 326.23184 54.528 
L 398.157339 54.528 
L 398.487273 53.568 
L 398.487273 53.568 
" clip-path="url(#paeba450eda)" style="fill: none; stroke-dasharray: 1.85,0.8; stroke-dashoffset: 0; stroke: #000000; stroke-width: 0.5"/>
   </g>
   <g id="patch_3">
    <path d="M 57.6 307.584 
L 57.6 41.472 
" style="fill: none; stroke: #000000; stroke-width: 0.8; stroke-linejoin: miter; stroke-linecap: square"/>
   </g>
   <g id="patch_4">
    <path d="M 414.72 307.584 
L 414.72 41.472 
" style="fill: none; stroke: #000000; stroke-width: 0.8; stroke-linejoin: miter; stroke-linecap: square"/>
   </g>
   <g id="patch_5">
    <path d="M 57.6 307.584 
L 414.72 307.584 
" style="fill: none; stroke: #000000; stroke-width: 0.8; stroke-linejoin: miter; stroke-linecap: square"/>
   </g>
   <g id="patch_6">
    <path d="M 57.6 41.472 
L 414.72 41.472 
" style="fill: none; stroke: #000000; stroke-width: 0.8; stroke-linejoin: miter; stroke-linecap: square"/>
   </g>
   <g id="text_15">
    <!-- count=1000, googlenet=150, resnet50=187, squeezenetv1=112, vgg19=112, yolov2=187 -->
    <g transform="translate(-3.84 35.472) scale(0.12 -0.12)">
     <defs>
      <path id="FangSong-6f" d="M 2875 1400 
Q 2875 775 2500 362 
Q 2125 -50 1575 -50 
Q 1000 -50 637 375 
Q 275 800 275 1400 
Q 275 1950 637 2400 
Q 1000 2850 1575 2850 
Q 2175 2850 2525 2400 
Q 2875 1950 2875 1400 
z
M 675 1375 
Q 675 725 937 412 
Q 1200 100 1575 100 
Q 2000 100 2237 437 
Q 2475 775 2475 1375 
Q 2475 2025 2212 2362 
Q 1950 2700 1575 2700 
Q 1225 2700 950 2362 
Q 675 2025 675 1375 
z
" transform="scale(0.015625)"/>
      <path id="FangSong-75" d="M 1425 225 
Q 1725 225 1937 375 
Q 2150 525 2250 850 
L 2250 2425 
Q 2250 2525 2200 2587 
Q 2150 2650 2025 2650 
L 1875 2650 
L 1875 2800 
L 2025 2800 
Q 2175 2800 2300 2825 
Q 2425 2850 2550 2950 
L 2600 2950 
L 2600 500 
Q 2600 400 2662 350 
Q 2725 300 2825 300 
L 2975 300 
L 2975 150 
L 2825 150 
Q 2700 150 2575 112 
Q 2450 75 2300 0 
L 2250 0 
L 2250 525 
Q 2125 250 1875 112 
Q 1625 -25 1300 -25 
Q 900 -25 700 200 
Q 500 425 500 925 
L 500 2425 
Q 500 2525 450 2587 
Q 400 2650 275 2650 
L 125 2650 
L 125 2800 
L 275 2800 
Q 425 2800 550 2825 
Q 675 2850 800 2950 
L 850 2950 
L 850 875 
Q 850 525 1000 375 
Q 1150 225 1425 225 
z
" transform="scale(0.015625)"/>
      <path id="FangSong-3d" d="M 175 2725 
L 175 2950 
L 2950 2950 
L 2950 2725 
L 175 2725 
z
M 175 1450 
L 175 1675 
L 2950 1675 
L 2950 1450 
L 175 1450 
z
" transform="scale(0.015625)"/>
      <path id="FangSong-2c" d="M 1325 75 
Q 1200 25 1100 75 
Q 1000 125 962 237 
Q 925 350 925 437 
Q 925 525 987 612 
Q 1050 700 1150 737 
Q 1250 775 1425 725 
Q 1600 675 1650 500 
Q 1700 325 1662 150 
Q 1625 -25 1525 -200 
Q 1425 -375 1312 -475 
Q 1200 -575 1025 -675 
L 950 -575 
Q 1100 -450 1187 -312 
Q 1275 -175 1325 75 
z
" transform="scale(0.015625)"/>
      <path id="FangSong-20" transform="scale(0.015625)"/>
      <path id="FangSong-67" d="M 850 1875 
Q 850 1575 1025 1362 
Q 1200 1150 1500 1150 
Q 1825 1150 1987 1337 
Q 2150 1525 2150 1875 
Q 2150 2300 1962 2487 
Q 1775 2675 1500 2675 
Q 1225 2675 1037 2487 
Q 850 2300 850 1875 
z
M 2075 525 
Q 2450 475 2625 312 
Q 2800 150 2800 -125 
Q 2800 -500 2487 -725 
Q 2175 -950 1500 -950 
Q 975 -950 650 -737 
Q 325 -525 325 -250 
Q 325 -75 450 100 
Q 575 275 850 375 
Q 700 450 612 537 
Q 525 625 525 750 
Q 525 900 625 1012 
Q 725 1125 875 1200 
Q 725 1325 612 1500 
Q 500 1675 500 1875 
Q 500 2250 762 2537 
Q 1025 2825 1500 2825 
Q 1700 2825 1887 2775 
Q 2075 2725 2200 2600 
Q 2375 2725 2512 2787 
Q 2650 2850 2750 2850 
Q 2875 2850 2925 2762 
Q 2975 2675 2975 2600 
Q 2975 2500 2937 2437 
Q 2900 2375 2800 2375 
Q 2725 2375 2675 2412 
Q 2625 2450 2600 2525 
Q 2575 2600 2487 2587 
Q 2400 2575 2300 2500 
Q 2400 2400 2450 2225 
Q 2500 2050 2500 1875 
Q 2500 1575 2262 1287 
Q 2025 1000 1500 1000 
Q 1350 1000 1225 1037 
Q 1100 1075 1025 1125 
Q 925 1075 875 1000 
Q 825 925 825 875 
Q 825 775 875 725 
Q 925 675 1025 675 
Q 1350 625 1612 587 
Q 1875 550 2075 525 
z
M 1050 325 
Q 825 225 737 87 
Q 650 -50 650 -250 
Q 650 -450 875 -625 
Q 1100 -800 1550 -800 
Q 1975 -800 2225 -662 
Q 2475 -525 2475 -250 
Q 2475 -75 2412 25 
Q 2350 125 2225 150 
Q 1975 200 1675 237 
Q 1375 275 1050 325 
z
" transform="scale(0.015625)"/>
      <path id="FangSong-6c" d="M 900 4275 
Q 1125 4275 1325 4325 
Q 1525 4375 1700 4475 
L 1750 4475 
L 1750 350 
Q 1750 250 1812 200 
Q 1875 150 1975 150 
L 2550 150 
L 2550 0 
L 600 0 
L 600 150 
L 1175 150 
Q 1300 150 1350 200 
Q 1400 250 1400 350 
L 1400 3925 
Q 1400 4025 1350 4075 
Q 1300 4125 1175 4125 
L 625 4125 
L 625 4275 
L 900 4275 
z
" transform="scale(0.015625)"/>
      <path id="FangSong-35" d="M 1700 2750 
Q 2175 2750 2475 2387 
Q 2775 2025 2775 1425 
Q 2775 750 2462 350 
Q 2150 -50 1500 -50 
Q 1050 -50 700 212 
Q 350 475 350 850 
Q 350 1000 437 1112 
Q 525 1225 675 1225 
Q 825 1225 875 1125 
Q 925 1025 925 950 
Q 925 800 850 712 
Q 775 625 775 525 
Q 775 325 1012 225 
Q 1250 125 1525 125 
Q 1925 125 2137 450 
Q 2350 775 2350 1375 
Q 2350 1875 2162 2187 
Q 1975 2500 1600 2500 
Q 1325 2500 1125 2400 
Q 925 2300 750 1975 
L 525 2000 
L 650 4275 
L 2700 4275 
L 2625 3900 
L 825 3900 
L 725 2250 
Q 975 2600 1212 2675 
Q 1450 2750 1700 2750 
z
" transform="scale(0.015625)"/>
      <path id="FangSong-72" d="M 1250 2025 
Q 1500 2425 1787 2637 
Q 2075 2850 2375 2850 
Q 2625 2850 2762 2737 
Q 2900 2625 2900 2475 
Q 2900 2350 2837 2275 
Q 2775 2200 2650 2200 
Q 2525 2200 2462 2275 
Q 2400 2350 2425 2475 
Q 2425 2550 2400 2600 
Q 2375 2650 2250 2650 
Q 2050 2650 1762 2400 
Q 1475 2150 1250 1700 
L 1250 350 
Q 1250 250 1312 200 
Q 1375 150 1475 150 
L 2025 150 
L 2025 0 
L 175 0 
L 175 150 
L 675 150 
Q 800 150 850 200 
Q 900 250 900 350 
L 900 2425 
Q 900 2525 850 2587 
Q 800 2650 675 2650 
L 200 2650 
L 200 2800 
L 400 2800 
Q 575 2800 812 2837 
Q 1050 2875 1175 2925 
L 1250 2925 
L 1250 2025 
z
" transform="scale(0.015625)"/>
      <path id="FangSong-73" d="M 600 2075 
Q 600 2450 887 2650 
Q 1175 2850 1575 2850 
Q 1800 2850 2000 2787 
Q 2200 2725 2275 2725 
Q 2350 2725 2400 2750 
Q 2450 2775 2525 2850 
L 2625 2025 
L 2475 2000 
Q 2375 2325 2137 2512 
Q 1900 2700 1600 2700 
Q 1275 2700 1087 2575 
Q 900 2450 900 2225 
Q 900 2025 987 1912 
Q 1075 1800 1300 1750 
Q 1475 1675 1737 1587 
Q 2000 1500 2225 1400 
Q 2425 1300 2562 1137 
Q 2700 975 2700 775 
Q 2700 400 2437 187 
Q 2175 -25 1675 -25 
Q 1350 -25 1187 37 
Q 1025 100 925 100 
Q 850 100 762 62 
Q 675 25 575 -25 
L 500 900 
L 650 925 
Q 725 525 975 325 
Q 1225 125 1675 125 
Q 2025 125 2212 250 
Q 2400 375 2400 625 
Q 2400 800 2300 912 
Q 2200 1025 2100 1075 
Q 1850 1175 1550 1287 
Q 1250 1400 1025 1500 
Q 800 1600 700 1750 
Q 600 1900 600 2075 
z
" transform="scale(0.015625)"/>
      <path id="FangSong-37" d="M 2800 4100 
Q 2275 3250 1962 2437 
Q 1650 1625 1650 1025 
Q 1650 925 1662 737 
Q 1675 550 1675 300 
Q 1675 100 1612 25 
Q 1550 -50 1400 -50 
Q 1275 -50 1187 37 
Q 1100 125 1100 350 
Q 1100 825 1312 1525 
Q 1525 2225 2450 3900 
L 1200 3900 
Q 925 3900 762 3725 
Q 600 3550 525 3200 
L 375 3225 
L 550 4275 
L 2800 4275 
L 2800 4100 
z
" transform="scale(0.015625)"/>
      <path id="FangSong-71" d="M 2250 2150 
Q 2150 2375 1975 2512 
Q 1800 2650 1550 2650 
Q 1200 2650 950 2350 
Q 700 2050 700 1325 
Q 700 700 912 437 
Q 1125 175 1450 175 
Q 1725 175 1937 300 
Q 2150 425 2250 725 
L 2250 2150 
z
M 2600 -550 
Q 2600 -675 2662 -725 
Q 2725 -775 2825 -775 
L 2975 -775 
L 2975 -925 
L 1825 -925 
L 1825 -775 
L 2025 -775 
Q 2150 -775 2200 -725 
Q 2250 -675 2250 -550 
L 2250 375 
Q 2100 175 1887 75 
Q 1675 -25 1375 -25 
Q 950 -25 625 337 
Q 300 700 300 1400 
Q 300 2075 675 2450 
Q 1050 2825 1475 2825 
Q 1750 2825 1937 2725 
Q 2125 2625 2275 2475 
L 2500 2800 
L 2600 2800 
L 2600 -550 
z
" transform="scale(0.015625)"/>
      <path id="FangSong-7a" d="M 2725 975 
L 2550 0 
L 400 0 
L 400 125 
L 2125 2650 
L 1200 2650 
Q 975 2650 825 2487 
Q 675 2325 575 1925 
L 425 1950 
L 525 2800 
L 2575 2800 
L 2575 2725 
L 825 150 
L 1775 150 
Q 2100 150 2287 350 
Q 2475 550 2575 1000 
L 2725 975 
z
" transform="scale(0.015625)"/>
      <path id="FangSong-76" d="M 1600 -25 
L 1450 -25 
L 600 2425 
Q 575 2525 500 2587 
Q 425 2650 325 2650 
L 200 2650 
L 200 2800 
L 1275 2800 
L 1275 2650 
L 1175 2650 
Q 1025 2650 987 2575 
Q 950 2500 1000 2325 
L 1600 575 
L 1650 575 
L 2250 2300 
Q 2325 2475 2262 2562 
Q 2200 2650 2050 2650 
L 2000 2650 
L 2000 2800 
L 2900 2800 
L 2900 2650 
L 2850 2650 
Q 2700 2650 2612 2562 
Q 2525 2475 2450 2300 
L 1600 -25 
z
" transform="scale(0.015625)"/>
      <path id="FangSong-39" d="M 675 2950 
Q 675 2400 887 2112 
Q 1100 1825 1425 1825 
Q 1800 1825 2075 2175 
Q 2350 2525 2350 2825 
Q 2350 3425 2150 3787 
Q 1950 4150 1500 4150 
Q 1075 4150 875 3812 
Q 675 3475 675 2950 
z
M 1350 1600 
Q 850 1600 550 1912 
Q 250 2225 250 2925 
Q 250 3525 575 3925 
Q 900 4325 1500 4325 
Q 2125 4325 2475 3825 
Q 2825 3325 2825 2375 
Q 2825 1325 2412 637 
Q 2000 -50 1275 -50 
Q 950 -50 712 100 
Q 475 250 475 500 
Q 475 600 537 700 
Q 600 800 750 800 
Q 900 800 950 687 
Q 1000 575 1000 425 
Q 1000 325 1025 262 
Q 1050 200 1075 175 
Q 1100 150 1162 137 
Q 1225 125 1300 125 
Q 1750 125 2025 625 
Q 2300 1125 2350 2300 
Q 2225 2000 1975 1800 
Q 1725 1600 1350 1600 
z
" transform="scale(0.015625)"/>
     </defs>
     <use xlink:href="#FangSong-63"/>
     <use xlink:href="#FangSong-6f" x="50"/>
     <use xlink:href="#FangSong-75" x="100"/>
     <use xlink:href="#FangSong-6e" x="150"/>
     <use xlink:href="#FangSong-74" x="200"/>
     <use xlink:href="#FangSong-3d" x="250"/>
     <use xlink:href="#FangSong-31" x="300"/>
     <use xlink:href="#FangSong-30" x="350"/>
     <use xlink:href="#FangSong-30" x="400"/>
     <use xlink:href="#FangSong-30" x="450"/>
     <use xlink:href="#FangSong-2c" x="500"/>
     <use xlink:href="#FangSong-20" x="550"/>
     <use xlink:href="#FangSong-67" x="600"/>
     <use xlink:href="#FangSong-6f" x="650"/>
     <use xlink:href="#FangSong-6f" x="700"/>
     <use xlink:href="#FangSong-67" x="750"/>
     <use xlink:href="#FangSong-6c" x="800"/>
     <use xlink:href="#FangSong-65" x="850"/>
     <use xlink:href="#FangSong-6e" x="900"/>
     <use xlink:href="#FangSong-65" x="950"/>
     <use xlink:href="#FangSong-74" x="1000"/>
     <use xlink:href="#FangSong-3d" x="1050"/>
     <use xlink:href="#FangSong-31" x="1100"/>
     <use xlink:href="#FangSong-35" x="1150"/>
     <use xlink:href="#FangSong-30" x="1200"/>
     <use xlink:href="#FangSong-2c" x="1250"/>
     <use xlink:href="#FangSong-20" x="1300"/>
     <use xlink:href="#FangSong-72" x="1350"/>
     <use xlink:href="#FangSong-65" x="1400"/>
     <use xlink:href="#FangSong-73" x="1450"/>
     <use xlink:href="#FangSong-6e" x="1500"/>
     <use xlink:href="#FangSong-65" x="1550"/>
     <use xlink:href="#FangSong-74" x="1600"/>
     <use xlink:href="#FangSong-35" x="1650"/>
     <use xlink:href="#FangSong-30" x="1700"/>
     <use xlink:href="#FangSong-3d" x="1750"/>
     <use xlink:href="#FangSong-31" x="1800"/>
     <use xlink:href="#FangSong-38" x="1850"/>
     <use xlink:href="#FangSong-37" x="1900"/>
     <use xlink:href="#FangSong-2c" x="1950"/>
     <use xlink:href="#FangSong-20" x="2000"/>
     <use xlink:href="#FangSong-73" x="2050"/>
     <use xlink:href="#FangSong-71" x="2100"/>
     <use xlink:href="#FangSong-75" x="2150"/>
     <use xlink:href="#FangSong-65" x="2200"/>
     <use xlink:href="#FangSong-65" x="2250"/>
     <use xlink:href="#FangSong-7a" x="2300"/>
     <use xlink:href="#FangSong-65" x="2350"/>
     <use xlink:href="#FangSong-6e" x="2400"/>
     <use xlink:href="#FangSong-65" x="2450"/>
     <use xlink:href="#FangSong-74" x="2500"/>
     <use xlink:href="#FangSong-76" x="2550"/>
     <use xlink:href="#FangSong-31" x="2600"/>
     <use xlink:href="#FangSong-3d" x="2650"/>
     <use xlink:href="#FangSong-31" x="2700"/>
     <use xlink:href="#FangSong-31" x="2750"/>
     <use xlink:href="#FangSong-32" x="2800"/>
     <use xlink:href="#FangSong-2c" x="2850"/>
     <use xlink:href="#FangSong-20" x="2900"/>
     <use xlink:href="#FangSong-76" x="2950"/>
     <use xlink:href="#FangSong-67" x="3000"/>
     <use xlink:href="#FangSong-67" x="3050"/>
     <use xlink:href="#FangSong-31" x="3100"/>
     <use xlink:href="#FangSong-39" x="3150"/>
     <use xlink:href="#FangSong-3d" x="3200"/>
     <use xlink:href="#FangSong-31" x="3250"/>
     <use xlink:href="#FangSong-31" x="3300"/>
     <use xlink:href="#FangSong-32" x="3350"/>
     <use xlink:href="#FangSong-2c" x="3400"/>
     <use xlink:href="#FangSong-20" x="3450"/>
     <use xlink:href="#FangSong-79" x="3500"/>
     <use xlink:href="#FangSong-6f" x="3550"/>
     <use xlink:href="#FangSong-6c" x="3600"/>
     <use xlink:href="#FangSong-6f" x="3650"/>
     <use xlink:href="#FangSong-76" x="3700"/>
     <use xlink:href="#FangSong-32" x="3750"/>
     <use xlink:href="#FangSong-3d" x="3800"/>
     <use xlink:href="#FangSong-31" x="3850"/>
     <use xlink:href="#FangSong-38" x="3900"/>
     <use xlink:href="#FangSong-37" x="3950"/>
    </g>
   </g>
   <g id="legend_1">
    <g id="patch_7">
     <path d="M 315.72 302.584 
L 407.72 302.584 
Q 409.72 302.584 409.72 300.584 
L 409.72 220.794937 
Q 409.72 218.794937 407.72 218.794937 
L 315.72 218.794937 
Q 313.72 218.794937 313.72 220.794937 
L 313.72 300.584 
Q 313.72 302.584 315.72 302.584 
z
" style="fill: #ffffff; opacity: 0.8; stroke: #cccccc; stroke-linejoin: miter"/>
    </g>
    <g id="line2d_19">
     <path d="M 317.72 226.294937 
L 327.72 226.294937 
L 337.72 226.294937 
" style="fill: none; stroke: #ff0000; stroke-linecap: square"/>
    </g>
    <g id="text_16">
     <!-- total -->
     <g transform="translate(345.72 229.794937) scale(0.1 -0.1)">
      <use xlink:href="#FangSong-74"/>
      <use xlink:href="#FangSong-6f" x="50"/>
      <use xlink:href="#FangSong-74" x="100"/>
      <use xlink:href="#FangSong-61" x="150"/>
      <use xlink:href="#FangSong-6c" x="200"/>
     </g>
    </g>
    <g id="line2d_20">
     <path d="M 317.72 239.74025 
L 327.72 239.74025 
L 337.72 239.74025 
" style="fill: none; stroke-dasharray: 1.85,0.8; stroke-dashoffset: 0; stroke: #008000; stroke-width: 0.5"/>
    </g>
    <g id="text_17">
     <!-- squeezenetv1 -->
     <g transform="translate(345.72 243.24025) scale(0.1 -0.1)">
      <use xlink:href="#FangSong-73"/>
      <use xlink:href="#FangSong-71" x="50"/>
      <use xlink:href="#FangSong-75" x="100"/>
      <use xlink:href="#FangSong-65" x="150"/>
      <use xlink:href="#FangSong-65" x="200"/>
      <use xlink:href="#FangSong-7a" x="250"/>
      <use xlink:href="#FangSong-65" x="300"/>
      <use xlink:href="#FangSong-6e" x="350"/>
      <use xlink:href="#FangSong-65" x="400"/>
      <use xlink:href="#FangSong-74" x="450"/>
      <use xlink:href="#FangSong-76" x="500"/>
      <use xlink:href="#FangSong-31" x="550"/>
     </g>
    </g>
    <g id="line2d_21">
     <path d="M 317.72 253.185562 
L 327.72 253.185562 
L 337.72 253.185562 
" style="fill: none; stroke-dasharray: 1.85,0.8; stroke-dashoffset: 0; stroke: #0000ff; stroke-width: 0.5"/>
    </g>
    <g id="text_18">
     <!-- googlenet -->
     <g transform="translate(345.72 256.685562) scale(0.1 -0.1)">
      <use xlink:href="#FangSong-67"/>
      <use xlink:href="#FangSong-6f" x="50"/>
      <use xlink:href="#FangSong-6f" x="100"/>
      <use xlink:href="#FangSong-67" x="150"/>
      <use xlink:href="#FangSong-6c" x="200"/>
      <use xlink:href="#FangSong-65" x="250"/>
      <use xlink:href="#FangSong-6e" x="300"/>
      <use xlink:href="#FangSong-65" x="350"/>
      <use xlink:href="#FangSong-74" x="400"/>
     </g>
    </g>
    <g id="line2d_22">
     <path d="M 317.72 266.669937 
L 327.72 266.669937 
L 337.72 266.669937 
" style="fill: none; stroke-dasharray: 1.85,0.8; stroke-dashoffset: 0; stroke: #bf00bf; stroke-width: 0.5"/>
    </g>
    <g id="text_19">
     <!-- yolov2 -->
     <g transform="translate(345.72 270.169937) scale(0.1 -0.1)">
      <use xlink:href="#FangSong-79"/>
      <use xlink:href="#FangSong-6f" x="50"/>
      <use xlink:href="#FangSong-6c" x="100"/>
      <use xlink:href="#FangSong-6f" x="150"/>
      <use xlink:href="#FangSong-76" x="200"/>
      <use xlink:href="#FangSong-32" x="250"/>
     </g>
    </g>
    <g id="line2d_23">
     <path d="M 317.72 280.154312 
L 327.72 280.154312 
L 337.72 280.154312 
" style="fill: none; stroke-dasharray: 1.85,0.8; stroke-dashoffset: 0; stroke: #bfbf00; stroke-width: 0.5"/>
    </g>
    <g id="text_20">
     <!-- resnet50 -->
     <g transform="translate(345.72 283.654312) scale(0.1 -0.1)">
      <use xlink:href="#FangSong-72"/>
      <use xlink:href="#FangSong-65" x="50"/>
      <use xlink:href="#FangSong-73" x="100"/>
      <use xlink:href="#FangSong-6e" x="150"/>
      <use xlink:href="#FangSong-65" x="200"/>
      <use xlink:href="#FangSong-74" x="250"/>
      <use xlink:href="#FangSong-35" x="300"/>
      <use xlink:href="#FangSong-30" x="350"/>
     </g>
    </g>
    <g id="line2d_24">
     <path d="M 317.72 293.599625 
L 327.72 293.599625 
L 337.72 293.599625 
" style="fill: none; stroke-dasharray: 1.85,0.8; stroke-dashoffset: 0; stroke: #000000; stroke-width: 0.5"/>
    </g>
    <g id="text_21">
     <!-- vgg19 -->
     <g transform="translate(345.72 297.099625) scale(0.1 -0.1)">
      <use xlink:href="#FangSong-76"/>
      <use xlink:href="#FangSong-67" x="50"/>
      <use xlink:href="#FangSong-67" x="100"/>
      <use xlink:href="#FangSong-31" x="150"/>
      <use xlink:href="#FangSong-39" x="200"/>
     </g>
    </g>
   </g>
  </g>
 </g>
 <defs>
  <clipPath id="paeba450eda">
   <rect x="57.6" y="41.472" width="357.12" height="266.112"/>
  </clipPath>
 </defs>
</svg>
