<?xml version="1.0" encoding="utf-8" standalone="no"?>
<!DOCTYPE svg PUBLIC "-//W3C//DTD SVG 1.1//EN"
  "http://www.w3.org/Graphics/SVG/1.1/DTD/svg11.dtd">
<svg xmlns:xlink="http://www.w3.org/1999/xlink" width="460.8pt" height="345.6pt" viewBox="0 0 460.8 345.6" xmlns="http://www.w3.org/2000/svg" version="1.1">
 <metadata>
  <rdf:RDF xmlns:dc="http://purl.org/dc/elements/1.1/" xmlns:cc="http://creativecommons.org/ns#" xmlns:rdf="http://www.w3.org/1999/02/22-rdf-syntax-ns#">
   <cc:Work>
    <dc:type rdf:resource="http://purl.org/dc/dcmitype/StillImage"/>
    <dc:date>2023-01-19T17:24:42.701413</dc:date>
    <dc:format>image/svg+xml</dc:format>
    <dc:creator>
     <cc:Agent>
      <dc:title>Matplotlib v3.6.3, https://matplotlib.org/</dc:title>
     </cc:Agent>
    </dc:creator>
   </cc:Work>
  </rdf:RDF>
 </metadata>
 <defs>
  <style type="text/css">*{stroke-linejoin: round; stroke-linecap: butt}</style>
 </defs>
 <g id="figure_1">
  <g id="patch_1">
   <path d="M 0 345.6 
L 460.8 345.6 
L 460.8 0 
L 0 0 
z
" style="fill: #ffffff"/>
  </g>
  <g id="axes_1">
   <g id="patch_2">
    <path d="M 57.6 307.584 
L 414.72 307.584 
L 414.72 41.472 
L 57.6 41.472 
z
" style="fill: #ffffff"/>
   </g>
   <g id="matplotlib.axis_1">
    <g id="xtick_1">
     <g id="line2d_1">
      <defs>
       <path id="m2eb49034ab" d="M 0 0 
L 0 3.5 
" style="stroke: #000000; stroke-width: 0.8"/>
      </defs>
      <g>
       <use xlink:href="#m2eb49034ab" x="69.272972" y="307.584" style="stroke: #000000; stroke-width: 0.8"/>
      </g>
     </g>
     <g id="text_1">
      <!-- 0 -->
      <g transform="translate(66.772972 321.576187) scale(0.1 -0.1)">
       <defs>
        <path id="FangSong-30" d="M 1575 4125 
Q 1225 4125 987 3587 
Q 750 3050 750 2150 
Q 750 1200 987 675 
Q 1225 150 1575 150 
Q 1950 150 2162 675 
Q 2375 1200 2375 2150 
Q 2375 3050 2175 3587 
Q 1975 4125 1575 4125 
z
M 1575 -50 
Q 1025 -50 650 525 
Q 275 1100 275 2150 
Q 275 3125 637 3725 
Q 1000 4325 1575 4325 
Q 2125 4325 2487 3750 
Q 2850 3175 2850 2150 
Q 2850 1125 2487 537 
Q 2125 -50 1575 -50 
z
" transform="scale(0.015625)"/>
       </defs>
       <use xlink:href="#FangSong-30"/>
      </g>
     </g>
    </g>
    <g id="xtick_2">
     <g id="line2d_2">
      <g>
       <use xlink:href="#m2eb49034ab" x="114.870521" y="307.584" style="stroke: #000000; stroke-width: 0.8"/>
      </g>
     </g>
     <g id="text_2">
      <!-- 10 -->
      <g transform="translate(109.870521 321.576187) scale(0.1 -0.1)">
       <defs>
        <path id="FangSong-31" d="M 1800 4350 
L 1800 550 
Q 1800 350 1925 250 
Q 2050 150 2275 150 
L 2525 150 
L 2525 0 
L 700 0 
L 700 150 
L 925 150 
Q 1175 150 1287 250 
Q 1400 350 1400 550 
L 1400 3575 
Q 1400 3675 1337 3737 
Q 1275 3800 1150 3800 
L 700 3800 
L 700 3950 
L 925 3950 
Q 1225 3950 1412 4050 
Q 1600 4150 1700 4350 
L 1800 4350 
z
" transform="scale(0.015625)"/>
       </defs>
       <use xlink:href="#FangSong-31"/>
       <use xlink:href="#FangSong-30" x="50"/>
      </g>
     </g>
    </g>
    <g id="xtick_3">
     <g id="line2d_3">
      <g>
       <use xlink:href="#m2eb49034ab" x="160.468069" y="307.584" style="stroke: #000000; stroke-width: 0.8"/>
      </g>
     </g>
     <g id="text_3">
      <!-- 20 -->
      <g transform="translate(155.468069 321.576187) scale(0.1 -0.1)">
       <defs>
        <path id="FangSong-32" d="M 2300 3225 
Q 2300 3675 2100 3912 
Q 1900 4150 1500 4150 
Q 1200 4150 987 3987 
Q 775 3825 775 3575 
Q 775 3425 862 3325 
Q 950 3225 950 3125 
Q 950 3000 887 2937 
Q 825 2875 700 2875 
Q 550 2875 462 2962 
Q 375 3050 375 3250 
Q 375 3775 750 4050 
Q 1125 4325 1550 4325 
Q 2150 4325 2437 4025 
Q 2725 3725 2725 3275 
Q 2725 2975 2587 2675 
Q 2450 2375 2150 2100 
Q 1425 1400 1037 962 
Q 650 525 575 375 
L 2050 375 
Q 2275 375 2425 550 
Q 2575 725 2625 1075 
L 2775 1075 
L 2625 0 
L 300 0 
L 300 325 
Q 425 550 712 900 
Q 1000 1250 1475 1725 
Q 1900 2150 2100 2525 
Q 2300 2900 2300 3225 
z
" transform="scale(0.015625)"/>
       </defs>
       <use xlink:href="#FangSong-32"/>
       <use xlink:href="#FangSong-30" x="50"/>
      </g>
     </g>
    </g>
    <g id="xtick_4">
     <g id="line2d_4">
      <g>
       <use xlink:href="#m2eb49034ab" x="206.065618" y="307.584" style="stroke: #000000; stroke-width: 0.8"/>
      </g>
     </g>
     <g id="text_4">
      <!-- 30 -->
      <g transform="translate(201.065618 321.576187) scale(0.1 -0.1)">
       <defs>
        <path id="FangSong-33" d="M 2775 1150 
Q 2775 675 2425 312 
Q 2075 -50 1450 -50 
Q 1000 -50 675 200 
Q 350 450 350 775 
Q 350 925 450 1037 
Q 550 1150 650 1150 
Q 800 1150 862 1037 
Q 925 925 925 850 
Q 925 725 875 637 
Q 825 550 825 475 
Q 825 325 1012 225 
Q 1200 125 1425 125 
Q 1875 125 2100 387 
Q 2325 650 2325 1200 
Q 2325 1650 2087 1925 
Q 1850 2200 1200 2200 
L 1200 2375 
Q 1700 2375 1937 2612 
Q 2175 2850 2175 3275 
Q 2175 3625 1987 3887 
Q 1800 4150 1400 4150 
Q 1225 4150 1025 4062 
Q 825 3975 825 3775 
Q 825 3575 875 3525 
Q 925 3475 925 3400 
Q 925 3275 875 3200 
Q 825 3125 700 3125 
Q 600 3125 512 3200 
Q 425 3275 425 3475 
Q 425 3850 750 4087 
Q 1075 4325 1500 4325 
Q 2000 4325 2300 4012 
Q 2600 3700 2600 3350 
Q 2600 2975 2412 2712 
Q 2225 2450 1825 2325 
Q 2375 2125 2575 1800 
Q 2775 1475 2775 1150 
z
" transform="scale(0.015625)"/>
       </defs>
       <use xlink:href="#FangSong-33"/>
       <use xlink:href="#FangSong-30" x="50"/>
      </g>
     </g>
    </g>
    <g id="xtick_5">
     <g id="line2d_5">
      <g>
       <use xlink:href="#m2eb49034ab" x="251.663166" y="307.584" style="stroke: #000000; stroke-width: 0.8"/>
      </g>
     </g>
     <g id="text_5">
      <!-- 40 -->
      <g transform="translate(246.663166 321.576187) scale(0.1 -0.1)">
       <defs>
        <path id="FangSong-34" d="M 2275 475 
Q 2275 300 2375 225 
Q 2475 150 2650 150 
L 2875 150 
L 2875 0 
L 1225 0 
L 1225 150 
L 1500 150 
Q 1700 150 1787 225 
Q 1875 300 1875 475 
L 1875 1300 
L 200 1300 
L 200 1425 
L 2025 4325 
L 2275 4325 
L 2275 1450 
L 2950 1450 
L 2950 1300 
L 2275 1300 
L 2275 475 
z
M 1850 3700 
L 425 1450 
L 1875 1450 
L 1875 3700 
L 1850 3700 
z
" transform="scale(0.015625)"/>
       </defs>
       <use xlink:href="#FangSong-34"/>
       <use xlink:href="#FangSong-30" x="50"/>
      </g>
     </g>
    </g>
    <g id="xtick_6">
     <g id="line2d_6">
      <g>
       <use xlink:href="#m2eb49034ab" x="297.260715" y="307.584" style="stroke: #000000; stroke-width: 0.8"/>
      </g>
     </g>
     <g id="text_6">
      <!-- 50 -->
      <g transform="translate(292.260715 321.576187) scale(0.1 -0.1)">
       <defs>
        <path id="FangSong-35" d="M 1700 2750 
Q 2175 2750 2475 2387 
Q 2775 2025 2775 1425 
Q 2775 750 2462 350 
Q 2150 -50 1500 -50 
Q 1050 -50 700 212 
Q 350 475 350 850 
Q 350 1000 437 1112 
Q 525 1225 675 1225 
Q 825 1225 875 1125 
Q 925 1025 925 950 
Q 925 800 850 712 
Q 775 625 775 525 
Q 775 325 1012 225 
Q 1250 125 1525 125 
Q 1925 125 2137 450 
Q 2350 775 2350 1375 
Q 2350 1875 2162 2187 
Q 1975 2500 1600 2500 
Q 1325 2500 1125 2400 
Q 925 2300 750 1975 
L 525 2000 
L 650 4275 
L 2700 4275 
L 2625 3900 
L 825 3900 
L 725 2250 
Q 975 2600 1212 2675 
Q 1450 2750 1700 2750 
z
" transform="scale(0.015625)"/>
       </defs>
       <use xlink:href="#FangSong-35"/>
       <use xlink:href="#FangSong-30" x="50"/>
      </g>
     </g>
    </g>
    <g id="xtick_7">
     <g id="line2d_7">
      <g>
       <use xlink:href="#m2eb49034ab" x="342.858264" y="307.584" style="stroke: #000000; stroke-width: 0.8"/>
      </g>
     </g>
     <g id="text_7">
      <!-- 60 -->
      <g transform="translate(337.858264 321.576187) scale(0.1 -0.1)">
       <defs>
        <path id="FangSong-36" d="M 750 1700 
Q 750 950 1012 537 
Q 1275 125 1650 125 
Q 2025 125 2225 400 
Q 2425 675 2425 1425 
Q 2425 1925 2212 2200 
Q 2000 2475 1700 2475 
Q 1425 2475 1187 2312 
Q 950 2150 750 1700 
z
M 1725 2725 
Q 2325 2725 2587 2325 
Q 2850 1925 2850 1425 
Q 2850 675 2487 312 
Q 2125 -50 1650 -50 
Q 975 -50 625 462 
Q 275 975 275 1950 
Q 275 3100 700 3712 
Q 1125 4325 1850 4325 
Q 2200 4325 2412 4125 
Q 2625 3925 2625 3775 
Q 2625 3625 2562 3550 
Q 2500 3475 2350 3475 
Q 2225 3475 2162 3537 
Q 2100 3600 2100 3725 
Q 2100 3775 2112 3825 
Q 2125 3875 2125 3925 
Q 2125 4025 2050 4087 
Q 1975 4150 1775 4150 
Q 1350 4150 1050 3762 
Q 750 3375 750 2075 
Q 900 2400 1162 2562 
Q 1425 2725 1725 2725 
z
" transform="scale(0.015625)"/>
       </defs>
       <use xlink:href="#FangSong-36"/>
       <use xlink:href="#FangSong-30" x="50"/>
      </g>
     </g>
    </g>
    <g id="xtick_8">
     <g id="line2d_8">
      <g>
       <use xlink:href="#m2eb49034ab" x="388.455812" y="307.584" style="stroke: #000000; stroke-width: 0.8"/>
      </g>
     </g>
     <g id="text_8">
      <!-- 70 -->
      <g transform="translate(383.455812 321.576187) scale(0.1 -0.1)">
       <defs>
        <path id="FangSong-37" d="M 2800 4100 
Q 2275 3250 1962 2437 
Q 1650 1625 1650 1025 
Q 1650 925 1662 737 
Q 1675 550 1675 300 
Q 1675 100 1612 25 
Q 1550 -50 1400 -50 
Q 1275 -50 1187 37 
Q 1100 125 1100 350 
Q 1100 825 1312 1525 
Q 1525 2225 2450 3900 
L 1200 3900 
Q 925 3900 762 3725 
Q 600 3550 525 3200 
L 375 3225 
L 550 4275 
L 2800 4275 
L 2800 4100 
z
" transform="scale(0.015625)"/>
       </defs>
       <use xlink:href="#FangSong-37"/>
       <use xlink:href="#FangSong-30" x="50"/>
      </g>
     </g>
    </g>
    <g id="text_9">
     <!-- Latency -->
     <g transform="translate(218.66 333.974625) scale(0.1 -0.1)">
      <defs>
       <path id="FangSong-4c" d="M 975 350 
Q 975 250 1037 200 
Q 1100 150 1200 150 
L 1875 150 
Q 2225 150 2475 362 
Q 2725 575 2850 1025 
L 2975 975 
L 2750 0 
L 175 0 
L 175 150 
L 350 150 
Q 475 150 525 200 
Q 575 250 575 350 
L 575 3925 
Q 575 4025 525 4075 
Q 475 4125 350 4125 
L 200 4125 
L 200 4275 
L 1375 4275 
L 1375 4125 
L 1200 4125 
Q 1100 4125 1037 4075 
Q 975 4025 975 3925 
L 975 350 
z
" transform="scale(0.015625)"/>
       <path id="FangSong-61" d="M 1200 -25 
Q 750 -25 500 187 
Q 250 400 250 675 
Q 250 1125 637 1412 
Q 1025 1700 2175 1825 
L 2175 2125 
Q 2175 2375 2062 2537 
Q 1950 2700 1550 2700 
Q 1125 2700 950 2562 
Q 775 2425 825 2275 
Q 875 2175 825 2075 
Q 775 1975 625 1975 
Q 525 1975 462 2037 
Q 400 2100 400 2225 
Q 400 2450 725 2650 
Q 1050 2850 1525 2850 
Q 2025 2850 2275 2662 
Q 2525 2475 2525 2125 
L 2525 475 
Q 2525 275 2562 237 
Q 2600 200 2700 200 
Q 2825 200 2875 312 
Q 2925 425 2925 625 
L 3050 625 
Q 3050 275 2925 137 
Q 2800 0 2600 0 
Q 2425 0 2325 75 
Q 2225 150 2175 325 
Q 1925 150 1712 62 
Q 1500 -25 1200 -25 
z
M 675 750 
Q 675 525 812 337 
Q 950 150 1250 150 
Q 1475 150 1700 237 
Q 1925 325 2175 500 
L 2175 1675 
Q 1325 1575 1000 1337 
Q 675 1100 675 750 
z
" transform="scale(0.015625)"/>
       <path id="FangSong-74" d="M 1475 800 
Q 1475 450 1600 325 
Q 1725 200 1975 200 
Q 2225 200 2375 362 
Q 2525 525 2575 825 
L 2700 775 
Q 2650 425 2437 200 
Q 2225 -25 1875 -25 
Q 1500 -25 1312 200 
Q 1125 425 1125 900 
L 1125 2650 
L 375 2650 
L 375 2800 
L 575 2800 
Q 875 2800 1062 2987 
Q 1250 3175 1300 3575 
L 1325 3775 
L 1475 3775 
L 1475 2800 
L 2475 2800 
L 2475 2650 
L 1475 2650 
L 1475 800 
z
" transform="scale(0.015625)"/>
       <path id="FangSong-65" d="M 2375 1550 
Q 2400 2100 2187 2387 
Q 1975 2675 1625 2675 
Q 1250 2675 1012 2375 
Q 775 2075 775 1550 
L 2375 1550 
z
M 775 1400 
Q 775 725 1037 437 
Q 1300 150 1725 150 
Q 2050 150 2275 337 
Q 2500 525 2600 800 
L 2725 750 
Q 2650 475 2387 212 
Q 2125 -50 1675 -50 
Q 1100 -50 737 325 
Q 375 700 375 1400 
Q 375 2025 737 2437 
Q 1100 2850 1625 2850 
Q 2100 2850 2450 2525 
Q 2800 2200 2800 1400 
L 775 1400 
z
" transform="scale(0.015625)"/>
       <path id="FangSong-6e" d="M 175 0 
L 175 150 
L 300 150 
Q 425 150 475 200 
Q 525 250 525 350 
L 525 2500 
Q 525 2575 500 2612 
Q 475 2650 400 2650 
L 200 2650 
L 200 2800 
L 375 2800 
Q 500 2800 612 2825 
Q 725 2850 825 2925 
L 875 2925 
L 875 2350 
Q 1100 2600 1325 2725 
Q 1550 2850 1800 2850 
Q 2225 2850 2425 2625 
Q 2625 2400 2625 1950 
L 2625 350 
Q 2625 250 2687 200 
Q 2750 150 2850 150 
L 2975 150 
L 2975 0 
L 1925 0 
L 1925 150 
L 2050 150 
Q 2175 150 2225 200 
Q 2275 250 2275 350 
L 2275 2025 
Q 2275 2325 2150 2487 
Q 2025 2650 1775 2650 
Q 1550 2650 1312 2500 
Q 1075 2350 875 2075 
L 875 350 
Q 875 250 937 200 
Q 1000 150 1100 150 
L 1225 150 
L 1225 0 
L 175 0 
z
" transform="scale(0.015625)"/>
       <path id="FangSong-63" d="M 2125 2125 
Q 2125 2200 2137 2225 
Q 2150 2250 2175 2325 
Q 2200 2425 2075 2562 
Q 1950 2700 1650 2700 
Q 1275 2700 1012 2337 
Q 750 1975 750 1375 
Q 750 825 975 487 
Q 1200 150 1725 150 
Q 2075 150 2312 375 
Q 2550 600 2650 900 
L 2775 850 
Q 2675 475 2400 212 
Q 2125 -50 1650 -50 
Q 1050 -50 700 325 
Q 350 700 350 1400 
Q 350 2025 725 2437 
Q 1100 2850 1700 2850 
Q 2125 2850 2362 2625 
Q 2600 2400 2600 2175 
Q 2600 2025 2537 1962 
Q 2475 1900 2350 1900 
Q 2250 1900 2187 1962 
Q 2125 2025 2125 2125 
z
" transform="scale(0.015625)"/>
       <path id="FangSong-79" d="M 1625 700 
L 1675 700 
L 2225 2375 
Q 2275 2500 2212 2575 
Q 2150 2650 2050 2650 
L 1900 2650 
L 1900 2800 
L 2950 2800 
L 2950 2650 
L 2800 2650 
Q 2700 2650 2600 2575 
Q 2500 2500 2450 2375 
L 1600 -100 
Q 1475 -500 1287 -712 
Q 1100 -925 800 -950 
Q 650 -950 537 -875 
Q 425 -800 425 -675 
Q 425 -575 487 -500 
Q 550 -425 675 -425 
Q 775 -425 837 -525 
Q 900 -625 1050 -587 
Q 1200 -550 1250 -425 
Q 1300 -350 1375 -162 
Q 1450 25 1500 225 
L 650 2425 
Q 625 2525 537 2587 
Q 450 2650 350 2650 
L 250 2650 
L 250 2800 
L 1300 2800 
L 1300 2650 
L 1200 2650 
Q 1100 2650 1050 2587 
Q 1000 2525 1025 2400 
L 1625 700 
z
" transform="scale(0.015625)"/>
      </defs>
      <use xlink:href="#FangSong-4c"/>
      <use xlink:href="#FangSong-61" x="50"/>
      <use xlink:href="#FangSong-74" x="100"/>
      <use xlink:href="#FangSong-65" x="150"/>
      <use xlink:href="#FangSong-6e" x="200"/>
      <use xlink:href="#FangSong-63" x="250"/>
      <use xlink:href="#FangSong-79" x="300"/>
     </g>
    </g>
   </g>
   <g id="matplotlib.axis_2">
    <g id="ytick_1">
     <g id="line2d_9">
      <defs>
       <path id="mf21c7d4158" d="M 0 0 
L -3.5 0 
" style="stroke: #000000; stroke-width: 0.8"/>
      </defs>
      <g>
       <use xlink:href="#mf21c7d4158" x="57.6" y="295.488" style="stroke: #000000; stroke-width: 0.8"/>
      </g>
     </g>
     <g id="text_10">
      <!-- 0% -->
      <g transform="translate(40.6 298.984094) scale(0.1 -0.1)">
       <defs>
        <path id="FangSong-25" d="M 725 4150 
Q 575 4150 475 3950 
Q 375 3750 375 3200 
Q 375 2575 487 2387 
Q 600 2200 725 2200 
Q 900 2200 987 2425 
Q 1075 2650 1075 3200 
Q 1075 3650 1012 3900 
Q 950 4150 725 4150 
z
M 1400 3175 
Q 1400 2725 1250 2387 
Q 1100 2050 725 2050 
Q 425 2050 237 2350 
Q 50 2650 50 3175 
Q 50 3725 250 4025 
Q 450 4325 725 4325 
Q 1025 4325 1212 4012 
Q 1400 3700 1400 3175 
z
M 2700 1100 
Q 2700 1525 2625 1800 
Q 2550 2075 2350 2075 
Q 2200 2075 2100 1837 
Q 2000 1600 2000 1100 
Q 2000 475 2112 300 
Q 2225 125 2350 125 
Q 2525 125 2612 337 
Q 2700 550 2700 1100 
z
M 3025 1075 
Q 3025 575 2850 262 
Q 2675 -50 2350 -50 
Q 2075 -50 1875 262 
Q 1675 575 1675 1075 
Q 1675 1625 1875 1937 
Q 2075 2250 2350 2250 
Q 2650 2250 2837 1925 
Q 3025 1600 3025 1075 
z
M 2500 4250 
L 700 -50 
L 550 25 
L 2325 4325 
L 2500 4250 
z
" transform="scale(0.015625)"/>
       </defs>
       <use xlink:href="#FangSong-30"/>
       <use xlink:href="#FangSong-25" x="50"/>
      </g>
     </g>
    </g>
    <g id="ytick_2">
     <g id="line2d_10">
      <g>
       <use xlink:href="#mf21c7d4158" x="57.6" y="247.104" style="stroke: #000000; stroke-width: 0.8"/>
      </g>
     </g>
     <g id="text_11">
      <!-- 20% -->
      <g transform="translate(35.6 250.600094) scale(0.1 -0.1)">
       <use xlink:href="#FangSong-32"/>
       <use xlink:href="#FangSong-30" x="50"/>
       <use xlink:href="#FangSong-25" x="100"/>
      </g>
     </g>
    </g>
    <g id="ytick_3">
     <g id="line2d_11">
      <g>
       <use xlink:href="#mf21c7d4158" x="57.6" y="198.72" style="stroke: #000000; stroke-width: 0.8"/>
      </g>
     </g>
     <g id="text_12">
      <!-- 40% -->
      <g transform="translate(35.6 202.216094) scale(0.1 -0.1)">
       <use xlink:href="#FangSong-34"/>
       <use xlink:href="#FangSong-30" x="50"/>
       <use xlink:href="#FangSong-25" x="100"/>
      </g>
     </g>
    </g>
    <g id="ytick_4">
     <g id="line2d_12">
      <g>
       <use xlink:href="#mf21c7d4158" x="57.6" y="150.336" style="stroke: #000000; stroke-width: 0.8"/>
      </g>
     </g>
     <g id="text_13">
      <!-- 60% -->
      <g transform="translate(35.6 153.832094) scale(0.1 -0.1)">
       <use xlink:href="#FangSong-36"/>
       <use xlink:href="#FangSong-30" x="50"/>
       <use xlink:href="#FangSong-25" x="100"/>
      </g>
     </g>
    </g>
    <g id="ytick_5">
     <g id="line2d_13">
      <g>
       <use xlink:href="#mf21c7d4158" x="57.6" y="101.952" style="stroke: #000000; stroke-width: 0.8"/>
      </g>
     </g>
     <g id="text_14">
      <!-- 80% -->
      <g transform="translate(35.6 105.448094) scale(0.1 -0.1)">
       <defs>
        <path id="FangSong-38" d="M 600 1025 
Q 600 625 862 375 
Q 1125 125 1525 125 
Q 2000 125 2212 375 
Q 2425 625 2425 1000 
Q 2425 1325 2125 1625 
Q 1825 1925 1225 2175 
Q 925 1975 762 1675 
Q 600 1375 600 1025 
z
M 2800 1075 
Q 2800 600 2450 275 
Q 2100 -50 1525 -50 
Q 1000 -50 625 275 
Q 250 600 250 1025 
Q 250 1450 462 1750 
Q 675 2050 1075 2275 
Q 725 2450 537 2712 
Q 350 2975 350 3300 
Q 350 3725 675 4025 
Q 1000 4325 1575 4325 
Q 2100 4325 2425 4025 
Q 2750 3725 2750 3300 
Q 2750 3000 2562 2737 
Q 2375 2475 1975 2275 
Q 2400 2025 2600 1725 
Q 2800 1425 2800 1075 
z
M 2400 3275 
Q 2400 3625 2200 3887 
Q 2000 4150 1575 4150 
Q 1100 4150 900 3900 
Q 700 3650 700 3375 
Q 700 3100 987 2837 
Q 1275 2575 1800 2375 
Q 2100 2525 2250 2750 
Q 2400 2975 2400 3275 
z
" transform="scale(0.015625)"/>
       </defs>
       <use xlink:href="#FangSong-38"/>
       <use xlink:href="#FangSong-30" x="50"/>
       <use xlink:href="#FangSong-25" x="100"/>
      </g>
     </g>
    </g>
    <g id="ytick_6">
     <g id="line2d_14">
      <g>
       <use xlink:href="#mf21c7d4158" x="57.6" y="53.568" style="stroke: #000000; stroke-width: 0.8"/>
      </g>
     </g>
     <g id="text_15">
      <!-- 100% -->
      <g transform="translate(30.6 57.064094) scale(0.1 -0.1)">
       <use xlink:href="#FangSong-31"/>
       <use xlink:href="#FangSong-30" x="50"/>
       <use xlink:href="#FangSong-30" x="100"/>
       <use xlink:href="#FangSong-25" x="150"/>
      </g>
     </g>
    </g>
    <g id="text_16">
     <!-- 累计完成比例 -->
     <g transform="translate(25.154688 204.528) rotate(-90) scale(0.1 -0.1)">
      <defs>
       <path id="FangSong-7d2f" d="M 4525 4975 
L 4700 5225 
L 5000 4950 
L 4825 4775 
L 4625 3550 
L 4850 3300 
L 3175 3150 
L 3375 2975 
Q 3200 2925 2862 2725 
Q 2525 2525 2075 2275 
L 3475 2500 
Q 3750 2675 3900 2800 
Q 4050 2925 4100 3075 
L 4175 3100 
L 4325 2700 
Q 4200 2675 3500 2237 
Q 2800 1800 2275 1550 
L 4375 1825 
L 3900 2175 
L 4000 2275 
Q 4625 1900 4950 1725 
Q 4975 1475 4925 1225 
Q 4800 1375 4500 1675 
L 3250 1475 
L 3525 1300 
Q 3375 1200 3375 875 
L 3375 25 
Q 3375 -325 3225 -625 
Q 2975 -325 2400 150 
L 2450 250 
L 3050 -75 
Q 3150 -125 3150 0 
L 3150 925 
Q 3150 1300 3125 1450 
Q 1875 1275 1575 1175 
L 1325 1425 
L 1850 1550 
Q 2175 1700 3250 2300 
Q 2075 2100 1875 2000 
L 1575 2250 
L 1800 2300 
Q 2150 2475 3025 3125 
L 2000 3025 
Q 2000 2675 1950 2700 
Q 1900 2725 1650 3025 
Q 1725 3250 1725 3425 
L 1650 4400 
Q 1625 4675 1525 4950 
L 1625 5000 
L 1875 4675 
L 4525 4975 
z
M 3150 3375 
L 3150 3875 
Q 2525 3800 2400 3725 
L 2100 3975 
Q 2500 3975 3150 4075 
L 3150 4600 
L 1900 4450 
L 1975 3250 
L 3150 3375 
z
M 3375 4100 
Q 3950 4175 4025 4225 
L 4275 4000 
Q 3950 3975 3375 3900 
L 3375 3400 
L 4400 3500 
L 4575 4750 
L 3375 4600 
L 3375 4100 
z
M 5450 -75 
Q 4975 325 3875 1025 
L 3950 1125 
Q 4850 700 5350 500 
Q 5425 250 5450 -75 
z
M 800 -250 
Q 1350 75 1825 500 
Q 2300 925 2325 1125 
L 2400 1150 
L 2550 725 
Q 2425 700 2075 425 
Q 1725 150 875 -350 
L 800 -250 
z
" transform="scale(0.015625)"/>
       <path id="FangSong-8ba1" d="M 4075 4200 
Q 4100 4825 3900 5100 
L 3975 5150 
L 4450 4725 
Q 4275 4600 4300 4200 
L 4275 3000 
Q 5525 3200 5575 3250 
L 5950 2950 
Q 5725 2975 4275 2800 
L 4250 -425 
Q 4250 -700 4150 -575 
L 3875 -150 
Q 4050 50 4025 300 
L 4050 2750 
Q 2975 2625 2900 2575 
L 2525 2825 
Q 2850 2825 4050 2975 
L 4075 4200 
z
M 1775 3250 
L 2100 2950 
L 1900 2750 
L 1875 550 
L 2825 1250 
L 2875 1175 
Q 1875 250 1750 -25 
L 1525 275 
Q 1625 375 1650 625 
L 1675 2775 
Q 900 2625 750 2550 
L 425 2800 
Q 850 2825 1650 3000 
L 1775 3250 
z
M 2025 3800 
Q 1825 4300 1325 4950 
L 1375 5025 
Q 1925 4575 2175 4300 
Q 2125 4000 2025 3800 
z
" transform="scale(0.015625)"/>
       <path id="FangSong-5b8c" d="M 5375 2050 
Q 4925 2050 3550 1950 
L 3850 1750 
Q 3725 1600 3700 1375 
L 3675 275 
Q 3650 -125 4075 -175 
L 4925 -175 
Q 5300 -150 5312 62 
Q 5325 275 5325 1025 
L 5425 1025 
Q 5450 750 5475 337 
Q 5500 -75 5700 -275 
Q 5400 -375 5000 -400 
L 4075 -400 
Q 3425 -350 3425 150 
L 3475 1450 
Q 3475 1775 3425 1925 
L 2675 1850 
L 2875 1650 
Q 2750 1550 2600 1200 
Q 2450 850 2025 312 
Q 1600 -225 600 -675 
L 550 -575 
Q 1525 -100 1987 625 
Q 2450 1350 2525 1850 
Q 1550 1775 1500 1725 
L 1150 2025 
Q 1625 2025 3212 2150 
Q 4800 2275 5000 2350 
L 5375 2050 
z
M 1650 3650 
Q 1550 3125 1325 2875 
L 1150 3250 
Q 1450 3425 1575 4400 
L 1675 4400 
L 1675 3900 
L 5025 4150 
L 5175 4400 
L 5525 4075 
Q 5375 4050 4725 3250 
L 4650 3325 
L 4975 3900 
L 1650 3650 
z
M 4475 2975 
Q 4225 2975 3412 2875 
Q 2600 2775 2400 2725 
L 2050 2975 
Q 2575 2975 3200 3075 
Q 3825 3175 4150 3225 
L 4475 2975 
z
M 3550 4575 
Q 3475 4350 3300 4150 
Q 3225 4475 2900 5200 
L 2975 5250 
Q 3350 4825 3550 4575 
z
" transform="scale(0.015625)"/>
       <path id="FangSong-6210" d="M 5575 975 
Q 5600 -150 5750 -625 
Q 4650 -225 4000 1075 
Q 3625 650 2975 225 
L 2925 325 
Q 3525 825 3900 1300 
Q 3600 2275 3500 3300 
L 1875 3125 
Q 1875 2625 1825 2100 
L 2725 2250 
L 2875 2475 
L 3175 2225 
L 3000 2050 
Q 2850 475 2575 -125 
Q 2225 400 1825 775 
L 1875 850 
L 2475 400 
Q 2650 875 2750 2000 
L 1825 1850 
Q 1675 250 600 -650 
L 525 -600 
Q 1250 250 1425 987 
Q 1600 1725 1625 2612 
Q 1650 3500 1550 3800 
L 1625 3825 
L 1850 3350 
L 3450 3525 
Q 3400 4150 3375 4562 
Q 3350 4975 3225 5200 
L 3275 5225 
L 3725 4900 
Q 3625 4925 3637 4575 
Q 3650 4225 3675 3550 
Q 4900 3700 5050 3775 
L 5325 3475 
Q 4775 3475 3725 3325 
Q 3775 2425 4075 1525 
Q 4500 2025 4687 2325 
Q 4875 2625 4800 2850 
L 4875 2875 
L 5125 2325 
Q 5075 2400 4850 2125 
Q 4625 1850 4150 1275 
Q 4625 225 5425 -125 
L 5475 975 
L 5575 975 
z
M 4100 5000 
Q 4525 4700 4875 4450 
Q 4825 4250 4750 4025 
Q 4400 4525 4025 4950 
L 4100 5000 
z
" transform="scale(0.015625)"/>
       <path id="FangSong-6bd4" d="M 3500 2125 
Q 3925 2425 4487 2975 
Q 5050 3525 4950 3750 
L 5025 3775 
L 5250 3225 
Q 5175 3250 4875 3000 
Q 4575 2750 4287 2525 
Q 4000 2300 3500 1900 
L 3500 575 
Q 3475 -100 4150 -100 
L 4800 -100 
Q 5275 -100 5375 12 
Q 5475 125 5450 1350 
L 5575 1350 
Q 5600 825 5637 412 
Q 5675 0 5800 -175 
Q 5375 -325 4800 -325 
L 4150 -325 
Q 3225 -350 3275 550 
L 3275 4300 
Q 3275 4875 3150 5150 
L 3200 5200 
L 3625 4850 
Q 3475 4825 3500 4250 
L 3500 2125 
z
M 1500 2575 
Q 1900 2625 2337 2712 
Q 2775 2800 2800 2850 
L 3075 2600 
Q 2875 2575 2350 2475 
Q 1825 2375 1775 2325 
L 1500 2525 
L 1500 150 
L 2925 1075 
L 2975 1025 
Q 1550 -75 1375 -350 
L 1200 0 
Q 1275 75 1275 350 
L 1275 3925 
Q 1275 4475 1150 4750 
L 1200 4800 
L 1625 4400 
Q 1475 4375 1500 3925 
L 1500 2575 
z
" transform="scale(0.015625)"/>
       <path id="FangSong-4f8b" d="M 3050 2000 
Q 3025 1800 2975 1600 
Q 2775 1900 2525 2250 
Q 2300 1875 2025 1550 
L 1925 1625 
Q 2675 2725 2975 3975 
Q 2475 3925 2375 3875 
L 2050 4125 
Q 2375 4125 3162 4225 
Q 3950 4325 4100 4450 
L 4350 4125 
Q 4050 4150 3100 3975 
L 3300 3700 
Q 3200 3675 3125 3525 
Q 3050 3375 2925 3050 
L 3625 3150 
L 3775 3350 
L 4050 3075 
L 3875 2900 
Q 3300 825 1850 -225 
L 1800 -100 
Q 3100 975 3625 2900 
Q 3150 2825 3025 2775 
L 2875 2925 
Q 2775 2675 2575 2350 
Q 2900 2125 3050 2000 
z
M 1275 -150 
Q 1425 25 1400 225 
L 1450 3425 
Q 1025 2800 475 2225 
L 400 2325 
Q 875 2850 1450 3887 
Q 2025 4925 1925 5150 
L 2000 5175 
L 2250 4700 
Q 2200 4725 2062 4475 
Q 1925 4225 1675 3800 
L 1625 -325 
Q 1650 -675 1525 -600 
L 1275 -150 
z
M 5475 250 
Q 5475 -300 5300 -650 
Q 4900 -100 4300 375 
L 4350 475 
L 5200 -75 
Q 5250 250 5250 575 
L 5250 4350 
Q 5275 4950 5100 5150 
L 5175 5225 
L 5600 4850 
Q 5450 4775 5475 4325 
L 5475 250 
z
M 4300 1525 
Q 4400 1650 4400 1900 
L 4400 3075 
Q 4425 3525 4300 3750 
L 4350 3800 
L 4725 3450 
Q 4600 3350 4625 3025 
L 4625 1375 
Q 4625 1050 4550 1125 
L 4300 1525 
z
" transform="scale(0.015625)"/>
      </defs>
      <use xlink:href="#FangSong-7d2f"/>
      <use xlink:href="#FangSong-8ba1" x="100"/>
      <use xlink:href="#FangSong-5b8c" x="200"/>
      <use xlink:href="#FangSong-6210" x="300"/>
      <use xlink:href="#FangSong-6bd4" x="400"/>
      <use xlink:href="#FangSong-4f8b" x="500"/>
     </g>
    </g>
   </g>
   <g id="line2d_15">
    <path d="M 73.832727 295.488 
L 74.288703 180.33408 
L 74.744678 180.09216 
L 75.200654 180.09216 
L 75.656629 179.85024 
L 76.112605 179.85024 
L 76.56858 179.3664 
L 77.480531 178.88256 
L 77.936507 178.1568 
L 78.392482 177.91488 
L 79.304433 176.9472 
L 79.760409 176.70528 
L 80.216384 175.97952 
L 80.67236 175.7376 
L 81.128335 175.7376 
L 81.584311 174.76992 
L 82.040286 174.528 
L 82.496261 174.04416 
L 82.952237 173.07648 
L 83.408212 172.59264 
L 84.320163 172.1088 
L 84.776139 171.62496 
L 85.232114 170.8992 
L 86.144065 170.8992 
L 86.600041 169.6896 
L 87.511992 168.72192 
L 88.879918 167.99616 
L 89.791869 166.0608 
L 90.247845 165.57696 
L 90.70382 164.8512 
L 91.159796 163.88352 
L 91.615771 163.39968 
L 92.071747 163.39968 
L 92.527722 162.91584 
L 92.983698 162.67392 
L 93.439673 161.94816 
L 94.351624 159.77088 
L 94.8076 159.52896 
L 95.263575 158.56128 
L 95.719551 158.07744 
L 96.175526 157.35168 
L 96.631502 157.35168 
L 97.543453 156.384 
L 97.999428 156.14208 
L 98.455403 155.41632 
L 99.367354 152.7552 
L 99.82333 152.27136 
L 100.279305 152.27136 
L 100.735281 151.78752 
L 101.191256 150.57792 
L 101.647232 149.85216 
L 102.103207 148.88448 
L 102.559183 148.88448 
L 103.015158 148.64256 
L 103.471134 148.15872 
L 104.383085 146.7072 
L 105.751011 145.98144 
L 106.206987 145.4976 
L 107.118938 145.01376 
L 108.030889 143.32032 
L 108.486864 142.59456 
L 108.94284 141.38496 
L 109.398815 141.14304 
L 109.854791 140.6592 
L 110.310766 139.93344 
L 110.766742 139.4496 
L 111.222717 138.48192 
L 111.678693 137.99808 
L 112.590644 136.30464 
L 113.95857 134.12736 
L 114.870521 133.64352 
L 116.238447 132.192 
L 116.694423 131.46624 
L 117.150398 131.46624 
L 117.606374 131.22432 
L 118.518325 131.22432 
L 118.9743 130.9824 
L 119.430276 130.25664 
L 119.886251 130.01472 
L 120.342227 129.53088 
L 120.798202 129.28896 
L 121.254178 128.32128 
L 121.710153 128.07936 
L 123.534055 128.07936 
L 124.446006 127.59552 
L 124.901982 127.59552 
L 125.357957 127.11168 
L 125.813933 126.38592 
L 126.269908 126.38592 
L 126.725884 125.41824 
L 127.181859 125.17632 
L 128.09381 124.20864 
L 128.549785 123.96672 
L 129.461736 123.96672 
L 130.829663 122.5152 
L 132.197589 121.78944 
L 132.653565 121.3056 
L 133.565516 121.3056 
L 134.021491 120.82176 
L 134.477467 120.57984 
L 134.933442 120.57984 
L 136.757344 119.61216 
L 138.125271 118.16064 
L 138.581246 117.91872 
L 139.037222 117.43488 
L 139.493197 117.43488 
L 140.405148 116.95104 
L 140.861124 116.4672 
L 141.317099 116.22528 
L 142.22905 116.22528 
L 142.685026 115.2576 
L 143.141001 115.01568 
L 143.596977 115.01568 
L 144.052952 114.53184 
L 144.964903 114.53184 
L 145.420878 114.28992 
L 145.876854 113.80608 
L 146.332829 113.80608 
L 147.24478 112.8384 
L 147.700756 112.8384 
L 148.156731 112.59648 
L 149.524658 111.14496 
L 150.892584 110.4192 
L 151.34856 110.4192 
L 151.804535 110.17728 
L 152.260511 109.2096 
L 153.172462 108.24192 
L 153.628437 108 
L 154.084413 108 
L 154.540388 107.75808 
L 154.996364 107.75808 
L 156.36429 107.03232 
L 156.820266 107.03232 
L 157.276241 105.82272 
L 157.732217 105.82272 
L 158.644168 105.33888 
L 159.100143 104.85504 
L 160.012094 104.3712 
L 160.924045 104.3712 
L 161.38002 103.88736 
L 161.835996 103.1616 
L 162.291971 102.67776 
L 163.203922 102.19392 
L 163.659898 101.71008 
L 164.115873 100.98432 
L 164.571849 100.98432 
L 165.027824 100.7424 
L 165.4838 100.25856 
L 165.939775 100.01664 
L 166.851726 100.01664 
L 168.219653 99.29088 
L 169.131604 99.29088 
L 169.587579 99.04896 
L 171.867457 99.04896 
L 172.779408 98.56512 
L 173.691359 98.56512 
L 174.147334 98.3232 
L 174.603309 97.83936 
L 175.059285 97.59744 
L 175.51526 97.59744 
L 176.427211 97.1136 
L 176.883187 96.62976 
L 177.339162 96.38784 
L 179.163064 96.38784 
L 179.61904 96.14592 
L 180.075015 96.14592 
L 180.986966 95.66208 
L 181.442942 94.93632 
L 181.898917 94.45248 
L 182.810868 93.96864 
L 183.722819 93.96864 
L 184.178795 93.72672 
L 186.458672 93.72672 
L 186.914648 93.4848 
L 187.826599 93.4848 
L 188.282574 92.75904 
L 189.650501 92.03328 
L 190.106476 92.03328 
L 191.018427 91.54944 
L 191.474402 91.54944 
L 191.930378 91.30752 
L 192.386353 90.58176 
L 192.842329 90.33984 
L 193.298304 90.33984 
L 194.210255 89.856 
L 194.666231 89.856 
L 196.034157 89.13024 
L 196.946108 89.13024 
L 197.402084 88.88832 
L 200.593912 88.88832 
L 201.049888 88.16256 
L 201.505863 88.16256 
L 203.329765 87.19488 
L 205.153667 87.19488 
L 206.977569 86.2272 
L 207.433544 86.2272 
L 207.88952 85.98528 
L 208.801471 85.98528 
L 209.713422 85.50144 
L 211.081348 85.50144 
L 211.993299 85.0176 
L 212.90525 85.0176 
L 213.361226 84.77568 
L 214.729152 84.77568 
L 215.185128 84.53376 
L 215.641103 84.04992 
L 217.00903 83.32416 
L 217.465005 82.84032 
L 217.920981 82.84032 
L 218.376956 82.35648 
L 218.832932 82.11456 
L 219.288907 82.11456 
L 219.744883 81.87264 
L 220.200858 81.87264 
L 220.656834 81.63072 
L 221.112809 81.63072 
L 221.568784 81.3888 
L 222.480735 81.3888 
L 222.936711 81.14688 
L 223.392686 81.14688 
L 223.848662 80.66304 
L 224.304637 80.66304 
L 225.216588 79.69536 
L 226.128539 79.21152 
L 226.584515 79.21152 
L 227.04049 78.9696 
L 227.496466 78.48576 
L 227.952441 78.48576 
L 228.408417 78.00192 
L 228.864392 77.76 
L 229.320368 77.76 
L 229.776343 77.51808 
L 230.232319 77.03424 
L 230.688294 77.03424 
L 231.14427 76.5504 
L 232.968172 76.5504 
L 233.424147 76.30848 
L 233.880123 76.30848 
L 234.336098 75.82464 
L 234.792074 75.82464 
L 235.248049 75.58272 
L 235.704025 75.58272 
L 236.16 75.3408 
L 236.615975 74.61504 
L 237.071951 74.61504 
L 237.527926 74.1312 
L 237.983902 73.88928 
L 238.895853 73.88928 
L 239.807804 73.40544 
L 243.911583 73.40544 
L 245.735485 72.43776 
L 246.191461 71.95392 
L 246.647436 71.712 
L 250.29524 71.712 
L 250.751216 71.22816 
L 252.119142 71.22816 
L 252.575117 70.5024 
L 253.487068 70.01856 
L 255.766946 70.01856 
L 256.222921 69.53472 
L 258.046823 69.53472 
L 258.502799 69.2928 
L 258.958774 69.2928 
L 259.41475 68.80896 
L 259.870725 68.56704 
L 260.326701 68.56704 
L 260.782676 67.84128 
L 261.238652 67.84128 
L 261.694627 67.35744 
L 262.606578 67.35744 
L 263.062554 67.11552 
L 263.518529 67.11552 
L 264.886456 66.38976 
L 265.798407 66.38976 
L 266.254382 65.90592 
L 267.622308 65.90592 
L 268.078284 65.42208 
L 268.990235 65.42208 
L 269.44621 65.18016 
L 270.358161 65.18016 
L 270.814137 64.69632 
L 271.270112 64.69632 
L 271.726088 64.21248 
L 272.638039 64.21248 
L 273.094014 63.97056 
L 273.54999 63.97056 
L 274.005965 63.72864 
L 274.461941 63.72864 
L 274.917916 63.48672 
L 275.373892 63.00288 
L 276.285843 63.00288 
L 276.741818 62.76096 
L 277.197794 62.76096 
L 277.653769 62.27712 
L 279.477671 62.27712 
L 279.933647 62.0352 
L 280.845598 62.0352 
L 281.757549 61.55136 
L 282.213524 61.55136 
L 282.669499 61.06752 
L 285.861328 61.06752 
L 286.317303 60.8256 
L 287.229254 60.8256 
L 287.68523 60.09984 
L 291.789009 60.09984 
L 292.244985 59.85792 
L 294.980838 59.85792 
L 295.436813 59.616 
L 295.892789 59.616 
L 296.348764 59.37408 
L 296.80474 59.37408 
L 297.260715 59.13216 
L 298.628641 59.13216 
L 299.084617 58.89024 
L 300.908519 58.89024 
L 301.364494 58.64832 
L 302.276445 58.64832 
L 302.732421 58.4064 
L 305.924249 58.4064 
L 306.380225 58.16448 
L 308.660102 58.16448 
L 309.116078 57.92256 
L 312.307906 57.92256 
L 313.219857 57.43872 
L 315.95571 57.43872 
L 316.411685 57.1968 
L 317.323636 57.1968 
L 317.779612 56.95488 
L 319.147538 56.95488 
L 319.603514 56.71296 
L 322.795342 56.71296 
L 323.251318 56.22912 
L 323.707293 56.22912 
L 324.619244 55.74528 
L 326.443146 55.74528 
L 326.899122 55.50336 
L 328.723023 55.50336 
L 329.178999 55.26144 
L 332.826803 55.26144 
L 333.738754 54.7776 
L 334.650705 54.7776 
L 335.10668 54.53568 
L 344.22619 54.53568 
L 344.682165 54.29376 
L 347.873994 54.29376 
L 348.329969 54.05184 
L 351.977773 54.05184 
L 352.433749 53.80992 
L 398.031297 53.80992 
L 398.487273 53.568 
L 398.487273 53.568 
" clip-path="url(#p7fe00a81e2)" style="fill: none; stroke: #ff0000; stroke-linecap: square"/>
   </g>
   <g id="line2d_16">
    <path d="M 73.832727 295.488 
L 74.288703 212.725895 
L 77.480531 212.725895 
L 77.936507 211.452632 
L 78.392482 211.452632 
L 79.760409 207.632842 
L 83.408212 207.632842 
L 83.864188 206.359579 
L 84.776139 206.359579 
L 85.232114 205.086316 
L 88.879918 205.086316 
L 89.335894 203.813053 
L 90.70382 203.813053 
L 91.159796 201.266526 
L 92.071747 201.266526 
L 92.527722 199.993263 
L 92.983698 199.993263 
L 93.895649 197.446737 
L 94.351624 194.900211 
L 94.8076 194.900211 
L 96.175526 191.080421 
L 96.631502 191.080421 
L 97.087477 189.807158 
L 97.543453 189.807158 
L 97.999428 188.533895 
L 98.455403 188.533895 
L 98.911379 187.260632 
L 103.927109 187.260632 
L 104.383085 184.714105 
L 105.751011 184.714105 
L 106.206987 183.440842 
L 107.574913 183.440842 
L 108.030889 182.167579 
L 108.486864 182.167579 
L 109.398815 179.621053 
L 110.310766 179.621053 
L 111.222717 177.074526 
L 113.502594 177.074526 
L 113.95857 175.801263 
L 115.782472 175.801263 
L 116.238447 174.528 
L 119.886251 174.528 
L 121.254178 170.708211 
L 124.901982 170.708211 
L 125.813933 168.161684 
L 126.269908 168.161684 
L 126.725884 164.341895 
L 127.181859 164.341895 
L 127.637835 161.795368 
L 128.09381 161.795368 
L 128.549785 160.522105 
L 131.741614 160.522105 
L 132.653565 157.975579 
L 135.389418 157.975579 
L 135.845393 156.702316 
L 136.301369 156.702316 
L 137.21332 154.155789 
L 139.949173 154.155789 
L 140.405148 152.882526 
L 140.861124 152.882526 
L 141.317099 151.609263 
L 142.22905 151.609263 
L 143.141001 149.062737 
L 148.156731 149.062737 
L 149.068682 146.516211 
L 151.34856 146.516211 
L 151.804535 145.242947 
L 152.260511 145.242947 
L 152.716486 142.696421 
L 153.172462 141.423158 
L 156.820266 141.423158 
L 157.276241 138.876632 
L 158.644168 138.876632 
L 160.012094 135.056842 
L 160.924045 135.056842 
L 161.38002 133.783579 
L 161.835996 133.783579 
L 162.291971 132.510316 
L 163.203922 132.510316 
L 164.115873 129.963789 
L 165.027824 129.963789 
L 165.4838 127.417263 
L 167.763677 127.417263 
L 168.219653 126.144 
L 171.867457 126.144 
L 172.323432 124.870737 
L 174.147334 124.870737 
L 174.603309 123.597474 
L 175.51526 123.597474 
L 177.339162 118.504421 
L 180.986966 118.504421 
L 181.442942 115.957895 
L 183.722819 115.957895 
L 184.178795 114.684632 
L 191.474402 114.684632 
L 192.842329 110.864842 
L 193.75428 110.864842 
L 194.210255 109.591579 
L 194.666231 109.591579 
L 195.122206 108.318316 
L 195.578182 108.318316 
L 196.034157 107.045053 
L 200.593912 107.045053 
L 201.049888 105.771789 
L 202.417814 105.771789 
L 202.87379 104.498526 
L 205.153667 104.498526 
L 205.609642 103.225263 
L 206.521593 103.225263 
L 206.977569 101.952 
L 212.90525 101.952 
L 213.361226 100.678737 
L 216.097079 100.678737 
L 216.553054 99.405474 
L 220.200858 99.405474 
L 220.656834 98.132211 
L 224.304637 98.132211 
L 224.760613 96.858947 
L 225.216588 96.858947 
L 225.672564 95.585684 
L 227.952441 95.585684 
L 228.864392 93.039158 
L 229.776343 93.039158 
L 230.232319 91.765895 
L 230.688294 91.765895 
L 231.14427 90.492632 
L 233.880123 90.492632 
L 234.336098 89.219368 
L 236.16 89.219368 
L 236.615975 87.946105 
L 237.071951 87.946105 
L 237.983902 85.399579 
L 238.895853 85.399579 
L 239.807804 82.853053 
L 245.735485 82.853053 
L 246.191461 81.579789 
L 250.29524 81.579789 
L 250.751216 80.306526 
L 252.119142 80.306526 
L 252.575117 79.033263 
L 260.326701 79.033263 
L 260.782676 76.486737 
L 262.606578 76.486737 
L 263.062554 75.213474 
L 268.990235 75.213474 
L 269.44621 73.940211 
L 270.358161 73.940211 
L 270.814137 72.666947 
L 272.638039 72.666947 
L 273.094014 71.393684 
L 274.917916 71.393684 
L 275.373892 70.120421 
L 276.285843 70.120421 
L 276.741818 68.847158 
L 277.197794 68.847158 
L 277.653769 67.573895 
L 287.229254 67.573895 
L 287.68523 63.754105 
L 294.980838 63.754105 
L 295.436813 62.480842 
L 300.908519 62.480842 
L 301.364494 61.207579 
L 308.660102 61.207579 
L 309.116078 59.934316 
L 315.95571 59.934316 
L 316.411685 58.661053 
L 317.323636 58.661053 
L 317.779612 57.387789 
L 319.147538 57.387789 
L 319.603514 56.114526 
L 322.795342 56.114526 
L 323.251318 54.841263 
L 326.443146 54.841263 
L 326.899122 53.568 
L 398.487273 53.568 
L 398.487273 53.568 
" clip-path="url(#p7fe00a81e2)" style="fill: none; stroke-dasharray: 1.85,0.8; stroke-dashoffset: 0; stroke: #008000; stroke-width: 0.5"/>
   </g>
   <g id="line2d_17">
    <path d="M 73.832727 295.488 
L 74.288703 213.779921 
L 75.200654 213.779921 
L 75.656629 212.177801 
L 77.480531 212.177801 
L 77.936507 210.575682 
L 78.848458 210.575682 
L 79.304433 208.973563 
L 81.128335 208.973563 
L 82.496261 204.167205 
L 82.952237 204.167205 
L 83.408212 202.565086 
L 84.776139 202.565086 
L 85.232114 199.360848 
L 86.600041 199.360848 
L 88.423943 192.952371 
L 93.439673 192.952371 
L 93.895649 189.748132 
L 94.8076 189.748132 
L 95.263575 188.146013 
L 95.719551 188.146013 
L 96.175526 186.543894 
L 97.087477 186.543894 
L 97.543453 184.941775 
L 97.999428 184.941775 
L 98.911379 181.737536 
L 99.367354 178.533298 
L 100.279305 178.533298 
L 100.735281 176.931179 
L 101.191256 176.931179 
L 101.647232 173.72694 
L 102.103207 172.124821 
L 103.471134 172.124821 
L 103.927109 168.920583 
L 105.751011 168.920583 
L 106.662962 165.716344 
L 108.030889 165.716344 
L 108.486864 162.512106 
L 108.94284 160.909987 
L 110.766742 160.909987 
L 111.222717 157.705748 
L 112.134668 154.50151 
L 113.046619 154.50151 
L 113.95857 151.297272 
L 114.870521 151.297272 
L 115.782472 148.093033 
L 116.238447 148.093033 
L 116.694423 144.888795 
L 120.798202 144.888795 
L 121.254178 141.684556 
L 124.901982 141.684556 
L 125.357957 140.082437 
L 127.637835 140.082437 
L 128.09381 138.480318 
L 129.917712 138.480318 
L 130.829663 135.276079 
L 131.285638 135.276079 
L 131.741614 133.67396 
L 133.565516 133.67396 
L 134.021491 130.469722 
L 136.757344 130.469722 
L 137.21332 128.867603 
L 137.669295 128.867603 
L 138.125271 127.265483 
L 138.581246 127.265483 
L 139.037222 125.663364 
L 139.493197 125.663364 
L 139.949173 124.061245 
L 140.405148 124.061245 
L 140.861124 122.459126 
L 142.22905 122.459126 
L 142.685026 120.857007 
L 143.596977 120.857007 
L 144.052952 119.254887 
L 145.420878 119.254887 
L 145.876854 117.652768 
L 146.788805 117.652768 
L 147.24478 116.050649 
L 147.700756 116.050649 
L 148.156731 114.44853 
L 149.068682 114.44853 
L 149.524658 111.244291 
L 149.980633 109.642172 
L 151.804535 109.642172 
L 152.260511 108.040053 
L 154.084413 108.040053 
L 154.540388 106.437934 
L 155.908315 106.437934 
L 156.36429 104.835815 
L 156.820266 104.835815 
L 157.276241 103.233695 
L 158.188192 103.233695 
L 158.644168 101.631576 
L 161.38002 101.631576 
L 161.835996 100.029457 
L 162.291971 100.029457 
L 162.747947 98.427338 
L 163.659898 98.427338 
L 164.115873 96.825219 
L 169.131604 96.825219 
L 169.587579 95.223099 
L 173.691359 95.223099 
L 175.059285 90.416742 
L 182.354893 90.416742 
L 182.810868 88.814623 
L 191.930378 88.814623 
L 192.386353 87.212503 
L 202.87379 87.212503 
L 203.329765 85.610384 
L 206.065618 85.610384 
L 206.521593 84.008265 
L 208.801471 84.008265 
L 209.257446 82.406146 
L 215.641103 82.406146 
L 216.097079 80.804026 
L 219.288907 80.804026 
L 219.744883 79.201907 
L 223.392686 79.201907 
L 223.848662 77.599788 
L 227.952441 77.599788 
L 228.408417 75.997669 
L 229.776343 75.997669 
L 230.232319 74.39555 
L 234.792074 74.39555 
L 235.248049 72.79343 
L 243.911583 72.79343 
L 244.823534 69.589192 
L 250.29524 69.589192 
L 250.751216 67.987073 
L 252.119142 67.987073 
L 253.487068 63.180715 
L 255.766946 63.180715 
L 256.222921 61.578596 
L 260.326701 61.578596 
L 260.782676 59.976477 
L 261.238652 59.976477 
L 261.694627 58.374358 
L 264.43048 58.374358 
L 264.886456 56.772238 
L 270.358161 56.772238 
L 270.814137 55.170119 
L 274.461941 55.170119 
L 274.917916 53.568 
L 398.487273 53.568 
L 398.487273 53.568 
" clip-path="url(#p7fe00a81e2)" style="fill: none; stroke-dasharray: 1.85,0.8; stroke-dashoffset: 0; stroke: #0000ff; stroke-width: 0.5"/>
   </g>
   <g id="line2d_18">
    <path d="M 73.832727 295.488 
L 74.288703 206.359579 
L 76.112605 206.359579 
L 76.56858 203.176421 
L 82.496261 203.176421 
L 82.952237 201.584842 
L 88.423943 201.584842 
L 88.879918 199.993263 
L 89.791869 199.993263 
L 90.70382 196.810105 
L 94.8076 196.810105 
L 95.263575 195.218526 
L 97.087477 195.218526 
L 97.543453 193.626947 
L 97.999428 193.626947 
L 98.455403 192.035368 
L 98.911379 188.852211 
L 99.82333 185.669053 
L 100.279305 185.669053 
L 100.735281 184.077474 
L 101.191256 180.894316 
L 101.647232 180.894316 
L 102.103207 177.711158 
L 103.015158 177.711158 
L 103.471134 174.528 
L 104.83906 174.528 
L 105.295036 172.936421 
L 106.662962 172.936421 
L 107.118938 171.344842 
L 107.574913 166.570105 
L 108.030889 166.570105 
L 108.486864 164.978526 
L 109.854791 164.978526 
L 110.310766 163.386947 
L 111.678693 163.386947 
L 112.134668 161.795368 
L 113.046619 161.795368 
L 113.502594 160.203789 
L 114.870521 160.203789 
L 115.326496 158.612211 
L 118.518325 158.612211 
L 119.430276 155.429053 
L 126.725884 155.429053 
L 127.181859 153.837474 
L 142.22905 153.837474 
L 142.685026 150.654316 
L 145.420878 150.654316 
L 145.876854 149.062737 
L 149.980633 149.062737 
L 150.892584 145.879579 
L 151.804535 145.879579 
L 152.260511 142.696421 
L 152.716486 142.696421 
L 153.172462 141.104842 
L 155.452339 141.104842 
L 155.908315 139.513263 
L 162.747947 139.513263 
L 163.203922 137.921684 
L 164.571849 137.921684 
L 165.027824 136.330105 
L 167.307702 136.330105 
L 167.763677 134.738526 
L 179.163064 134.738526 
L 179.61904 133.146947 
L 180.075015 133.146947 
L 180.530991 131.555368 
L 181.442942 131.555368 
L 182.354893 128.372211 
L 186.458672 128.372211 
L 186.914648 126.780632 
L 193.298304 126.780632 
L 193.75428 125.189053 
L 205.609642 125.189053 
L 206.065618 123.597474 
L 207.433544 123.597474 
L 207.88952 122.005895 
L 211.081348 122.005895 
L 211.537324 120.414316 
L 215.185128 120.414316 
L 215.641103 117.231158 
L 216.553054 117.231158 
L 217.00903 115.639579 
L 217.465005 112.456421 
L 222.480735 112.456421 
L 222.936711 110.864842 
L 224.304637 110.864842 
L 224.760613 109.273263 
L 225.216588 106.090105 
L 229.320368 106.090105 
L 229.776343 104.498526 
L 236.16 104.498526 
L 236.615975 101.315368 
L 245.27951 101.315368 
L 246.191461 98.132211 
L 255.766946 98.132211 
L 256.222921 96.540632 
L 258.046823 96.540632 
L 258.502799 94.949053 
L 258.958774 94.949053 
L 259.41475 93.357474 
L 267.622308 93.357474 
L 268.078284 91.765895 
L 271.270112 91.765895 
L 271.726088 88.582737 
L 277.197794 88.582737 
L 277.653769 86.991158 
L 280.845598 86.991158 
L 281.301573 85.399579 
L 282.213524 85.399579 
L 282.669499 82.216421 
L 285.861328 82.216421 
L 286.317303 80.624842 
L 295.892789 80.624842 
L 296.348764 79.033263 
L 296.80474 79.033263 
L 297.260715 77.441684 
L 302.276445 77.441684 
L 302.732421 75.850105 
L 305.924249 75.850105 
L 306.380225 74.258526 
L 312.307906 74.258526 
L 313.219857 71.075368 
L 322.795342 71.075368 
L 323.251318 69.483789 
L 323.707293 69.483789 
L 324.619244 66.300632 
L 328.723023 66.300632 
L 329.178999 64.709053 
L 332.826803 64.709053 
L 333.738754 61.525895 
L 334.650705 61.525895 
L 335.10668 59.934316 
L 344.22619 59.934316 
L 344.682165 58.342737 
L 347.873994 58.342737 
L 348.329969 56.751158 
L 351.977773 56.751158 
L 352.433749 55.159579 
L 398.031297 55.159579 
L 398.487273 53.568 
L 398.487273 53.568 
" clip-path="url(#p7fe00a81e2)" style="fill: none; stroke-dasharray: 1.85,0.8; stroke-dashoffset: 0; stroke: #bf00bf; stroke-width: 0.5"/>
   </g>
   <g id="line2d_19">
    <path d="M 73.832727 295.488 
L 74.288703 107.11551 
L 74.744678 106.159304 
L 77.024556 106.159304 
L 77.480531 105.203099 
L 77.936507 105.203099 
L 78.848458 103.290688 
L 79.760409 103.290688 
L 80.216384 101.378277 
L 81.128335 101.378277 
L 81.584311 100.422071 
L 82.496261 100.422071 
L 83.408212 98.50966 
L 84.320163 98.50966 
L 84.776139 97.553455 
L 86.144065 97.553455 
L 86.600041 95.641043 
L 89.335894 95.641043 
L 89.791869 94.684838 
L 91.159796 94.684838 
L 91.615771 93.728632 
L 92.071747 93.728632 
L 92.983698 91.816221 
L 93.439673 89.90381 
L 93.895649 89.90381 
L 94.351624 87.991399 
L 94.8076 87.035194 
L 96.631502 87.035194 
L 97.087477 86.078988 
L 98.455403 86.078988 
L 99.367354 84.166577 
L 100.735281 84.166577 
L 101.191256 82.254166 
L 104.383085 82.254166 
L 104.83906 81.29796 
L 107.118938 81.29796 
L 108.030889 79.385549 
L 110.766742 79.385549 
L 111.222717 78.429344 
L 111.678693 78.429344 
L 112.134668 77.473138 
L 112.590644 75.560727 
L 113.502594 73.648316 
L 114.414545 73.648316 
L 114.870521 72.692111 
L 125.357957 72.692111 
L 125.813933 71.735905 
L 126.269908 71.735905 
L 126.725884 70.7797 
L 129.461736 70.7797 
L 130.373687 68.867289 
L 130.829663 68.867289 
L 131.285638 67.911083 
L 134.021491 67.911083 
L 134.477467 66.954877 
L 138.581246 66.954877 
L 139.037222 65.998672 
L 143.596977 65.998672 
L 144.052952 65.042466 
L 146.332829 65.042466 
L 146.788805 63.130055 
L 156.820266 63.130055 
L 157.276241 62.17385 
L 161.38002 62.17385 
L 161.835996 61.217644 
L 176.427211 61.217644 
L 176.883187 60.261439 
L 180.530991 60.261439 
L 180.986966 59.305233 
L 187.826599 59.305233 
L 188.282574 58.349028 
L 190.106476 58.349028 
L 190.562451 57.392822 
L 201.505863 57.392822 
L 201.961839 56.436617 
L 233.880123 56.436617 
L 234.336098 55.480411 
L 261.238652 55.480411 
L 261.694627 54.524206 
L 263.974505 54.524206 
L 264.43048 53.568 
L 398.487273 53.568 
L 398.487273 53.568 
" clip-path="url(#p7fe00a81e2)" style="fill: none; stroke-dasharray: 1.85,0.8; stroke-dashoffset: 0; stroke: #bfbf00; stroke-width: 0.5"/>
   </g>
   <g id="line2d_20">
    <path d="M 73.832727 295.488 
L 74.288703 193.576819 
L 76.56858 193.576819 
L 77.024556 192.624378 
L 77.480531 192.624378 
L 77.936507 191.671937 
L 79.760409 191.671937 
L 80.67236 189.767055 
L 81.128335 189.767055 
L 81.584311 187.862173 
L 82.040286 187.862173 
L 82.496261 186.909732 
L 82.952237 185.00485 
L 83.864188 185.00485 
L 84.776139 183.099969 
L 86.144065 183.099969 
L 86.600041 180.242646 
L 87.511992 178.337764 
L 88.879918 178.337764 
L 89.791869 172.623118 
L 90.247845 171.670677 
L 91.159796 167.860913 
L 91.615771 166.908472 
L 93.439673 166.908472 
L 94.351624 165.003591 
L 94.8076 165.003591 
L 96.175526 162.146268 
L 97.999428 162.146268 
L 99.82333 158.336504 
L 100.735281 158.336504 
L 102.103207 155.479181 
L 102.559183 155.479181 
L 103.015158 154.52674 
L 103.471134 154.52674 
L 104.383085 152.621858 
L 105.295036 152.621858 
L 105.751011 151.669417 
L 107.574913 151.669417 
L 108.030889 150.716976 
L 108.486864 150.716976 
L 108.94284 147.859654 
L 109.398815 147.859654 
L 110.310766 144.04989 
L 110.766742 143.097449 
L 111.222717 143.097449 
L 112.590644 140.240126 
L 113.046619 138.335244 
L 113.502594 138.335244 
L 114.414545 136.430362 
L 115.326496 136.430362 
L 116.694423 133.573039 
L 117.150398 133.573039 
L 117.606374 132.620598 
L 118.9743 132.620598 
L 119.430276 130.715717 
L 120.342227 128.810835 
L 120.798202 128.810835 
L 121.710153 126.905953 
L 123.534055 126.905953 
L 124.446006 125.001071 
L 125.357957 125.001071 
L 125.813933 124.04863 
L 127.637835 124.04863 
L 128.09381 123.096189 
L 129.461736 123.096189 
L 129.917712 122.143748 
L 130.373687 122.143748 
L 130.829663 121.191307 
L 132.197589 121.191307 
L 132.653565 120.238866 
L 134.933442 120.238866 
L 135.389418 119.286425 
L 135.845393 119.286425 
L 136.301369 118.333984 
L 137.21332 118.333984 
L 137.669295 116.429102 
L 138.581246 114.52422 
L 140.405148 114.52422 
L 140.861124 113.57178 
L 144.964903 113.57178 
L 145.420878 112.619339 
L 146.788805 112.619339 
L 147.24478 111.666898 
L 148.156731 111.666898 
L 149.068682 109.762016 
L 151.804535 109.762016 
L 152.260511 108.809575 
L 153.172462 108.809575 
L 153.628437 107.857134 
L 154.996364 107.857134 
L 155.452339 106.904693 
L 156.820266 106.904693 
L 157.276241 105.952252 
L 157.732217 105.952252 
L 158.188192 104.999811 
L 158.644168 104.999811 
L 159.100143 104.04737 
L 160.924045 104.04737 
L 162.291971 101.190047 
L 163.203922 101.190047 
L 164.115873 99.285165 
L 165.4838 99.285165 
L 165.939775 98.332724 
L 166.851726 98.332724 
L 167.307702 97.380283 
L 172.323432 97.380283 
L 172.779408 96.427843 
L 180.986966 96.427843 
L 181.898917 94.522961 
L 187.826599 94.522961 
L 188.282574 92.618079 
L 189.650501 89.760756 
L 190.562451 89.760756 
L 191.018427 88.808315 
L 191.930378 88.808315 
L 192.386353 87.855874 
L 195.122206 87.855874 
L 195.578182 86.903433 
L 196.946108 86.903433 
L 197.402084 85.950992 
L 200.593912 85.950992 
L 201.049888 84.04611 
L 201.961839 84.04611 
L 202.417814 83.093669 
L 209.257446 83.093669 
L 209.713422 82.141228 
L 211.537324 82.141228 
L 211.993299 81.188787 
L 214.729152 81.188787 
L 215.185128 80.236346 
L 217.920981 80.236346 
L 218.376956 78.331465 
L 218.832932 77.379024 
L 221.112809 77.379024 
L 221.568784 76.426583 
L 223.392686 76.426583 
L 223.848662 75.474142 
L 225.672564 75.474142 
L 226.128539 74.521701 
L 226.584515 74.521701 
L 227.04049 73.56926 
L 227.496466 71.664378 
L 230.688294 71.664378 
L 231.14427 70.711937 
L 232.968172 70.711937 
L 233.424147 69.759496 
L 235.704025 69.759496 
L 236.16 68.807055 
L 237.071951 68.807055 
L 237.527926 67.854614 
L 244.823534 67.854614 
L 245.27951 66.902173 
L 246.191461 66.902173 
L 246.647436 65.949732 
L 252.119142 65.949732 
L 252.575117 64.997291 
L 258.958774 64.997291 
L 259.870725 63.092409 
L 263.518529 63.092409 
L 263.974505 62.139969 
L 265.798407 62.139969 
L 266.254382 60.235087 
L 267.622308 60.235087 
L 268.078284 59.282646 
L 273.54999 59.282646 
L 274.005965 58.330205 
L 274.917916 58.330205 
L 275.373892 57.377764 
L 279.477671 57.377764 
L 279.933647 56.425323 
L 281.301573 56.425323 
L 281.757549 55.472882 
L 291.789009 55.472882 
L 292.244985 54.520441 
L 298.628641 54.520441 
L 299.084617 53.568 
L 398.487273 53.568 
L 398.487273 53.568 
" clip-path="url(#p7fe00a81e2)" style="fill: none; stroke-dasharray: 1.85,0.8; stroke-dashoffset: 0; stroke: #000000; stroke-width: 0.5"/>
   </g>
   <g id="patch_3">
    <path d="M 57.6 307.584 
L 57.6 41.472 
" style="fill: none; stroke: #000000; stroke-width: 0.8; stroke-linejoin: miter; stroke-linecap: square"/>
   </g>
   <g id="patch_4">
    <path d="M 414.72 307.584 
L 414.72 41.472 
" style="fill: none; stroke: #000000; stroke-width: 0.8; stroke-linejoin: miter; stroke-linecap: square"/>
   </g>
   <g id="patch_5">
    <path d="M 57.6 307.584 
L 414.72 307.584 
" style="fill: none; stroke: #000000; stroke-width: 0.8; stroke-linejoin: miter; stroke-linecap: square"/>
   </g>
   <g id="patch_6">
    <path d="M 57.6 41.472 
L 414.72 41.472 
" style="fill: none; stroke: #000000; stroke-width: 0.8; stroke-linejoin: miter; stroke-linecap: square"/>
   </g>
   <g id="text_17">
    <!-- count=1000, googlenet=150, resnet50=187, squeezenetv1=112, vgg19=112, yolov2=187 -->
    <g transform="translate(-3.84 35.472) scale(0.12 -0.12)">
     <defs>
      <path id="FangSong-6f" d="M 2875 1400 
Q 2875 775 2500 362 
Q 2125 -50 1575 -50 
Q 1000 -50 637 375 
Q 275 800 275 1400 
Q 275 1950 637 2400 
Q 1000 2850 1575 2850 
Q 2175 2850 2525 2400 
Q 2875 1950 2875 1400 
z
M 675 1375 
Q 675 725 937 412 
Q 1200 100 1575 100 
Q 2000 100 2237 437 
Q 2475 775 2475 1375 
Q 2475 2025 2212 2362 
Q 1950 2700 1575 2700 
Q 1225 2700 950 2362 
Q 675 2025 675 1375 
z
" transform="scale(0.015625)"/>
      <path id="FangSong-75" d="M 1425 225 
Q 1725 225 1937 375 
Q 2150 525 2250 850 
L 2250 2425 
Q 2250 2525 2200 2587 
Q 2150 2650 2025 2650 
L 1875 2650 
L 1875 2800 
L 2025 2800 
Q 2175 2800 2300 2825 
Q 2425 2850 2550 2950 
L 2600 2950 
L 2600 500 
Q 2600 400 2662 350 
Q 2725 300 2825 300 
L 2975 300 
L 2975 150 
L 2825 150 
Q 2700 150 2575 112 
Q 2450 75 2300 0 
L 2250 0 
L 2250 525 
Q 2125 250 1875 112 
Q 1625 -25 1300 -25 
Q 900 -25 700 200 
Q 500 425 500 925 
L 500 2425 
Q 500 2525 450 2587 
Q 400 2650 275 2650 
L 125 2650 
L 125 2800 
L 275 2800 
Q 425 2800 550 2825 
Q 675 2850 800 2950 
L 850 2950 
L 850 875 
Q 850 525 1000 375 
Q 1150 225 1425 225 
z
" transform="scale(0.015625)"/>
      <path id="FangSong-3d" d="M 175 2725 
L 175 2950 
L 2950 2950 
L 2950 2725 
L 175 2725 
z
M 175 1450 
L 175 1675 
L 2950 1675 
L 2950 1450 
L 175 1450 
z
" transform="scale(0.015625)"/>
      <path id="FangSong-2c" d="M 1325 75 
Q 1200 25 1100 75 
Q 1000 125 962 237 
Q 925 350 925 437 
Q 925 525 987 612 
Q 1050 700 1150 737 
Q 1250 775 1425 725 
Q 1600 675 1650 500 
Q 1700 325 1662 150 
Q 1625 -25 1525 -200 
Q 1425 -375 1312 -475 
Q 1200 -575 1025 -675 
L 950 -575 
Q 1100 -450 1187 -312 
Q 1275 -175 1325 75 
z
" transform="scale(0.015625)"/>
      <path id="FangSong-20" transform="scale(0.015625)"/>
      <path id="FangSong-67" d="M 850 1875 
Q 850 1575 1025 1362 
Q 1200 1150 1500 1150 
Q 1825 1150 1987 1337 
Q 2150 1525 2150 1875 
Q 2150 2300 1962 2487 
Q 1775 2675 1500 2675 
Q 1225 2675 1037 2487 
Q 850 2300 850 1875 
z
M 2075 525 
Q 2450 475 2625 312 
Q 2800 150 2800 -125 
Q 2800 -500 2487 -725 
Q 2175 -950 1500 -950 
Q 975 -950 650 -737 
Q 325 -525 325 -250 
Q 325 -75 450 100 
Q 575 275 850 375 
Q 700 450 612 537 
Q 525 625 525 750 
Q 525 900 625 1012 
Q 725 1125 875 1200 
Q 725 1325 612 1500 
Q 500 1675 500 1875 
Q 500 2250 762 2537 
Q 1025 2825 1500 2825 
Q 1700 2825 1887 2775 
Q 2075 2725 2200 2600 
Q 2375 2725 2512 2787 
Q 2650 2850 2750 2850 
Q 2875 2850 2925 2762 
Q 2975 2675 2975 2600 
Q 2975 2500 2937 2437 
Q 2900 2375 2800 2375 
Q 2725 2375 2675 2412 
Q 2625 2450 2600 2525 
Q 2575 2600 2487 2587 
Q 2400 2575 2300 2500 
Q 2400 2400 2450 2225 
Q 2500 2050 2500 1875 
Q 2500 1575 2262 1287 
Q 2025 1000 1500 1000 
Q 1350 1000 1225 1037 
Q 1100 1075 1025 1125 
Q 925 1075 875 1000 
Q 825 925 825 875 
Q 825 775 875 725 
Q 925 675 1025 675 
Q 1350 625 1612 587 
Q 1875 550 2075 525 
z
M 1050 325 
Q 825 225 737 87 
Q 650 -50 650 -250 
Q 650 -450 875 -625 
Q 1100 -800 1550 -800 
Q 1975 -800 2225 -662 
Q 2475 -525 2475 -250 
Q 2475 -75 2412 25 
Q 2350 125 2225 150 
Q 1975 200 1675 237 
Q 1375 275 1050 325 
z
" transform="scale(0.015625)"/>
      <path id="FangSong-6c" d="M 900 4275 
Q 1125 4275 1325 4325 
Q 1525 4375 1700 4475 
L 1750 4475 
L 1750 350 
Q 1750 250 1812 200 
Q 1875 150 1975 150 
L 2550 150 
L 2550 0 
L 600 0 
L 600 150 
L 1175 150 
Q 1300 150 1350 200 
Q 1400 250 1400 350 
L 1400 3925 
Q 1400 4025 1350 4075 
Q 1300 4125 1175 4125 
L 625 4125 
L 625 4275 
L 900 4275 
z
" transform="scale(0.015625)"/>
      <path id="FangSong-72" d="M 1250 2025 
Q 1500 2425 1787 2637 
Q 2075 2850 2375 2850 
Q 2625 2850 2762 2737 
Q 2900 2625 2900 2475 
Q 2900 2350 2837 2275 
Q 2775 2200 2650 2200 
Q 2525 2200 2462 2275 
Q 2400 2350 2425 2475 
Q 2425 2550 2400 2600 
Q 2375 2650 2250 2650 
Q 2050 2650 1762 2400 
Q 1475 2150 1250 1700 
L 1250 350 
Q 1250 250 1312 200 
Q 1375 150 1475 150 
L 2025 150 
L 2025 0 
L 175 0 
L 175 150 
L 675 150 
Q 800 150 850 200 
Q 900 250 900 350 
L 900 2425 
Q 900 2525 850 2587 
Q 800 2650 675 2650 
L 200 2650 
L 200 2800 
L 400 2800 
Q 575 2800 812 2837 
Q 1050 2875 1175 2925 
L 1250 2925 
L 1250 2025 
z
" transform="scale(0.015625)"/>
      <path id="FangSong-73" d="M 600 2075 
Q 600 2450 887 2650 
Q 1175 2850 1575 2850 
Q 1800 2850 2000 2787 
Q 2200 2725 2275 2725 
Q 2350 2725 2400 2750 
Q 2450 2775 2525 2850 
L 2625 2025 
L 2475 2000 
Q 2375 2325 2137 2512 
Q 1900 2700 1600 2700 
Q 1275 2700 1087 2575 
Q 900 2450 900 2225 
Q 900 2025 987 1912 
Q 1075 1800 1300 1750 
Q 1475 1675 1737 1587 
Q 2000 1500 2225 1400 
Q 2425 1300 2562 1137 
Q 2700 975 2700 775 
Q 2700 400 2437 187 
Q 2175 -25 1675 -25 
Q 1350 -25 1187 37 
Q 1025 100 925 100 
Q 850 100 762 62 
Q 675 25 575 -25 
L 500 900 
L 650 925 
Q 725 525 975 325 
Q 1225 125 1675 125 
Q 2025 125 2212 250 
Q 2400 375 2400 625 
Q 2400 800 2300 912 
Q 2200 1025 2100 1075 
Q 1850 1175 1550 1287 
Q 1250 1400 1025 1500 
Q 800 1600 700 1750 
Q 600 1900 600 2075 
z
" transform="scale(0.015625)"/>
      <path id="FangSong-71" d="M 2250 2150 
Q 2150 2375 1975 2512 
Q 1800 2650 1550 2650 
Q 1200 2650 950 2350 
Q 700 2050 700 1325 
Q 700 700 912 437 
Q 1125 175 1450 175 
Q 1725 175 1937 300 
Q 2150 425 2250 725 
L 2250 2150 
z
M 2600 -550 
Q 2600 -675 2662 -725 
Q 2725 -775 2825 -775 
L 2975 -775 
L 2975 -925 
L 1825 -925 
L 1825 -775 
L 2025 -775 
Q 2150 -775 2200 -725 
Q 2250 -675 2250 -550 
L 2250 375 
Q 2100 175 1887 75 
Q 1675 -25 1375 -25 
Q 950 -25 625 337 
Q 300 700 300 1400 
Q 300 2075 675 2450 
Q 1050 2825 1475 2825 
Q 1750 2825 1937 2725 
Q 2125 2625 2275 2475 
L 2500 2800 
L 2600 2800 
L 2600 -550 
z
" transform="scale(0.015625)"/>
      <path id="FangSong-7a" d="M 2725 975 
L 2550 0 
L 400 0 
L 400 125 
L 2125 2650 
L 1200 2650 
Q 975 2650 825 2487 
Q 675 2325 575 1925 
L 425 1950 
L 525 2800 
L 2575 2800 
L 2575 2725 
L 825 150 
L 1775 150 
Q 2100 150 2287 350 
Q 2475 550 2575 1000 
L 2725 975 
z
" transform="scale(0.015625)"/>
      <path id="FangSong-76" d="M 1600 -25 
L 1450 -25 
L 600 2425 
Q 575 2525 500 2587 
Q 425 2650 325 2650 
L 200 2650 
L 200 2800 
L 1275 2800 
L 1275 2650 
L 1175 2650 
Q 1025 2650 987 2575 
Q 950 2500 1000 2325 
L 1600 575 
L 1650 575 
L 2250 2300 
Q 2325 2475 2262 2562 
Q 2200 2650 2050 2650 
L 2000 2650 
L 2000 2800 
L 2900 2800 
L 2900 2650 
L 2850 2650 
Q 2700 2650 2612 2562 
Q 2525 2475 2450 2300 
L 1600 -25 
z
" transform="scale(0.015625)"/>
      <path id="FangSong-39" d="M 675 2950 
Q 675 2400 887 2112 
Q 1100 1825 1425 1825 
Q 1800 1825 2075 2175 
Q 2350 2525 2350 2825 
Q 2350 3425 2150 3787 
Q 1950 4150 1500 4150 
Q 1075 4150 875 3812 
Q 675 3475 675 2950 
z
M 1350 1600 
Q 850 1600 550 1912 
Q 250 2225 250 2925 
Q 250 3525 575 3925 
Q 900 4325 1500 4325 
Q 2125 4325 2475 3825 
Q 2825 3325 2825 2375 
Q 2825 1325 2412 637 
Q 2000 -50 1275 -50 
Q 950 -50 712 100 
Q 475 250 475 500 
Q 475 600 537 700 
Q 600 800 750 800 
Q 900 800 950 687 
Q 1000 575 1000 425 
Q 1000 325 1025 262 
Q 1050 200 1075 175 
Q 1100 150 1162 137 
Q 1225 125 1300 125 
Q 1750 125 2025 625 
Q 2300 1125 2350 2300 
Q 2225 2000 1975 1800 
Q 1725 1600 1350 1600 
z
" transform="scale(0.015625)"/>
     </defs>
     <use xlink:href="#FangSong-63"/>
     <use xlink:href="#FangSong-6f" x="50"/>
     <use xlink:href="#FangSong-75" x="100"/>
     <use xlink:href="#FangSong-6e" x="150"/>
     <use xlink:href="#FangSong-74" x="200"/>
     <use xlink:href="#FangSong-3d" x="250"/>
     <use xlink:href="#FangSong-31" x="300"/>
     <use xlink:href="#FangSong-30" x="350"/>
     <use xlink:href="#FangSong-30" x="400"/>
     <use xlink:href="#FangSong-30" x="450"/>
     <use xlink:href="#FangSong-2c" x="500"/>
     <use xlink:href="#FangSong-20" x="550"/>
     <use xlink:href="#FangSong-67" x="600"/>
     <use xlink:href="#FangSong-6f" x="650"/>
     <use xlink:href="#FangSong-6f" x="700"/>
     <use xlink:href="#FangSong-67" x="750"/>
     <use xlink:href="#FangSong-6c" x="800"/>
     <use xlink:href="#FangSong-65" x="850"/>
     <use xlink:href="#FangSong-6e" x="900"/>
     <use xlink:href="#FangSong-65" x="950"/>
     <use xlink:href="#FangSong-74" x="1000"/>
     <use xlink:href="#FangSong-3d" x="1050"/>
     <use xlink:href="#FangSong-31" x="1100"/>
     <use xlink:href="#FangSong-35" x="1150"/>
     <use xlink:href="#FangSong-30" x="1200"/>
     <use xlink:href="#FangSong-2c" x="1250"/>
     <use xlink:href="#FangSong-20" x="1300"/>
     <use xlink:href="#FangSong-72" x="1350"/>
     <use xlink:href="#FangSong-65" x="1400"/>
     <use xlink:href="#FangSong-73" x="1450"/>
     <use xlink:href="#FangSong-6e" x="1500"/>
     <use xlink:href="#FangSong-65" x="1550"/>
     <use xlink:href="#FangSong-74" x="1600"/>
     <use xlink:href="#FangSong-35" x="1650"/>
     <use xlink:href="#FangSong-30" x="1700"/>
     <use xlink:href="#FangSong-3d" x="1750"/>
     <use xlink:href="#FangSong-31" x="1800"/>
     <use xlink:href="#FangSong-38" x="1850"/>
     <use xlink:href="#FangSong-37" x="1900"/>
     <use xlink:href="#FangSong-2c" x="1950"/>
     <use xlink:href="#FangSong-20" x="2000"/>
     <use xlink:href="#FangSong-73" x="2050"/>
     <use xlink:href="#FangSong-71" x="2100"/>
     <use xlink:href="#FangSong-75" x="2150"/>
     <use xlink:href="#FangSong-65" x="2200"/>
     <use xlink:href="#FangSong-65" x="2250"/>
     <use xlink:href="#FangSong-7a" x="2300"/>
     <use xlink:href="#FangSong-65" x="2350"/>
     <use xlink:href="#FangSong-6e" x="2400"/>
     <use xlink:href="#FangSong-65" x="2450"/>
     <use xlink:href="#FangSong-74" x="2500"/>
     <use xlink:href="#FangSong-76" x="2550"/>
     <use xlink:href="#FangSong-31" x="2600"/>
     <use xlink:href="#FangSong-3d" x="2650"/>
     <use xlink:href="#FangSong-31" x="2700"/>
     <use xlink:href="#FangSong-31" x="2750"/>
     <use xlink:href="#FangSong-32" x="2800"/>
     <use xlink:href="#FangSong-2c" x="2850"/>
     <use xlink:href="#FangSong-20" x="2900"/>
     <use xlink:href="#FangSong-76" x="2950"/>
     <use xlink:href="#FangSong-67" x="3000"/>
     <use xlink:href="#FangSong-67" x="3050"/>
     <use xlink:href="#FangSong-31" x="3100"/>
     <use xlink:href="#FangSong-39" x="3150"/>
     <use xlink:href="#FangSong-3d" x="3200"/>
     <use xlink:href="#FangSong-31" x="3250"/>
     <use xlink:href="#FangSong-31" x="3300"/>
     <use xlink:href="#FangSong-32" x="3350"/>
     <use xlink:href="#FangSong-2c" x="3400"/>
     <use xlink:href="#FangSong-20" x="3450"/>
     <use xlink:href="#FangSong-79" x="3500"/>
     <use xlink:href="#FangSong-6f" x="3550"/>
     <use xlink:href="#FangSong-6c" x="3600"/>
     <use xlink:href="#FangSong-6f" x="3650"/>
     <use xlink:href="#FangSong-76" x="3700"/>
     <use xlink:href="#FangSong-32" x="3750"/>
     <use xlink:href="#FangSong-3d" x="3800"/>
     <use xlink:href="#FangSong-31" x="3850"/>
     <use xlink:href="#FangSong-38" x="3900"/>
     <use xlink:href="#FangSong-37" x="3950"/>
    </g>
   </g>
   <g id="legend_1">
    <g id="patch_7">
     <path d="M 315.72 302.584 
L 407.72 302.584 
Q 409.72 302.584 409.72 300.584 
L 409.72 220.794937 
Q 409.72 218.794937 407.72 218.794937 
L 315.72 218.794937 
Q 313.72 218.794937 313.72 220.794937 
L 313.72 300.584 
Q 313.72 302.584 315.72 302.584 
z
" style="fill: #ffffff; opacity: 0.8; stroke: #cccccc; stroke-linejoin: miter"/>
    </g>
    <g id="line2d_21">
     <path d="M 317.72 226.294937 
L 327.72 226.294937 
L 337.72 226.294937 
" style="fill: none; stroke: #ff0000; stroke-linecap: square"/>
    </g>
    <g id="text_18">
     <!-- total -->
     <g transform="translate(345.72 229.794937) scale(0.1 -0.1)">
      <use xlink:href="#FangSong-74"/>
      <use xlink:href="#FangSong-6f" x="50"/>
      <use xlink:href="#FangSong-74" x="100"/>
      <use xlink:href="#FangSong-61" x="150"/>
      <use xlink:href="#FangSong-6c" x="200"/>
     </g>
    </g>
    <g id="line2d_22">
     <path d="M 317.72 239.74025 
L 327.72 239.74025 
L 337.72 239.74025 
" style="fill: none; stroke-dasharray: 1.85,0.8; stroke-dashoffset: 0; stroke: #008000; stroke-width: 0.5"/>
    </g>
    <g id="text_19">
     <!-- googlenet -->
     <g transform="translate(345.72 243.24025) scale(0.1 -0.1)">
      <use xlink:href="#FangSong-67"/>
      <use xlink:href="#FangSong-6f" x="50"/>
      <use xlink:href="#FangSong-6f" x="100"/>
      <use xlink:href="#FangSong-67" x="150"/>
      <use xlink:href="#FangSong-6c" x="200"/>
      <use xlink:href="#FangSong-65" x="250"/>
      <use xlink:href="#FangSong-6e" x="300"/>
      <use xlink:href="#FangSong-65" x="350"/>
      <use xlink:href="#FangSong-74" x="400"/>
     </g>
    </g>
    <g id="line2d_23">
     <path d="M 317.72 253.224625 
L 327.72 253.224625 
L 337.72 253.224625 
" style="fill: none; stroke-dasharray: 1.85,0.8; stroke-dashoffset: 0; stroke: #0000ff; stroke-width: 0.5"/>
    </g>
    <g id="text_20">
     <!-- yolov2 -->
     <g transform="translate(345.72 256.724625) scale(0.1 -0.1)">
      <use xlink:href="#FangSong-79"/>
      <use xlink:href="#FangSong-6f" x="50"/>
      <use xlink:href="#FangSong-6c" x="100"/>
      <use xlink:href="#FangSong-6f" x="150"/>
      <use xlink:href="#FangSong-76" x="200"/>
      <use xlink:href="#FangSong-32" x="250"/>
     </g>
    </g>
    <g id="line2d_24">
     <path d="M 317.72 266.709 
L 327.72 266.709 
L 337.72 266.709 
" style="fill: none; stroke-dasharray: 1.85,0.8; stroke-dashoffset: 0; stroke: #bf00bf; stroke-width: 0.5"/>
    </g>
    <g id="text_21">
     <!-- resnet50 -->
     <g transform="translate(345.72 270.209) scale(0.1 -0.1)">
      <use xlink:href="#FangSong-72"/>
      <use xlink:href="#FangSong-65" x="50"/>
      <use xlink:href="#FangSong-73" x="100"/>
      <use xlink:href="#FangSong-6e" x="150"/>
      <use xlink:href="#FangSong-65" x="200"/>
      <use xlink:href="#FangSong-74" x="250"/>
      <use xlink:href="#FangSong-35" x="300"/>
      <use xlink:href="#FangSong-30" x="350"/>
     </g>
    </g>
    <g id="line2d_25">
     <path d="M 317.72 280.154312 
L 327.72 280.154312 
L 337.72 280.154312 
" style="fill: none; stroke-dasharray: 1.85,0.8; stroke-dashoffset: 0; stroke: #bfbf00; stroke-width: 0.5"/>
    </g>
    <g id="text_22">
     <!-- vgg19 -->
     <g transform="translate(345.72 283.654312) scale(0.1 -0.1)">
      <use xlink:href="#FangSong-76"/>
      <use xlink:href="#FangSong-67" x="50"/>
      <use xlink:href="#FangSong-67" x="100"/>
      <use xlink:href="#FangSong-31" x="150"/>
      <use xlink:href="#FangSong-39" x="200"/>
     </g>
    </g>
    <g id="line2d_26">
     <path d="M 317.72 293.638687 
L 327.72 293.638687 
L 337.72 293.638687 
" style="fill: none; stroke-dasharray: 1.85,0.8; stroke-dashoffset: 0; stroke: #000000; stroke-width: 0.5"/>
    </g>
    <g id="text_23">
     <!-- squeezenetv1 -->
     <g transform="translate(345.72 297.138687) scale(0.1 -0.1)">
      <use xlink:href="#FangSong-73"/>
      <use xlink:href="#FangSong-71" x="50"/>
      <use xlink:href="#FangSong-75" x="100"/>
      <use xlink:href="#FangSong-65" x="150"/>
      <use xlink:href="#FangSong-65" x="200"/>
      <use xlink:href="#FangSong-7a" x="250"/>
      <use xlink:href="#FangSong-65" x="300"/>
      <use xlink:href="#FangSong-6e" x="350"/>
      <use xlink:href="#FangSong-65" x="400"/>
      <use xlink:href="#FangSong-74" x="450"/>
      <use xlink:href="#FangSong-76" x="500"/>
      <use xlink:href="#FangSong-31" x="550"/>
     </g>
    </g>
   </g>
  </g>
 </g>
 <defs>
  <clipPath id="p7fe00a81e2">
   <rect x="57.6" y="41.472" width="357.12" height="266.112"/>
  </clipPath>
 </defs>
</svg>
