<?xml version="1.0" encoding="utf-8" standalone="no"?>
<!DOCTYPE svg PUBLIC "-//W3C//DTD SVG 1.1//EN"
  "http://www.w3.org/Graphics/SVG/1.1/DTD/svg11.dtd">
<svg xmlns:xlink="http://www.w3.org/1999/xlink" width="460.8pt" height="345.6pt" viewBox="0 0 460.8 345.6" xmlns="http://www.w3.org/2000/svg" version="1.1">
 <metadata>
  <rdf:RDF xmlns:dc="http://purl.org/dc/elements/1.1/" xmlns:cc="http://creativecommons.org/ns#" xmlns:rdf="http://www.w3.org/1999/02/22-rdf-syntax-ns#">
   <cc:Work>
    <dc:type rdf:resource="http://purl.org/dc/dcmitype/StillImage"/>
    <dc:date>2023-01-19T17:24:42.964209</dc:date>
    <dc:format>image/svg+xml</dc:format>
    <dc:creator>
     <cc:Agent>
      <dc:title>Matplotlib v3.6.3, https://matplotlib.org/</dc:title>
     </cc:Agent>
    </dc:creator>
   </cc:Work>
  </rdf:RDF>
 </metadata>
 <defs>
  <style type="text/css">*{stroke-linejoin: round; stroke-linecap: butt}</style>
 </defs>
 <g id="figure_1">
  <g id="patch_1">
   <path d="M 0 345.6 
L 460.8 345.6 
L 460.8 0 
L 0 0 
z
" style="fill: #ffffff"/>
  </g>
  <g id="axes_1">
   <g id="patch_2">
    <path d="M 57.6 307.584 
L 414.72 307.584 
L 414.72 41.472 
L 57.6 41.472 
z
" style="fill: #ffffff"/>
   </g>
   <g id="matplotlib.axis_1">
    <g id="xtick_1">
     <g id="line2d_1">
      <defs>
       <path id="m114ecb33ea" d="M 0 0 
L 0 3.5 
" style="stroke: #000000; stroke-width: 0.8"/>
      </defs>
      <g>
       <use xlink:href="#m114ecb33ea" x="67.683967" y="307.584" style="stroke: #000000; stroke-width: 0.8"/>
      </g>
     </g>
     <g id="text_1">
      <!-- 0 -->
      <g transform="translate(65.183967 321.576187) scale(0.1 -0.1)">
       <defs>
        <path id="FangSong-30" d="M 1575 4125 
Q 1225 4125 987 3587 
Q 750 3050 750 2150 
Q 750 1200 987 675 
Q 1225 150 1575 150 
Q 1950 150 2162 675 
Q 2375 1200 2375 2150 
Q 2375 3050 2175 3587 
Q 1975 4125 1575 4125 
z
M 1575 -50 
Q 1025 -50 650 525 
Q 275 1100 275 2150 
Q 275 3125 637 3725 
Q 1000 4325 1575 4325 
Q 2125 4325 2487 3750 
Q 2850 3175 2850 2150 
Q 2850 1125 2487 537 
Q 2125 -50 1575 -50 
z
" transform="scale(0.015625)"/>
       </defs>
       <use xlink:href="#FangSong-30"/>
      </g>
     </g>
    </g>
    <g id="xtick_2">
     <g id="line2d_2">
      <g>
       <use xlink:href="#m114ecb33ea" x="129.17157" y="307.584" style="stroke: #000000; stroke-width: 0.8"/>
      </g>
     </g>
     <g id="text_2">
      <!-- 10 -->
      <g transform="translate(124.17157 321.576187) scale(0.1 -0.1)">
       <defs>
        <path id="FangSong-31" d="M 1800 4350 
L 1800 550 
Q 1800 350 1925 250 
Q 2050 150 2275 150 
L 2525 150 
L 2525 0 
L 700 0 
L 700 150 
L 925 150 
Q 1175 150 1287 250 
Q 1400 350 1400 550 
L 1400 3575 
Q 1400 3675 1337 3737 
Q 1275 3800 1150 3800 
L 700 3800 
L 700 3950 
L 925 3950 
Q 1225 3950 1412 4050 
Q 1600 4150 1700 4350 
L 1800 4350 
z
" transform="scale(0.015625)"/>
       </defs>
       <use xlink:href="#FangSong-31"/>
       <use xlink:href="#FangSong-30" x="50"/>
      </g>
     </g>
    </g>
    <g id="xtick_3">
     <g id="line2d_3">
      <g>
       <use xlink:href="#m114ecb33ea" x="190.659174" y="307.584" style="stroke: #000000; stroke-width: 0.8"/>
      </g>
     </g>
     <g id="text_3">
      <!-- 20 -->
      <g transform="translate(185.659174 321.576187) scale(0.1 -0.1)">
       <defs>
        <path id="FangSong-32" d="M 2300 3225 
Q 2300 3675 2100 3912 
Q 1900 4150 1500 4150 
Q 1200 4150 987 3987 
Q 775 3825 775 3575 
Q 775 3425 862 3325 
Q 950 3225 950 3125 
Q 950 3000 887 2937 
Q 825 2875 700 2875 
Q 550 2875 462 2962 
Q 375 3050 375 3250 
Q 375 3775 750 4050 
Q 1125 4325 1550 4325 
Q 2150 4325 2437 4025 
Q 2725 3725 2725 3275 
Q 2725 2975 2587 2675 
Q 2450 2375 2150 2100 
Q 1425 1400 1037 962 
Q 650 525 575 375 
L 2050 375 
Q 2275 375 2425 550 
Q 2575 725 2625 1075 
L 2775 1075 
L 2625 0 
L 300 0 
L 300 325 
Q 425 550 712 900 
Q 1000 1250 1475 1725 
Q 1900 2150 2100 2525 
Q 2300 2900 2300 3225 
z
" transform="scale(0.015625)"/>
       </defs>
       <use xlink:href="#FangSong-32"/>
       <use xlink:href="#FangSong-30" x="50"/>
      </g>
     </g>
    </g>
    <g id="xtick_4">
     <g id="line2d_4">
      <g>
       <use xlink:href="#m114ecb33ea" x="252.146777" y="307.584" style="stroke: #000000; stroke-width: 0.8"/>
      </g>
     </g>
     <g id="text_4">
      <!-- 30 -->
      <g transform="translate(247.146777 321.576187) scale(0.1 -0.1)">
       <defs>
        <path id="FangSong-33" d="M 2775 1150 
Q 2775 675 2425 312 
Q 2075 -50 1450 -50 
Q 1000 -50 675 200 
Q 350 450 350 775 
Q 350 925 450 1037 
Q 550 1150 650 1150 
Q 800 1150 862 1037 
Q 925 925 925 850 
Q 925 725 875 637 
Q 825 550 825 475 
Q 825 325 1012 225 
Q 1200 125 1425 125 
Q 1875 125 2100 387 
Q 2325 650 2325 1200 
Q 2325 1650 2087 1925 
Q 1850 2200 1200 2200 
L 1200 2375 
Q 1700 2375 1937 2612 
Q 2175 2850 2175 3275 
Q 2175 3625 1987 3887 
Q 1800 4150 1400 4150 
Q 1225 4150 1025 4062 
Q 825 3975 825 3775 
Q 825 3575 875 3525 
Q 925 3475 925 3400 
Q 925 3275 875 3200 
Q 825 3125 700 3125 
Q 600 3125 512 3200 
Q 425 3275 425 3475 
Q 425 3850 750 4087 
Q 1075 4325 1500 4325 
Q 2000 4325 2300 4012 
Q 2600 3700 2600 3350 
Q 2600 2975 2412 2712 
Q 2225 2450 1825 2325 
Q 2375 2125 2575 1800 
Q 2775 1475 2775 1150 
z
" transform="scale(0.015625)"/>
       </defs>
       <use xlink:href="#FangSong-33"/>
       <use xlink:href="#FangSong-30" x="50"/>
      </g>
     </g>
    </g>
    <g id="xtick_5">
     <g id="line2d_5">
      <g>
       <use xlink:href="#m114ecb33ea" x="313.63438" y="307.584" style="stroke: #000000; stroke-width: 0.8"/>
      </g>
     </g>
     <g id="text_5">
      <!-- 40 -->
      <g transform="translate(308.63438 321.576187) scale(0.1 -0.1)">
       <defs>
        <path id="FangSong-34" d="M 2275 475 
Q 2275 300 2375 225 
Q 2475 150 2650 150 
L 2875 150 
L 2875 0 
L 1225 0 
L 1225 150 
L 1500 150 
Q 1700 150 1787 225 
Q 1875 300 1875 475 
L 1875 1300 
L 200 1300 
L 200 1425 
L 2025 4325 
L 2275 4325 
L 2275 1450 
L 2950 1450 
L 2950 1300 
L 2275 1300 
L 2275 475 
z
M 1850 3700 
L 425 1450 
L 1875 1450 
L 1875 3700 
L 1850 3700 
z
" transform="scale(0.015625)"/>
       </defs>
       <use xlink:href="#FangSong-34"/>
       <use xlink:href="#FangSong-30" x="50"/>
      </g>
     </g>
    </g>
    <g id="xtick_6">
     <g id="line2d_6">
      <g>
       <use xlink:href="#m114ecb33ea" x="375.121983" y="307.584" style="stroke: #000000; stroke-width: 0.8"/>
      </g>
     </g>
     <g id="text_6">
      <!-- 50 -->
      <g transform="translate(370.121983 321.576187) scale(0.1 -0.1)">
       <defs>
        <path id="FangSong-35" d="M 1700 2750 
Q 2175 2750 2475 2387 
Q 2775 2025 2775 1425 
Q 2775 750 2462 350 
Q 2150 -50 1500 -50 
Q 1050 -50 700 212 
Q 350 475 350 850 
Q 350 1000 437 1112 
Q 525 1225 675 1225 
Q 825 1225 875 1125 
Q 925 1025 925 950 
Q 925 800 850 712 
Q 775 625 775 525 
Q 775 325 1012 225 
Q 1250 125 1525 125 
Q 1925 125 2137 450 
Q 2350 775 2350 1375 
Q 2350 1875 2162 2187 
Q 1975 2500 1600 2500 
Q 1325 2500 1125 2400 
Q 925 2300 750 1975 
L 525 2000 
L 650 4275 
L 2700 4275 
L 2625 3900 
L 825 3900 
L 725 2250 
Q 975 2600 1212 2675 
Q 1450 2750 1700 2750 
z
" transform="scale(0.015625)"/>
       </defs>
       <use xlink:href="#FangSong-35"/>
       <use xlink:href="#FangSong-30" x="50"/>
      </g>
     </g>
    </g>
    <g id="text_7">
     <!-- Latency -->
     <g transform="translate(218.66 333.974625) scale(0.1 -0.1)">
      <defs>
       <path id="FangSong-4c" d="M 975 350 
Q 975 250 1037 200 
Q 1100 150 1200 150 
L 1875 150 
Q 2225 150 2475 362 
Q 2725 575 2850 1025 
L 2975 975 
L 2750 0 
L 175 0 
L 175 150 
L 350 150 
Q 475 150 525 200 
Q 575 250 575 350 
L 575 3925 
Q 575 4025 525 4075 
Q 475 4125 350 4125 
L 200 4125 
L 200 4275 
L 1375 4275 
L 1375 4125 
L 1200 4125 
Q 1100 4125 1037 4075 
Q 975 4025 975 3925 
L 975 350 
z
" transform="scale(0.015625)"/>
       <path id="FangSong-61" d="M 1200 -25 
Q 750 -25 500 187 
Q 250 400 250 675 
Q 250 1125 637 1412 
Q 1025 1700 2175 1825 
L 2175 2125 
Q 2175 2375 2062 2537 
Q 1950 2700 1550 2700 
Q 1125 2700 950 2562 
Q 775 2425 825 2275 
Q 875 2175 825 2075 
Q 775 1975 625 1975 
Q 525 1975 462 2037 
Q 400 2100 400 2225 
Q 400 2450 725 2650 
Q 1050 2850 1525 2850 
Q 2025 2850 2275 2662 
Q 2525 2475 2525 2125 
L 2525 475 
Q 2525 275 2562 237 
Q 2600 200 2700 200 
Q 2825 200 2875 312 
Q 2925 425 2925 625 
L 3050 625 
Q 3050 275 2925 137 
Q 2800 0 2600 0 
Q 2425 0 2325 75 
Q 2225 150 2175 325 
Q 1925 150 1712 62 
Q 1500 -25 1200 -25 
z
M 675 750 
Q 675 525 812 337 
Q 950 150 1250 150 
Q 1475 150 1700 237 
Q 1925 325 2175 500 
L 2175 1675 
Q 1325 1575 1000 1337 
Q 675 1100 675 750 
z
" transform="scale(0.015625)"/>
       <path id="FangSong-74" d="M 1475 800 
Q 1475 450 1600 325 
Q 1725 200 1975 200 
Q 2225 200 2375 362 
Q 2525 525 2575 825 
L 2700 775 
Q 2650 425 2437 200 
Q 2225 -25 1875 -25 
Q 1500 -25 1312 200 
Q 1125 425 1125 900 
L 1125 2650 
L 375 2650 
L 375 2800 
L 575 2800 
Q 875 2800 1062 2987 
Q 1250 3175 1300 3575 
L 1325 3775 
L 1475 3775 
L 1475 2800 
L 2475 2800 
L 2475 2650 
L 1475 2650 
L 1475 800 
z
" transform="scale(0.015625)"/>
       <path id="FangSong-65" d="M 2375 1550 
Q 2400 2100 2187 2387 
Q 1975 2675 1625 2675 
Q 1250 2675 1012 2375 
Q 775 2075 775 1550 
L 2375 1550 
z
M 775 1400 
Q 775 725 1037 437 
Q 1300 150 1725 150 
Q 2050 150 2275 337 
Q 2500 525 2600 800 
L 2725 750 
Q 2650 475 2387 212 
Q 2125 -50 1675 -50 
Q 1100 -50 737 325 
Q 375 700 375 1400 
Q 375 2025 737 2437 
Q 1100 2850 1625 2850 
Q 2100 2850 2450 2525 
Q 2800 2200 2800 1400 
L 775 1400 
z
" transform="scale(0.015625)"/>
       <path id="FangSong-6e" d="M 175 0 
L 175 150 
L 300 150 
Q 425 150 475 200 
Q 525 250 525 350 
L 525 2500 
Q 525 2575 500 2612 
Q 475 2650 400 2650 
L 200 2650 
L 200 2800 
L 375 2800 
Q 500 2800 612 2825 
Q 725 2850 825 2925 
L 875 2925 
L 875 2350 
Q 1100 2600 1325 2725 
Q 1550 2850 1800 2850 
Q 2225 2850 2425 2625 
Q 2625 2400 2625 1950 
L 2625 350 
Q 2625 250 2687 200 
Q 2750 150 2850 150 
L 2975 150 
L 2975 0 
L 1925 0 
L 1925 150 
L 2050 150 
Q 2175 150 2225 200 
Q 2275 250 2275 350 
L 2275 2025 
Q 2275 2325 2150 2487 
Q 2025 2650 1775 2650 
Q 1550 2650 1312 2500 
Q 1075 2350 875 2075 
L 875 350 
Q 875 250 937 200 
Q 1000 150 1100 150 
L 1225 150 
L 1225 0 
L 175 0 
z
" transform="scale(0.015625)"/>
       <path id="FangSong-63" d="M 2125 2125 
Q 2125 2200 2137 2225 
Q 2150 2250 2175 2325 
Q 2200 2425 2075 2562 
Q 1950 2700 1650 2700 
Q 1275 2700 1012 2337 
Q 750 1975 750 1375 
Q 750 825 975 487 
Q 1200 150 1725 150 
Q 2075 150 2312 375 
Q 2550 600 2650 900 
L 2775 850 
Q 2675 475 2400 212 
Q 2125 -50 1650 -50 
Q 1050 -50 700 325 
Q 350 700 350 1400 
Q 350 2025 725 2437 
Q 1100 2850 1700 2850 
Q 2125 2850 2362 2625 
Q 2600 2400 2600 2175 
Q 2600 2025 2537 1962 
Q 2475 1900 2350 1900 
Q 2250 1900 2187 1962 
Q 2125 2025 2125 2125 
z
" transform="scale(0.015625)"/>
       <path id="FangSong-79" d="M 1625 700 
L 1675 700 
L 2225 2375 
Q 2275 2500 2212 2575 
Q 2150 2650 2050 2650 
L 1900 2650 
L 1900 2800 
L 2950 2800 
L 2950 2650 
L 2800 2650 
Q 2700 2650 2600 2575 
Q 2500 2500 2450 2375 
L 1600 -100 
Q 1475 -500 1287 -712 
Q 1100 -925 800 -950 
Q 650 -950 537 -875 
Q 425 -800 425 -675 
Q 425 -575 487 -500 
Q 550 -425 675 -425 
Q 775 -425 837 -525 
Q 900 -625 1050 -587 
Q 1200 -550 1250 -425 
Q 1300 -350 1375 -162 
Q 1450 25 1500 225 
L 650 2425 
Q 625 2525 537 2587 
Q 450 2650 350 2650 
L 250 2650 
L 250 2800 
L 1300 2800 
L 1300 2650 
L 1200 2650 
Q 1100 2650 1050 2587 
Q 1000 2525 1025 2400 
L 1625 700 
z
" transform="scale(0.015625)"/>
      </defs>
      <use xlink:href="#FangSong-4c"/>
      <use xlink:href="#FangSong-61" x="50"/>
      <use xlink:href="#FangSong-74" x="100"/>
      <use xlink:href="#FangSong-65" x="150"/>
      <use xlink:href="#FangSong-6e" x="200"/>
      <use xlink:href="#FangSong-63" x="250"/>
      <use xlink:href="#FangSong-79" x="300"/>
     </g>
    </g>
   </g>
   <g id="matplotlib.axis_2">
    <g id="ytick_1">
     <g id="line2d_7">
      <defs>
       <path id="m6343a9300f" d="M 0 0 
L -3.5 0 
" style="stroke: #000000; stroke-width: 0.8"/>
      </defs>
      <g>
       <use xlink:href="#m6343a9300f" x="57.6" y="295.488" style="stroke: #000000; stroke-width: 0.8"/>
      </g>
     </g>
     <g id="text_8">
      <!-- 0% -->
      <g transform="translate(40.6 298.984094) scale(0.1 -0.1)">
       <defs>
        <path id="FangSong-25" d="M 725 4150 
Q 575 4150 475 3950 
Q 375 3750 375 3200 
Q 375 2575 487 2387 
Q 600 2200 725 2200 
Q 900 2200 987 2425 
Q 1075 2650 1075 3200 
Q 1075 3650 1012 3900 
Q 950 4150 725 4150 
z
M 1400 3175 
Q 1400 2725 1250 2387 
Q 1100 2050 725 2050 
Q 425 2050 237 2350 
Q 50 2650 50 3175 
Q 50 3725 250 4025 
Q 450 4325 725 4325 
Q 1025 4325 1212 4012 
Q 1400 3700 1400 3175 
z
M 2700 1100 
Q 2700 1525 2625 1800 
Q 2550 2075 2350 2075 
Q 2200 2075 2100 1837 
Q 2000 1600 2000 1100 
Q 2000 475 2112 300 
Q 2225 125 2350 125 
Q 2525 125 2612 337 
Q 2700 550 2700 1100 
z
M 3025 1075 
Q 3025 575 2850 262 
Q 2675 -50 2350 -50 
Q 2075 -50 1875 262 
Q 1675 575 1675 1075 
Q 1675 1625 1875 1937 
Q 2075 2250 2350 2250 
Q 2650 2250 2837 1925 
Q 3025 1600 3025 1075 
z
M 2500 4250 
L 700 -50 
L 550 25 
L 2325 4325 
L 2500 4250 
z
" transform="scale(0.015625)"/>
       </defs>
       <use xlink:href="#FangSong-30"/>
       <use xlink:href="#FangSong-25" x="50"/>
      </g>
     </g>
    </g>
    <g id="ytick_2">
     <g id="line2d_8">
      <g>
       <use xlink:href="#m6343a9300f" x="57.6" y="247.104" style="stroke: #000000; stroke-width: 0.8"/>
      </g>
     </g>
     <g id="text_9">
      <!-- 20% -->
      <g transform="translate(35.6 250.600094) scale(0.1 -0.1)">
       <use xlink:href="#FangSong-32"/>
       <use xlink:href="#FangSong-30" x="50"/>
       <use xlink:href="#FangSong-25" x="100"/>
      </g>
     </g>
    </g>
    <g id="ytick_3">
     <g id="line2d_9">
      <g>
       <use xlink:href="#m6343a9300f" x="57.6" y="198.72" style="stroke: #000000; stroke-width: 0.8"/>
      </g>
     </g>
     <g id="text_10">
      <!-- 40% -->
      <g transform="translate(35.6 202.216094) scale(0.1 -0.1)">
       <use xlink:href="#FangSong-34"/>
       <use xlink:href="#FangSong-30" x="50"/>
       <use xlink:href="#FangSong-25" x="100"/>
      </g>
     </g>
    </g>
    <g id="ytick_4">
     <g id="line2d_10">
      <g>
       <use xlink:href="#m6343a9300f" x="57.6" y="150.336" style="stroke: #000000; stroke-width: 0.8"/>
      </g>
     </g>
     <g id="text_11">
      <!-- 60% -->
      <g transform="translate(35.6 153.832094) scale(0.1 -0.1)">
       <defs>
        <path id="FangSong-36" d="M 750 1700 
Q 750 950 1012 537 
Q 1275 125 1650 125 
Q 2025 125 2225 400 
Q 2425 675 2425 1425 
Q 2425 1925 2212 2200 
Q 2000 2475 1700 2475 
Q 1425 2475 1187 2312 
Q 950 2150 750 1700 
z
M 1725 2725 
Q 2325 2725 2587 2325 
Q 2850 1925 2850 1425 
Q 2850 675 2487 312 
Q 2125 -50 1650 -50 
Q 975 -50 625 462 
Q 275 975 275 1950 
Q 275 3100 700 3712 
Q 1125 4325 1850 4325 
Q 2200 4325 2412 4125 
Q 2625 3925 2625 3775 
Q 2625 3625 2562 3550 
Q 2500 3475 2350 3475 
Q 2225 3475 2162 3537 
Q 2100 3600 2100 3725 
Q 2100 3775 2112 3825 
Q 2125 3875 2125 3925 
Q 2125 4025 2050 4087 
Q 1975 4150 1775 4150 
Q 1350 4150 1050 3762 
Q 750 3375 750 2075 
Q 900 2400 1162 2562 
Q 1425 2725 1725 2725 
z
" transform="scale(0.015625)"/>
       </defs>
       <use xlink:href="#FangSong-36"/>
       <use xlink:href="#FangSong-30" x="50"/>
       <use xlink:href="#FangSong-25" x="100"/>
      </g>
     </g>
    </g>
    <g id="ytick_5">
     <g id="line2d_11">
      <g>
       <use xlink:href="#m6343a9300f" x="57.6" y="101.952" style="stroke: #000000; stroke-width: 0.8"/>
      </g>
     </g>
     <g id="text_12">
      <!-- 80% -->
      <g transform="translate(35.6 105.448094) scale(0.1 -0.1)">
       <defs>
        <path id="FangSong-38" d="M 600 1025 
Q 600 625 862 375 
Q 1125 125 1525 125 
Q 2000 125 2212 375 
Q 2425 625 2425 1000 
Q 2425 1325 2125 1625 
Q 1825 1925 1225 2175 
Q 925 1975 762 1675 
Q 600 1375 600 1025 
z
M 2800 1075 
Q 2800 600 2450 275 
Q 2100 -50 1525 -50 
Q 1000 -50 625 275 
Q 250 600 250 1025 
Q 250 1450 462 1750 
Q 675 2050 1075 2275 
Q 725 2450 537 2712 
Q 350 2975 350 3300 
Q 350 3725 675 4025 
Q 1000 4325 1575 4325 
Q 2100 4325 2425 4025 
Q 2750 3725 2750 3300 
Q 2750 3000 2562 2737 
Q 2375 2475 1975 2275 
Q 2400 2025 2600 1725 
Q 2800 1425 2800 1075 
z
M 2400 3275 
Q 2400 3625 2200 3887 
Q 2000 4150 1575 4150 
Q 1100 4150 900 3900 
Q 700 3650 700 3375 
Q 700 3100 987 2837 
Q 1275 2575 1800 2375 
Q 2100 2525 2250 2750 
Q 2400 2975 2400 3275 
z
" transform="scale(0.015625)"/>
       </defs>
       <use xlink:href="#FangSong-38"/>
       <use xlink:href="#FangSong-30" x="50"/>
       <use xlink:href="#FangSong-25" x="100"/>
      </g>
     </g>
    </g>
    <g id="ytick_6">
     <g id="line2d_12">
      <g>
       <use xlink:href="#m6343a9300f" x="57.6" y="53.568" style="stroke: #000000; stroke-width: 0.8"/>
      </g>
     </g>
     <g id="text_13">
      <!-- 100% -->
      <g transform="translate(30.6 57.064094) scale(0.1 -0.1)">
       <use xlink:href="#FangSong-31"/>
       <use xlink:href="#FangSong-30" x="50"/>
       <use xlink:href="#FangSong-30" x="100"/>
       <use xlink:href="#FangSong-25" x="150"/>
      </g>
     </g>
    </g>
    <g id="text_14">
     <!-- 累计完成比例 -->
     <g transform="translate(25.154688 204.528) rotate(-90) scale(0.1 -0.1)">
      <defs>
       <path id="FangSong-7d2f" d="M 4525 4975 
L 4700 5225 
L 5000 4950 
L 4825 4775 
L 4625 3550 
L 4850 3300 
L 3175 3150 
L 3375 2975 
Q 3200 2925 2862 2725 
Q 2525 2525 2075 2275 
L 3475 2500 
Q 3750 2675 3900 2800 
Q 4050 2925 4100 3075 
L 4175 3100 
L 4325 2700 
Q 4200 2675 3500 2237 
Q 2800 1800 2275 1550 
L 4375 1825 
L 3900 2175 
L 4000 2275 
Q 4625 1900 4950 1725 
Q 4975 1475 4925 1225 
Q 4800 1375 4500 1675 
L 3250 1475 
L 3525 1300 
Q 3375 1200 3375 875 
L 3375 25 
Q 3375 -325 3225 -625 
Q 2975 -325 2400 150 
L 2450 250 
L 3050 -75 
Q 3150 -125 3150 0 
L 3150 925 
Q 3150 1300 3125 1450 
Q 1875 1275 1575 1175 
L 1325 1425 
L 1850 1550 
Q 2175 1700 3250 2300 
Q 2075 2100 1875 2000 
L 1575 2250 
L 1800 2300 
Q 2150 2475 3025 3125 
L 2000 3025 
Q 2000 2675 1950 2700 
Q 1900 2725 1650 3025 
Q 1725 3250 1725 3425 
L 1650 4400 
Q 1625 4675 1525 4950 
L 1625 5000 
L 1875 4675 
L 4525 4975 
z
M 3150 3375 
L 3150 3875 
Q 2525 3800 2400 3725 
L 2100 3975 
Q 2500 3975 3150 4075 
L 3150 4600 
L 1900 4450 
L 1975 3250 
L 3150 3375 
z
M 3375 4100 
Q 3950 4175 4025 4225 
L 4275 4000 
Q 3950 3975 3375 3900 
L 3375 3400 
L 4400 3500 
L 4575 4750 
L 3375 4600 
L 3375 4100 
z
M 5450 -75 
Q 4975 325 3875 1025 
L 3950 1125 
Q 4850 700 5350 500 
Q 5425 250 5450 -75 
z
M 800 -250 
Q 1350 75 1825 500 
Q 2300 925 2325 1125 
L 2400 1150 
L 2550 725 
Q 2425 700 2075 425 
Q 1725 150 875 -350 
L 800 -250 
z
" transform="scale(0.015625)"/>
       <path id="FangSong-8ba1" d="M 4075 4200 
Q 4100 4825 3900 5100 
L 3975 5150 
L 4450 4725 
Q 4275 4600 4300 4200 
L 4275 3000 
Q 5525 3200 5575 3250 
L 5950 2950 
Q 5725 2975 4275 2800 
L 4250 -425 
Q 4250 -700 4150 -575 
L 3875 -150 
Q 4050 50 4025 300 
L 4050 2750 
Q 2975 2625 2900 2575 
L 2525 2825 
Q 2850 2825 4050 2975 
L 4075 4200 
z
M 1775 3250 
L 2100 2950 
L 1900 2750 
L 1875 550 
L 2825 1250 
L 2875 1175 
Q 1875 250 1750 -25 
L 1525 275 
Q 1625 375 1650 625 
L 1675 2775 
Q 900 2625 750 2550 
L 425 2800 
Q 850 2825 1650 3000 
L 1775 3250 
z
M 2025 3800 
Q 1825 4300 1325 4950 
L 1375 5025 
Q 1925 4575 2175 4300 
Q 2125 4000 2025 3800 
z
" transform="scale(0.015625)"/>
       <path id="FangSong-5b8c" d="M 5375 2050 
Q 4925 2050 3550 1950 
L 3850 1750 
Q 3725 1600 3700 1375 
L 3675 275 
Q 3650 -125 4075 -175 
L 4925 -175 
Q 5300 -150 5312 62 
Q 5325 275 5325 1025 
L 5425 1025 
Q 5450 750 5475 337 
Q 5500 -75 5700 -275 
Q 5400 -375 5000 -400 
L 4075 -400 
Q 3425 -350 3425 150 
L 3475 1450 
Q 3475 1775 3425 1925 
L 2675 1850 
L 2875 1650 
Q 2750 1550 2600 1200 
Q 2450 850 2025 312 
Q 1600 -225 600 -675 
L 550 -575 
Q 1525 -100 1987 625 
Q 2450 1350 2525 1850 
Q 1550 1775 1500 1725 
L 1150 2025 
Q 1625 2025 3212 2150 
Q 4800 2275 5000 2350 
L 5375 2050 
z
M 1650 3650 
Q 1550 3125 1325 2875 
L 1150 3250 
Q 1450 3425 1575 4400 
L 1675 4400 
L 1675 3900 
L 5025 4150 
L 5175 4400 
L 5525 4075 
Q 5375 4050 4725 3250 
L 4650 3325 
L 4975 3900 
L 1650 3650 
z
M 4475 2975 
Q 4225 2975 3412 2875 
Q 2600 2775 2400 2725 
L 2050 2975 
Q 2575 2975 3200 3075 
Q 3825 3175 4150 3225 
L 4475 2975 
z
M 3550 4575 
Q 3475 4350 3300 4150 
Q 3225 4475 2900 5200 
L 2975 5250 
Q 3350 4825 3550 4575 
z
" transform="scale(0.015625)"/>
       <path id="FangSong-6210" d="M 5575 975 
Q 5600 -150 5750 -625 
Q 4650 -225 4000 1075 
Q 3625 650 2975 225 
L 2925 325 
Q 3525 825 3900 1300 
Q 3600 2275 3500 3300 
L 1875 3125 
Q 1875 2625 1825 2100 
L 2725 2250 
L 2875 2475 
L 3175 2225 
L 3000 2050 
Q 2850 475 2575 -125 
Q 2225 400 1825 775 
L 1875 850 
L 2475 400 
Q 2650 875 2750 2000 
L 1825 1850 
Q 1675 250 600 -650 
L 525 -600 
Q 1250 250 1425 987 
Q 1600 1725 1625 2612 
Q 1650 3500 1550 3800 
L 1625 3825 
L 1850 3350 
L 3450 3525 
Q 3400 4150 3375 4562 
Q 3350 4975 3225 5200 
L 3275 5225 
L 3725 4900 
Q 3625 4925 3637 4575 
Q 3650 4225 3675 3550 
Q 4900 3700 5050 3775 
L 5325 3475 
Q 4775 3475 3725 3325 
Q 3775 2425 4075 1525 
Q 4500 2025 4687 2325 
Q 4875 2625 4800 2850 
L 4875 2875 
L 5125 2325 
Q 5075 2400 4850 2125 
Q 4625 1850 4150 1275 
Q 4625 225 5425 -125 
L 5475 975 
L 5575 975 
z
M 4100 5000 
Q 4525 4700 4875 4450 
Q 4825 4250 4750 4025 
Q 4400 4525 4025 4950 
L 4100 5000 
z
" transform="scale(0.015625)"/>
       <path id="FangSong-6bd4" d="M 3500 2125 
Q 3925 2425 4487 2975 
Q 5050 3525 4950 3750 
L 5025 3775 
L 5250 3225 
Q 5175 3250 4875 3000 
Q 4575 2750 4287 2525 
Q 4000 2300 3500 1900 
L 3500 575 
Q 3475 -100 4150 -100 
L 4800 -100 
Q 5275 -100 5375 12 
Q 5475 125 5450 1350 
L 5575 1350 
Q 5600 825 5637 412 
Q 5675 0 5800 -175 
Q 5375 -325 4800 -325 
L 4150 -325 
Q 3225 -350 3275 550 
L 3275 4300 
Q 3275 4875 3150 5150 
L 3200 5200 
L 3625 4850 
Q 3475 4825 3500 4250 
L 3500 2125 
z
M 1500 2575 
Q 1900 2625 2337 2712 
Q 2775 2800 2800 2850 
L 3075 2600 
Q 2875 2575 2350 2475 
Q 1825 2375 1775 2325 
L 1500 2525 
L 1500 150 
L 2925 1075 
L 2975 1025 
Q 1550 -75 1375 -350 
L 1200 0 
Q 1275 75 1275 350 
L 1275 3925 
Q 1275 4475 1150 4750 
L 1200 4800 
L 1625 4400 
Q 1475 4375 1500 3925 
L 1500 2575 
z
" transform="scale(0.015625)"/>
       <path id="FangSong-4f8b" d="M 3050 2000 
Q 3025 1800 2975 1600 
Q 2775 1900 2525 2250 
Q 2300 1875 2025 1550 
L 1925 1625 
Q 2675 2725 2975 3975 
Q 2475 3925 2375 3875 
L 2050 4125 
Q 2375 4125 3162 4225 
Q 3950 4325 4100 4450 
L 4350 4125 
Q 4050 4150 3100 3975 
L 3300 3700 
Q 3200 3675 3125 3525 
Q 3050 3375 2925 3050 
L 3625 3150 
L 3775 3350 
L 4050 3075 
L 3875 2900 
Q 3300 825 1850 -225 
L 1800 -100 
Q 3100 975 3625 2900 
Q 3150 2825 3025 2775 
L 2875 2925 
Q 2775 2675 2575 2350 
Q 2900 2125 3050 2000 
z
M 1275 -150 
Q 1425 25 1400 225 
L 1450 3425 
Q 1025 2800 475 2225 
L 400 2325 
Q 875 2850 1450 3887 
Q 2025 4925 1925 5150 
L 2000 5175 
L 2250 4700 
Q 2200 4725 2062 4475 
Q 1925 4225 1675 3800 
L 1625 -325 
Q 1650 -675 1525 -600 
L 1275 -150 
z
M 5475 250 
Q 5475 -300 5300 -650 
Q 4900 -100 4300 375 
L 4350 475 
L 5200 -75 
Q 5250 250 5250 575 
L 5250 4350 
Q 5275 4950 5100 5150 
L 5175 5225 
L 5600 4850 
Q 5450 4775 5475 4325 
L 5475 250 
z
M 4300 1525 
Q 4400 1650 4400 1900 
L 4400 3075 
Q 4425 3525 4300 3750 
L 4350 3800 
L 4725 3450 
Q 4600 3350 4625 3025 
L 4625 1375 
Q 4625 1050 4550 1125 
L 4300 1525 
z
" transform="scale(0.015625)"/>
      </defs>
      <use xlink:href="#FangSong-7d2f"/>
      <use xlink:href="#FangSong-8ba1" x="100"/>
      <use xlink:href="#FangSong-5b8c" x="200"/>
      <use xlink:href="#FangSong-6210" x="300"/>
      <use xlink:href="#FangSong-6bd4" x="400"/>
      <use xlink:href="#FangSong-4f8b" x="500"/>
     </g>
    </g>
   </g>
   <g id="line2d_13">
    <path d="M 73.832727 295.488 
L 74.447603 240.57216 
L 75.062479 240.57216 
L 75.677355 240.33024 
L 76.292231 240.33024 
L 76.907107 240.08832 
L 79.981488 237.66912 
L 81.826116 236.94336 
L 82.440992 236.45952 
L 83.055868 235.49184 
L 83.670744 234.76608 
L 84.28562 233.7984 
L 84.900496 233.07264 
L 85.515372 233.07264 
L 86.130248 232.83072 
L 86.745124 232.83072 
L 87.36 232.34688 
L 88.589752 230.89536 
L 89.204628 229.68576 
L 89.819504 227.7504 
L 90.43438 227.26656 
L 91.049256 225.57312 
L 91.664132 225.3312 
L 92.279008 224.36352 
L 93.50876 222.912 
L 94.123636 221.94432 
L 94.738512 221.46048 
L 95.353388 220.4928 
L 95.968264 220.25088 
L 96.58314 219.76704 
L 98.427769 215.6544 
L 99.042645 214.4448 
L 99.657521 213.96096 
L 100.272397 213.2352 
L 100.887273 212.75136 
L 102.117025 210.816 
L 103.346777 208.63872 
L 103.961653 207.67104 
L 104.576529 206.46144 
L 105.191405 206.21952 
L 105.806281 205.73568 
L 107.036033 203.5584 
L 107.650909 202.59072 
L 108.880661 202.10688 
L 110.110413 199.9296 
L 110.725289 199.44576 
L 111.340165 199.20384 
L 112.569917 198.23616 
L 113.184793 197.5104 
L 115.029421 193.39776 
L 115.644298 193.15584 
L 116.259174 191.70432 
L 117.488926 187.59168 
L 118.103802 186.38208 
L 119.333554 185.4144 
L 120.563306 181.7856 
L 121.178182 179.3664 
L 124.867438 172.35072 
L 125.482314 171.86688 
L 126.09719 171.14112 
L 126.712066 169.93152 
L 127.326942 169.20576 
L 127.941818 168.23808 
L 128.556694 167.99616 
L 129.17157 166.30272 
L 129.786446 165.57696 
L 131.016198 162.91584 
L 131.631074 160.98048 
L 132.860826 158.31936 
L 133.475702 157.35168 
L 134.090579 157.10976 
L 134.705455 156.62592 
L 135.320331 155.90016 
L 135.935207 154.69056 
L 136.550083 154.20672 
L 137.164959 154.20672 
L 138.394711 153.72288 
L 139.009587 152.99712 
L 139.624463 152.7552 
L 140.239339 152.02944 
L 140.854215 150.81984 
L 141.469091 150.336 
L 143.313719 149.61024 
L 143.928595 148.88448 
L 144.543471 147.43296 
L 145.158347 147.19104 
L 146.388099 146.22336 
L 147.002975 145.4976 
L 147.617851 145.4976 
L 148.847603 144.52992 
L 149.462479 144.52992 
L 150.077355 144.04608 
L 150.692231 143.80416 
L 151.307107 142.59456 
L 151.921983 142.35264 
L 153.151736 140.90112 
L 153.766612 139.69152 
L 154.381488 138.96576 
L 155.61124 136.78848 
L 156.226116 136.06272 
L 156.840992 134.85312 
L 157.455868 134.36928 
L 158.070744 134.12736 
L 159.300496 133.15968 
L 159.915372 132.43392 
L 160.530248 132.192 
L 161.145124 131.46624 
L 161.76 131.46624 
L 162.374876 130.25664 
L 162.989752 129.53088 
L 163.604628 128.32128 
L 164.219504 127.83744 
L 164.83438 126.38592 
L 165.449256 125.90208 
L 166.679008 124.45056 
L 167.293884 124.20864 
L 167.90876 123.24096 
L 168.523636 122.99904 
L 169.138512 122.27328 
L 169.753388 122.03136 
L 170.368264 120.82176 
L 170.98314 120.33792 
L 171.598017 119.12832 
L 172.212893 118.8864 
L 172.827769 117.6768 
L 173.442645 116.95104 
L 174.057521 116.70912 
L 174.672397 116.22528 
L 175.902149 114.28992 
L 176.517025 114.048 
L 177.131901 113.08032 
L 177.746777 112.8384 
L 178.361653 112.11264 
L 178.976529 111.14496 
L 179.591405 110.4192 
L 180.206281 109.2096 
L 182.050909 107.03232 
L 182.665785 106.54848 
L 183.280661 105.5808 
L 183.895537 104.3712 
L 184.510413 103.88736 
L 185.740165 102.43584 
L 186.355041 102.19392 
L 186.969917 101.22624 
L 187.584793 100.98432 
L 188.199669 100.01664 
L 188.814545 99.5328 
L 189.429421 98.80704 
L 190.659174 98.3232 
L 192.503802 96.87168 
L 194.34843 96.14592 
L 194.963306 95.66208 
L 195.578182 94.6944 
L 196.193058 94.45248 
L 196.807934 93.72672 
L 197.42281 93.72672 
L 198.037686 93.24288 
L 198.652562 93.24288 
L 200.49719 92.51712 
L 201.112066 92.51712 
L 201.726942 92.2752 
L 202.341818 91.79136 
L 202.956694 91.54944 
L 203.57157 91.54944 
L 204.186446 91.30752 
L 205.416198 91.30752 
L 206.031074 90.82368 
L 207.260826 90.33984 
L 208.490579 89.37216 
L 209.720331 87.92064 
L 211.564959 87.92064 
L 212.179835 87.67872 
L 215.254215 87.67872 
L 217.098843 86.2272 
L 217.713719 85.98528 
L 218.328595 85.50144 
L 218.943471 85.50144 
L 220.788099 84.77568 
L 221.402975 83.808 
L 222.017851 83.808 
L 223.862479 83.08224 
L 225.092231 82.11456 
L 225.707107 82.11456 
L 228.166612 81.14688 
L 228.781488 80.66304 
L 230.626116 79.93728 
L 231.240992 79.21152 
L 231.855868 78.72768 
L 232.470744 78.00192 
L 233.08562 77.76 
L 234.315372 77.76 
L 234.930248 77.51808 
L 236.774876 77.51808 
L 237.389752 77.27616 
L 239.23438 77.27616 
L 239.849256 76.79232 
L 241.079008 76.30848 
L 241.693884 76.30848 
L 242.30876 75.82464 
L 242.923636 75.82464 
L 243.538512 75.58272 
L 247.842645 75.58272 
L 248.457521 74.85696 
L 249.072397 74.61504 
L 249.687273 74.61504 
L 250.302149 74.1312 
L 250.917025 73.88928 
L 251.531901 73.40544 
L 253.376529 73.40544 
L 253.991405 73.16352 
L 255.221157 73.16352 
L 255.836033 72.9216 
L 257.680661 72.9216 
L 258.295537 72.67968 
L 258.910413 72.67968 
L 260.140165 72.19584 
L 261.369917 72.19584 
L 262.599669 71.712 
L 263.214545 71.712 
L 264.444298 71.22816 
L 265.059174 71.22816 
L 265.67405 70.98624 
L 268.74843 70.98624 
L 269.363306 70.74432 
L 269.978182 70.26048 
L 270.593058 70.26048 
L 271.207934 70.01856 
L 271.82281 70.01856 
L 272.437686 69.53472 
L 273.667438 69.53472 
L 274.282314 68.56704 
L 275.512066 68.56704 
L 276.741818 68.0832 
L 277.97157 68.0832 
L 279.816198 67.35744 
L 281.660826 67.35744 
L 282.275702 67.11552 
L 283.505455 67.11552 
L 284.120331 66.63168 
L 284.735207 66.63168 
L 285.350083 66.38976 
L 287.809587 66.38976 
L 288.424463 66.14784 
L 290.269091 66.14784 
L 292.113719 65.42208 
L 292.728595 65.42208 
L 293.343471 65.18016 
L 294.573223 65.18016 
L 295.188099 64.93824 
L 304.41124 64.93824 
L 305.640992 64.4544 
L 307.48562 64.4544 
L 308.100496 64.21248 
L 310.56 64.21248 
L 311.174876 63.97056 
L 312.404628 63.97056 
L 313.019504 63.48672 
L 314.864132 63.48672 
L 315.479008 63.2448 
L 316.093884 63.2448 
L 316.70876 63.00288 
L 317.938512 63.00288 
L 318.553388 62.27712 
L 319.168264 61.79328 
L 320.398017 61.79328 
L 321.627769 61.30944 
L 322.857521 61.30944 
L 323.472397 60.8256 
L 324.087273 60.58368 
L 327.161653 60.58368 
L 327.776529 60.34176 
L 330.236033 60.34176 
L 331.465785 59.85792 
L 332.695537 59.85792 
L 333.310413 59.616 
L 334.540165 59.616 
L 335.155041 59.37408 
L 344.993058 59.37408 
L 345.607934 59.13216 
L 359.750083 59.13216 
L 360.364959 58.89024 
L 362.824463 58.89024 
L 363.439339 58.64832 
L 365.283967 58.64832 
L 365.898843 58.4064 
L 371.432727 58.4064 
L 372.662479 57.92256 
L 373.277355 57.92256 
L 373.892231 57.68064 
L 377.581488 57.68064 
L 378.196364 57.43872 
L 378.81124 57.43872 
L 379.426116 57.1968 
L 380.655868 57.1968 
L 381.270744 56.71296 
L 382.500496 56.71296 
L 383.115372 56.47104 
L 384.345124 55.01952 
L 386.189752 55.01952 
L 386.804628 54.53568 
L 390.493884 54.53568 
L 391.10876 54.29376 
L 394.798017 54.29376 
L 396.027769 53.80992 
L 397.872397 53.80992 
L 398.487273 53.568 
L 398.487273 53.568 
" clip-path="url(#p892ba6855c)" style="fill: none; stroke: #ff0000; stroke-linecap: square"/>
   </g>
   <g id="line2d_14">
    <path d="M 73.832727 295.488 
L 74.447603 235.48422 
L 78.751736 235.48422 
L 79.981488 233.579339 
L 81.826116 233.579339 
L 84.28562 229.769575 
L 86.745124 229.769575 
L 89.204628 225.959811 
L 89.819504 223.102488 
L 90.43438 223.102488 
L 91.049256 221.197606 
L 92.279008 221.197606 
L 92.893884 218.340283 
L 93.50876 216.435402 
L 94.738512 214.53052 
L 95.353388 211.673197 
L 96.58314 211.673197 
L 97.198017 208.815874 
L 97.812893 205.00611 
L 98.427769 202.148787 
L 99.042645 201.196346 
L 100.272397 197.386583 
L 100.887273 196.434142 
L 101.502149 196.434142 
L 102.731901 192.624378 
L 103.346777 191.671937 
L 103.961653 191.671937 
L 105.191405 189.767055 
L 106.421157 189.767055 
L 107.036033 186.909732 
L 107.650909 185.957291 
L 108.880661 185.957291 
L 109.495537 185.00485 
L 110.110413 181.195087 
L 110.725289 180.242646 
L 111.340165 180.242646 
L 111.955041 178.337764 
L 113.184793 176.432882 
L 113.799669 174.528 
L 114.414545 173.575559 
L 115.029421 171.670677 
L 115.644298 171.670677 
L 116.259174 169.765795 
L 117.488926 167.860913 
L 118.103802 165.956031 
L 119.333554 165.956031 
L 119.94843 165.003591 
L 121.178182 161.193827 
L 121.793058 160.241386 
L 123.02281 160.241386 
L 123.637686 158.336504 
L 124.252562 155.479181 
L 124.867438 153.574299 
L 126.09719 153.574299 
L 126.712066 149.764535 
L 127.326942 149.764535 
L 127.941818 148.812094 
L 128.556694 148.812094 
L 129.786446 146.907213 
L 130.401322 144.04989 
L 131.016198 143.097449 
L 131.631074 140.240126 
L 132.24595 139.287685 
L 132.860826 136.430362 
L 133.475702 135.477921 
L 134.090579 135.477921 
L 134.705455 134.52548 
L 135.320331 132.620598 
L 139.009587 132.620598 
L 140.239339 130.715717 
L 140.854215 128.810835 
L 141.469091 127.858394 
L 142.083967 127.858394 
L 142.698843 126.905953 
L 143.928595 126.905953 
L 144.543471 124.04863 
L 145.158347 124.04863 
L 145.773223 123.096189 
L 146.388099 123.096189 
L 147.002975 122.143748 
L 147.617851 122.143748 
L 148.232727 121.191307 
L 150.077355 121.191307 
L 152.53686 117.381543 
L 153.151736 117.381543 
L 153.766612 115.476661 
L 154.381488 115.476661 
L 154.996364 113.57178 
L 155.61124 112.619339 
L 156.840992 108.809575 
L 158.070744 108.809575 
L 158.68562 107.857134 
L 159.300496 105.952252 
L 159.915372 104.999811 
L 160.530248 104.999811 
L 161.145124 103.094929 
L 162.374876 103.094929 
L 162.989752 102.142488 
L 164.83438 96.427843 
L 165.449256 96.427843 
L 166.064132 94.522961 
L 167.293884 94.522961 
L 167.90876 93.57052 
L 168.523636 93.57052 
L 169.138512 91.665638 
L 169.753388 91.665638 
L 170.368264 90.713197 
L 170.98314 90.713197 
L 172.212893 88.808315 
L 172.827769 86.903433 
L 174.672397 84.04611 
L 176.517025 84.04611 
L 177.131901 82.141228 
L 177.746777 82.141228 
L 178.361653 80.236346 
L 179.591405 80.236346 
L 180.206281 78.331465 
L 181.436033 78.331465 
L 182.050909 77.379024 
L 183.280661 77.379024 
L 183.895537 76.426583 
L 184.510413 76.426583 
L 185.125289 74.521701 
L 186.355041 74.521701 
L 190.044298 68.807055 
L 191.27405 68.807055 
L 191.888926 66.902173 
L 193.118678 64.997291 
L 194.963306 64.997291 
L 195.578182 64.04485 
L 196.193058 64.04485 
L 196.807934 62.139969 
L 199.267438 62.139969 
L 200.49719 60.235087 
L 201.726942 60.235087 
L 202.341818 59.282646 
L 207.875702 59.282646 
L 208.490579 58.330205 
L 215.254215 58.330205 
L 215.869091 56.425323 
L 217.098843 56.425323 
L 217.713719 55.472882 
L 226.321983 55.472882 
L 226.93686 54.520441 
L 236.774876 54.520441 
L 237.389752 53.568 
L 398.487273 53.568 
L 398.487273 53.568 
" clip-path="url(#p892ba6855c)" style="fill: none; stroke-dasharray: 1.85,0.8; stroke-dashoffset: 0; stroke: #008000; stroke-width: 0.5"/>
   </g>
   <g id="line2d_15">
    <path d="M 73.832727 295.488 
L 74.447603 233.098105 
L 76.292231 233.098105 
L 76.907107 231.824842 
L 79.981488 231.824842 
L 80.596364 230.551579 
L 82.440992 230.551579 
L 84.28562 226.731789 
L 85.515372 226.731789 
L 86.130248 225.458526 
L 88.589752 225.458526 
L 89.204628 222.912 
L 89.819504 221.638737 
L 90.43438 221.638737 
L 91.049256 219.092211 
L 91.664132 217.818947 
L 92.279008 215.272421 
L 93.50876 215.272421 
L 94.738512 212.725895 
L 97.812893 212.725895 
L 99.042645 210.179368 
L 100.887273 210.179368 
L 101.502149 208.906105 
L 102.117025 208.906105 
L 102.731901 206.359579 
L 103.346777 205.086316 
L 103.961653 202.539789 
L 104.576529 201.266526 
L 105.191405 201.266526 
L 105.806281 199.993263 
L 106.421157 196.173474 
L 107.036033 196.173474 
L 108.880661 192.353684 
L 110.110413 192.353684 
L 111.340165 189.807158 
L 111.955041 189.807158 
L 113.184793 187.260632 
L 113.799669 182.167579 
L 114.414545 179.621053 
L 115.029421 179.621053 
L 115.644298 178.347789 
L 116.87405 178.347789 
L 118.103802 175.801263 
L 118.718678 175.801263 
L 119.333554 174.528 
L 119.94843 171.981474 
L 121.793058 168.161684 
L 122.407934 168.161684 
L 123.02281 165.615158 
L 124.252562 163.068632 
L 124.867438 163.068632 
L 125.482314 161.795368 
L 126.712066 161.795368 
L 127.941818 159.248842 
L 128.556694 159.248842 
L 129.17157 156.702316 
L 133.475702 156.702316 
L 134.705455 154.155789 
L 135.320331 154.155789 
L 135.935207 151.609263 
L 136.550083 150.336 
L 138.394711 150.336 
L 139.009587 147.789474 
L 140.239339 147.789474 
L 141.469091 145.242947 
L 142.698843 145.242947 
L 143.313719 143.969684 
L 145.773223 143.969684 
L 147.002975 141.423158 
L 149.462479 141.423158 
L 150.077355 138.876632 
L 150.692231 138.876632 
L 151.307107 136.330105 
L 151.921983 136.330105 
L 153.766612 132.510316 
L 154.381488 129.963789 
L 155.61124 127.417263 
L 156.226116 127.417263 
L 156.840992 126.144 
L 157.455868 126.144 
L 158.070744 124.870737 
L 161.76 124.870737 
L 162.374876 121.050947 
L 163.604628 118.504421 
L 167.293884 118.504421 
L 169.753388 113.411368 
L 170.368264 110.864842 
L 171.598017 108.318316 
L 172.212893 108.318316 
L 172.827769 107.045053 
L 173.442645 104.498526 
L 175.287273 104.498526 
L 176.517025 101.952 
L 177.746777 101.952 
L 178.976529 99.405474 
L 179.591405 99.405474 
L 181.436033 95.585684 
L 182.665785 95.585684 
L 183.895537 93.039158 
L 186.355041 93.039158 
L 186.969917 91.765895 
L 187.584793 91.765895 
L 188.199669 89.219368 
L 188.814545 89.219368 
L 189.429421 86.672842 
L 190.044298 86.672842 
L 190.659174 85.399579 
L 193.118678 85.399579 
L 194.963306 81.579789 
L 196.193058 81.579789 
L 196.807934 80.306526 
L 197.42281 80.306526 
L 198.037686 79.033263 
L 198.652562 79.033263 
L 199.267438 77.76 
L 202.341818 77.76 
L 202.956694 76.486737 
L 203.57157 76.486737 
L 204.186446 75.213474 
L 206.031074 75.213474 
L 207.260826 72.666947 
L 207.875702 72.666947 
L 209.720331 68.847158 
L 220.173223 68.847158 
L 221.402975 66.300632 
L 223.862479 66.300632 
L 225.092231 63.754105 
L 229.396364 63.754105 
L 230.01124 62.480842 
L 239.23438 62.480842 
L 239.849256 61.207579 
L 240.464132 61.207579 
L 241.079008 59.934316 
L 241.693884 59.934316 
L 242.30876 58.661053 
L 242.923636 58.661053 
L 243.538512 57.387789 
L 247.842645 57.387789 
L 248.457521 56.114526 
L 255.221157 56.114526 
L 255.836033 54.841263 
L 284.735207 54.841263 
L 285.350083 53.568 
L 398.487273 53.568 
L 398.487273 53.568 
" clip-path="url(#p892ba6855c)" style="fill: none; stroke-dasharray: 1.85,0.8; stroke-dashoffset: 0; stroke: #0000ff; stroke-width: 0.5"/>
   </g>
   <g id="line2d_16">
    <path d="M 73.832727 295.488 
L 74.447603 247.740632 
L 76.907107 247.740632 
L 78.13686 244.557474 
L 81.21124 244.557474 
L 83.055868 239.782737 
L 83.670744 239.782737 
L 84.900496 236.599579 
L 87.36 236.599579 
L 89.204628 231.824842 
L 89.819504 228.641684 
L 90.43438 228.641684 
L 91.049256 227.050105 
L 95.968264 227.050105 
L 96.58314 223.866947 
L 97.812893 223.866947 
L 98.427769 222.275368 
L 99.657521 222.275368 
L 100.887273 219.092211 
L 105.191405 219.092211 
L 105.806281 217.500632 
L 107.036033 217.500632 
L 107.650909 215.909053 
L 114.414545 215.909053 
L 115.029421 212.725895 
L 115.644298 212.725895 
L 116.259174 211.134316 
L 116.87405 211.134316 
L 117.488926 207.951158 
L 119.333554 207.951158 
L 120.563306 201.584842 
L 121.793058 198.401684 
L 122.407934 198.401684 
L 123.02281 196.810105 
L 126.712066 196.810105 
L 127.326942 195.218526 
L 128.556694 195.218526 
L 129.17157 192.035368 
L 131.016198 187.260632 
L 132.860826 187.260632 
L 133.475702 185.669053 
L 135.935207 185.669053 
L 136.550083 184.077474 
L 139.624463 184.077474 
L 140.854215 177.711158 
L 141.469091 177.711158 
L 142.083967 176.119579 
L 143.313719 176.119579 
L 143.928595 174.528 
L 145.158347 174.528 
L 145.773223 172.936421 
L 148.232727 172.936421 
L 148.847603 171.344842 
L 150.692231 171.344842 
L 151.307107 169.753263 
L 153.151736 169.753263 
L 154.381488 166.570105 
L 155.61124 166.570105 
L 157.455868 161.795368 
L 159.915372 161.795368 
L 161.145124 158.612211 
L 161.76 158.612211 
L 162.374876 157.020632 
L 165.449256 157.020632 
L 166.679008 153.837474 
L 167.293884 153.837474 
L 167.90876 150.654316 
L 169.753388 150.654316 
L 170.368264 149.062737 
L 170.98314 149.062737 
L 171.598017 147.471158 
L 174.672397 147.471158 
L 175.287273 142.696421 
L 175.902149 141.104842 
L 176.517025 141.104842 
L 177.131901 139.513263 
L 181.436033 139.513263 
L 182.050909 137.921684 
L 183.280661 137.921684 
L 183.895537 136.330105 
L 184.510413 136.330105 
L 185.740165 133.146947 
L 194.34843 133.146947 
L 194.963306 131.555368 
L 201.112066 131.555368 
L 201.726942 129.963789 
L 207.260826 129.963789 
L 207.875702 126.780632 
L 208.490579 126.780632 
L 209.105455 125.189053 
L 211.564959 125.189053 
L 212.179835 123.597474 
L 215.869091 123.597474 
L 217.098843 120.414316 
L 217.713719 120.414316 
L 218.328595 117.231158 
L 218.943471 117.231158 
L 220.173223 114.048 
L 220.788099 114.048 
L 221.402975 110.864842 
L 222.017851 110.864842 
L 222.632727 109.273263 
L 223.862479 109.273263 
L 224.477355 107.681684 
L 226.93686 107.681684 
L 229.396364 101.315368 
L 230.01124 101.315368 
L 230.626116 99.723789 
L 231.855868 93.357474 
L 232.470744 88.582737 
L 233.08562 86.991158 
L 239.23438 86.991158 
L 239.849256 85.399579 
L 241.693884 85.399579 
L 242.30876 83.808 
L 247.842645 83.808 
L 248.457521 80.624842 
L 249.072397 79.033263 
L 249.687273 79.033263 
L 250.302149 75.850105 
L 250.917025 75.850105 
L 251.531901 74.258526 
L 257.680661 74.258526 
L 258.295537 72.666947 
L 261.369917 72.666947 
L 262.599669 69.483789 
L 263.214545 69.483789 
L 263.829421 67.892211 
L 265.059174 67.892211 
L 265.67405 66.300632 
L 275.512066 66.300632 
L 276.126942 64.709053 
L 279.201322 64.709053 
L 279.816198 63.117474 
L 281.660826 63.117474 
L 282.275702 61.525895 
L 283.505455 61.525895 
L 284.120331 58.342737 
L 291.498843 58.342737 
L 292.113719 56.751158 
L 307.48562 56.751158 
L 308.100496 55.159579 
L 312.404628 55.159579 
L 313.019504 53.568 
L 398.487273 53.568 
L 398.487273 53.568 
" clip-path="url(#p892ba6855c)" style="fill: none; stroke-dasharray: 1.85,0.8; stroke-dashoffset: 0; stroke: #bf00bf; stroke-width: 0.5"/>
   </g>
   <g id="line2d_17">
    <path d="M 73.832727 295.488 
L 74.447603 245.822305 
L 76.907107 245.822305 
L 78.13686 242.618066 
L 78.751736 242.618066 
L 79.981488 239.413828 
L 83.055868 239.413828 
L 84.900496 234.60747 
L 86.745124 234.60747 
L 87.36 233.005351 
L 87.974876 233.005351 
L 91.049256 224.994755 
L 91.664132 224.994755 
L 92.279008 223.392636 
L 92.893884 223.392636 
L 93.50876 221.790517 
L 94.123636 218.586278 
L 95.353388 218.586278 
L 95.968264 216.984159 
L 96.58314 216.984159 
L 97.812893 213.779921 
L 98.427769 213.779921 
L 99.042645 210.575682 
L 100.887273 210.575682 
L 101.502149 205.769325 
L 102.117025 202.565086 
L 102.731901 200.962967 
L 103.346777 197.758728 
L 103.961653 197.758728 
L 104.576529 194.55449 
L 105.806281 194.55449 
L 107.650909 189.748132 
L 108.880661 189.748132 
L 109.495537 184.941775 
L 112.569917 184.941775 
L 113.184793 183.339656 
L 113.799669 183.339656 
L 114.414545 180.135417 
L 115.029421 178.533298 
L 116.259174 178.533298 
L 116.87405 176.931179 
L 117.488926 172.124821 
L 118.103802 168.920583 
L 119.94843 164.114225 
L 120.563306 164.114225 
L 121.178182 159.307868 
L 121.793058 159.307868 
L 122.407934 156.103629 
L 123.02281 154.50151 
L 124.252562 154.50151 
L 124.867438 152.899391 
L 125.482314 152.899391 
L 126.09719 149.695152 
L 127.326942 146.490914 
L 127.941818 143.286675 
L 129.17157 140.082437 
L 131.016198 140.082437 
L 131.631074 135.276079 
L 132.24595 135.276079 
L 133.475702 132.071841 
L 134.705455 132.071841 
L 135.320331 130.469722 
L 135.935207 127.265483 
L 137.164959 127.265483 
L 139.009587 122.459126 
L 143.313719 122.459126 
L 143.928595 120.857007 
L 144.543471 117.652768 
L 145.773223 117.652768 
L 147.002975 114.44853 
L 147.617851 114.44853 
L 148.847603 111.244291 
L 150.692231 111.244291 
L 151.307107 109.642172 
L 152.53686 109.642172 
L 153.151736 106.437934 
L 154.381488 106.437934 
L 154.996364 104.835815 
L 155.61124 101.631576 
L 156.226116 101.631576 
L 156.840992 100.029457 
L 159.300496 100.029457 
L 159.915372 98.427338 
L 162.989752 98.427338 
L 163.604628 95.223099 
L 164.219504 95.223099 
L 164.83438 90.416742 
L 165.449256 87.212503 
L 166.064132 87.212503 
L 166.679008 84.008265 
L 167.293884 82.406146 
L 170.98314 82.406146 
L 171.598017 80.804026 
L 174.057521 80.804026 
L 174.672397 79.201907 
L 175.287273 79.201907 
L 175.902149 77.599788 
L 177.131901 77.599788 
L 177.746777 75.997669 
L 178.361653 75.997669 
L 179.591405 72.79343 
L 180.206281 72.79343 
L 180.821157 69.589192 
L 181.436033 69.589192 
L 182.665785 66.384954 
L 183.280661 66.384954 
L 183.895537 63.180715 
L 184.510413 61.578596 
L 186.355041 61.578596 
L 186.969917 59.976477 
L 188.199669 59.976477 
L 188.814545 58.374358 
L 190.659174 58.374358 
L 191.27405 56.772238 
L 191.888926 56.772238 
L 192.503802 55.170119 
L 194.963306 55.170119 
L 195.578182 53.568 
L 398.487273 53.568 
L 398.487273 53.568 
" clip-path="url(#p892ba6855c)" style="fill: none; stroke-dasharray: 1.85,0.8; stroke-dashoffset: 0; stroke: #bfbf00; stroke-width: 0.5"/>
   </g>
   <g id="line2d_18">
    <path d="M 73.832727 295.488 
L 74.447603 243.852901 
L 75.062479 243.852901 
L 75.677355 242.896696 
L 78.13686 242.896696 
L 78.751736 240.984285 
L 80.596364 240.984285 
L 81.21124 240.028079 
L 82.440992 240.028079 
L 83.055868 239.071874 
L 84.28562 239.071874 
L 84.900496 238.115668 
L 87.36 238.115668 
L 87.974876 237.159462 
L 89.204628 237.159462 
L 91.049256 234.290846 
L 91.664132 234.290846 
L 92.279008 233.33464 
L 94.738512 233.33464 
L 95.353388 232.378435 
L 96.58314 232.378435 
L 97.198017 230.466024 
L 97.812893 230.466024 
L 99.042645 228.553613 
L 103.346777 228.553613 
L 103.961653 226.641202 
L 104.576529 225.684996 
L 105.806281 225.684996 
L 106.421157 224.728791 
L 108.880661 224.728791 
L 109.495537 223.772585 
L 113.799669 223.772585 
L 114.414545 222.816379 
L 115.644298 222.816379 
L 116.259174 219.947763 
L 116.87405 214.21053 
L 117.488926 212.298119 
L 118.103802 212.298119 
L 118.718678 211.341913 
L 119.333554 211.341913 
L 119.94843 210.385708 
L 121.178182 204.648474 
L 122.407934 200.823652 
L 123.02281 197.955036 
L 126.09719 193.174008 
L 128.556694 193.174008 
L 130.401322 190.305391 
L 131.016198 186.480569 
L 131.631074 184.568158 
L 132.24595 179.78713 
L 133.475702 177.874719 
L 135.320331 177.874719 
L 135.935207 176.918514 
L 143.313719 176.918514 
L 145.158347 174.049897 
L 151.921983 174.049897 
L 152.53686 173.093692 
L 153.151736 173.093692 
L 153.766612 172.137486 
L 154.381488 172.137486 
L 154.996364 171.181281 
L 156.840992 171.181281 
L 157.455868 170.225075 
L 158.070744 170.225075 
L 158.68562 169.26887 
L 159.300496 169.26887 
L 159.915372 168.312664 
L 161.76 168.312664 
L 162.989752 166.400253 
L 164.219504 166.400253 
L 164.83438 165.444047 
L 169.753388 165.444047 
L 171.598017 162.575431 
L 172.212893 162.575431 
L 172.827769 160.66302 
L 174.672397 160.66302 
L 175.902149 158.750609 
L 176.517025 158.750609 
L 177.131901 157.794403 
L 178.361653 157.794403 
L 180.206281 152.05717 
L 180.821157 152.05717 
L 181.436033 150.144759 
L 182.050909 150.144759 
L 182.665785 149.188553 
L 183.280661 146.319937 
L 183.895537 146.319937 
L 184.510413 145.363731 
L 185.125289 145.363731 
L 185.740165 143.45132 
L 186.969917 141.538909 
L 187.584793 141.538909 
L 188.199669 140.582704 
L 190.659174 140.582704 
L 191.27405 139.626498 
L 194.963306 139.626498 
L 195.578182 137.714087 
L 196.193058 136.757881 
L 197.42281 136.757881 
L 198.037686 135.801676 
L 201.726942 135.801676 
L 202.341818 134.84547 
L 205.416198 134.84547 
L 206.031074 132.933059 
L 208.490579 132.933059 
L 209.105455 131.976854 
L 209.720331 130.064443 
L 215.869091 130.064443 
L 217.098843 128.152032 
L 220.788099 128.152032 
L 221.402975 127.195826 
L 222.632727 127.195826 
L 223.862479 125.283415 
L 224.477355 125.283415 
L 225.092231 124.327209 
L 225.707107 124.327209 
L 226.321983 123.371004 
L 228.166612 123.371004 
L 228.781488 122.414798 
L 230.626116 122.414798 
L 231.240992 121.458593 
L 234.315372 121.458593 
L 234.930248 120.502387 
L 239.849256 120.502387 
L 240.464132 119.546182 
L 250.302149 119.546182 
L 251.531901 117.633771 
L 253.376529 117.633771 
L 253.991405 116.677565 
L 258.910413 116.677565 
L 260.140165 114.765154 
L 263.829421 114.765154 
L 264.444298 113.808949 
L 268.74843 113.808949 
L 269.363306 112.852743 
L 269.978182 110.940332 
L 270.593058 110.940332 
L 271.207934 109.984126 
L 271.82281 109.984126 
L 272.437686 108.071715 
L 273.667438 108.071715 
L 274.282314 104.246893 
L 276.126942 104.246893 
L 276.741818 103.290688 
L 277.97157 103.290688 
L 279.201322 101.378277 
L 287.809587 101.378277 
L 288.424463 100.422071 
L 290.269091 100.422071 
L 291.498843 98.50966 
L 292.728595 98.50966 
L 293.343471 97.553455 
L 294.573223 97.553455 
L 295.188099 96.597249 
L 304.41124 96.597249 
L 305.640992 94.684838 
L 310.56 94.684838 
L 311.174876 93.728632 
L 312.404628 93.728632 
L 313.019504 92.772427 
L 314.864132 92.772427 
L 315.479008 91.816221 
L 316.093884 91.816221 
L 316.70876 90.860016 
L 317.938512 90.860016 
L 318.553388 87.991399 
L 319.168264 86.078988 
L 320.398017 86.078988 
L 321.627769 84.166577 
L 322.857521 84.166577 
L 323.472397 82.254166 
L 324.087273 81.29796 
L 327.161653 81.29796 
L 327.776529 80.341755 
L 330.236033 80.341755 
L 331.465785 78.429344 
L 332.695537 78.429344 
L 333.310413 77.473138 
L 334.540165 77.473138 
L 335.155041 76.516933 
L 344.993058 76.516933 
L 345.607934 75.560727 
L 359.750083 75.560727 
L 360.364959 74.604522 
L 362.824463 74.604522 
L 363.439339 73.648316 
L 365.283967 73.648316 
L 365.898843 72.692111 
L 371.432727 72.692111 
L 372.662479 70.7797 
L 373.277355 70.7797 
L 373.892231 69.823494 
L 377.581488 69.823494 
L 378.196364 68.867289 
L 378.81124 68.867289 
L 379.426116 67.911083 
L 380.655868 67.911083 
L 381.270744 65.998672 
L 382.500496 65.998672 
L 383.115372 65.042466 
L 384.345124 59.305233 
L 386.189752 59.305233 
L 386.804628 57.392822 
L 390.493884 57.392822 
L 391.10876 56.436617 
L 394.798017 56.436617 
L 396.027769 54.524206 
L 397.872397 54.524206 
L 398.487273 53.568 
L 398.487273 53.568 
" clip-path="url(#p892ba6855c)" style="fill: none; stroke-dasharray: 1.85,0.8; stroke-dashoffset: 0; stroke: #000000; stroke-width: 0.5"/>
   </g>
   <g id="patch_3">
    <path d="M 57.6 307.584 
L 57.6 41.472 
" style="fill: none; stroke: #000000; stroke-width: 0.8; stroke-linejoin: miter; stroke-linecap: square"/>
   </g>
   <g id="patch_4">
    <path d="M 414.72 307.584 
L 414.72 41.472 
" style="fill: none; stroke: #000000; stroke-width: 0.8; stroke-linejoin: miter; stroke-linecap: square"/>
   </g>
   <g id="patch_5">
    <path d="M 57.6 307.584 
L 414.72 307.584 
" style="fill: none; stroke: #000000; stroke-width: 0.8; stroke-linejoin: miter; stroke-linecap: square"/>
   </g>
   <g id="patch_6">
    <path d="M 57.6 41.472 
L 414.72 41.472 
" style="fill: none; stroke: #000000; stroke-width: 0.8; stroke-linejoin: miter; stroke-linecap: square"/>
   </g>
   <g id="text_15">
    <!-- count=1000, googlenet=150, resnet50=187, squeezenetv1=112, vgg19=112, yolov2=187 -->
    <g transform="translate(-3.84 35.472) scale(0.12 -0.12)">
     <defs>
      <path id="FangSong-6f" d="M 2875 1400 
Q 2875 775 2500 362 
Q 2125 -50 1575 -50 
Q 1000 -50 637 375 
Q 275 800 275 1400 
Q 275 1950 637 2400 
Q 1000 2850 1575 2850 
Q 2175 2850 2525 2400 
Q 2875 1950 2875 1400 
z
M 675 1375 
Q 675 725 937 412 
Q 1200 100 1575 100 
Q 2000 100 2237 437 
Q 2475 775 2475 1375 
Q 2475 2025 2212 2362 
Q 1950 2700 1575 2700 
Q 1225 2700 950 2362 
Q 675 2025 675 1375 
z
" transform="scale(0.015625)"/>
      <path id="FangSong-75" d="M 1425 225 
Q 1725 225 1937 375 
Q 2150 525 2250 850 
L 2250 2425 
Q 2250 2525 2200 2587 
Q 2150 2650 2025 2650 
L 1875 2650 
L 1875 2800 
L 2025 2800 
Q 2175 2800 2300 2825 
Q 2425 2850 2550 2950 
L 2600 2950 
L 2600 500 
Q 2600 400 2662 350 
Q 2725 300 2825 300 
L 2975 300 
L 2975 150 
L 2825 150 
Q 2700 150 2575 112 
Q 2450 75 2300 0 
L 2250 0 
L 2250 525 
Q 2125 250 1875 112 
Q 1625 -25 1300 -25 
Q 900 -25 700 200 
Q 500 425 500 925 
L 500 2425 
Q 500 2525 450 2587 
Q 400 2650 275 2650 
L 125 2650 
L 125 2800 
L 275 2800 
Q 425 2800 550 2825 
Q 675 2850 800 2950 
L 850 2950 
L 850 875 
Q 850 525 1000 375 
Q 1150 225 1425 225 
z
" transform="scale(0.015625)"/>
      <path id="FangSong-3d" d="M 175 2725 
L 175 2950 
L 2950 2950 
L 2950 2725 
L 175 2725 
z
M 175 1450 
L 175 1675 
L 2950 1675 
L 2950 1450 
L 175 1450 
z
" transform="scale(0.015625)"/>
      <path id="FangSong-2c" d="M 1325 75 
Q 1200 25 1100 75 
Q 1000 125 962 237 
Q 925 350 925 437 
Q 925 525 987 612 
Q 1050 700 1150 737 
Q 1250 775 1425 725 
Q 1600 675 1650 500 
Q 1700 325 1662 150 
Q 1625 -25 1525 -200 
Q 1425 -375 1312 -475 
Q 1200 -575 1025 -675 
L 950 -575 
Q 1100 -450 1187 -312 
Q 1275 -175 1325 75 
z
" transform="scale(0.015625)"/>
      <path id="FangSong-20" transform="scale(0.015625)"/>
      <path id="FangSong-67" d="M 850 1875 
Q 850 1575 1025 1362 
Q 1200 1150 1500 1150 
Q 1825 1150 1987 1337 
Q 2150 1525 2150 1875 
Q 2150 2300 1962 2487 
Q 1775 2675 1500 2675 
Q 1225 2675 1037 2487 
Q 850 2300 850 1875 
z
M 2075 525 
Q 2450 475 2625 312 
Q 2800 150 2800 -125 
Q 2800 -500 2487 -725 
Q 2175 -950 1500 -950 
Q 975 -950 650 -737 
Q 325 -525 325 -250 
Q 325 -75 450 100 
Q 575 275 850 375 
Q 700 450 612 537 
Q 525 625 525 750 
Q 525 900 625 1012 
Q 725 1125 875 1200 
Q 725 1325 612 1500 
Q 500 1675 500 1875 
Q 500 2250 762 2537 
Q 1025 2825 1500 2825 
Q 1700 2825 1887 2775 
Q 2075 2725 2200 2600 
Q 2375 2725 2512 2787 
Q 2650 2850 2750 2850 
Q 2875 2850 2925 2762 
Q 2975 2675 2975 2600 
Q 2975 2500 2937 2437 
Q 2900 2375 2800 2375 
Q 2725 2375 2675 2412 
Q 2625 2450 2600 2525 
Q 2575 2600 2487 2587 
Q 2400 2575 2300 2500 
Q 2400 2400 2450 2225 
Q 2500 2050 2500 1875 
Q 2500 1575 2262 1287 
Q 2025 1000 1500 1000 
Q 1350 1000 1225 1037 
Q 1100 1075 1025 1125 
Q 925 1075 875 1000 
Q 825 925 825 875 
Q 825 775 875 725 
Q 925 675 1025 675 
Q 1350 625 1612 587 
Q 1875 550 2075 525 
z
M 1050 325 
Q 825 225 737 87 
Q 650 -50 650 -250 
Q 650 -450 875 -625 
Q 1100 -800 1550 -800 
Q 1975 -800 2225 -662 
Q 2475 -525 2475 -250 
Q 2475 -75 2412 25 
Q 2350 125 2225 150 
Q 1975 200 1675 237 
Q 1375 275 1050 325 
z
" transform="scale(0.015625)"/>
      <path id="FangSong-6c" d="M 900 4275 
Q 1125 4275 1325 4325 
Q 1525 4375 1700 4475 
L 1750 4475 
L 1750 350 
Q 1750 250 1812 200 
Q 1875 150 1975 150 
L 2550 150 
L 2550 0 
L 600 0 
L 600 150 
L 1175 150 
Q 1300 150 1350 200 
Q 1400 250 1400 350 
L 1400 3925 
Q 1400 4025 1350 4075 
Q 1300 4125 1175 4125 
L 625 4125 
L 625 4275 
L 900 4275 
z
" transform="scale(0.015625)"/>
      <path id="FangSong-72" d="M 1250 2025 
Q 1500 2425 1787 2637 
Q 2075 2850 2375 2850 
Q 2625 2850 2762 2737 
Q 2900 2625 2900 2475 
Q 2900 2350 2837 2275 
Q 2775 2200 2650 2200 
Q 2525 2200 2462 2275 
Q 2400 2350 2425 2475 
Q 2425 2550 2400 2600 
Q 2375 2650 2250 2650 
Q 2050 2650 1762 2400 
Q 1475 2150 1250 1700 
L 1250 350 
Q 1250 250 1312 200 
Q 1375 150 1475 150 
L 2025 150 
L 2025 0 
L 175 0 
L 175 150 
L 675 150 
Q 800 150 850 200 
Q 900 250 900 350 
L 900 2425 
Q 900 2525 850 2587 
Q 800 2650 675 2650 
L 200 2650 
L 200 2800 
L 400 2800 
Q 575 2800 812 2837 
Q 1050 2875 1175 2925 
L 1250 2925 
L 1250 2025 
z
" transform="scale(0.015625)"/>
      <path id="FangSong-73" d="M 600 2075 
Q 600 2450 887 2650 
Q 1175 2850 1575 2850 
Q 1800 2850 2000 2787 
Q 2200 2725 2275 2725 
Q 2350 2725 2400 2750 
Q 2450 2775 2525 2850 
L 2625 2025 
L 2475 2000 
Q 2375 2325 2137 2512 
Q 1900 2700 1600 2700 
Q 1275 2700 1087 2575 
Q 900 2450 900 2225 
Q 900 2025 987 1912 
Q 1075 1800 1300 1750 
Q 1475 1675 1737 1587 
Q 2000 1500 2225 1400 
Q 2425 1300 2562 1137 
Q 2700 975 2700 775 
Q 2700 400 2437 187 
Q 2175 -25 1675 -25 
Q 1350 -25 1187 37 
Q 1025 100 925 100 
Q 850 100 762 62 
Q 675 25 575 -25 
L 500 900 
L 650 925 
Q 725 525 975 325 
Q 1225 125 1675 125 
Q 2025 125 2212 250 
Q 2400 375 2400 625 
Q 2400 800 2300 912 
Q 2200 1025 2100 1075 
Q 1850 1175 1550 1287 
Q 1250 1400 1025 1500 
Q 800 1600 700 1750 
Q 600 1900 600 2075 
z
" transform="scale(0.015625)"/>
      <path id="FangSong-37" d="M 2800 4100 
Q 2275 3250 1962 2437 
Q 1650 1625 1650 1025 
Q 1650 925 1662 737 
Q 1675 550 1675 300 
Q 1675 100 1612 25 
Q 1550 -50 1400 -50 
Q 1275 -50 1187 37 
Q 1100 125 1100 350 
Q 1100 825 1312 1525 
Q 1525 2225 2450 3900 
L 1200 3900 
Q 925 3900 762 3725 
Q 600 3550 525 3200 
L 375 3225 
L 550 4275 
L 2800 4275 
L 2800 4100 
z
" transform="scale(0.015625)"/>
      <path id="FangSong-71" d="M 2250 2150 
Q 2150 2375 1975 2512 
Q 1800 2650 1550 2650 
Q 1200 2650 950 2350 
Q 700 2050 700 1325 
Q 700 700 912 437 
Q 1125 175 1450 175 
Q 1725 175 1937 300 
Q 2150 425 2250 725 
L 2250 2150 
z
M 2600 -550 
Q 2600 -675 2662 -725 
Q 2725 -775 2825 -775 
L 2975 -775 
L 2975 -925 
L 1825 -925 
L 1825 -775 
L 2025 -775 
Q 2150 -775 2200 -725 
Q 2250 -675 2250 -550 
L 2250 375 
Q 2100 175 1887 75 
Q 1675 -25 1375 -25 
Q 950 -25 625 337 
Q 300 700 300 1400 
Q 300 2075 675 2450 
Q 1050 2825 1475 2825 
Q 1750 2825 1937 2725 
Q 2125 2625 2275 2475 
L 2500 2800 
L 2600 2800 
L 2600 -550 
z
" transform="scale(0.015625)"/>
      <path id="FangSong-7a" d="M 2725 975 
L 2550 0 
L 400 0 
L 400 125 
L 2125 2650 
L 1200 2650 
Q 975 2650 825 2487 
Q 675 2325 575 1925 
L 425 1950 
L 525 2800 
L 2575 2800 
L 2575 2725 
L 825 150 
L 1775 150 
Q 2100 150 2287 350 
Q 2475 550 2575 1000 
L 2725 975 
z
" transform="scale(0.015625)"/>
      <path id="FangSong-76" d="M 1600 -25 
L 1450 -25 
L 600 2425 
Q 575 2525 500 2587 
Q 425 2650 325 2650 
L 200 2650 
L 200 2800 
L 1275 2800 
L 1275 2650 
L 1175 2650 
Q 1025 2650 987 2575 
Q 950 2500 1000 2325 
L 1600 575 
L 1650 575 
L 2250 2300 
Q 2325 2475 2262 2562 
Q 2200 2650 2050 2650 
L 2000 2650 
L 2000 2800 
L 2900 2800 
L 2900 2650 
L 2850 2650 
Q 2700 2650 2612 2562 
Q 2525 2475 2450 2300 
L 1600 -25 
z
" transform="scale(0.015625)"/>
      <path id="FangSong-39" d="M 675 2950 
Q 675 2400 887 2112 
Q 1100 1825 1425 1825 
Q 1800 1825 2075 2175 
Q 2350 2525 2350 2825 
Q 2350 3425 2150 3787 
Q 1950 4150 1500 4150 
Q 1075 4150 875 3812 
Q 675 3475 675 2950 
z
M 1350 1600 
Q 850 1600 550 1912 
Q 250 2225 250 2925 
Q 250 3525 575 3925 
Q 900 4325 1500 4325 
Q 2125 4325 2475 3825 
Q 2825 3325 2825 2375 
Q 2825 1325 2412 637 
Q 2000 -50 1275 -50 
Q 950 -50 712 100 
Q 475 250 475 500 
Q 475 600 537 700 
Q 600 800 750 800 
Q 900 800 950 687 
Q 1000 575 1000 425 
Q 1000 325 1025 262 
Q 1050 200 1075 175 
Q 1100 150 1162 137 
Q 1225 125 1300 125 
Q 1750 125 2025 625 
Q 2300 1125 2350 2300 
Q 2225 2000 1975 1800 
Q 1725 1600 1350 1600 
z
" transform="scale(0.015625)"/>
     </defs>
     <use xlink:href="#FangSong-63"/>
     <use xlink:href="#FangSong-6f" x="50"/>
     <use xlink:href="#FangSong-75" x="100"/>
     <use xlink:href="#FangSong-6e" x="150"/>
     <use xlink:href="#FangSong-74" x="200"/>
     <use xlink:href="#FangSong-3d" x="250"/>
     <use xlink:href="#FangSong-31" x="300"/>
     <use xlink:href="#FangSong-30" x="350"/>
     <use xlink:href="#FangSong-30" x="400"/>
     <use xlink:href="#FangSong-30" x="450"/>
     <use xlink:href="#FangSong-2c" x="500"/>
     <use xlink:href="#FangSong-20" x="550"/>
     <use xlink:href="#FangSong-67" x="600"/>
     <use xlink:href="#FangSong-6f" x="650"/>
     <use xlink:href="#FangSong-6f" x="700"/>
     <use xlink:href="#FangSong-67" x="750"/>
     <use xlink:href="#FangSong-6c" x="800"/>
     <use xlink:href="#FangSong-65" x="850"/>
     <use xlink:href="#FangSong-6e" x="900"/>
     <use xlink:href="#FangSong-65" x="950"/>
     <use xlink:href="#FangSong-74" x="1000"/>
     <use xlink:href="#FangSong-3d" x="1050"/>
     <use xlink:href="#FangSong-31" x="1100"/>
     <use xlink:href="#FangSong-35" x="1150"/>
     <use xlink:href="#FangSong-30" x="1200"/>
     <use xlink:href="#FangSong-2c" x="1250"/>
     <use xlink:href="#FangSong-20" x="1300"/>
     <use xlink:href="#FangSong-72" x="1350"/>
     <use xlink:href="#FangSong-65" x="1400"/>
     <use xlink:href="#FangSong-73" x="1450"/>
     <use xlink:href="#FangSong-6e" x="1500"/>
     <use xlink:href="#FangSong-65" x="1550"/>
     <use xlink:href="#FangSong-74" x="1600"/>
     <use xlink:href="#FangSong-35" x="1650"/>
     <use xlink:href="#FangSong-30" x="1700"/>
     <use xlink:href="#FangSong-3d" x="1750"/>
     <use xlink:href="#FangSong-31" x="1800"/>
     <use xlink:href="#FangSong-38" x="1850"/>
     <use xlink:href="#FangSong-37" x="1900"/>
     <use xlink:href="#FangSong-2c" x="1950"/>
     <use xlink:href="#FangSong-20" x="2000"/>
     <use xlink:href="#FangSong-73" x="2050"/>
     <use xlink:href="#FangSong-71" x="2100"/>
     <use xlink:href="#FangSong-75" x="2150"/>
     <use xlink:href="#FangSong-65" x="2200"/>
     <use xlink:href="#FangSong-65" x="2250"/>
     <use xlink:href="#FangSong-7a" x="2300"/>
     <use xlink:href="#FangSong-65" x="2350"/>
     <use xlink:href="#FangSong-6e" x="2400"/>
     <use xlink:href="#FangSong-65" x="2450"/>
     <use xlink:href="#FangSong-74" x="2500"/>
     <use xlink:href="#FangSong-76" x="2550"/>
     <use xlink:href="#FangSong-31" x="2600"/>
     <use xlink:href="#FangSong-3d" x="2650"/>
     <use xlink:href="#FangSong-31" x="2700"/>
     <use xlink:href="#FangSong-31" x="2750"/>
     <use xlink:href="#FangSong-32" x="2800"/>
     <use xlink:href="#FangSong-2c" x="2850"/>
     <use xlink:href="#FangSong-20" x="2900"/>
     <use xlink:href="#FangSong-76" x="2950"/>
     <use xlink:href="#FangSong-67" x="3000"/>
     <use xlink:href="#FangSong-67" x="3050"/>
     <use xlink:href="#FangSong-31" x="3100"/>
     <use xlink:href="#FangSong-39" x="3150"/>
     <use xlink:href="#FangSong-3d" x="3200"/>
     <use xlink:href="#FangSong-31" x="3250"/>
     <use xlink:href="#FangSong-31" x="3300"/>
     <use xlink:href="#FangSong-32" x="3350"/>
     <use xlink:href="#FangSong-2c" x="3400"/>
     <use xlink:href="#FangSong-20" x="3450"/>
     <use xlink:href="#FangSong-79" x="3500"/>
     <use xlink:href="#FangSong-6f" x="3550"/>
     <use xlink:href="#FangSong-6c" x="3600"/>
     <use xlink:href="#FangSong-6f" x="3650"/>
     <use xlink:href="#FangSong-76" x="3700"/>
     <use xlink:href="#FangSong-32" x="3750"/>
     <use xlink:href="#FangSong-3d" x="3800"/>
     <use xlink:href="#FangSong-31" x="3850"/>
     <use xlink:href="#FangSong-38" x="3900"/>
     <use xlink:href="#FangSong-37" x="3950"/>
    </g>
   </g>
   <g id="legend_1">
    <g id="patch_7">
     <path d="M 315.72 302.584 
L 407.72 302.584 
Q 409.72 302.584 409.72 300.584 
L 409.72 220.794937 
Q 409.72 218.794937 407.72 218.794937 
L 315.72 218.794937 
Q 313.72 218.794937 313.72 220.794937 
L 313.72 300.584 
Q 313.72 302.584 315.72 302.584 
z
" style="fill: #ffffff; opacity: 0.8; stroke: #cccccc; stroke-linejoin: miter"/>
    </g>
    <g id="line2d_19">
     <path d="M 317.72 226.294937 
L 327.72 226.294937 
L 337.72 226.294937 
" style="fill: none; stroke: #ff0000; stroke-linecap: square"/>
    </g>
    <g id="text_16">
     <!-- total -->
     <g transform="translate(345.72 229.794937) scale(0.1 -0.1)">
      <use xlink:href="#FangSong-74"/>
      <use xlink:href="#FangSong-6f" x="50"/>
      <use xlink:href="#FangSong-74" x="100"/>
      <use xlink:href="#FangSong-61" x="150"/>
      <use xlink:href="#FangSong-6c" x="200"/>
     </g>
    </g>
    <g id="line2d_20">
     <path d="M 317.72 239.74025 
L 327.72 239.74025 
L 337.72 239.74025 
" style="fill: none; stroke-dasharray: 1.85,0.8; stroke-dashoffset: 0; stroke: #008000; stroke-width: 0.5"/>
    </g>
    <g id="text_17">
     <!-- squeezenetv1 -->
     <g transform="translate(345.72 243.24025) scale(0.1 -0.1)">
      <use xlink:href="#FangSong-73"/>
      <use xlink:href="#FangSong-71" x="50"/>
      <use xlink:href="#FangSong-75" x="100"/>
      <use xlink:href="#FangSong-65" x="150"/>
      <use xlink:href="#FangSong-65" x="200"/>
      <use xlink:href="#FangSong-7a" x="250"/>
      <use xlink:href="#FangSong-65" x="300"/>
      <use xlink:href="#FangSong-6e" x="350"/>
      <use xlink:href="#FangSong-65" x="400"/>
      <use xlink:href="#FangSong-74" x="450"/>
      <use xlink:href="#FangSong-76" x="500"/>
      <use xlink:href="#FangSong-31" x="550"/>
     </g>
    </g>
    <g id="line2d_21">
     <path d="M 317.72 253.185562 
L 327.72 253.185562 
L 337.72 253.185562 
" style="fill: none; stroke-dasharray: 1.85,0.8; stroke-dashoffset: 0; stroke: #0000ff; stroke-width: 0.5"/>
    </g>
    <g id="text_18">
     <!-- googlenet -->
     <g transform="translate(345.72 256.685562) scale(0.1 -0.1)">
      <use xlink:href="#FangSong-67"/>
      <use xlink:href="#FangSong-6f" x="50"/>
      <use xlink:href="#FangSong-6f" x="100"/>
      <use xlink:href="#FangSong-67" x="150"/>
      <use xlink:href="#FangSong-6c" x="200"/>
      <use xlink:href="#FangSong-65" x="250"/>
      <use xlink:href="#FangSong-6e" x="300"/>
      <use xlink:href="#FangSong-65" x="350"/>
      <use xlink:href="#FangSong-74" x="400"/>
     </g>
    </g>
    <g id="line2d_22">
     <path d="M 317.72 266.669937 
L 327.72 266.669937 
L 337.72 266.669937 
" style="fill: none; stroke-dasharray: 1.85,0.8; stroke-dashoffset: 0; stroke: #bf00bf; stroke-width: 0.5"/>
    </g>
    <g id="text_19">
     <!-- resnet50 -->
     <g transform="translate(345.72 270.169937) scale(0.1 -0.1)">
      <use xlink:href="#FangSong-72"/>
      <use xlink:href="#FangSong-65" x="50"/>
      <use xlink:href="#FangSong-73" x="100"/>
      <use xlink:href="#FangSong-6e" x="150"/>
      <use xlink:href="#FangSong-65" x="200"/>
      <use xlink:href="#FangSong-74" x="250"/>
      <use xlink:href="#FangSong-35" x="300"/>
      <use xlink:href="#FangSong-30" x="350"/>
     </g>
    </g>
    <g id="line2d_23">
     <path d="M 317.72 280.11525 
L 327.72 280.11525 
L 337.72 280.11525 
" style="fill: none; stroke-dasharray: 1.85,0.8; stroke-dashoffset: 0; stroke: #bfbf00; stroke-width: 0.5"/>
    </g>
    <g id="text_20">
     <!-- yolov2 -->
     <g transform="translate(345.72 283.61525) scale(0.1 -0.1)">
      <use xlink:href="#FangSong-79"/>
      <use xlink:href="#FangSong-6f" x="50"/>
      <use xlink:href="#FangSong-6c" x="100"/>
      <use xlink:href="#FangSong-6f" x="150"/>
      <use xlink:href="#FangSong-76" x="200"/>
      <use xlink:href="#FangSong-32" x="250"/>
     </g>
    </g>
    <g id="line2d_24">
     <path d="M 317.72 293.599625 
L 327.72 293.599625 
L 337.72 293.599625 
" style="fill: none; stroke-dasharray: 1.85,0.8; stroke-dashoffset: 0; stroke: #000000; stroke-width: 0.5"/>
    </g>
    <g id="text_21">
     <!-- vgg19 -->
     <g transform="translate(345.72 297.099625) scale(0.1 -0.1)">
      <use xlink:href="#FangSong-76"/>
      <use xlink:href="#FangSong-67" x="50"/>
      <use xlink:href="#FangSong-67" x="100"/>
      <use xlink:href="#FangSong-31" x="150"/>
      <use xlink:href="#FangSong-39" x="200"/>
     </g>
    </g>
   </g>
  </g>
 </g>
 <defs>
  <clipPath id="p892ba6855c">
   <rect x="57.6" y="41.472" width="357.12" height="266.112"/>
  </clipPath>
 </defs>
</svg>
