<?xml version="1.0" encoding="utf-8" standalone="no"?>
<!DOCTYPE svg PUBLIC "-//W3C//DTD SVG 1.1//EN"
  "http://www.w3.org/Graphics/SVG/1.1/DTD/svg11.dtd">
<svg xmlns:xlink="http://www.w3.org/1999/xlink" width="460.8pt" height="345.6pt" viewBox="0 0 460.8 345.6" xmlns="http://www.w3.org/2000/svg" version="1.1">
 <metadata>
  <rdf:RDF xmlns:dc="http://purl.org/dc/elements/1.1/" xmlns:cc="http://creativecommons.org/ns#" xmlns:rdf="http://www.w3.org/1999/02/22-rdf-syntax-ns#">
   <cc:Work>
    <dc:type rdf:resource="http://purl.org/dc/dcmitype/StillImage"/>
    <dc:date>2023-01-19T17:24:45.462785</dc:date>
    <dc:format>image/svg+xml</dc:format>
    <dc:creator>
     <cc:Agent>
      <dc:title>Matplotlib v3.6.3, https://matplotlib.org/</dc:title>
     </cc:Agent>
    </dc:creator>
   </cc:Work>
  </rdf:RDF>
 </metadata>
 <defs>
  <style type="text/css">*{stroke-linejoin: round; stroke-linecap: butt}</style>
 </defs>
 <g id="figure_1">
  <g id="patch_1">
   <path d="M 0 345.6 
L 460.8 345.6 
L 460.8 0 
L 0 0 
z
" style="fill: #ffffff"/>
  </g>
  <g id="axes_1">
   <g id="patch_2">
    <path d="M 57.6 307.584 
L 414.72 307.584 
L 414.72 41.472 
L 57.6 41.472 
z
" style="fill: #ffffff"/>
   </g>
   <g id="matplotlib.axis_1">
    <g id="xtick_1">
     <g id="line2d_1">
      <defs>
       <path id="md374bc4c65" d="M 0 0 
L 0 3.5 
" style="stroke: #000000; stroke-width: 0.8"/>
      </defs>
      <g>
       <use xlink:href="#md374bc4c65" x="69.298446" y="307.584" style="stroke: #000000; stroke-width: 0.8"/>
      </g>
     </g>
     <g id="text_1">
      <!-- 0 -->
      <g transform="translate(66.798446 321.576187) scale(0.1 -0.1)">
       <defs>
        <path id="FangSong-30" d="M 1575 4125 
Q 1225 4125 987 3587 
Q 750 3050 750 2150 
Q 750 1200 987 675 
Q 1225 150 1575 150 
Q 1950 150 2162 675 
Q 2375 1200 2375 2150 
Q 2375 3050 2175 3587 
Q 1975 4125 1575 4125 
z
M 1575 -50 
Q 1025 -50 650 525 
Q 275 1100 275 2150 
Q 275 3125 637 3725 
Q 1000 4325 1575 4325 
Q 2125 4325 2487 3750 
Q 2850 3175 2850 2150 
Q 2850 1125 2487 537 
Q 2125 -50 1575 -50 
z
" transform="scale(0.015625)"/>
       </defs>
       <use xlink:href="#FangSong-30"/>
      </g>
     </g>
    </g>
    <g id="xtick_2">
     <g id="line2d_2">
      <g>
       <use xlink:href="#md374bc4c65" x="114.64126" y="307.584" style="stroke: #000000; stroke-width: 0.8"/>
      </g>
     </g>
     <g id="text_2">
      <!-- 10 -->
      <g transform="translate(109.64126 321.576187) scale(0.1 -0.1)">
       <defs>
        <path id="FangSong-31" d="M 1800 4350 
L 1800 550 
Q 1800 350 1925 250 
Q 2050 150 2275 150 
L 2525 150 
L 2525 0 
L 700 0 
L 700 150 
L 925 150 
Q 1175 150 1287 250 
Q 1400 350 1400 550 
L 1400 3575 
Q 1400 3675 1337 3737 
Q 1275 3800 1150 3800 
L 700 3800 
L 700 3950 
L 925 3950 
Q 1225 3950 1412 4050 
Q 1600 4150 1700 4350 
L 1800 4350 
z
" transform="scale(0.015625)"/>
       </defs>
       <use xlink:href="#FangSong-31"/>
       <use xlink:href="#FangSong-30" x="50"/>
      </g>
     </g>
    </g>
    <g id="xtick_3">
     <g id="line2d_3">
      <g>
       <use xlink:href="#md374bc4c65" x="159.984073" y="307.584" style="stroke: #000000; stroke-width: 0.8"/>
      </g>
     </g>
     <g id="text_3">
      <!-- 20 -->
      <g transform="translate(154.984073 321.576187) scale(0.1 -0.1)">
       <defs>
        <path id="FangSong-32" d="M 2300 3225 
Q 2300 3675 2100 3912 
Q 1900 4150 1500 4150 
Q 1200 4150 987 3987 
Q 775 3825 775 3575 
Q 775 3425 862 3325 
Q 950 3225 950 3125 
Q 950 3000 887 2937 
Q 825 2875 700 2875 
Q 550 2875 462 2962 
Q 375 3050 375 3250 
Q 375 3775 750 4050 
Q 1125 4325 1550 4325 
Q 2150 4325 2437 4025 
Q 2725 3725 2725 3275 
Q 2725 2975 2587 2675 
Q 2450 2375 2150 2100 
Q 1425 1400 1037 962 
Q 650 525 575 375 
L 2050 375 
Q 2275 375 2425 550 
Q 2575 725 2625 1075 
L 2775 1075 
L 2625 0 
L 300 0 
L 300 325 
Q 425 550 712 900 
Q 1000 1250 1475 1725 
Q 1900 2150 2100 2525 
Q 2300 2900 2300 3225 
z
" transform="scale(0.015625)"/>
       </defs>
       <use xlink:href="#FangSong-32"/>
       <use xlink:href="#FangSong-30" x="50"/>
      </g>
     </g>
    </g>
    <g id="xtick_4">
     <g id="line2d_4">
      <g>
       <use xlink:href="#md374bc4c65" x="205.326887" y="307.584" style="stroke: #000000; stroke-width: 0.8"/>
      </g>
     </g>
     <g id="text_4">
      <!-- 30 -->
      <g transform="translate(200.326887 321.576187) scale(0.1 -0.1)">
       <defs>
        <path id="FangSong-33" d="M 2775 1150 
Q 2775 675 2425 312 
Q 2075 -50 1450 -50 
Q 1000 -50 675 200 
Q 350 450 350 775 
Q 350 925 450 1037 
Q 550 1150 650 1150 
Q 800 1150 862 1037 
Q 925 925 925 850 
Q 925 725 875 637 
Q 825 550 825 475 
Q 825 325 1012 225 
Q 1200 125 1425 125 
Q 1875 125 2100 387 
Q 2325 650 2325 1200 
Q 2325 1650 2087 1925 
Q 1850 2200 1200 2200 
L 1200 2375 
Q 1700 2375 1937 2612 
Q 2175 2850 2175 3275 
Q 2175 3625 1987 3887 
Q 1800 4150 1400 4150 
Q 1225 4150 1025 4062 
Q 825 3975 825 3775 
Q 825 3575 875 3525 
Q 925 3475 925 3400 
Q 925 3275 875 3200 
Q 825 3125 700 3125 
Q 600 3125 512 3200 
Q 425 3275 425 3475 
Q 425 3850 750 4087 
Q 1075 4325 1500 4325 
Q 2000 4325 2300 4012 
Q 2600 3700 2600 3350 
Q 2600 2975 2412 2712 
Q 2225 2450 1825 2325 
Q 2375 2125 2575 1800 
Q 2775 1475 2775 1150 
z
" transform="scale(0.015625)"/>
       </defs>
       <use xlink:href="#FangSong-33"/>
       <use xlink:href="#FangSong-30" x="50"/>
      </g>
     </g>
    </g>
    <g id="xtick_5">
     <g id="line2d_5">
      <g>
       <use xlink:href="#md374bc4c65" x="250.6697" y="307.584" style="stroke: #000000; stroke-width: 0.8"/>
      </g>
     </g>
     <g id="text_5">
      <!-- 40 -->
      <g transform="translate(245.6697 321.576187) scale(0.1 -0.1)">
       <defs>
        <path id="FangSong-34" d="M 2275 475 
Q 2275 300 2375 225 
Q 2475 150 2650 150 
L 2875 150 
L 2875 0 
L 1225 0 
L 1225 150 
L 1500 150 
Q 1700 150 1787 225 
Q 1875 300 1875 475 
L 1875 1300 
L 200 1300 
L 200 1425 
L 2025 4325 
L 2275 4325 
L 2275 1450 
L 2950 1450 
L 2950 1300 
L 2275 1300 
L 2275 475 
z
M 1850 3700 
L 425 1450 
L 1875 1450 
L 1875 3700 
L 1850 3700 
z
" transform="scale(0.015625)"/>
       </defs>
       <use xlink:href="#FangSong-34"/>
       <use xlink:href="#FangSong-30" x="50"/>
      </g>
     </g>
    </g>
    <g id="xtick_6">
     <g id="line2d_6">
      <g>
       <use xlink:href="#md374bc4c65" x="296.012514" y="307.584" style="stroke: #000000; stroke-width: 0.8"/>
      </g>
     </g>
     <g id="text_6">
      <!-- 50 -->
      <g transform="translate(291.012514 321.576187) scale(0.1 -0.1)">
       <defs>
        <path id="FangSong-35" d="M 1700 2750 
Q 2175 2750 2475 2387 
Q 2775 2025 2775 1425 
Q 2775 750 2462 350 
Q 2150 -50 1500 -50 
Q 1050 -50 700 212 
Q 350 475 350 850 
Q 350 1000 437 1112 
Q 525 1225 675 1225 
Q 825 1225 875 1125 
Q 925 1025 925 950 
Q 925 800 850 712 
Q 775 625 775 525 
Q 775 325 1012 225 
Q 1250 125 1525 125 
Q 1925 125 2137 450 
Q 2350 775 2350 1375 
Q 2350 1875 2162 2187 
Q 1975 2500 1600 2500 
Q 1325 2500 1125 2400 
Q 925 2300 750 1975 
L 525 2000 
L 650 4275 
L 2700 4275 
L 2625 3900 
L 825 3900 
L 725 2250 
Q 975 2600 1212 2675 
Q 1450 2750 1700 2750 
z
" transform="scale(0.015625)"/>
       </defs>
       <use xlink:href="#FangSong-35"/>
       <use xlink:href="#FangSong-30" x="50"/>
      </g>
     </g>
    </g>
    <g id="xtick_7">
     <g id="line2d_7">
      <g>
       <use xlink:href="#md374bc4c65" x="341.355328" y="307.584" style="stroke: #000000; stroke-width: 0.8"/>
      </g>
     </g>
     <g id="text_7">
      <!-- 60 -->
      <g transform="translate(336.355328 321.576187) scale(0.1 -0.1)">
       <defs>
        <path id="FangSong-36" d="M 750 1700 
Q 750 950 1012 537 
Q 1275 125 1650 125 
Q 2025 125 2225 400 
Q 2425 675 2425 1425 
Q 2425 1925 2212 2200 
Q 2000 2475 1700 2475 
Q 1425 2475 1187 2312 
Q 950 2150 750 1700 
z
M 1725 2725 
Q 2325 2725 2587 2325 
Q 2850 1925 2850 1425 
Q 2850 675 2487 312 
Q 2125 -50 1650 -50 
Q 975 -50 625 462 
Q 275 975 275 1950 
Q 275 3100 700 3712 
Q 1125 4325 1850 4325 
Q 2200 4325 2412 4125 
Q 2625 3925 2625 3775 
Q 2625 3625 2562 3550 
Q 2500 3475 2350 3475 
Q 2225 3475 2162 3537 
Q 2100 3600 2100 3725 
Q 2100 3775 2112 3825 
Q 2125 3875 2125 3925 
Q 2125 4025 2050 4087 
Q 1975 4150 1775 4150 
Q 1350 4150 1050 3762 
Q 750 3375 750 2075 
Q 900 2400 1162 2562 
Q 1425 2725 1725 2725 
z
" transform="scale(0.015625)"/>
       </defs>
       <use xlink:href="#FangSong-36"/>
       <use xlink:href="#FangSong-30" x="50"/>
      </g>
     </g>
    </g>
    <g id="xtick_8">
     <g id="line2d_8">
      <g>
       <use xlink:href="#md374bc4c65" x="386.698141" y="307.584" style="stroke: #000000; stroke-width: 0.8"/>
      </g>
     </g>
     <g id="text_8">
      <!-- 70 -->
      <g transform="translate(381.698141 321.576187) scale(0.1 -0.1)">
       <defs>
        <path id="FangSong-37" d="M 2800 4100 
Q 2275 3250 1962 2437 
Q 1650 1625 1650 1025 
Q 1650 925 1662 737 
Q 1675 550 1675 300 
Q 1675 100 1612 25 
Q 1550 -50 1400 -50 
Q 1275 -50 1187 37 
Q 1100 125 1100 350 
Q 1100 825 1312 1525 
Q 1525 2225 2450 3900 
L 1200 3900 
Q 925 3900 762 3725 
Q 600 3550 525 3200 
L 375 3225 
L 550 4275 
L 2800 4275 
L 2800 4100 
z
" transform="scale(0.015625)"/>
       </defs>
       <use xlink:href="#FangSong-37"/>
       <use xlink:href="#FangSong-30" x="50"/>
      </g>
     </g>
    </g>
    <g id="text_9">
     <!-- Latency -->
     <g transform="translate(218.66 333.974625) scale(0.1 -0.1)">
      <defs>
       <path id="FangSong-4c" d="M 975 350 
Q 975 250 1037 200 
Q 1100 150 1200 150 
L 1875 150 
Q 2225 150 2475 362 
Q 2725 575 2850 1025 
L 2975 975 
L 2750 0 
L 175 0 
L 175 150 
L 350 150 
Q 475 150 525 200 
Q 575 250 575 350 
L 575 3925 
Q 575 4025 525 4075 
Q 475 4125 350 4125 
L 200 4125 
L 200 4275 
L 1375 4275 
L 1375 4125 
L 1200 4125 
Q 1100 4125 1037 4075 
Q 975 4025 975 3925 
L 975 350 
z
" transform="scale(0.015625)"/>
       <path id="FangSong-61" d="M 1200 -25 
Q 750 -25 500 187 
Q 250 400 250 675 
Q 250 1125 637 1412 
Q 1025 1700 2175 1825 
L 2175 2125 
Q 2175 2375 2062 2537 
Q 1950 2700 1550 2700 
Q 1125 2700 950 2562 
Q 775 2425 825 2275 
Q 875 2175 825 2075 
Q 775 1975 625 1975 
Q 525 1975 462 2037 
Q 400 2100 400 2225 
Q 400 2450 725 2650 
Q 1050 2850 1525 2850 
Q 2025 2850 2275 2662 
Q 2525 2475 2525 2125 
L 2525 475 
Q 2525 275 2562 237 
Q 2600 200 2700 200 
Q 2825 200 2875 312 
Q 2925 425 2925 625 
L 3050 625 
Q 3050 275 2925 137 
Q 2800 0 2600 0 
Q 2425 0 2325 75 
Q 2225 150 2175 325 
Q 1925 150 1712 62 
Q 1500 -25 1200 -25 
z
M 675 750 
Q 675 525 812 337 
Q 950 150 1250 150 
Q 1475 150 1700 237 
Q 1925 325 2175 500 
L 2175 1675 
Q 1325 1575 1000 1337 
Q 675 1100 675 750 
z
" transform="scale(0.015625)"/>
       <path id="FangSong-74" d="M 1475 800 
Q 1475 450 1600 325 
Q 1725 200 1975 200 
Q 2225 200 2375 362 
Q 2525 525 2575 825 
L 2700 775 
Q 2650 425 2437 200 
Q 2225 -25 1875 -25 
Q 1500 -25 1312 200 
Q 1125 425 1125 900 
L 1125 2650 
L 375 2650 
L 375 2800 
L 575 2800 
Q 875 2800 1062 2987 
Q 1250 3175 1300 3575 
L 1325 3775 
L 1475 3775 
L 1475 2800 
L 2475 2800 
L 2475 2650 
L 1475 2650 
L 1475 800 
z
" transform="scale(0.015625)"/>
       <path id="FangSong-65" d="M 2375 1550 
Q 2400 2100 2187 2387 
Q 1975 2675 1625 2675 
Q 1250 2675 1012 2375 
Q 775 2075 775 1550 
L 2375 1550 
z
M 775 1400 
Q 775 725 1037 437 
Q 1300 150 1725 150 
Q 2050 150 2275 337 
Q 2500 525 2600 800 
L 2725 750 
Q 2650 475 2387 212 
Q 2125 -50 1675 -50 
Q 1100 -50 737 325 
Q 375 700 375 1400 
Q 375 2025 737 2437 
Q 1100 2850 1625 2850 
Q 2100 2850 2450 2525 
Q 2800 2200 2800 1400 
L 775 1400 
z
" transform="scale(0.015625)"/>
       <path id="FangSong-6e" d="M 175 0 
L 175 150 
L 300 150 
Q 425 150 475 200 
Q 525 250 525 350 
L 525 2500 
Q 525 2575 500 2612 
Q 475 2650 400 2650 
L 200 2650 
L 200 2800 
L 375 2800 
Q 500 2800 612 2825 
Q 725 2850 825 2925 
L 875 2925 
L 875 2350 
Q 1100 2600 1325 2725 
Q 1550 2850 1800 2850 
Q 2225 2850 2425 2625 
Q 2625 2400 2625 1950 
L 2625 350 
Q 2625 250 2687 200 
Q 2750 150 2850 150 
L 2975 150 
L 2975 0 
L 1925 0 
L 1925 150 
L 2050 150 
Q 2175 150 2225 200 
Q 2275 250 2275 350 
L 2275 2025 
Q 2275 2325 2150 2487 
Q 2025 2650 1775 2650 
Q 1550 2650 1312 2500 
Q 1075 2350 875 2075 
L 875 350 
Q 875 250 937 200 
Q 1000 150 1100 150 
L 1225 150 
L 1225 0 
L 175 0 
z
" transform="scale(0.015625)"/>
       <path id="FangSong-63" d="M 2125 2125 
Q 2125 2200 2137 2225 
Q 2150 2250 2175 2325 
Q 2200 2425 2075 2562 
Q 1950 2700 1650 2700 
Q 1275 2700 1012 2337 
Q 750 1975 750 1375 
Q 750 825 975 487 
Q 1200 150 1725 150 
Q 2075 150 2312 375 
Q 2550 600 2650 900 
L 2775 850 
Q 2675 475 2400 212 
Q 2125 -50 1650 -50 
Q 1050 -50 700 325 
Q 350 700 350 1400 
Q 350 2025 725 2437 
Q 1100 2850 1700 2850 
Q 2125 2850 2362 2625 
Q 2600 2400 2600 2175 
Q 2600 2025 2537 1962 
Q 2475 1900 2350 1900 
Q 2250 1900 2187 1962 
Q 2125 2025 2125 2125 
z
" transform="scale(0.015625)"/>
       <path id="FangSong-79" d="M 1625 700 
L 1675 700 
L 2225 2375 
Q 2275 2500 2212 2575 
Q 2150 2650 2050 2650 
L 1900 2650 
L 1900 2800 
L 2950 2800 
L 2950 2650 
L 2800 2650 
Q 2700 2650 2600 2575 
Q 2500 2500 2450 2375 
L 1600 -100 
Q 1475 -500 1287 -712 
Q 1100 -925 800 -950 
Q 650 -950 537 -875 
Q 425 -800 425 -675 
Q 425 -575 487 -500 
Q 550 -425 675 -425 
Q 775 -425 837 -525 
Q 900 -625 1050 -587 
Q 1200 -550 1250 -425 
Q 1300 -350 1375 -162 
Q 1450 25 1500 225 
L 650 2425 
Q 625 2525 537 2587 
Q 450 2650 350 2650 
L 250 2650 
L 250 2800 
L 1300 2800 
L 1300 2650 
L 1200 2650 
Q 1100 2650 1050 2587 
Q 1000 2525 1025 2400 
L 1625 700 
z
" transform="scale(0.015625)"/>
      </defs>
      <use xlink:href="#FangSong-4c"/>
      <use xlink:href="#FangSong-61" x="50"/>
      <use xlink:href="#FangSong-74" x="100"/>
      <use xlink:href="#FangSong-65" x="150"/>
      <use xlink:href="#FangSong-6e" x="200"/>
      <use xlink:href="#FangSong-63" x="250"/>
      <use xlink:href="#FangSong-79" x="300"/>
     </g>
    </g>
   </g>
   <g id="matplotlib.axis_2">
    <g id="ytick_1">
     <g id="line2d_9">
      <defs>
       <path id="ma3670a2bb2" d="M 0 0 
L -3.5 0 
" style="stroke: #000000; stroke-width: 0.8"/>
      </defs>
      <g>
       <use xlink:href="#ma3670a2bb2" x="57.6" y="295.488" style="stroke: #000000; stroke-width: 0.8"/>
      </g>
     </g>
     <g id="text_10">
      <!-- 0% -->
      <g transform="translate(40.6 298.984094) scale(0.1 -0.1)">
       <defs>
        <path id="FangSong-25" d="M 725 4150 
Q 575 4150 475 3950 
Q 375 3750 375 3200 
Q 375 2575 487 2387 
Q 600 2200 725 2200 
Q 900 2200 987 2425 
Q 1075 2650 1075 3200 
Q 1075 3650 1012 3900 
Q 950 4150 725 4150 
z
M 1400 3175 
Q 1400 2725 1250 2387 
Q 1100 2050 725 2050 
Q 425 2050 237 2350 
Q 50 2650 50 3175 
Q 50 3725 250 4025 
Q 450 4325 725 4325 
Q 1025 4325 1212 4012 
Q 1400 3700 1400 3175 
z
M 2700 1100 
Q 2700 1525 2625 1800 
Q 2550 2075 2350 2075 
Q 2200 2075 2100 1837 
Q 2000 1600 2000 1100 
Q 2000 475 2112 300 
Q 2225 125 2350 125 
Q 2525 125 2612 337 
Q 2700 550 2700 1100 
z
M 3025 1075 
Q 3025 575 2850 262 
Q 2675 -50 2350 -50 
Q 2075 -50 1875 262 
Q 1675 575 1675 1075 
Q 1675 1625 1875 1937 
Q 2075 2250 2350 2250 
Q 2650 2250 2837 1925 
Q 3025 1600 3025 1075 
z
M 2500 4250 
L 700 -50 
L 550 25 
L 2325 4325 
L 2500 4250 
z
" transform="scale(0.015625)"/>
       </defs>
       <use xlink:href="#FangSong-30"/>
       <use xlink:href="#FangSong-25" x="50"/>
      </g>
     </g>
    </g>
    <g id="ytick_2">
     <g id="line2d_10">
      <g>
       <use xlink:href="#ma3670a2bb2" x="57.6" y="247.104" style="stroke: #000000; stroke-width: 0.8"/>
      </g>
     </g>
     <g id="text_11">
      <!-- 20% -->
      <g transform="translate(35.6 250.600094) scale(0.1 -0.1)">
       <use xlink:href="#FangSong-32"/>
       <use xlink:href="#FangSong-30" x="50"/>
       <use xlink:href="#FangSong-25" x="100"/>
      </g>
     </g>
    </g>
    <g id="ytick_3">
     <g id="line2d_11">
      <g>
       <use xlink:href="#ma3670a2bb2" x="57.6" y="198.72" style="stroke: #000000; stroke-width: 0.8"/>
      </g>
     </g>
     <g id="text_12">
      <!-- 40% -->
      <g transform="translate(35.6 202.216094) scale(0.1 -0.1)">
       <use xlink:href="#FangSong-34"/>
       <use xlink:href="#FangSong-30" x="50"/>
       <use xlink:href="#FangSong-25" x="100"/>
      </g>
     </g>
    </g>
    <g id="ytick_4">
     <g id="line2d_12">
      <g>
       <use xlink:href="#ma3670a2bb2" x="57.6" y="150.336" style="stroke: #000000; stroke-width: 0.8"/>
      </g>
     </g>
     <g id="text_13">
      <!-- 60% -->
      <g transform="translate(35.6 153.832094) scale(0.1 -0.1)">
       <use xlink:href="#FangSong-36"/>
       <use xlink:href="#FangSong-30" x="50"/>
       <use xlink:href="#FangSong-25" x="100"/>
      </g>
     </g>
    </g>
    <g id="ytick_5">
     <g id="line2d_13">
      <g>
       <use xlink:href="#ma3670a2bb2" x="57.6" y="101.952" style="stroke: #000000; stroke-width: 0.8"/>
      </g>
     </g>
     <g id="text_14">
      <!-- 80% -->
      <g transform="translate(35.6 105.448094) scale(0.1 -0.1)">
       <defs>
        <path id="FangSong-38" d="M 600 1025 
Q 600 625 862 375 
Q 1125 125 1525 125 
Q 2000 125 2212 375 
Q 2425 625 2425 1000 
Q 2425 1325 2125 1625 
Q 1825 1925 1225 2175 
Q 925 1975 762 1675 
Q 600 1375 600 1025 
z
M 2800 1075 
Q 2800 600 2450 275 
Q 2100 -50 1525 -50 
Q 1000 -50 625 275 
Q 250 600 250 1025 
Q 250 1450 462 1750 
Q 675 2050 1075 2275 
Q 725 2450 537 2712 
Q 350 2975 350 3300 
Q 350 3725 675 4025 
Q 1000 4325 1575 4325 
Q 2100 4325 2425 4025 
Q 2750 3725 2750 3300 
Q 2750 3000 2562 2737 
Q 2375 2475 1975 2275 
Q 2400 2025 2600 1725 
Q 2800 1425 2800 1075 
z
M 2400 3275 
Q 2400 3625 2200 3887 
Q 2000 4150 1575 4150 
Q 1100 4150 900 3900 
Q 700 3650 700 3375 
Q 700 3100 987 2837 
Q 1275 2575 1800 2375 
Q 2100 2525 2250 2750 
Q 2400 2975 2400 3275 
z
" transform="scale(0.015625)"/>
       </defs>
       <use xlink:href="#FangSong-38"/>
       <use xlink:href="#FangSong-30" x="50"/>
       <use xlink:href="#FangSong-25" x="100"/>
      </g>
     </g>
    </g>
    <g id="ytick_6">
     <g id="line2d_14">
      <g>
       <use xlink:href="#ma3670a2bb2" x="57.6" y="53.568" style="stroke: #000000; stroke-width: 0.8"/>
      </g>
     </g>
     <g id="text_15">
      <!-- 100% -->
      <g transform="translate(30.6 57.064094) scale(0.1 -0.1)">
       <use xlink:href="#FangSong-31"/>
       <use xlink:href="#FangSong-30" x="50"/>
       <use xlink:href="#FangSong-30" x="100"/>
       <use xlink:href="#FangSong-25" x="150"/>
      </g>
     </g>
    </g>
    <g id="text_16">
     <!-- 累计完成比例 -->
     <g transform="translate(25.154688 204.528) rotate(-90) scale(0.1 -0.1)">
      <defs>
       <path id="FangSong-7d2f" d="M 4525 4975 
L 4700 5225 
L 5000 4950 
L 4825 4775 
L 4625 3550 
L 4850 3300 
L 3175 3150 
L 3375 2975 
Q 3200 2925 2862 2725 
Q 2525 2525 2075 2275 
L 3475 2500 
Q 3750 2675 3900 2800 
Q 4050 2925 4100 3075 
L 4175 3100 
L 4325 2700 
Q 4200 2675 3500 2237 
Q 2800 1800 2275 1550 
L 4375 1825 
L 3900 2175 
L 4000 2275 
Q 4625 1900 4950 1725 
Q 4975 1475 4925 1225 
Q 4800 1375 4500 1675 
L 3250 1475 
L 3525 1300 
Q 3375 1200 3375 875 
L 3375 25 
Q 3375 -325 3225 -625 
Q 2975 -325 2400 150 
L 2450 250 
L 3050 -75 
Q 3150 -125 3150 0 
L 3150 925 
Q 3150 1300 3125 1450 
Q 1875 1275 1575 1175 
L 1325 1425 
L 1850 1550 
Q 2175 1700 3250 2300 
Q 2075 2100 1875 2000 
L 1575 2250 
L 1800 2300 
Q 2150 2475 3025 3125 
L 2000 3025 
Q 2000 2675 1950 2700 
Q 1900 2725 1650 3025 
Q 1725 3250 1725 3425 
L 1650 4400 
Q 1625 4675 1525 4950 
L 1625 5000 
L 1875 4675 
L 4525 4975 
z
M 3150 3375 
L 3150 3875 
Q 2525 3800 2400 3725 
L 2100 3975 
Q 2500 3975 3150 4075 
L 3150 4600 
L 1900 4450 
L 1975 3250 
L 3150 3375 
z
M 3375 4100 
Q 3950 4175 4025 4225 
L 4275 4000 
Q 3950 3975 3375 3900 
L 3375 3400 
L 4400 3500 
L 4575 4750 
L 3375 4600 
L 3375 4100 
z
M 5450 -75 
Q 4975 325 3875 1025 
L 3950 1125 
Q 4850 700 5350 500 
Q 5425 250 5450 -75 
z
M 800 -250 
Q 1350 75 1825 500 
Q 2300 925 2325 1125 
L 2400 1150 
L 2550 725 
Q 2425 700 2075 425 
Q 1725 150 875 -350 
L 800 -250 
z
" transform="scale(0.015625)"/>
       <path id="FangSong-8ba1" d="M 4075 4200 
Q 4100 4825 3900 5100 
L 3975 5150 
L 4450 4725 
Q 4275 4600 4300 4200 
L 4275 3000 
Q 5525 3200 5575 3250 
L 5950 2950 
Q 5725 2975 4275 2800 
L 4250 -425 
Q 4250 -700 4150 -575 
L 3875 -150 
Q 4050 50 4025 300 
L 4050 2750 
Q 2975 2625 2900 2575 
L 2525 2825 
Q 2850 2825 4050 2975 
L 4075 4200 
z
M 1775 3250 
L 2100 2950 
L 1900 2750 
L 1875 550 
L 2825 1250 
L 2875 1175 
Q 1875 250 1750 -25 
L 1525 275 
Q 1625 375 1650 625 
L 1675 2775 
Q 900 2625 750 2550 
L 425 2800 
Q 850 2825 1650 3000 
L 1775 3250 
z
M 2025 3800 
Q 1825 4300 1325 4950 
L 1375 5025 
Q 1925 4575 2175 4300 
Q 2125 4000 2025 3800 
z
" transform="scale(0.015625)"/>
       <path id="FangSong-5b8c" d="M 5375 2050 
Q 4925 2050 3550 1950 
L 3850 1750 
Q 3725 1600 3700 1375 
L 3675 275 
Q 3650 -125 4075 -175 
L 4925 -175 
Q 5300 -150 5312 62 
Q 5325 275 5325 1025 
L 5425 1025 
Q 5450 750 5475 337 
Q 5500 -75 5700 -275 
Q 5400 -375 5000 -400 
L 4075 -400 
Q 3425 -350 3425 150 
L 3475 1450 
Q 3475 1775 3425 1925 
L 2675 1850 
L 2875 1650 
Q 2750 1550 2600 1200 
Q 2450 850 2025 312 
Q 1600 -225 600 -675 
L 550 -575 
Q 1525 -100 1987 625 
Q 2450 1350 2525 1850 
Q 1550 1775 1500 1725 
L 1150 2025 
Q 1625 2025 3212 2150 
Q 4800 2275 5000 2350 
L 5375 2050 
z
M 1650 3650 
Q 1550 3125 1325 2875 
L 1150 3250 
Q 1450 3425 1575 4400 
L 1675 4400 
L 1675 3900 
L 5025 4150 
L 5175 4400 
L 5525 4075 
Q 5375 4050 4725 3250 
L 4650 3325 
L 4975 3900 
L 1650 3650 
z
M 4475 2975 
Q 4225 2975 3412 2875 
Q 2600 2775 2400 2725 
L 2050 2975 
Q 2575 2975 3200 3075 
Q 3825 3175 4150 3225 
L 4475 2975 
z
M 3550 4575 
Q 3475 4350 3300 4150 
Q 3225 4475 2900 5200 
L 2975 5250 
Q 3350 4825 3550 4575 
z
" transform="scale(0.015625)"/>
       <path id="FangSong-6210" d="M 5575 975 
Q 5600 -150 5750 -625 
Q 4650 -225 4000 1075 
Q 3625 650 2975 225 
L 2925 325 
Q 3525 825 3900 1300 
Q 3600 2275 3500 3300 
L 1875 3125 
Q 1875 2625 1825 2100 
L 2725 2250 
L 2875 2475 
L 3175 2225 
L 3000 2050 
Q 2850 475 2575 -125 
Q 2225 400 1825 775 
L 1875 850 
L 2475 400 
Q 2650 875 2750 2000 
L 1825 1850 
Q 1675 250 600 -650 
L 525 -600 
Q 1250 250 1425 987 
Q 1600 1725 1625 2612 
Q 1650 3500 1550 3800 
L 1625 3825 
L 1850 3350 
L 3450 3525 
Q 3400 4150 3375 4562 
Q 3350 4975 3225 5200 
L 3275 5225 
L 3725 4900 
Q 3625 4925 3637 4575 
Q 3650 4225 3675 3550 
Q 4900 3700 5050 3775 
L 5325 3475 
Q 4775 3475 3725 3325 
Q 3775 2425 4075 1525 
Q 4500 2025 4687 2325 
Q 4875 2625 4800 2850 
L 4875 2875 
L 5125 2325 
Q 5075 2400 4850 2125 
Q 4625 1850 4150 1275 
Q 4625 225 5425 -125 
L 5475 975 
L 5575 975 
z
M 4100 5000 
Q 4525 4700 4875 4450 
Q 4825 4250 4750 4025 
Q 4400 4525 4025 4950 
L 4100 5000 
z
" transform="scale(0.015625)"/>
       <path id="FangSong-6bd4" d="M 3500 2125 
Q 3925 2425 4487 2975 
Q 5050 3525 4950 3750 
L 5025 3775 
L 5250 3225 
Q 5175 3250 4875 3000 
Q 4575 2750 4287 2525 
Q 4000 2300 3500 1900 
L 3500 575 
Q 3475 -100 4150 -100 
L 4800 -100 
Q 5275 -100 5375 12 
Q 5475 125 5450 1350 
L 5575 1350 
Q 5600 825 5637 412 
Q 5675 0 5800 -175 
Q 5375 -325 4800 -325 
L 4150 -325 
Q 3225 -350 3275 550 
L 3275 4300 
Q 3275 4875 3150 5150 
L 3200 5200 
L 3625 4850 
Q 3475 4825 3500 4250 
L 3500 2125 
z
M 1500 2575 
Q 1900 2625 2337 2712 
Q 2775 2800 2800 2850 
L 3075 2600 
Q 2875 2575 2350 2475 
Q 1825 2375 1775 2325 
L 1500 2525 
L 1500 150 
L 2925 1075 
L 2975 1025 
Q 1550 -75 1375 -350 
L 1200 0 
Q 1275 75 1275 350 
L 1275 3925 
Q 1275 4475 1150 4750 
L 1200 4800 
L 1625 4400 
Q 1475 4375 1500 3925 
L 1500 2575 
z
" transform="scale(0.015625)"/>
       <path id="FangSong-4f8b" d="M 3050 2000 
Q 3025 1800 2975 1600 
Q 2775 1900 2525 2250 
Q 2300 1875 2025 1550 
L 1925 1625 
Q 2675 2725 2975 3975 
Q 2475 3925 2375 3875 
L 2050 4125 
Q 2375 4125 3162 4225 
Q 3950 4325 4100 4450 
L 4350 4125 
Q 4050 4150 3100 3975 
L 3300 3700 
Q 3200 3675 3125 3525 
Q 3050 3375 2925 3050 
L 3625 3150 
L 3775 3350 
L 4050 3075 
L 3875 2900 
Q 3300 825 1850 -225 
L 1800 -100 
Q 3100 975 3625 2900 
Q 3150 2825 3025 2775 
L 2875 2925 
Q 2775 2675 2575 2350 
Q 2900 2125 3050 2000 
z
M 1275 -150 
Q 1425 25 1400 225 
L 1450 3425 
Q 1025 2800 475 2225 
L 400 2325 
Q 875 2850 1450 3887 
Q 2025 4925 1925 5150 
L 2000 5175 
L 2250 4700 
Q 2200 4725 2062 4475 
Q 1925 4225 1675 3800 
L 1625 -325 
Q 1650 -675 1525 -600 
L 1275 -150 
z
M 5475 250 
Q 5475 -300 5300 -650 
Q 4900 -100 4300 375 
L 4350 475 
L 5200 -75 
Q 5250 250 5250 575 
L 5250 4350 
Q 5275 4950 5100 5150 
L 5175 5225 
L 5600 4850 
Q 5450 4775 5475 4325 
L 5475 250 
z
M 4300 1525 
Q 4400 1650 4400 1900 
L 4400 3075 
Q 4425 3525 4300 3750 
L 4350 3800 
L 4725 3450 
Q 4600 3350 4625 3025 
L 4625 1375 
Q 4625 1050 4550 1125 
L 4300 1525 
z
" transform="scale(0.015625)"/>
      </defs>
      <use xlink:href="#FangSong-7d2f"/>
      <use xlink:href="#FangSong-8ba1" x="100"/>
      <use xlink:href="#FangSong-5b8c" x="200"/>
      <use xlink:href="#FangSong-6210" x="300"/>
      <use xlink:href="#FangSong-6bd4" x="400"/>
      <use xlink:href="#FangSong-4f8b" x="500"/>
     </g>
    </g>
   </g>
   <g id="line2d_15">
    <path d="M 73.832727 295.488 
L 74.286155 208.88064 
L 75.64644 208.15488 
L 76.099868 208.15488 
L 76.553296 207.67104 
L 77.460152 207.1872 
L 78.367009 206.21952 
L 78.820437 205.9776 
L 79.273865 205.00992 
L 80.634149 204.28416 
L 81.087577 204.28416 
L 81.541006 203.80032 
L 81.994434 203.07456 
L 82.447862 202.59072 
L 82.90129 201.38112 
L 83.354718 201.38112 
L 83.808146 200.41344 
L 84.715003 199.44576 
L 85.168431 198.72 
L 86.075287 197.75232 
L 86.528715 197.75232 
L 86.982143 197.5104 
L 87.888999 195.33312 
L 88.342428 194.36544 
L 88.795856 194.12352 
L 89.702712 194.12352 
L 90.15614 192.672 
L 90.609568 192.43008 
L 91.062996 191.70432 
L 91.969853 189.0432 
L 92.876709 187.59168 
L 93.330137 187.59168 
L 93.783565 186.38208 
L 94.236993 186.14016 
L 95.14385 184.44672 
L 95.597278 183.72096 
L 96.504134 181.54368 
L 97.41099 178.88256 
L 97.864418 178.64064 
L 98.317847 177.91488 
L 98.771275 177.91488 
L 99.678131 176.46336 
L 100.131559 175.97952 
L 100.584987 174.28608 
L 101.038415 173.80224 
L 101.491844 173.07648 
L 101.945272 173.07648 
L 102.3987 172.83456 
L 102.852128 171.62496 
L 103.305556 170.8992 
L 103.758984 170.41536 
L 104.665841 166.0608 
L 105.119269 164.60928 
L 105.572697 163.88352 
L 106.932981 159.77088 
L 107.839837 154.44864 
L 108.293266 153.23904 
L 109.65355 151.78752 
L 110.106978 151.06176 
L 110.560406 149.61024 
L 111.013834 149.1264 
L 111.920691 147.67488 
L 112.374119 147.19104 
L 113.280975 145.73952 
L 113.734403 144.77184 
L 114.187831 143.0784 
L 114.64126 142.59456 
L 115.094688 142.59456 
L 115.548116 141.8688 
L 116.454972 140.17536 
L 117.361828 139.69152 
L 117.815256 139.20768 
L 118.268685 138.24 
L 118.722113 138.24 
L 119.175541 137.99808 
L 120.082397 137.99808 
L 120.535825 137.51424 
L 121.89611 136.78848 
L 122.802966 135.8208 
L 123.256394 135.09504 
L 123.709822 134.6112 
L 124.16325 133.64352 
L 124.616679 133.15968 
L 125.523535 131.70816 
L 125.976963 130.74048 
L 126.430391 130.49856 
L 126.883819 130.01472 
L 127.337247 128.80512 
L 127.790675 128.5632 
L 128.244104 127.3536 
L 129.15096 126.86976 
L 129.604388 126.86976 
L 130.057816 126.62784 
L 130.511244 125.90208 
L 130.964672 124.45056 
L 131.418101 123.96672 
L 132.324957 121.54752 
L 132.778385 121.3056 
L 133.231813 120.82176 
L 133.685241 120.57984 
L 134.138669 119.61216 
L 134.592098 119.12832 
L 135.045526 118.8864 
L 135.498954 117.6768 
L 135.952382 117.43488 
L 136.40581 116.95104 
L 136.859238 116.95104 
L 137.766094 116.4672 
L 138.219523 116.4672 
L 138.672951 115.49952 
L 139.579807 115.01568 
L 140.033235 114.53184 
L 140.486663 113.80608 
L 140.940091 113.32224 
L 141.39352 113.32224 
L 141.846948 112.8384 
L 142.300376 112.8384 
L 142.753804 112.59648 
L 143.207232 111.6288 
L 143.66066 111.38688 
L 144.114088 110.90304 
L 144.567517 109.93536 
L 145.020945 109.45152 
L 145.474373 108.72576 
L 145.927801 108.48384 
L 146.381229 108 
L 146.834657 106.7904 
L 147.288085 106.30656 
L 147.741513 106.30656 
L 148.194942 105.82272 
L 148.64837 104.3712 
L 149.101798 103.40352 
L 149.555226 102.91968 
L 150.008654 101.22624 
L 150.462082 100.7424 
L 151.822367 97.59744 
L 152.275795 97.59744 
L 152.729223 97.1136 
L 153.636079 94.45248 
L 154.089507 93.72672 
L 154.542936 93.4848 
L 154.996364 93.4848 
L 155.449792 92.75904 
L 155.90322 92.75904 
L 156.356648 91.79136 
L 157.716932 91.0656 
L 158.623789 91.0656 
L 159.077217 90.82368 
L 159.530645 90.33984 
L 160.437501 90.33984 
L 160.890929 89.61408 
L 161.344358 89.37216 
L 161.797786 89.37216 
L 162.704642 88.88832 
L 163.15807 88.88832 
L 164.064926 88.40448 
L 164.518354 88.40448 
L 164.971783 87.67872 
L 165.425211 87.19488 
L 166.332067 86.71104 
L 167.692351 86.71104 
L 168.14578 86.2272 
L 168.599208 85.98528 
L 169.506064 85.98528 
L 169.959492 85.50144 
L 172.226633 84.29184 
L 172.680061 84.29184 
L 173.133489 83.808 
L 175.40063 83.808 
L 175.854058 83.32416 
L 176.307486 83.32416 
L 176.760914 82.84032 
L 177.214342 82.5984 
L 177.66777 82.11456 
L 179.028055 82.11456 
L 180.388339 81.3888 
L 184.015764 81.3888 
L 186.282905 80.1792 
L 187.643189 80.1792 
L 188.096618 79.69536 
L 188.550046 79.45344 
L 189.003474 78.9696 
L 189.456902 78.9696 
L 189.91033 78.72768 
L 190.817186 78.72768 
L 191.270615 78.24384 
L 191.724043 78.00192 
L 192.177471 78.00192 
L 192.630899 77.51808 
L 193.084327 77.27616 
L 193.991183 77.27616 
L 194.444611 77.03424 
L 195.351468 76.06656 
L 196.711752 76.06656 
L 197.16518 75.82464 
L 197.618608 75.82464 
L 198.072037 75.58272 
L 199.432321 75.58272 
L 200.339177 75.09888 
L 200.792605 75.09888 
L 201.246034 74.85696 
L 207.594027 74.85696 
L 208.047456 74.61504 
L 208.954312 74.61504 
L 209.40774 74.37312 
L 209.861168 74.37312 
L 210.314596 74.1312 
L 211.221453 74.1312 
L 211.674881 73.88928 
L 212.581737 73.88928 
L 213.488593 73.40544 
L 213.942021 72.9216 
L 215.302306 72.9216 
L 215.755734 72.67968 
L 216.209162 72.19584 
L 216.66259 72.19584 
L 217.569446 71.712 
L 218.022875 71.712 
L 218.929731 70.74432 
L 219.836587 70.26048 
L 221.6503 70.26048 
L 222.103728 70.01856 
L 223.464012 70.01856 
L 223.91744 69.77664 
L 225.277725 69.77664 
L 225.731153 69.53472 
L 227.091437 69.53472 
L 227.544865 69.2928 
L 230.265434 69.2928 
L 230.718862 69.05088 
L 231.172291 69.05088 
L 232.079147 68.56704 
L 232.532575 68.56704 
L 232.986003 68.32512 
L 234.799716 68.32512 
L 235.253144 68.0832 
L 236.16 68.0832 
L 236.613428 67.84128 
L 237.066856 67.35744 
L 237.520284 67.11552 
L 240.240853 67.11552 
L 240.694281 66.8736 
L 241.147709 66.8736 
L 241.601138 66.63168 
L 247.495703 66.63168 
L 248.40256 66.14784 
L 249.762844 66.14784 
L 250.216272 65.90592 
L 251.123128 65.90592 
L 251.576557 65.664 
L 252.936841 65.664 
L 253.843697 65.18016 
L 254.750554 65.18016 
L 256.110838 64.4544 
L 256.564266 64.4544 
L 257.471122 63.97056 
L 257.924551 63.97056 
L 258.377979 63.72864 
L 258.831407 63.72864 
L 259.284835 63.48672 
L 259.738263 63.00288 
L 260.191691 63.00288 
L 260.645119 62.76096 
L 261.098547 62.76096 
L 261.551976 62.51904 
L 262.005404 62.51904 
L 262.91226 62.0352 
L 263.819116 62.0352 
L 264.272544 61.55136 
L 264.725973 61.30944 
L 265.179401 61.30944 
L 265.632829 61.06752 
L 267.446541 61.06752 
L 267.89997 60.8256 
L 268.806826 60.8256 
L 269.260254 60.09984 
L 271.073966 60.09984 
L 271.527395 59.85792 
L 273.341107 59.85792 
L 274.247963 59.37408 
L 276.061676 59.37408 
L 276.515104 59.13216 
L 278.328817 59.13216 
L 278.782245 58.89024 
L 280.142529 58.89024 
L 280.595957 58.64832 
L 281.502814 58.64832 
L 281.956242 58.4064 
L 288.304236 58.4064 
L 288.757664 58.16448 
L 291.478233 58.16448 
L 291.931661 57.92256 
L 295.105658 57.92256 
L 295.559086 57.43872 
L 296.465942 57.43872 
L 297.372798 56.47104 
L 297.826227 56.47104 
L 298.279655 56.22912 
L 300.093367 56.22912 
L 300.546795 55.74528 
L 301.000223 55.50336 
L 301.453652 55.50336 
L 301.90708 55.01952 
L 302.360508 55.01952 
L 302.813936 54.7776 
L 305.534505 54.7776 
L 305.987933 54.53568 
L 307.348217 54.53568 
L 307.801646 54.05184 
L 309.16193 54.05184 
L 310.068786 53.568 
L 398.487273 53.568 
L 398.487273 53.568 
" clip-path="url(#pe7fdc4405f)" style="fill: none; stroke: #ff0000; stroke-linecap: square"/>
   </g>
   <g id="line2d_16">
    <path d="M 73.832727 295.488 
L 74.286155 166.30272 
L 74.739584 165.57696 
L 76.099868 165.57696 
L 77.006724 165.09312 
L 77.91358 164.12544 
L 78.367009 164.12544 
L 79.273865 163.6416 
L 79.727293 163.15776 
L 80.634149 163.15776 
L 81.087577 162.432 
L 81.541006 162.19008 
L 82.447862 161.2224 
L 82.90129 160.49664 
L 83.354718 160.0128 
L 83.808146 159.77088 
L 84.261574 159.77088 
L 84.715003 159.04512 
L 85.168431 157.5936 
L 85.621859 157.5936 
L 86.075287 156.86784 
L 86.528715 156.86784 
L 86.982143 156.14208 
L 87.435571 155.90016 
L 88.342428 154.44864 
L 89.249284 153.48096 
L 89.702712 153.23904 
L 90.15614 152.27136 
L 91.062996 151.30368 
L 91.516425 150.57792 
L 91.969853 150.09408 
L 92.423281 150.09408 
L 92.876709 149.85216 
L 93.330137 149.36832 
L 94.236993 147.9168 
L 95.14385 146.22336 
L 95.597278 146.22336 
L 96.050706 145.4976 
L 96.504134 145.25568 
L 96.957562 144.77184 
L 97.864418 144.77184 
L 98.317847 144.52992 
L 99.678131 140.6592 
L 100.131559 140.17536 
L 100.584987 138.72384 
L 101.038415 137.99808 
L 101.491844 136.30464 
L 101.945272 135.57888 
L 103.305556 134.12736 
L 103.758984 134.12736 
L 104.212412 133.88544 
L 105.119269 132.91776 
L 105.572697 132.192 
L 106.026125 130.74048 
L 106.479553 130.01472 
L 107.839837 129.28896 
L 108.293266 129.28896 
L 108.746694 129.04704 
L 109.200122 128.32128 
L 110.106978 127.83744 
L 110.560406 127.83744 
L 111.920691 125.66016 
L 112.374119 125.17632 
L 113.734403 125.17632 
L 114.187831 124.9344 
L 114.64126 124.45056 
L 115.094688 124.45056 
L 116.001544 122.99904 
L 116.454972 122.75712 
L 116.9084 122.75712 
L 117.361828 122.03136 
L 117.815256 121.54752 
L 119.175541 120.82176 
L 119.628969 120.82176 
L 120.535825 119.12832 
L 121.89611 118.40256 
L 122.802966 118.40256 
L 123.256394 117.6768 
L 123.709822 117.43488 
L 124.16325 116.70912 
L 124.616679 116.70912 
L 125.070107 116.4672 
L 125.523535 115.74144 
L 125.976963 115.74144 
L 126.883819 115.2576 
L 129.15096 115.2576 
L 129.604388 115.01568 
L 130.057816 115.01568 
L 130.511244 114.048 
L 130.964672 113.56416 
L 131.418101 113.56416 
L 132.324957 113.08032 
L 132.778385 113.08032 
L 134.138669 112.35456 
L 134.592098 112.35456 
L 135.045526 112.11264 
L 135.498954 112.11264 
L 136.40581 111.6288 
L 136.859238 110.90304 
L 137.766094 110.90304 
L 138.219523 110.66112 
L 138.672951 110.66112 
L 140.033235 109.93536 
L 140.486663 109.2096 
L 140.940091 109.2096 
L 141.846948 108.72576 
L 142.753804 107.75808 
L 143.66066 107.75808 
L 144.114088 107.03232 
L 144.567517 106.7904 
L 145.927801 106.7904 
L 146.381229 106.54848 
L 147.288085 106.54848 
L 147.741513 106.06464 
L 148.64837 106.06464 
L 149.555226 105.5808 
L 150.008654 105.5808 
L 150.462082 105.33888 
L 150.91551 104.85504 
L 151.368939 104.85504 
L 151.822367 104.61312 
L 152.275795 104.61312 
L 152.729223 103.88736 
L 154.542936 102.91968 
L 154.996364 102.91968 
L 155.449792 102.67776 
L 155.90322 102.19392 
L 156.356648 102.19392 
L 156.810076 101.46816 
L 157.263504 101.46816 
L 157.716932 101.22624 
L 158.623789 101.22624 
L 159.077217 100.7424 
L 159.530645 100.7424 
L 160.437501 99.77472 
L 161.344358 99.77472 
L 161.797786 99.5328 
L 162.251214 99.04896 
L 162.704642 99.04896 
L 164.064926 97.59744 
L 165.425211 97.59744 
L 165.878639 97.35552 
L 166.332067 97.35552 
L 166.785495 96.87168 
L 167.238923 96.62976 
L 167.692351 96.62976 
L 168.599208 96.14592 
L 169.506064 96.14592 
L 170.41292 95.66208 
L 171.319777 95.66208 
L 171.773205 95.17824 
L 172.680061 94.6944 
L 176.760914 94.6944 
L 177.66777 94.21056 
L 178.121199 93.72672 
L 179.028055 93.72672 
L 179.481483 93.4848 
L 179.934911 92.75904 
L 180.388339 92.75904 
L 180.841767 92.51712 
L 181.295196 92.51712 
L 181.748624 91.79136 
L 182.202052 91.54944 
L 183.562336 91.54944 
L 184.015764 91.30752 
L 184.922621 91.30752 
L 185.376049 90.82368 
L 186.736333 90.82368 
L 187.643189 90.33984 
L 188.550046 90.33984 
L 190.817186 89.13024 
L 191.270615 89.13024 
L 191.724043 88.6464 
L 192.630899 88.6464 
L 193.084327 88.16256 
L 193.537755 88.16256 
L 194.444611 87.67872 
L 194.89804 87.67872 
L 195.351468 87.4368 
L 195.804896 86.71104 
L 196.711752 86.71104 
L 197.618608 85.74336 
L 198.072037 85.74336 
L 198.525465 85.50144 
L 198.978893 85.50144 
L 199.432321 85.25952 
L 199.885749 85.25952 
L 200.339177 84.77568 
L 202.606318 83.56608 
L 203.059746 83.56608 
L 203.513174 83.32416 
L 204.42003 83.32416 
L 204.873459 83.08224 
L 206.233743 83.08224 
L 206.687171 82.84032 
L 207.140599 82.84032 
L 208.047456 82.35648 
L 208.500884 82.35648 
L 209.40774 81.87264 
L 209.861168 81.87264 
L 210.314596 81.63072 
L 210.768024 81.63072 
L 211.674881 81.14688 
L 212.128309 80.66304 
L 212.581737 80.66304 
L 213.035165 80.1792 
L 213.488593 79.93728 
L 214.395449 79.93728 
L 214.848878 79.21152 
L 215.302306 79.21152 
L 215.755734 78.9696 
L 217.116018 78.9696 
L 217.569446 78.48576 
L 218.022875 78.48576 
L 218.476303 78.24384 
L 218.929731 78.24384 
L 219.383159 78.00192 
L 221.196872 78.00192 
L 221.6503 77.76 
L 222.103728 77.76 
L 222.557156 77.27616 
L 223.010584 77.03424 
L 228.451722 77.03424 
L 228.90515 76.79232 
L 229.358578 76.79232 
L 229.812006 76.5504 
L 230.265434 76.5504 
L 230.718862 76.06656 
L 231.625719 75.58272 
L 232.986003 75.58272 
L 234.346287 74.85696 
L 237.066856 74.85696 
L 237.520284 74.61504 
L 238.427141 74.61504 
L 238.880569 74.1312 
L 239.333997 74.1312 
L 239.787425 73.88928 
L 240.694281 73.88928 
L 241.147709 73.40544 
L 241.601138 73.40544 
L 242.054566 73.16352 
L 242.961422 73.16352 
L 243.868278 72.67968 
L 244.321706 72.19584 
L 244.775135 72.19584 
L 245.681991 71.712 
L 247.495703 71.712 
L 248.40256 71.22816 
L 250.216272 71.22816 
L 251.576557 70.5024 
L 252.029985 70.5024 
L 252.483413 70.01856 
L 253.843697 70.01856 
L 254.297125 69.77664 
L 255.203982 69.77664 
L 255.65741 69.53472 
L 256.110838 69.53472 
L 256.564266 69.2928 
L 257.924551 69.2928 
L 258.377979 68.80896 
L 259.284835 68.80896 
L 259.738263 68.56704 
L 260.191691 68.56704 
L 260.645119 68.32512 
L 261.098547 68.32512 
L 261.551976 68.0832 
L 262.91226 68.0832 
L 263.365688 67.84128 
L 263.819116 67.84128 
L 264.272544 67.35744 
L 264.725973 67.35744 
L 265.179401 67.11552 
L 265.632829 66.63168 
L 266.086257 66.63168 
L 266.539685 66.38976 
L 267.446541 66.38976 
L 267.89997 66.14784 
L 268.353398 65.664 
L 269.260254 65.18016 
L 271.527395 65.18016 
L 271.980823 64.69632 
L 272.434251 64.4544 
L 272.887679 64.4544 
L 273.794535 63.97056 
L 274.247963 63.97056 
L 274.701392 63.72864 
L 275.15482 63.2448 
L 275.608248 63.00288 
L 276.061676 63.00288 
L 276.515104 62.76096 
L 282.40967 62.76096 
L 283.316526 62.27712 
L 283.769954 61.79328 
L 284.223382 61.55136 
L 285.130239 60.58368 
L 286.490523 60.58368 
L 287.397379 60.09984 
L 292.838517 60.09984 
L 293.291945 59.616 
L 301.000223 59.616 
L 301.453652 59.37408 
L 301.90708 58.89024 
L 306.894789 58.89024 
L 307.348217 58.64832 
L 311.429071 58.64832 
L 311.882499 58.4064 
L 312.335927 58.4064 
L 313.242783 57.92256 
L 313.696211 57.92256 
L 314.149639 57.1968 
L 315.509924 57.1968 
L 315.963352 56.95488 
L 316.41678 56.95488 
L 317.323636 56.47104 
L 318.683921 56.47104 
L 319.137349 56.22912 
L 320.497633 56.22912 
L 320.951061 55.50336 
L 325.485343 55.50336 
L 325.938771 55.26144 
L 339.088187 55.26144 
L 339.541615 55.01952 
L 344.529325 55.01952 
L 344.982753 54.7776 
L 346.343037 54.7776 
L 346.796465 54.53568 
L 369.9213 54.53568 
L 370.374728 54.29376 
L 378.083007 54.29376 
L 378.536435 54.05184 
L 382.617288 54.05184 
L 383.070716 53.80992 
L 398.033845 53.80992 
L 398.487273 53.568 
L 398.487273 53.568 
" clip-path="url(#pe7fdc4405f)" style="fill: none; stroke-dasharray: 1.85,0.8; stroke-dashoffset: 0; stroke: #008000; stroke-width: 0.5"/>
   </g>
   <g id="line2d_17">
    <path d="M 73.832727 295.488 
L 74.286155 163.15776 
L 75.193012 163.15776 
L 75.64644 162.67392 
L 76.099868 162.432 
L 77.006724 162.432 
L 77.460152 162.19008 
L 78.367009 162.19008 
L 78.820437 161.70624 
L 79.273865 161.46432 
L 79.727293 161.46432 
L 80.180721 161.2224 
L 81.541006 161.2224 
L 82.90129 160.49664 
L 83.354718 160.49664 
L 83.808146 159.04512 
L 84.261574 158.56128 
L 84.715003 158.56128 
L 86.075287 157.10976 
L 86.528715 156.86784 
L 86.982143 155.41632 
L 87.435571 154.69056 
L 87.888999 154.44864 
L 88.342428 154.44864 
L 88.795856 154.20672 
L 89.249284 154.20672 
L 89.702712 153.9648 
L 90.15614 152.99712 
L 90.609568 152.7552 
L 91.062996 152.7552 
L 91.516425 152.02944 
L 92.876709 151.30368 
L 93.330137 150.81984 
L 94.236993 150.336 
L 94.690422 149.85216 
L 95.14385 149.1264 
L 95.597278 149.1264 
L 96.050706 148.15872 
L 96.504134 148.15872 
L 96.957562 147.43296 
L 97.41099 146.46528 
L 97.864418 146.22336 
L 98.317847 145.73952 
L 98.771275 145.4976 
L 99.224703 145.01376 
L 100.584987 144.288 
L 101.038415 143.56224 
L 101.491844 143.56224 
L 101.945272 143.0784 
L 102.3987 142.83648 
L 102.852128 142.35264 
L 103.305556 141.38496 
L 103.758984 141.38496 
L 104.212412 140.6592 
L 105.119269 138.72384 
L 105.572697 138.72384 
L 106.026125 138.24 
L 106.932981 136.78848 
L 107.386409 135.57888 
L 107.839837 134.85312 
L 108.746694 133.88544 
L 109.200122 133.64352 
L 109.65355 133.15968 
L 110.106978 133.15968 
L 110.560406 132.67584 
L 111.013834 131.95008 
L 111.467263 131.95008 
L 113.280975 130.9824 
L 114.64126 129.53088 
L 115.094688 128.80512 
L 116.001544 128.32128 
L 116.454972 128.32128 
L 116.9084 127.59552 
L 117.361828 127.11168 
L 117.815256 127.11168 
L 118.722113 126.62784 
L 119.175541 126.62784 
L 119.628969 126.38592 
L 120.082397 126.38592 
L 120.535825 125.66016 
L 120.989253 125.66016 
L 121.89611 125.17632 
L 122.349538 125.17632 
L 123.709822 124.45056 
L 124.16325 123.96672 
L 125.070107 123.96672 
L 125.976963 123.48288 
L 126.430391 122.99904 
L 126.883819 122.99904 
L 127.337247 122.75712 
L 128.697532 122.75712 
L 130.057816 121.3056 
L 130.511244 121.06368 
L 131.418101 121.06368 
L 131.871529 120.82176 
L 132.324957 120.82176 
L 133.231813 120.33792 
L 134.138669 119.37024 
L 134.592098 119.37024 
L 135.045526 119.12832 
L 135.498954 119.12832 
L 135.952382 118.8864 
L 136.40581 118.8864 
L 136.859238 118.16064 
L 137.312666 118.16064 
L 137.766094 117.6768 
L 139.126379 116.95104 
L 139.579807 116.95104 
L 140.033235 116.4672 
L 140.486663 116.22528 
L 140.940091 116.22528 
L 141.39352 115.98336 
L 143.66066 115.98336 
L 144.114088 115.49952 
L 145.020945 115.01568 
L 145.474373 115.01568 
L 145.927801 114.77376 
L 146.834657 114.77376 
L 147.288085 114.28992 
L 147.741513 114.048 
L 148.194942 114.048 
L 148.64837 113.80608 
L 150.462082 113.80608 
L 150.91551 113.56416 
L 151.822367 113.56416 
L 152.729223 112.59648 
L 153.636079 112.59648 
L 154.089507 112.35456 
L 155.449792 112.35456 
L 156.356648 111.87072 
L 156.810076 111.38688 
L 157.716932 110.90304 
L 158.170361 110.17728 
L 158.623789 109.93536 
L 159.077217 109.45152 
L 161.797786 109.45152 
L 162.704642 108.96768 
L 163.15807 108.96768 
L 163.611498 108.48384 
L 166.785495 108.48384 
L 167.238923 108.24192 
L 167.692351 108.24192 
L 168.14578 107.75808 
L 168.599208 107.75808 
L 169.052636 107.27424 
L 169.959492 107.27424 
L 171.319777 106.54848 
L 172.226633 106.54848 
L 172.680061 106.06464 
L 174.493773 106.06464 
L 175.40063 105.5808 
L 175.854058 105.5808 
L 178.121199 104.3712 
L 178.574627 104.3712 
L 179.481483 103.88736 
L 180.388339 103.88736 
L 180.841767 103.1616 
L 181.748624 103.1616 
L 182.202052 102.91968 
L 182.65548 102.91968 
L 183.108908 102.67776 
L 184.469192 102.67776 
L 184.922621 102.19392 
L 185.376049 102.19392 
L 185.829477 101.952 
L 186.282905 101.952 
L 187.643189 101.22624 
L 188.096618 100.7424 
L 188.550046 100.50048 
L 189.456902 100.50048 
L 189.91033 100.25856 
L 190.363758 99.77472 
L 192.177471 99.77472 
L 192.630899 99.5328 
L 193.537755 99.5328 
L 193.991183 99.04896 
L 194.444611 99.04896 
L 194.89804 98.80704 
L 196.258324 98.80704 
L 196.711752 98.56512 
L 197.16518 98.56512 
L 197.618608 98.3232 
L 198.072037 98.3232 
L 198.525465 98.08128 
L 198.978893 98.08128 
L 199.432321 97.83936 
L 199.885749 97.1136 
L 200.792605 97.1136 
L 201.246034 96.87168 
L 201.699462 96.87168 
L 202.606318 96.38784 
L 203.513174 96.38784 
L 203.966602 95.904 
L 204.42003 95.904 
L 205.326887 95.42016 
L 207.140599 95.42016 
L 207.594027 94.6944 
L 208.500884 94.6944 
L 209.861168 93.96864 
L 211.221453 93.96864 
L 212.128309 93.4848 
L 212.581737 93.4848 
L 213.488593 93.00096 
L 213.942021 93.00096 
L 214.395449 92.51712 
L 215.302306 92.03328 
L 216.66259 92.03328 
L 218.022875 91.30752 
L 218.929731 91.30752 
L 219.383159 90.58176 
L 219.836587 90.58176 
L 220.290015 90.33984 
L 220.743443 90.33984 
L 221.196872 90.09792 
L 222.557156 90.09792 
L 223.010584 89.61408 
L 223.464012 89.61408 
L 223.91744 89.37216 
L 224.370868 88.6464 
L 225.277725 88.16256 
L 225.731153 88.16256 
L 226.184581 87.4368 
L 226.638009 87.4368 
L 227.091437 87.19488 
L 227.544865 87.19488 
L 227.998294 86.95296 
L 228.451722 86.95296 
L 228.90515 86.71104 
L 229.358578 86.2272 
L 230.265434 86.2272 
L 231.172291 85.74336 
L 231.625719 85.74336 
L 232.079147 85.25952 
L 232.532575 85.25952 
L 232.986003 85.0176 
L 233.892859 85.0176 
L 234.346287 84.53376 
L 234.799716 84.53376 
L 235.253144 84.04992 
L 235.706572 83.808 
L 236.613428 83.808 
L 237.066856 83.08224 
L 237.520284 82.84032 
L 237.973713 82.35648 
L 238.427141 81.63072 
L 239.333997 81.63072 
L 239.787425 81.3888 
L 240.240853 81.3888 
L 241.147709 80.90496 
L 241.601138 80.90496 
L 242.961422 80.1792 
L 243.868278 80.1792 
L 244.321706 79.93728 
L 245.228563 79.93728 
L 245.681991 79.45344 
L 246.135419 79.45344 
L 247.042275 78.9696 
L 247.495703 78.9696 
L 248.855988 78.24384 
L 249.762844 78.24384 
L 250.216272 78.00192 
L 250.6697 78.00192 
L 251.123128 77.51808 
L 251.576557 77.51808 
L 252.029985 77.27616 
L 252.483413 76.30848 
L 252.936841 76.06656 
L 253.390269 75.58272 
L 253.843697 75.3408 
L 254.297125 74.61504 
L 254.750554 74.37312 
L 256.110838 74.37312 
L 256.564266 74.1312 
L 257.017694 73.64736 
L 257.924551 73.64736 
L 258.377979 73.40544 
L 259.284835 73.40544 
L 259.738263 73.16352 
L 260.191691 73.16352 
L 260.645119 72.9216 
L 261.098547 72.43776 
L 261.551976 72.43776 
L 262.005404 72.19584 
L 262.91226 72.19584 
L 263.365688 71.95392 
L 263.819116 71.95392 
L 264.272544 71.712 
L 264.725973 71.22816 
L 265.632829 71.22816 
L 266.086257 70.5024 
L 266.993113 70.01856 
L 267.446541 69.53472 
L 267.89997 69.53472 
L 269.260254 68.80896 
L 269.713682 68.32512 
L 270.620538 67.84128 
L 271.527395 67.84128 
L 271.980823 67.35744 
L 272.887679 66.8736 
L 273.341107 66.38976 
L 273.794535 65.42208 
L 274.701392 64.93824 
L 275.15482 64.4544 
L 276.061676 63.97056 
L 276.515104 63.97056 
L 276.968532 63.72864 
L 277.42196 63.72864 
L 277.875389 63.48672 
L 278.782245 63.48672 
L 279.689101 63.00288 
L 281.049385 63.00288 
L 281.502814 62.76096 
L 281.956242 62.76096 
L 283.316526 62.0352 
L 284.223382 62.0352 
L 284.676811 61.79328 
L 286.490523 61.79328 
L 286.943951 61.55136 
L 288.304236 61.55136 
L 289.211092 61.06752 
L 293.291945 61.06752 
L 293.745373 60.8256 
L 300.546795 60.8256 
L 301.000223 60.58368 
L 304.17422 60.58368 
L 305.081077 60.09984 
L 305.534505 60.09984 
L 305.987933 59.85792 
L 306.441361 59.37408 
L 307.801646 59.37408 
L 308.255074 59.13216 
L 313.696211 59.13216 
L 314.149639 58.89024 
L 315.509924 58.89024 
L 316.41678 58.4064 
L 317.323636 58.4064 
L 317.777064 58.16448 
L 318.230493 58.16448 
L 318.683921 57.68064 
L 321.857918 57.68064 
L 322.311346 57.43872 
L 322.764774 57.43872 
L 323.218202 57.1968 
L 324.578487 57.1968 
L 325.031915 56.95488 
L 334.553906 56.95488 
L 335.460762 56.47104 
L 337.274474 56.47104 
L 337.727902 56.22912 
L 338.181331 56.22912 
L 338.634759 55.9872 
L 340.448471 55.9872 
L 340.901899 55.74528 
L 345.889609 55.74528 
L 346.343037 55.50336 
L 347.703321 55.50336 
L 348.15675 55.26144 
L 349.970462 55.26144 
L 350.42389 55.01952 
L 353.597887 55.01952 
L 354.051315 54.7776 
L 354.504744 54.7776 
L 354.958172 54.53568 
L 358.132169 54.53568 
L 358.585597 54.29376 
L 359.945881 54.29376 
L 360.399309 54.05184 
L 364.026734 54.05184 
L 364.480163 53.80992 
L 369.9213 53.80992 
L 370.374728 53.568 
L 398.487273 53.568 
L 398.487273 53.568 
" clip-path="url(#pe7fdc4405f)" style="fill: none; stroke-dasharray: 1.85,0.8; stroke-dashoffset: 0; stroke: #0000ff; stroke-width: 0.5"/>
   </g>
   <g id="line2d_18">
    <path d="M 73.832727 295.488 
L 74.286155 208.3968 
L 74.739584 208.3968 
L 77.460152 206.94528 
L 77.91358 206.94528 
L 78.367009 206.46144 
L 78.820437 206.21952 
L 79.273865 206.21952 
L 79.727293 205.73568 
L 80.180721 205.49376 
L 80.634149 205.00992 
L 81.541006 203.31648 
L 81.994434 202.83264 
L 82.447862 202.83264 
L 82.90129 201.62304 
L 83.354718 201.38112 
L 83.808146 200.89728 
L 84.261574 199.9296 
L 84.715003 199.9296 
L 85.621859 198.47808 
L 86.075287 198.23616 
L 86.528715 198.23616 
L 86.982143 197.99424 
L 87.888999 195.81696 
L 88.795856 194.12352 
L 89.702712 193.15584 
L 90.15614 192.43008 
L 91.062996 189.28512 
L 91.516425 188.07552 
L 91.969853 187.8336 
L 92.423281 187.34976 
L 92.876709 187.34976 
L 93.330137 186.86592 
L 93.783565 186.14016 
L 94.236993 185.89824 
L 95.597278 183.23712 
L 96.050706 182.9952 
L 96.957562 181.54368 
L 97.864418 179.60832 
L 98.317847 179.3664 
L 98.771275 177.67296 
L 99.224703 176.46336 
L 99.678131 175.7376 
L 100.131559 175.49568 
L 100.584987 174.528 
L 101.038415 174.04416 
L 101.491844 173.80224 
L 101.945272 173.3184 
L 103.305556 170.65728 
L 103.758984 168.96384 
L 104.212412 167.75424 
L 104.665841 165.81888 
L 106.026125 161.94816 
L 106.932981 158.8032 
L 107.386409 158.07744 
L 108.746694 152.7552 
L 109.200122 152.02944 
L 109.65355 150.336 
L 110.106978 149.61024 
L 110.560406 148.64256 
L 111.013834 148.40064 
L 111.467263 147.67488 
L 111.920691 145.98144 
L 112.374119 145.4976 
L 113.280975 143.80416 
L 113.734403 143.32032 
L 114.187831 142.59456 
L 115.548116 141.14304 
L 116.001544 140.90112 
L 116.454972 139.69152 
L 116.9084 138.96576 
L 117.361828 138.72384 
L 118.268685 137.75616 
L 118.722113 137.51424 
L 119.628969 137.51424 
L 120.535825 136.54656 
L 121.442682 136.06272 
L 121.89611 135.33696 
L 122.349538 134.85312 
L 124.16325 133.88544 
L 124.616679 132.91776 
L 125.070107 132.91776 
L 125.523535 132.67584 
L 125.976963 131.95008 
L 126.430391 131.46624 
L 126.883819 131.22432 
L 127.337247 130.49856 
L 127.790675 130.01472 
L 128.697532 128.32128 
L 129.15096 127.83744 
L 129.604388 127.11168 
L 130.057816 126.62784 
L 130.964672 124.9344 
L 131.418101 124.69248 
L 131.871529 123.96672 
L 132.778385 123.96672 
L 133.685241 122.99904 
L 134.138669 122.75712 
L 134.592098 121.78944 
L 135.045526 120.096 
L 135.498954 119.61216 
L 135.952382 118.64448 
L 136.859238 117.6768 
L 137.312666 116.95104 
L 137.766094 116.70912 
L 138.219523 115.74144 
L 138.672951 115.2576 
L 139.579807 113.32224 
L 140.033235 113.32224 
L 140.940091 112.8384 
L 141.39352 112.35456 
L 142.300376 111.87072 
L 142.753804 110.66112 
L 143.207232 110.66112 
L 143.66066 109.2096 
L 144.114088 108.72576 
L 145.474373 106.06464 
L 145.927801 105.33888 
L 146.834657 104.3712 
L 147.288085 103.64544 
L 147.741513 103.1616 
L 148.194942 102.43584 
L 148.64837 100.7424 
L 149.101798 100.25856 
L 149.555226 100.01664 
L 150.008654 99.29088 
L 150.462082 99.29088 
L 150.91551 98.56512 
L 151.368939 97.35552 
L 151.822367 96.87168 
L 154.089507 95.66208 
L 154.542936 95.17824 
L 154.996364 94.93632 
L 155.449792 94.45248 
L 156.356648 93.00096 
L 158.170361 91.0656 
L 158.623789 90.33984 
L 159.077217 90.09792 
L 159.530645 89.37216 
L 159.984073 89.13024 
L 160.437501 88.6464 
L 160.890929 88.6464 
L 161.344358 88.16256 
L 162.704642 87.4368 
L 163.15807 87.4368 
L 165.878639 85.98528 
L 166.785495 85.98528 
L 167.238923 85.74336 
L 168.14578 85.74336 
L 168.599208 85.50144 
L 169.506064 85.50144 
L 169.959492 85.0176 
L 172.226633 85.0176 
L 172.680061 84.53376 
L 175.40063 84.53376 
L 175.854058 83.808 
L 177.214342 83.808 
L 177.66777 83.56608 
L 182.65548 83.56608 
L 183.108908 83.08224 
L 183.562336 82.84032 
L 184.922621 82.84032 
L 185.376049 82.5984 
L 185.829477 81.87264 
L 186.282905 81.63072 
L 186.736333 80.90496 
L 187.189761 80.42112 
L 187.643189 80.1792 
L 188.096618 79.45344 
L 188.550046 79.21152 
L 189.003474 78.48576 
L 189.456902 78.24384 
L 189.91033 77.76 
L 191.724043 77.76 
L 192.630899 77.27616 
L 193.537755 77.27616 
L 194.444611 76.79232 
L 194.89804 76.30848 
L 195.351468 76.30848 
L 195.804896 75.82464 
L 196.258324 75.82464 
L 196.711752 75.58272 
L 197.16518 75.09888 
L 198.072037 75.09888 
L 198.525465 74.85696 
L 198.978893 73.88928 
L 199.432321 73.88928 
L 199.885749 73.40544 
L 200.339177 73.16352 
L 200.792605 73.16352 
L 201.699462 72.67968 
L 206.233743 72.67968 
L 207.140599 72.19584 
L 208.954312 72.19584 
L 209.861168 71.712 
L 211.221453 71.712 
L 212.128309 71.22816 
L 213.035165 71.22816 
L 213.942021 70.74432 
L 214.848878 70.74432 
L 215.302306 70.5024 
L 215.755734 70.01856 
L 216.66259 70.01856 
L 217.116018 69.53472 
L 217.569446 69.53472 
L 218.022875 69.2928 
L 218.929731 69.2928 
L 219.383159 69.05088 
L 220.743443 69.05088 
L 221.6503 68.56704 
L 222.557156 68.56704 
L 223.010584 68.32512 
L 225.277725 68.32512 
L 226.184581 67.84128 
L 227.998294 67.84128 
L 229.812006 66.8736 
L 230.718862 66.8736 
L 231.172291 66.63168 
L 236.613428 66.63168 
L 237.066856 66.38976 
L 238.427141 66.38976 
L 238.880569 66.14784 
L 239.333997 66.14784 
L 239.787425 65.90592 
L 241.147709 65.90592 
L 241.601138 65.664 
L 242.507994 65.664 
L 242.961422 65.42208 
L 243.41485 65.42208 
L 243.868278 65.18016 
L 244.321706 65.18016 
L 244.775135 64.93824 
L 249.309416 64.93824 
L 250.216272 64.4544 
L 251.123128 64.4544 
L 251.576557 63.72864 
L 252.029985 63.48672 
L 252.483413 63.00288 
L 252.936841 62.76096 
L 253.390269 62.76096 
L 253.843697 62.27712 
L 254.297125 62.27712 
L 255.65741 61.55136 
L 256.564266 61.55136 
L 257.017694 61.30944 
L 257.471122 60.8256 
L 258.377979 60.8256 
L 258.831407 60.34176 
L 259.284835 60.34176 
L 259.738263 60.09984 
L 265.632829 60.09984 
L 266.086257 59.616 
L 266.539685 59.37408 
L 266.993113 59.37408 
L 267.446541 58.89024 
L 269.260254 58.89024 
L 269.713682 58.64832 
L 272.887679 58.64832 
L 273.341107 58.4064 
L 274.701392 58.4064 
L 275.15482 58.16448 
L 277.875389 58.16448 
L 278.328817 57.92256 
L 281.502814 57.92256 
L 281.956242 57.68064 
L 282.40967 57.68064 
L 282.863098 57.43872 
L 283.769954 57.43872 
L 284.223382 57.1968 
L 291.478233 57.1968 
L 291.931661 56.95488 
L 293.745373 56.95488 
L 294.198801 56.71296 
L 294.65223 56.71296 
L 295.105658 56.47104 
L 296.012514 56.47104 
L 296.465942 55.9872 
L 297.826227 55.26144 
L 298.279655 55.26144 
L 298.733083 55.01952 
L 299.186511 55.01952 
L 299.639939 54.29376 
L 300.093367 54.29376 
L 300.546795 54.05184 
L 302.360508 54.05184 
L 302.813936 53.80992 
L 306.441361 53.80992 
L 306.894789 53.568 
L 398.487273 53.568 
L 398.487273 53.568 
" clip-path="url(#pe7fdc4405f)" style="fill: none; stroke-dasharray: 1.85,0.8; stroke-dashoffset: 0; stroke: #bf00bf; stroke-width: 0.5"/>
   </g>
   <g id="line2d_19">
    <path d="M 73.832727 295.488 
L 74.286155 55.01952 
L 75.64644 55.01952 
L 76.099868 54.7776 
L 82.90129 54.7776 
L 83.354718 54.53568 
L 85.168431 54.53568 
L 85.621859 54.29376 
L 87.435571 54.29376 
L 87.888999 54.05184 
L 88.342428 53.568 
L 398.487273 53.568 
L 398.487273 53.568 
" clip-path="url(#pe7fdc4405f)" style="fill: none; stroke-dasharray: 1.85,0.8; stroke-dashoffset: 0; stroke: #bfbf00; stroke-width: 0.5"/>
   </g>
   <g id="patch_3">
    <path d="M 57.6 307.584 
L 57.6 41.472 
" style="fill: none; stroke: #000000; stroke-width: 0.8; stroke-linejoin: miter; stroke-linecap: square"/>
   </g>
   <g id="patch_4">
    <path d="M 414.72 307.584 
L 414.72 41.472 
" style="fill: none; stroke: #000000; stroke-width: 0.8; stroke-linejoin: miter; stroke-linecap: square"/>
   </g>
   <g id="patch_5">
    <path d="M 57.6 307.584 
L 414.72 307.584 
" style="fill: none; stroke: #000000; stroke-width: 0.8; stroke-linejoin: miter; stroke-linecap: square"/>
   </g>
   <g id="patch_6">
    <path d="M 57.6 41.472 
L 414.72 41.472 
" style="fill: none; stroke: #000000; stroke-width: 0.8; stroke-linejoin: miter; stroke-linecap: square"/>
   </g>
   <g id="text_17">
    <!-- count=1000, googlenet=150, resnet50=187, squeezenetv1=112, vgg19=187, yolov2=112 -->
    <g transform="translate(-3.84 35.472) scale(0.12 -0.12)">
     <defs>
      <path id="FangSong-6f" d="M 2875 1400 
Q 2875 775 2500 362 
Q 2125 -50 1575 -50 
Q 1000 -50 637 375 
Q 275 800 275 1400 
Q 275 1950 637 2400 
Q 1000 2850 1575 2850 
Q 2175 2850 2525 2400 
Q 2875 1950 2875 1400 
z
M 675 1375 
Q 675 725 937 412 
Q 1200 100 1575 100 
Q 2000 100 2237 437 
Q 2475 775 2475 1375 
Q 2475 2025 2212 2362 
Q 1950 2700 1575 2700 
Q 1225 2700 950 2362 
Q 675 2025 675 1375 
z
" transform="scale(0.015625)"/>
      <path id="FangSong-75" d="M 1425 225 
Q 1725 225 1937 375 
Q 2150 525 2250 850 
L 2250 2425 
Q 2250 2525 2200 2587 
Q 2150 2650 2025 2650 
L 1875 2650 
L 1875 2800 
L 2025 2800 
Q 2175 2800 2300 2825 
Q 2425 2850 2550 2950 
L 2600 2950 
L 2600 500 
Q 2600 400 2662 350 
Q 2725 300 2825 300 
L 2975 300 
L 2975 150 
L 2825 150 
Q 2700 150 2575 112 
Q 2450 75 2300 0 
L 2250 0 
L 2250 525 
Q 2125 250 1875 112 
Q 1625 -25 1300 -25 
Q 900 -25 700 200 
Q 500 425 500 925 
L 500 2425 
Q 500 2525 450 2587 
Q 400 2650 275 2650 
L 125 2650 
L 125 2800 
L 275 2800 
Q 425 2800 550 2825 
Q 675 2850 800 2950 
L 850 2950 
L 850 875 
Q 850 525 1000 375 
Q 1150 225 1425 225 
z
" transform="scale(0.015625)"/>
      <path id="FangSong-3d" d="M 175 2725 
L 175 2950 
L 2950 2950 
L 2950 2725 
L 175 2725 
z
M 175 1450 
L 175 1675 
L 2950 1675 
L 2950 1450 
L 175 1450 
z
" transform="scale(0.015625)"/>
      <path id="FangSong-2c" d="M 1325 75 
Q 1200 25 1100 75 
Q 1000 125 962 237 
Q 925 350 925 437 
Q 925 525 987 612 
Q 1050 700 1150 737 
Q 1250 775 1425 725 
Q 1600 675 1650 500 
Q 1700 325 1662 150 
Q 1625 -25 1525 -200 
Q 1425 -375 1312 -475 
Q 1200 -575 1025 -675 
L 950 -575 
Q 1100 -450 1187 -312 
Q 1275 -175 1325 75 
z
" transform="scale(0.015625)"/>
      <path id="FangSong-20" transform="scale(0.015625)"/>
      <path id="FangSong-67" d="M 850 1875 
Q 850 1575 1025 1362 
Q 1200 1150 1500 1150 
Q 1825 1150 1987 1337 
Q 2150 1525 2150 1875 
Q 2150 2300 1962 2487 
Q 1775 2675 1500 2675 
Q 1225 2675 1037 2487 
Q 850 2300 850 1875 
z
M 2075 525 
Q 2450 475 2625 312 
Q 2800 150 2800 -125 
Q 2800 -500 2487 -725 
Q 2175 -950 1500 -950 
Q 975 -950 650 -737 
Q 325 -525 325 -250 
Q 325 -75 450 100 
Q 575 275 850 375 
Q 700 450 612 537 
Q 525 625 525 750 
Q 525 900 625 1012 
Q 725 1125 875 1200 
Q 725 1325 612 1500 
Q 500 1675 500 1875 
Q 500 2250 762 2537 
Q 1025 2825 1500 2825 
Q 1700 2825 1887 2775 
Q 2075 2725 2200 2600 
Q 2375 2725 2512 2787 
Q 2650 2850 2750 2850 
Q 2875 2850 2925 2762 
Q 2975 2675 2975 2600 
Q 2975 2500 2937 2437 
Q 2900 2375 2800 2375 
Q 2725 2375 2675 2412 
Q 2625 2450 2600 2525 
Q 2575 2600 2487 2587 
Q 2400 2575 2300 2500 
Q 2400 2400 2450 2225 
Q 2500 2050 2500 1875 
Q 2500 1575 2262 1287 
Q 2025 1000 1500 1000 
Q 1350 1000 1225 1037 
Q 1100 1075 1025 1125 
Q 925 1075 875 1000 
Q 825 925 825 875 
Q 825 775 875 725 
Q 925 675 1025 675 
Q 1350 625 1612 587 
Q 1875 550 2075 525 
z
M 1050 325 
Q 825 225 737 87 
Q 650 -50 650 -250 
Q 650 -450 875 -625 
Q 1100 -800 1550 -800 
Q 1975 -800 2225 -662 
Q 2475 -525 2475 -250 
Q 2475 -75 2412 25 
Q 2350 125 2225 150 
Q 1975 200 1675 237 
Q 1375 275 1050 325 
z
" transform="scale(0.015625)"/>
      <path id="FangSong-6c" d="M 900 4275 
Q 1125 4275 1325 4325 
Q 1525 4375 1700 4475 
L 1750 4475 
L 1750 350 
Q 1750 250 1812 200 
Q 1875 150 1975 150 
L 2550 150 
L 2550 0 
L 600 0 
L 600 150 
L 1175 150 
Q 1300 150 1350 200 
Q 1400 250 1400 350 
L 1400 3925 
Q 1400 4025 1350 4075 
Q 1300 4125 1175 4125 
L 625 4125 
L 625 4275 
L 900 4275 
z
" transform="scale(0.015625)"/>
      <path id="FangSong-72" d="M 1250 2025 
Q 1500 2425 1787 2637 
Q 2075 2850 2375 2850 
Q 2625 2850 2762 2737 
Q 2900 2625 2900 2475 
Q 2900 2350 2837 2275 
Q 2775 2200 2650 2200 
Q 2525 2200 2462 2275 
Q 2400 2350 2425 2475 
Q 2425 2550 2400 2600 
Q 2375 2650 2250 2650 
Q 2050 2650 1762 2400 
Q 1475 2150 1250 1700 
L 1250 350 
Q 1250 250 1312 200 
Q 1375 150 1475 150 
L 2025 150 
L 2025 0 
L 175 0 
L 175 150 
L 675 150 
Q 800 150 850 200 
Q 900 250 900 350 
L 900 2425 
Q 900 2525 850 2587 
Q 800 2650 675 2650 
L 200 2650 
L 200 2800 
L 400 2800 
Q 575 2800 812 2837 
Q 1050 2875 1175 2925 
L 1250 2925 
L 1250 2025 
z
" transform="scale(0.015625)"/>
      <path id="FangSong-73" d="M 600 2075 
Q 600 2450 887 2650 
Q 1175 2850 1575 2850 
Q 1800 2850 2000 2787 
Q 2200 2725 2275 2725 
Q 2350 2725 2400 2750 
Q 2450 2775 2525 2850 
L 2625 2025 
L 2475 2000 
Q 2375 2325 2137 2512 
Q 1900 2700 1600 2700 
Q 1275 2700 1087 2575 
Q 900 2450 900 2225 
Q 900 2025 987 1912 
Q 1075 1800 1300 1750 
Q 1475 1675 1737 1587 
Q 2000 1500 2225 1400 
Q 2425 1300 2562 1137 
Q 2700 975 2700 775 
Q 2700 400 2437 187 
Q 2175 -25 1675 -25 
Q 1350 -25 1187 37 
Q 1025 100 925 100 
Q 850 100 762 62 
Q 675 25 575 -25 
L 500 900 
L 650 925 
Q 725 525 975 325 
Q 1225 125 1675 125 
Q 2025 125 2212 250 
Q 2400 375 2400 625 
Q 2400 800 2300 912 
Q 2200 1025 2100 1075 
Q 1850 1175 1550 1287 
Q 1250 1400 1025 1500 
Q 800 1600 700 1750 
Q 600 1900 600 2075 
z
" transform="scale(0.015625)"/>
      <path id="FangSong-71" d="M 2250 2150 
Q 2150 2375 1975 2512 
Q 1800 2650 1550 2650 
Q 1200 2650 950 2350 
Q 700 2050 700 1325 
Q 700 700 912 437 
Q 1125 175 1450 175 
Q 1725 175 1937 300 
Q 2150 425 2250 725 
L 2250 2150 
z
M 2600 -550 
Q 2600 -675 2662 -725 
Q 2725 -775 2825 -775 
L 2975 -775 
L 2975 -925 
L 1825 -925 
L 1825 -775 
L 2025 -775 
Q 2150 -775 2200 -725 
Q 2250 -675 2250 -550 
L 2250 375 
Q 2100 175 1887 75 
Q 1675 -25 1375 -25 
Q 950 -25 625 337 
Q 300 700 300 1400 
Q 300 2075 675 2450 
Q 1050 2825 1475 2825 
Q 1750 2825 1937 2725 
Q 2125 2625 2275 2475 
L 2500 2800 
L 2600 2800 
L 2600 -550 
z
" transform="scale(0.015625)"/>
      <path id="FangSong-7a" d="M 2725 975 
L 2550 0 
L 400 0 
L 400 125 
L 2125 2650 
L 1200 2650 
Q 975 2650 825 2487 
Q 675 2325 575 1925 
L 425 1950 
L 525 2800 
L 2575 2800 
L 2575 2725 
L 825 150 
L 1775 150 
Q 2100 150 2287 350 
Q 2475 550 2575 1000 
L 2725 975 
z
" transform="scale(0.015625)"/>
      <path id="FangSong-76" d="M 1600 -25 
L 1450 -25 
L 600 2425 
Q 575 2525 500 2587 
Q 425 2650 325 2650 
L 200 2650 
L 200 2800 
L 1275 2800 
L 1275 2650 
L 1175 2650 
Q 1025 2650 987 2575 
Q 950 2500 1000 2325 
L 1600 575 
L 1650 575 
L 2250 2300 
Q 2325 2475 2262 2562 
Q 2200 2650 2050 2650 
L 2000 2650 
L 2000 2800 
L 2900 2800 
L 2900 2650 
L 2850 2650 
Q 2700 2650 2612 2562 
Q 2525 2475 2450 2300 
L 1600 -25 
z
" transform="scale(0.015625)"/>
      <path id="FangSong-39" d="M 675 2950 
Q 675 2400 887 2112 
Q 1100 1825 1425 1825 
Q 1800 1825 2075 2175 
Q 2350 2525 2350 2825 
Q 2350 3425 2150 3787 
Q 1950 4150 1500 4150 
Q 1075 4150 875 3812 
Q 675 3475 675 2950 
z
M 1350 1600 
Q 850 1600 550 1912 
Q 250 2225 250 2925 
Q 250 3525 575 3925 
Q 900 4325 1500 4325 
Q 2125 4325 2475 3825 
Q 2825 3325 2825 2375 
Q 2825 1325 2412 637 
Q 2000 -50 1275 -50 
Q 950 -50 712 100 
Q 475 250 475 500 
Q 475 600 537 700 
Q 600 800 750 800 
Q 900 800 950 687 
Q 1000 575 1000 425 
Q 1000 325 1025 262 
Q 1050 200 1075 175 
Q 1100 150 1162 137 
Q 1225 125 1300 125 
Q 1750 125 2025 625 
Q 2300 1125 2350 2300 
Q 2225 2000 1975 1800 
Q 1725 1600 1350 1600 
z
" transform="scale(0.015625)"/>
     </defs>
     <use xlink:href="#FangSong-63"/>
     <use xlink:href="#FangSong-6f" x="50"/>
     <use xlink:href="#FangSong-75" x="100"/>
     <use xlink:href="#FangSong-6e" x="150"/>
     <use xlink:href="#FangSong-74" x="200"/>
     <use xlink:href="#FangSong-3d" x="250"/>
     <use xlink:href="#FangSong-31" x="300"/>
     <use xlink:href="#FangSong-30" x="350"/>
     <use xlink:href="#FangSong-30" x="400"/>
     <use xlink:href="#FangSong-30" x="450"/>
     <use xlink:href="#FangSong-2c" x="500"/>
     <use xlink:href="#FangSong-20" x="550"/>
     <use xlink:href="#FangSong-67" x="600"/>
     <use xlink:href="#FangSong-6f" x="650"/>
     <use xlink:href="#FangSong-6f" x="700"/>
     <use xlink:href="#FangSong-67" x="750"/>
     <use xlink:href="#FangSong-6c" x="800"/>
     <use xlink:href="#FangSong-65" x="850"/>
     <use xlink:href="#FangSong-6e" x="900"/>
     <use xlink:href="#FangSong-65" x="950"/>
     <use xlink:href="#FangSong-74" x="1000"/>
     <use xlink:href="#FangSong-3d" x="1050"/>
     <use xlink:href="#FangSong-31" x="1100"/>
     <use xlink:href="#FangSong-35" x="1150"/>
     <use xlink:href="#FangSong-30" x="1200"/>
     <use xlink:href="#FangSong-2c" x="1250"/>
     <use xlink:href="#FangSong-20" x="1300"/>
     <use xlink:href="#FangSong-72" x="1350"/>
     <use xlink:href="#FangSong-65" x="1400"/>
     <use xlink:href="#FangSong-73" x="1450"/>
     <use xlink:href="#FangSong-6e" x="1500"/>
     <use xlink:href="#FangSong-65" x="1550"/>
     <use xlink:href="#FangSong-74" x="1600"/>
     <use xlink:href="#FangSong-35" x="1650"/>
     <use xlink:href="#FangSong-30" x="1700"/>
     <use xlink:href="#FangSong-3d" x="1750"/>
     <use xlink:href="#FangSong-31" x="1800"/>
     <use xlink:href="#FangSong-38" x="1850"/>
     <use xlink:href="#FangSong-37" x="1900"/>
     <use xlink:href="#FangSong-2c" x="1950"/>
     <use xlink:href="#FangSong-20" x="2000"/>
     <use xlink:href="#FangSong-73" x="2050"/>
     <use xlink:href="#FangSong-71" x="2100"/>
     <use xlink:href="#FangSong-75" x="2150"/>
     <use xlink:href="#FangSong-65" x="2200"/>
     <use xlink:href="#FangSong-65" x="2250"/>
     <use xlink:href="#FangSong-7a" x="2300"/>
     <use xlink:href="#FangSong-65" x="2350"/>
     <use xlink:href="#FangSong-6e" x="2400"/>
     <use xlink:href="#FangSong-65" x="2450"/>
     <use xlink:href="#FangSong-74" x="2500"/>
     <use xlink:href="#FangSong-76" x="2550"/>
     <use xlink:href="#FangSong-31" x="2600"/>
     <use xlink:href="#FangSong-3d" x="2650"/>
     <use xlink:href="#FangSong-31" x="2700"/>
     <use xlink:href="#FangSong-31" x="2750"/>
     <use xlink:href="#FangSong-32" x="2800"/>
     <use xlink:href="#FangSong-2c" x="2850"/>
     <use xlink:href="#FangSong-20" x="2900"/>
     <use xlink:href="#FangSong-76" x="2950"/>
     <use xlink:href="#FangSong-67" x="3000"/>
     <use xlink:href="#FangSong-67" x="3050"/>
     <use xlink:href="#FangSong-31" x="3100"/>
     <use xlink:href="#FangSong-39" x="3150"/>
     <use xlink:href="#FangSong-3d" x="3200"/>
     <use xlink:href="#FangSong-31" x="3250"/>
     <use xlink:href="#FangSong-38" x="3300"/>
     <use xlink:href="#FangSong-37" x="3350"/>
     <use xlink:href="#FangSong-2c" x="3400"/>
     <use xlink:href="#FangSong-20" x="3450"/>
     <use xlink:href="#FangSong-79" x="3500"/>
     <use xlink:href="#FangSong-6f" x="3550"/>
     <use xlink:href="#FangSong-6c" x="3600"/>
     <use xlink:href="#FangSong-6f" x="3650"/>
     <use xlink:href="#FangSong-76" x="3700"/>
     <use xlink:href="#FangSong-32" x="3750"/>
     <use xlink:href="#FangSong-3d" x="3800"/>
     <use xlink:href="#FangSong-31" x="3850"/>
     <use xlink:href="#FangSong-31" x="3900"/>
     <use xlink:href="#FangSong-32" x="3950"/>
    </g>
   </g>
   <g id="legend_1">
    <g id="patch_7">
     <path d="M 335.72 302.584 
L 407.72 302.584 
Q 409.72 302.584 409.72 300.584 
L 409.72 234.357437 
Q 409.72 232.357437 407.72 232.357437 
L 335.72 232.357437 
Q 333.72 232.357437 333.72 234.357437 
L 333.72 300.584 
Q 333.72 302.584 335.72 302.584 
z
" style="fill: #ffffff; opacity: 0.8; stroke: #cccccc; stroke-linejoin: miter"/>
    </g>
    <g id="line2d_20">
     <path d="M 337.72 239.857437 
L 347.72 239.857437 
L 357.72 239.857437 
" style="fill: none; stroke: #ff0000; stroke-linecap: square"/>
    </g>
    <g id="text_18">
     <!-- DLIR -->
     <g transform="translate(365.72 243.357437) scale(0.1 -0.1)">
      <defs>
       <path id="FangSong-44" d="M 2475 2175 
Q 2475 3250 2150 3687 
Q 1825 4125 1250 4125 
Q 1075 4125 987 4075 
Q 900 4025 900 3925 
L 900 350 
Q 900 250 975 200 
Q 1050 150 1175 150 
Q 1725 150 2100 562 
Q 2475 975 2475 2175 
z
M 500 3925 
Q 500 4025 450 4075 
Q 400 4125 275 4125 
L 125 4125 
L 125 4275 
L 1250 4275 
Q 2025 4275 2487 3775 
Q 2950 3275 2950 2225 
Q 2950 1075 2500 537 
Q 2050 0 1175 0 
L 100 0 
L 100 150 
L 275 150 
Q 400 150 450 200 
Q 500 250 500 350 
L 500 3925 
z
" transform="scale(0.015625)"/>
       <path id="FangSong-49" d="M 575 4125 
L 575 4275 
L 2575 4275 
L 2575 4125 
L 2000 4125 
Q 1900 4125 1837 4075 
Q 1775 4025 1775 3925 
L 1775 350 
Q 1775 250 1837 200 
Q 1900 150 2000 150 
L 2575 150 
L 2575 0 
L 575 0 
L 575 150 
L 1150 150 
Q 1275 150 1325 200 
Q 1375 250 1375 350 
L 1375 3925 
Q 1375 4025 1325 4075 
Q 1275 4125 1150 4125 
L 575 4125 
z
" transform="scale(0.015625)"/>
       <path id="FangSong-52" d="M 2800 3275 
Q 2800 2775 2525 2500 
Q 2250 2225 1900 2175 
L 2650 325 
Q 2700 225 2762 187 
Q 2825 150 2900 150 
L 3050 150 
L 3050 0 
L 2350 0 
L 1525 2150 
L 950 2150 
L 950 350 
Q 950 250 1012 200 
Q 1075 150 1175 150 
L 1325 150 
L 1325 0 
L 175 0 
L 175 150 
L 325 150 
Q 450 150 500 200 
Q 550 250 550 350 
L 550 3925 
Q 550 4025 500 4075 
Q 450 4125 325 4125 
L 175 4125 
L 175 4275 
L 1600 4275 
Q 2175 4275 2487 4025 
Q 2800 3775 2800 3275 
z
M 950 2300 
L 1500 2300 
Q 1875 2300 2125 2525 
Q 2375 2750 2375 3225 
Q 2375 3650 2150 3887 
Q 1925 4125 1450 4125 
L 1175 4125 
Q 1075 4125 1012 4075 
Q 950 4025 950 3925 
L 950 2300 
z
" transform="scale(0.015625)"/>
      </defs>
      <use xlink:href="#FangSong-44"/>
      <use xlink:href="#FangSong-4c" x="50"/>
      <use xlink:href="#FangSong-49" x="100"/>
      <use xlink:href="#FangSong-52" x="150"/>
     </g>
    </g>
    <g id="line2d_21">
     <path d="M 337.72 253.30275 
L 347.72 253.30275 
L 357.72 253.30275 
" style="fill: none; stroke-dasharray: 1.85,0.8; stroke-dashoffset: 0; stroke: #008000; stroke-width: 0.5"/>
    </g>
    <g id="text_19">
     <!-- BNST -->
     <g transform="translate(365.72 256.80275) scale(0.1 -0.1)">
      <defs>
       <path id="FangSong-42" d="M 75 0 
L 75 150 
L 275 150 
Q 400 150 450 200 
Q 500 250 500 350 
L 500 3925 
Q 500 4025 450 4075 
Q 400 4125 275 4125 
L 125 4125 
L 125 4275 
L 1575 4275 
Q 2175 4275 2462 4037 
Q 2750 3800 2750 3300 
Q 2750 2950 2600 2725 
Q 2450 2500 1975 2325 
Q 2550 2150 2750 1825 
Q 2950 1500 2950 1100 
Q 2950 600 2600 300 
Q 2250 0 1650 0 
L 75 0 
z
M 1575 150 
Q 2000 150 2237 412 
Q 2475 675 2475 1150 
Q 2475 1700 2225 1962 
Q 1975 2225 1475 2225 
L 900 2225 
L 900 350 
Q 900 250 962 200 
Q 1025 150 1125 150 
L 1575 150 
z
M 2325 3300 
Q 2325 3750 2075 3937 
Q 1825 4125 1425 4125 
L 1125 4125 
Q 1025 4125 962 4075 
Q 900 4025 900 3925 
L 900 2375 
L 1550 2375 
Q 1825 2375 2075 2600 
Q 2325 2825 2325 3300 
z
" transform="scale(0.015625)"/>
       <path id="FangSong-4e" d="M 2500 1000 
L 2550 1000 
L 2550 3925 
Q 2550 4025 2500 4075 
Q 2450 4125 2325 4125 
L 2125 4125 
L 2125 4275 
L 3125 4275 
L 3125 4125 
L 2925 4125 
Q 2825 4125 2762 4075 
Q 2700 4025 2700 3925 
L 2700 0 
L 2550 0 
L 650 3725 
L 600 3725 
L 600 350 
Q 600 250 662 200 
Q 725 150 825 150 
L 1025 150 
L 1025 0 
L 25 0 
L 25 150 
L 225 150 
Q 350 150 400 200 
Q 450 250 450 350 
L 450 3925 
Q 450 4025 400 4075 
Q 350 4125 225 4125 
L 75 4125 
L 75 4275 
L 800 4275 
L 2500 1000 
z
" transform="scale(0.015625)"/>
       <path id="FangSong-53" d="M 1475 2050 
Q 800 2350 550 2575 
Q 300 2800 300 3275 
Q 300 3650 612 3987 
Q 925 4325 1500 4325 
Q 1750 4325 1975 4237 
Q 2200 4150 2300 4150 
Q 2375 4150 2437 4187 
Q 2500 4225 2550 4325 
L 2650 3300 
L 2525 3250 
Q 2300 3775 2062 3962 
Q 1825 4150 1450 4150 
Q 975 4150 800 3887 
Q 625 3625 625 3325 
Q 625 3050 787 2887 
Q 950 2725 1675 2400 
Q 2275 2150 2537 1837 
Q 2800 1525 2800 1100 
Q 2800 650 2487 300 
Q 2175 -50 1575 -50 
Q 1325 -50 1112 37 
Q 900 125 775 125 
Q 700 125 625 75 
Q 550 25 450 -50 
L 250 1175 
L 400 1225 
Q 575 600 887 362 
Q 1200 125 1600 125 
Q 2025 125 2237 375 
Q 2450 625 2450 1100 
Q 2450 1350 2212 1587 
Q 1975 1825 1475 2050 
z
" transform="scale(0.015625)"/>
       <path id="FangSong-54" d="M 2200 0 
L 900 0 
L 900 150 
L 1125 150 
Q 1250 150 1300 200 
Q 1350 250 1350 350 
L 1350 3850 
Q 1350 4050 1325 4075 
Q 1300 4100 1125 4100 
Q 775 4100 637 3975 
Q 500 3850 300 3300 
L 150 3325 
L 375 4275 
L 2750 4275 
L 2950 3325 
L 2825 3300 
Q 2625 3825 2512 3962 
Q 2400 4100 2050 4100 
Q 1800 4100 1775 4075 
Q 1750 4050 1750 3825 
L 1750 350 
Q 1750 250 1812 200 
Q 1875 150 1975 150 
L 2200 150 
L 2200 0 
z
" transform="scale(0.015625)"/>
      </defs>
      <use xlink:href="#FangSong-42"/>
      <use xlink:href="#FangSong-4e" x="50"/>
      <use xlink:href="#FangSong-53" x="100"/>
      <use xlink:href="#FangSong-54" x="150"/>
     </g>
    </g>
    <g id="line2d_22">
     <path d="M 337.72 266.748062 
L 347.72 266.748062 
L 357.72 266.748062 
" style="fill: none; stroke-dasharray: 1.85,0.8; stroke-dashoffset: 0; stroke: #0000ff; stroke-width: 0.5"/>
    </g>
    <g id="text_20">
     <!-- FIFO -->
     <g transform="translate(365.72 270.248062) scale(0.1 -0.1)">
      <defs>
       <path id="FangSong-46" d="M 1325 150 
L 1325 0 
L 125 0 
L 125 150 
L 300 150 
Q 425 150 475 200 
Q 525 250 525 350 
L 525 3925 
Q 525 4025 475 4075 
Q 425 4125 300 4125 
L 150 4125 
L 150 4275 
L 2750 4275 
L 3050 3375 
L 2925 3325 
Q 2725 3725 2450 3925 
Q 2175 4125 1850 4125 
L 1150 4125 
Q 1050 4125 987 4075 
Q 925 4025 925 3925 
L 925 2325 
L 1750 2325 
Q 2000 2325 2112 2437 
Q 2225 2550 2225 2800 
L 2225 2925 
L 2375 2925 
L 2375 1475 
L 2225 1475 
L 2225 1575 
Q 2225 1875 2112 2025 
Q 2000 2175 1750 2175 
L 925 2175 
L 925 350 
Q 925 250 987 200 
Q 1050 150 1150 150 
L 1325 150 
z
" transform="scale(0.015625)"/>
       <path id="FangSong-4f" d="M 675 2150 
Q 675 1075 937 587 
Q 1200 100 1600 100 
Q 2025 100 2275 562 
Q 2525 1025 2525 2150 
Q 2525 3050 2312 3600 
Q 2100 4150 1600 4150 
Q 1175 4150 925 3650 
Q 675 3150 675 2150 
z
M 3000 2150 
Q 3000 1125 2600 537 
Q 2200 -50 1600 -50 
Q 1025 -50 612 550 
Q 200 1150 200 2150 
Q 200 3125 587 3725 
Q 975 4325 1600 4325 
Q 2250 4325 2625 3687 
Q 3000 3050 3000 2150 
z
" transform="scale(0.015625)"/>
      </defs>
      <use xlink:href="#FangSong-46"/>
      <use xlink:href="#FangSong-49" x="50"/>
      <use xlink:href="#FangSong-46" x="100"/>
      <use xlink:href="#FangSong-4f" x="150"/>
     </g>
    </g>
    <g id="line2d_23">
     <path d="M 337.72 280.193375 
L 347.72 280.193375 
L 357.72 280.193375 
" style="fill: none; stroke-dasharray: 1.85,0.8; stroke-dashoffset: 0; stroke: #bf00bf; stroke-width: 0.5"/>
    </g>
    <g id="text_21">
     <!-- OYST -->
     <g transform="translate(365.72 283.693375) scale(0.1 -0.1)">
      <defs>
       <path id="FangSong-59" d="M 2350 3825 
Q 2375 3975 2312 4050 
Q 2250 4125 2075 4125 
L 2025 4125 
L 2025 4275 
L 3000 4275 
L 3000 4125 
L 2925 4125 
Q 2800 4125 2700 4037 
Q 2600 3950 2525 3775 
L 1750 1800 
L 1750 350 
Q 1750 250 1812 200 
Q 1875 150 1975 150 
L 2200 150 
L 2200 0 
L 900 0 
L 900 150 
L 1125 150 
Q 1250 150 1300 200 
Q 1350 250 1350 350 
L 1350 1650 
L 500 3850 
Q 450 3975 375 4050 
Q 300 4125 175 4125 
L 125 4125 
L 125 4275 
L 1225 4275 
L 1225 4125 
L 1075 4125 
Q 925 4125 900 4050 
Q 875 3975 925 3825 
L 1600 1975 
L 1650 1975 
L 2350 3825 
z
" transform="scale(0.015625)"/>
      </defs>
      <use xlink:href="#FangSong-4f"/>
      <use xlink:href="#FangSong-59" x="50"/>
      <use xlink:href="#FangSong-53" x="100"/>
      <use xlink:href="#FangSong-54" x="150"/>
     </g>
    </g>
    <g id="line2d_24">
     <path d="M 337.72 293.638687 
L 347.72 293.638687 
L 357.72 293.638687 
" style="fill: none; stroke-dasharray: 1.85,0.8; stroke-dashoffset: 0; stroke: #bfbf00; stroke-width: 0.5"/>
    </g>
    <g id="text_22">
     <!-- PARALLEL -->
     <g transform="translate(365.72 297.138687) scale(0.1 -0.1)">
      <defs>
       <path id="FangSong-50" d="M 925 2000 
L 925 350 
Q 925 250 987 200 
Q 1050 150 1150 150 
L 1325 150 
L 1325 0 
L 125 0 
L 125 150 
L 300 150 
Q 425 150 475 200 
Q 525 250 525 350 
L 525 3925 
Q 525 4025 475 4075 
Q 425 4125 300 4125 
L 150 4125 
L 150 4275 
L 1625 4275 
Q 2250 4275 2587 3962 
Q 2925 3650 2925 3175 
Q 2925 2600 2562 2300 
Q 2200 2000 1700 2000 
L 925 2000 
z
M 1550 2150 
Q 1925 2150 2212 2375 
Q 2500 2600 2500 3150 
Q 2500 3650 2262 3887 
Q 2025 4125 1500 4125 
L 1150 4125 
Q 1050 4125 987 4075 
Q 925 4025 925 3925 
L 925 2150 
L 1550 2150 
z
" transform="scale(0.015625)"/>
       <path id="FangSong-41" d="M 2000 1600 
L 875 1600 
L 650 650 
Q 600 425 650 287 
Q 700 150 875 150 
L 950 150 
L 950 0 
L 25 0 
L 25 150 
L 100 150 
Q 200 150 275 212 
Q 350 275 375 425 
L 1350 4250 
L 1725 4375 
L 2675 425 
Q 2725 275 2800 212 
Q 2875 150 2975 150 
L 3050 150 
L 3050 0 
L 1975 0 
L 1975 150 
L 2075 150 
Q 2225 150 2262 237 
Q 2300 325 2250 500 
L 2000 1600 
z
M 1475 3825 
L 1450 3825 
L 925 1750 
L 1975 1750 
L 1475 3825 
z
" transform="scale(0.015625)"/>
       <path id="FangSong-45" d="M 175 4125 
L 175 4275 
L 2625 4275 
L 2900 3425 
L 2775 3375 
Q 2575 3750 2350 3937 
Q 2125 4125 1850 4125 
L 1150 4125 
Q 1050 4125 987 4075 
Q 925 4025 925 3925 
L 925 2375 
L 1650 2375 
Q 1900 2375 2012 2500 
Q 2125 2625 2125 2875 
L 2125 3025 
L 2275 3025 
L 2275 1550 
L 2125 1550 
L 2125 1650 
Q 2125 1925 2012 2075 
Q 1900 2225 1650 2225 
L 925 2225 
L 925 350 
Q 925 250 987 200 
Q 1050 150 1150 150 
L 1800 150 
Q 2175 150 2437 362 
Q 2700 575 2850 1025 
L 2975 975 
L 2700 0 
L 150 0 
L 150 150 
L 300 150 
Q 425 150 475 200 
Q 525 250 525 350 
L 525 3925 
Q 525 4025 475 4075 
Q 425 4125 300 4125 
L 175 4125 
z
" transform="scale(0.015625)"/>
      </defs>
      <use xlink:href="#FangSong-50"/>
      <use xlink:href="#FangSong-41" x="50"/>
      <use xlink:href="#FangSong-52" x="100"/>
      <use xlink:href="#FangSong-41" x="150"/>
      <use xlink:href="#FangSong-4c" x="200"/>
      <use xlink:href="#FangSong-4c" x="250"/>
      <use xlink:href="#FangSong-45" x="300"/>
      <use xlink:href="#FangSong-4c" x="350"/>
     </g>
    </g>
   </g>
  </g>
 </g>
 <defs>
  <clipPath id="pe7fdc4405f">
   <rect x="57.6" y="41.472" width="357.12" height="266.112"/>
  </clipPath>
 </defs>
</svg>
