<?xml version="1.0" encoding="utf-8" standalone="no"?>
<!DOCTYPE svg PUBLIC "-//W3C//DTD SVG 1.1//EN"
  "http://www.w3.org/Graphics/SVG/1.1/DTD/svg11.dtd">
<svg xmlns:xlink="http://www.w3.org/1999/xlink" width="460.8pt" height="345.6pt" viewBox="0 0 460.8 345.6" xmlns="http://www.w3.org/2000/svg" version="1.1">
 <metadata>
  <rdf:RDF xmlns:dc="http://purl.org/dc/elements/1.1/" xmlns:cc="http://creativecommons.org/ns#" xmlns:rdf="http://www.w3.org/1999/02/22-rdf-syntax-ns#">
   <cc:Work>
    <dc:type rdf:resource="http://purl.org/dc/dcmitype/StillImage"/>
    <dc:date>2023-01-19T17:24:43.327036</dc:date>
    <dc:format>image/svg+xml</dc:format>
    <dc:creator>
     <cc:Agent>
      <dc:title>Matplotlib v3.6.3, https://matplotlib.org/</dc:title>
     </cc:Agent>
    </dc:creator>
   </cc:Work>
  </rdf:RDF>
 </metadata>
 <defs>
  <style type="text/css">*{stroke-linejoin: round; stroke-linecap: butt}</style>
 </defs>
 <g id="figure_1">
  <g id="patch_1">
   <path d="M 0 345.6 
L 460.8 345.6 
L 460.8 0 
L 0 0 
z
" style="fill: #ffffff"/>
  </g>
  <g id="axes_1">
   <g id="patch_2">
    <path d="M 57.6 307.584 
L 414.72 307.584 
L 414.72 41.472 
L 57.6 41.472 
z
" style="fill: #ffffff"/>
   </g>
   <g id="matplotlib.axis_1">
    <g id="xtick_1">
     <g id="line2d_1">
      <defs>
       <path id="mfc280ff9e9" d="M 0 0 
L 0 3.5 
" style="stroke: #000000; stroke-width: 0.8"/>
      </defs>
      <g>
       <use xlink:href="#mfc280ff9e9" x="67.516491" y="307.584" style="stroke: #000000; stroke-width: 0.8"/>
      </g>
     </g>
     <g id="text_1">
      <!-- 0 -->
      <g transform="translate(65.016491 321.576187) scale(0.1 -0.1)">
       <defs>
        <path id="FangSong-30" d="M 1575 4125 
Q 1225 4125 987 3587 
Q 750 3050 750 2150 
Q 750 1200 987 675 
Q 1225 150 1575 150 
Q 1950 150 2162 675 
Q 2375 1200 2375 2150 
Q 2375 3050 2175 3587 
Q 1975 4125 1575 4125 
z
M 1575 -50 
Q 1025 -50 650 525 
Q 275 1100 275 2150 
Q 275 3125 637 3725 
Q 1000 4325 1575 4325 
Q 2125 4325 2487 3750 
Q 2850 3175 2850 2150 
Q 2850 1125 2487 537 
Q 2125 -50 1575 -50 
z
" transform="scale(0.015625)"/>
       </defs>
       <use xlink:href="#FangSong-30"/>
      </g>
     </g>
    </g>
    <g id="xtick_2">
     <g id="line2d_2">
      <g>
       <use xlink:href="#mfc280ff9e9" x="130.678854" y="307.584" style="stroke: #000000; stroke-width: 0.8"/>
      </g>
     </g>
     <g id="text_2">
      <!-- 10 -->
      <g transform="translate(125.678854 321.576187) scale(0.1 -0.1)">
       <defs>
        <path id="FangSong-31" d="M 1800 4350 
L 1800 550 
Q 1800 350 1925 250 
Q 2050 150 2275 150 
L 2525 150 
L 2525 0 
L 700 0 
L 700 150 
L 925 150 
Q 1175 150 1287 250 
Q 1400 350 1400 550 
L 1400 3575 
Q 1400 3675 1337 3737 
Q 1275 3800 1150 3800 
L 700 3800 
L 700 3950 
L 925 3950 
Q 1225 3950 1412 4050 
Q 1600 4150 1700 4350 
L 1800 4350 
z
" transform="scale(0.015625)"/>
       </defs>
       <use xlink:href="#FangSong-31"/>
       <use xlink:href="#FangSong-30" x="50"/>
      </g>
     </g>
    </g>
    <g id="xtick_3">
     <g id="line2d_3">
      <g>
       <use xlink:href="#mfc280ff9e9" x="193.841217" y="307.584" style="stroke: #000000; stroke-width: 0.8"/>
      </g>
     </g>
     <g id="text_3">
      <!-- 20 -->
      <g transform="translate(188.841217 321.576187) scale(0.1 -0.1)">
       <defs>
        <path id="FangSong-32" d="M 2300 3225 
Q 2300 3675 2100 3912 
Q 1900 4150 1500 4150 
Q 1200 4150 987 3987 
Q 775 3825 775 3575 
Q 775 3425 862 3325 
Q 950 3225 950 3125 
Q 950 3000 887 2937 
Q 825 2875 700 2875 
Q 550 2875 462 2962 
Q 375 3050 375 3250 
Q 375 3775 750 4050 
Q 1125 4325 1550 4325 
Q 2150 4325 2437 4025 
Q 2725 3725 2725 3275 
Q 2725 2975 2587 2675 
Q 2450 2375 2150 2100 
Q 1425 1400 1037 962 
Q 650 525 575 375 
L 2050 375 
Q 2275 375 2425 550 
Q 2575 725 2625 1075 
L 2775 1075 
L 2625 0 
L 300 0 
L 300 325 
Q 425 550 712 900 
Q 1000 1250 1475 1725 
Q 1900 2150 2100 2525 
Q 2300 2900 2300 3225 
z
" transform="scale(0.015625)"/>
       </defs>
       <use xlink:href="#FangSong-32"/>
       <use xlink:href="#FangSong-30" x="50"/>
      </g>
     </g>
    </g>
    <g id="xtick_4">
     <g id="line2d_4">
      <g>
       <use xlink:href="#mfc280ff9e9" x="257.00358" y="307.584" style="stroke: #000000; stroke-width: 0.8"/>
      </g>
     </g>
     <g id="text_4">
      <!-- 30 -->
      <g transform="translate(252.00358 321.576187) scale(0.1 -0.1)">
       <defs>
        <path id="FangSong-33" d="M 2775 1150 
Q 2775 675 2425 312 
Q 2075 -50 1450 -50 
Q 1000 -50 675 200 
Q 350 450 350 775 
Q 350 925 450 1037 
Q 550 1150 650 1150 
Q 800 1150 862 1037 
Q 925 925 925 850 
Q 925 725 875 637 
Q 825 550 825 475 
Q 825 325 1012 225 
Q 1200 125 1425 125 
Q 1875 125 2100 387 
Q 2325 650 2325 1200 
Q 2325 1650 2087 1925 
Q 1850 2200 1200 2200 
L 1200 2375 
Q 1700 2375 1937 2612 
Q 2175 2850 2175 3275 
Q 2175 3625 1987 3887 
Q 1800 4150 1400 4150 
Q 1225 4150 1025 4062 
Q 825 3975 825 3775 
Q 825 3575 875 3525 
Q 925 3475 925 3400 
Q 925 3275 875 3200 
Q 825 3125 700 3125 
Q 600 3125 512 3200 
Q 425 3275 425 3475 
Q 425 3850 750 4087 
Q 1075 4325 1500 4325 
Q 2000 4325 2300 4012 
Q 2600 3700 2600 3350 
Q 2600 2975 2412 2712 
Q 2225 2450 1825 2325 
Q 2375 2125 2575 1800 
Q 2775 1475 2775 1150 
z
" transform="scale(0.015625)"/>
       </defs>
       <use xlink:href="#FangSong-33"/>
       <use xlink:href="#FangSong-30" x="50"/>
      </g>
     </g>
    </g>
    <g id="xtick_5">
     <g id="line2d_5">
      <g>
       <use xlink:href="#mfc280ff9e9" x="320.165943" y="307.584" style="stroke: #000000; stroke-width: 0.8"/>
      </g>
     </g>
     <g id="text_5">
      <!-- 40 -->
      <g transform="translate(315.165943 321.576187) scale(0.1 -0.1)">
       <defs>
        <path id="FangSong-34" d="M 2275 475 
Q 2275 300 2375 225 
Q 2475 150 2650 150 
L 2875 150 
L 2875 0 
L 1225 0 
L 1225 150 
L 1500 150 
Q 1700 150 1787 225 
Q 1875 300 1875 475 
L 1875 1300 
L 200 1300 
L 200 1425 
L 2025 4325 
L 2275 4325 
L 2275 1450 
L 2950 1450 
L 2950 1300 
L 2275 1300 
L 2275 475 
z
M 1850 3700 
L 425 1450 
L 1875 1450 
L 1875 3700 
L 1850 3700 
z
" transform="scale(0.015625)"/>
       </defs>
       <use xlink:href="#FangSong-34"/>
       <use xlink:href="#FangSong-30" x="50"/>
      </g>
     </g>
    </g>
    <g id="xtick_6">
     <g id="line2d_6">
      <g>
       <use xlink:href="#mfc280ff9e9" x="383.328306" y="307.584" style="stroke: #000000; stroke-width: 0.8"/>
      </g>
     </g>
     <g id="text_6">
      <!-- 50 -->
      <g transform="translate(378.328306 321.576187) scale(0.1 -0.1)">
       <defs>
        <path id="FangSong-35" d="M 1700 2750 
Q 2175 2750 2475 2387 
Q 2775 2025 2775 1425 
Q 2775 750 2462 350 
Q 2150 -50 1500 -50 
Q 1050 -50 700 212 
Q 350 475 350 850 
Q 350 1000 437 1112 
Q 525 1225 675 1225 
Q 825 1225 875 1125 
Q 925 1025 925 950 
Q 925 800 850 712 
Q 775 625 775 525 
Q 775 325 1012 225 
Q 1250 125 1525 125 
Q 1925 125 2137 450 
Q 2350 775 2350 1375 
Q 2350 1875 2162 2187 
Q 1975 2500 1600 2500 
Q 1325 2500 1125 2400 
Q 925 2300 750 1975 
L 525 2000 
L 650 4275 
L 2700 4275 
L 2625 3900 
L 825 3900 
L 725 2250 
Q 975 2600 1212 2675 
Q 1450 2750 1700 2750 
z
" transform="scale(0.015625)"/>
       </defs>
       <use xlink:href="#FangSong-35"/>
       <use xlink:href="#FangSong-30" x="50"/>
      </g>
     </g>
    </g>
    <g id="text_7">
     <!-- Latency -->
     <g transform="translate(218.66 333.974625) scale(0.1 -0.1)">
      <defs>
       <path id="FangSong-4c" d="M 975 350 
Q 975 250 1037 200 
Q 1100 150 1200 150 
L 1875 150 
Q 2225 150 2475 362 
Q 2725 575 2850 1025 
L 2975 975 
L 2750 0 
L 175 0 
L 175 150 
L 350 150 
Q 475 150 525 200 
Q 575 250 575 350 
L 575 3925 
Q 575 4025 525 4075 
Q 475 4125 350 4125 
L 200 4125 
L 200 4275 
L 1375 4275 
L 1375 4125 
L 1200 4125 
Q 1100 4125 1037 4075 
Q 975 4025 975 3925 
L 975 350 
z
" transform="scale(0.015625)"/>
       <path id="FangSong-61" d="M 1200 -25 
Q 750 -25 500 187 
Q 250 400 250 675 
Q 250 1125 637 1412 
Q 1025 1700 2175 1825 
L 2175 2125 
Q 2175 2375 2062 2537 
Q 1950 2700 1550 2700 
Q 1125 2700 950 2562 
Q 775 2425 825 2275 
Q 875 2175 825 2075 
Q 775 1975 625 1975 
Q 525 1975 462 2037 
Q 400 2100 400 2225 
Q 400 2450 725 2650 
Q 1050 2850 1525 2850 
Q 2025 2850 2275 2662 
Q 2525 2475 2525 2125 
L 2525 475 
Q 2525 275 2562 237 
Q 2600 200 2700 200 
Q 2825 200 2875 312 
Q 2925 425 2925 625 
L 3050 625 
Q 3050 275 2925 137 
Q 2800 0 2600 0 
Q 2425 0 2325 75 
Q 2225 150 2175 325 
Q 1925 150 1712 62 
Q 1500 -25 1200 -25 
z
M 675 750 
Q 675 525 812 337 
Q 950 150 1250 150 
Q 1475 150 1700 237 
Q 1925 325 2175 500 
L 2175 1675 
Q 1325 1575 1000 1337 
Q 675 1100 675 750 
z
" transform="scale(0.015625)"/>
       <path id="FangSong-74" d="M 1475 800 
Q 1475 450 1600 325 
Q 1725 200 1975 200 
Q 2225 200 2375 362 
Q 2525 525 2575 825 
L 2700 775 
Q 2650 425 2437 200 
Q 2225 -25 1875 -25 
Q 1500 -25 1312 200 
Q 1125 425 1125 900 
L 1125 2650 
L 375 2650 
L 375 2800 
L 575 2800 
Q 875 2800 1062 2987 
Q 1250 3175 1300 3575 
L 1325 3775 
L 1475 3775 
L 1475 2800 
L 2475 2800 
L 2475 2650 
L 1475 2650 
L 1475 800 
z
" transform="scale(0.015625)"/>
       <path id="FangSong-65" d="M 2375 1550 
Q 2400 2100 2187 2387 
Q 1975 2675 1625 2675 
Q 1250 2675 1012 2375 
Q 775 2075 775 1550 
L 2375 1550 
z
M 775 1400 
Q 775 725 1037 437 
Q 1300 150 1725 150 
Q 2050 150 2275 337 
Q 2500 525 2600 800 
L 2725 750 
Q 2650 475 2387 212 
Q 2125 -50 1675 -50 
Q 1100 -50 737 325 
Q 375 700 375 1400 
Q 375 2025 737 2437 
Q 1100 2850 1625 2850 
Q 2100 2850 2450 2525 
Q 2800 2200 2800 1400 
L 775 1400 
z
" transform="scale(0.015625)"/>
       <path id="FangSong-6e" d="M 175 0 
L 175 150 
L 300 150 
Q 425 150 475 200 
Q 525 250 525 350 
L 525 2500 
Q 525 2575 500 2612 
Q 475 2650 400 2650 
L 200 2650 
L 200 2800 
L 375 2800 
Q 500 2800 612 2825 
Q 725 2850 825 2925 
L 875 2925 
L 875 2350 
Q 1100 2600 1325 2725 
Q 1550 2850 1800 2850 
Q 2225 2850 2425 2625 
Q 2625 2400 2625 1950 
L 2625 350 
Q 2625 250 2687 200 
Q 2750 150 2850 150 
L 2975 150 
L 2975 0 
L 1925 0 
L 1925 150 
L 2050 150 
Q 2175 150 2225 200 
Q 2275 250 2275 350 
L 2275 2025 
Q 2275 2325 2150 2487 
Q 2025 2650 1775 2650 
Q 1550 2650 1312 2500 
Q 1075 2350 875 2075 
L 875 350 
Q 875 250 937 200 
Q 1000 150 1100 150 
L 1225 150 
L 1225 0 
L 175 0 
z
" transform="scale(0.015625)"/>
       <path id="FangSong-63" d="M 2125 2125 
Q 2125 2200 2137 2225 
Q 2150 2250 2175 2325 
Q 2200 2425 2075 2562 
Q 1950 2700 1650 2700 
Q 1275 2700 1012 2337 
Q 750 1975 750 1375 
Q 750 825 975 487 
Q 1200 150 1725 150 
Q 2075 150 2312 375 
Q 2550 600 2650 900 
L 2775 850 
Q 2675 475 2400 212 
Q 2125 -50 1650 -50 
Q 1050 -50 700 325 
Q 350 700 350 1400 
Q 350 2025 725 2437 
Q 1100 2850 1700 2850 
Q 2125 2850 2362 2625 
Q 2600 2400 2600 2175 
Q 2600 2025 2537 1962 
Q 2475 1900 2350 1900 
Q 2250 1900 2187 1962 
Q 2125 2025 2125 2125 
z
" transform="scale(0.015625)"/>
       <path id="FangSong-79" d="M 1625 700 
L 1675 700 
L 2225 2375 
Q 2275 2500 2212 2575 
Q 2150 2650 2050 2650 
L 1900 2650 
L 1900 2800 
L 2950 2800 
L 2950 2650 
L 2800 2650 
Q 2700 2650 2600 2575 
Q 2500 2500 2450 2375 
L 1600 -100 
Q 1475 -500 1287 -712 
Q 1100 -925 800 -950 
Q 650 -950 537 -875 
Q 425 -800 425 -675 
Q 425 -575 487 -500 
Q 550 -425 675 -425 
Q 775 -425 837 -525 
Q 900 -625 1050 -587 
Q 1200 -550 1250 -425 
Q 1300 -350 1375 -162 
Q 1450 25 1500 225 
L 650 2425 
Q 625 2525 537 2587 
Q 450 2650 350 2650 
L 250 2650 
L 250 2800 
L 1300 2800 
L 1300 2650 
L 1200 2650 
Q 1100 2650 1050 2587 
Q 1000 2525 1025 2400 
L 1625 700 
z
" transform="scale(0.015625)"/>
      </defs>
      <use xlink:href="#FangSong-4c"/>
      <use xlink:href="#FangSong-61" x="50"/>
      <use xlink:href="#FangSong-74" x="100"/>
      <use xlink:href="#FangSong-65" x="150"/>
      <use xlink:href="#FangSong-6e" x="200"/>
      <use xlink:href="#FangSong-63" x="250"/>
      <use xlink:href="#FangSong-79" x="300"/>
     </g>
    </g>
   </g>
   <g id="matplotlib.axis_2">
    <g id="ytick_1">
     <g id="line2d_7">
      <defs>
       <path id="m8efdfaa7d3" d="M 0 0 
L -3.5 0 
" style="stroke: #000000; stroke-width: 0.8"/>
      </defs>
      <g>
       <use xlink:href="#m8efdfaa7d3" x="57.6" y="295.488" style="stroke: #000000; stroke-width: 0.8"/>
      </g>
     </g>
     <g id="text_8">
      <!-- 0% -->
      <g transform="translate(40.6 298.984094) scale(0.1 -0.1)">
       <defs>
        <path id="FangSong-25" d="M 725 4150 
Q 575 4150 475 3950 
Q 375 3750 375 3200 
Q 375 2575 487 2387 
Q 600 2200 725 2200 
Q 900 2200 987 2425 
Q 1075 2650 1075 3200 
Q 1075 3650 1012 3900 
Q 950 4150 725 4150 
z
M 1400 3175 
Q 1400 2725 1250 2387 
Q 1100 2050 725 2050 
Q 425 2050 237 2350 
Q 50 2650 50 3175 
Q 50 3725 250 4025 
Q 450 4325 725 4325 
Q 1025 4325 1212 4012 
Q 1400 3700 1400 3175 
z
M 2700 1100 
Q 2700 1525 2625 1800 
Q 2550 2075 2350 2075 
Q 2200 2075 2100 1837 
Q 2000 1600 2000 1100 
Q 2000 475 2112 300 
Q 2225 125 2350 125 
Q 2525 125 2612 337 
Q 2700 550 2700 1100 
z
M 3025 1075 
Q 3025 575 2850 262 
Q 2675 -50 2350 -50 
Q 2075 -50 1875 262 
Q 1675 575 1675 1075 
Q 1675 1625 1875 1937 
Q 2075 2250 2350 2250 
Q 2650 2250 2837 1925 
Q 3025 1600 3025 1075 
z
M 2500 4250 
L 700 -50 
L 550 25 
L 2325 4325 
L 2500 4250 
z
" transform="scale(0.015625)"/>
       </defs>
       <use xlink:href="#FangSong-30"/>
       <use xlink:href="#FangSong-25" x="50"/>
      </g>
     </g>
    </g>
    <g id="ytick_2">
     <g id="line2d_8">
      <g>
       <use xlink:href="#m8efdfaa7d3" x="57.6" y="247.104" style="stroke: #000000; stroke-width: 0.8"/>
      </g>
     </g>
     <g id="text_9">
      <!-- 20% -->
      <g transform="translate(35.6 250.600094) scale(0.1 -0.1)">
       <use xlink:href="#FangSong-32"/>
       <use xlink:href="#FangSong-30" x="50"/>
       <use xlink:href="#FangSong-25" x="100"/>
      </g>
     </g>
    </g>
    <g id="ytick_3">
     <g id="line2d_9">
      <g>
       <use xlink:href="#m8efdfaa7d3" x="57.6" y="198.72" style="stroke: #000000; stroke-width: 0.8"/>
      </g>
     </g>
     <g id="text_10">
      <!-- 40% -->
      <g transform="translate(35.6 202.216094) scale(0.1 -0.1)">
       <use xlink:href="#FangSong-34"/>
       <use xlink:href="#FangSong-30" x="50"/>
       <use xlink:href="#FangSong-25" x="100"/>
      </g>
     </g>
    </g>
    <g id="ytick_4">
     <g id="line2d_10">
      <g>
       <use xlink:href="#m8efdfaa7d3" x="57.6" y="150.336" style="stroke: #000000; stroke-width: 0.8"/>
      </g>
     </g>
     <g id="text_11">
      <!-- 60% -->
      <g transform="translate(35.6 153.832094) scale(0.1 -0.1)">
       <defs>
        <path id="FangSong-36" d="M 750 1700 
Q 750 950 1012 537 
Q 1275 125 1650 125 
Q 2025 125 2225 400 
Q 2425 675 2425 1425 
Q 2425 1925 2212 2200 
Q 2000 2475 1700 2475 
Q 1425 2475 1187 2312 
Q 950 2150 750 1700 
z
M 1725 2725 
Q 2325 2725 2587 2325 
Q 2850 1925 2850 1425 
Q 2850 675 2487 312 
Q 2125 -50 1650 -50 
Q 975 -50 625 462 
Q 275 975 275 1950 
Q 275 3100 700 3712 
Q 1125 4325 1850 4325 
Q 2200 4325 2412 4125 
Q 2625 3925 2625 3775 
Q 2625 3625 2562 3550 
Q 2500 3475 2350 3475 
Q 2225 3475 2162 3537 
Q 2100 3600 2100 3725 
Q 2100 3775 2112 3825 
Q 2125 3875 2125 3925 
Q 2125 4025 2050 4087 
Q 1975 4150 1775 4150 
Q 1350 4150 1050 3762 
Q 750 3375 750 2075 
Q 900 2400 1162 2562 
Q 1425 2725 1725 2725 
z
" transform="scale(0.015625)"/>
       </defs>
       <use xlink:href="#FangSong-36"/>
       <use xlink:href="#FangSong-30" x="50"/>
       <use xlink:href="#FangSong-25" x="100"/>
      </g>
     </g>
    </g>
    <g id="ytick_5">
     <g id="line2d_11">
      <g>
       <use xlink:href="#m8efdfaa7d3" x="57.6" y="101.952" style="stroke: #000000; stroke-width: 0.8"/>
      </g>
     </g>
     <g id="text_12">
      <!-- 80% -->
      <g transform="translate(35.6 105.448094) scale(0.1 -0.1)">
       <defs>
        <path id="FangSong-38" d="M 600 1025 
Q 600 625 862 375 
Q 1125 125 1525 125 
Q 2000 125 2212 375 
Q 2425 625 2425 1000 
Q 2425 1325 2125 1625 
Q 1825 1925 1225 2175 
Q 925 1975 762 1675 
Q 600 1375 600 1025 
z
M 2800 1075 
Q 2800 600 2450 275 
Q 2100 -50 1525 -50 
Q 1000 -50 625 275 
Q 250 600 250 1025 
Q 250 1450 462 1750 
Q 675 2050 1075 2275 
Q 725 2450 537 2712 
Q 350 2975 350 3300 
Q 350 3725 675 4025 
Q 1000 4325 1575 4325 
Q 2100 4325 2425 4025 
Q 2750 3725 2750 3300 
Q 2750 3000 2562 2737 
Q 2375 2475 1975 2275 
Q 2400 2025 2600 1725 
Q 2800 1425 2800 1075 
z
M 2400 3275 
Q 2400 3625 2200 3887 
Q 2000 4150 1575 4150 
Q 1100 4150 900 3900 
Q 700 3650 700 3375 
Q 700 3100 987 2837 
Q 1275 2575 1800 2375 
Q 2100 2525 2250 2750 
Q 2400 2975 2400 3275 
z
" transform="scale(0.015625)"/>
       </defs>
       <use xlink:href="#FangSong-38"/>
       <use xlink:href="#FangSong-30" x="50"/>
       <use xlink:href="#FangSong-25" x="100"/>
      </g>
     </g>
    </g>
    <g id="ytick_6">
     <g id="line2d_12">
      <g>
       <use xlink:href="#m8efdfaa7d3" x="57.6" y="53.568" style="stroke: #000000; stroke-width: 0.8"/>
      </g>
     </g>
     <g id="text_13">
      <!-- 100% -->
      <g transform="translate(30.6 57.064094) scale(0.1 -0.1)">
       <use xlink:href="#FangSong-31"/>
       <use xlink:href="#FangSong-30" x="50"/>
       <use xlink:href="#FangSong-30" x="100"/>
       <use xlink:href="#FangSong-25" x="150"/>
      </g>
     </g>
    </g>
    <g id="text_14">
     <!-- 累计完成比例 -->
     <g transform="translate(25.154688 204.528) rotate(-90) scale(0.1 -0.1)">
      <defs>
       <path id="FangSong-7d2f" d="M 4525 4975 
L 4700 5225 
L 5000 4950 
L 4825 4775 
L 4625 3550 
L 4850 3300 
L 3175 3150 
L 3375 2975 
Q 3200 2925 2862 2725 
Q 2525 2525 2075 2275 
L 3475 2500 
Q 3750 2675 3900 2800 
Q 4050 2925 4100 3075 
L 4175 3100 
L 4325 2700 
Q 4200 2675 3500 2237 
Q 2800 1800 2275 1550 
L 4375 1825 
L 3900 2175 
L 4000 2275 
Q 4625 1900 4950 1725 
Q 4975 1475 4925 1225 
Q 4800 1375 4500 1675 
L 3250 1475 
L 3525 1300 
Q 3375 1200 3375 875 
L 3375 25 
Q 3375 -325 3225 -625 
Q 2975 -325 2400 150 
L 2450 250 
L 3050 -75 
Q 3150 -125 3150 0 
L 3150 925 
Q 3150 1300 3125 1450 
Q 1875 1275 1575 1175 
L 1325 1425 
L 1850 1550 
Q 2175 1700 3250 2300 
Q 2075 2100 1875 2000 
L 1575 2250 
L 1800 2300 
Q 2150 2475 3025 3125 
L 2000 3025 
Q 2000 2675 1950 2700 
Q 1900 2725 1650 3025 
Q 1725 3250 1725 3425 
L 1650 4400 
Q 1625 4675 1525 4950 
L 1625 5000 
L 1875 4675 
L 4525 4975 
z
M 3150 3375 
L 3150 3875 
Q 2525 3800 2400 3725 
L 2100 3975 
Q 2500 3975 3150 4075 
L 3150 4600 
L 1900 4450 
L 1975 3250 
L 3150 3375 
z
M 3375 4100 
Q 3950 4175 4025 4225 
L 4275 4000 
Q 3950 3975 3375 3900 
L 3375 3400 
L 4400 3500 
L 4575 4750 
L 3375 4600 
L 3375 4100 
z
M 5450 -75 
Q 4975 325 3875 1025 
L 3950 1125 
Q 4850 700 5350 500 
Q 5425 250 5450 -75 
z
M 800 -250 
Q 1350 75 1825 500 
Q 2300 925 2325 1125 
L 2400 1150 
L 2550 725 
Q 2425 700 2075 425 
Q 1725 150 875 -350 
L 800 -250 
z
" transform="scale(0.015625)"/>
       <path id="FangSong-8ba1" d="M 4075 4200 
Q 4100 4825 3900 5100 
L 3975 5150 
L 4450 4725 
Q 4275 4600 4300 4200 
L 4275 3000 
Q 5525 3200 5575 3250 
L 5950 2950 
Q 5725 2975 4275 2800 
L 4250 -425 
Q 4250 -700 4150 -575 
L 3875 -150 
Q 4050 50 4025 300 
L 4050 2750 
Q 2975 2625 2900 2575 
L 2525 2825 
Q 2850 2825 4050 2975 
L 4075 4200 
z
M 1775 3250 
L 2100 2950 
L 1900 2750 
L 1875 550 
L 2825 1250 
L 2875 1175 
Q 1875 250 1750 -25 
L 1525 275 
Q 1625 375 1650 625 
L 1675 2775 
Q 900 2625 750 2550 
L 425 2800 
Q 850 2825 1650 3000 
L 1775 3250 
z
M 2025 3800 
Q 1825 4300 1325 4950 
L 1375 5025 
Q 1925 4575 2175 4300 
Q 2125 4000 2025 3800 
z
" transform="scale(0.015625)"/>
       <path id="FangSong-5b8c" d="M 5375 2050 
Q 4925 2050 3550 1950 
L 3850 1750 
Q 3725 1600 3700 1375 
L 3675 275 
Q 3650 -125 4075 -175 
L 4925 -175 
Q 5300 -150 5312 62 
Q 5325 275 5325 1025 
L 5425 1025 
Q 5450 750 5475 337 
Q 5500 -75 5700 -275 
Q 5400 -375 5000 -400 
L 4075 -400 
Q 3425 -350 3425 150 
L 3475 1450 
Q 3475 1775 3425 1925 
L 2675 1850 
L 2875 1650 
Q 2750 1550 2600 1200 
Q 2450 850 2025 312 
Q 1600 -225 600 -675 
L 550 -575 
Q 1525 -100 1987 625 
Q 2450 1350 2525 1850 
Q 1550 1775 1500 1725 
L 1150 2025 
Q 1625 2025 3212 2150 
Q 4800 2275 5000 2350 
L 5375 2050 
z
M 1650 3650 
Q 1550 3125 1325 2875 
L 1150 3250 
Q 1450 3425 1575 4400 
L 1675 4400 
L 1675 3900 
L 5025 4150 
L 5175 4400 
L 5525 4075 
Q 5375 4050 4725 3250 
L 4650 3325 
L 4975 3900 
L 1650 3650 
z
M 4475 2975 
Q 4225 2975 3412 2875 
Q 2600 2775 2400 2725 
L 2050 2975 
Q 2575 2975 3200 3075 
Q 3825 3175 4150 3225 
L 4475 2975 
z
M 3550 4575 
Q 3475 4350 3300 4150 
Q 3225 4475 2900 5200 
L 2975 5250 
Q 3350 4825 3550 4575 
z
" transform="scale(0.015625)"/>
       <path id="FangSong-6210" d="M 5575 975 
Q 5600 -150 5750 -625 
Q 4650 -225 4000 1075 
Q 3625 650 2975 225 
L 2925 325 
Q 3525 825 3900 1300 
Q 3600 2275 3500 3300 
L 1875 3125 
Q 1875 2625 1825 2100 
L 2725 2250 
L 2875 2475 
L 3175 2225 
L 3000 2050 
Q 2850 475 2575 -125 
Q 2225 400 1825 775 
L 1875 850 
L 2475 400 
Q 2650 875 2750 2000 
L 1825 1850 
Q 1675 250 600 -650 
L 525 -600 
Q 1250 250 1425 987 
Q 1600 1725 1625 2612 
Q 1650 3500 1550 3800 
L 1625 3825 
L 1850 3350 
L 3450 3525 
Q 3400 4150 3375 4562 
Q 3350 4975 3225 5200 
L 3275 5225 
L 3725 4900 
Q 3625 4925 3637 4575 
Q 3650 4225 3675 3550 
Q 4900 3700 5050 3775 
L 5325 3475 
Q 4775 3475 3725 3325 
Q 3775 2425 4075 1525 
Q 4500 2025 4687 2325 
Q 4875 2625 4800 2850 
L 4875 2875 
L 5125 2325 
Q 5075 2400 4850 2125 
Q 4625 1850 4150 1275 
Q 4625 225 5425 -125 
L 5475 975 
L 5575 975 
z
M 4100 5000 
Q 4525 4700 4875 4450 
Q 4825 4250 4750 4025 
Q 4400 4525 4025 4950 
L 4100 5000 
z
" transform="scale(0.015625)"/>
       <path id="FangSong-6bd4" d="M 3500 2125 
Q 3925 2425 4487 2975 
Q 5050 3525 4950 3750 
L 5025 3775 
L 5250 3225 
Q 5175 3250 4875 3000 
Q 4575 2750 4287 2525 
Q 4000 2300 3500 1900 
L 3500 575 
Q 3475 -100 4150 -100 
L 4800 -100 
Q 5275 -100 5375 12 
Q 5475 125 5450 1350 
L 5575 1350 
Q 5600 825 5637 412 
Q 5675 0 5800 -175 
Q 5375 -325 4800 -325 
L 4150 -325 
Q 3225 -350 3275 550 
L 3275 4300 
Q 3275 4875 3150 5150 
L 3200 5200 
L 3625 4850 
Q 3475 4825 3500 4250 
L 3500 2125 
z
M 1500 2575 
Q 1900 2625 2337 2712 
Q 2775 2800 2800 2850 
L 3075 2600 
Q 2875 2575 2350 2475 
Q 1825 2375 1775 2325 
L 1500 2525 
L 1500 150 
L 2925 1075 
L 2975 1025 
Q 1550 -75 1375 -350 
L 1200 0 
Q 1275 75 1275 350 
L 1275 3925 
Q 1275 4475 1150 4750 
L 1200 4800 
L 1625 4400 
Q 1475 4375 1500 3925 
L 1500 2575 
z
" transform="scale(0.015625)"/>
       <path id="FangSong-4f8b" d="M 3050 2000 
Q 3025 1800 2975 1600 
Q 2775 1900 2525 2250 
Q 2300 1875 2025 1550 
L 1925 1625 
Q 2675 2725 2975 3975 
Q 2475 3925 2375 3875 
L 2050 4125 
Q 2375 4125 3162 4225 
Q 3950 4325 4100 4450 
L 4350 4125 
Q 4050 4150 3100 3975 
L 3300 3700 
Q 3200 3675 3125 3525 
Q 3050 3375 2925 3050 
L 3625 3150 
L 3775 3350 
L 4050 3075 
L 3875 2900 
Q 3300 825 1850 -225 
L 1800 -100 
Q 3100 975 3625 2900 
Q 3150 2825 3025 2775 
L 2875 2925 
Q 2775 2675 2575 2350 
Q 2900 2125 3050 2000 
z
M 1275 -150 
Q 1425 25 1400 225 
L 1450 3425 
Q 1025 2800 475 2225 
L 400 2325 
Q 875 2850 1450 3887 
Q 2025 4925 1925 5150 
L 2000 5175 
L 2250 4700 
Q 2200 4725 2062 4475 
Q 1925 4225 1675 3800 
L 1625 -325 
Q 1650 -675 1525 -600 
L 1275 -150 
z
M 5475 250 
Q 5475 -300 5300 -650 
Q 4900 -100 4300 375 
L 4350 475 
L 5200 -75 
Q 5250 250 5250 575 
L 5250 4350 
Q 5275 4950 5100 5150 
L 5175 5225 
L 5600 4850 
Q 5450 4775 5475 4325 
L 5475 250 
z
M 4300 1525 
Q 4400 1650 4400 1900 
L 4400 3075 
Q 4425 3525 4300 3750 
L 4350 3800 
L 4725 3450 
Q 4600 3350 4625 3025 
L 4625 1375 
Q 4625 1050 4550 1125 
L 4300 1525 
z
" transform="scale(0.015625)"/>
      </defs>
      <use xlink:href="#FangSong-7d2f"/>
      <use xlink:href="#FangSong-8ba1" x="100"/>
      <use xlink:href="#FangSong-5b8c" x="200"/>
      <use xlink:href="#FangSong-6210" x="300"/>
      <use xlink:href="#FangSong-6bd4" x="400"/>
      <use xlink:href="#FangSong-4f8b" x="500"/>
     </g>
    </g>
   </g>
   <g id="line2d_13">
    <path d="M 73.832727 295.488 
L 74.464351 219.04128 
L 75.095975 218.31552 
L 76.359222 218.31552 
L 76.990845 217.83168 
L 77.622469 217.10592 
L 79.51734 217.10592 
L 80.780587 215.6544 
L 82.675458 214.92864 
L 84.570329 213.47712 
L 85.201953 213.2352 
L 88.360071 209.6064 
L 88.991694 209.36448 
L 89.623318 209.36448 
L 90.886565 207.91296 
L 91.518189 207.42912 
L 92.149813 206.46144 
L 92.781436 206.46144 
L 93.41306 205.9776 
L 94.044683 205.25184 
L 94.676307 203.5584 
L 95.307931 202.83264 
L 95.939554 202.3488 
L 96.571178 201.38112 
L 97.202802 201.1392 
L 97.834425 200.41344 
L 98.466049 198.47808 
L 99.097672 198.23616 
L 99.729296 197.5104 
L 100.36092 195.57504 
L 100.992543 195.33312 
L 102.887414 193.8816 
L 103.519038 192.91392 
L 104.150661 192.18816 
L 104.782285 190.97856 
L 106.677156 189.52704 
L 107.30878 189.28512 
L 107.940403 188.31744 
L 108.572027 187.8336 
L 109.203651 187.10784 
L 109.835274 186.14016 
L 110.466898 184.93056 
L 111.098521 184.2048 
L 111.730145 183.96288 
L 112.361769 182.75328 
L 112.993392 181.7856 
L 113.625016 180.576 
L 114.25664 179.60832 
L 115.519887 176.9472 
L 116.15151 174.76992 
L 116.783134 173.56032 
L 117.414758 171.86688 
L 118.678005 170.8992 
L 119.309629 169.93152 
L 119.941252 169.93152 
L 120.572876 168.72192 
L 121.836123 165.09312 
L 122.467747 164.8512 
L 123.09937 164.36736 
L 124.362618 162.432 
L 124.994241 160.73856 
L 125.625865 159.52896 
L 126.257489 158.8032 
L 127.520736 154.93248 
L 128.152359 154.69056 
L 128.783983 153.9648 
L 129.415607 152.51328 
L 130.04723 151.5456 
L 130.678854 151.5456 
L 131.310478 150.81984 
L 132.573725 148.15872 
L 133.836972 146.7072 
L 134.468596 146.7072 
L 135.100219 145.98144 
L 135.731843 145.73952 
L 136.363467 145.01376 
L 136.99509 144.04608 
L 138.258337 143.0784 
L 138.889961 143.0784 
L 140.153208 141.14304 
L 140.784832 140.41728 
L 142.048079 139.93344 
L 142.679703 139.4496 
L 143.311326 139.20768 
L 143.94295 138.48192 
L 145.206197 137.51424 
L 146.469445 137.0304 
L 147.732692 136.06272 
L 148.364316 134.6112 
L 148.995939 134.12736 
L 149.627563 133.88544 
L 150.259186 133.15968 
L 150.89081 131.95008 
L 151.522434 131.70816 
L 152.154057 131.22432 
L 153.417305 129.7728 
L 154.048928 129.28896 
L 154.680552 128.07936 
L 155.312175 127.11168 
L 156.575423 126.144 
L 157.207046 125.41824 
L 157.83867 124.9344 
L 158.470294 124.9344 
L 159.101917 124.45056 
L 160.365164 122.99904 
L 160.996788 121.78944 
L 161.628412 120.82176 
L 162.260035 120.33792 
L 162.891659 119.37024 
L 163.523283 118.64448 
L 164.154906 117.6768 
L 164.78653 116.95104 
L 165.418154 116.4672 
L 166.049777 115.2576 
L 166.681401 115.01568 
L 167.313024 113.56416 
L 167.944648 112.8384 
L 168.576272 112.59648 
L 169.839519 111.6288 
L 170.471143 111.6288 
L 171.73439 111.14496 
L 172.366013 110.66112 
L 172.997637 109.93536 
L 173.629261 109.69344 
L 174.260884 108.72576 
L 174.892508 108.24192 
L 175.524132 107.51616 
L 176.155755 107.51616 
L 176.787379 106.54848 
L 177.419002 106.30656 
L 178.050626 105.82272 
L 178.68225 104.85504 
L 180.577121 103.40352 
L 181.208744 102.19392 
L 182.471992 100.7424 
L 183.103615 99.77472 
L 183.735239 99.29088 
L 184.998486 97.83936 
L 185.63011 97.35552 
L 186.261733 96.38784 
L 186.893357 95.17824 
L 187.524981 94.6944 
L 188.156604 93.72672 
L 188.788228 93.24288 
L 189.419851 92.03328 
L 190.683099 91.0656 
L 191.314722 90.09792 
L 191.946346 89.61408 
L 193.209593 89.61408 
L 193.841217 89.37216 
L 194.47284 88.6464 
L 195.736088 88.6464 
L 196.367711 88.16256 
L 196.999335 87.4368 
L 197.630959 87.19488 
L 198.262582 87.19488 
L 198.894206 86.2272 
L 199.52583 85.74336 
L 200.789077 85.74336 
L 202.683948 85.0176 
L 203.315571 85.0176 
L 203.947195 84.77568 
L 205.842066 84.77568 
L 207.105313 84.29184 
L 208.36856 84.29184 
L 209.000184 84.04992 
L 209.631808 83.56608 
L 210.263431 83.56608 
L 210.895055 83.32416 
L 211.526678 83.32416 
L 212.158302 82.84032 
L 212.789926 82.5984 
L 214.053173 82.5984 
L 214.684797 82.35648 
L 216.579667 82.35648 
L 217.842915 81.3888 
L 218.474538 81.14688 
L 219.737786 80.1792 
L 220.369409 79.93728 
L 221.001033 79.93728 
L 221.632657 79.69536 
L 222.26428 79.69536 
L 222.895904 79.45344 
L 223.527527 78.9696 
L 224.159151 78.9696 
L 226.054022 77.51808 
L 226.685646 77.51808 
L 227.948893 77.03424 
L 228.580516 77.03424 
L 229.21214 76.79232 
L 229.843764 76.79232 
L 230.475387 76.5504 
L 231.738635 76.5504 
L 232.370258 76.30848 
L 233.001882 75.82464 
L 233.633505 75.58272 
L 234.265129 75.58272 
L 234.896753 75.3408 
L 236.791624 75.3408 
L 238.686495 74.61504 
L 241.844613 74.61504 
L 242.476236 74.37312 
L 243.10786 73.88928 
L 247.529225 73.88928 
L 248.160849 73.64736 
L 248.792473 73.64736 
L 249.424096 73.40544 
L 250.687343 73.40544 
L 251.318967 72.67968 
L 251.950591 72.43776 
L 253.213838 72.43776 
L 253.845462 72.19584 
L 255.108709 72.19584 
L 255.740333 71.95392 
L 257.00358 71.95392 
L 257.635203 71.712 
L 261.424945 71.712 
L 262.056569 71.22816 
L 265.214687 71.22816 
L 265.846311 70.74432 
L 267.109558 70.74432 
L 267.741181 70.5024 
L 268.372805 70.5024 
L 269.004429 70.26048 
L 271.530923 70.26048 
L 272.79417 69.77664 
L 274.057418 68.80896 
L 274.689041 68.80896 
L 275.952289 67.84128 
L 276.583912 67.84128 
L 277.215536 67.11552 
L 278.478783 66.63168 
L 279.110407 66.14784 
L 286.058267 66.14784 
L 286.68989 65.664 
L 287.321514 65.42208 
L 287.953138 65.42208 
L 288.584761 65.18016 
L 289.216385 64.69632 
L 289.848008 64.4544 
L 291.111256 64.4544 
L 291.742879 64.21248 
L 303.743728 64.21248 
L 304.375352 63.97056 
L 305.006976 63.97056 
L 305.638599 63.72864 
L 306.270223 63.72864 
L 306.901846 63.48672 
L 308.165094 63.48672 
L 309.428341 63.00288 
L 311.323212 63.00288 
L 311.954836 62.76096 
L 315.112954 62.76096 
L 315.744577 62.51904 
L 317.639448 62.51904 
L 318.902695 62.0352 
L 320.797566 62.0352 
L 321.42919 61.79328 
L 322.060814 61.30944 
L 323.324061 61.30944 
L 323.955684 61.06752 
L 324.587308 60.58368 
L 325.218932 60.34176 
L 325.850555 60.34176 
L 326.482179 60.09984 
L 328.37705 60.09984 
L 330.903544 59.13216 
L 331.535168 59.13216 
L 332.166792 58.89024 
L 332.798415 58.89024 
L 333.430039 58.64832 
L 334.693286 58.64832 
L 336.588157 57.92256 
L 337.219781 57.92256 
L 337.851404 57.43872 
L 338.483028 57.1968 
L 342.904393 57.1968 
L 343.536017 56.95488 
L 352.378748 56.95488 
L 353.010371 56.71296 
L 354.273619 56.71296 
L 354.905242 56.47104 
L 362.484726 56.47104 
L 363.116349 55.9872 
L 382.065058 55.9872 
L 382.696682 55.74528 
L 385.8548 55.74528 
L 386.486424 55.50336 
L 387.118047 55.01952 
L 387.749671 54.7776 
L 388.381295 54.7776 
L 389.012918 54.53568 
L 389.644542 54.53568 
L 390.907789 54.05184 
L 392.80266 54.05184 
L 393.434284 53.80992 
L 397.855649 53.80992 
L 398.487273 53.568 
L 398.487273 53.568 
" clip-path="url(#pf17f4fb6b3)" style="fill: none; stroke: #ff0000; stroke-linecap: square"/>
   </g>
   <g id="line2d_14">
    <path d="M 73.832727 295.488 
L 74.464351 213.568 
L 76.990845 213.568 
L 77.622469 212.288 
L 79.51734 212.288 
L 80.780587 207.168 
L 83.307082 207.168 
L 84.570329 204.608 
L 85.833576 204.608 
L 86.4652 203.328 
L 87.096823 203.328 
L 88.360071 198.208 
L 89.623318 198.208 
L 90.886565 193.088 
L 91.518189 191.808 
L 92.149813 189.248 
L 93.41306 189.248 
L 94.044683 187.968 
L 95.307931 187.968 
L 95.939554 186.688 
L 97.202802 186.688 
L 97.834425 185.408 
L 98.466049 182.848 
L 99.729296 182.848 
L 100.36092 179.008 
L 101.624167 179.008 
L 102.255791 177.728 
L 103.519038 177.728 
L 106.045532 172.608 
L 106.677156 172.608 
L 107.30878 171.328 
L 108.572027 171.328 
L 109.203651 170.048 
L 110.466898 170.048 
L 111.098521 168.768 
L 111.730145 168.768 
L 112.361769 166.208 
L 112.993392 166.208 
L 113.625016 164.928 
L 114.888263 164.928 
L 115.519887 162.368 
L 116.15151 162.368 
L 116.783134 159.808 
L 117.414758 158.528 
L 118.046381 158.528 
L 119.309629 155.968 
L 119.941252 155.968 
L 120.572876 154.688 
L 121.204499 152.128 
L 121.836123 150.848 
L 123.09937 150.848 
L 124.362618 148.288 
L 124.994241 144.448 
L 125.625865 143.168 
L 126.889112 138.048 
L 128.783983 138.048 
L 129.415607 135.488 
L 130.678854 135.488 
L 132.573725 131.648 
L 134.468596 131.648 
L 135.100219 129.088 
L 135.731843 129.088 
L 136.99509 126.528 
L 137.626714 123.968 
L 138.258337 122.688 
L 139.521585 122.688 
L 140.153208 121.408 
L 142.048079 121.408 
L 142.679703 120.128 
L 143.311326 120.128 
L 143.94295 118.848 
L 144.574574 116.288 
L 147.732692 116.288 
L 148.364316 115.008 
L 149.627563 115.008 
L 150.259186 113.728 
L 150.89081 109.888 
L 151.522434 108.608 
L 152.154057 108.608 
L 152.785681 106.048 
L 154.680552 106.048 
L 155.312175 103.488 
L 155.943799 102.208 
L 159.733541 102.208 
L 160.365164 100.928 
L 160.996788 100.928 
L 161.628412 99.648 
L 162.260035 99.648 
L 162.891659 98.368 
L 163.523283 98.368 
L 164.154906 97.088 
L 164.78653 97.088 
L 165.418154 95.808 
L 166.049777 93.248 
L 166.681401 91.968 
L 167.313024 86.848 
L 170.471143 86.848 
L 171.102766 85.568 
L 174.892508 85.568 
L 175.524132 84.288 
L 176.155755 84.288 
L 176.787379 83.008 
L 179.313873 83.008 
L 179.945497 81.728 
L 180.577121 81.728 
L 181.208744 80.448 
L 181.840368 80.448 
L 182.471992 77.888 
L 184.366862 77.888 
L 184.998486 76.608 
L 185.63011 76.608 
L 186.261733 74.048 
L 186.893357 72.768 
L 187.524981 72.768 
L 188.156604 71.488 
L 188.788228 71.488 
L 190.683099 67.648 
L 198.262582 67.648 
L 198.894206 66.368 
L 199.52583 63.808 
L 205.842066 63.808 
L 207.105313 61.248 
L 208.36856 61.248 
L 209.000184 59.968 
L 216.579667 59.968 
L 217.211291 58.688 
L 219.106162 58.688 
L 219.737786 57.408 
L 221.001033 57.408 
L 221.632657 56.128 
L 222.26428 56.128 
L 222.895904 54.848 
L 228.580516 54.848 
L 229.21214 53.568 
L 398.487273 53.568 
L 398.487273 53.568 
" clip-path="url(#pf17f4fb6b3)" style="fill: none; stroke-dasharray: 1.85,0.8; stroke-dashoffset: 0; stroke: #008000; stroke-width: 0.5"/>
   </g>
   <g id="line2d_15">
    <path d="M 73.832727 295.488 
L 74.464351 193.626947 
L 76.359222 193.626947 
L 77.622469 190.443789 
L 81.412211 190.443789 
L 82.043834 188.852211 
L 82.675458 188.852211 
L 83.307082 187.260632 
L 85.833576 187.260632 
L 86.4652 185.669053 
L 88.360071 185.669053 
L 88.991694 184.077474 
L 89.623318 184.077474 
L 90.254942 182.485895 
L 90.886565 182.485895 
L 91.518189 180.894316 
L 93.41306 180.894316 
L 94.044683 177.711158 
L 94.676307 171.344842 
L 95.307931 169.753263 
L 95.939554 169.753263 
L 96.571178 168.161684 
L 97.834425 168.161684 
L 99.729296 163.386947 
L 100.36092 160.203789 
L 102.255791 160.203789 
L 102.887414 158.612211 
L 103.519038 158.612211 
L 104.782285 155.429053 
L 107.30878 155.429053 
L 107.940403 152.245895 
L 114.25664 152.245895 
L 114.888263 149.062737 
L 115.519887 149.062737 
L 116.15151 147.471158 
L 116.783134 147.471158 
L 117.414758 145.879579 
L 118.678005 145.879579 
L 119.309629 144.288 
L 123.730994 144.288 
L 124.362618 142.696421 
L 124.994241 142.696421 
L 125.625865 141.104842 
L 126.257489 141.104842 
L 126.889112 136.330105 
L 127.520736 134.738526 
L 128.783983 134.738526 
L 130.04723 131.555368 
L 131.310478 131.555368 
L 131.942101 128.372211 
L 132.573725 128.372211 
L 133.205348 126.780632 
L 135.731843 126.780632 
L 136.99509 123.597474 
L 137.626714 123.597474 
L 138.258337 122.005895 
L 138.889961 122.005895 
L 140.153208 118.822737 
L 141.416456 118.822737 
L 142.048079 117.231158 
L 147.732692 117.231158 
L 148.995939 114.048 
L 153.417305 114.048 
L 154.048928 112.456421 
L 154.680552 109.273263 
L 155.312175 107.681684 
L 156.575423 107.681684 
L 157.207046 106.090105 
L 157.83867 102.906947 
L 159.733541 102.906947 
L 161.628412 98.132211 
L 162.260035 94.949053 
L 162.891659 93.357474 
L 164.78653 93.357474 
L 166.049777 90.174316 
L 173.629261 90.174316 
L 174.260884 88.582737 
L 179.945497 88.582737 
L 180.577121 85.399579 
L 183.103615 79.033263 
L 184.366862 79.033263 
L 184.998486 77.441684 
L 185.63011 77.441684 
L 186.893357 74.258526 
L 187.524981 74.258526 
L 188.156604 72.666947 
L 188.788228 72.666947 
L 189.419851 69.483789 
L 190.683099 69.483789 
L 191.314722 67.892211 
L 193.209593 67.892211 
L 193.841217 66.300632 
L 211.526678 66.300632 
L 212.158302 64.709053 
L 216.579667 64.709053 
L 218.474538 59.934316 
L 219.106162 59.934316 
L 219.737786 58.342737 
L 237.423247 58.342737 
L 238.054871 56.751158 
L 250.687343 56.751158 
L 251.318967 55.159579 
L 253.213838 55.159579 
L 253.845462 53.568 
L 398.487273 53.568 
L 398.487273 53.568 
" clip-path="url(#pf17f4fb6b3)" style="fill: none; stroke-dasharray: 1.85,0.8; stroke-dashoffset: 0; stroke: #0000ff; stroke-width: 0.5"/>
   </g>
   <g id="line2d_16">
    <path d="M 73.832727 295.488 
L 74.464351 213.254324 
L 79.51734 213.254324 
L 81.412211 210.385708 
L 82.675458 210.385708 
L 85.201953 206.560885 
L 85.833576 203.692269 
L 86.4652 203.692269 
L 87.096823 200.823652 
L 88.360071 198.911241 
L 90.254942 198.911241 
L 90.886565 197.955036 
L 91.518189 197.955036 
L 92.149813 196.042625 
L 92.781436 196.042625 
L 93.41306 194.130213 
L 94.044683 194.130213 
L 94.676307 191.261597 
L 95.307931 189.349186 
L 96.571178 189.349186 
L 97.202802 188.39298 
L 97.834425 186.480569 
L 98.466049 182.655747 
L 99.097672 182.655747 
L 100.36092 178.830925 
L 102.887414 175.006103 
L 103.519038 173.093692 
L 104.150661 172.137486 
L 104.782285 170.225075 
L 105.413909 170.225075 
L 106.045532 169.26887 
L 106.677156 167.356458 
L 107.940403 167.356458 
L 108.572027 166.400253 
L 109.203651 164.487842 
L 109.835274 161.619225 
L 110.466898 157.794403 
L 112.993392 153.969581 
L 113.625016 153.969581 
L 114.25664 152.05717 
L 114.888263 149.188553 
L 115.519887 149.188553 
L 116.15151 148.232348 
L 116.783134 146.319937 
L 117.414758 143.45132 
L 118.678005 143.45132 
L 119.309629 142.495115 
L 119.941252 142.495115 
L 121.204499 138.670292 
L 121.836123 135.801676 
L 122.467747 135.801676 
L 123.09937 134.84547 
L 123.730994 132.933059 
L 124.362618 131.976854 
L 124.994241 130.064443 
L 125.625865 129.108237 
L 126.257489 129.108237 
L 127.520736 125.283415 
L 128.783983 123.371004 
L 129.415607 123.371004 
L 130.04723 122.414798 
L 131.310478 122.414798 
L 131.942101 120.502387 
L 132.573725 117.633771 
L 133.836972 115.72136 
L 135.100219 115.72136 
L 135.731843 114.765154 
L 136.363467 114.765154 
L 136.99509 112.852743 
L 138.889961 112.852743 
L 140.784832 107.11551 
L 141.416456 106.159304 
L 142.048079 106.159304 
L 143.311326 104.246893 
L 143.94295 102.334482 
L 144.574574 102.334482 
L 145.206197 100.422071 
L 145.837821 100.422071 
L 147.101068 98.50966 
L 147.732692 98.50966 
L 148.995939 96.597249 
L 149.627563 96.597249 
L 150.259186 95.641043 
L 150.89081 93.728632 
L 151.522434 93.728632 
L 155.312175 87.991399 
L 155.943799 87.991399 
L 157.207046 86.078988 
L 158.470294 86.078988 
L 159.733541 84.166577 
L 160.365164 84.166577 
L 160.996788 82.254166 
L 161.628412 81.29796 
L 162.891659 81.29796 
L 163.523283 78.429344 
L 164.78653 76.516933 
L 165.418154 76.516933 
L 166.049777 75.560727 
L 166.681401 75.560727 
L 167.313024 73.648316 
L 167.944648 72.692111 
L 169.207895 72.692111 
L 169.839519 71.735905 
L 172.366013 71.735905 
L 173.629261 69.823494 
L 174.260884 67.911083 
L 174.892508 66.954877 
L 176.787379 66.954877 
L 177.419002 65.998672 
L 180.577121 65.998672 
L 181.208744 65.042466 
L 183.735239 65.042466 
L 184.366862 63.130055 
L 186.893357 63.130055 
L 187.524981 62.17385 
L 188.156604 62.17385 
L 188.788228 60.261439 
L 190.683099 60.261439 
L 191.314722 58.349028 
L 191.946346 57.392822 
L 193.841217 57.392822 
L 194.47284 56.436617 
L 195.736088 56.436617 
L 196.367711 55.480411 
L 198.262582 55.480411 
L 198.894206 54.524206 
L 201.4207 54.524206 
L 202.052324 53.568 
L 398.487273 53.568 
L 398.487273 53.568 
" clip-path="url(#pf17f4fb6b3)" style="fill: none; stroke-dasharray: 1.85,0.8; stroke-dashoffset: 0; stroke: #bf00bf; stroke-width: 0.5"/>
   </g>
   <g id="line2d_17">
    <path d="M 73.832727 295.488 
L 74.464351 212.950588 
L 75.095975 210.104471 
L 76.359222 210.104471 
L 77.622469 208.207059 
L 82.043834 208.207059 
L 82.675458 207.258353 
L 85.833576 207.258353 
L 86.4652 206.309647 
L 95.939554 206.309647 
L 96.571178 203.463529 
L 97.834425 203.463529 
L 98.466049 202.514824 
L 99.729296 202.514824 
L 100.36092 201.566118 
L 102.887414 201.566118 
L 103.519038 200.617412 
L 104.150661 200.617412 
L 104.782285 199.668706 
L 107.30878 199.668706 
L 107.940403 198.72 
L 109.835274 198.72 
L 111.098521 196.822588 
L 111.730145 196.822588 
L 112.361769 194.925176 
L 113.625016 189.232941 
L 114.25664 187.335529 
L 114.888263 186.386824 
L 115.519887 184.489412 
L 116.15151 178.797176 
L 118.678005 175.002353 
L 119.941252 175.002353 
L 120.572876 174.053647 
L 121.204499 172.156235 
L 122.467747 170.258824 
L 123.09937 170.258824 
L 124.994241 167.412706 
L 125.625865 165.515294 
L 126.889112 165.515294 
L 127.520736 163.617882 
L 128.152359 163.617882 
L 129.415607 159.823059 
L 130.04723 158.874353 
L 130.678854 158.874353 
L 131.310478 156.976941 
L 133.205348 154.130824 
L 133.836972 152.233412 
L 134.468596 152.233412 
L 135.100219 151.284706 
L 135.731843 151.284706 
L 136.363467 150.336 
L 138.889961 150.336 
L 139.521585 149.387294 
L 140.153208 149.387294 
L 140.784832 148.438588 
L 145.206197 148.438588 
L 145.837821 147.489882 
L 147.101068 147.489882 
L 148.364316 145.592471 
L 148.995939 145.592471 
L 149.627563 144.643765 
L 151.522434 144.643765 
L 152.154057 143.695059 
L 152.785681 143.695059 
L 153.417305 142.746353 
L 154.048928 142.746353 
L 154.680552 141.797647 
L 155.312175 141.797647 
L 157.207046 138.951529 
L 159.101917 138.951529 
L 159.733541 137.054118 
L 160.365164 136.105412 
L 160.996788 134.208 
L 161.628412 133.259294 
L 162.260035 133.259294 
L 162.891659 131.361882 
L 163.523283 131.361882 
L 164.154906 130.413176 
L 164.78653 128.515765 
L 167.313024 128.515765 
L 167.944648 126.618353 
L 168.576272 125.669647 
L 169.207895 123.772235 
L 171.102766 123.772235 
L 172.366013 121.874824 
L 172.997637 119.977412 
L 173.629261 119.977412 
L 174.892508 118.08 
L 175.524132 116.182588 
L 176.155755 116.182588 
L 176.787379 114.285176 
L 178.050626 114.285176 
L 179.313873 112.387765 
L 180.577121 112.387765 
L 181.208744 110.490353 
L 182.471992 110.490353 
L 183.103615 107.644235 
L 183.735239 105.746824 
L 184.998486 103.849412 
L 185.63011 101.952 
L 186.261733 101.952 
L 186.893357 99.105882 
L 187.524981 98.157176 
L 188.788228 98.157176 
L 189.419851 96.259765 
L 190.051475 96.259765 
L 190.683099 95.311059 
L 191.314722 95.311059 
L 191.946346 94.362353 
L 193.841217 94.362353 
L 194.47284 92.464941 
L 195.736088 92.464941 
L 196.367711 91.516235 
L 196.999335 89.618824 
L 197.630959 88.670118 
L 198.262582 88.670118 
L 198.894206 86.772706 
L 200.789077 86.772706 
L 201.4207 85.824 
L 202.052324 85.824 
L 202.683948 84.875294 
L 203.315571 84.875294 
L 203.947195 83.926588 
L 209.000184 83.926588 
L 209.631808 82.029176 
L 210.263431 82.029176 
L 210.895055 81.080471 
L 212.158302 81.080471 
L 212.789926 80.131765 
L 218.474538 80.131765 
L 219.106162 79.183059 
L 219.737786 79.183059 
L 220.369409 78.234353 
L 224.159151 78.234353 
L 225.422398 76.336941 
L 226.685646 76.336941 
L 227.948893 74.439529 
L 229.843764 74.439529 
L 230.475387 73.490824 
L 231.738635 73.490824 
L 233.633505 70.644706 
L 236.791624 70.644706 
L 237.423247 69.696 
L 241.844613 69.696 
L 242.476236 68.747294 
L 243.10786 66.849882 
L 247.529225 66.849882 
L 248.160849 65.901176 
L 250.687343 65.901176 
L 251.318967 64.003765 
L 251.950591 63.055059 
L 255.108709 63.055059 
L 255.740333 62.106353 
L 261.424945 62.106353 
L 262.056569 60.208941 
L 277.84716 60.208941 
L 278.478783 59.260235 
L 286.058267 59.260235 
L 287.321514 57.362824 
L 288.584761 57.362824 
L 289.216385 56.414118 
L 291.111256 56.414118 
L 291.742879 55.465412 
L 303.743728 55.465412 
L 304.375352 54.516706 
L 311.323212 54.516706 
L 311.954836 53.568 
L 398.487273 53.568 
L 398.487273 53.568 
" clip-path="url(#pf17f4fb6b3)" style="fill: none; stroke-dasharray: 1.85,0.8; stroke-dashoffset: 0; stroke: #bfbf00; stroke-width: 0.5"/>
   </g>
   <g id="line2d_18">
    <path d="M 73.832727 295.488 
L 74.464351 271.456212 
L 95.307931 271.456212 
L 95.939554 269.854093 
L 100.992543 269.854093 
L 101.624167 268.251974 
L 102.887414 268.251974 
L 103.519038 266.649854 
L 104.782285 266.649854 
L 105.413909 265.047735 
L 107.30878 265.047735 
L 108.572027 261.843497 
L 109.203651 261.843497 
L 109.835274 260.241377 
L 112.993392 260.241377 
L 113.625016 258.639258 
L 114.888263 258.639258 
L 116.15151 255.43502 
L 116.783134 255.43502 
L 118.046381 252.230781 
L 118.678005 252.230781 
L 119.309629 250.628662 
L 119.941252 250.628662 
L 121.204499 247.424424 
L 121.836123 242.618066 
L 122.467747 242.618066 
L 123.09937 241.015947 
L 124.362618 241.015947 
L 124.994241 239.413828 
L 125.625865 239.413828 
L 126.889112 236.209589 
L 127.520736 231.403232 
L 128.783983 231.403232 
L 130.04723 228.198993 
L 146.469445 228.198993 
L 147.732692 224.994755 
L 148.364316 221.790517 
L 149.627563 221.790517 
L 150.259186 220.188397 
L 152.785681 220.188397 
L 153.417305 218.586278 
L 154.048928 218.586278 
L 154.680552 216.984159 
L 158.470294 216.984159 
L 159.101917 215.38204 
L 163.523283 215.38204 
L 164.154906 213.779921 
L 165.418154 213.779921 
L 166.049777 212.177801 
L 169.207895 212.177801 
L 169.839519 210.575682 
L 171.73439 210.575682 
L 172.366013 208.973563 
L 176.155755 208.973563 
L 176.787379 207.371444 
L 177.419002 207.371444 
L 178.050626 204.167205 
L 178.68225 199.360848 
L 179.945497 196.156609 
L 181.208744 196.156609 
L 181.840368 192.952371 
L 185.63011 192.952371 
L 186.261733 191.350252 
L 187.524981 191.350252 
L 188.156604 188.146013 
L 189.419851 188.146013 
L 190.051475 186.543894 
L 190.683099 186.543894 
L 191.314722 184.941775 
L 196.367711 184.941775 
L 196.999335 183.339656 
L 211.526678 183.339656 
L 212.158302 181.737536 
L 214.053173 181.737536 
L 214.684797 180.135417 
L 217.211291 180.135417 
L 217.842915 178.533298 
L 218.474538 178.533298 
L 219.106162 176.931179 
L 222.895904 176.931179 
L 223.527527 173.72694 
L 224.159151 173.72694 
L 225.422398 170.522702 
L 226.054022 167.318464 
L 232.370258 167.318464 
L 233.001882 165.716344 
L 234.265129 165.716344 
L 234.896753 164.114225 
L 238.054871 164.114225 
L 238.686495 162.512106 
L 248.792473 162.512106 
L 249.424096 160.909987 
L 257.00358 160.909987 
L 257.635203 159.307868 
L 265.214687 159.307868 
L 265.846311 156.103629 
L 267.109558 156.103629 
L 267.741181 154.50151 
L 268.372805 154.50151 
L 269.004429 152.899391 
L 271.530923 152.899391 
L 272.79417 149.695152 
L 274.057418 143.286675 
L 274.689041 143.286675 
L 275.952289 136.878199 
L 276.583912 136.878199 
L 277.215536 132.071841 
L 277.84716 130.469722 
L 278.478783 130.469722 
L 279.110407 127.265483 
L 286.058267 127.265483 
L 286.68989 125.663364 
L 287.953138 125.663364 
L 289.848008 120.857007 
L 305.006976 120.857007 
L 305.638599 119.254887 
L 306.270223 119.254887 
L 306.901846 117.652768 
L 308.165094 117.652768 
L 309.428341 114.44853 
L 315.112954 114.44853 
L 315.744577 112.846411 
L 317.639448 112.846411 
L 318.902695 109.642172 
L 320.797566 109.642172 
L 321.42919 108.040053 
L 322.060814 104.835815 
L 323.324061 104.835815 
L 323.955684 103.233695 
L 324.587308 100.029457 
L 325.218932 98.427338 
L 325.850555 98.427338 
L 326.482179 96.825219 
L 328.37705 96.825219 
L 330.903544 90.416742 
L 331.535168 90.416742 
L 332.166792 88.814623 
L 332.798415 88.814623 
L 333.430039 87.212503 
L 334.693286 87.212503 
L 336.588157 82.406146 
L 337.219781 82.406146 
L 337.851404 79.201907 
L 338.483028 77.599788 
L 342.904393 77.599788 
L 343.536017 75.997669 
L 352.378748 75.997669 
L 353.010371 74.39555 
L 354.273619 74.39555 
L 354.905242 72.79343 
L 362.484726 72.79343 
L 363.116349 69.589192 
L 382.065058 69.589192 
L 382.696682 67.987073 
L 385.8548 67.987073 
L 386.486424 66.384954 
L 387.118047 63.180715 
L 387.749671 61.578596 
L 388.381295 61.578596 
L 389.012918 59.976477 
L 389.644542 59.976477 
L 390.907789 56.772238 
L 392.80266 56.772238 
L 393.434284 55.170119 
L 397.855649 55.170119 
L 398.487273 53.568 
L 398.487273 53.568 
" clip-path="url(#pf17f4fb6b3)" style="fill: none; stroke-dasharray: 1.85,0.8; stroke-dashoffset: 0; stroke: #000000; stroke-width: 0.5"/>
   </g>
   <g id="patch_3">
    <path d="M 57.6 307.584 
L 57.6 41.472 
" style="fill: none; stroke: #000000; stroke-width: 0.8; stroke-linejoin: miter; stroke-linecap: square"/>
   </g>
   <g id="patch_4">
    <path d="M 414.72 307.584 
L 414.72 41.472 
" style="fill: none; stroke: #000000; stroke-width: 0.8; stroke-linejoin: miter; stroke-linecap: square"/>
   </g>
   <g id="patch_5">
    <path d="M 57.6 307.584 
L 414.72 307.584 
" style="fill: none; stroke: #000000; stroke-width: 0.8; stroke-linejoin: miter; stroke-linecap: square"/>
   </g>
   <g id="patch_6">
    <path d="M 57.6 41.472 
L 414.72 41.472 
" style="fill: none; stroke: #000000; stroke-width: 0.8; stroke-linejoin: miter; stroke-linecap: square"/>
   </g>
   <g id="text_15">
    <!-- count=1000, googlenet=150, resnet50=112, squeezenetv1=187, vgg19=187, yolov2=112 -->
    <g transform="translate(-3.84 35.472) scale(0.12 -0.12)">
     <defs>
      <path id="FangSong-6f" d="M 2875 1400 
Q 2875 775 2500 362 
Q 2125 -50 1575 -50 
Q 1000 -50 637 375 
Q 275 800 275 1400 
Q 275 1950 637 2400 
Q 1000 2850 1575 2850 
Q 2175 2850 2525 2400 
Q 2875 1950 2875 1400 
z
M 675 1375 
Q 675 725 937 412 
Q 1200 100 1575 100 
Q 2000 100 2237 437 
Q 2475 775 2475 1375 
Q 2475 2025 2212 2362 
Q 1950 2700 1575 2700 
Q 1225 2700 950 2362 
Q 675 2025 675 1375 
z
" transform="scale(0.015625)"/>
      <path id="FangSong-75" d="M 1425 225 
Q 1725 225 1937 375 
Q 2150 525 2250 850 
L 2250 2425 
Q 2250 2525 2200 2587 
Q 2150 2650 2025 2650 
L 1875 2650 
L 1875 2800 
L 2025 2800 
Q 2175 2800 2300 2825 
Q 2425 2850 2550 2950 
L 2600 2950 
L 2600 500 
Q 2600 400 2662 350 
Q 2725 300 2825 300 
L 2975 300 
L 2975 150 
L 2825 150 
Q 2700 150 2575 112 
Q 2450 75 2300 0 
L 2250 0 
L 2250 525 
Q 2125 250 1875 112 
Q 1625 -25 1300 -25 
Q 900 -25 700 200 
Q 500 425 500 925 
L 500 2425 
Q 500 2525 450 2587 
Q 400 2650 275 2650 
L 125 2650 
L 125 2800 
L 275 2800 
Q 425 2800 550 2825 
Q 675 2850 800 2950 
L 850 2950 
L 850 875 
Q 850 525 1000 375 
Q 1150 225 1425 225 
z
" transform="scale(0.015625)"/>
      <path id="FangSong-3d" d="M 175 2725 
L 175 2950 
L 2950 2950 
L 2950 2725 
L 175 2725 
z
M 175 1450 
L 175 1675 
L 2950 1675 
L 2950 1450 
L 175 1450 
z
" transform="scale(0.015625)"/>
      <path id="FangSong-2c" d="M 1325 75 
Q 1200 25 1100 75 
Q 1000 125 962 237 
Q 925 350 925 437 
Q 925 525 987 612 
Q 1050 700 1150 737 
Q 1250 775 1425 725 
Q 1600 675 1650 500 
Q 1700 325 1662 150 
Q 1625 -25 1525 -200 
Q 1425 -375 1312 -475 
Q 1200 -575 1025 -675 
L 950 -575 
Q 1100 -450 1187 -312 
Q 1275 -175 1325 75 
z
" transform="scale(0.015625)"/>
      <path id="FangSong-20" transform="scale(0.015625)"/>
      <path id="FangSong-67" d="M 850 1875 
Q 850 1575 1025 1362 
Q 1200 1150 1500 1150 
Q 1825 1150 1987 1337 
Q 2150 1525 2150 1875 
Q 2150 2300 1962 2487 
Q 1775 2675 1500 2675 
Q 1225 2675 1037 2487 
Q 850 2300 850 1875 
z
M 2075 525 
Q 2450 475 2625 312 
Q 2800 150 2800 -125 
Q 2800 -500 2487 -725 
Q 2175 -950 1500 -950 
Q 975 -950 650 -737 
Q 325 -525 325 -250 
Q 325 -75 450 100 
Q 575 275 850 375 
Q 700 450 612 537 
Q 525 625 525 750 
Q 525 900 625 1012 
Q 725 1125 875 1200 
Q 725 1325 612 1500 
Q 500 1675 500 1875 
Q 500 2250 762 2537 
Q 1025 2825 1500 2825 
Q 1700 2825 1887 2775 
Q 2075 2725 2200 2600 
Q 2375 2725 2512 2787 
Q 2650 2850 2750 2850 
Q 2875 2850 2925 2762 
Q 2975 2675 2975 2600 
Q 2975 2500 2937 2437 
Q 2900 2375 2800 2375 
Q 2725 2375 2675 2412 
Q 2625 2450 2600 2525 
Q 2575 2600 2487 2587 
Q 2400 2575 2300 2500 
Q 2400 2400 2450 2225 
Q 2500 2050 2500 1875 
Q 2500 1575 2262 1287 
Q 2025 1000 1500 1000 
Q 1350 1000 1225 1037 
Q 1100 1075 1025 1125 
Q 925 1075 875 1000 
Q 825 925 825 875 
Q 825 775 875 725 
Q 925 675 1025 675 
Q 1350 625 1612 587 
Q 1875 550 2075 525 
z
M 1050 325 
Q 825 225 737 87 
Q 650 -50 650 -250 
Q 650 -450 875 -625 
Q 1100 -800 1550 -800 
Q 1975 -800 2225 -662 
Q 2475 -525 2475 -250 
Q 2475 -75 2412 25 
Q 2350 125 2225 150 
Q 1975 200 1675 237 
Q 1375 275 1050 325 
z
" transform="scale(0.015625)"/>
      <path id="FangSong-6c" d="M 900 4275 
Q 1125 4275 1325 4325 
Q 1525 4375 1700 4475 
L 1750 4475 
L 1750 350 
Q 1750 250 1812 200 
Q 1875 150 1975 150 
L 2550 150 
L 2550 0 
L 600 0 
L 600 150 
L 1175 150 
Q 1300 150 1350 200 
Q 1400 250 1400 350 
L 1400 3925 
Q 1400 4025 1350 4075 
Q 1300 4125 1175 4125 
L 625 4125 
L 625 4275 
L 900 4275 
z
" transform="scale(0.015625)"/>
      <path id="FangSong-72" d="M 1250 2025 
Q 1500 2425 1787 2637 
Q 2075 2850 2375 2850 
Q 2625 2850 2762 2737 
Q 2900 2625 2900 2475 
Q 2900 2350 2837 2275 
Q 2775 2200 2650 2200 
Q 2525 2200 2462 2275 
Q 2400 2350 2425 2475 
Q 2425 2550 2400 2600 
Q 2375 2650 2250 2650 
Q 2050 2650 1762 2400 
Q 1475 2150 1250 1700 
L 1250 350 
Q 1250 250 1312 200 
Q 1375 150 1475 150 
L 2025 150 
L 2025 0 
L 175 0 
L 175 150 
L 675 150 
Q 800 150 850 200 
Q 900 250 900 350 
L 900 2425 
Q 900 2525 850 2587 
Q 800 2650 675 2650 
L 200 2650 
L 200 2800 
L 400 2800 
Q 575 2800 812 2837 
Q 1050 2875 1175 2925 
L 1250 2925 
L 1250 2025 
z
" transform="scale(0.015625)"/>
      <path id="FangSong-73" d="M 600 2075 
Q 600 2450 887 2650 
Q 1175 2850 1575 2850 
Q 1800 2850 2000 2787 
Q 2200 2725 2275 2725 
Q 2350 2725 2400 2750 
Q 2450 2775 2525 2850 
L 2625 2025 
L 2475 2000 
Q 2375 2325 2137 2512 
Q 1900 2700 1600 2700 
Q 1275 2700 1087 2575 
Q 900 2450 900 2225 
Q 900 2025 987 1912 
Q 1075 1800 1300 1750 
Q 1475 1675 1737 1587 
Q 2000 1500 2225 1400 
Q 2425 1300 2562 1137 
Q 2700 975 2700 775 
Q 2700 400 2437 187 
Q 2175 -25 1675 -25 
Q 1350 -25 1187 37 
Q 1025 100 925 100 
Q 850 100 762 62 
Q 675 25 575 -25 
L 500 900 
L 650 925 
Q 725 525 975 325 
Q 1225 125 1675 125 
Q 2025 125 2212 250 
Q 2400 375 2400 625 
Q 2400 800 2300 912 
Q 2200 1025 2100 1075 
Q 1850 1175 1550 1287 
Q 1250 1400 1025 1500 
Q 800 1600 700 1750 
Q 600 1900 600 2075 
z
" transform="scale(0.015625)"/>
      <path id="FangSong-71" d="M 2250 2150 
Q 2150 2375 1975 2512 
Q 1800 2650 1550 2650 
Q 1200 2650 950 2350 
Q 700 2050 700 1325 
Q 700 700 912 437 
Q 1125 175 1450 175 
Q 1725 175 1937 300 
Q 2150 425 2250 725 
L 2250 2150 
z
M 2600 -550 
Q 2600 -675 2662 -725 
Q 2725 -775 2825 -775 
L 2975 -775 
L 2975 -925 
L 1825 -925 
L 1825 -775 
L 2025 -775 
Q 2150 -775 2200 -725 
Q 2250 -675 2250 -550 
L 2250 375 
Q 2100 175 1887 75 
Q 1675 -25 1375 -25 
Q 950 -25 625 337 
Q 300 700 300 1400 
Q 300 2075 675 2450 
Q 1050 2825 1475 2825 
Q 1750 2825 1937 2725 
Q 2125 2625 2275 2475 
L 2500 2800 
L 2600 2800 
L 2600 -550 
z
" transform="scale(0.015625)"/>
      <path id="FangSong-7a" d="M 2725 975 
L 2550 0 
L 400 0 
L 400 125 
L 2125 2650 
L 1200 2650 
Q 975 2650 825 2487 
Q 675 2325 575 1925 
L 425 1950 
L 525 2800 
L 2575 2800 
L 2575 2725 
L 825 150 
L 1775 150 
Q 2100 150 2287 350 
Q 2475 550 2575 1000 
L 2725 975 
z
" transform="scale(0.015625)"/>
      <path id="FangSong-76" d="M 1600 -25 
L 1450 -25 
L 600 2425 
Q 575 2525 500 2587 
Q 425 2650 325 2650 
L 200 2650 
L 200 2800 
L 1275 2800 
L 1275 2650 
L 1175 2650 
Q 1025 2650 987 2575 
Q 950 2500 1000 2325 
L 1600 575 
L 1650 575 
L 2250 2300 
Q 2325 2475 2262 2562 
Q 2200 2650 2050 2650 
L 2000 2650 
L 2000 2800 
L 2900 2800 
L 2900 2650 
L 2850 2650 
Q 2700 2650 2612 2562 
Q 2525 2475 2450 2300 
L 1600 -25 
z
" transform="scale(0.015625)"/>
      <path id="FangSong-37" d="M 2800 4100 
Q 2275 3250 1962 2437 
Q 1650 1625 1650 1025 
Q 1650 925 1662 737 
Q 1675 550 1675 300 
Q 1675 100 1612 25 
Q 1550 -50 1400 -50 
Q 1275 -50 1187 37 
Q 1100 125 1100 350 
Q 1100 825 1312 1525 
Q 1525 2225 2450 3900 
L 1200 3900 
Q 925 3900 762 3725 
Q 600 3550 525 3200 
L 375 3225 
L 550 4275 
L 2800 4275 
L 2800 4100 
z
" transform="scale(0.015625)"/>
      <path id="FangSong-39" d="M 675 2950 
Q 675 2400 887 2112 
Q 1100 1825 1425 1825 
Q 1800 1825 2075 2175 
Q 2350 2525 2350 2825 
Q 2350 3425 2150 3787 
Q 1950 4150 1500 4150 
Q 1075 4150 875 3812 
Q 675 3475 675 2950 
z
M 1350 1600 
Q 850 1600 550 1912 
Q 250 2225 250 2925 
Q 250 3525 575 3925 
Q 900 4325 1500 4325 
Q 2125 4325 2475 3825 
Q 2825 3325 2825 2375 
Q 2825 1325 2412 637 
Q 2000 -50 1275 -50 
Q 950 -50 712 100 
Q 475 250 475 500 
Q 475 600 537 700 
Q 600 800 750 800 
Q 900 800 950 687 
Q 1000 575 1000 425 
Q 1000 325 1025 262 
Q 1050 200 1075 175 
Q 1100 150 1162 137 
Q 1225 125 1300 125 
Q 1750 125 2025 625 
Q 2300 1125 2350 2300 
Q 2225 2000 1975 1800 
Q 1725 1600 1350 1600 
z
" transform="scale(0.015625)"/>
     </defs>
     <use xlink:href="#FangSong-63"/>
     <use xlink:href="#FangSong-6f" x="50"/>
     <use xlink:href="#FangSong-75" x="100"/>
     <use xlink:href="#FangSong-6e" x="150"/>
     <use xlink:href="#FangSong-74" x="200"/>
     <use xlink:href="#FangSong-3d" x="250"/>
     <use xlink:href="#FangSong-31" x="300"/>
     <use xlink:href="#FangSong-30" x="350"/>
     <use xlink:href="#FangSong-30" x="400"/>
     <use xlink:href="#FangSong-30" x="450"/>
     <use xlink:href="#FangSong-2c" x="500"/>
     <use xlink:href="#FangSong-20" x="550"/>
     <use xlink:href="#FangSong-67" x="600"/>
     <use xlink:href="#FangSong-6f" x="650"/>
     <use xlink:href="#FangSong-6f" x="700"/>
     <use xlink:href="#FangSong-67" x="750"/>
     <use xlink:href="#FangSong-6c" x="800"/>
     <use xlink:href="#FangSong-65" x="850"/>
     <use xlink:href="#FangSong-6e" x="900"/>
     <use xlink:href="#FangSong-65" x="950"/>
     <use xlink:href="#FangSong-74" x="1000"/>
     <use xlink:href="#FangSong-3d" x="1050"/>
     <use xlink:href="#FangSong-31" x="1100"/>
     <use xlink:href="#FangSong-35" x="1150"/>
     <use xlink:href="#FangSong-30" x="1200"/>
     <use xlink:href="#FangSong-2c" x="1250"/>
     <use xlink:href="#FangSong-20" x="1300"/>
     <use xlink:href="#FangSong-72" x="1350"/>
     <use xlink:href="#FangSong-65" x="1400"/>
     <use xlink:href="#FangSong-73" x="1450"/>
     <use xlink:href="#FangSong-6e" x="1500"/>
     <use xlink:href="#FangSong-65" x="1550"/>
     <use xlink:href="#FangSong-74" x="1600"/>
     <use xlink:href="#FangSong-35" x="1650"/>
     <use xlink:href="#FangSong-30" x="1700"/>
     <use xlink:href="#FangSong-3d" x="1750"/>
     <use xlink:href="#FangSong-31" x="1800"/>
     <use xlink:href="#FangSong-31" x="1850"/>
     <use xlink:href="#FangSong-32" x="1900"/>
     <use xlink:href="#FangSong-2c" x="1950"/>
     <use xlink:href="#FangSong-20" x="2000"/>
     <use xlink:href="#FangSong-73" x="2050"/>
     <use xlink:href="#FangSong-71" x="2100"/>
     <use xlink:href="#FangSong-75" x="2150"/>
     <use xlink:href="#FangSong-65" x="2200"/>
     <use xlink:href="#FangSong-65" x="2250"/>
     <use xlink:href="#FangSong-7a" x="2300"/>
     <use xlink:href="#FangSong-65" x="2350"/>
     <use xlink:href="#FangSong-6e" x="2400"/>
     <use xlink:href="#FangSong-65" x="2450"/>
     <use xlink:href="#FangSong-74" x="2500"/>
     <use xlink:href="#FangSong-76" x="2550"/>
     <use xlink:href="#FangSong-31" x="2600"/>
     <use xlink:href="#FangSong-3d" x="2650"/>
     <use xlink:href="#FangSong-31" x="2700"/>
     <use xlink:href="#FangSong-38" x="2750"/>
     <use xlink:href="#FangSong-37" x="2800"/>
     <use xlink:href="#FangSong-2c" x="2850"/>
     <use xlink:href="#FangSong-20" x="2900"/>
     <use xlink:href="#FangSong-76" x="2950"/>
     <use xlink:href="#FangSong-67" x="3000"/>
     <use xlink:href="#FangSong-67" x="3050"/>
     <use xlink:href="#FangSong-31" x="3100"/>
     <use xlink:href="#FangSong-39" x="3150"/>
     <use xlink:href="#FangSong-3d" x="3200"/>
     <use xlink:href="#FangSong-31" x="3250"/>
     <use xlink:href="#FangSong-38" x="3300"/>
     <use xlink:href="#FangSong-37" x="3350"/>
     <use xlink:href="#FangSong-2c" x="3400"/>
     <use xlink:href="#FangSong-20" x="3450"/>
     <use xlink:href="#FangSong-79" x="3500"/>
     <use xlink:href="#FangSong-6f" x="3550"/>
     <use xlink:href="#FangSong-6c" x="3600"/>
     <use xlink:href="#FangSong-6f" x="3650"/>
     <use xlink:href="#FangSong-76" x="3700"/>
     <use xlink:href="#FangSong-32" x="3750"/>
     <use xlink:href="#FangSong-3d" x="3800"/>
     <use xlink:href="#FangSong-31" x="3850"/>
     <use xlink:href="#FangSong-31" x="3900"/>
     <use xlink:href="#FangSong-32" x="3950"/>
    </g>
   </g>
   <g id="legend_1">
    <g id="patch_7">
     <path d="M 315.72 302.584 
L 407.72 302.584 
Q 409.72 302.584 409.72 300.584 
L 409.72 220.794937 
Q 409.72 218.794937 407.72 218.794937 
L 315.72 218.794937 
Q 313.72 218.794937 313.72 220.794937 
L 313.72 300.584 
Q 313.72 302.584 315.72 302.584 
z
" style="fill: #ffffff; opacity: 0.8; stroke: #cccccc; stroke-linejoin: miter"/>
    </g>
    <g id="line2d_19">
     <path d="M 317.72 226.294937 
L 327.72 226.294937 
L 337.72 226.294937 
" style="fill: none; stroke: #ff0000; stroke-linecap: square"/>
    </g>
    <g id="text_16">
     <!-- total -->
     <g transform="translate(345.72 229.794937) scale(0.1 -0.1)">
      <use xlink:href="#FangSong-74"/>
      <use xlink:href="#FangSong-6f" x="50"/>
      <use xlink:href="#FangSong-74" x="100"/>
      <use xlink:href="#FangSong-61" x="150"/>
      <use xlink:href="#FangSong-6c" x="200"/>
     </g>
    </g>
    <g id="line2d_20">
     <path d="M 317.72 239.74025 
L 327.72 239.74025 
L 337.72 239.74025 
" style="fill: none; stroke-dasharray: 1.85,0.8; stroke-dashoffset: 0; stroke: #008000; stroke-width: 0.5"/>
    </g>
    <g id="text_17">
     <!-- googlenet -->
     <g transform="translate(345.72 243.24025) scale(0.1 -0.1)">
      <use xlink:href="#FangSong-67"/>
      <use xlink:href="#FangSong-6f" x="50"/>
      <use xlink:href="#FangSong-6f" x="100"/>
      <use xlink:href="#FangSong-67" x="150"/>
      <use xlink:href="#FangSong-6c" x="200"/>
      <use xlink:href="#FangSong-65" x="250"/>
      <use xlink:href="#FangSong-6e" x="300"/>
      <use xlink:href="#FangSong-65" x="350"/>
      <use xlink:href="#FangSong-74" x="400"/>
     </g>
    </g>
    <g id="line2d_21">
     <path d="M 317.72 253.224625 
L 327.72 253.224625 
L 337.72 253.224625 
" style="fill: none; stroke-dasharray: 1.85,0.8; stroke-dashoffset: 0; stroke: #0000ff; stroke-width: 0.5"/>
    </g>
    <g id="text_18">
     <!-- squeezenetv1 -->
     <g transform="translate(345.72 256.724625) scale(0.1 -0.1)">
      <use xlink:href="#FangSong-73"/>
      <use xlink:href="#FangSong-71" x="50"/>
      <use xlink:href="#FangSong-75" x="100"/>
      <use xlink:href="#FangSong-65" x="150"/>
      <use xlink:href="#FangSong-65" x="200"/>
      <use xlink:href="#FangSong-7a" x="250"/>
      <use xlink:href="#FangSong-65" x="300"/>
      <use xlink:href="#FangSong-6e" x="350"/>
      <use xlink:href="#FangSong-65" x="400"/>
      <use xlink:href="#FangSong-74" x="450"/>
      <use xlink:href="#FangSong-76" x="500"/>
      <use xlink:href="#FangSong-31" x="550"/>
     </g>
    </g>
    <g id="line2d_22">
     <path d="M 317.72 266.669937 
L 327.72 266.669937 
L 337.72 266.669937 
" style="fill: none; stroke-dasharray: 1.85,0.8; stroke-dashoffset: 0; stroke: #bf00bf; stroke-width: 0.5"/>
    </g>
    <g id="text_19">
     <!-- yolov2 -->
     <g transform="translate(345.72 270.169937) scale(0.1 -0.1)">
      <use xlink:href="#FangSong-79"/>
      <use xlink:href="#FangSong-6f" x="50"/>
      <use xlink:href="#FangSong-6c" x="100"/>
      <use xlink:href="#FangSong-6f" x="150"/>
      <use xlink:href="#FangSong-76" x="200"/>
      <use xlink:href="#FangSong-32" x="250"/>
     </g>
    </g>
    <g id="line2d_23">
     <path d="M 317.72 280.154312 
L 327.72 280.154312 
L 337.72 280.154312 
" style="fill: none; stroke-dasharray: 1.85,0.8; stroke-dashoffset: 0; stroke: #bfbf00; stroke-width: 0.5"/>
    </g>
    <g id="text_20">
     <!-- resnet50 -->
     <g transform="translate(345.72 283.654312) scale(0.1 -0.1)">
      <use xlink:href="#FangSong-72"/>
      <use xlink:href="#FangSong-65" x="50"/>
      <use xlink:href="#FangSong-73" x="100"/>
      <use xlink:href="#FangSong-6e" x="150"/>
      <use xlink:href="#FangSong-65" x="200"/>
      <use xlink:href="#FangSong-74" x="250"/>
      <use xlink:href="#FangSong-35" x="300"/>
      <use xlink:href="#FangSong-30" x="350"/>
     </g>
    </g>
    <g id="line2d_24">
     <path d="M 317.72 293.599625 
L 327.72 293.599625 
L 337.72 293.599625 
" style="fill: none; stroke-dasharray: 1.85,0.8; stroke-dashoffset: 0; stroke: #000000; stroke-width: 0.5"/>
    </g>
    <g id="text_21">
     <!-- vgg19 -->
     <g transform="translate(345.72 297.099625) scale(0.1 -0.1)">
      <use xlink:href="#FangSong-76"/>
      <use xlink:href="#FangSong-67" x="50"/>
      <use xlink:href="#FangSong-67" x="100"/>
      <use xlink:href="#FangSong-31" x="150"/>
      <use xlink:href="#FangSong-39" x="200"/>
     </g>
    </g>
   </g>
  </g>
 </g>
 <defs>
  <clipPath id="pf17f4fb6b3">
   <rect x="57.6" y="41.472" width="357.12" height="266.112"/>
  </clipPath>
 </defs>
</svg>
